<svg width="56" height="58" viewBox="0 0 56 58" fill="none" xmlns="http://www.w3.org/2000/svg">
<g filter="url(#filter0_d_1172_317287)">
<mask id="path-1-inside-1_1172_317287" fill="white">
<path d="M9 -0.000488281H47H50V5.24951H53V10.4995H56V46.4995H53V50.7495H50V55.9995H47V56.0005L9 55.9995H6V50.7495H3V46.4995H0V10.4995H3V5.24951H6V-0.000488281H9Z"/>
</mask>
<path d="M9 -0.000488281H47H50V5.24951H53V10.4995H56V46.4995H53V50.7495H50V55.9995H47V56.0005L9 55.9995H6V50.7495H3V46.4995H0V10.4995H3V5.24951H6V-0.000488281H9Z" fill="#899BA3"/>
<path d="M50 -0.000488281H51V-1.00049H50V-0.000488281ZM50 5.24951H49V6.24951H50V5.24951ZM53 5.24951H54V4.24951H53V5.24951ZM53 10.4995H52V11.4995H53V10.4995ZM56 10.4995H57V9.49951H56V10.4995ZM56 46.4995V47.4995H57V46.4995H56ZM53 46.4995V45.4995H52V46.4995H53ZM53 50.7495V51.7495H54V50.7495H53ZM50 50.7495V49.7495H49V50.7495H50ZM50 55.9995V56.9995H51V55.9995H50ZM47 55.9995V54.9995H46V55.9995H47ZM47 56.0005L47 57.0005L48 57.0005V56.0005H47ZM9 55.9995L9.00003 54.9995H9V55.9995ZM6 55.9995H5V56.9995H6V55.9995ZM6 50.7495H7V49.7495H6V50.7495ZM3 50.7495H2V51.7495H3V50.7495ZM3 46.4995H4V45.4995H3V46.4995ZM0 46.4995H-1V47.4995H0V46.4995ZM0 10.4995V9.49951H-1V10.4995H0ZM3 10.4995V11.4995H4V10.4995H3ZM3 5.24951V4.24951H2V5.24951H3ZM6 5.24951V6.24951H7V5.24951H6ZM6 -0.000488281V-1.00049H5V-0.000488281H6ZM9 -0.000488281V0.999512H47V-0.000488281V-1.00049H9V-0.000488281ZM47 -0.000488281V0.999512H50V-0.000488281V-1.00049H47V-0.000488281ZM50 -0.000488281H49V5.24951H50H51V-0.000488281H50ZM50 5.24951V6.24951H53V5.24951V4.24951H50V5.24951ZM53 5.24951H52V10.4995H53H54V5.24951H53ZM53 10.4995V11.4995H56V10.4995V9.49951H53V10.4995ZM56 10.4995H55V46.4995H56H57V10.4995H56ZM56 46.4995V45.4995H53V46.4995V47.4995H56V46.4995ZM53 46.4995H52V50.7495H53H54V46.4995H53ZM53 50.7495V49.7495H50V50.7495V51.7495H53V50.7495ZM50 50.7495H49V55.9995H50H51V50.7495H50ZM50 55.9995V54.9995H47V55.9995V56.9995H50V55.9995ZM47 55.9995H46V56.0005H47H48V55.9995H47ZM47 56.0005L47 55.0005L9.00003 54.9995L9 55.9995L8.99997 56.9995L47 57.0005L47 56.0005ZM9 55.9995V54.9995H6V55.9995V56.9995H9V55.9995ZM6 55.9995H7V50.7495H6H5V55.9995H6ZM6 50.7495V49.7495H3V50.7495V51.7495H6V50.7495ZM3 50.7495H4V46.4995H3H2V50.7495H3ZM3 46.4995V45.4995H0V46.4995V47.4995H3V46.4995ZM0 46.4995H1V10.4995H0H-1V46.4995H0ZM0 10.4995V11.4995H3V10.4995V9.49951H0V10.4995ZM3 10.4995H4V5.24951H3H2V10.4995H3ZM3 5.24951V6.24951H6V5.24951V4.24951H3V5.24951ZM6 5.24951H7V-0.000488281H6H5V5.24951H6ZM6 -0.000488281V0.999512H9V-0.000488281V-1.00049H6V-0.000488281Z" fill="#252837" mask="url(#path-1-inside-1_1172_317287)"/>
<path d="M30.7478 14V19.501H22.501V22.2468H30.7478V27.7478H33.499V24.998H36.2502V22.2481C37.1659 22.2468 38.0825 22.2468 39 22.2468V19.501C38.081 19.5036 37.1663 19.4984 36.2502 19.4984V16.7485H33.499V14L30.7478 14ZM22.501 22.2468H19.7498V24.9967H22.501V22.2468ZM19.7498 24.9967H17V35.9987H19.7498V24.9967ZM19.7498 35.9987V38.7499H22.501V35.9987H19.7498ZM22.501 38.7499V41.4943H30.7478V38.7499H22.501Z" fill="black"/>
<path d="M36.2502 30.1526H39V35.9987H36.2502V30.1526ZM36.2502 35.9987V38.7498H33.499V35.9987H36.2502ZM33.499 38.7498V41.4943H29.3769V38.7498H33.499Z" fill="black"/>
</g>
<defs>
<filter id="filter0_d_1172_317287" x="0" y="-0.000488281" width="56" height="58.001" filterUnits="userSpaceOnUse" color-interpolation-filters="sRGB">
<feFlood flood-opacity="0" result="BackgroundImageFix"/>
<feColorMatrix in="SourceAlpha" type="matrix" values="0 0 0 0 0 0 0 0 0 0 0 0 0 0 0 0 0 0 127 0" result="hardAlpha"/>
<feOffset dy="2"/>
<feComposite in2="hardAlpha" operator="out"/>
<feColorMatrix type="matrix" values="0 0 0 0 0.145098 0 0 0 0 0.156863 0 0 0 0 0.215686 0 0 0 1 0"/>
<feBlend mode="normal" in2="BackgroundImageFix" result="effect1_dropShadow_1172_317287"/>
<feBlend mode="normal" in="SourceGraphic" in2="effect1_dropShadow_1172_317287" result="shape"/>
</filter>
</defs>
</svg>
