<svg width="216" height="51" viewBox="0 0 216 51" fill="none" xmlns="http://www.w3.org/2000/svg">
<g filter="url(#filter0_d_549_254585)">
<path d="M52 8.61538V4H8.00001L4 8.30769V31.6923L8.00001 36L12 40L16 44H20L24 40L26.2612 36.3077H52V31.6923V8.61538Z" fill="white"/>
<path d="M48 0H132V4H48V0Z" fill="#00CCEC"/>
<path d="M48 4H132V8H48V4Z" fill="white"/>
<path d="M48 8H132V12H48V8Z" fill="white"/>
<path d="M48 12H132V16H48V12Z" fill="white"/>
<path d="M48 16H132V20H48V16Z" fill="white"/>
<path d="M48 24H132V28H48V24Z" fill="white"/>
<path d="M48 20H132V24H48V20Z" fill="white"/>
<path d="M48 28H132V32H48V28Z" fill="white"/>
<path d="M48 32H132V36H48V32Z" fill="white"/>
<path d="M48 40H132V36H48V40Z" fill="#00CCEC"/>
<path d="M44 0H48V4H44V0Z" fill="#00CCEC"/>
<path d="M44 40H48V36H44V40Z" fill="#00CCEC"/>
<path d="M40 0H44V4H40V0Z" fill="#00CCEC"/>
<path d="M40 40H44V36H40V40Z" fill="#00CCEC"/>
<path d="M36 0H40V4H36V0Z" fill="#00CCEC"/>
<path d="M36 40H40V36H36V40Z" fill="#00CCEC"/>
<path d="M32 0H36V4H32V0Z" fill="#00CCEC"/>
<path d="M32 40H36V36H32V40Z" fill="#00CCEC"/>
<path d="M28 0H32V4H28V0Z" fill="#00CCEC"/>
<path d="M28 40H32V36H28V40Z" fill="#00CCEC"/>
<path d="M24 0H28V4H24V0Z" fill="#00CCEC"/>
<path d="M24 40H28V36H24V40Z" fill="#00CCEC"/>
<path d="M20 0H24V4H20V0Z" fill="#00CCEC"/>
<path d="M20 44H24V40H20V44Z" fill="#00CCEC"/>
<path d="M16 0H20V4H16V0Z" fill="#00CCEC"/>
<path d="M16 48H20V44H16V48Z" fill="#00CCEC"/>
<path d="M12 0H16V4H12V0Z" fill="#00CCEC"/>
<path d="M12 44H16V40H12V44Z" fill="#00CCEC"/>
<path d="M8 0H12V4H8V0Z" fill="#00CCEC"/>
<path d="M8 40H12V36H8V40Z" fill="#00CCEC"/>
<path d="M4 4H8V8H4V4Z" fill="#00CCEC"/>
<path d="M4 36H8V32H4V36Z" fill="#00CCEC"/>
<path d="M0 8H4V12H0V8Z" fill="#00CCEC"/>
<path d="M0 12H4V16H0V12Z" fill="#00CCEC"/>
<path d="M0 16H4V20H0V16Z" fill="#00CCEC"/>
<path d="M0 20H4V24H0V20Z" fill="#00CCEC"/>
<path d="M0 20H4V24H0V20Z" fill="#00CCEC"/>
<path d="M0 24H4V28H0V24Z" fill="#00CCEC"/>
<path d="M0 28H4V32H0V28Z" fill="#00CCEC"/>
<path d="M164 8.625V4L212 4V8.31667V32.375L208 36H198.906H194.292H189.739H164V31.375V8.625Z" fill="white"/>
<path d="M168 4H108V8H168V4Z" fill="white"/>
<path d="M168 8H108V12H168V8Z" fill="white"/>
<path d="M168 12H108V16H168V12Z" fill="white"/>
<path d="M168 16H108V20H168V16Z" fill="white"/>
<path d="M168 24H108V28H168V24Z" fill="white"/>
<path d="M168 20H108V24H168V20Z" fill="white"/>
<path d="M168 28H108V32H168V28Z" fill="white"/>
<path d="M168 32H108V36H168V32Z" fill="white"/>
<path d="M168 0H108V4H168V0Z" fill="#00CCEC"/>
<path d="M168 40H108V36H168V40Z" fill="#00CCEC"/>
<path d="M172 0H168V4H172V0Z" fill="#00CCEC"/>
<path d="M172 40H168V36H172V40Z" fill="#00CCEC"/>
<path d="M176 0H172V4H176V0Z" fill="#00CCEC"/>
<path d="M176 40H172V36H176V40Z" fill="#00CCEC"/>
<path d="M180 0H176V4H180V0Z" fill="#00CCEC"/>
<path d="M180 40H176V36H180V40Z" fill="#00CCEC"/>
<path d="M184 0H180V4H184V0Z" fill="#00CCEC"/>
<path d="M184 40H180V36H184V40Z" fill="#00CCEC"/>
<path d="M188 0H184V4H188V0Z" fill="#00CCEC"/>
<path d="M188 40H184V36H188V40Z" fill="#00CCEC"/>
<path d="M192 0H188V4H192V0Z" fill="#00CCEC"/>
<path d="M192 40H188V36H192V40Z" fill="#00CCEC"/>
<path d="M196 0H192V4H196V0Z" fill="#00CCEC"/>
<path d="M196 40H192V36H196V40Z" fill="#00CCEC"/>
<path d="M200 0H196V4H200V0Z" fill="#00CCEC"/>
<path d="M200 40H196V36H200V40Z" fill="#00CCEC"/>
<path d="M204 0H200V4H204V0Z" fill="#00CCEC"/>
<path d="M204 40H200V36H204V40Z" fill="#00CCEC"/>
<path d="M208 0H204V4H208V0Z" fill="#00CCEC"/>
<path d="M208 40H204V36H208V40Z" fill="#00CCEC"/>
<path d="M212 4H208V8H212V4Z" fill="#00CCEC"/>
<path d="M212 36H208V32H212V36Z" fill="#00CCEC"/>
<path d="M216 8H212V12H216V8Z" fill="#00CCEC"/>
<path d="M216 12H212V16H216V12Z" fill="#00CCEC"/>
<path d="M216 16H212V20H216V16Z" fill="#00CCEC"/>
<path d="M216 20H212V24H216V20Z" fill="#00CCEC"/>
<path d="M216 24H212V28H216V24Z" fill="#00CCEC"/>
<path d="M216 28H212V32H216V28Z" fill="#00CCEC"/>
<path d="M14 14.2143H15.1786V15.3929H14V14.2143ZM15.1786 14.2143H16.3571V15.3929H15.1786V14.2143ZM15.1786 15.3929H16.3571V16.5714H15.1786V15.3929ZM15.1786 16.5714H16.3571V17.75H15.1786V16.5714ZM15.1786 17.75H16.3571V18.9286H15.1786V17.75ZM14 17.75H15.1786V18.9286H14V17.75ZM14 16.5714H15.1786V17.75H14V16.5714ZM14 15.3929H15.1786V16.5714H14V15.3929ZM14 18.9286H15.1786V20.1071H14V18.9286ZM14 20.1071H15.1786V21.2857H14V20.1071ZM14 21.2857H15.1786V22.4643H14V21.2857ZM15.1786 20.1071H16.3571V21.2857H15.1786V20.1071ZM15.1786 18.9286H16.3571V20.1071H15.1786V18.9286ZM15.1786 21.2857H16.3571V22.4643H15.1786V21.2857ZM15.1786 22.4643H16.3571V23.6429H15.1786V22.4643ZM14 23.6429H15.1786V24.8214H14V23.6429ZM14 22.4643H15.1786V23.6429H14V22.4643ZM14 24.8214H15.1786V26H14V24.8214ZM15.1786 24.8214H16.3571V26H15.1786V24.8214ZM15.1786 23.6429H16.3571V24.8214H15.1786V23.6429ZM16.3571 24.8214H17.5357V26H16.3571V24.8214ZM17.5357 24.8214H18.7143V26H17.5357V24.8214ZM18.7143 24.8214H19.8929V26H18.7143V24.8214ZM18.7143 23.6429H19.8929V24.8214H18.7143V23.6429ZM17.5357 23.6429H18.7143V24.8214H17.5357V23.6429ZM16.3571 23.6429H17.5357V24.8214H16.3571V23.6429ZM16.3571 14.2143H17.5357V15.3929H16.3571V14.2143ZM17.5357 14.2143H18.7143V15.3929H17.5357V14.2143ZM18.7143 14.2143H19.8929V15.3929H18.7143V14.2143ZM19.8929 14.2143H21.0714V15.3929H19.8929V14.2143ZM18.7143 15.3929H19.8929V16.5714H18.7143V15.3929ZM17.5357 15.3929H18.7143V16.5714H17.5357V15.3929ZM16.3571 15.3929H17.5357V16.5714H16.3571V15.3929ZM16.3571 20.1071H17.5357V21.2857H16.3571V20.1071ZM17.5357 18.9286H18.7143V20.1071H17.5357V18.9286ZM16.3571 18.9286H17.5357V20.1071H16.3571V18.9286ZM17.5357 20.1071H18.7143V21.2857H17.5357V20.1071ZM19.8929 15.3929H21.0714V16.5714H19.8929V15.3929ZM19.8929 23.6429H21.0714V24.8214H19.8929V23.6429ZM19.8929 24.8214H21.0714V26H19.8929V24.8214ZM18.7143 18.9286H19.8929V20.1071H18.7143V18.9286ZM18.7143 20.1071H19.8929V21.2857H18.7143V20.1071ZM27.1843 23.6429H28.3629V24.8214H27.1843V23.6429ZM27.1843 24.8214H28.3629V26H27.1843V24.8214ZM26.0057 24.8214H27.1843V26H26.0057V24.8214ZM26.0057 23.6429H27.1843V24.8214H26.0057V23.6429ZM24.8271 24.8214H26.0057V26H24.8271V24.8214ZM24.8271 23.6429H26.0057V24.8214H24.8271V23.6429ZM23.6486 23.6429H24.8271V24.8214H23.6486V23.6429ZM23.6486 22.4643H24.8271V23.6429H23.6486V22.4643ZM23.6486 21.2857H24.8271V22.4643H23.6486V21.2857ZM23.6486 20.1071H24.8271V21.2857H23.6486V20.1071ZM23.6486 18.9286H24.8271V20.1071H23.6486V18.9286ZM23.6486 17.75H24.8271V18.9286H23.6486V17.75ZM24.8271 21.2857H26.0057V22.4643H24.8271V21.2857ZM24.8271 22.4643H26.0057V23.6429H24.8271V22.4643ZM24.8271 20.1071H26.0057V21.2857H24.8271V20.1071ZM24.8271 18.9286H26.0057V20.1071H24.8271V18.9286ZM24.8271 14.2143H26.0057V15.3929H24.8271V14.2143ZM24.8271 15.3929H26.0057V16.5714H24.8271V15.3929ZM24.8271 16.5714H26.0057V17.75H24.8271V16.5714ZM24.8271 17.75H26.0057V18.9286H24.8271V17.75ZM23.6486 16.5714H24.8271V17.75H23.6486V16.5714ZM22.47 17.75H23.6486V18.9286H22.47V17.75ZM26.0057 17.75H27.1843V18.9286H26.0057V17.75ZM27.1843 17.75H28.3629V18.9286H27.1843V17.75ZM23.6486 15.3929H24.8271V16.5714H23.6486V15.3929ZM22.47 18.9286H23.6486V20.1071H22.47V18.9286ZM26.0057 18.9286H27.1843V20.1071H26.0057V18.9286ZM27.1843 18.9286H28.3629V20.1071H27.1843V18.9286ZM29.7584 17.75H30.9369V18.9286H29.7584V17.75ZM29.7584 16.5714H30.9369V17.75H29.7584V16.5714ZM30.9369 16.5714H32.1155V17.75H30.9369V16.5714ZM30.9369 17.75H32.1155V18.9286H30.9369V17.75ZM30.9369 18.9286H32.1155V20.1071H30.9369V18.9286ZM30.9369 20.1071H32.1155V21.2857H30.9369V20.1071ZM30.9369 21.2857H32.1155V22.4643H30.9369V21.2857ZM29.7584 21.2857H30.9369V22.4643H29.7584V21.2857ZM29.7584 20.1071H30.9369V21.2857H29.7584V20.1071ZM29.7584 18.9286H30.9369V20.1071H29.7584V18.9286ZM29.7584 22.4643H30.9369V23.6429H29.7584V22.4643ZM30.9369 22.4643H32.1155V23.6429H30.9369V22.4643ZM30.9369 23.6429H32.1155V24.8214H30.9369V23.6429ZM30.9369 24.8214H32.1155V26H30.9369V24.8214ZM29.7584 24.8214H30.9369V26H29.7584V24.8214ZM29.7584 23.6429H30.9369V24.8214H29.7584V23.6429ZM35.6512 24.8214H36.8298V26H35.6512V24.8214ZM36.8298 24.8214H38.0084V26H36.8298V24.8214ZM36.8298 23.6429H38.0084V24.8214H36.8298V23.6429ZM36.8298 22.4643H38.0084V23.6429H36.8298V22.4643ZM36.8298 21.2857H38.0084V22.4643H36.8298V21.2857ZM36.8298 20.1071H38.0084V21.2857H36.8298V20.1071ZM36.8298 18.9286H38.0084V20.1071H36.8298V18.9286ZM36.8298 17.75H38.0084V18.9286H36.8298V17.75ZM35.6512 20.1071H36.8298V21.2857H35.6512V20.1071ZM35.6512 21.2857H36.8298V22.4643H35.6512V21.2857ZM35.6512 22.4643H36.8298V23.6429H35.6512V22.4643ZM35.6512 23.6429H36.8298V24.8214H35.6512V23.6429ZM35.6512 18.9286H36.8298V20.1071H35.6512V18.9286ZM32.1155 17.75H33.2941V18.9286H32.1155V17.75ZM33.2941 17.75H34.4726V18.9286H33.2941V17.75ZM34.4726 17.75H35.6512V18.9286H34.4726V17.75ZM34.4726 16.5714H35.6512V17.75H34.4726V16.5714ZM35.6512 16.5714H36.8298V17.75H35.6512V16.5714ZM35.6512 17.75H36.8298V18.9286H35.6512V17.75ZM33.2941 16.5714H34.4726V17.75H33.2941V16.5714ZM29.7584 14.2143H30.9369V15.3929H29.7584V14.2143ZM30.9369 14.2143H32.1155V15.3929H30.9369V14.2143ZM30.9369 15.3929H32.1155V16.5714H30.9369V15.3929ZM29.7584 15.3929H30.9369V16.5714H29.7584V15.3929ZM41.7671 16.5714H42.9457V17.75H41.7671V16.5714ZM40.5886 16.5714H41.7671V17.75H40.5886V16.5714ZM40.5886 17.75H41.7671V18.9286H40.5886V17.75ZM41.7671 17.75H42.9457V18.9286H41.7671V17.75ZM42.9457 16.5714H44.1243V17.75H42.9457V16.5714ZM44.1243 16.5714H45.3029V17.75H44.1243V16.5714ZM45.3029 16.5714H46.4814V17.75H45.3029V16.5714ZM45.3029 17.75H46.4814V18.9286H45.3029V17.75ZM44.1243 17.75H45.3029V18.9286H44.1243V17.75ZM46.4814 17.75H47.66V18.9286H46.4814V17.75ZM46.4814 18.9286H47.66V20.1071H46.4814V18.9286ZM46.4814 23.6429H47.66V24.8214H46.4814V23.6429ZM45.3029 23.6429H46.4814V24.8214H45.3029V23.6429ZM45.3029 18.9286H46.4814V20.1071H45.3029V18.9286ZM44.1243 23.6429H45.3029V24.8214H44.1243V23.6429ZM45.3029 24.8214H46.4814V26H45.3029V24.8214ZM44.1243 24.8214H45.3029V26H44.1243V24.8214ZM42.9457 24.8214H44.1243V26H42.9457V24.8214ZM41.7671 24.8214H42.9457V26H41.7671V24.8214ZM40.5886 24.8214H41.7671V26H40.5886V24.8214ZM40.5886 23.6429H41.7671V24.8214H40.5886V23.6429ZM41.7671 23.6429H42.9457V24.8214H41.7671V23.6429ZM40.5886 22.4643H41.7671V23.6429H40.5886V22.4643ZM39.41 23.6429H40.5886V24.8214H39.41V23.6429ZM39.41 22.4643H40.5886V23.6429H39.41V22.4643ZM39.41 21.2857H40.5886V22.4643H39.41V21.2857ZM39.41 20.1071H40.5886V21.2857H39.41V20.1071ZM39.41 18.9286H40.5886V20.1071H39.41V18.9286ZM39.41 17.75H40.5886V18.9286H39.41V17.75ZM40.5886 18.9286H41.7671V20.1071H40.5886V18.9286ZM40.5886 20.1071H41.7671V21.2857H40.5886V20.1071ZM40.5886 21.2857H41.7671V22.4643H40.5886V21.2857ZM42.9457 23.6429H44.1243V24.8214H42.9457V23.6429ZM42.9457 17.75H44.1243V18.9286H42.9457V17.75ZM45.3029 20.1071H46.4814V21.2857H45.3029V20.1071ZM46.4814 20.1071H47.66V21.2857H46.4814V20.1071ZM41.7671 21.2857H42.9457V22.4643H41.7671V21.2857ZM42.9457 21.2857H44.1243V22.4643H42.9457V21.2857ZM44.1243 21.2857H45.3029V22.4643H44.1243V21.2857ZM45.3029 21.2857H46.4814V22.4643H45.3029V21.2857ZM46.4814 21.2857H47.66V22.4643H46.4814V21.2857ZM44.1243 20.1071H45.3029V21.2857H44.1243V20.1071ZM42.9457 20.1071H44.1243V21.2857H42.9457V20.1071ZM41.7671 20.1071H42.9457V21.2857H41.7671V20.1071ZM49.0616 17.75H50.2402V18.9286H49.0616V17.75ZM49.0616 16.5714H50.2402V17.75H49.0616V16.5714ZM50.2402 16.5714H51.4188V17.75H50.2402V16.5714ZM50.2402 17.75H51.4188V18.9286H50.2402V17.75ZM50.2402 18.9286H51.4188V20.1071H50.2402V18.9286ZM50.2402 20.1071H51.4188V21.2857H50.2402V20.1071ZM50.2402 21.2857H51.4188V22.4643H50.2402V21.2857ZM49.0616 21.2857H50.2402V22.4643H49.0616V21.2857ZM49.0616 20.1071H50.2402V21.2857H49.0616V20.1071ZM49.0616 18.9286H50.2402V20.1071H49.0616V18.9286ZM49.0616 22.4643H50.2402V23.6429H49.0616V22.4643ZM50.2402 22.4643H51.4188V23.6429H50.2402V22.4643ZM50.2402 23.6429H51.4188V24.8214H50.2402V23.6429ZM50.2402 24.8214H51.4188V26H50.2402V24.8214ZM49.0616 24.8214H50.2402V26H49.0616V24.8214ZM49.0616 23.6429H50.2402V24.8214H49.0616V23.6429ZM51.4188 17.75H52.5974V18.9286H51.4188V17.75ZM52.5974 17.75H53.7759V18.9286H52.5974V17.75ZM53.7759 17.75H54.9545V18.9286H53.7759V17.75ZM53.7759 16.5714H54.9545V17.75H53.7759V16.5714ZM52.5974 16.5714H53.7759V17.75H52.5974V16.5714ZM51.4188 18.9286H52.5974V20.1071H51.4188V18.9286ZM54.9545 17.75H56.1331V18.9286H54.9545V17.75ZM53.7759 18.9286H54.9545V20.1071H53.7759V18.9286ZM59.8888 16.5714H61.0674V17.75H59.8888V16.5714ZM58.7102 16.5714H59.8888V17.75H58.7102V16.5714ZM58.7102 17.75H59.8888V18.9286H58.7102V17.75ZM59.8888 17.75H61.0674V18.9286H59.8888V17.75ZM61.0674 16.5714H62.2459V17.75H61.0674V16.5714ZM62.2459 16.5714H63.4245V17.75H62.2459V16.5714ZM63.4245 16.5714H64.6031V17.75H63.4245V16.5714ZM63.4245 17.75H64.6031V18.9286H63.4245V17.75ZM62.2459 17.75H63.4245V18.9286H62.2459V17.75ZM64.6031 17.75H65.7816V18.9286H64.6031V17.75ZM64.6031 18.9286H65.7816V20.1071H64.6031V18.9286ZM64.6031 23.6429H65.7816V24.8214H64.6031V23.6429ZM63.4245 23.6429H64.6031V24.8214H63.4245V23.6429ZM63.4245 18.9286H64.6031V20.1071H63.4245V18.9286ZM62.2459 23.6429H63.4245V24.8214H62.2459V23.6429ZM63.4245 24.8214H64.6031V26H63.4245V24.8214ZM62.2459 24.8214H63.4245V26H62.2459V24.8214ZM61.0674 24.8214H62.2459V26H61.0674V24.8214ZM59.8888 24.8214H61.0674V26H59.8888V24.8214ZM58.7102 24.8214H59.8888V26H58.7102V24.8214ZM58.7102 23.6429H59.8888V24.8214H58.7102V23.6429ZM59.8888 23.6429H61.0674V24.8214H59.8888V23.6429ZM58.7102 22.4643H59.8888V23.6429H58.7102V22.4643ZM57.5316 23.6429H58.7102V24.8214H57.5316V23.6429ZM57.5316 22.4643H58.7102V23.6429H57.5316V22.4643ZM57.5316 21.2857H58.7102V22.4643H57.5316V21.2857ZM57.5316 20.1071H58.7102V21.2857H57.5316V20.1071ZM57.5316 18.9286H58.7102V20.1071H57.5316V18.9286ZM57.5316 17.75H58.7102V18.9286H57.5316V17.75ZM58.7102 18.9286H59.8888V20.1071H58.7102V18.9286ZM58.7102 20.1071H59.8888V21.2857H58.7102V20.1071ZM58.7102 21.2857H59.8888V22.4643H58.7102V21.2857ZM61.0674 23.6429H62.2459V24.8214H61.0674V23.6429ZM61.0674 17.75H62.2459V18.9286H61.0674V17.75ZM63.4245 20.1071H64.6031V21.2857H63.4245V20.1071ZM64.6031 20.1071H65.7816V21.2857H64.6031V20.1071ZM59.8888 21.2857H61.0674V22.4643H59.8888V21.2857ZM61.0674 21.2857H62.2459V22.4643H61.0674V21.2857ZM62.2459 21.2857H63.4245V22.4643H62.2459V21.2857ZM63.4245 21.2857H64.6031V22.4643H63.4245V21.2857ZM64.6031 21.2857H65.7816V22.4643H64.6031V21.2857ZM62.2459 20.1071H63.4245V21.2857H62.2459V20.1071ZM61.0674 20.1071H62.2459V21.2857H61.0674V20.1071ZM59.8888 20.1071H61.0674V21.2857H59.8888V20.1071ZM75.4333 24.8214H74.2547V23.6429H75.4333V24.8214ZM75.4333 26H74.2547V24.8214H75.4333V26ZM74.2547 26H73.0761V24.8214H74.2547V26ZM74.2547 24.8214H73.0761V23.6429H74.2547V24.8214ZM74.2547 23.6429H73.0761V22.4643H74.2547V23.6429ZM74.2547 22.4643H73.0761V21.2857H74.2547V22.4643ZM74.2547 21.2857H73.0761V20.1071H74.2547V21.2857ZM75.4333 21.2857H74.2547V20.1071H75.4333V21.2857ZM75.4333 22.4643H74.2547V21.2857H75.4333V22.4643ZM75.4333 23.6429H74.2547V22.4643H75.4333V23.6429ZM75.4333 20.1071H74.2547V18.9286H75.4333V20.1071ZM74.2547 20.1071H73.0761V18.9286H74.2547V20.1071ZM74.2547 18.9286H73.0761V17.75H74.2547V18.9286ZM74.2547 17.75H73.0761V16.5714H74.2547V17.75ZM75.4333 17.75H74.2547V16.5714H75.4333V17.75ZM75.4333 18.9286H74.2547V17.75H75.4333V18.9286ZM69.5404 17.75H68.3619V16.5714H69.5404V17.75ZM68.3619 17.75H67.1833V16.5714H68.3619V17.75ZM68.3619 18.9286H67.1833V17.75H68.3619V18.9286ZM68.3619 20.1071H67.1833V18.9286H68.3619V20.1071ZM68.3619 21.2857H67.1833V20.1071H68.3619V21.2857ZM68.3619 22.4643H67.1833V21.2857H68.3619V22.4643ZM68.3619 23.6429H67.1833V22.4643H68.3619V23.6429ZM68.3619 24.8214H67.1833V23.6429H68.3619V24.8214ZM69.5404 22.4643H68.3619V21.2857H69.5404V22.4643ZM69.5404 21.2857H68.3619V20.1071H69.5404V21.2857ZM69.5404 20.1071H68.3619V18.9286H69.5404V20.1071ZM69.5404 18.9286H68.3619V17.75H69.5404V18.9286ZM69.5404 23.6429H68.3619V22.4643H69.5404V23.6429ZM73.0761 24.8214H71.8976V23.6429H73.0761V24.8214ZM71.8976 24.8214H70.719V23.6429H71.8976V24.8214ZM70.719 24.8214H69.5404V23.6429H70.719V24.8214ZM70.719 26H69.5404V24.8214H70.719V26ZM69.5404 26H68.3619V24.8214H69.5404V26ZM69.5404 24.8214H68.3619V23.6429H69.5404V24.8214ZM71.8976 26H70.719V24.8214H71.8976V26ZM76.8349 17.75H78.0135V18.9286H76.8349V17.75ZM76.8349 16.5714H78.0135V17.75H76.8349V16.5714ZM78.0135 16.5714H79.1921V17.75H78.0135V16.5714ZM78.0135 17.75H79.1921V18.9286H78.0135V17.75ZM78.0135 18.9286H79.1921V20.1071H78.0135V18.9286ZM78.0135 20.1071H79.1921V21.2857H78.0135V20.1071ZM78.0135 21.2857H79.1921V22.4643H78.0135V21.2857ZM76.8349 21.2857H78.0135V22.4643H76.8349V21.2857ZM76.8349 20.1071H78.0135V21.2857H76.8349V20.1071ZM76.8349 18.9286H78.0135V20.1071H76.8349V18.9286ZM76.8349 22.4643H78.0135V23.6429H76.8349V22.4643ZM78.0135 22.4643H79.1921V23.6429H78.0135V22.4643ZM78.0135 23.6429H79.1921V24.8214H78.0135V23.6429ZM78.0135 24.8214H79.1921V26H78.0135V24.8214ZM76.8349 24.8214H78.0135V26H76.8349V24.8214ZM76.8349 23.6429H78.0135V24.8214H76.8349V23.6429ZM81.5492 24.8214H82.7278V26H81.5492V24.8214ZM82.7278 24.8214H83.9064V26H82.7278V24.8214ZM82.7278 23.6429H83.9064V24.8214H82.7278V23.6429ZM82.7278 22.4643H83.9064V23.6429H82.7278V22.4643ZM82.7278 21.2857H83.9064V22.4643H82.7278V21.2857ZM82.7278 20.1071H83.9064V21.2857H82.7278V20.1071ZM82.7278 18.9286H83.9064V20.1071H82.7278V18.9286ZM82.7278 17.75H83.9064V18.9286H82.7278V17.75ZM81.5492 20.1071H82.7278V21.2857H81.5492V20.1071ZM81.5492 21.2857H82.7278V22.4643H81.5492V21.2857ZM81.5492 22.4643H82.7278V23.6429H81.5492V22.4643ZM81.5492 23.6429H82.7278V24.8214H81.5492V23.6429ZM81.5492 18.9286H82.7278V20.1071H81.5492V18.9286ZM79.1921 17.75H80.3706V18.9286H79.1921V17.75ZM80.3706 17.75H81.5492V18.9286H80.3706V17.75ZM81.5492 16.5714H82.7278V17.75H81.5492V16.5714ZM81.5492 17.75H82.7278V18.9286H81.5492V17.75ZM80.3706 16.5714H81.5492V17.75H80.3706V16.5714ZM86.2635 24.8214H87.4421V26H86.2635V24.8214ZM87.4421 24.8214H88.6206V26H87.4421V24.8214ZM87.4421 23.6429H88.6206V24.8214H87.4421V23.6429ZM87.4421 22.4643H88.6206V23.6429H87.4421V22.4643ZM87.4421 21.2857H88.6206V22.4643H87.4421V21.2857ZM87.4421 20.1071H88.6206V21.2857H87.4421V20.1071ZM87.4421 18.9286H88.6206V20.1071H87.4421V18.9286ZM87.4421 17.75H88.6206V18.9286H87.4421V17.75ZM86.2635 20.1071H87.4421V21.2857H86.2635V20.1071ZM86.2635 21.2857H87.4421V22.4643H86.2635V21.2857ZM86.2635 22.4643H87.4421V23.6429H86.2635V22.4643ZM86.2635 23.6429H87.4421V24.8214H86.2635V23.6429ZM86.2635 18.9286H87.4421V20.1071H86.2635V18.9286ZM83.9064 17.75H85.0849V18.9286H83.9064V17.75ZM85.0849 17.75H86.2635V18.9286H85.0849V17.75ZM86.2635 16.5714H87.4421V17.75H86.2635V16.5714ZM86.2635 17.75H87.4421V18.9286H86.2635V17.75ZM85.0849 16.5714H86.2635V17.75H85.0849V16.5714ZM99.6494 23.6429H100.828V24.8214H99.6494V23.6429ZM99.6494 24.8214H100.828V26H99.6494V24.8214ZM98.4708 24.8214H99.6494V26H98.4708V24.8214ZM98.4708 23.6429H99.6494V24.8214H98.4708V23.6429ZM97.2922 24.8214H98.4708V26H97.2922V24.8214ZM97.2922 23.6429H98.4708V24.8214H97.2922V23.6429ZM96.1137 23.6429H97.2922V24.8214H96.1137V23.6429ZM96.1137 22.4643H97.2922V23.6429H96.1137V22.4643ZM96.1137 21.2857H97.2922V22.4643H96.1137V21.2857ZM96.1137 20.1071H97.2922V21.2857H96.1137V20.1071ZM96.1137 18.9286H97.2922V20.1071H96.1137V18.9286ZM96.1137 17.75H97.2922V18.9286H96.1137V17.75ZM97.2922 21.2857H98.4708V22.4643H97.2922V21.2857ZM97.2922 22.4643H98.4708V23.6429H97.2922V22.4643ZM97.2922 20.1071H98.4708V21.2857H97.2922V20.1071ZM97.2922 18.9286H98.4708V20.1071H97.2922V18.9286ZM97.2922 14.2143H98.4708V15.3929H97.2922V14.2143ZM97.2922 15.3929H98.4708V16.5714H97.2922V15.3929ZM97.2922 16.5714H98.4708V17.75H97.2922V16.5714ZM97.2922 17.75H98.4708V18.9286H97.2922V17.75ZM96.1137 16.5714H97.2922V17.75H96.1137V16.5714ZM94.9351 17.75H96.1137V18.9286H94.9351V17.75ZM98.4708 17.75H99.6494V18.9286H98.4708V17.75ZM99.6494 17.75H100.828V18.9286H99.6494V17.75ZM96.1137 15.3929H97.2922V16.5714H96.1137V15.3929ZM94.9351 18.9286H96.1137V20.1071H94.9351V18.9286ZM98.4708 18.9286H99.6494V20.1071H98.4708V18.9286ZM99.6494 18.9286H100.828V20.1071H99.6494V18.9286ZM102.223 17.75H103.402V18.9286H102.223V17.75ZM102.223 16.5714H103.402V17.75H102.223V16.5714ZM103.402 16.5714H104.581V17.75H103.402V16.5714ZM103.402 17.75H104.581V18.9286H103.402V17.75ZM103.402 18.9286H104.581V20.1071H103.402V18.9286ZM103.402 20.1071H104.581V21.2857H103.402V20.1071ZM103.402 21.2857H104.581V22.4643H103.402V21.2857ZM102.223 21.2857H103.402V22.4643H102.223V21.2857ZM102.223 20.1071H103.402V21.2857H102.223V20.1071ZM102.223 18.9286H103.402V20.1071H102.223V18.9286ZM102.223 22.4643H103.402V23.6429H102.223V22.4643ZM103.402 22.4643H104.581V23.6429H103.402V22.4643ZM103.402 23.6429H104.581V24.8214H103.402V23.6429ZM103.402 24.8214H104.581V26H103.402V24.8214ZM102.223 24.8214H103.402V26H102.223V24.8214ZM102.223 23.6429H103.402V24.8214H102.223V23.6429ZM104.581 17.75H105.759V18.9286H104.581V17.75ZM105.759 17.75H106.938V18.9286H105.759V17.75ZM106.938 17.75H108.116V18.9286H106.938V17.75ZM106.938 16.5714H108.116V17.75H106.938V16.5714ZM105.759 16.5714H106.938V17.75H105.759V16.5714ZM104.581 18.9286H105.759V20.1071H104.581V18.9286ZM108.116 17.75H109.295V18.9286H108.116V17.75ZM106.938 18.9286H108.116V20.1071H106.938V18.9286ZM117.765 26H116.586V24.8214H117.765V26ZM117.765 24.8214H116.586V23.6429H117.765V24.8214ZM116.586 24.8214H115.408V23.6429H116.586V24.8214ZM115.408 26H114.229V24.8214H115.408V26ZM114.229 26H113.051V24.8214H114.229V26ZM113.051 26H111.872V24.8214H113.051V26ZM113.051 24.8214H111.872V23.6429H113.051V24.8214ZM114.229 24.8214H113.051V23.6429H114.229V24.8214ZM111.872 24.8214H110.693V23.6429H111.872V24.8214ZM111.872 23.6429H110.693V22.4643H111.872V23.6429ZM111.872 18.9286H110.693V17.75H111.872V18.9286ZM113.051 18.9286H111.872V17.75H113.051V18.9286ZM113.051 23.6429H111.872V22.4643H113.051V23.6429ZM114.229 18.9286H113.051V17.75H114.229V18.9286ZM113.051 17.75H111.872V16.5714H113.051V17.75ZM114.229 17.75H113.051V16.5714H114.229V17.75ZM115.408 17.75H114.229V16.5714H115.408V17.75ZM116.586 17.75H115.408V16.5714H116.586V17.75ZM117.765 17.75H116.586V16.5714H117.765V17.75ZM117.765 18.9286H116.586V17.75H117.765V18.9286ZM116.586 18.9286H115.408V17.75H116.586V18.9286ZM117.765 20.1071H116.586V18.9286H117.765V20.1071ZM118.943 18.9286H117.765V17.75H118.943V18.9286ZM118.943 20.1071H117.765V18.9286H118.943V20.1071ZM118.943 21.2857H117.765V20.1071H118.943V21.2857ZM118.943 22.4643H117.765V21.2857H118.943V22.4643ZM118.943 23.6429H117.765V22.4643H118.943V23.6429ZM118.943 24.8214H117.765V23.6429H118.943V24.8214ZM117.765 23.6429H116.586V22.4643H117.765V23.6429ZM117.765 22.4643H116.586V21.2857H117.765V22.4643ZM117.765 21.2857H116.586V20.1071H117.765V21.2857ZM115.408 18.9286H114.229V17.75H115.408V18.9286ZM115.408 24.8214H114.229V23.6429H115.408V24.8214ZM117.765 24.8214H118.943V26H117.765V24.8214ZM115.408 20.1071H116.586V21.2857H115.408V20.1071ZM114.229 20.1071H115.408V21.2857H114.229V20.1071ZM113.051 20.1071H114.229V21.2857H113.051V20.1071ZM111.872 20.1071H113.051V21.2857H111.872V20.1071ZM110.693 21.2857H111.872V22.4643H110.693V21.2857ZM111.872 21.2857H113.051V22.4643H111.872V21.2857ZM115.408 21.2857H116.586V22.4643H115.408V21.2857ZM114.229 21.2857H115.408V22.4643H114.229V21.2857ZM113.051 21.2857H114.229V22.4643H113.051V21.2857ZM120.345 17.75H121.524V18.9286H120.345V17.75ZM120.345 16.5714H121.524V17.75H120.345V16.5714ZM121.524 16.5714H122.702V17.75H121.524V16.5714ZM121.524 17.75H122.702V18.9286H121.524V17.75ZM121.524 18.9286H122.702V20.1071H121.524V18.9286ZM121.524 20.1071H122.702V21.2857H121.524V20.1071ZM121.524 21.2857H122.702V22.4643H121.524V21.2857ZM120.345 21.2857H121.524V22.4643H120.345V21.2857ZM120.345 20.1071H121.524V21.2857H120.345V20.1071ZM120.345 18.9286H121.524V20.1071H120.345V18.9286ZM120.345 22.4643H121.524V23.6429H120.345V22.4643ZM121.524 22.4643H122.702V23.6429H121.524V22.4643ZM121.524 23.6429H122.702V24.8214H121.524V23.6429ZM121.524 24.8214H122.702V26H121.524V24.8214ZM120.345 24.8214H121.524V26H120.345V24.8214ZM120.345 23.6429H121.524V24.8214H120.345V23.6429ZM126.238 24.8214H127.417V26H126.238V24.8214ZM127.417 24.8214H128.595V26H127.417V24.8214ZM127.417 23.6429H128.595V24.8214H127.417V23.6429ZM127.417 22.4643H128.595V23.6429H127.417V22.4643ZM127.417 21.2857H128.595V22.4643H127.417V21.2857ZM127.417 20.1071H128.595V21.2857H127.417V20.1071ZM127.417 18.9286H128.595V20.1071H127.417V18.9286ZM127.417 17.75H128.595V18.9286H127.417V17.75ZM126.238 20.1071H127.417V21.2857H126.238V20.1071ZM126.238 21.2857H127.417V22.4643H126.238V21.2857ZM126.238 22.4643H127.417V23.6429H126.238V22.4643ZM126.238 23.6429H127.417V24.8214H126.238V23.6429ZM126.238 18.9286H127.417V20.1071H126.238V18.9286ZM122.702 17.75H123.881V18.9286H122.702V17.75ZM123.881 17.75H125.059V18.9286H123.881V17.75ZM125.059 17.75H126.238V18.9286H125.059V17.75ZM125.059 16.5714H126.238V17.75H125.059V16.5714ZM126.238 16.5714H127.417V17.75H126.238V16.5714ZM126.238 17.75H127.417V18.9286H126.238V17.75ZM123.881 16.5714H125.059V17.75H123.881V16.5714ZM129.997 17.75H131.175V18.9286H129.997V17.75ZM131.175 18.9286H132.354V20.1071H131.175V18.9286ZM129.997 18.9286H131.175V20.1071H129.997V18.9286ZM129.997 20.1071H131.175V21.2857H129.997V20.1071ZM131.175 20.1071H132.354V21.2857H131.175V20.1071ZM131.175 21.2857H132.354V22.4643H131.175V21.2857ZM132.354 21.2857H133.532V22.4643H132.354V21.2857ZM133.532 21.2857H134.711V22.4643H133.532V21.2857ZM134.711 20.1071H135.89V21.2857H134.711V20.1071ZM133.532 20.1071H134.711V21.2857H133.532V20.1071ZM132.354 20.1071H133.532V21.2857H132.354V20.1071ZM134.711 21.2857H135.89V22.4643H134.711V21.2857ZM135.89 21.2857H137.068V22.4643H135.89V21.2857ZM135.89 22.4643H137.068V23.6429H135.89V22.4643ZM134.711 22.4643H135.89V23.6429H134.711V22.4643ZM134.711 23.6429H135.89V24.8214H134.711V23.6429ZM135.89 23.6429H137.068V24.8214H135.89V23.6429ZM134.711 24.8214H135.89V26H134.711V24.8214ZM133.532 23.6429H134.711V24.8214H133.532V23.6429ZM132.354 23.6429H133.532V24.8214H132.354V23.6429ZM131.175 23.6429H132.354V24.8214H131.175V23.6429ZM129.997 23.6429H131.175V24.8214H129.997V23.6429ZM131.175 24.8214H132.354V26H131.175V24.8214ZM132.354 24.8214H133.532V26H132.354V24.8214ZM133.532 24.8214H134.711V26H133.532V24.8214ZM135.89 17.75H137.068V18.9286H135.89V17.75ZM134.711 17.75H135.89V18.9286H134.711V17.75ZM134.711 16.5714H135.89V17.75H134.711V16.5714ZM133.532 16.5714H134.711V17.75H133.532V16.5714ZM132.354 16.5714H133.532V17.75H132.354V16.5714ZM131.175 16.5714H132.354V17.75H131.175V16.5714ZM131.175 17.75H132.354V18.9286H131.175V17.75ZM132.354 17.75H133.532V18.9286H132.354V17.75ZM133.532 17.75H134.711V18.9286H133.532V17.75ZM145.538 26H144.36V24.8214H145.538V26ZM145.538 24.8214H144.36V23.6429H145.538V24.8214ZM144.36 24.8214H143.181V23.6429H144.36V24.8214ZM143.181 26H142.002V24.8214H143.181V26ZM142.002 26H140.824V24.8214H142.002V26ZM140.824 26H139.645V24.8214H140.824V26ZM140.824 24.8214H139.645V23.6429H140.824V24.8214ZM142.002 24.8214H140.824V23.6429H142.002V24.8214ZM139.645 24.8214H138.467V23.6429H139.645V24.8214ZM139.645 23.6429H138.467V22.4643H139.645V23.6429ZM139.645 18.9286H138.467V17.75H139.645V18.9286ZM140.824 18.9286H139.645V17.75H140.824V18.9286ZM140.824 23.6429H139.645V22.4643H140.824V23.6429ZM142.002 18.9286H140.824V17.75H142.002V18.9286ZM140.824 17.75H139.645V16.5714H140.824V17.75ZM142.002 17.75H140.824V16.5714H142.002V17.75ZM143.181 17.75H142.002V16.5714H143.181V17.75ZM144.36 17.75H143.181V16.5714H144.36V17.75ZM145.538 17.75H144.36V16.5714H145.538V17.75ZM145.538 18.9286H144.36V17.75H145.538V18.9286ZM144.36 18.9286H143.181V17.75H144.36V18.9286ZM145.538 20.1071H144.36V18.9286H145.538V20.1071ZM146.717 18.9286H145.538V17.75H146.717V18.9286ZM146.717 20.1071H145.538V18.9286H146.717V20.1071ZM146.717 21.2857H145.538V20.1071H146.717V21.2857ZM146.717 22.4643H145.538V21.2857H146.717V22.4643ZM146.717 23.6429H145.538V22.4643H146.717V23.6429ZM146.717 24.8214H145.538V23.6429H146.717V24.8214ZM145.538 23.6429H144.36V22.4643H145.538V23.6429ZM145.538 22.4643H144.36V21.2857H145.538V22.4643ZM145.538 21.2857H144.36V20.1071H145.538V21.2857ZM143.181 18.9286H142.002V17.75H143.181V18.9286ZM143.181 24.8214H142.002V23.6429H143.181V24.8214ZM145.538 24.8214H146.717V26H145.538V24.8214ZM143.181 20.1071H144.36V21.2857H143.181V20.1071ZM142.002 20.1071H143.181V21.2857H142.002V20.1071ZM140.824 20.1071H142.002V21.2857H140.824V20.1071ZM139.645 20.1071H140.824V21.2857H139.645V20.1071ZM138.467 21.2857H139.645V22.4643H138.467V21.2857ZM139.645 21.2857H140.824V22.4643H139.645V21.2857ZM143.181 21.2857H144.36V22.4643H143.181V21.2857ZM142.002 21.2857H143.181V22.4643H142.002V21.2857ZM140.824 21.2857H142.002V22.4643H140.824V21.2857ZM150.476 16.5714H151.654V17.75H150.476V16.5714ZM149.297 16.5714H150.476V17.75H149.297V16.5714ZM149.297 17.75H150.476V18.9286H149.297V17.75ZM150.476 17.75H151.654V18.9286H150.476V17.75ZM151.654 16.5714H152.833V17.75H151.654V16.5714ZM152.833 16.5714H154.011V17.75H152.833V16.5714ZM154.011 16.5714H155.19V17.75H154.011V16.5714ZM154.011 17.75H155.19V18.9286H154.011V17.75ZM152.833 17.75H154.011V18.9286H152.833V17.75ZM155.19 17.75H156.368V18.9286H155.19V17.75ZM155.19 18.9286H156.368V20.1071H155.19V18.9286ZM155.19 22.4643H156.368V23.6429H155.19V22.4643ZM155.19 23.6429H156.368V24.8214H155.19V23.6429ZM154.011 23.6429H155.19V24.8214H154.011V23.6429ZM154.011 22.4643H155.19V23.6429H154.011V22.4643ZM154.011 18.9286H155.19V20.1071H154.011V18.9286ZM152.833 23.6429H154.011V24.8214H152.833V23.6429ZM154.011 24.8214H155.19V26H154.011V24.8214ZM152.833 24.8214H154.011V26H152.833V24.8214ZM151.654 24.8214H152.833V26H151.654V24.8214ZM150.476 24.8214H151.654V26H150.476V24.8214ZM149.297 24.8214H150.476V26H149.297V24.8214ZM149.297 23.6429H150.476V24.8214H149.297V23.6429ZM150.476 23.6429H151.654V24.8214H150.476V23.6429ZM149.297 22.4643H150.476V23.6429H149.297V22.4643ZM148.118 23.6429H149.297V24.8214H148.118V23.6429ZM148.118 22.4643H149.297V23.6429H148.118V22.4643ZM148.118 21.2857H149.297V22.4643H148.118V21.2857ZM148.118 20.1071H149.297V21.2857H148.118V20.1071ZM148.118 18.9286H149.297V20.1071H148.118V18.9286ZM148.118 17.75H149.297V18.9286H148.118V17.75ZM149.297 18.9286H150.476V20.1071H149.297V18.9286ZM149.297 20.1071H150.476V21.2857H149.297V20.1071ZM149.297 21.2857H150.476V22.4643H149.297V21.2857ZM151.654 23.6429H152.833V24.8214H151.654V23.6429ZM151.654 17.75H152.833V18.9286H151.654V17.75ZM162.484 23.6429H163.663V24.8214H162.484V23.6429ZM162.484 24.8214H163.663V26H162.484V24.8214ZM161.306 24.8214H162.484V26H161.306V24.8214ZM161.306 23.6429H162.484V24.8214H161.306V23.6429ZM160.127 24.8214H161.306V26H160.127V24.8214ZM160.127 23.6429H161.306V24.8214H160.127V23.6429ZM158.949 23.6429H160.127V24.8214H158.949V23.6429ZM158.949 22.4643H160.127V23.6429H158.949V22.4643ZM158.949 21.2857H160.127V22.4643H158.949V21.2857ZM158.949 20.1071H160.127V21.2857H158.949V20.1071ZM158.949 18.9286H160.127V20.1071H158.949V18.9286ZM158.949 17.75H160.127V18.9286H158.949V17.75ZM160.127 21.2857H161.306V22.4643H160.127V21.2857ZM160.127 22.4643H161.306V23.6429H160.127V22.4643ZM160.127 20.1071H161.306V21.2857H160.127V20.1071ZM160.127 18.9286H161.306V20.1071H160.127V18.9286ZM160.127 14.2143H161.306V15.3929H160.127V14.2143ZM160.127 15.3929H161.306V16.5714H160.127V15.3929ZM160.127 16.5714H161.306V17.75H160.127V16.5714ZM160.127 17.75H161.306V18.9286H160.127V17.75ZM158.949 16.5714H160.127V17.75H158.949V16.5714ZM157.77 17.75H158.949V18.9286H157.77V17.75ZM161.306 17.75H162.484V18.9286H161.306V17.75ZM162.484 17.75H163.663V18.9286H162.484V17.75ZM158.949 15.3929H160.127V16.5714H158.949V15.3929ZM157.77 18.9286H158.949V20.1071H157.77V18.9286ZM161.306 18.9286H162.484V20.1071H161.306V18.9286ZM162.484 18.9286H163.663V20.1071H162.484V18.9286ZM165.058 14.2143H167.416V16.5714H165.058V14.2143ZM165.058 17.75H167.416V26H165.058V17.75ZM171.18 16.5714H172.359V17.75H171.18V16.5714ZM170.002 16.5714H171.18V17.75H170.002V16.5714ZM170.002 17.75H171.18V18.9286H170.002V17.75ZM171.18 17.75H172.359V18.9286H171.18V17.75ZM172.359 16.5714H173.538V17.75H172.359V16.5714ZM173.538 16.5714H174.716V17.75H173.538V16.5714ZM174.716 16.5714H175.895V17.75H174.716V16.5714ZM174.716 17.75H175.895V18.9286H174.716V17.75ZM173.538 17.75H174.716V18.9286H173.538V17.75ZM174.716 20.1071H175.895V21.2857H174.716V20.1071ZM175.895 17.75H177.073V18.9286H175.895V17.75ZM175.895 18.9286H177.073V20.1071H175.895V18.9286ZM175.895 20.1071H177.073V21.2857H175.895V20.1071ZM175.895 21.2857H177.073V22.4643H175.895V21.2857ZM175.895 22.4643H177.073V23.6429H175.895V22.4643ZM175.895 23.6429H177.073V24.8214H175.895V23.6429ZM174.716 23.6429H175.895V24.8214H174.716V23.6429ZM174.716 22.4643H175.895V23.6429H174.716V22.4643ZM174.716 21.2857H175.895V22.4643H174.716V21.2857ZM174.716 18.9286H175.895V20.1071H174.716V18.9286ZM173.538 23.6429H174.716V24.8214H173.538V23.6429ZM174.716 24.8214H175.895V26H174.716V24.8214ZM173.538 24.8214H174.716V26H173.538V24.8214ZM172.359 24.8214H173.538V26H172.359V24.8214ZM171.18 24.8214H172.359V26H171.18V24.8214ZM170.002 24.8214H171.18V26H170.002V24.8214ZM170.002 23.6429H171.18V24.8214H170.002V23.6429ZM171.18 23.6429H172.359V24.8214H171.18V23.6429ZM170.002 22.4643H171.18V23.6429H170.002V22.4643ZM168.823 23.6429H170.002V24.8214H168.823V23.6429ZM168.823 22.4643H170.002V23.6429H168.823V22.4643ZM168.823 21.2857H170.002V22.4643H168.823V21.2857ZM168.823 20.1071H170.002V21.2857H168.823V20.1071ZM168.823 18.9286H170.002V20.1071H168.823V18.9286ZM168.823 17.75H170.002V18.9286H168.823V17.75ZM170.002 18.9286H171.18V20.1071H170.002V18.9286ZM170.002 20.1071H171.18V21.2857H170.002V20.1071ZM170.002 21.2857H171.18V22.4643H170.002V21.2857ZM172.359 23.6429H173.538V24.8214H172.359V23.6429ZM172.359 17.75H173.538V18.9286H172.359V17.75ZM178.475 17.75H179.653V18.9286H178.475V17.75ZM178.475 16.5714H179.653V17.75H178.475V16.5714ZM179.653 16.5714H180.832V17.75H179.653V16.5714ZM179.653 17.75H180.832V18.9286H179.653V17.75ZM179.653 18.9286H180.832V20.1071H179.653V18.9286ZM179.653 20.1071H180.832V21.2857H179.653V20.1071ZM179.653 21.2857H180.832V22.4643H179.653V21.2857ZM178.475 21.2857H179.653V22.4643H178.475V21.2857ZM178.475 20.1071H179.653V21.2857H178.475V20.1071ZM178.475 18.9286H179.653V20.1071H178.475V18.9286ZM178.475 22.4643H179.653V23.6429H178.475V22.4643ZM179.653 22.4643H180.832V23.6429H179.653V22.4643ZM179.653 23.6429H180.832V24.8214H179.653V23.6429ZM179.653 24.8214H180.832V26H179.653V24.8214ZM178.475 24.8214H179.653V26H178.475V24.8214ZM178.475 23.6429H179.653V24.8214H178.475V23.6429ZM184.368 24.8214H185.546V26H184.368V24.8214ZM185.546 24.8214H186.725V26H185.546V24.8214ZM185.546 23.6429H186.725V24.8214H185.546V23.6429ZM185.546 22.4643H186.725V23.6429H185.546V22.4643ZM185.546 21.2857H186.725V22.4643H185.546V21.2857ZM185.546 20.1071H186.725V21.2857H185.546V20.1071ZM185.546 18.9286H186.725V20.1071H185.546V18.9286ZM185.546 17.75H186.725V18.9286H185.546V17.75ZM184.368 20.1071H185.546V21.2857H184.368V20.1071ZM184.368 21.2857H185.546V22.4643H184.368V21.2857ZM184.368 22.4643H185.546V23.6429H184.368V22.4643ZM184.368 23.6429H185.546V24.8214H184.368V23.6429ZM184.368 18.9286H185.546V20.1071H184.368V18.9286ZM180.832 17.75H182.011V18.9286H180.832V17.75ZM182.011 17.75H183.189V18.9286H182.011V17.75ZM183.189 17.75H184.368V18.9286H183.189V17.75ZM183.189 16.5714H184.368V17.75H183.189V16.5714ZM184.368 16.5714H185.546V17.75H184.368V16.5714ZM184.368 17.75H185.546V18.9286H184.368V17.75ZM182.011 16.5714H183.189V17.75H182.011V16.5714Z" fill="#00CCEC"/>
<path d="M198 25H199V23H201V21H191V19H201V17H199V15H198V13H201V15H203V17H205V18H206V19H207V21H206V22H205V23H203V25H201V27H198V25Z" fill="#00CCEC"/>
</g>
<defs>
<filter id="filter0_d_549_254585" x="0" y="0" width="216" height="51" filterUnits="userSpaceOnUse" color-interpolation-filters="sRGB">
<feFlood flood-opacity="0" result="BackgroundImageFix"/>
<feColorMatrix in="SourceAlpha" type="matrix" values="0 0 0 0 0 0 0 0 0 0 0 0 0 0 0 0 0 0 127 0" result="hardAlpha"/>
<feOffset dy="3"/>
<feComposite in2="hardAlpha" operator="out"/>
<feColorMatrix type="matrix" values="0 0 0 0 0 0 0 0 0 0.516277 0 0 0 0 0.596342 0 0 0 1 0"/>
<feBlend mode="normal" in2="BackgroundImageFix" result="effect1_dropShadow_549_254585"/>
<feBlend mode="normal" in="SourceGraphic" in2="effect1_dropShadow_549_254585" result="shape"/>
</filter>
</defs>
</svg>
