<svg width="222" height="48" viewBox="0 0 222 48" fill="none" xmlns="http://www.w3.org/2000/svg">
<path d="M52 8.61538V4H8.00001L4 8.30769V31.6923L8.00001 36L12 40L16 44H20L24 40L26.2612 36.3077H52V31.6923V8.61538Z" fill="white"/>
<path d="M48 0H136V4H48V0Z" fill="#899BA3"/>
<path d="M48 4H136V8H48V4Z" fill="white"/>
<path d="M48 8H136V12H48V8Z" fill="white"/>
<path d="M48 12H136V16H48V12Z" fill="white"/>
<path d="M48 16H136V20H48V16Z" fill="white"/>
<path d="M48 24H136V28H48V24Z" fill="white"/>
<path d="M48 20H136V24H48V20Z" fill="white"/>
<path d="M48 28H136V32H48V28Z" fill="white"/>
<path d="M48 32H136V36H48V32Z" fill="white"/>
<path d="M4 29H92V33H4V29Z" fill="white"/>
<path d="M24 33H132V37H24V33Z" fill="white"/>
<path d="M92 32H96V36H92V32Z" fill="white"/>
<path d="M48 40H136V36H48V40Z" fill="#899BA3"/>
<path d="M44 0H48V4H44V0Z" fill="#899BA3"/>
<path d="M44 40H48V36H44V40Z" fill="#899BA3"/>
<path d="M40 0H44V4H40V0Z" fill="#899BA3"/>
<path d="M40 40H44V36H40V40Z" fill="#899BA3"/>
<path d="M36 0H40V4H36V0Z" fill="#899BA3"/>
<path d="M36 40H40V36H36V40Z" fill="#899BA3"/>
<path d="M32 0H36V4H32V0Z" fill="#899BA3"/>
<path d="M32 40H36V36H32V40Z" fill="#899BA3"/>
<path d="M28 0H32V4H28V0Z" fill="#899BA3"/>
<path d="M28 40H32V36H28V40Z" fill="#899BA3"/>
<path d="M24 0H28V4H24V0Z" fill="#899BA3"/>
<path d="M24 40H28V36H24V40Z" fill="#899BA3"/>
<path d="M20 0H24V4H20V0Z" fill="#899BA3"/>
<path d="M20 44H24V40H20V44Z" fill="#899BA3"/>
<path d="M16 0H20V4H16V0Z" fill="#899BA3"/>
<path d="M16 48H20V44H16V48Z" fill="#899BA3"/>
<path d="M12 0H16V4H12V0Z" fill="#899BA3"/>
<path d="M12 44H16V40H12V44Z" fill="#899BA3"/>
<path d="M8 0H12V4H8V0Z" fill="#899BA3"/>
<path d="M8 40H12V36H8V40Z" fill="#899BA3"/>
<path d="M4 4H8V8H4V4Z" fill="#899BA3"/>
<path d="M4 36H8V32H4V36Z" fill="#899BA3"/>
<path d="M0 8H4V12H0V8Z" fill="#899BA3"/>
<path d="M0 12H4V29H0V12Z" fill="#899BA3"/>
<path d="M0 28H4V32H0V28Z" fill="#899BA3"/>
<path d="M170 8.625V4L218 4V8.31667V32.375L214 36H204.906H200.292H195.739H170V31.375V8.625Z" fill="white"/>
<path d="M174 4H111V8H174V4Z" fill="white"/>
<path d="M214 4H129V8H214V4Z" fill="white"/>
<path d="M174 8H111V12H174V8Z" fill="white"/>
<path d="M174 12H111V16H174V12Z" fill="white"/>
<path d="M174 16H111V20H174V16Z" fill="white"/>
<path d="M174 24H111V28H174V24Z" fill="white"/>
<path d="M174 20H111V24H174V20Z" fill="white"/>
<path d="M174 28H111V32H174V28Z" fill="white"/>
<path d="M174 32H111V36H174V32Z" fill="white"/>
<path d="M174 0H111V4H174V0Z" fill="#899BA3"/>
<path d="M174 40H111V36H174V40Z" fill="#899BA3"/>
<path d="M178 0H174V4H178V0Z" fill="#899BA3"/>
<path d="M178 40H174V36H178V40Z" fill="#899BA3"/>
<path d="M182 0H178V4H182V0Z" fill="#899BA3"/>
<path d="M182 40H178V36H182V40Z" fill="#899BA3"/>
<path d="M186 0H182V4H186V0Z" fill="#899BA3"/>
<path d="M186 40H182V36H186V40Z" fill="#899BA3"/>
<path d="M190 0H186V4H190V0Z" fill="#899BA3"/>
<path d="M190 40H186V36H190V40Z" fill="#899BA3"/>
<path d="M194 0H190V4H194V0Z" fill="#899BA3"/>
<path d="M194 40H190V36H194V40Z" fill="#899BA3"/>
<path d="M198 0H194V4H198V0Z" fill="#899BA3"/>
<path d="M198 40H194V36H198V40Z" fill="#899BA3"/>
<path d="M202 0H198V4H202V0Z" fill="#899BA3"/>
<path d="M202 40H198V36H202V40Z" fill="#899BA3"/>
<path d="M206 0H202V4H206V0Z" fill="#899BA3"/>
<path d="M206 40H202V36H206V40Z" fill="#899BA3"/>
<path d="M210 0H206V4H210V0Z" fill="#899BA3"/>
<path d="M210 40H206V36H210V40Z" fill="#899BA3"/>
<path d="M214 0H210V4H214V0Z" fill="#899BA3"/>
<path d="M214 40H210V36H214V40Z" fill="#899BA3"/>
<path d="M218 4H214V8H218V4Z" fill="#899BA3"/>
<path d="M218 36H214V32H218V36Z" fill="#899BA3"/>
<path d="M222 8H218V12H222V8Z" fill="#899BA3"/>
<path d="M222 12H218V16H222V12Z" fill="#899BA3"/>
<path d="M222 16H218V20H222V16Z" fill="#899BA3"/>
<path d="M222 20H218V24H222V20Z" fill="#899BA3"/>
<path d="M222 24H218V28H222V24Z" fill="#899BA3"/>
<path d="M222 28H218V32H222V28Z" fill="#899BA3"/>
<path d="M16.3571 23.6429H21.0714V26H14V14.2143H21.0714V16.5714H16.3571V18.9286H19.8929V21.2857H16.3571V23.6429ZM22.47 17.75H23.6486V15.3929H24.8271V14.2143H26.0057V17.75H28.3629V20.1071H26.0057V23.6429H28.3629V26H24.8271V24.8214H23.6486V20.1071H22.47V17.75ZM32.1155 17.75H33.2941V16.5714H36.8298V17.75H38.0084V26H35.6512V18.9286H32.1155V26H29.7584V14.2143H32.1155V17.75ZM39.41 17.75H40.5886V16.5714H46.4814V17.75H47.66V22.4643H41.7671V23.6429H47.66V24.8214H46.4814V26H40.5886V24.8214H39.41V17.75ZM41.7671 20.1071H45.3029V18.9286H41.7671V20.1071ZM53.7759 18.9286H52.5974V20.1071H51.4188V26H49.0616V16.5714H51.4188V17.75H52.5974V16.5714H54.9545V17.75H56.1331V18.9286H54.9545V20.1071H53.7759V18.9286ZM57.5316 17.75H58.7102V16.5714H64.6031V17.75H65.7816V22.4643H59.8888V23.6429H65.7816V24.8214H64.6031V26H58.7102V24.8214H57.5316V17.75ZM59.8888 20.1071H63.4245V18.9286H59.8888V20.1071ZM71.8976 26H68.3619V24.8214H67.1833V16.5714H69.5404V23.6429H73.0761V16.5714H75.4333V26H73.0761V24.8214H71.8976V26ZM79.1921 17.75H80.3706V16.5714H82.7278V17.75H85.0849V16.5714H87.4421V17.75H88.6206V26H86.2635V18.9286H83.9064V26H81.5492V18.9286H79.1921V26H76.8349V16.5714H79.1921V17.75ZM94.9351 17.75H96.1137V15.3929H97.2922V14.2143H98.4708V17.75H100.828V20.1071H98.4708V23.6429H100.828V26H97.2922V24.8214H96.1137V20.1071H94.9351V17.75ZM106.938 18.9286H105.759V20.1071H104.581V26H102.223V16.5714H104.581V17.75H105.759V16.5714H108.116V17.75H109.295V18.9286H108.116V20.1071H106.938V18.9286ZM111.872 24.8214H110.693V21.2857H111.872V20.1071H116.586V18.9286H110.693V17.75H111.872V16.5714H117.765V17.75H118.943V26H116.586V24.8214H115.408V26H111.872V24.8214ZM113.051 23.6429H116.586V22.4643H113.051V23.6429ZM122.702 17.75H123.881V16.5714H127.417V17.75H128.595V26H126.238V18.9286H122.702V26H120.345V16.5714H122.702V17.75ZM131.175 24.8214H129.997V23.6429H134.711V22.4643H131.175V21.2857H129.997V17.75H131.175V16.5714H135.89V17.75H137.068V18.9286H132.354V20.1071H135.89V21.2857H137.068V24.8214H135.89V26H131.175V24.8214ZM139.645 24.8214H138.467V21.2857H139.645V20.1071H144.36V18.9286H138.467V17.75H139.645V16.5714H145.538V17.75H146.717V26H144.36V24.8214H143.181V26H139.645V24.8214ZM140.824 23.6429H144.36V22.4643H140.824V23.6429ZM154.011 22.4643H156.368V24.8214H155.19V26H149.297V24.8214H148.118V17.75H149.297V16.5714H155.19V17.75H156.368V20.1071H154.011V18.9286H150.476V23.6429H154.011V22.4643ZM157.77 17.75H158.949V15.3929H160.127V14.2143H161.306V17.75H163.663V20.1071H161.306V23.6429H163.663V26H160.127V24.8214H158.949V20.1071H157.77V17.75ZM165.058 14.2143H167.416V16.5714H165.058V14.2143ZM165.058 17.75H167.416V26H165.058V17.75ZM168.823 17.75H170.002V16.5714H175.895V17.75H177.073V24.8214H175.895V26H170.002V24.8214H168.823V17.75ZM174.716 18.9286H171.18V23.6429H174.716V18.9286ZM180.832 17.75H182.011V16.5714H185.546V17.75H186.725V26H184.368V18.9286H180.832V26H178.475V16.5714H180.832V17.75Z" fill="#00CCEC"/>
<path fill-rule="evenodd" clip-rule="evenodd" d="M210 19H194V21H210V19Z" fill="#00CCEC" stroke="#00CCEC"/>
<path fill-rule="evenodd" clip-rule="evenodd" d="M208 17H206V19H208V17Z" fill="#00CCEC" stroke="#00CCEC"/>
<path fill-rule="evenodd" clip-rule="evenodd" d="M208 21H206V23H208V21Z" fill="#00CCEC" stroke="#00CCEC"/>
<path fill-rule="evenodd" clip-rule="evenodd" d="M206 15H204V17H206V15Z" fill="#00CCEC" stroke="#00CCEC"/>
<path fill-rule="evenodd" clip-rule="evenodd" d="M206 23H204V25H206V23Z" fill="#00CCEC" stroke="#00CCEC"/>
<path fill-rule="evenodd" clip-rule="evenodd" d="M204 13H202V15H204V13Z" fill="#00CCEC" stroke="#00CCEC"/>
<path fill-rule="evenodd" clip-rule="evenodd" d="M204 25H202V27H204V25Z" fill="#00CCEC" stroke="#00CCEC"/>
</svg>
