<svg width="248" height="48" viewBox="0 0 248 48" fill="none" xmlns="http://www.w3.org/2000/svg">
<path d="M52 8.61538V4H8.00001L4 8.30769V31.6923L8.00001 36L12 40L16 44H20L24 40L26.2612 36.3077H52V31.6923V8.61538Z" fill="white"/>
<path d="M48 0H152V4H48V0Z" fill="#899BA3"/>
<path d="M48 4H152V8H48V4Z" fill="white"/>
<path d="M48 8H152V12H48V8Z" fill="white"/>
<path d="M48 12H152V16H48V12Z" fill="white"/>
<path d="M48 16H152V20H48V16Z" fill="white"/>
<path d="M48 24H152V28H48V24Z" fill="white"/>
<path d="M48 20H152V24H48V20Z" fill="white"/>
<path d="M48 28H152V32H48V28Z" fill="white"/>
<path d="M48 32H152V36H48V32Z" fill="white"/>
<path d="M48 40H152V36H48V40Z" fill="#899BA3"/>
<path d="M44 0H48V4H44V0Z" fill="#899BA3"/>
<path d="M44 40H48V36H44V40Z" fill="#899BA3"/>
<path d="M40 0H44V4H40V0Z" fill="#899BA3"/>
<path d="M40 40H44V36H40V40Z" fill="#899BA3"/>
<path d="M36 0H40V4H36V0Z" fill="#899BA3"/>
<path d="M36 40H40V36H36V40Z" fill="#899BA3"/>
<path d="M32 0H36V4H32V0Z" fill="#899BA3"/>
<path d="M32 40H36V36H32V40Z" fill="#899BA3"/>
<path d="M28 0H32V4H28V0Z" fill="#899BA3"/>
<path d="M28 40H32V36H28V40Z" fill="#899BA3"/>
<path d="M24 0H28V4H24V0Z" fill="#899BA3"/>
<path d="M24 40H28V36H24V40Z" fill="#899BA3"/>
<path d="M20 0H24V4H20V0Z" fill="#899BA3"/>
<path d="M20 44H24V40H20V44Z" fill="#899BA3"/>
<path d="M16 0H20V4H16V0Z" fill="#899BA3"/>
<path d="M16 48H20V44H16V48Z" fill="#899BA3"/>
<path d="M12 0H16V4H12V0Z" fill="#899BA3"/>
<path d="M12 44H16V40H12V44Z" fill="#899BA3"/>
<path d="M8 0H12V4H8V0Z" fill="#899BA3"/>
<path d="M8 40H12V36H8V40Z" fill="#899BA3"/>
<path d="M4 4H8V8H4V4Z" fill="#899BA3"/>
<path d="M4 36H8V32H4V36Z" fill="#899BA3"/>
<path d="M0 8H4V12H0V8Z" fill="#899BA3"/>
<path d="M0 12H4V16H0V12Z" fill="#899BA3"/>
<path d="M0 16H4V20H0V16Z" fill="#899BA3"/>
<path d="M0 20H4V24H0V20Z" fill="#899BA3"/>
<path d="M0 20H4V24H0V20Z" fill="#899BA3"/>
<path d="M0 24H4V28H0V24Z" fill="#899BA3"/>
<path d="M0 28H4V32H0V28Z" fill="#899BA3"/>
<path d="M196 8.625V4L244 4V8.31667V32.375L240 36H230.906H226.292H221.739H196V31.375V8.625Z" fill="white"/>
<path d="M200 4H124V8H200V4Z" fill="white"/>
<path d="M200 8H124V12H200V8Z" fill="white"/>
<path d="M200 12H124V16H200V12Z" fill="white"/>
<path d="M200 16H124V20H200V16Z" fill="white"/>
<path d="M200 24H124V28H200V24Z" fill="white"/>
<path d="M200 20H124V24H200V20Z" fill="white"/>
<path d="M200 28H124V32H200V28Z" fill="white"/>
<path d="M200 32H124V36H200V32Z" fill="white"/>
<path d="M200 0H124V4H200V0Z" fill="#899BA3"/>
<path d="M200 40H124V36H200V40Z" fill="#899BA3"/>
<path d="M204 0H200V4H204V0Z" fill="#899BA3"/>
<path d="M204 40H200V36H204V40Z" fill="#899BA3"/>
<path d="M208 0H204V4H208V0Z" fill="#899BA3"/>
<path d="M208 40H204V36H208V40Z" fill="#899BA3"/>
<path d="M212 0H208V4H212V0Z" fill="#899BA3"/>
<path d="M212 40H208V36H212V40Z" fill="#899BA3"/>
<path d="M216 0H212V4H216V0Z" fill="#899BA3"/>
<path d="M216 40H212V36H216V40Z" fill="#899BA3"/>
<path d="M220 0H216V4H220V0Z" fill="#899BA3"/>
<path d="M220 40H216V36H220V40Z" fill="#899BA3"/>
<path d="M224 0H220V4H224V0Z" fill="#899BA3"/>
<path d="M224 40H220V36H224V40Z" fill="#899BA3"/>
<path d="M228 0H224V4H228V0Z" fill="#899BA3"/>
<path d="M228 40H224V36H228V40Z" fill="#899BA3"/>
<path d="M232 0H228V4H232V0Z" fill="#899BA3"/>
<path d="M232 40H228V36H232V40Z" fill="#899BA3"/>
<path d="M236 0H232V4H236V0Z" fill="#899BA3"/>
<path d="M236 40H232V36H236V40Z" fill="#899BA3"/>
<path d="M240 0H236V4H240V0Z" fill="#899BA3"/>
<path d="M240 40H236V36H240V40Z" fill="#899BA3"/>
<path d="M244 4H240V8H244V4Z" fill="#899BA3"/>
<path d="M244 36H240V32H244V36Z" fill="#899BA3"/>
<path d="M248 8H244V12H248V8Z" fill="#899BA3"/>
<path d="M248 12H244V16H248V12Z" fill="#899BA3"/>
<path d="M248 16H244V20H248V16Z" fill="#899BA3"/>
<path d="M248 20H244V24H248V20Z" fill="#899BA3"/>
<path d="M248 24H244V28H248V24Z" fill="#899BA3"/>
<path d="M248 28H244V32H248V28Z" fill="#899BA3"/>
<path d="M14 17.75H15.1786V18.9286H14V17.75ZM14 16.5714H15.1786V17.75H14V16.5714ZM15.1786 16.5714H16.3571V17.75H15.1786V16.5714ZM15.1786 17.75H16.3571V18.9286H15.1786V17.75ZM15.1786 18.9286H16.3571V20.1071H15.1786V18.9286ZM15.1786 20.1071H16.3571V21.2857H15.1786V20.1071ZM15.1786 21.2857H16.3571V22.4643H15.1786V21.2857ZM14 21.2857H15.1786V22.4643H14V21.2857ZM14 20.1071H15.1786V21.2857H14V20.1071ZM14 18.9286H15.1786V20.1071H14V18.9286ZM14 22.4643H15.1786V23.6429H14V22.4643ZM15.1786 22.4643H16.3571V23.6429H15.1786V22.4643ZM15.1786 23.6429H16.3571V24.8214H15.1786V23.6429ZM15.1786 24.8214H16.3571V26H15.1786V24.8214ZM14 24.8214H15.1786V26H14V24.8214ZM14 23.6429H15.1786V24.8214H14V23.6429ZM19.8929 24.8214H21.0714V26H19.8929V24.8214ZM21.0714 23.6429H22.25V24.8214H21.0714V23.6429ZM21.0714 22.4643H22.25V23.6429H21.0714V22.4643ZM21.0714 21.2857H22.25V22.4643H21.0714V21.2857ZM21.0714 20.1071H22.25V21.2857H21.0714V20.1071ZM21.0714 18.9286H22.25V20.1071H21.0714V18.9286ZM21.0714 17.75H22.25V18.9286H21.0714V17.75ZM19.8929 20.1071H21.0714V21.2857H19.8929V20.1071ZM19.8929 21.2857H21.0714V22.4643H19.8929V21.2857ZM19.8929 22.4643H21.0714V23.6429H19.8929V22.4643ZM19.8929 23.6429H21.0714V24.8214H19.8929V23.6429ZM19.8929 18.9286H21.0714V20.1071H19.8929V18.9286ZM16.3571 17.75H17.5357V18.9286H16.3571V17.75ZM17.5357 17.75H18.7143V18.9286H17.5357V17.75ZM18.7143 17.75H19.8929V18.9286H18.7143V17.75ZM18.7143 16.5714H19.8929V17.75H18.7143V16.5714ZM19.8929 16.5714H21.0714V17.75H19.8929V16.5714ZM19.8929 17.75H21.0714V18.9286H19.8929V17.75ZM17.5357 16.5714H18.7143V17.75H17.5357V16.5714ZM14 14.2143H15.1786V15.3929H14V14.2143ZM15.1786 14.2143H16.3571V15.3929H15.1786V14.2143ZM15.1786 15.3929H16.3571V16.5714H15.1786V15.3929ZM14 15.3929H15.1786V16.5714H14V15.3929ZM16.3571 24.8214H17.5357V26H16.3571V24.8214ZM17.5357 24.8214H18.7143V26H17.5357V24.8214ZM18.7143 24.8214H19.8929V26H18.7143V24.8214ZM18.7143 23.6429H19.8929V24.8214H18.7143V23.6429ZM17.5357 23.6429H18.7143V24.8214H17.5357V23.6429ZM16.3571 23.6429H17.5357V24.8214H16.3571V23.6429ZM30.7231 26H29.5445V24.8214H30.7231V26ZM30.7231 24.8214H29.5445V23.6429H30.7231V24.8214ZM29.5445 24.8214H28.3659V23.6429H29.5445V24.8214ZM28.3659 26H27.1874V24.8214H28.3659V26ZM27.1874 26H26.0088V24.8214H27.1874V26ZM26.0088 26H24.8302V24.8214H26.0088V26ZM26.0088 24.8214H24.8302V23.6429H26.0088V24.8214ZM27.1874 24.8214H26.0088V23.6429H27.1874V24.8214ZM24.8302 24.8214H23.6516V23.6429H24.8302V24.8214ZM24.8302 23.6429H23.6516V22.4643H24.8302V23.6429ZM24.8302 18.9286H23.6516V17.75H24.8302V18.9286ZM26.0088 18.9286H24.8302V17.75H26.0088V18.9286ZM26.0088 23.6429H24.8302V22.4643H26.0088V23.6429ZM27.1874 18.9286H26.0088V17.75H27.1874V18.9286ZM26.0088 17.75H24.8302V16.5714H26.0088V17.75ZM27.1874 17.75H26.0088V16.5714H27.1874V17.75ZM28.3659 17.75H27.1874V16.5714H28.3659V17.75ZM29.5445 17.75H28.3659V16.5714H29.5445V17.75ZM30.7231 17.75H29.5445V16.5714H30.7231V17.75ZM30.7231 18.9286H29.5445V17.75H30.7231V18.9286ZM29.5445 18.9286H28.3659V17.75H29.5445V18.9286ZM30.7231 20.1071H29.5445V18.9286H30.7231V20.1071ZM31.9016 18.9286H30.7231V17.75H31.9016V18.9286ZM31.9016 20.1071H30.7231V18.9286H31.9016V20.1071ZM31.9016 21.2857H30.7231V20.1071H31.9016V21.2857ZM31.9016 22.4643H30.7231V21.2857H31.9016V22.4643ZM31.9016 23.6429H30.7231V22.4643H31.9016V23.6429ZM31.9016 24.8214H30.7231V23.6429H31.9016V24.8214ZM30.7231 23.6429H29.5445V22.4643H30.7231V23.6429ZM30.7231 22.4643H29.5445V21.2857H30.7231V22.4643ZM30.7231 21.2857H29.5445V20.1071H30.7231V21.2857ZM28.3659 18.9286H27.1874V17.75H28.3659V18.9286ZM28.3659 24.8214H27.1874V23.6429H28.3659V24.8214ZM30.7231 24.8214H31.9016V26H30.7231V24.8214ZM28.3659 20.1071H29.5445V21.2857H28.3659V20.1071ZM27.1874 20.1071H28.3659V21.2857H27.1874V20.1071ZM26.0088 20.1071H27.1874V21.2857H26.0088V20.1071ZM24.8302 20.1071H26.0088V21.2857H24.8302V20.1071ZM23.6516 21.2857H24.8302V22.4643H23.6516V21.2857ZM24.8302 21.2857H26.0088V22.4643H24.8302V21.2857ZM28.3659 21.2857H29.5445V22.4643H28.3659V21.2857ZM27.1874 21.2857H28.3659V22.4643H27.1874V21.2857ZM26.0088 21.2857H27.1874V22.4643H26.0088V21.2857ZM35.6604 16.5714H36.839V17.75H35.6604V16.5714ZM34.4819 16.5714H35.6604V17.75H34.4819V16.5714ZM34.4819 17.75H35.6604V18.9286H34.4819V17.75ZM35.6604 17.75H36.839V18.9286H35.6604V17.75ZM36.839 16.5714H38.0176V17.75H36.839V16.5714ZM38.0176 16.5714H39.1961V17.75H38.0176V16.5714ZM39.1961 16.5714H40.3747V17.75H39.1961V16.5714ZM39.1961 17.75H40.3747V18.9286H39.1961V17.75ZM38.0176 17.75H39.1961V18.9286H38.0176V17.75ZM40.3747 17.75H41.5533V18.9286H40.3747V17.75ZM40.3747 18.9286H41.5533V20.1071H40.3747V18.9286ZM40.3747 22.4643H41.5533V23.6429H40.3747V22.4643ZM40.3747 23.6429H41.5533V24.8214H40.3747V23.6429ZM39.1961 23.6429H40.3747V24.8214H39.1961V23.6429ZM39.1961 22.4643H40.3747V23.6429H39.1961V22.4643ZM39.1961 18.9286H40.3747V20.1071H39.1961V18.9286ZM38.0176 23.6429H39.1961V24.8214H38.0176V23.6429ZM39.1961 24.8214H40.3747V26H39.1961V24.8214ZM38.0176 24.8214H39.1961V26H38.0176V24.8214ZM36.839 24.8214H38.0176V26H36.839V24.8214ZM35.6604 24.8214H36.839V26H35.6604V24.8214ZM34.4819 24.8214H35.6604V26H34.4819V24.8214ZM34.4819 23.6429H35.6604V24.8214H34.4819V23.6429ZM35.6604 23.6429H36.839V24.8214H35.6604V23.6429ZM34.4819 22.4643H35.6604V23.6429H34.4819V22.4643ZM33.3033 23.6429H34.4819V24.8214H33.3033V23.6429ZM33.3033 22.4643H34.4819V23.6429H33.3033V22.4643ZM33.3033 21.2857H34.4819V22.4643H33.3033V21.2857ZM33.3033 20.1071H34.4819V21.2857H33.3033V20.1071ZM33.3033 18.9286H34.4819V20.1071H33.3033V18.9286ZM33.3033 17.75H34.4819V18.9286H33.3033V17.75ZM34.4819 18.9286H35.6604V20.1071H34.4819V18.9286ZM34.4819 20.1071H35.6604V21.2857H34.4819V20.1071ZM34.4819 21.2857H35.6604V22.4643H34.4819V21.2857ZM36.839 23.6429H38.0176V24.8214H36.839V23.6429ZM36.839 17.75H38.0176V18.9286H36.839V17.75ZM42.9549 14.2143H44.1335V15.3929H42.9549V14.2143ZM44.1335 14.2143H45.3121V15.3929H44.1335V14.2143ZM44.1335 15.3929H45.3121V16.5714H44.1335V15.3929ZM44.1335 16.5714H45.3121V17.75H44.1335V16.5714ZM44.1335 17.75H45.3121V18.9286H44.1335V17.75ZM42.9549 17.75H44.1335V18.9286H42.9549V17.75ZM42.9549 16.5714H44.1335V17.75H42.9549V16.5714ZM42.9549 15.3929H44.1335V16.5714H42.9549V15.3929ZM42.9549 18.9286H44.1335V20.1071H42.9549V18.9286ZM42.9549 20.1071H44.1335V21.2857H42.9549V20.1071ZM42.9549 21.2857H44.1335V22.4643H42.9549V21.2857ZM42.9549 22.4643H44.1335V23.6429H42.9549V22.4643ZM42.9549 23.6429H44.1335V24.8214H42.9549V23.6429ZM42.9549 24.8214H44.1335V26H42.9549V24.8214ZM44.1335 24.8214H45.3121V26H44.1335V24.8214ZM44.1335 23.6429H45.3121V24.8214H44.1335V23.6429ZM44.1335 22.4643H45.3121V23.6429H44.1335V22.4643ZM44.1335 21.2857H45.3121V22.4643H44.1335V21.2857ZM44.1335 20.1071H45.3121V21.2857H44.1335V20.1071ZM44.1335 18.9286H45.3121V20.1071H44.1335V18.9286ZM45.3121 20.1071H46.4906V21.2857H45.3121V20.1071ZM46.4906 20.1071H47.6692V21.2857H46.4906V20.1071ZM46.4906 18.9286H47.6692V20.1071H46.4906V18.9286ZM47.6692 18.9286H48.8478V20.1071H47.6692V18.9286ZM47.6692 17.75H48.8478V18.9286H47.6692V17.75ZM47.6692 16.5714H48.8478V17.75H47.6692V16.5714ZM48.8478 16.5714H50.0264V17.75H48.8478V16.5714ZM48.8478 17.75H50.0264V18.9286H48.8478V17.75ZM46.4906 21.2857H47.6692V22.4643H46.4906V21.2857ZM47.6692 21.2857H48.8478V22.4643H47.6692V21.2857ZM48.8478 22.4643H50.0264V23.6429H48.8478V22.4643ZM47.6692 22.4643H48.8478V23.6429H47.6692V22.4643ZM47.6692 23.6429H48.8478V24.8214H47.6692V23.6429ZM48.8478 23.6429H50.0264V24.8214H48.8478V23.6429ZM48.8478 24.8214H50.0264V26H48.8478V24.8214ZM47.6692 24.8214H48.8478V26H47.6692V24.8214ZM53.7821 16.5714H54.9606V17.75H53.7821V16.5714ZM52.6035 16.5714H53.7821V17.75H52.6035V16.5714ZM52.6035 17.75H53.7821V18.9286H52.6035V17.75ZM53.7821 17.75H54.9606V18.9286H53.7821V17.75ZM54.9606 16.5714H56.1392V17.75H54.9606V16.5714ZM56.1392 16.5714H57.3178V17.75H56.1392V16.5714ZM57.3178 16.5714H58.4964V17.75H57.3178V16.5714ZM57.3178 17.75H58.4964V18.9286H57.3178V17.75ZM56.1392 17.75H57.3178V18.9286H56.1392V17.75ZM58.4964 17.75H59.6749V18.9286H58.4964V17.75ZM58.4964 18.9286H59.6749V20.1071H58.4964V18.9286ZM58.4964 23.6429H59.6749V24.8214H58.4964V23.6429ZM57.3178 23.6429H58.4964V24.8214H57.3178V23.6429ZM57.3178 18.9286H58.4964V20.1071H57.3178V18.9286ZM56.1392 23.6429H57.3178V24.8214H56.1392V23.6429ZM57.3178 24.8214H58.4964V26H57.3178V24.8214ZM56.1392 24.8214H57.3178V26H56.1392V24.8214ZM54.9606 24.8214H56.1392V26H54.9606V24.8214ZM53.7821 24.8214H54.9606V26H53.7821V24.8214ZM52.6035 24.8214H53.7821V26H52.6035V24.8214ZM52.6035 23.6429H53.7821V24.8214H52.6035V23.6429ZM53.7821 23.6429H54.9606V24.8214H53.7821V23.6429ZM52.6035 22.4643H53.7821V23.6429H52.6035V22.4643ZM51.4249 23.6429H52.6035V24.8214H51.4249V23.6429ZM51.4249 22.4643H52.6035V23.6429H51.4249V22.4643ZM51.4249 21.2857H52.6035V22.4643H51.4249V21.2857ZM51.4249 20.1071H52.6035V21.2857H51.4249V20.1071ZM51.4249 18.9286H52.6035V20.1071H51.4249V18.9286ZM51.4249 17.75H52.6035V18.9286H51.4249V17.75ZM52.6035 18.9286H53.7821V20.1071H52.6035V18.9286ZM52.6035 20.1071H53.7821V21.2857H52.6035V20.1071ZM52.6035 21.2857H53.7821V22.4643H52.6035V21.2857ZM54.9606 23.6429H56.1392V24.8214H54.9606V23.6429ZM54.9606 17.75H56.1392V18.9286H54.9606V17.75ZM57.3178 20.1071H58.4964V21.2857H57.3178V20.1071ZM58.4964 20.1071H59.6749V21.2857H58.4964V20.1071ZM53.7821 21.2857H54.9606V22.4643H53.7821V21.2857ZM54.9606 21.2857H56.1392V22.4643H54.9606V21.2857ZM56.1392 21.2857H57.3178V22.4643H56.1392V21.2857ZM57.3178 21.2857H58.4964V22.4643H57.3178V21.2857ZM58.4964 21.2857H59.6749V22.4643H58.4964V21.2857ZM56.1392 20.1071H57.3178V21.2857H56.1392V20.1071ZM54.9606 20.1071H56.1392V21.2857H54.9606V20.1071ZM53.7821 20.1071H54.9606V21.2857H53.7821V20.1071ZM61.0766 17.75H62.2551V18.9286H61.0766V17.75ZM61.0766 16.5714H62.2551V17.75H61.0766V16.5714ZM62.2551 16.5714H63.4337V17.75H62.2551V16.5714ZM62.2551 17.75H63.4337V18.9286H62.2551V17.75ZM62.2551 18.9286H63.4337V20.1071H62.2551V18.9286ZM62.2551 20.1071H63.4337V21.2857H62.2551V20.1071ZM62.2551 21.2857H63.4337V22.4643H62.2551V21.2857ZM61.0766 21.2857H62.2551V22.4643H61.0766V21.2857ZM61.0766 20.1071H62.2551V21.2857H61.0766V20.1071ZM61.0766 18.9286H62.2551V20.1071H61.0766V18.9286ZM61.0766 22.4643H62.2551V23.6429H61.0766V22.4643ZM62.2551 22.4643H63.4337V23.6429H62.2551V22.4643ZM62.2551 23.6429H63.4337V24.8214H62.2551V23.6429ZM62.2551 24.8214H63.4337V26H62.2551V24.8214ZM61.0766 24.8214H62.2551V26H61.0766V24.8214ZM61.0766 23.6429H62.2551V24.8214H61.0766V23.6429ZM66.9694 24.8214H68.148V26H66.9694V24.8214ZM68.148 24.8214H69.3266V26H68.148V24.8214ZM68.148 23.6429H69.3266V24.8214H68.148V23.6429ZM68.148 22.4643H69.3266V23.6429H68.148V22.4643ZM68.148 21.2857H69.3266V22.4643H68.148V21.2857ZM68.148 20.1071H69.3266V21.2857H68.148V20.1071ZM68.148 18.9286H69.3266V20.1071H68.148V18.9286ZM68.148 17.75H69.3266V18.9286H68.148V17.75ZM66.9694 20.1071H68.148V21.2857H66.9694V20.1071ZM66.9694 21.2857H68.148V22.4643H66.9694V21.2857ZM66.9694 22.4643H68.148V23.6429H66.9694V22.4643ZM66.9694 23.6429H68.148V24.8214H66.9694V23.6429ZM66.9694 18.9286H68.148V20.1071H66.9694V18.9286ZM63.4337 17.75H64.6123V18.9286H63.4337V17.75ZM64.6123 17.75H65.7908V18.9286H64.6123V17.75ZM65.7908 17.75H66.9694V18.9286H65.7908V17.75ZM65.7908 16.5714H66.9694V17.75H65.7908V16.5714ZM66.9694 16.5714H68.148V17.75H66.9694V16.5714ZM66.9694 17.75H68.148V18.9286H66.9694V17.75ZM64.6123 16.5714H65.7908V17.75H64.6123V16.5714ZM78.9782 17.75V18.9286H77.7996V17.75H78.9782ZM78.9782 16.5714V17.75H77.7996V16.5714H78.9782ZM77.7996 16.5714V17.75H76.6211V16.5714H77.7996ZM77.7996 17.75V18.9286H76.6211V17.75H77.7996ZM77.7996 18.9286V20.1071H76.6211V18.9286H77.7996ZM77.7996 20.1071V21.2857H76.6211V20.1071H77.7996ZM77.7996 21.2857V22.4643H76.6211V21.2857H77.7996ZM78.9782 21.2857V22.4643H77.7996V21.2857H78.9782ZM78.9782 20.1071V21.2857H77.7996V20.1071H78.9782ZM78.9782 18.9286V20.1071H77.7996V18.9286H78.9782ZM78.9782 22.4643V23.6429H77.7996V22.4643H78.9782ZM77.7996 22.4643V23.6429H76.6211V22.4643H77.7996ZM77.7996 23.6429V24.8214H76.6211V23.6429H77.7996ZM77.7996 24.8214V26H76.6211V24.8214H77.7996ZM78.9782 24.8214V26H77.7996V24.8214H78.9782ZM78.9782 23.6429V24.8214H77.7996V23.6429H78.9782ZM73.0853 24.8214V26H71.9068V24.8214H73.0853ZM71.9068 23.6429V24.8214H70.7282V23.6429H71.9068ZM71.9068 22.4643V23.6429H70.7282V22.4643H71.9068ZM71.9068 21.2857V22.4643H70.7282V21.2857H71.9068ZM71.9068 20.1071V21.2857H70.7282V20.1071H71.9068ZM71.9068 18.9286V20.1071H70.7282V18.9286H71.9068ZM71.9068 17.75V18.9286H70.7282V17.75H71.9068ZM73.0853 20.1071V21.2857H71.9068V20.1071H73.0853ZM73.0853 21.2857V22.4643H71.9068V21.2857H73.0853ZM73.0853 22.4643V23.6429H71.9068V22.4643H73.0853ZM73.0853 23.6429V24.8214H71.9068V23.6429H73.0853ZM73.0853 18.9286V20.1071H71.9068V18.9286H73.0853ZM74.2639 17.75V18.9286H73.0853V17.75H74.2639ZM74.2639 16.5714V17.75H73.0853V16.5714H74.2639ZM73.0853 16.5714V17.75H71.9068V16.5714H73.0853ZM73.0853 17.75V18.9286H71.9068V17.75H73.0853ZM75.4425 16.5714V17.75H74.2639V16.5714H75.4425ZM78.9782 14.2143V15.3929H77.7996V14.2143H78.9782ZM77.7996 14.2143V15.3929H76.6211V14.2143H77.7996ZM77.7996 15.3929V16.5714H76.6211V15.3929H77.7996ZM78.9782 15.3929V16.5714H77.7996V15.3929H78.9782ZM75.4425 24.8214V26H74.2639V24.8214H75.4425ZM74.2639 24.8214V26H73.0853V24.8214H74.2639ZM74.2639 23.6429V24.8214H73.0853V23.6429H74.2639ZM75.4425 23.6429V24.8214H74.2639V23.6429H75.4425ZM76.6211 23.6429V24.8214H75.4425V23.6429H76.6211ZM76.6211 16.5714V17.75H75.4425V16.5714H76.6211ZM76.6211 17.75V18.9286H75.4425V17.75H76.6211ZM75.4425 17.75V18.9286H74.2639V17.75H75.4425ZM85.0941 14.2143H86.2727V15.3929H85.0941V14.2143ZM85.0941 15.3929H86.2727V16.5714H85.0941V15.3929ZM83.9156 15.3929H85.0941V16.5714H83.9156V15.3929ZM83.9156 14.2143H85.0941V15.3929H83.9156V14.2143ZM85.0941 16.5714H86.2727V17.75H85.0941V16.5714ZM83.9156 16.5714H85.0941V17.75H83.9156V16.5714ZM83.9156 17.75H85.0941V18.9286H83.9156V17.75ZM83.9156 18.9286H85.0941V20.1071H83.9156V18.9286ZM83.9156 20.1071H85.0941V21.2857H83.9156V20.1071ZM82.737 20.1071H83.9156V21.2857H82.737V20.1071ZM82.737 18.9286H83.9156V20.1071H82.737V18.9286ZM82.737 17.75H83.9156V18.9286H82.737V17.75ZM82.737 21.2857H83.9156V22.4643H82.737V21.2857ZM82.737 22.4643H83.9156V23.6429H82.737V22.4643ZM82.737 23.6429H83.9156V24.8214H82.737V23.6429ZM81.5584 23.6429H82.737V24.8214H81.5584V23.6429ZM81.5584 22.4643H82.737V23.6429H81.5584V22.4643ZM81.5584 21.2857H82.737V22.4643H81.5584V21.2857ZM81.5584 24.8214H82.737V26H81.5584V24.8214ZM81.5584 26H82.737V27.1786H81.5584V26ZM81.5584 27.1786H82.737V28.3571H81.5584V27.1786ZM80.3798 27.1786H81.5584V28.3571H80.3798V27.1786ZM80.3798 26H81.5584V27.1786H80.3798V26ZM80.3798 24.8214H81.5584V26H80.3798V24.8214ZM87.6682 16.5714H88.8468V17.75H87.6682V16.5714ZM88.8468 16.5714H90.0253V17.75H88.8468V16.5714ZM88.8468 17.75H90.0253V18.9286H88.8468V17.75ZM88.8468 18.9286H90.0253V20.1071H88.8468V18.9286ZM88.8468 20.1071H90.0253V21.2857H88.8468V20.1071ZM88.8468 21.2857H90.0253V22.4643H88.8468V21.2857ZM87.6682 21.2857H88.8468V22.4643H87.6682V21.2857ZM87.6682 20.1071H88.8468V21.2857H87.6682V20.1071ZM87.6682 18.9286H88.8468V20.1071H87.6682V18.9286ZM87.6682 17.75H88.8468V18.9286H87.6682V17.75ZM88.8468 22.4643H90.0253V23.6429H88.8468V22.4643ZM90.0253 22.4643H91.2039V23.6429H90.0253V22.4643ZM90.0253 23.6429H91.2039V24.8214H90.0253V23.6429ZM91.2039 23.6429H92.3825V24.8214H91.2039V23.6429ZM91.2039 24.8214H92.3825V26H91.2039V24.8214ZM92.3825 23.6429H93.5611V24.8214H92.3825V23.6429ZM92.3825 22.4643H93.5611V23.6429H92.3825V22.4643ZM93.5611 22.4643H94.7396V23.6429H93.5611V22.4643ZM93.5611 21.2857H94.7396V22.4643H93.5611V21.2857ZM93.5611 20.1071H94.7396V21.2857H93.5611V20.1071ZM93.5611 18.9286H94.7396V20.1071H93.5611V18.9286ZM93.5611 17.75H94.7396V18.9286H93.5611V17.75ZM93.5611 16.5714H94.7396V17.75H93.5611V16.5714ZM94.7396 20.1071H95.9182V21.2857H94.7396V20.1071ZM94.7396 21.2857H95.9182V22.4643H94.7396V21.2857ZM94.7396 18.9286H95.9182V20.1071H94.7396V18.9286ZM94.7396 17.75H95.9182V18.9286H94.7396V17.75ZM94.7396 16.5714H95.9182V17.75H94.7396V16.5714ZM91.2039 22.4643H92.3825V23.6429H91.2039V22.4643ZM90.0253 21.2857H91.2039V22.4643H90.0253V21.2857ZM92.3825 21.2857H93.5611V22.4643H92.3825V21.2857ZM99.677 16.5714H100.856V17.75H99.677V16.5714ZM98.4984 16.5714H99.677V17.75H98.4984V16.5714ZM98.4984 17.75H99.677V18.9286H98.4984V17.75ZM99.677 17.75H100.856V18.9286H99.677V17.75ZM100.856 16.5714H102.034V17.75H100.856V16.5714ZM102.034 16.5714H103.213V17.75H102.034V16.5714ZM103.213 16.5714H104.391V17.75H103.213V16.5714ZM103.213 17.75H104.391V18.9286H103.213V17.75ZM102.034 17.75H103.213V18.9286H102.034V17.75ZM104.391 17.75H105.57V18.9286H104.391V17.75ZM104.391 18.9286H105.57V20.1071H104.391V18.9286ZM104.391 23.6429H105.57V24.8214H104.391V23.6429ZM103.213 23.6429H104.391V24.8214H103.213V23.6429ZM103.213 18.9286H104.391V20.1071H103.213V18.9286ZM102.034 23.6429H103.213V24.8214H102.034V23.6429ZM103.213 24.8214H104.391V26H103.213V24.8214ZM102.034 24.8214H103.213V26H102.034V24.8214ZM100.856 24.8214H102.034V26H100.856V24.8214ZM99.677 24.8214H100.856V26H99.677V24.8214ZM98.4984 24.8214H99.677V26H98.4984V24.8214ZM98.4984 23.6429H99.677V24.8214H98.4984V23.6429ZM99.677 23.6429H100.856V24.8214H99.677V23.6429ZM98.4984 22.4643H99.677V23.6429H98.4984V22.4643ZM97.3198 23.6429H98.4984V24.8214H97.3198V23.6429ZM97.3198 22.4643H98.4984V23.6429H97.3198V22.4643ZM97.3198 21.2857H98.4984V22.4643H97.3198V21.2857ZM97.3198 20.1071H98.4984V21.2857H97.3198V20.1071ZM97.3198 18.9286H98.4984V20.1071H97.3198V18.9286ZM97.3198 17.75H98.4984V18.9286H97.3198V17.75ZM98.4984 18.9286H99.677V20.1071H98.4984V18.9286ZM98.4984 20.1071H99.677V21.2857H98.4984V20.1071ZM98.4984 21.2857H99.677V22.4643H98.4984V21.2857ZM100.856 23.6429H102.034V24.8214H100.856V23.6429ZM100.856 17.75H102.034V18.9286H100.856V17.75ZM103.213 20.1071H104.391V21.2857H103.213V20.1071ZM104.391 20.1071H105.57V21.2857H104.391V20.1071ZM99.677 21.2857H100.856V22.4643H99.677V21.2857ZM100.856 21.2857H102.034V22.4643H100.856V21.2857ZM102.034 21.2857H103.213V22.4643H102.034V21.2857ZM103.213 21.2857H104.391V22.4643H103.213V21.2857ZM104.391 21.2857H105.57V22.4643H104.391V21.2857ZM102.034 20.1071H103.213V21.2857H102.034V20.1071ZM100.856 20.1071H102.034V21.2857H100.856V20.1071ZM99.677 20.1071H100.856V21.2857H99.677V20.1071ZM106.971 17.75H108.15V18.9286H106.971V17.75ZM106.971 16.5714H108.15V17.75H106.971V16.5714ZM108.15 16.5714H109.329V17.75H108.15V16.5714ZM108.15 17.75H109.329V18.9286H108.15V17.75ZM108.15 18.9286H109.329V20.1071H108.15V18.9286ZM108.15 20.1071H109.329V21.2857H108.15V20.1071ZM108.15 21.2857H109.329V22.4643H108.15V21.2857ZM106.971 21.2857H108.15V22.4643H106.971V21.2857ZM106.971 20.1071H108.15V21.2857H106.971V20.1071ZM106.971 18.9286H108.15V20.1071H106.971V18.9286ZM106.971 22.4643H108.15V23.6429H106.971V22.4643ZM108.15 22.4643H109.329V23.6429H108.15V22.4643ZM108.15 23.6429H109.329V24.8214H108.15V23.6429ZM108.15 24.8214H109.329V26H108.15V24.8214ZM106.971 24.8214H108.15V26H106.971V24.8214ZM106.971 23.6429H108.15V24.8214H106.971V23.6429ZM109.329 17.75H110.507V18.9286H109.329V17.75ZM110.507 17.75H111.686V18.9286H110.507V17.75ZM111.686 17.75H112.864V18.9286H111.686V17.75ZM111.686 16.5714H112.864V17.75H111.686V16.5714ZM110.507 16.5714H111.686V17.75H110.507V16.5714ZM109.329 18.9286H110.507V20.1071H109.329V18.9286ZM112.864 17.75H114.043V18.9286H112.864V17.75ZM111.686 18.9286H112.864V20.1071H111.686V18.9286ZM115.441 14.2143H117.799V16.5714H115.441V14.2143ZM115.441 17.75H117.799V26H115.441V17.75ZM123.921 14.2143H125.099V15.3929H123.921V14.2143ZM123.921 15.3929H125.099V16.5714H123.921V15.3929ZM122.742 15.3929H123.921V16.5714H122.742V15.3929ZM122.742 14.2143H123.921V15.3929H122.742V14.2143ZM121.564 14.2143H122.742V15.3929H121.564V14.2143ZM121.564 15.3929H122.742V16.5714H121.564V15.3929ZM121.564 16.5714H122.742V17.75H121.564V16.5714ZM120.385 15.3929H121.564V16.5714H120.385V15.3929ZM120.385 16.5714H121.564V17.75H120.385V16.5714ZM120.385 17.75H121.564V18.9286H120.385V17.75ZM120.385 18.9286H121.564V20.1071H120.385V18.9286ZM121.564 18.9286H122.742V20.1071H121.564V18.9286ZM121.564 17.75H122.742V18.9286H121.564V17.75ZM120.385 24.8214H121.564V26H120.385V24.8214ZM120.385 23.6429H121.564V24.8214H120.385V23.6429ZM120.385 22.4643H121.564V23.6429H120.385V22.4643ZM120.385 21.2857H121.564V22.4643H120.385V21.2857ZM120.385 20.1071H121.564V21.2857H120.385V20.1071ZM121.564 20.1071H122.742V21.2857H121.564V20.1071ZM121.564 21.2857H122.742V22.4643H121.564V21.2857ZM121.564 22.4643H122.742V23.6429H121.564V22.4643ZM121.564 23.6429H122.742V24.8214H121.564V23.6429ZM121.564 24.8214H122.742V26H121.564V24.8214ZM119.206 17.75H120.385V18.9286H119.206V17.75ZM122.742 17.75H123.921V18.9286H122.742V17.75ZM123.921 17.75H125.099V18.9286H123.921V17.75ZM119.206 18.9286H120.385V20.1071H119.206V18.9286ZM122.742 18.9286H123.921V20.1071H122.742V18.9286ZM123.921 18.9286H125.099V20.1071H123.921V18.9286ZM126.495 16.5714H127.673V17.75H126.495V16.5714ZM127.673 16.5714H128.852V17.75H127.673V16.5714ZM127.673 17.75H128.852V18.9286H127.673V17.75ZM127.673 18.9286H128.852V20.1071H127.673V18.9286ZM127.673 20.1071H128.852V21.2857H127.673V20.1071ZM126.495 18.9286H127.673V20.1071H126.495V18.9286ZM126.495 17.75H127.673V18.9286H126.495V17.75ZM126.495 20.1071H127.673V21.2857H126.495V20.1071ZM126.495 21.2857H127.673V22.4643H126.495V21.2857ZM127.673 21.2857H128.852V22.4643H127.673V21.2857ZM127.673 22.4643H128.852V23.6429H127.673V22.4643ZM128.852 22.4643H130.03V23.6429H128.852V22.4643ZM128.852 23.6429H130.03V24.8214H128.852V23.6429ZM130.03 23.6429H131.209V24.8214H130.03V23.6429ZM131.209 23.6429H132.388V24.8214H131.209V23.6429ZM131.209 22.4643H132.388V23.6429H131.209V22.4643ZM131.209 21.2857H132.388V22.4643H131.209V21.2857ZM132.388 21.2857H133.566V22.4643H132.388V21.2857ZM132.388 22.4643H133.566V23.6429H132.388V22.4643ZM132.388 20.1071H133.566V21.2857H132.388V20.1071ZM131.209 20.1071H132.388V21.2857H131.209V20.1071ZM131.209 16.5714H132.388V17.75H131.209V16.5714ZM132.388 16.5714H133.566V17.75H132.388V16.5714ZM132.388 17.75H133.566V18.9286H132.388V17.75ZM132.388 18.9286H133.566V20.1071H132.388V18.9286ZM131.209 17.75H132.388V18.9286H131.209V17.75ZM131.209 18.9286H132.388V20.1071H131.209V18.9286ZM130.03 24.8214H131.209V26H130.03V24.8214ZM128.852 24.8214H130.03V26H128.852V24.8214ZM128.852 26H130.03V27.1786H128.852V26ZM127.673 26H128.852V27.1786H127.673V26ZM127.673 24.8214H128.852V26H127.673V24.8214ZM127.673 27.1786H128.852V28.3571H127.673V27.1786ZM126.495 27.1786H127.673V28.3571H126.495V27.1786ZM126.495 26H127.673V27.1786H126.495V26ZM130.03 22.4643H131.209V23.6429H130.03V22.4643ZM128.852 21.2857H130.03V22.4643H128.852V21.2857ZM139.679 14.2143H140.858V15.3929H139.679V14.2143ZM139.679 15.3929H140.858V16.5714H139.679V15.3929ZM138.5 15.3929H139.679V16.5714H138.5V15.3929ZM138.5 14.2143H139.679V15.3929H138.5V14.2143ZM139.679 16.5714H140.858V17.75H139.679V16.5714ZM138.5 16.5714H139.679V17.75H138.5V16.5714ZM138.5 17.75H139.679V18.9286H138.5V17.75ZM138.5 18.9286H139.679V20.1071H138.5V18.9286ZM138.5 20.1071H139.679V21.2857H138.5V20.1071ZM137.322 20.1071H138.5V21.2857H137.322V20.1071ZM137.322 18.9286H138.5V20.1071H137.322V18.9286ZM137.322 17.75H138.5V18.9286H137.322V17.75ZM137.322 21.2857H138.5V22.4643H137.322V21.2857ZM137.322 22.4643H138.5V23.6429H137.322V22.4643ZM137.322 23.6429H138.5V24.8214H137.322V23.6429ZM136.143 23.6429H137.322V24.8214H136.143V23.6429ZM136.143 22.4643H137.322V23.6429H136.143V22.4643ZM136.143 21.2857H137.322V22.4643H136.143V21.2857ZM136.143 24.8214H137.322V26H136.143V24.8214ZM136.143 26H137.322V27.1786H136.143V26ZM136.143 27.1786H137.322V28.3571H136.143V27.1786ZM134.965 27.1786H136.143V28.3571H134.965V27.1786ZM134.965 26H136.143V27.1786H134.965V26ZM134.965 24.8214H136.143V26H134.965V24.8214ZM142.253 17.75H143.432V18.9286H142.253V17.75ZM142.253 16.5714H143.432V17.75H142.253V16.5714ZM143.432 16.5714H144.61V17.75H143.432V16.5714ZM143.432 17.75H144.61V18.9286H143.432V17.75ZM143.432 18.9286H144.61V20.1071H143.432V18.9286ZM143.432 20.1071H144.61V21.2857H143.432V20.1071ZM143.432 21.2857H144.61V22.4643H143.432V21.2857ZM142.253 21.2857H143.432V22.4643H142.253V21.2857ZM142.253 20.1071H143.432V21.2857H142.253V20.1071ZM142.253 18.9286H143.432V20.1071H142.253V18.9286ZM142.253 22.4643H143.432V23.6429H142.253V22.4643ZM143.432 22.4643H144.61V23.6429H143.432V22.4643ZM143.432 23.6429H144.61V24.8214H143.432V23.6429ZM143.432 24.8214H144.61V26H143.432V24.8214ZM142.253 24.8214H143.432V26H142.253V24.8214ZM142.253 23.6429H143.432V24.8214H142.253V23.6429ZM148.146 24.8214H149.325V26H148.146V24.8214ZM149.325 23.6429H150.503V24.8214H149.325V23.6429ZM149.325 22.4643H150.503V23.6429H149.325V22.4643ZM149.325 21.2857H150.503V22.4643H149.325V21.2857ZM149.325 20.1071H150.503V21.2857H149.325V20.1071ZM149.325 18.9286H150.503V20.1071H149.325V18.9286ZM149.325 17.75H150.503V18.9286H149.325V17.75ZM148.146 20.1071H149.325V21.2857H148.146V20.1071ZM148.146 21.2857H149.325V22.4643H148.146V21.2857ZM148.146 22.4643H149.325V23.6429H148.146V22.4643ZM148.146 23.6429H149.325V24.8214H148.146V23.6429ZM148.146 18.9286H149.325V20.1071H148.146V18.9286ZM144.61 17.75H145.789V18.9286H144.61V17.75ZM145.789 17.75H146.967V18.9286H145.789V17.75ZM146.967 17.75H148.146V18.9286H146.967V17.75ZM146.967 16.5714H148.146V17.75H146.967V16.5714ZM148.146 16.5714H149.325V17.75H148.146V16.5714ZM148.146 17.75H149.325V18.9286H148.146V17.75ZM145.789 16.5714H146.967V17.75H145.789V16.5714ZM144.61 24.8214H145.789V26H144.61V24.8214ZM145.789 24.8214H146.967V26H145.789V24.8214ZM146.967 24.8214H148.146V26H146.967V24.8214ZM146.967 23.6429H148.146V24.8214H146.967V23.6429ZM145.789 23.6429H146.967V24.8214H145.789V23.6429ZM144.61 23.6429H145.789V24.8214H144.61V23.6429ZM142.253 26H143.432V27.1786H142.253V26ZM143.432 26H144.61V27.1786H143.432V26ZM143.432 27.1786H144.61V28.3571H143.432V27.1786ZM142.253 27.1786H143.432V28.3571H142.253V27.1786ZM151.905 17.75H153.083V18.9286H151.905V17.75ZM151.905 16.5714H153.083V17.75H151.905V16.5714ZM153.083 16.5714H154.262V17.75H153.083V16.5714ZM153.083 17.75H154.262V18.9286H153.083V17.75ZM153.083 18.9286H154.262V20.1071H153.083V18.9286ZM153.083 20.1071H154.262V21.2857H153.083V20.1071ZM153.083 21.2857H154.262V22.4643H153.083V21.2857ZM151.905 21.2857H153.083V22.4643H151.905V21.2857ZM151.905 20.1071H153.083V21.2857H151.905V20.1071ZM151.905 18.9286H153.083V20.1071H151.905V18.9286ZM151.905 22.4643H153.083V23.6429H151.905V22.4643ZM153.083 22.4643H154.262V23.6429H153.083V22.4643ZM153.083 23.6429H154.262V24.8214H153.083V23.6429ZM153.083 24.8214H154.262V26H153.083V24.8214ZM151.905 24.8214H153.083V26H151.905V24.8214ZM151.905 23.6429H153.083V24.8214H151.905V23.6429ZM154.262 17.75H155.44V18.9286H154.262V17.75ZM155.44 17.75H156.619V18.9286H155.44V17.75ZM156.619 17.75H157.798V18.9286H156.619V17.75ZM156.619 16.5714H157.798V17.75H156.619V16.5714ZM155.44 16.5714H156.619V17.75H155.44V16.5714ZM154.262 18.9286H155.44V20.1071H154.262V18.9286ZM157.798 17.75H158.976V18.9286H157.798V17.75ZM156.619 18.9286H157.798V20.1071H156.619V18.9286ZM162.732 16.5714H163.91V17.75H162.732V16.5714ZM161.553 16.5714H162.732V17.75H161.553V16.5714ZM161.553 17.75H162.732V18.9286H161.553V17.75ZM162.732 17.75H163.91V18.9286H162.732V17.75ZM163.91 16.5714H165.089V17.75H163.91V16.5714ZM165.089 16.5714H166.268V17.75H165.089V16.5714ZM166.268 16.5714H167.446V17.75H166.268V16.5714ZM166.268 17.75H167.446V18.9286H166.268V17.75ZM165.089 17.75H166.268V18.9286H165.089V17.75ZM167.446 17.75H168.625V18.9286H167.446V17.75ZM167.446 18.9286H168.625V20.1071H167.446V18.9286ZM167.446 23.6429H168.625V24.8214H167.446V23.6429ZM166.268 23.6429H167.446V24.8214H166.268V23.6429ZM166.268 18.9286H167.446V20.1071H166.268V18.9286ZM165.089 23.6429H166.268V24.8214H165.089V23.6429ZM166.268 24.8214H167.446V26H166.268V24.8214ZM165.089 24.8214H166.268V26H165.089V24.8214ZM163.91 24.8214H165.089V26H163.91V24.8214ZM162.732 24.8214H163.91V26H162.732V24.8214ZM161.553 24.8214H162.732V26H161.553V24.8214ZM161.553 23.6429H162.732V24.8214H161.553V23.6429ZM162.732 23.6429H163.91V24.8214H162.732V23.6429ZM161.553 22.4643H162.732V23.6429H161.553V22.4643ZM160.375 23.6429H161.553V24.8214H160.375V23.6429ZM160.375 22.4643H161.553V23.6429H160.375V22.4643ZM160.375 21.2857H161.553V22.4643H160.375V21.2857ZM160.375 20.1071H161.553V21.2857H160.375V20.1071ZM160.375 18.9286H161.553V20.1071H160.375V18.9286ZM160.375 17.75H161.553V18.9286H160.375V17.75ZM161.553 18.9286H162.732V20.1071H161.553V18.9286ZM161.553 20.1071H162.732V21.2857H161.553V20.1071ZM161.553 21.2857H162.732V22.4643H161.553V21.2857ZM163.91 23.6429H165.089V24.8214H163.91V23.6429ZM163.91 17.75H165.089V18.9286H163.91V17.75ZM166.268 20.1071H167.446V21.2857H166.268V20.1071ZM167.446 20.1071H168.625V21.2857H167.446V20.1071ZM162.732 21.2857H163.91V22.4643H162.732V21.2857ZM163.91 21.2857H165.089V22.4643H163.91V21.2857ZM165.089 21.2857H166.268V22.4643H165.089V21.2857ZM166.268 21.2857H167.446V22.4643H166.268V21.2857ZM167.446 21.2857H168.625V22.4643H167.446V21.2857ZM165.089 20.1071H166.268V21.2857H165.089V20.1071ZM163.91 20.1071H165.089V21.2857H163.91V20.1071ZM162.732 20.1071H163.91V21.2857H162.732V20.1071ZM170.026 17.75H171.205V18.9286H170.026V17.75ZM170.026 16.5714H171.205V17.75H170.026V16.5714ZM171.205 16.5714H172.384V17.75H171.205V16.5714ZM171.205 17.75H172.384V18.9286H171.205V17.75ZM171.205 18.9286H172.384V20.1071H171.205V18.9286ZM171.205 20.1071H172.384V21.2857H171.205V20.1071ZM171.205 21.2857H172.384V22.4643H171.205V21.2857ZM170.026 21.2857H171.205V22.4643H170.026V21.2857ZM170.026 20.1071H171.205V21.2857H170.026V20.1071ZM170.026 18.9286H171.205V20.1071H170.026V18.9286ZM170.026 22.4643H171.205V23.6429H170.026V22.4643ZM171.205 22.4643H172.384V23.6429H171.205V22.4643ZM171.205 23.6429H172.384V24.8214H171.205V23.6429ZM171.205 24.8214H172.384V26H171.205V24.8214ZM170.026 24.8214H171.205V26H170.026V24.8214ZM170.026 23.6429H171.205V24.8214H170.026V23.6429ZM175.919 24.8214H177.098V26H175.919V24.8214ZM177.098 23.6429H178.276V24.8214H177.098V23.6429ZM177.098 22.4643H178.276V23.6429H177.098V22.4643ZM177.098 21.2857H178.276V22.4643H177.098V21.2857ZM177.098 20.1071H178.276V21.2857H177.098V20.1071ZM177.098 18.9286H178.276V20.1071H177.098V18.9286ZM177.098 17.75H178.276V18.9286H177.098V17.75ZM175.919 20.1071H177.098V21.2857H175.919V20.1071ZM175.919 21.2857H177.098V22.4643H175.919V21.2857ZM175.919 22.4643H177.098V23.6429H175.919V22.4643ZM175.919 23.6429H177.098V24.8214H175.919V23.6429ZM175.919 18.9286H177.098V20.1071H175.919V18.9286ZM172.384 17.75H173.562V18.9286H172.384V17.75ZM173.562 17.75H174.741V18.9286H173.562V17.75ZM174.741 17.75H175.919V18.9286H174.741V17.75ZM174.741 16.5714H175.919V17.75H174.741V16.5714ZM175.919 16.5714H177.098V17.75H175.919V16.5714ZM175.919 17.75H177.098V18.9286H175.919V17.75ZM173.562 16.5714H174.741V17.75H173.562V16.5714ZM172.384 24.8214H173.562V26H172.384V24.8214ZM173.562 24.8214H174.741V26H173.562V24.8214ZM174.741 24.8214H175.919V26H174.741V24.8214ZM174.741 23.6429H175.919V24.8214H174.741V23.6429ZM173.562 23.6429H174.741V24.8214H173.562V23.6429ZM172.384 23.6429H173.562V24.8214H172.384V23.6429ZM170.026 26H171.205V27.1786H170.026V26ZM171.205 26H172.384V27.1786H171.205V26ZM171.205 27.1786H172.384V28.3571H171.205V27.1786ZM170.026 27.1786H171.205V28.3571H170.026V27.1786ZM179.678 17.75H180.857V18.9286H179.678V17.75ZM179.678 16.5714H180.857V17.75H179.678V16.5714ZM180.857 16.5714H182.035V17.75H180.857V16.5714ZM180.857 17.75H182.035V18.9286H180.857V17.75ZM180.857 18.9286H182.035V20.1071H180.857V18.9286ZM180.857 20.1071H182.035V21.2857H180.857V20.1071ZM180.857 21.2857H182.035V22.4643H180.857V21.2857ZM179.678 21.2857H180.857V22.4643H179.678V21.2857ZM179.678 20.1071H180.857V21.2857H179.678V20.1071ZM179.678 18.9286H180.857V20.1071H179.678V18.9286ZM179.678 22.4643H180.857V23.6429H179.678V22.4643ZM180.857 22.4643H182.035V23.6429H180.857V22.4643ZM180.857 23.6429H182.035V24.8214H180.857V23.6429ZM180.857 24.8214H182.035V26H180.857V24.8214ZM179.678 24.8214H180.857V26H179.678V24.8214ZM179.678 23.6429H180.857V24.8214H179.678V23.6429ZM182.035 17.75H183.214V18.9286H182.035V17.75ZM183.214 17.75H184.392V18.9286H183.214V17.75ZM184.392 17.75H185.571V18.9286H184.392V17.75ZM184.392 16.5714H185.571V17.75H184.392V16.5714ZM183.214 16.5714H184.392V17.75H183.214V16.5714ZM182.035 18.9286H183.214V20.1071H182.035V18.9286ZM185.571 17.75H186.749V18.9286H185.571V17.75ZM184.392 18.9286H185.571V20.1071H184.392V18.9286ZM190.505 16.5714H191.684V17.75H190.505V16.5714ZM189.327 16.5714H190.505V17.75H189.327V16.5714ZM189.327 17.75H190.505V18.9286H189.327V17.75ZM190.505 17.75H191.684V18.9286H190.505V17.75ZM191.684 16.5714H192.862V17.75H191.684V16.5714ZM192.862 16.5714H194.041V17.75H192.862V16.5714ZM194.041 16.5714H195.219V17.75H194.041V16.5714ZM194.041 17.75H195.219V18.9286H194.041V17.75ZM192.862 17.75H194.041V18.9286H192.862V17.75ZM194.041 20.1071H195.219V21.2857H194.041V20.1071ZM195.219 17.75H196.398V18.9286H195.219V17.75ZM195.219 18.9286H196.398V20.1071H195.219V18.9286ZM195.219 20.1071H196.398V21.2857H195.219V20.1071ZM195.219 21.2857H196.398V22.4643H195.219V21.2857ZM195.219 22.4643H196.398V23.6429H195.219V22.4643ZM195.219 23.6429H196.398V24.8214H195.219V23.6429ZM194.041 23.6429H195.219V24.8214H194.041V23.6429ZM194.041 22.4643H195.219V23.6429H194.041V22.4643ZM194.041 21.2857H195.219V22.4643H194.041V21.2857ZM194.041 18.9286H195.219V20.1071H194.041V18.9286ZM192.862 23.6429H194.041V24.8214H192.862V23.6429ZM194.041 24.8214H195.219V26H194.041V24.8214ZM192.862 24.8214H194.041V26H192.862V24.8214ZM191.684 24.8214H192.862V26H191.684V24.8214ZM190.505 24.8214H191.684V26H190.505V24.8214ZM189.327 24.8214H190.505V26H189.327V24.8214ZM189.327 23.6429H190.505V24.8214H189.327V23.6429ZM190.505 23.6429H191.684V24.8214H190.505V23.6429ZM189.327 22.4643H190.505V23.6429H189.327V22.4643ZM188.148 23.6429H189.327V24.8214H188.148V23.6429ZM188.148 22.4643H189.327V23.6429H188.148V22.4643ZM188.148 21.2857H189.327V22.4643H188.148V21.2857ZM188.148 20.1071H189.327V21.2857H188.148V20.1071ZM188.148 18.9286H189.327V20.1071H188.148V18.9286ZM188.148 17.75H189.327V18.9286H188.148V17.75ZM189.327 18.9286H190.505V20.1071H189.327V18.9286ZM189.327 20.1071H190.505V21.2857H189.327V20.1071ZM189.327 21.2857H190.505V22.4643H189.327V21.2857ZM191.684 23.6429H192.862V24.8214H191.684V23.6429ZM191.684 17.75H192.862V18.9286H191.684V17.75ZM200.157 16.5714H201.335V17.75H200.157V16.5714ZM198.978 16.5714H200.157V17.75H198.978V16.5714ZM198.978 17.75H200.157V18.9286H198.978V17.75ZM200.157 17.75H201.335V18.9286H200.157V17.75ZM201.335 16.5714H202.514V17.75H201.335V16.5714ZM202.514 16.5714H203.693V17.75H202.514V16.5714ZM203.693 16.5714H204.871V17.75H203.693V16.5714ZM203.693 17.75H204.871V18.9286H203.693V17.75ZM202.514 17.75H203.693V18.9286H202.514V17.75ZM204.871 17.75H206.05V18.9286H204.871V17.75ZM204.871 18.9286H206.05V20.1071H204.871V18.9286ZM204.871 22.4643H206.05V23.6429H204.871V22.4643ZM204.871 23.6429H206.05V24.8214H204.871V23.6429ZM203.693 23.6429H204.871V24.8214H203.693V23.6429ZM203.693 22.4643H204.871V23.6429H203.693V22.4643ZM203.693 18.9286H204.871V20.1071H203.693V18.9286ZM202.514 23.6429H203.693V24.8214H202.514V23.6429ZM203.693 24.8214H204.871V26H203.693V24.8214ZM202.514 24.8214H203.693V26H202.514V24.8214ZM201.335 24.8214H202.514V26H201.335V24.8214ZM200.157 24.8214H201.335V26H200.157V24.8214ZM198.978 24.8214H200.157V26H198.978V24.8214ZM198.978 23.6429H200.157V24.8214H198.978V23.6429ZM200.157 23.6429H201.335V24.8214H200.157V23.6429ZM198.978 22.4643H200.157V23.6429H198.978V22.4643ZM197.8 23.6429H198.978V24.8214H197.8V23.6429ZM197.8 22.4643H198.978V23.6429H197.8V22.4643ZM197.8 21.2857H198.978V22.4643H197.8V21.2857ZM197.8 20.1071H198.978V21.2857H197.8V20.1071ZM197.8 18.9286H198.978V20.1071H197.8V18.9286ZM197.8 17.75H198.978V18.9286H197.8V17.75ZM198.978 18.9286H200.157V20.1071H198.978V18.9286ZM198.978 20.1071H200.157V21.2857H198.978V20.1071ZM198.978 21.2857H200.157V22.4643H198.978V21.2857ZM201.335 23.6429H202.514V24.8214H201.335V23.6429ZM201.335 17.75H202.514V18.9286H201.335V17.75ZM209.808 16.5714H210.987V17.75H209.808V16.5714ZM208.63 16.5714H209.808V17.75H208.63V16.5714ZM208.63 17.75H209.808V18.9286H208.63V17.75ZM209.808 17.75H210.987V18.9286H209.808V17.75ZM210.987 16.5714H212.166V17.75H210.987V16.5714ZM212.166 16.5714H213.344V17.75H212.166V16.5714ZM213.344 16.5714H214.523V17.75H213.344V16.5714ZM213.344 17.75H214.523V18.9286H213.344V17.75ZM212.166 17.75H213.344V18.9286H212.166V17.75ZM214.523 17.75H215.701V18.9286H214.523V17.75ZM214.523 18.9286H215.701V20.1071H214.523V18.9286ZM214.523 23.6429H215.701V24.8214H214.523V23.6429ZM213.344 23.6429H214.523V24.8214H213.344V23.6429ZM213.344 18.9286H214.523V20.1071H213.344V18.9286ZM212.166 23.6429H213.344V24.8214H212.166V23.6429ZM213.344 24.8214H214.523V26H213.344V24.8214ZM212.166 24.8214H213.344V26H212.166V24.8214ZM210.987 24.8214H212.166V26H210.987V24.8214ZM209.808 24.8214H210.987V26H209.808V24.8214ZM208.63 24.8214H209.808V26H208.63V24.8214ZM208.63 23.6429H209.808V24.8214H208.63V23.6429ZM209.808 23.6429H210.987V24.8214H209.808V23.6429ZM208.63 22.4643H209.808V23.6429H208.63V22.4643ZM207.451 23.6429H208.63V24.8214H207.451V23.6429ZM207.451 22.4643H208.63V23.6429H207.451V22.4643ZM207.451 21.2857H208.63V22.4643H207.451V21.2857ZM207.451 20.1071H208.63V21.2857H207.451V20.1071ZM207.451 18.9286H208.63V20.1071H207.451V18.9286ZM207.451 17.75H208.63V18.9286H207.451V17.75ZM208.63 18.9286H209.808V20.1071H208.63V18.9286ZM208.63 20.1071H209.808V21.2857H208.63V20.1071ZM208.63 21.2857H209.808V22.4643H208.63V21.2857ZM210.987 23.6429H212.166V24.8214H210.987V23.6429ZM210.987 17.75H212.166V18.9286H210.987V17.75ZM213.344 20.1071H214.523V21.2857H213.344V20.1071ZM214.523 20.1071H215.701V21.2857H214.523V20.1071ZM209.808 21.2857H210.987V22.4643H209.808V21.2857ZM210.987 21.2857H212.166V22.4643H210.987V21.2857ZM212.166 21.2857H213.344V22.4643H212.166V21.2857ZM213.344 21.2857H214.523V22.4643H213.344V21.2857ZM214.523 21.2857H215.701V22.4643H214.523V21.2857ZM212.166 20.1071H213.344V21.2857H212.166V20.1071ZM210.987 20.1071H212.166V21.2857H210.987V20.1071ZM209.808 20.1071H210.987V21.2857H209.808V20.1071ZM217.103 17.75H218.282V18.9286H217.103V17.75ZM218.282 18.9286H219.46V20.1071H218.282V18.9286ZM217.103 18.9286H218.282V20.1071H217.103V18.9286ZM217.103 20.1071H218.282V21.2857H217.103V20.1071ZM218.282 20.1071H219.46V21.2857H218.282V20.1071ZM218.282 21.2857H219.46V22.4643H218.282V21.2857ZM219.46 21.2857H220.639V22.4643H219.46V21.2857ZM220.639 21.2857H221.817V22.4643H220.639V21.2857ZM221.817 20.1071H222.996V21.2857H221.817V20.1071ZM220.639 20.1071H221.817V21.2857H220.639V20.1071ZM219.46 20.1071H220.639V21.2857H219.46V20.1071ZM221.817 21.2857H222.996V22.4643H221.817V21.2857ZM222.996 21.2857H224.174V22.4643H222.996V21.2857ZM222.996 22.4643H224.174V23.6429H222.996V22.4643ZM221.817 22.4643H222.996V23.6429H221.817V22.4643ZM221.817 23.6429H222.996V24.8214H221.817V23.6429ZM222.996 23.6429H224.174V24.8214H222.996V23.6429ZM221.817 24.8214H222.996V26H221.817V24.8214ZM220.639 23.6429H221.817V24.8214H220.639V23.6429ZM219.46 23.6429H220.639V24.8214H219.46V23.6429ZM218.282 23.6429H219.46V24.8214H218.282V23.6429ZM217.103 23.6429H218.282V24.8214H217.103V23.6429ZM218.282 24.8214H219.46V26H218.282V24.8214ZM219.46 24.8214H220.639V26H219.46V24.8214ZM220.639 24.8214H221.817V26H220.639V24.8214ZM222.996 17.75H224.174V18.9286H222.996V17.75ZM221.817 17.75H222.996V18.9286H221.817V17.75ZM221.817 16.5714H222.996V17.75H221.817V16.5714ZM220.639 16.5714H221.817V17.75H220.639V16.5714ZM219.46 16.5714H220.639V17.75H219.46V16.5714ZM218.282 16.5714H219.46V17.75H218.282V16.5714ZM218.282 17.75H219.46V18.9286H218.282V17.75ZM219.46 17.75H220.639V18.9286H219.46V17.75ZM220.639 17.75H221.817V18.9286H220.639V17.75ZM225.573 17.75H226.752V18.9286H225.573V17.75ZM226.752 18.9286H227.93V20.1071H226.752V18.9286ZM225.573 18.9286H226.752V20.1071H225.573V18.9286ZM225.573 20.1071H226.752V21.2857H225.573V20.1071ZM226.752 20.1071H227.93V21.2857H226.752V20.1071ZM226.752 21.2857H227.93V22.4643H226.752V21.2857ZM227.93 21.2857H229.109V22.4643H227.93V21.2857ZM229.109 21.2857H230.287V22.4643H229.109V21.2857ZM230.287 20.1071H231.466V21.2857H230.287V20.1071ZM229.109 20.1071H230.287V21.2857H229.109V20.1071ZM227.93 20.1071H229.109V21.2857H227.93V20.1071ZM230.287 21.2857H231.466V22.4643H230.287V21.2857ZM231.466 21.2857H232.644V22.4643H231.466V21.2857ZM231.466 22.4643H232.644V23.6429H231.466V22.4643ZM230.287 22.4643H231.466V23.6429H230.287V22.4643ZM230.287 23.6429H231.466V24.8214H230.287V23.6429ZM231.466 23.6429H232.644V24.8214H231.466V23.6429ZM230.287 24.8214H231.466V26H230.287V24.8214ZM229.109 23.6429H230.287V24.8214H229.109V23.6429ZM227.93 23.6429H229.109V24.8214H227.93V23.6429ZM226.752 23.6429H227.93V24.8214H226.752V23.6429ZM225.573 23.6429H226.752V24.8214H225.573V23.6429ZM226.752 24.8214H227.93V26H226.752V24.8214ZM227.93 24.8214H229.109V26H227.93V24.8214ZM229.109 24.8214H230.287V26H229.109V24.8214ZM231.466 17.75H232.644V18.9286H231.466V17.75ZM230.287 17.75H231.466V18.9286H230.287V17.75ZM230.287 16.5714H231.466V17.75H230.287V16.5714ZM229.109 16.5714H230.287V17.75H229.109V16.5714ZM227.93 16.5714H229.109V17.75H227.93V16.5714ZM226.752 16.5714H227.93V17.75H226.752V16.5714ZM226.752 17.75H227.93V18.9286H226.752V17.75ZM227.93 17.75H229.109V18.9286H227.93V17.75ZM229.109 17.75H230.287V18.9286H229.109V17.75Z" fill="#0CC751"/>
</svg>
