<svg width="100" height="52" viewBox="0 0 100 52" fill="none" xmlns="http://www.w3.org/2000/svg">
<g id="Group 33303">
<path id="Vector" d="M27.6288 0C34.1631 0.113173 40.7773 0.17264 47.3104 0.0155768L47.3113 2.49808C48.9765 2.51812 50.6416 2.51392 52.3065 2.4855L52.2998 5.13559C53.1424 5.13539 53.9866 5.10773 54.829 5.09223C54.9625 6.8193 54.8707 8.59133 54.8062 10.3205L57.6452 10.3243C57.7414 9.48033 57.7545 8.63546 57.7758 7.78722L60.1182 7.76029C60.1787 6.8898 60.1473 6.00266 60.1464 5.12983L74.7623 5.11018C74.8818 6.00846 74.9352 6.86605 74.9306 7.77226C76.5614 7.78909 78.1941 7.77226 79.8251 7.77189C79.8171 8.62368 79.8416 9.4708 79.8749 10.3218C80.4765 10.3089 81.3314 10.1977 81.888 10.44C82.9973 10.9227 81.9312 11.7842 82.213 12.5795C82.9505 13.1521 83.9827 12.9877 84.8618 12.9595L84.8566 18.1052C85.6966 18.1574 86.5344 18.1327 87.3751 18.1159C87.5234 19.8058 87.4477 21.5537 87.4501 23.2517L94.9498 23.2661C94.9932 24.1718 94.8958 25.0254 94.7812 25.9225L97.3506 25.9187L97.3642 28.5721L99.8766 28.6228L99.8833 30.8313C99.986 33.4197 100.077 36.0645 99.8996 38.6496C99.9916 40.3416 99.9729 42.034 99.9669 43.7276L97.3695 43.7164L97.3567 46.4068L94.9839 46.4087L94.9925 48.9007L83.5919 48.8881C81.7187 48.8902 79.6609 49.0585 77.8087 48.8332C77.4545 48.2903 77.5983 47.0682 77.603 46.4066L72.3649 46.4141L72.3701 48.9039L69.7788 48.9048L69.7927 51.5466C64.9196 51.5051 60.0108 51.4282 55.1398 51.5568L55.134 48.9016L52.5839 48.9098L52.6055 46.4027L49.751 46.4068L49.7502 48.9098C48.0964 48.8977 46.4356 48.8573 44.7827 48.9046L44.7733 51.5376C40.6942 51.5093 36.6151 51.5175 32.5361 51.5621L32.5118 48.9117C30.8768 48.8773 29.2417 48.8761 27.6066 48.9082L27.5957 46.4048L22.3012 46.3949C22.2918 47.2345 22.321 48.0812 22.1258 48.9029C17.2824 48.8844 12.3906 48.7399 7.55178 48.9153L7.5557 46.4122L4.9783 46.4012C4.974 45.5088 4.98935 44.6116 4.9604 43.72L2.57947 43.7174C2.57712 42.0502 2.62548 40.3657 2.56177 38.701L2.44209 38.6105C1.63136 38.5743 0.812383 38.5937 0.000496725 38.5911C-0.0027197 36.1764 0.00968428 33.7618 0.0377096 31.3474L0.0101085 30.893C0.14546 29.2621 0.0512121 27.5507 0.0564295 25.9105L2.5601 25.912C2.62789 24.2163 2.58303 22.5037 2.58344 20.8059L7.57085 20.8048L7.5744 18.1022C10.0847 18.1713 12.595 18.1707 15.1053 18.1004L15.0988 12.9851C15.9528 12.9982 16.7956 12.9776 17.6487 12.9328C17.7155 11.2196 17.6753 9.49903 17.6641 7.7846L20.0979 7.78124L20.0914 5.11695L22.6019 5.11156L22.6308 2.51893L27.6242 2.51661L27.6288 0Z" fill="#00C1DF"/>
<path id="Vector_2" d="M27.629 0C34.1632 0.113173 40.7775 0.17264 47.3105 0.0155768L47.3115 2.49808C48.9767 2.51811 50.6417 2.51392 52.3067 2.4855L52.2999 5.13559C53.1426 5.13539 53.9867 5.10773 54.8291 5.09222C54.9627 6.8193 54.8708 8.59133 54.8063 10.3205L57.6454 10.3243C57.7415 9.48033 57.7546 8.63546 57.7759 7.78722L60.1183 7.76029C60.1789 6.8898 60.1475 6.00266 60.1465 5.12983L74.7624 5.11018C74.8819 6.00846 74.9354 6.86605 74.9307 7.77226C76.5615 7.78909 78.1943 7.77226 79.8253 7.77189C79.8172 8.62368 79.8417 9.4708 79.875 10.3218C80.4766 10.3089 81.3316 10.1977 81.8881 10.44C82.9974 10.9227 81.9313 11.7842 82.2131 12.5795C82.9506 13.1521 83.9829 12.9877 84.862 12.9595L84.8568 18.1052C85.6968 18.1574 86.5345 18.1327 87.3753 18.1159C87.5236 19.8058 87.4478 21.5537 87.4503 23.2517L94.95 23.2661C94.9934 24.1718 94.8959 25.0254 94.7813 25.9225L97.3507 25.9187L97.3644 28.5721L99.8767 28.6228L99.8835 30.8313C98.4585 31.1538 96.5425 30.9169 95.0676 30.9122C95.0444 30.0546 95.0687 29.197 95.085 28.3396L85.0346 28.3393L85.0542 25.6889L82.5746 25.7199C82.5484 24.8498 82.5007 23.9763 82.552 23.1066L80.0596 23.1199L80.048 20.5215L70.0017 20.5316L70.0174 23.1126L67.5129 23.1169L67.5183 25.7132L72.5012 25.7054L72.5081 28.3492L75.0158 28.3352L75.0322 33.4891L72.506 33.4919L72.5075 30.9111L67.517 30.9135L67.5114 28.3202C64.1989 28.341 60.8014 28.4849 57.4984 28.2576L57.4672 30.9132L52.4731 30.8875C52.448 31.7446 52.5199 32.6167 52.5584 33.4738L49.9774 33.5013L49.9817 36.1346L47.4472 36.1356L47.4437 30.9102L49.9884 30.8952L49.9886 25.6941C48.3176 25.7322 46.6464 25.7393 44.9751 25.7154C44.9347 24.8517 44.959 23.9825 44.9663 23.1178L32.4248 23.115L32.4465 25.6996L29.9274 25.7226L29.9366 28.2613C29.0968 28.3256 28.2465 28.3202 27.4042 28.3365L27.4158 23.0948L29.93 23.1309L29.928 20.5361L32.4419 20.5432C32.416 19.6633 32.4476 18.7897 32.4811 17.9102L29.9375 17.9014L29.9314 15.3176C27.4233 15.3468 24.913 15.3182 22.4047 15.312L22.4079 17.9081L19.8785 17.9078L19.9043 20.5402L22.4083 20.5555L22.3984 23.1109L7.35482 23.1116C7.33275 23.9717 7.38138 24.8354 7.41204 25.6953L4.87441 25.7136L4.87939 28.3013L2.34667 28.3383L2.34847 30.913L0.0102539 30.893C0.145606 29.2621 0.0513575 27.5507 0.0565749 25.9105L2.56025 25.912C2.62803 24.2163 2.58317 22.5037 2.58358 20.8059L7.571 20.8048L7.57455 18.1022C10.0849 18.1713 12.5952 18.1707 15.1055 18.1004L15.0989 12.9851C15.953 12.9982 16.7958 12.9776 17.6489 12.9328C17.7157 11.2196 17.6754 9.49903 17.6642 7.7846L20.0981 7.78124L20.0915 5.11695L22.602 5.11156L22.631 2.51893L27.6243 2.51661L27.629 0Z" fill="#66EAFF"/>
<path id="Vector_3" d="M57.478 17.9077L62.507 17.9208L62.5267 20.5308L64.9829 20.5297L64.9826 23.1103C63.7698 23.1185 58.1835 22.8678 57.4928 23.272L57.4716 25.696L52.5183 25.7105L52.4912 23.1152L54.9953 23.1045L54.9841 20.5315L57.5195 20.5097C57.5012 19.6425 57.4873 18.7752 57.478 17.9077Z" fill="#00C1DF"/>
<path id="Vector_4" d="M44.9711 15.317L52.4603 15.3219L52.4568 17.9229C51.7673 17.9148 50.5864 17.7587 49.9754 18.031L49.9753 20.5357L47.4462 20.5424L47.4539 17.9309L45.0014 17.8862C44.9565 17.0311 44.9709 16.1731 44.9711 15.317Z" fill="#00C1DF"/>
<path id="Vector_5" d="M97.6157 38.7053C98.3777 38.7126 99.1411 38.7395 99.8994 38.6494C99.9914 40.3414 99.9727 42.0338 99.9667 43.7274L97.3692 43.7162L97.3565 46.4066L94.9836 46.4085L94.9922 48.9005L83.5917 48.8879C81.7185 48.89 79.6607 49.0583 77.8085 48.833C77.4543 48.2901 77.5981 47.068 77.6028 46.4064L72.3647 46.4139L72.3699 48.9037L69.7786 48.9046L69.7924 51.5464C64.9194 51.5048 60.0106 51.428 55.1395 51.5566L55.1338 48.9014L52.5836 48.9096L52.6053 46.4025L49.7507 46.4066L49.75 48.9096C48.0961 48.8975 46.4354 48.8571 44.7825 48.9044L44.7731 51.5374C40.694 51.5091 36.6149 51.5173 32.5359 51.5619L32.5116 48.9115C30.8766 48.8771 29.2415 48.8759 27.6063 48.908L27.5955 46.4046L22.3009 46.3947C22.2916 47.2343 22.3207 48.081 22.1255 48.9027C17.2822 48.8842 12.3904 48.7397 7.55153 48.9151L7.55546 46.412L4.97805 46.401C4.97375 45.5086 4.9891 44.6114 4.96016 43.7198L2.57923 43.7172C2.57688 42.05 2.62523 40.3655 2.56152 38.7008L4.87932 38.6849L4.87937 41.2882L7.3808 41.2921L7.41484 43.9292C9.06232 43.9379 10.7097 43.9287 12.3569 43.9014L12.4078 46.4848C14.9023 46.5107 17.3968 46.5139 19.8914 46.4943L19.862 43.9436C20.7122 43.9543 21.5649 43.9064 22.4144 43.8739L22.3944 41.2835L24.9176 41.2787L24.929 43.9444L29.9396 43.9111L29.9153 46.5063L47.439 46.5108L47.4469 43.9425L49.979 43.9042L49.9871 41.2613L52.4449 41.2884L52.4486 43.9425L55.0027 43.9124L55.006 46.5128L59.993 46.5074L59.9758 49.1168L64.9768 49.0729L64.9975 46.4863C66.6738 46.5285 68.3574 46.5001 70.0344 46.5018C69.9678 45.65 69.9879 44.781 69.9778 43.9264L72.4705 43.9449L72.5328 41.2788C73.369 41.2944 74.2076 41.2826 75.0442 41.2826L75.0412 43.9376L82.5764 43.9178C82.5673 44.7815 82.5446 45.6448 82.5082 46.5078L90.0315 46.5074L90.0444 43.9565L95.0627 43.936L95.0579 41.283L97.5906 41.2874L97.6157 38.7053Z" fill="#0089A8"/>
<path id="Vector_6" d="M0.0377096 31.3474C0.22559 32.0482 0.183534 32.7669 0.173866 33.4857C0.913009 33.4739 1.65509 33.4743 2.39354 33.4438C2.34352 34.9787 2.05469 37.1326 2.44209 38.6105C1.63136 38.5742 0.812383 38.5937 0.000496725 38.591C-0.0027197 36.1764 0.00968428 33.7618 0.0377096 31.3474Z" fill="#0089A8"/>
<path id="Vector_7" d="M75.0322 33.4891L77.4849 33.4887C77.4913 34.365 77.5188 35.2475 77.492 36.123L75.042 36.1357L75.0322 33.4891Z" fill="#66EAFF"/>
<path id="Vector_8" d="M82.5754 28.3346L85.0347 28.3393L85.0317 30.9049L82.5481 30.9253C82.515 30.0597 82.5451 29.1999 82.5754 28.3346Z" fill="#66EAFF"/>
<path id="Vector_9" d="M14.865 28.3613C17.3766 28.3551 19.888 28.3309 22.3992 28.2888L22.3975 30.9023L24.9136 30.9122L24.9184 33.4895L27.3843 33.4906L27.405 36.1337C25.7398 36.1331 24.07 36.1569 22.4053 36.1178L22.4033 33.4799C18.2387 33.528 14.0381 33.6215 9.87715 33.4923L9.87061 30.9051L14.8826 30.9087L14.865 28.3613Z" fill="#66EAFF"/>
<path id="Vector_10" d="M85.0551 33.5046C87.5616 33.4895 90.068 33.4902 92.5745 33.5068L92.5657 36.1108L95.0394 36.1388L95.0863 38.6952L89.8585 38.703L85.0329 38.6959L85.0303 41.2979L82.5695 41.3023C82.5203 39.5765 82.4899 37.8456 82.5953 36.1215L85.0404 36.1544L85.0551 33.5046Z" fill="#66EAFF"/>
<path id="Vector_11" d="M34.9232 36.1428L42.4557 36.1436L42.4523 38.7059L44.9278 38.6982C44.9953 40.4468 44.9531 42.1893 44.9131 43.938C44.1028 43.9023 43.2833 43.9356 42.4719 43.9462L42.4581 41.2869C39.1158 41.3178 35.7735 41.3177 32.4313 41.2865C32.3931 40.4186 32.4217 39.5689 32.4694 38.7018L34.9292 38.7031L34.9232 36.1428Z" fill="#66EAFF"/>
<path id="Vector_12" d="M57.5004 36.1514C60.8365 36.1012 64.1788 36.1343 67.5156 36.1263L67.5111 41.2896C66.67 41.31 65.8255 41.2948 64.9838 41.2945L64.9855 38.7054L59.9797 38.6875L59.978 41.2801C58.3189 41.3071 56.6597 41.309 55.0005 41.2857L54.9863 38.7122L57.4938 38.7051C57.4635 37.8544 57.4877 37.0024 57.5004 36.1514Z" fill="#66EAFF"/>
<path id="Vector_13" d="M7.33252 33.5053L9.87705 33.4922L9.87836 36.1314L7.42714 36.1406L7.33252 33.5053Z" fill="#66EAFF"/>
<path id="Vector_14" d="M29.9431 41.2997L32.4337 41.2875L32.387 43.9366C31.5728 43.9084 30.7517 43.9289 29.9365 43.9286L29.9431 41.2997Z" fill="#66EAFF"/>
</g>
</svg>
