<svg width="142" height="59" viewBox="0 0 142 59" fill="none" xmlns="http://www.w3.org/2000/svg">
<g clip-path="url(#clip0_2124_74375)">
<rect y="0.5" width="142" height="1" fill="#A8A8A8"/>
<rect width="142" height="56" transform="translate(0 1.5)" fill="#7C7C88"/>
<rect y="1.5" width="1" height="56" fill="#A8A8A8"/>
<path d="M31 36.5H33V22.5H35V38.5H15V18.5H31V20.5H17V36.5H19V30.5H31V36.5ZM21 36.5H29V32.5H21V36.5ZM28 26.5H19V22.5H28V26.5ZM33 22.5H31V20.5H33V22.5Z" fill="#E0E0E0"/>
<path d="M46.68 36.5V22.54H51.9C53.2333 22.54 54.2467 22.9133 54.94 23.66C55.6467 24.4067 56 25.4333 56 26.74C56 28.0467 55.6467 29.0733 54.94 29.82C54.2467 30.5667 53.2333 30.94 51.9 30.94H48.92V36.5H46.68ZM48.92 29.08H51.56C52.9467 29.08 53.64 28.44 53.64 27.16V26.3C53.64 25.0333 52.9467 24.4 51.56 24.4H48.92V29.08ZM58.5122 34.74H61.2522V27.94H58.5122V26.18H63.4322V28.92H63.5522C63.6455 28.56 63.7789 28.2133 63.9522 27.88C64.1255 27.5467 64.3455 27.26 64.6122 27.02C64.8789 26.7667 65.2055 26.5667 65.5922 26.42C65.9789 26.26 66.4322 26.18 66.9522 26.18H68.1922V28.26H66.1522C65.3522 28.26 64.6989 28.5 64.1922 28.98C63.6855 29.4467 63.4322 30.08 63.4322 30.88V34.74H67.1722V36.5H58.5122V34.74ZM74.9844 36.74C74.2244 36.74 73.5377 36.6133 72.9244 36.36C72.3244 36.1067 71.811 35.7467 71.3844 35.28C70.971 34.8133 70.651 34.2467 70.4244 33.58C70.1977 32.9133 70.0844 32.1667 70.0844 31.34C70.0844 30.5133 70.1977 29.7667 70.4244 29.1C70.651 28.4333 70.971 27.8667 71.3844 27.4C71.811 26.9333 72.3244 26.5733 72.9244 26.32C73.5377 26.0667 74.2244 25.94 74.9844 25.94C75.7444 25.94 76.4244 26.0667 77.0244 26.32C77.6377 26.5733 78.151 26.9333 78.5644 27.4C78.991 27.8667 79.3177 28.4333 79.5444 29.1C79.771 29.7667 79.8844 30.5133 79.8844 31.34C79.8844 32.1667 79.771 32.9133 79.5444 33.58C79.3177 34.2467 78.991 34.8133 78.5644 35.28C78.151 35.7467 77.6377 36.1067 77.0244 36.36C76.4244 36.6133 75.7444 36.74 74.9844 36.74ZM74.9844 35.02C75.7844 35.02 76.4177 34.78 76.8844 34.3C77.3644 33.8067 77.6044 33.08 77.6044 32.12V30.56C77.6044 29.6 77.3644 28.88 76.8844 28.4C76.4177 27.9067 75.7844 27.66 74.9844 27.66C74.1844 27.66 73.5444 27.9067 73.0644 28.4C72.5977 28.88 72.3644 29.6 72.3644 30.56V32.12C72.3644 33.08 72.5977 33.8067 73.0644 34.3C73.5444 34.78 74.1844 35.02 74.9844 35.02ZM87.3566 36.74C86.5832 36.74 85.8899 36.6133 85.2766 36.36C84.6766 36.1067 84.1632 35.7467 83.7366 35.28C83.3232 34.8133 83.0032 34.2467 82.7766 33.58C82.5632 32.9133 82.4566 32.1667 82.4566 31.34C82.4566 30.5133 82.5632 29.7667 82.7766 29.1C83.0032 28.4333 83.3232 27.8667 83.7366 27.4C84.1632 26.9333 84.6766 26.5733 85.2766 26.32C85.8899 26.0667 86.5766 25.94 87.3366 25.94C88.4032 25.94 89.2566 26.1667 89.8966 26.62C90.5499 27.0733 91.0366 27.66 91.3566 28.38L89.6566 29.3C89.4699 28.82 89.1832 28.44 88.7966 28.16C88.4232 27.88 87.9366 27.74 87.3366 27.74C86.5099 27.74 85.8699 27.9933 85.4166 28.5C84.9632 28.9933 84.7366 29.6533 84.7366 30.48V32.2C84.7366 33.0133 84.9632 33.6733 85.4166 34.18C85.8699 34.6867 86.5232 34.94 87.3766 34.94C88.0166 34.94 88.5366 34.7933 88.9366 34.5C89.3499 34.2067 89.6766 33.8067 89.9166 33.3L91.5166 34.28C91.1832 35 90.6766 35.5933 89.9966 36.06C89.3166 36.5133 88.4366 36.74 87.3566 36.74ZM99.1888 36.74C98.4021 36.74 97.6954 36.6133 97.0688 36.36C96.4421 36.1067 95.9154 35.7467 95.4888 35.28C95.0621 34.8133 94.7354 34.2533 94.5088 33.6C94.2821 32.9333 94.1688 32.1867 94.1688 31.36C94.1688 30.5333 94.2821 29.7867 94.5088 29.12C94.7488 28.4533 95.0754 27.8867 95.4888 27.42C95.9154 26.94 96.4288 26.5733 97.0288 26.32C97.6288 26.0667 98.2954 25.94 99.0288 25.94C99.7488 25.94 100.402 26.0667 100.989 26.32C101.575 26.56 102.075 26.9067 102.489 27.36C102.902 27.8133 103.215 28.3533 103.429 28.98C103.655 29.6067 103.769 30.3 103.769 31.06V31.88H96.3688V32.22C96.3688 33.0333 96.6221 33.7 97.1288 34.22C97.6354 34.7267 98.3354 34.98 99.2288 34.98C99.8954 34.98 100.462 34.84 100.929 34.56C101.409 34.2667 101.795 33.88 102.089 33.4L103.449 34.6C103.102 35.2 102.569 35.7067 101.849 36.12C101.142 36.5333 100.255 36.74 99.1888 36.74ZM99.0288 27.6C98.6421 27.6 98.2821 27.6667 97.9488 27.8C97.6288 27.9333 97.3488 28.1267 97.1088 28.38C96.8821 28.62 96.7021 28.9067 96.5688 29.24C96.4354 29.5733 96.3688 29.94 96.3688 30.34V30.48H101.549V30.28C101.549 29.4667 101.315 28.82 100.849 28.34C100.395 27.8467 99.7888 27.6 99.0288 27.6ZM110.981 36.74C109.861 36.74 108.894 36.56 108.081 36.2C107.281 35.84 106.634 35.36 106.141 34.76L107.481 33.56C107.934 34.0533 108.441 34.4333 109.001 34.7C109.574 34.9533 110.248 35.08 111.021 35.08C111.728 35.08 112.294 34.96 112.721 34.72C113.161 34.48 113.381 34.1067 113.381 33.6C113.381 33.3867 113.341 33.2067 113.261 33.06C113.181 32.9133 113.068 32.7933 112.921 32.7C112.774 32.6067 112.601 32.5333 112.401 32.48C112.214 32.4267 112.014 32.3867 111.801 32.36L110.161 32.1C109.761 32.0467 109.354 31.96 108.941 31.84C108.528 31.72 108.154 31.5533 107.821 31.34C107.501 31.1133 107.234 30.8267 107.021 30.48C106.821 30.1333 106.721 29.6933 106.721 29.16C106.721 28.1067 107.121 27.3067 107.921 26.76C108.734 26.2133 109.801 25.94 111.121 25.94C112.081 25.94 112.908 26.0867 113.601 26.38C114.308 26.66 114.894 27.0533 115.361 27.56L114.141 28.84C113.874 28.5333 113.494 28.2533 113.001 28C112.508 27.7333 111.854 27.6 111.041 27.6C109.588 27.6 108.861 28.06 108.861 28.98C108.861 29.42 109.014 29.7267 109.321 29.9C109.641 30.06 110.014 30.1667 110.441 30.22L112.081 30.48C112.494 30.5467 112.901 30.6333 113.301 30.74C113.714 30.8467 114.081 31.0133 114.401 31.24C114.734 31.4533 115.001 31.7333 115.201 32.08C115.414 32.4267 115.521 32.8667 115.521 33.4C115.521 34.44 115.114 35.26 114.301 35.86C113.501 36.4467 112.394 36.74 110.981 36.74ZM122.973 36.74C121.853 36.74 120.886 36.56 120.073 36.2C119.273 35.84 118.626 35.36 118.133 34.76L119.473 33.56C119.926 34.0533 120.433 34.4333 120.993 34.7C121.566 34.9533 122.24 35.08 123.013 35.08C123.72 35.08 124.286 34.96 124.713 34.72C125.153 34.48 125.373 34.1067 125.373 33.6C125.373 33.3867 125.333 33.2067 125.253 33.06C125.173 32.9133 125.06 32.7933 124.913 32.7C124.766 32.6067 124.593 32.5333 124.393 32.48C124.206 32.4267 124.006 32.3867 123.793 32.36L122.153 32.1C121.753 32.0467 121.346 31.96 120.933 31.84C120.52 31.72 120.146 31.5533 119.813 31.34C119.493 31.1133 119.226 30.8267 119.013 30.48C118.813 30.1333 118.713 29.6933 118.713 29.16C118.713 28.1067 119.113 27.3067 119.913 26.76C120.726 26.2133 121.793 25.94 123.113 25.94C124.073 25.94 124.9 26.0867 125.593 26.38C126.3 26.66 126.886 27.0533 127.353 27.56L126.133 28.84C125.866 28.5333 125.486 28.2533 124.993 28C124.5 27.7333 123.846 27.6 123.033 27.6C121.58 27.6 120.853 28.06 120.853 28.98C120.853 29.42 121.006 29.7267 121.313 29.9C121.633 30.06 122.006 30.1667 122.433 30.22L124.073 30.48C124.486 30.5467 124.893 30.6333 125.293 30.74C125.706 30.8467 126.073 31.0133 126.393 31.24C126.726 31.4533 126.993 31.7333 127.193 32.08C127.406 32.4267 127.513 32.8667 127.513 33.4C127.513 34.44 127.106 35.26 126.293 35.86C125.493 36.4467 124.386 36.74 122.973 36.74Z" fill="#E0E0E0"/>
<rect x="141" y="1.5" width="1" height="56" fill="#5F5F5F"/>
<rect y="57.5" width="142" height="1" fill="#5F5F5F"/>
</g>
<defs>
<clipPath id="clip0_2124_74375">
<rect width="142" height="58" fill="white" transform="translate(0 0.5)"/>
</clipPath>
</defs>
</svg>
