<svg width="412" height="218" viewBox="0 0 412 218" fill="none" xmlns="http://www.w3.org/2000/svg">
<g clip-path="url(#clip0_904_626079)">
<path d="M6 26.7973V20.8987L11.2569 15H402.743L406 20.8987V205.385L400 211.789L12 212.508L6 206.171V26.7973Z" fill="white"/>
<path d="M406 52V12L401.578 6L10.4218 6L6 11.9764V15.8013V52H406Z" fill="#00CCEC"/>
<path d="M406 6H400V12H406V6Z" fill="#365969"/>
<path d="M406 212H400V206H406V212Z" fill="#365969"/>
<path d="M12 6H6V12H12V6Z" fill="#365969"/>
<path d="M12 212H6V206H12V212Z" fill="#365969"/>
<path d="M82 0H12V6H82V0Z" fill="#365969"/>
<path d="M88 0H18V6H88V0Z" fill="#365969"/>
<path d="M94 0H24V6H94V0Z" fill="#365969"/>
<path d="M100 0H30V6H100V0Z" fill="#365969"/>
<path d="M106 0H36V6H106V0Z" fill="#365969"/>
<path d="M112 0H42V6H112V0Z" fill="#365969"/>
<path d="M118 0H48V6H118V0Z" fill="#365969"/>
<path d="M124 0H54V6H124V0Z" fill="#365969"/>
<path d="M130 0H60V6H130V0Z" fill="#365969"/>
<path d="M136 0H66V6H136V0Z" fill="#365969"/>
<path d="M142 0H72V6H142V0Z" fill="#365969"/>
<path d="M148 0H78V6H148V0Z" fill="#365969"/>
<path d="M154 0H84V6H154V0Z" fill="#365969"/>
<path d="M160 0H90V6H160V0Z" fill="#365969"/>
<path d="M166 0H96V6H166V0Z" fill="#365969"/>
<path d="M172 0H102V6H172V0Z" fill="#365969"/>
<path d="M178 0H108V6H178V0Z" fill="#365969"/>
<path d="M184 0H114V6H184V0Z" fill="#365969"/>
<path d="M190 0H120V6H190V0Z" fill="#365969"/>
<path d="M196 0H126V6H196V0Z" fill="#365969"/>
<path d="M202 0H132V6H202V0Z" fill="#365969"/>
<path d="M208 0H138V6H208V0Z" fill="#365969"/>
<path d="M214 0H144V6H214V0Z" fill="#365969"/>
<path d="M220 0H150V6H220V0Z" fill="#365969"/>
<path d="M226 0H156V6H226V0Z" fill="#365969"/>
<path d="M232 0H162V6H232V0Z" fill="#365969"/>
<path d="M238 0H168V6H238V0Z" fill="#365969"/>
<path d="M244 0H174V6H244V0Z" fill="#365969"/>
<path d="M250 0H180V6H250V0Z" fill="#365969"/>
<path d="M256 0H186V6H256V0Z" fill="#365969"/>
<path d="M262 0H192V6H262V0Z" fill="#365969"/>
<path d="M268 0H198V6H268V0Z" fill="#365969"/>
<path d="M274 0H204V6H274V0Z" fill="#365969"/>
<path d="M280 0H210V6H280V0Z" fill="#365969"/>
<path d="M286 0H216V6H286V0Z" fill="#365969"/>
<path d="M292 0H222V6H292V0Z" fill="#365969"/>
<path d="M298 0H228V6H298V0Z" fill="#365969"/>
<path d="M304 0H234V6H304V0Z" fill="#365969"/>
<path d="M310 0H240V6H310V0Z" fill="#365969"/>
<path d="M316 0H246V6H316V0Z" fill="#365969"/>
<path d="M322 0H252V6H322V0Z" fill="#365969"/>
<path d="M328 0H258V6H328V0Z" fill="#365969"/>
<path d="M334 0H264V6H334V0Z" fill="#365969"/>
<path d="M340 0H270V6H340V0Z" fill="#365969"/>
<path d="M346 0H276V6H346V0Z" fill="#365969"/>
<path d="M352 0H282V6H352V0Z" fill="#365969"/>
<path d="M358 0H288V6H358V0Z" fill="#365969"/>
<path d="M364 0H294V6H364V0Z" fill="#365969"/>
<path d="M370 0H300V6H370V0Z" fill="#365969"/>
<path d="M376 0H306V6H376V0Z" fill="#365969"/>
<path d="M382 0H312V6H382V0Z" fill="#365969"/>
<path d="M388 0H318V6H388V0Z" fill="#365969"/>
<path d="M394 0H324V6H394V0Z" fill="#365969"/>
<path d="M400 0H330V6H400V0Z" fill="#365969"/>
<path d="M82 218H12V212H82V218Z" fill="#365969"/>
<path d="M88 218H18V212H88V218Z" fill="#365969"/>
<path d="M94 218H24V212H94V218Z" fill="#365969"/>
<path d="M100 218H30V212H100V218Z" fill="#365969"/>
<path d="M106 218H36V212H106V218Z" fill="#365969"/>
<path d="M112 218H42V212H112V218Z" fill="#365969"/>
<path d="M118 218H48V212H118V218Z" fill="#365969"/>
<path d="M124 218H54V212H124V218Z" fill="#365969"/>
<path d="M130 218H60V212H130V218Z" fill="#365969"/>
<path d="M136 218H66V212H136V218Z" fill="#365969"/>
<path d="M142 218H72V212H142V218Z" fill="#365969"/>
<path d="M148 218H78V212H148V218Z" fill="#365969"/>
<path d="M154 218H84V212H154V218Z" fill="#365969"/>
<path d="M160 218H90V212H160V218Z" fill="#365969"/>
<path d="M166 218H96V212H166V218Z" fill="#365969"/>
<path d="M172 218H102V212H172V218Z" fill="#365969"/>
<path d="M178 218H108V212H178V218Z" fill="#365969"/>
<path d="M184 218H114V212H184V218Z" fill="#365969"/>
<path d="M190 218H120V212H190V218Z" fill="#365969"/>
<path d="M196 218H126V212H196V218Z" fill="#365969"/>
<path d="M202 218H132V212H202V218Z" fill="#365969"/>
<path d="M208 218H138V212H208V218Z" fill="#365969"/>
<path d="M214 218H144V212H214V218Z" fill="#365969"/>
<path d="M220 218H150V212H220V218Z" fill="#365969"/>
<path d="M226 218H156V212H226V218Z" fill="#365969"/>
<path d="M232 218H162V212H232V218Z" fill="#365969"/>
<path d="M238 218H168V212H238V218Z" fill="#365969"/>
<path d="M244 218H174V212H244V218Z" fill="#365969"/>
<path d="M250 218H180V212H250V218Z" fill="#365969"/>
<path d="M256 218H186V212H256V218Z" fill="#365969"/>
<path d="M262 218H192V212H262V218Z" fill="#365969"/>
<path d="M268 218H198V212H268V218Z" fill="#365969"/>
<path d="M274 218H204V212H274V218Z" fill="#365969"/>
<path d="M280 218H210V212H280V218Z" fill="#365969"/>
<path d="M286 218H216V212H286V218Z" fill="#365969"/>
<path d="M292 218H222V212H292V218Z" fill="#365969"/>
<path d="M298 218H228V212H298V218Z" fill="#365969"/>
<path d="M304 218H234V212H304V218Z" fill="#365969"/>
<path d="M310 218H240V212H310V218Z" fill="#365969"/>
<path d="M316 218H246V212H316V218Z" fill="#365969"/>
<path d="M322 218H252V212H322V218Z" fill="#365969"/>
<path d="M328 218H258V212H328V218Z" fill="#365969"/>
<path d="M334 218H264V212H334V218Z" fill="#365969"/>
<path d="M340 218H270V212H340V218Z" fill="#365969"/>
<path d="M346 218H276V212H346V218Z" fill="#365969"/>
<path d="M352 218H282V212H352V218Z" fill="#365969"/>
<path d="M358 218H288V212H358V218Z" fill="#365969"/>
<path d="M364 218H294V212H364V218Z" fill="#365969"/>
<path d="M370 218H300V212H370V218Z" fill="#365969"/>
<path d="M376 218H306V212H376V218Z" fill="#365969"/>
<path d="M382 218H312V212H382V218Z" fill="#365969"/>
<path d="M388 218H318V212H388V218Z" fill="#365969"/>
<path d="M394 218H324V212H394V218Z" fill="#365969"/>
<path d="M400 218H330V212H400V218Z" fill="#365969"/>
<path d="M76 58H6V52H76V58Z" fill="#C2F7FF"/>
<path d="M82 58H12V52H82V58Z" fill="#C2F7FF"/>
<path d="M88 58H18V52H88V58Z" fill="#C2F7FF"/>
<path d="M94 58H24V52H94V58Z" fill="#C2F7FF"/>
<path d="M100 58H30V52H100V58Z" fill="#C2F7FF"/>
<path d="M106 58H36V52H106V58Z" fill="#C2F7FF"/>
<path d="M112 58H42V52H112V58Z" fill="#C2F7FF"/>
<path d="M118 58H48V52H118V58Z" fill="#C2F7FF"/>
<path d="M124 58H54V52H124V58Z" fill="#C2F7FF"/>
<path d="M130 58H60V52H130V58Z" fill="#C2F7FF"/>
<path d="M136 58H66V52H136V58Z" fill="#C2F7FF"/>
<path d="M142 58H72V52H142V58Z" fill="#C2F7FF"/>
<path d="M148 58H78V52H148V58Z" fill="#C2F7FF"/>
<path d="M154 58H84V52H154V58Z" fill="#C2F7FF"/>
<path d="M160 58H90V52H160V58Z" fill="#C2F7FF"/>
<path d="M166 58H96V52H166V58Z" fill="#C2F7FF"/>
<path d="M172 58H102V52H172V58Z" fill="#C2F7FF"/>
<path d="M178 58H108V52H178V58Z" fill="#C2F7FF"/>
<path d="M184 58H114V52H184V58Z" fill="#C2F7FF"/>
<path d="M190 58H120V52H190V58Z" fill="#C2F7FF"/>
<path d="M196 58H126V52H196V58Z" fill="#C2F7FF"/>
<path d="M202 58H132V52H202V58Z" fill="#C2F7FF"/>
<path d="M208 58H138V52H208V58Z" fill="#C2F7FF"/>
<path d="M214 58H144V52H214V58Z" fill="#C2F7FF"/>
<path d="M220 58H150V52H220V58Z" fill="#C2F7FF"/>
<path d="M226 58H156V52H226V58Z" fill="#C2F7FF"/>
<path d="M232 58H162V52H232V58Z" fill="#C2F7FF"/>
<path d="M238 58H168V52H238V58Z" fill="#C2F7FF"/>
<path d="M244 58H174V52H244V58Z" fill="#C2F7FF"/>
<path d="M250 58H180V52H250V58Z" fill="#C2F7FF"/>
<path d="M256 58H186V52H256V58Z" fill="#C2F7FF"/>
<path d="M262 58H192V52H262V58Z" fill="#C2F7FF"/>
<path d="M268 58H198V52H268V58Z" fill="#C2F7FF"/>
<path d="M274 58H204V52H274V58Z" fill="#C2F7FF"/>
<path d="M280 58H210V52H280V58Z" fill="#C2F7FF"/>
<path d="M286 58H216V52H286V58Z" fill="#C2F7FF"/>
<path d="M292 58H222V52H292V58Z" fill="#C2F7FF"/>
<path d="M298 58H228V52H298V58Z" fill="#C2F7FF"/>
<path d="M304 58H234V52H304V58Z" fill="#C2F7FF"/>
<path d="M310 58H240V52H310V58Z" fill="#C2F7FF"/>
<path d="M316 58H246V52H316V58Z" fill="#C2F7FF"/>
<path d="M322 58H252V52H322V58Z" fill="#C2F7FF"/>
<path d="M328 58H258V52H328V58Z" fill="#C2F7FF"/>
<path d="M334 58H264V52H334V58Z" fill="#C2F7FF"/>
<path d="M340 58H270V52H340V58Z" fill="#C2F7FF"/>
<path d="M346 58H276V52H346V58Z" fill="#C2F7FF"/>
<path d="M352 58H282V52H352V58Z" fill="#C2F7FF"/>
<path d="M358 58H288V52H358V58Z" fill="#C2F7FF"/>
<path d="M364 58H294V52H364V58Z" fill="#C2F7FF"/>
<path d="M370 58H300V52H370V58Z" fill="#C2F7FF"/>
<path d="M376 58H306V52H376V58Z" fill="#C2F7FF"/>
<path d="M382 58H312V52H382V58Z" fill="#C2F7FF"/>
<path d="M388 58H318V52H388V58Z" fill="#C2F7FF"/>
<path d="M394 58H324V52H394V58Z" fill="#C2F7FF"/>
<path d="M400 58H330V52H400V58Z" fill="#C2F7FF"/>
<path d="M406 58H336V52H406V58Z" fill="#C2F7FF"/>
<path d="M384.001 26H378.001V32H384.001V26Z" fill="#365969"/>
<path d="M378 32H372V38H378V32Z" fill="#365969"/>
<path d="M390.001 32H384.001V38H390.001V32Z" fill="#365969"/>
<path d="M378 20H372V26H378V20Z" fill="#365969"/>
<path d="M390.001 20H384.001V26H390.001V20Z" fill="#365969"/>
<path d="M412 76H406V12H412V76Z" fill="#365969"/>
<path d="M412 82H406V18H412V82Z" fill="#365969"/>
<path d="M412 88H406V24H412V88Z" fill="#365969"/>
<path d="M412 94H406V30H412V94Z" fill="#365969"/>
<path d="M412 100H406V36H412V100Z" fill="#365969"/>
<path d="M412 106H406V42H412V106Z" fill="#365969"/>
<path d="M412 112H406V48H412V112Z" fill="#365969"/>
<path d="M412 118H406V54H412V118Z" fill="#365969"/>
<path d="M412 124H406V60H412V124Z" fill="#365969"/>
<path d="M412 130H406V66H412V130Z" fill="#365969"/>
<path d="M412 136H406V72H412V136Z" fill="#365969"/>
<path d="M412 142H406V78H412V142Z" fill="#365969"/>
<path d="M412 148H406V84H412V148Z" fill="#365969"/>
<path d="M412 154H406V90H412V154Z" fill="#365969"/>
<path d="M412 160H406V96H412V160Z" fill="#365969"/>
<path d="M412 166H406V102H412V166Z" fill="#365969"/>
<path d="M412 172H406V108H412V172Z" fill="#365969"/>
<path d="M412 178H406V114H412V178Z" fill="#365969"/>
<path d="M412 184H406V120H412V184Z" fill="#365969"/>
<path d="M412 190H406V126H412V190Z" fill="#365969"/>
<path d="M412 196H406V132H412V196Z" fill="#365969"/>
<path d="M412 202H406V138H412V202Z" fill="#365969"/>
<path d="M412 206H406V200H412V206Z" fill="#365969"/>
<rect x="0.5" y="12.5" width="5" height="193" stroke="black"/>
<path d="M6 76H0V12H6V76Z" fill="#365969"/>
<path d="M6 82H0V18H6V82Z" fill="#365969"/>
<path d="M6 88H0V24H6V88Z" fill="#365969"/>
<path d="M6 94H0V30H6V94Z" fill="#365969"/>
<path d="M6 100H0V36H6V100Z" fill="#365969"/>
<path d="M6 106H0V42H6V106Z" fill="#365969"/>
<path d="M6 112H0V48H6V112Z" fill="#365969"/>
<path d="M6 118H0V54H6V118Z" fill="#365969"/>
<path d="M6 124H0V60H6V124Z" fill="#365969"/>
<path d="M6 130H0V66H6V130Z" fill="#365969"/>
<path d="M6 136H0V72H6V136Z" fill="#365969"/>
<path d="M6 142H0V78H6V142Z" fill="#365969"/>
<path d="M6 148H0V84H6V148Z" fill="#365969"/>
<path d="M6 154H0V90H6V154Z" fill="#365969"/>
<path d="M6 160H0V96H6V160Z" fill="#365969"/>
<path d="M6 166H0V102H6V166Z" fill="#365969"/>
<path d="M6 172H0V108H6V172Z" fill="#365969"/>
<path d="M6 178H0V114H6V178Z" fill="#365969"/>
<path d="M6 184H0V120H6V184Z" fill="#365969"/>
<path d="M6 190H0V126H6V190Z" fill="#365969"/>
<path d="M6 196H0V132H6V196Z" fill="#365969"/>
<path d="M6 202H0V138H6V202Z" fill="#365969"/>
<path d="M6 206H0V200H6V206Z" fill="#365969"/>
<path d="M30.3571 24.8571H31.75V26.25H30.3571V24.8571ZM28.9643 24.8571H30.3571V26.25H28.9643V24.8571ZM28.9643 23.4643H30.3571V24.8571H28.9643V23.4643ZM30.3571 23.4643H31.75V24.8571H30.3571V23.4643ZM28.9643 22.0714H30.3571V23.4643H28.9643V22.0714ZM27.5714 22.0714H28.9643V23.4643H27.5714V22.0714ZM27.5714 23.4643H28.9643V24.8571H27.5714V23.4643ZM26.1786 23.4643H27.5714V24.8571H26.1786V23.4643ZM24.7857 23.4643H26.1786V24.8571H24.7857V23.4643ZM24.7857 22.0714H26.1786V23.4643H24.7857V22.0714ZM23.3929 22.0714H24.7857V23.4643H23.3929V22.0714ZM26.1786 22.0714H27.5714V23.4643H26.1786V22.0714ZM23.3929 23.4643H24.7857V24.8571H23.3929V23.4643ZM22 23.4643H23.3929V24.8571H22V23.4643ZM22 24.8571H23.3929V26.25H22V24.8571ZM23.3929 24.8571H24.7857V26.25H23.3929V24.8571ZM23.3929 26.25H24.7857V27.6429H23.3929V26.25ZM23.3929 27.6429H24.7857V29.0357H23.3929V27.6429ZM22 27.6429H23.3929V29.0357H22V27.6429ZM22 26.25H23.3929V27.6429H22V26.25ZM23.3929 29.0357H24.7857V30.4286H23.3929V29.0357ZM24.7857 29.0357H26.1786V30.4286H24.7857V29.0357ZM24.7857 27.6429H26.1786V29.0357H24.7857V27.6429ZM26.1786 27.6429H27.5714V29.0357H26.1786V27.6429ZM27.5714 27.6429H28.9643V29.0357H27.5714V27.6429ZM28.9643 27.6429H30.3571V29.0357H28.9643V27.6429ZM28.9643 29.0357H30.3571V30.4286H28.9643V29.0357ZM27.5714 29.0357H28.9643V30.4286H27.5714V29.0357ZM26.1786 29.0357H27.5714V30.4286H26.1786V29.0357ZM30.3571 29.0357H31.75V30.4286H30.3571V29.0357ZM30.3571 30.4286H31.75V31.8214H30.3571V30.4286ZM28.9643 30.4286H30.3571V31.8214H28.9643V30.4286ZM27.5714 33.2143H28.9643V34.6071H27.5714V33.2143ZM28.9643 33.2143H30.3571V34.6071H28.9643V33.2143ZM28.9643 31.8214H30.3571V33.2143H28.9643V31.8214ZM30.3571 31.8214H31.75V33.2143H30.3571V31.8214ZM30.3571 33.2143H31.75V34.6071H30.3571V33.2143ZM28.9643 34.6071H30.3571V36H28.9643V34.6071ZM27.5714 34.6071H28.9643V36H27.5714V34.6071ZM26.1786 34.6071H27.5714V36H26.1786V34.6071ZM24.7857 34.6071H26.1786V36H24.7857V34.6071ZM23.3929 34.6071H24.7857V36H23.3929V34.6071ZM23.3929 33.2143H24.7857V34.6071H23.3929V33.2143ZM24.7857 33.2143H26.1786V34.6071H24.7857V33.2143ZM26.1786 33.2143H27.5714V34.6071H26.1786V33.2143ZM22 33.2143H23.3929V34.6071H22V33.2143ZM22 31.8214H23.3929V33.2143H22V31.8214ZM23.3929 31.8214H24.7857V33.2143H23.3929V31.8214ZM36.1922 24.8571H37.5851V26.25H36.1922V24.8571ZM34.7993 24.8571H36.1922V26.25H34.7993V24.8571ZM34.7993 26.25H36.1922V27.6429H34.7993V26.25ZM36.1922 26.25H37.5851V27.6429H36.1922V26.25ZM37.5851 24.8571H38.9779V26.25H37.5851V24.8571ZM38.9779 24.8571H40.3708V26.25H38.9779V24.8571ZM40.3708 24.8571H41.7636V26.25H40.3708V24.8571ZM40.3708 26.25H41.7636V27.6429H40.3708V26.25ZM38.9779 26.25H40.3708V27.6429H38.9779V26.25ZM41.7636 26.25H43.1565V27.6429H41.7636V26.25ZM41.7636 27.6429H43.1565V29.0357H41.7636V27.6429ZM41.7636 33.2143H43.1565V34.6071H41.7636V33.2143ZM40.3708 33.2143H41.7636V34.6071H40.3708V33.2143ZM40.3708 27.6429H41.7636V29.0357H40.3708V27.6429ZM38.9779 33.2143H40.3708V34.6071H38.9779V33.2143ZM40.3708 34.6071H41.7636V36H40.3708V34.6071ZM38.9779 34.6071H40.3708V36H38.9779V34.6071ZM37.5851 34.6071H38.9779V36H37.5851V34.6071ZM36.1922 34.6071H37.5851V36H36.1922V34.6071ZM34.7993 34.6071H36.1922V36H34.7993V34.6071ZM34.7993 33.2143H36.1922V34.6071H34.7993V33.2143ZM36.1922 33.2143H37.5851V34.6071H36.1922V33.2143ZM34.7993 31.8214H36.1922V33.2143H34.7993V31.8214ZM33.4065 33.2143H34.7993V34.6071H33.4065V33.2143ZM33.4065 31.8214H34.7993V33.2143H33.4065V31.8214ZM33.4065 30.4286H34.7993V31.8214H33.4065V30.4286ZM33.4065 29.0357H34.7993V30.4286H33.4065V29.0357ZM33.4065 27.6429H34.7993V29.0357H33.4065V27.6429ZM33.4065 26.25H34.7993V27.6429H33.4065V26.25ZM34.7993 27.6429H36.1922V29.0357H34.7993V27.6429ZM34.7993 29.0357H36.1922V30.4286H34.7993V29.0357ZM34.7993 30.4286H36.1922V31.8214H34.7993V30.4286ZM37.5851 33.2143H38.9779V34.6071H37.5851V33.2143ZM37.5851 26.25H38.9779V27.6429H37.5851V26.25ZM40.3708 29.0357H41.7636V30.4286H40.3708V29.0357ZM41.7636 29.0357H43.1565V30.4286H41.7636V29.0357ZM36.1922 30.4286H37.5851V31.8214H36.1922V30.4286ZM37.5851 30.4286H38.9779V31.8214H37.5851V30.4286ZM38.9779 30.4286H40.3708V31.8214H38.9779V30.4286ZM40.3708 30.4286H41.7636V31.8214H40.3708V30.4286ZM41.7636 30.4286H43.1565V31.8214H41.7636V30.4286ZM38.9779 29.0357H40.3708V30.4286H38.9779V29.0357ZM37.5851 29.0357H38.9779V30.4286H37.5851V29.0357ZM36.1922 29.0357H37.5851V30.4286H36.1922V29.0357ZM50.3844 33.2143H51.7773V34.6071H50.3844V33.2143ZM50.3844 34.6071H51.7773V36H50.3844V34.6071ZM48.9915 34.6071H50.3844V36H48.9915V34.6071ZM48.9915 33.2143H50.3844V34.6071H48.9915V33.2143ZM47.5987 34.6071H48.9915V36H47.5987V34.6071ZM47.5987 33.2143H48.9915V34.6071H47.5987V33.2143ZM46.2058 33.2143H47.5987V34.6071H46.2058V33.2143ZM46.2058 31.8214H47.5987V33.2143H46.2058V31.8214ZM46.2058 30.4286H47.5987V31.8214H46.2058V30.4286ZM46.2058 29.0357H47.5987V30.4286H46.2058V29.0357ZM46.2058 27.6429H47.5987V29.0357H46.2058V27.6429ZM46.2058 26.25H47.5987V27.6429H46.2058V26.25ZM47.5987 30.4286H48.9915V31.8214H47.5987V30.4286ZM47.5987 31.8214H48.9915V33.2143H47.5987V31.8214ZM47.5987 29.0357H48.9915V30.4286H47.5987V29.0357ZM47.5987 27.6429H48.9915V29.0357H47.5987V27.6429ZM47.5987 22.0714H48.9915V23.4643H47.5987V22.0714ZM47.5987 23.4643H48.9915V24.8571H47.5987V23.4643ZM47.5987 24.8571H48.9915V26.25H47.5987V24.8571ZM47.5987 26.25H48.9915V27.6429H47.5987V26.25ZM46.2058 24.8571H47.5987V26.25H46.2058V24.8571ZM44.813 26.25H46.2058V27.6429H44.813V26.25ZM48.9915 26.25H50.3844V27.6429H48.9915V26.25ZM50.3844 26.25H51.7773V27.6429H50.3844V26.25ZM46.2058 23.4643H47.5987V24.8571H46.2058V23.4643ZM44.813 27.6429H46.2058V29.0357H44.813V27.6429ZM48.9915 27.6429H50.3844V29.0357H48.9915V27.6429ZM50.3844 27.6429H51.7773V29.0357H50.3844V27.6429ZM63.1765 34.6071H61.7836V33.2143H63.1765V34.6071ZM63.1765 36H61.7836V34.6071H63.1765V36ZM61.7836 36H60.3908V34.6071H61.7836V36ZM61.7836 34.6071H60.3908V33.2143H61.7836V34.6071ZM61.7836 33.2143H60.3908V31.8214H61.7836V33.2143ZM61.7836 31.8214H60.3908V30.4286H61.7836V31.8214ZM61.7836 30.4286H60.3908V29.0357H61.7836V30.4286ZM63.1765 30.4286H61.7836V29.0357H63.1765V30.4286ZM63.1765 31.8214H61.7836V30.4286H63.1765V31.8214ZM63.1765 33.2143H61.7836V31.8214H63.1765V33.2143ZM63.1765 29.0357H61.7836V27.6429H63.1765V29.0357ZM61.7836 29.0357H60.3908V27.6429H61.7836V29.0357ZM61.7836 27.6429H60.3908V26.25H61.7836V27.6429ZM61.7836 26.25H60.3908V24.8571H61.7836V26.25ZM63.1765 26.25H61.7836V24.8571H63.1765V26.25ZM63.1765 27.6429H61.7836V26.25H63.1765V27.6429ZM56.2122 26.25H54.8193V24.8571H56.2122V26.25ZM54.8193 26.25H53.4265V24.8571H54.8193V26.25ZM54.8193 27.6429H53.4265V26.25H54.8193V27.6429ZM54.8193 29.0357H53.4265V27.6429H54.8193V29.0357ZM54.8193 30.4286H53.4265V29.0357H54.8193V30.4286ZM54.8193 31.8214H53.4265V30.4286H54.8193V31.8214ZM54.8193 33.2143H53.4265V31.8214H54.8193V33.2143ZM54.8193 34.6071H53.4265V33.2143H54.8193V34.6071ZM56.2122 31.8214H54.8193V30.4286H56.2122V31.8214ZM56.2122 30.4286H54.8193V29.0357H56.2122V30.4286ZM56.2122 29.0357H54.8193V27.6429H56.2122V29.0357ZM56.2122 27.6429H54.8193V26.25H56.2122V27.6429ZM56.2122 33.2143H54.8193V31.8214H56.2122V33.2143ZM60.3908 34.6071H58.9979V33.2143H60.3908V34.6071ZM58.9979 34.6071H57.6051V33.2143H58.9979V34.6071ZM57.6051 34.6071H56.2122V33.2143H57.6051V34.6071ZM57.6051 36H56.2122V34.6071H57.6051V36ZM56.2122 36H54.8193V34.6071H56.2122V36ZM56.2122 34.6071H54.8193V33.2143H56.2122V34.6071ZM58.9979 36H57.6051V34.6071H58.9979V36ZM64.833 26.25H66.2258V27.6429H64.833V26.25ZM64.833 24.8571H66.2258V26.25H64.833V24.8571ZM66.2258 24.8571H67.6187V26.25H66.2258V24.8571ZM66.2258 26.25H67.6187V27.6429H66.2258V26.25ZM66.2258 27.6429H67.6187V29.0357H66.2258V27.6429ZM66.2258 29.0357H67.6187V30.4286H66.2258V29.0357ZM66.2258 30.4286H67.6187V31.8214H66.2258V30.4286ZM64.833 30.4286H66.2258V31.8214H64.833V30.4286ZM64.833 29.0357H66.2258V30.4286H64.833V29.0357ZM64.833 27.6429H66.2258V29.0357H64.833V27.6429ZM64.833 31.8214H66.2258V33.2143H64.833V31.8214ZM66.2258 31.8214H67.6187V33.2143H66.2258V31.8214ZM66.2258 33.2143H67.6187V34.6071H66.2258V33.2143ZM66.2258 34.6071H67.6187V36H66.2258V34.6071ZM64.833 34.6071H66.2258V36H64.833V34.6071ZM64.833 33.2143H66.2258V34.6071H64.833V33.2143ZM71.7973 34.6071H73.1901V36H71.7973V34.6071ZM73.1901 33.2143H74.583V34.6071H73.1901V33.2143ZM73.1901 31.8214H74.583V33.2143H73.1901V31.8214ZM73.1901 30.4286H74.583V31.8214H73.1901V30.4286ZM73.1901 29.0357H74.583V30.4286H73.1901V29.0357ZM73.1901 27.6429H74.583V29.0357H73.1901V27.6429ZM73.1901 26.25H74.583V27.6429H73.1901V26.25ZM71.7973 29.0357H73.1901V30.4286H71.7973V29.0357ZM71.7973 30.4286H73.1901V31.8214H71.7973V30.4286ZM71.7973 31.8214H73.1901V33.2143H71.7973V31.8214ZM71.7973 33.2143H73.1901V34.6071H71.7973V33.2143ZM71.7973 27.6429H73.1901V29.0357H71.7973V27.6429ZM67.6187 26.25H69.0115V27.6429H67.6187V26.25ZM69.0115 26.25H70.4044V27.6429H69.0115V26.25ZM70.4044 26.25H71.7973V27.6429H70.4044V26.25ZM70.4044 24.8571H71.7973V26.25H70.4044V24.8571ZM71.7973 24.8571H73.1901V26.25H71.7973V24.8571ZM71.7973 26.25H73.1901V27.6429H71.7973V26.25ZM69.0115 24.8571H70.4044V26.25H69.0115V24.8571ZM67.6187 34.6071H69.0115V36H67.6187V34.6071ZM69.0115 34.6071H70.4044V36H69.0115V34.6071ZM70.4044 34.6071H71.7973V36H70.4044V34.6071ZM70.4044 33.2143H71.7973V34.6071H70.4044V33.2143ZM69.0115 33.2143H70.4044V34.6071H69.0115V33.2143ZM67.6187 33.2143H69.0115V34.6071H67.6187V33.2143ZM64.833 36H66.2258V37.3929H64.833V36ZM66.2258 36H67.6187V37.3929H66.2258V36ZM66.2258 37.3929H67.6187V38.7857H66.2258V37.3929ZM64.833 37.3929H66.2258V38.7857H64.833V37.3929ZM82.06 26.25H83.4529V27.6429H82.06V26.25ZM82.06 24.8571H83.4529V26.25H82.06V24.8571ZM83.4529 24.8571H84.8457V26.25H83.4529V24.8571ZM83.4529 26.25H84.8457V27.6429H83.4529V26.25ZM83.4529 27.6429H84.8457V29.0357H83.4529V27.6429ZM83.4529 29.0357H84.8457V30.4286H83.4529V29.0357ZM83.4529 30.4286H84.8457V31.8214H83.4529V30.4286ZM82.06 30.4286H83.4529V31.8214H82.06V30.4286ZM82.06 29.0357H83.4529V30.4286H82.06V29.0357ZM82.06 27.6429H83.4529V29.0357H82.06V27.6429ZM82.06 31.8214H83.4529V33.2143H82.06V31.8214ZM83.4529 31.8214H84.8457V33.2143H83.4529V31.8214ZM83.4529 33.2143H84.8457V34.6071H83.4529V33.2143ZM83.4529 34.6071H84.8457V36H83.4529V34.6071ZM82.06 34.6071H83.4529V36H82.06V34.6071ZM82.06 33.2143H83.4529V34.6071H82.06V33.2143ZM84.8457 26.25H86.2386V27.6429H84.8457V26.25ZM86.2386 26.25H87.6314V27.6429H86.2386V26.25ZM87.6314 26.25H89.0243V27.6429H87.6314V26.25ZM87.6314 24.8571H89.0243V26.25H87.6314V24.8571ZM86.2386 24.8571H87.6314V26.25H86.2386V24.8571ZM84.8457 27.6429H86.2386V29.0357H84.8457V27.6429ZM89.0243 26.25H90.4171V27.6429H89.0243V26.25ZM87.6314 27.6429H89.0243V29.0357H87.6314V27.6429ZM94.8557 24.8571H96.2486V26.25H94.8557V24.8571ZM93.4629 24.8571H94.8557V26.25H93.4629V24.8571ZM93.4629 26.25H94.8557V27.6429H93.4629V26.25ZM94.8557 26.25H96.2486V27.6429H94.8557V26.25ZM96.2486 24.8571H97.6414V26.25H96.2486V24.8571ZM97.6414 24.8571H99.0343V26.25H97.6414V24.8571ZM99.0343 24.8571H100.427V26.25H99.0343V24.8571ZM99.0343 26.25H100.427V27.6429H99.0343V26.25ZM97.6414 26.25H99.0343V27.6429H97.6414V26.25ZM100.427 26.25H101.82V27.6429H100.427V26.25ZM100.427 27.6429H101.82V29.0357H100.427V27.6429ZM100.427 33.2143H101.82V34.6071H100.427V33.2143ZM99.0343 33.2143H100.427V34.6071H99.0343V33.2143ZM99.0343 27.6429H100.427V29.0357H99.0343V27.6429ZM97.6414 33.2143H99.0343V34.6071H97.6414V33.2143ZM99.0343 34.6071H100.427V36H99.0343V34.6071ZM97.6414 34.6071H99.0343V36H97.6414V34.6071ZM96.2486 34.6071H97.6414V36H96.2486V34.6071ZM94.8557 34.6071H96.2486V36H94.8557V34.6071ZM93.4629 34.6071H94.8557V36H93.4629V34.6071ZM93.4629 33.2143H94.8557V34.6071H93.4629V33.2143ZM94.8557 33.2143H96.2486V34.6071H94.8557V33.2143ZM93.4629 31.8214H94.8557V33.2143H93.4629V31.8214ZM92.07 33.2143H93.4629V34.6071H92.07V33.2143ZM92.07 31.8214H93.4629V33.2143H92.07V31.8214ZM92.07 30.4286H93.4629V31.8214H92.07V30.4286ZM92.07 29.0357H93.4629V30.4286H92.07V29.0357ZM92.07 27.6429H93.4629V29.0357H92.07V27.6429ZM92.07 26.25H93.4629V27.6429H92.07V26.25ZM93.4629 27.6429H94.8557V29.0357H93.4629V27.6429ZM93.4629 29.0357H94.8557V30.4286H93.4629V29.0357ZM93.4629 30.4286H94.8557V31.8214H93.4629V30.4286ZM96.2486 33.2143H97.6414V34.6071H96.2486V33.2143ZM96.2486 26.25H97.6414V27.6429H96.2486V26.25ZM99.0343 29.0357H100.427V30.4286H99.0343V29.0357ZM100.427 29.0357H101.82V30.4286H100.427V29.0357ZM94.8557 30.4286H96.2486V31.8214H94.8557V30.4286ZM96.2486 30.4286H97.6414V31.8214H96.2486V30.4286ZM97.6414 30.4286H99.0343V31.8214H97.6414V30.4286ZM99.0343 30.4286H100.427V31.8214H99.0343V30.4286ZM100.427 30.4286H101.82V31.8214H100.427V30.4286ZM97.6414 29.0357H99.0343V30.4286H97.6414V29.0357ZM96.2486 29.0357H97.6414V30.4286H96.2486V29.0357ZM94.8557 29.0357H96.2486V30.4286H94.8557V29.0357ZM103.476 26.25H104.869V27.6429H103.476V26.25ZM104.869 27.6429H106.262V29.0357H104.869V27.6429ZM103.476 27.6429H104.869V29.0357H103.476V27.6429ZM103.476 29.0357H104.869V30.4286H103.476V29.0357ZM104.869 29.0357H106.262V30.4286H104.869V29.0357ZM104.869 30.4286H106.262V31.8214H104.869V30.4286ZM106.262 30.4286H107.655V31.8214H106.262V30.4286ZM107.655 30.4286H109.048V31.8214H107.655V30.4286ZM109.048 29.0357H110.441V30.4286H109.048V29.0357ZM107.655 29.0357H109.048V30.4286H107.655V29.0357ZM106.262 29.0357H107.655V30.4286H106.262V29.0357ZM109.048 30.4286H110.441V31.8214H109.048V30.4286ZM110.441 30.4286H111.834V31.8214H110.441V30.4286ZM110.441 31.8214H111.834V33.2143H110.441V31.8214ZM109.048 31.8214H110.441V33.2143H109.048V31.8214ZM109.048 33.2143H110.441V34.6071H109.048V33.2143ZM110.441 33.2143H111.834V34.6071H110.441V33.2143ZM109.048 34.6071H110.441V36H109.048V34.6071ZM107.655 33.2143H109.048V34.6071H107.655V33.2143ZM106.262 33.2143H107.655V34.6071H106.262V33.2143ZM104.869 33.2143H106.262V34.6071H104.869V33.2143ZM103.476 33.2143H104.869V34.6071H103.476V33.2143ZM104.869 34.6071H106.262V36H104.869V34.6071ZM106.262 34.6071H107.655V36H106.262V34.6071ZM107.655 34.6071H109.048V36H107.655V34.6071ZM110.441 26.25H111.834V27.6429H110.441V26.25ZM109.048 26.25H110.441V27.6429H109.048V26.25ZM109.048 24.8571H110.441V26.25H109.048V24.8571ZM107.655 24.8571H109.048V26.25H107.655V24.8571ZM106.262 24.8571H107.655V26.25H106.262V24.8571ZM104.869 24.8571H106.262V26.25H104.869V24.8571ZM104.869 26.25H106.262V27.6429H104.869V26.25ZM106.262 26.25H107.655V27.6429H106.262V26.25ZM107.655 26.25H109.048V27.6429H107.655V26.25ZM123.236 34.6071H121.844V33.2143H123.236V34.6071ZM123.236 36H121.844V34.6071H123.236V36ZM121.844 36H120.451V34.6071H121.844V36ZM121.844 34.6071H120.451V33.2143H121.844V34.6071ZM121.844 33.2143H120.451V31.8214H121.844V33.2143ZM121.844 31.8214H120.451V30.4286H121.844V31.8214ZM121.844 30.4286H120.451V29.0357H121.844V30.4286ZM123.236 30.4286H121.844V29.0357H123.236V30.4286ZM123.236 31.8214H121.844V30.4286H123.236V31.8214ZM123.236 33.2143H121.844V31.8214H123.236V33.2143ZM123.236 29.0357H121.844V27.6429H123.236V29.0357ZM121.844 29.0357H120.451V27.6429H121.844V29.0357ZM121.844 27.6429H120.451V26.25H121.844V27.6429ZM121.844 26.25H120.451V24.8571H121.844V26.25ZM123.236 26.25H121.844V24.8571H123.236V26.25ZM123.236 27.6429H121.844V26.25H123.236V27.6429ZM116.272 26.25H114.879V24.8571H116.272V26.25ZM114.879 26.25H113.486V24.8571H114.879V26.25ZM114.879 27.6429H113.486V26.25H114.879V27.6429ZM114.879 29.0357H113.486V27.6429H114.879V29.0357ZM114.879 30.4286H113.486V29.0357H114.879V30.4286ZM114.879 31.8214H113.486V30.4286H114.879V31.8214ZM114.879 33.2143H113.486V31.8214H114.879V33.2143ZM114.879 34.6071H113.486V33.2143H114.879V34.6071ZM116.272 31.8214H114.879V30.4286H116.272V31.8214ZM116.272 30.4286H114.879V29.0357H116.272V30.4286ZM116.272 29.0357H114.879V27.6429H116.272V29.0357ZM116.272 27.6429H114.879V26.25H116.272V27.6429ZM116.272 33.2143H114.879V31.8214H116.272V33.2143ZM120.451 34.6071H119.058V33.2143H120.451V34.6071ZM119.058 34.6071H117.665V33.2143H119.058V34.6071ZM117.665 34.6071H116.272V33.2143H117.665V34.6071ZM117.665 36H116.272V34.6071H117.665V36ZM116.272 36H114.879V34.6071H116.272V36ZM116.272 34.6071H114.879V33.2143H116.272V34.6071ZM119.058 36H117.665V34.6071H119.058V36ZM124.893 22.0714H126.286V23.4643H124.893V22.0714ZM126.286 22.0714H127.679V23.4643H126.286V22.0714ZM126.286 23.4643H127.679V24.8571H126.286V23.4643ZM126.286 24.8571H127.679V26.25H126.286V24.8571ZM126.286 26.25H127.679V27.6429H126.286V26.25ZM126.286 27.6429H127.679V29.0357H126.286V27.6429ZM126.286 29.0357H127.679V30.4286H126.286V29.0357ZM124.893 29.0357H126.286V30.4286H124.893V29.0357ZM124.893 30.4286H126.286V31.8214H124.893V30.4286ZM124.893 31.8214H126.286V33.2143H124.893V31.8214ZM124.893 33.2143H126.286V34.6071H124.893V33.2143ZM124.893 34.6071H126.286V36H124.893V34.6071ZM126.286 34.6071H127.679V36H126.286V34.6071ZM126.286 33.2143H127.679V34.6071H126.286V33.2143ZM126.286 31.8214H127.679V33.2143H126.286V31.8214ZM126.286 30.4286H127.679V31.8214H126.286V30.4286ZM124.893 27.6429H126.286V29.0357H124.893V27.6429ZM124.893 26.25H126.286V27.6429H124.893V26.25ZM124.893 24.8571H126.286V26.25H124.893V24.8571ZM124.893 23.4643H126.286V24.8571H124.893V23.4643ZM134.914 33.2143H136.307V34.6071H134.914V33.2143ZM134.914 34.6071H136.307V36H134.914V34.6071ZM133.521 34.6071H134.914V36H133.521V34.6071ZM133.521 33.2143H134.914V34.6071H133.521V33.2143ZM132.128 34.6071H133.521V36H132.128V34.6071ZM132.128 33.2143H133.521V34.6071H132.128V33.2143ZM130.735 33.2143H132.128V34.6071H130.735V33.2143ZM130.735 31.8214H132.128V33.2143H130.735V31.8214ZM130.735 30.4286H132.128V31.8214H130.735V30.4286ZM130.735 29.0357H132.128V30.4286H130.735V29.0357ZM130.735 27.6429H132.128V29.0357H130.735V27.6429ZM130.735 26.25H132.128V27.6429H130.735V26.25ZM132.128 30.4286H133.521V31.8214H132.128V30.4286ZM132.128 31.8214H133.521V33.2143H132.128V31.8214ZM132.128 29.0357H133.521V30.4286H132.128V29.0357ZM132.128 27.6429H133.521V29.0357H132.128V27.6429ZM132.128 22.0714H133.521V23.4643H132.128V22.0714ZM132.128 23.4643H133.521V24.8571H132.128V23.4643ZM132.128 24.8571H133.521V26.25H132.128V24.8571ZM132.128 26.25H133.521V27.6429H132.128V26.25ZM130.735 24.8571H132.128V26.25H130.735V24.8571ZM129.342 26.25H130.735V27.6429H129.342V26.25ZM133.521 26.25H134.914V27.6429H133.521V26.25ZM134.914 26.25H136.307V27.6429H134.914V26.25ZM130.735 23.4643H132.128V24.8571H130.735V23.4643ZM129.342 27.6429H130.735V29.0357H129.342V27.6429ZM133.521 27.6429H134.914V29.0357H133.521V27.6429ZM134.914 27.6429H136.307V29.0357H134.914V27.6429ZM149.348 22.0714H150.741V23.4643H149.348V22.0714ZM149.348 23.4643H150.741V24.8571H149.348V23.4643ZM147.955 23.4643H149.348V24.8571H147.955V23.4643ZM147.955 22.0714H149.348V23.4643H147.955V22.0714ZM146.562 22.0714H147.955V23.4643H146.562V22.0714ZM146.562 23.4643H147.955V24.8571H146.562V23.4643ZM146.562 24.8571H147.955V26.25H146.562V24.8571ZM145.169 23.4643H146.562V24.8571H145.169V23.4643ZM145.169 24.8571H146.562V26.25H145.169V24.8571ZM145.169 26.25H146.562V27.6429H145.169V26.25ZM145.169 27.6429H146.562V29.0357H145.169V27.6429ZM146.562 27.6429H147.955V29.0357H146.562V27.6429ZM146.562 26.25H147.955V27.6429H146.562V26.25ZM145.169 34.6071H146.562V36H145.169V34.6071ZM145.169 33.2143H146.562V34.6071H145.169V33.2143ZM145.169 31.8214H146.562V33.2143H145.169V31.8214ZM145.169 30.4286H146.562V31.8214H145.169V30.4286ZM145.169 29.0357H146.562V30.4286H145.169V29.0357ZM146.562 29.0357H147.955V30.4286H146.562V29.0357ZM146.562 30.4286H147.955V31.8214H146.562V30.4286ZM146.562 31.8214H147.955V33.2143H146.562V31.8214ZM146.562 33.2143H147.955V34.6071H146.562V33.2143ZM146.562 34.6071H147.955V36H146.562V34.6071ZM143.776 26.25H145.169V27.6429H143.776V26.25ZM147.955 26.25H149.348V27.6429H147.955V26.25ZM149.348 26.25H150.741V27.6429H149.348V26.25ZM143.776 27.6429H145.169V29.0357H143.776V27.6429ZM147.955 27.6429H149.348V29.0357H147.955V27.6429ZM149.348 27.6429H150.741V29.0357H149.348V27.6429ZM152.39 22.0714H155.176V24.8571H152.39V22.0714ZM152.39 26.25H155.176V36H152.39V26.25ZM156.839 22.0714H158.232V23.4643H156.839V22.0714ZM158.232 22.0714H159.625V23.4643H158.232V22.0714ZM158.232 23.4643H159.625V24.8571H158.232V23.4643ZM158.232 24.8571H159.625V26.25H158.232V24.8571ZM158.232 26.25H159.625V27.6429H158.232V26.25ZM158.232 27.6429H159.625V29.0357H158.232V27.6429ZM158.232 29.0357H159.625V30.4286H158.232V29.0357ZM156.839 29.0357H158.232V30.4286H156.839V29.0357ZM156.839 30.4286H158.232V31.8214H156.839V30.4286ZM156.839 31.8214H158.232V33.2143H156.839V31.8214ZM156.839 33.2143H158.232V34.6071H156.839V33.2143ZM156.839 34.6071H158.232V36H156.839V34.6071ZM158.232 34.6071H159.625V36H158.232V34.6071ZM158.232 33.2143H159.625V34.6071H158.232V33.2143ZM158.232 31.8214H159.625V33.2143H158.232V31.8214ZM158.232 30.4286H159.625V31.8214H158.232V30.4286ZM156.839 27.6429H158.232V29.0357H156.839V27.6429ZM156.839 26.25H158.232V27.6429H156.839V26.25ZM156.839 24.8571H158.232V26.25H156.839V24.8571ZM156.839 23.4643H158.232V24.8571H156.839V23.4643ZM164.075 24.8571H165.467V26.25H164.075V24.8571ZM162.682 24.8571H164.075V26.25H162.682V24.8571ZM162.682 26.25H164.075V27.6429H162.682V26.25ZM164.075 26.25H165.467V27.6429H164.075V26.25ZM165.467 24.8571H166.86V26.25H165.467V24.8571ZM166.86 24.8571H168.253V26.25H166.86V24.8571ZM168.253 24.8571H169.646V26.25H168.253V24.8571ZM168.253 26.25H169.646V27.6429H168.253V26.25ZM166.86 26.25H168.253V27.6429H166.86V26.25ZM169.646 26.25H171.039V27.6429H169.646V26.25ZM169.646 27.6429H171.039V29.0357H169.646V27.6429ZM169.646 33.2143H171.039V34.6071H169.646V33.2143ZM168.253 33.2143H169.646V34.6071H168.253V33.2143ZM168.253 27.6429H169.646V29.0357H168.253V27.6429ZM166.86 33.2143H168.253V34.6071H166.86V33.2143ZM168.253 34.6071H169.646V36H168.253V34.6071ZM166.86 34.6071H168.253V36H166.86V34.6071ZM165.467 34.6071H166.86V36H165.467V34.6071ZM164.075 34.6071H165.467V36H164.075V34.6071ZM162.682 34.6071H164.075V36H162.682V34.6071ZM162.682 33.2143H164.075V34.6071H162.682V33.2143ZM164.075 33.2143H165.467V34.6071H164.075V33.2143ZM162.682 31.8214H164.075V33.2143H162.682V31.8214ZM161.289 33.2143H162.682V34.6071H161.289V33.2143ZM161.289 31.8214H162.682V33.2143H161.289V31.8214ZM161.289 30.4286H162.682V31.8214H161.289V30.4286ZM161.289 29.0357H162.682V30.4286H161.289V29.0357ZM161.289 27.6429H162.682V29.0357H161.289V27.6429ZM161.289 26.25H162.682V27.6429H161.289V26.25ZM162.682 27.6429H164.075V29.0357H162.682V27.6429ZM162.682 29.0357H164.075V30.4286H162.682V29.0357ZM162.682 30.4286H164.075V31.8214H162.682V30.4286ZM165.467 33.2143H166.86V34.6071H165.467V33.2143ZM165.467 26.25H166.86V27.6429H165.467V26.25ZM168.253 29.0357H169.646V30.4286H168.253V29.0357ZM169.646 29.0357H171.039V30.4286H169.646V29.0357ZM164.075 30.4286H165.467V31.8214H164.075V30.4286ZM165.467 30.4286H166.86V31.8214H165.467V30.4286ZM166.86 30.4286H168.253V31.8214H166.86V30.4286ZM168.253 30.4286H169.646V31.8214H168.253V30.4286ZM169.646 30.4286H171.039V31.8214H169.646V30.4286ZM166.86 29.0357H168.253V30.4286H166.86V29.0357ZM165.467 29.0357H166.86V30.4286H165.467V29.0357ZM164.075 29.0357H165.467V30.4286H164.075V29.0357ZM172.695 26.25H174.088V27.6429H172.695V26.25ZM174.088 27.6429H175.481V29.0357H174.088V27.6429ZM172.695 27.6429H174.088V29.0357H172.695V27.6429ZM172.695 29.0357H174.088V30.4286H172.695V29.0357ZM174.088 29.0357H175.481V30.4286H174.088V29.0357ZM174.088 30.4286H175.481V31.8214H174.088V30.4286ZM175.481 30.4286H176.874V31.8214H175.481V30.4286ZM176.874 30.4286H178.267V31.8214H176.874V30.4286ZM178.267 29.0357H179.66V30.4286H178.267V29.0357ZM176.874 29.0357H178.267V30.4286H176.874V29.0357ZM175.481 29.0357H176.874V30.4286H175.481V29.0357ZM178.267 30.4286H179.66V31.8214H178.267V30.4286ZM179.66 30.4286H181.053V31.8214H179.66V30.4286ZM179.66 31.8214H181.053V33.2143H179.66V31.8214ZM178.267 31.8214H179.66V33.2143H178.267V31.8214ZM178.267 33.2143H179.66V34.6071H178.267V33.2143ZM179.66 33.2143H181.053V34.6071H179.66V33.2143ZM178.267 34.6071H179.66V36H178.267V34.6071ZM176.874 33.2143H178.267V34.6071H176.874V33.2143ZM175.481 33.2143H176.874V34.6071H175.481V33.2143ZM174.088 33.2143H175.481V34.6071H174.088V33.2143ZM172.695 33.2143H174.088V34.6071H172.695V33.2143ZM174.088 34.6071H175.481V36H174.088V34.6071ZM175.481 34.6071H176.874V36H175.481V34.6071ZM176.874 34.6071H178.267V36H176.874V34.6071ZM179.66 26.25H181.053V27.6429H179.66V26.25ZM178.267 26.25H179.66V27.6429H178.267V26.25ZM178.267 24.8571H179.66V26.25H178.267V24.8571ZM176.874 24.8571H178.267V26.25H176.874V24.8571ZM175.481 24.8571H176.874V26.25H175.481V24.8571ZM174.088 24.8571H175.481V26.25H174.088V24.8571ZM174.088 26.25H175.481V27.6429H174.088V26.25ZM175.481 26.25H176.874V27.6429H175.481V26.25ZM176.874 26.25H178.267V27.6429H176.874V26.25Z" fill="#1E1E1E"/>
<path d="M73.3106 92V80.832H80.3506V82H74.6546V85.76H79.8706V86.928H74.6546V92H73.3106ZM86.4564 81.92C86.083 81.92 85.8217 81.8453 85.6724 81.696C85.523 81.536 85.4484 81.3387 85.4484 81.104V80.848C85.4484 80.6133 85.523 80.4213 85.6724 80.272C85.8217 80.112 86.083 80.032 86.4564 80.032C86.8297 80.032 87.091 80.112 87.2404 80.272C87.3897 80.4213 87.4644 80.6133 87.4644 80.848V81.104C87.4644 81.3387 87.3897 81.536 87.2404 81.696C87.091 81.8453 86.8297 81.92 86.4564 81.92ZM82.8404 90.912H85.8164V84.832H82.8404V83.744H87.0964V90.912H89.8804V92H82.8404V90.912ZM91.6981 90.912H94.5781V81.248H91.6981V80.16H95.8581V90.912H98.7381V92H91.6981V90.912ZM104.636 92.192C104.039 92.192 103.5 92.0907 103.02 91.888C102.551 91.6853 102.145 91.3973 101.804 91.024C101.473 90.64 101.217 90.1867 101.036 89.664C100.855 89.1307 100.764 88.5387 100.764 87.888C100.764 87.2267 100.855 86.6293 101.036 86.096C101.228 85.5627 101.489 85.1093 101.82 84.736C102.151 84.352 102.545 84.0587 103.004 83.856C103.473 83.6533 103.991 83.552 104.556 83.552C105.111 83.552 105.612 83.6533 106.06 83.856C106.519 84.0587 106.908 84.3413 107.228 84.704C107.548 85.056 107.793 85.4773 107.964 85.968C108.135 86.4587 108.22 86.9973 108.22 87.584V88.192H102.108V88.576C102.108 88.9387 102.167 89.2747 102.284 89.584C102.401 89.8933 102.567 90.16 102.78 90.384C103.004 90.608 103.271 90.784 103.58 90.912C103.9 91.0293 104.252 91.088 104.636 91.088C105.191 91.088 105.671 90.96 106.076 90.704C106.481 90.448 106.791 90.096 107.004 89.648L107.948 90.288C107.703 90.8427 107.292 91.3013 106.716 91.664C106.151 92.016 105.457 92.192 104.636 92.192ZM104.556 84.608C104.204 84.608 103.879 84.672 103.58 84.8C103.281 84.928 103.02 85.104 102.796 85.328C102.583 85.552 102.412 85.8187 102.284 86.128C102.167 86.4267 102.108 86.7573 102.108 87.12V87.232H106.844V87.056C106.844 86.6933 106.785 86.3627 106.668 86.064C106.561 85.7653 106.407 85.5093 106.204 85.296C106.012 85.072 105.772 84.9013 105.484 84.784C105.207 84.6667 104.897 84.608 104.556 84.608ZM113.862 92.192C112.998 92.192 112.251 92.048 111.622 91.76C111.003 91.4613 110.475 91.0667 110.038 90.576L110.902 89.824C111.296 90.24 111.728 90.56 112.198 90.784C112.667 91.008 113.232 91.12 113.894 91.12C114.534 91.12 115.056 91.008 115.462 90.784C115.878 90.5493 116.086 90.1867 116.086 89.696C116.086 89.4827 116.043 89.3067 115.958 89.168C115.883 89.0187 115.776 88.9013 115.638 88.816C115.499 88.7307 115.344 88.6667 115.174 88.624C115.003 88.5707 114.822 88.528 114.63 88.496L113.334 88.304C113.046 88.2613 112.731 88.2027 112.39 88.128C112.059 88.0533 111.755 87.936 111.478 87.776C111.2 87.6053 110.966 87.3813 110.774 87.104C110.592 86.8267 110.502 86.464 110.502 86.016C110.502 85.6 110.582 85.2427 110.742 84.944C110.912 84.6347 111.147 84.3787 111.446 84.176C111.744 83.9627 112.096 83.808 112.502 83.712C112.907 83.6053 113.35 83.552 113.83 83.552C114.576 83.552 115.222 83.6693 115.766 83.904C116.32 84.1387 116.795 84.464 117.19 84.88L116.358 85.664C116.262 85.5467 116.139 85.4293 115.99 85.312C115.851 85.184 115.675 85.072 115.462 84.976C115.259 84.8693 115.019 84.784 114.742 84.72C114.464 84.656 114.144 84.624 113.782 84.624C113.131 84.624 112.63 84.736 112.278 84.96C111.936 85.184 111.766 85.5093 111.766 85.936C111.766 86.1493 111.803 86.3307 111.878 86.48C111.963 86.6187 112.075 86.7307 112.214 86.816C112.352 86.9013 112.507 86.9707 112.678 87.024C112.859 87.0667 113.04 87.104 113.222 87.136L114.518 87.328C114.816 87.3707 115.131 87.4293 115.462 87.504C115.792 87.5787 116.096 87.7013 116.374 87.872C116.651 88.032 116.88 88.2507 117.062 88.528C117.254 88.8053 117.35 89.168 117.35 89.616C117.35 90.4373 117.03 91.072 116.39 91.52C115.76 91.968 114.918 92.192 113.862 92.192ZM136.489 92.944C136.489 93.776 136.142 94.3893 135.449 94.784C134.756 95.1893 133.716 95.392 132.329 95.392C130.996 95.392 130.036 95.216 129.449 94.864C128.873 94.512 128.585 94.0053 128.585 93.344C128.585 92.896 128.702 92.5493 128.937 92.304C129.172 92.0587 129.502 91.8773 129.929 91.76V91.568C129.694 91.4507 129.513 91.3013 129.385 91.12C129.257 90.9387 129.193 90.7093 129.193 90.432C129.193 90.0053 129.332 89.6853 129.609 89.472C129.897 89.2587 130.254 89.0987 130.681 88.992V88.928C130.169 88.704 129.769 88.3733 129.481 87.936C129.204 87.4987 129.065 86.9867 129.065 86.4C129.065 85.984 129.14 85.6 129.289 85.248C129.438 84.896 129.652 84.5973 129.929 84.352C130.217 84.096 130.558 83.8987 130.953 83.76C131.348 83.6213 131.785 83.552 132.265 83.552C132.884 83.552 133.428 83.664 133.897 83.888V83.744C133.897 83.424 133.972 83.1573 134.121 82.944C134.27 82.7307 134.526 82.624 134.889 82.624H136.409V83.744H134.553V84.304C134.852 84.56 135.081 84.864 135.241 85.216C135.401 85.568 135.481 85.9627 135.481 86.4C135.481 86.816 135.401 87.2 135.241 87.552C135.092 87.904 134.878 88.208 134.601 88.464C134.324 88.7093 133.982 88.9013 133.577 89.04C133.182 89.1787 132.745 89.248 132.265 89.248C132.126 89.248 131.993 89.2427 131.865 89.232C131.737 89.2213 131.609 89.2053 131.481 89.184C131.353 89.2053 131.22 89.2427 131.081 89.296C130.942 89.3387 130.814 89.4027 130.697 89.488C130.58 89.5627 130.484 89.6533 130.409 89.76C130.334 89.8667 130.297 89.9893 130.297 90.128C130.297 90.3733 130.42 90.5387 130.665 90.624C130.91 90.6987 131.23 90.736 131.625 90.736H133.449C134.516 90.736 135.289 90.9387 135.769 91.344C136.249 91.7387 136.489 92.272 136.489 92.944ZM135.289 93.008C135.289 92.6773 135.156 92.4107 134.889 92.208C134.622 92.016 134.158 91.92 133.497 91.92H130.633C130.078 92.144 129.801 92.5173 129.801 93.04C129.801 93.4027 129.945 93.712 130.233 93.968C130.521 94.2347 131.001 94.368 131.673 94.368H132.921C133.668 94.368 134.249 94.2507 134.665 94.016C135.081 93.792 135.289 93.456 135.289 93.008ZM132.265 88.256C132.905 88.256 133.374 88.1067 133.673 87.808C133.982 87.5093 134.137 87.1147 134.137 86.624V86.16C134.137 85.6693 133.982 85.28 133.673 84.992C133.374 84.6933 132.905 84.544 132.265 84.544C131.625 84.544 131.156 84.6933 130.857 84.992C130.558 85.28 130.409 85.6693 130.409 86.16V86.624C130.409 87.1147 130.558 87.5093 130.857 87.808C131.156 88.1067 131.625 88.256 132.265 88.256ZM141.731 92.192C141.134 92.192 140.595 92.0907 140.115 91.888C139.646 91.6853 139.24 91.3973 138.899 91.024C138.568 90.64 138.312 90.1867 138.131 89.664C137.95 89.1307 137.859 88.5387 137.859 87.888C137.859 87.2267 137.95 86.6293 138.131 86.096C138.323 85.5627 138.584 85.1093 138.915 84.736C139.246 84.352 139.64 84.0587 140.099 83.856C140.568 83.6533 141.086 83.552 141.651 83.552C142.206 83.552 142.707 83.6533 143.155 83.856C143.614 84.0587 144.003 84.3413 144.323 84.704C144.643 85.056 144.888 85.4773 145.059 85.968C145.23 86.4587 145.315 86.9973 145.315 87.584V88.192H139.203V88.576C139.203 88.9387 139.262 89.2747 139.379 89.584C139.496 89.8933 139.662 90.16 139.875 90.384C140.099 90.608 140.366 90.784 140.675 90.912C140.995 91.0293 141.347 91.088 141.731 91.088C142.286 91.088 142.766 90.96 143.171 90.704C143.576 90.448 143.886 90.096 144.099 89.648L145.043 90.288C144.798 90.8427 144.387 91.3013 143.811 91.664C143.246 92.016 142.552 92.192 141.731 92.192ZM141.651 84.608C141.299 84.608 140.974 84.672 140.675 84.8C140.376 84.928 140.115 85.104 139.891 85.328C139.678 85.552 139.507 85.8187 139.379 86.128C139.262 86.4267 139.203 86.7573 139.203 87.12V87.232H143.939V87.056C143.939 86.6933 143.88 86.3627 143.763 86.064C143.656 85.7653 143.502 85.5093 143.299 85.296C143.107 85.072 142.867 84.9013 142.579 84.784C142.302 84.6667 141.992 84.608 141.651 84.608ZM147.629 92V83.744H148.909V85.088H148.973C149.058 84.8853 149.165 84.6933 149.293 84.512C149.421 84.32 149.575 84.1547 149.757 84.016C149.949 83.8773 150.173 83.7653 150.429 83.68C150.685 83.5947 150.983 83.552 151.325 83.552C152.189 83.552 152.882 83.8293 153.405 84.384C153.927 84.928 154.189 85.7013 154.189 86.704V92H152.909V86.928C152.909 86.1707 152.743 85.6107 152.413 85.248C152.082 84.8747 151.597 84.688 150.957 84.688C150.701 84.688 150.45 84.72 150.205 84.784C149.959 84.848 149.741 84.944 149.549 85.072C149.357 85.2 149.202 85.3653 149.085 85.568C148.967 85.7707 148.909 86.0053 148.909 86.272V92H147.629ZM160.278 92.192C159.681 92.192 159.142 92.0907 158.662 91.888C158.193 91.6853 157.788 91.3973 157.446 91.024C157.116 90.64 156.86 90.1867 156.678 89.664C156.497 89.1307 156.406 88.5387 156.406 87.888C156.406 87.2267 156.497 86.6293 156.678 86.096C156.87 85.5627 157.132 85.1093 157.462 84.736C157.793 84.352 158.188 84.0587 158.646 83.856C159.116 83.6533 159.633 83.552 160.198 83.552C160.753 83.552 161.254 83.6533 161.702 83.856C162.161 84.0587 162.55 84.3413 162.87 84.704C163.19 85.056 163.436 85.4773 163.606 85.968C163.777 86.4587 163.862 86.9973 163.862 87.584V88.192H157.75V88.576C157.75 88.9387 157.809 89.2747 157.926 89.584C158.044 89.8933 158.209 90.16 158.422 90.384C158.646 90.608 158.913 90.784 159.222 90.912C159.542 91.0293 159.894 91.088 160.278 91.088C160.833 91.088 161.313 90.96 161.718 90.704C162.124 90.448 162.433 90.096 162.646 89.648L163.59 90.288C163.345 90.8427 162.934 91.3013 162.358 91.664C161.793 92.016 161.1 92.192 160.278 92.192ZM160.198 84.608C159.846 84.608 159.521 84.672 159.222 84.8C158.924 84.928 158.662 85.104 158.438 85.328C158.225 85.552 158.054 85.8187 157.926 86.128C157.809 86.4267 157.75 86.7573 157.75 87.12V87.232H162.486V87.056C162.486 86.6933 162.428 86.3627 162.31 86.064C162.204 85.7653 162.049 85.5093 161.846 85.296C161.654 85.072 161.414 84.9013 161.126 84.784C160.849 84.6667 160.54 84.608 160.198 84.608ZM165.84 90.912H168.256V84.832H165.84V83.744H169.536V85.824H169.616C169.787 85.1733 170.107 84.6667 170.576 84.304C171.056 83.9307 171.664 83.744 172.4 83.744H173.552V85.024H172C171.264 85.024 170.667 85.2373 170.208 85.664C169.76 86.0907 169.536 86.6507 169.536 87.344V90.912H172.736V92H165.84V90.912ZM181.802 92C181.301 92 180.943 91.872 180.73 91.616C180.517 91.36 180.383 91.04 180.33 90.656H180.25C180.069 91.136 179.775 91.5147 179.37 91.792C178.975 92.0587 178.442 92.192 177.77 92.192C176.906 92.192 176.218 91.968 175.706 91.52C175.194 91.072 174.938 90.4587 174.938 89.68C174.938 88.912 175.215 88.32 175.77 87.904C176.335 87.488 177.242 87.28 178.49 87.28H180.25V86.464C180.25 85.856 180.079 85.4027 179.738 85.104C179.397 84.7947 178.911 84.64 178.282 84.64C177.727 84.64 177.274 84.752 176.922 84.976C176.57 85.1893 176.287 85.4827 176.074 85.856L175.21 85.216C175.317 85.0027 175.461 84.7947 175.642 84.592C175.823 84.3893 176.047 84.2133 176.314 84.064C176.581 83.904 176.885 83.7813 177.226 83.696C177.567 83.6 177.946 83.552 178.362 83.552C179.333 83.552 180.101 83.7973 180.666 84.288C181.242 84.7787 181.53 85.4613 181.53 86.336V90.88H182.682V92H181.802ZM177.994 91.12C178.325 91.12 178.623 91.0827 178.89 91.008C179.167 90.9227 179.407 90.816 179.61 90.688C179.813 90.5493 179.967 90.3893 180.074 90.208C180.191 90.016 180.25 89.8133 180.25 89.6V88.24H178.49C177.722 88.24 177.162 88.3467 176.81 88.56C176.458 88.7733 176.282 89.0827 176.282 89.488V89.824C176.282 90.2507 176.431 90.576 176.73 90.8C177.039 91.0133 177.461 91.12 177.994 91.12ZM188.356 92C187.726 92 187.262 91.824 186.964 91.472C186.676 91.12 186.532 90.6667 186.532 90.112V84.832H183.78V83.744H185.828C186.105 83.744 186.297 83.6907 186.404 83.584C186.521 83.4667 186.58 83.2693 186.58 82.992V80.832H187.812V83.744H191.572V84.832H187.812V90.912H191.572V92H188.356ZM197.373 92.192C196.776 92.192 196.237 92.0907 195.757 91.888C195.288 91.6853 194.883 91.3973 194.541 91.024C194.211 90.64 193.955 90.1867 193.773 89.664C193.592 89.1307 193.501 88.5387 193.501 87.888C193.501 87.2267 193.592 86.6293 193.773 86.096C193.965 85.5627 194.227 85.1093 194.557 84.736C194.888 84.352 195.283 84.0587 195.741 83.856C196.211 83.6533 196.728 83.552 197.293 83.552C197.848 83.552 198.349 83.6533 198.797 83.856C199.256 84.0587 199.645 84.3413 199.965 84.704C200.285 85.056 200.531 85.4773 200.701 85.968C200.872 86.4587 200.957 86.9973 200.957 87.584V88.192H194.845V88.576C194.845 88.9387 194.904 89.2747 195.021 89.584C195.139 89.8933 195.304 90.16 195.517 90.384C195.741 90.608 196.008 90.784 196.317 90.912C196.637 91.0293 196.989 91.088 197.373 91.088C197.928 91.088 198.408 90.96 198.813 90.704C199.219 90.448 199.528 90.096 199.741 89.648L200.685 90.288C200.44 90.8427 200.029 91.3013 199.453 91.664C198.888 92.016 198.195 92.192 197.373 92.192ZM197.293 84.608C196.941 84.608 196.616 84.672 196.317 84.8C196.019 84.928 195.757 85.104 195.533 85.328C195.32 85.552 195.149 85.8187 195.021 86.128C194.904 86.4267 194.845 86.7573 194.845 87.12V87.232H199.581V87.056C199.581 86.6933 199.523 86.3627 199.405 86.064C199.299 85.7653 199.144 85.5093 198.941 85.296C198.749 85.072 198.509 84.9013 198.221 84.784C197.944 84.6667 197.635 84.608 197.293 84.608ZM208.503 90.656H208.439C207.906 91.68 207.058 92.192 205.895 92.192C204.882 92.192 204.087 91.8133 203.511 91.056C202.946 90.2987 202.663 89.2373 202.663 87.872C202.663 86.5067 202.946 85.4453 203.511 84.688C204.087 83.9307 204.882 83.552 205.895 83.552C207.058 83.552 207.906 84.064 208.439 85.088H208.503V80.16H209.783V92H208.503V90.656ZM206.391 91.056C206.679 91.056 206.951 91.0187 207.207 90.944C207.463 90.8693 207.687 90.7627 207.879 90.624C208.071 90.4747 208.22 90.2987 208.327 90.096C208.444 89.8827 208.503 89.6373 208.503 89.36V86.384C208.503 86.1067 208.444 85.8667 208.327 85.664C208.22 85.4507 208.071 85.2747 207.879 85.136C207.687 84.9867 207.463 84.8747 207.207 84.8C206.951 84.7253 206.679 84.688 206.391 84.688C205.644 84.688 205.063 84.9173 204.647 85.376C204.242 85.824 204.039 86.4213 204.039 87.168V88.576C204.039 89.3227 204.242 89.9253 204.647 90.384C205.063 90.832 205.644 91.056 206.391 91.056ZM225.147 92.192C224.283 92.192 223.536 92.048 222.907 91.76C222.288 91.4613 221.76 91.0667 221.323 90.576L222.187 89.824C222.581 90.24 223.013 90.56 223.483 90.784C223.952 91.008 224.517 91.12 225.179 91.12C225.819 91.12 226.341 91.008 226.747 90.784C227.163 90.5493 227.371 90.1867 227.371 89.696C227.371 89.4827 227.328 89.3067 227.243 89.168C227.168 89.0187 227.061 88.9013 226.923 88.816C226.784 88.7307 226.629 88.6667 226.459 88.624C226.288 88.5707 226.107 88.528 225.915 88.496L224.619 88.304C224.331 88.2613 224.016 88.2027 223.675 88.128C223.344 88.0533 223.04 87.936 222.763 87.776C222.485 87.6053 222.251 87.3813 222.059 87.104C221.877 86.8267 221.787 86.464 221.787 86.016C221.787 85.6 221.867 85.2427 222.027 84.944C222.197 84.6347 222.432 84.3787 222.731 84.176C223.029 83.9627 223.381 83.808 223.787 83.712C224.192 83.6053 224.635 83.552 225.115 83.552C225.861 83.552 226.507 83.6693 227.051 83.904C227.605 84.1387 228.08 84.464 228.475 84.88L227.643 85.664C227.547 85.5467 227.424 85.4293 227.275 85.312C227.136 85.184 226.96 85.072 226.747 84.976C226.544 84.8693 226.304 84.784 226.027 84.72C225.749 84.656 225.429 84.624 225.067 84.624C224.416 84.624 223.915 84.736 223.563 84.96C223.221 85.184 223.051 85.5093 223.051 85.936C223.051 86.1493 223.088 86.3307 223.163 86.48C223.248 86.6187 223.36 86.7307 223.499 86.816C223.637 86.9013 223.792 86.9707 223.963 87.024C224.144 87.0667 224.325 87.104 224.507 87.136L225.803 87.328C226.101 87.3707 226.416 87.4293 226.747 87.504C227.077 87.5787 227.381 87.7013 227.659 87.872C227.936 88.032 228.165 88.2507 228.347 88.528C228.539 88.8053 228.635 89.168 228.635 89.616C228.635 90.4373 228.315 91.072 227.675 91.52C227.045 91.968 226.203 92.192 225.147 92.192ZM236.276 90.656H236.212C236.127 90.8587 236.02 91.056 235.892 91.248C235.764 91.4293 235.604 91.5893 235.412 91.728C235.231 91.8667 235.012 91.9787 234.756 92.064C234.5 92.1493 234.202 92.192 233.86 92.192C232.996 92.192 232.303 91.92 231.78 91.376C231.258 90.8213 230.996 90.0427 230.996 89.04V83.744H232.276V88.816C232.276 89.5733 232.442 90.1387 232.772 90.512C233.103 90.8747 233.588 91.056 234.228 91.056C234.484 91.056 234.735 91.024 234.98 90.96C235.226 90.896 235.444 90.8 235.636 90.672C235.828 90.544 235.983 90.384 236.1 90.192C236.218 89.9893 236.276 89.7493 236.276 89.472V83.744H237.556V92H236.276V90.656ZM243.886 92.192C243.289 92.192 242.755 92.0907 242.286 91.888C241.827 91.6747 241.438 91.3813 241.118 91.008C240.798 90.6347 240.553 90.1813 240.382 89.648C240.222 89.1147 240.142 88.5227 240.142 87.872C240.142 87.2213 240.227 86.6293 240.398 86.096C240.569 85.5627 240.814 85.1093 241.134 84.736C241.454 84.352 241.843 84.0587 242.302 83.856C242.761 83.6533 243.283 83.552 243.87 83.552C244.67 83.552 245.321 83.728 245.822 84.08C246.323 84.432 246.691 84.8907 246.926 85.456L245.902 86C245.753 85.5733 245.502 85.2427 245.15 85.008C244.809 84.7733 244.382 84.656 243.87 84.656C243.497 84.656 243.161 84.72 242.862 84.848C242.574 84.9653 242.329 85.136 242.126 85.36C241.923 85.584 241.769 85.8507 241.662 86.16C241.566 86.4693 241.518 86.8053 241.518 87.168V88.576C241.518 88.9387 241.566 89.2747 241.662 89.584C241.769 89.8933 241.923 90.16 242.126 90.384C242.329 90.608 242.579 90.784 242.878 90.912C243.177 91.0293 243.518 91.088 243.902 91.088C244.457 91.088 244.915 90.96 245.278 90.704C245.641 90.448 245.929 90.096 246.142 89.648L247.054 90.272C246.809 90.8267 246.425 91.2853 245.902 91.648C245.39 92.0107 244.718 92.192 243.886 92.192ZM253.16 92.192C252.563 92.192 252.029 92.0907 251.56 91.888C251.101 91.6747 250.712 91.3813 250.392 91.008C250.072 90.6347 249.827 90.1813 249.656 89.648C249.496 89.1147 249.416 88.5227 249.416 87.872C249.416 87.2213 249.501 86.6293 249.672 86.096C249.843 85.5627 250.088 85.1093 250.408 84.736C250.728 84.352 251.117 84.0587 251.576 83.856C252.035 83.6533 252.557 83.552 253.144 83.552C253.944 83.552 254.595 83.728 255.096 84.08C255.597 84.432 255.965 84.8907 256.2 85.456L255.176 86C255.027 85.5733 254.776 85.2427 254.424 85.008C254.083 84.7733 253.656 84.656 253.144 84.656C252.771 84.656 252.435 84.72 252.136 84.848C251.848 84.9653 251.603 85.136 251.4 85.36C251.197 85.584 251.043 85.8507 250.936 86.16C250.84 86.4693 250.792 86.8053 250.792 87.168V88.576C250.792 88.9387 250.84 89.2747 250.936 89.584C251.043 89.8933 251.197 90.16 251.4 90.384C251.603 90.608 251.853 90.784 252.152 90.912C252.451 91.0293 252.792 91.088 253.176 91.088C253.731 91.088 254.189 90.96 254.552 90.704C254.915 90.448 255.203 90.096 255.416 89.648L256.328 90.272C256.083 90.8267 255.699 91.2853 255.176 91.648C254.664 92.0107 253.992 92.192 253.16 92.192ZM262.29 92.192C261.692 92.192 261.154 92.0907 260.674 91.888C260.204 91.6853 259.799 91.3973 259.458 91.024C259.127 90.64 258.871 90.1867 258.69 89.664C258.508 89.1307 258.418 88.5387 258.418 87.888C258.418 87.2267 258.508 86.6293 258.69 86.096C258.882 85.5627 259.143 85.1093 259.474 84.736C259.804 84.352 260.199 84.0587 260.658 83.856C261.127 83.6533 261.644 83.552 262.21 83.552C262.764 83.552 263.266 83.6533 263.714 83.856C264.172 84.0587 264.562 84.3413 264.882 84.704C265.202 85.056 265.447 85.4773 265.618 85.968C265.788 86.4587 265.874 86.9973 265.874 87.584V88.192H259.762V88.576C259.762 88.9387 259.82 89.2747 259.938 89.584C260.055 89.8933 260.22 90.16 260.434 90.384C260.658 90.608 260.924 90.784 261.234 90.912C261.554 91.0293 261.906 91.088 262.29 91.088C262.844 91.088 263.324 90.96 263.73 90.704C264.135 90.448 264.444 90.096 264.658 89.648L265.602 90.288C265.356 90.8427 264.946 91.3013 264.37 91.664C263.804 92.016 263.111 92.192 262.29 92.192ZM262.21 84.608C261.858 84.608 261.532 84.672 261.234 84.8C260.935 84.928 260.674 85.104 260.45 85.328C260.236 85.552 260.066 85.8187 259.938 86.128C259.82 86.4267 259.762 86.7573 259.762 87.12V87.232H264.498V87.056C264.498 86.6933 264.439 86.3627 264.322 86.064C264.215 85.7653 264.06 85.5093 263.858 85.296C263.666 85.072 263.426 84.9013 263.138 84.784C262.86 84.6667 262.551 84.608 262.21 84.608ZM271.515 92.192C270.651 92.192 269.905 92.048 269.275 91.76C268.657 91.4613 268.129 91.0667 267.691 90.576L268.555 89.824C268.95 90.24 269.382 90.56 269.851 90.784C270.321 91.008 270.886 91.12 271.547 91.12C272.187 91.12 272.71 91.008 273.115 90.784C273.531 90.5493 273.739 90.1867 273.739 89.696C273.739 89.4827 273.697 89.3067 273.611 89.168C273.537 89.0187 273.43 88.9013 273.291 88.816C273.153 88.7307 272.998 88.6667 272.827 88.624C272.657 88.5707 272.475 88.528 272.283 88.496L270.987 88.304C270.699 88.2613 270.385 88.2027 270.043 88.128C269.713 88.0533 269.409 87.936 269.131 87.776C268.854 87.6053 268.619 87.3813 268.427 87.104C268.246 86.8267 268.155 86.464 268.155 86.016C268.155 85.6 268.235 85.2427 268.395 84.944C268.566 84.6347 268.801 84.3787 269.099 84.176C269.398 83.9627 269.75 83.808 270.155 83.712C270.561 83.6053 271.003 83.552 271.483 83.552C272.23 83.552 272.875 83.6693 273.419 83.904C273.974 84.1387 274.449 84.464 274.843 84.88L274.011 85.664C273.915 85.5467 273.793 85.4293 273.643 85.312C273.505 85.184 273.329 85.072 273.115 84.976C272.913 84.8693 272.673 84.784 272.395 84.72C272.118 84.656 271.798 84.624 271.435 84.624C270.785 84.624 270.283 84.736 269.931 84.96C269.59 85.184 269.419 85.5093 269.419 85.936C269.419 86.1493 269.457 86.3307 269.531 86.48C269.617 86.6187 269.729 86.7307 269.867 86.816C270.006 86.9013 270.161 86.9707 270.331 87.024C270.513 87.0667 270.694 87.104 270.875 87.136L272.171 87.328C272.47 87.3707 272.785 87.4293 273.115 87.504C273.446 87.5787 273.75 87.7013 274.027 87.872C274.305 88.032 274.534 88.2507 274.715 88.528C274.907 88.8053 275.003 89.168 275.003 89.616C275.003 90.4373 274.683 91.072 274.043 91.52C273.414 91.968 272.571 92.192 271.515 92.192ZM280.789 92.192C279.925 92.192 279.178 92.048 278.549 91.76C277.93 91.4613 277.402 91.0667 276.965 90.576L277.829 89.824C278.224 90.24 278.656 90.56 279.125 90.784C279.594 91.008 280.16 91.12 280.821 91.12C281.461 91.12 281.984 91.008 282.389 90.784C282.805 90.5493 283.013 90.1867 283.013 89.696C283.013 89.4827 282.97 89.3067 282.885 89.168C282.81 89.0187 282.704 88.9013 282.565 88.816C282.426 88.7307 282.272 88.6667 282.101 88.624C281.93 88.5707 281.749 88.528 281.557 88.496L280.261 88.304C279.973 88.2613 279.658 88.2027 279.317 88.128C278.986 88.0533 278.682 87.936 278.405 87.776C278.128 87.6053 277.893 87.3813 277.701 87.104C277.52 86.8267 277.429 86.464 277.429 86.016C277.429 85.6 277.509 85.2427 277.669 84.944C277.84 84.6347 278.074 84.3787 278.373 84.176C278.672 83.9627 279.024 83.808 279.429 83.712C279.834 83.6053 280.277 83.552 280.757 83.552C281.504 83.552 282.149 83.6693 282.693 83.904C283.248 84.1387 283.722 84.464 284.117 84.88L283.285 85.664C283.189 85.5467 283.066 85.4293 282.917 85.312C282.778 85.184 282.602 85.072 282.389 84.976C282.186 84.8693 281.946 84.784 281.669 84.72C281.392 84.656 281.072 84.624 280.709 84.624C280.058 84.624 279.557 84.736 279.205 84.96C278.864 85.184 278.693 85.5093 278.693 85.936C278.693 86.1493 278.73 86.3307 278.805 86.48C278.89 86.6187 279.002 86.7307 279.141 86.816C279.28 86.9013 279.434 86.9707 279.605 87.024C279.786 87.0667 279.968 87.104 280.149 87.136L281.445 87.328C281.744 87.3707 282.058 87.4293 282.389 87.504C282.72 87.5787 283.024 87.7013 283.301 87.872C283.578 88.032 283.808 88.2507 283.989 88.528C284.181 88.8053 284.277 89.168 284.277 89.616C284.277 90.4373 283.957 91.072 283.317 91.52C282.688 91.968 281.845 92.192 280.789 92.192ZM286.495 90.912H289.279V84.832H286.335V83.744H289.279V82.048C289.279 81.4933 289.423 81.04 289.711 80.688C290.01 80.336 290.474 80.16 291.103 80.16H293.871V81.248H290.559V83.744H293.871V84.832H290.559V90.912H293.503V92H286.495V90.912ZM301.193 90.656H301.129C301.043 90.8587 300.937 91.056 300.809 91.248C300.681 91.4293 300.521 91.5893 300.329 91.728C300.147 91.8667 299.929 91.9787 299.673 92.064C299.417 92.1493 299.118 92.192 298.777 92.192C297.913 92.192 297.219 91.92 296.697 91.376C296.174 90.8213 295.913 90.0427 295.913 89.04V83.744H297.193V88.816C297.193 89.5733 297.358 90.1387 297.689 90.512C298.019 90.8747 298.505 91.056 299.145 91.056C299.401 91.056 299.651 91.024 299.897 90.96C300.142 90.896 300.361 90.8 300.553 90.672C300.745 90.544 300.899 90.384 301.017 90.192C301.134 89.9893 301.193 89.7493 301.193 89.472V83.744H302.473V92H301.193V90.656ZM304.994 90.912H307.874V81.248H304.994V80.16H309.154V90.912H312.034V92H304.994V90.912ZM314.268 90.912H317.148V81.248H314.268V80.16H318.428V90.912H321.308V92H314.268V90.912ZM329.734 83.744H331.014L326.918 93.808C326.822 94.0427 326.715 94.2453 326.598 94.416C326.481 94.5973 326.342 94.7413 326.182 94.848C326.022 94.9653 325.83 95.0507 325.606 95.104C325.382 95.168 325.115 95.2 324.806 95.2H323.59V94.112H325.51L326.438 91.84L323.11 83.744H324.422L325.814 87.2L327.046 90.336H327.11L328.342 87.2L329.734 83.744ZM336.336 92.144C335.898 92.144 335.589 92.0533 335.408 91.872C335.237 91.6907 335.152 91.4613 335.152 91.184V90.896C335.152 90.6187 335.237 90.3893 335.408 90.208C335.589 90.0267 335.898 89.936 336.336 89.936C336.773 89.936 337.077 90.0267 337.248 90.208C337.429 90.3893 337.52 90.6187 337.52 90.896V91.184C337.52 91.4613 337.429 91.6907 337.248 91.872C337.077 92.0533 336.773 92.144 336.336 92.144ZM34.2667 115V110.616L30.4107 103.832H31.9467L33.5467 106.744L34.9067 109.288H34.9707L36.3627 106.744L37.9627 103.832H39.4667L35.6107 110.616V115H34.2667ZM44.2125 115.192C43.6365 115.192 43.1138 115.091 42.6445 114.888C42.1858 114.685 41.7912 114.397 41.4605 114.024C41.1405 113.64 40.8952 113.187 40.7245 112.664C40.5538 112.131 40.4685 111.533 40.4685 110.872C40.4685 110.221 40.5538 109.629 40.7245 109.096C40.8952 108.563 41.1405 108.109 41.4605 107.736C41.7912 107.352 42.1858 107.059 42.6445 106.856C43.1138 106.653 43.6365 106.552 44.2125 106.552C44.7885 106.552 45.3058 106.653 45.7645 106.856C46.2338 107.059 46.6285 107.352 46.9485 107.736C47.2792 108.109 47.5298 108.563 47.7005 109.096C47.8712 109.629 47.9565 110.221 47.9565 110.872C47.9565 111.533 47.8712 112.131 47.7005 112.664C47.5298 113.187 47.2792 113.64 46.9485 114.024C46.6285 114.397 46.2338 114.685 45.7645 114.888C45.3058 115.091 44.7885 115.192 44.2125 115.192ZM44.2125 114.088C44.9272 114.088 45.5032 113.875 45.9405 113.448C46.3778 113.021 46.5965 112.36 46.5965 111.464V110.28C46.5965 109.384 46.3778 108.723 45.9405 108.296C45.5032 107.869 44.9272 107.656 44.2125 107.656C43.4978 107.656 42.9218 107.869 42.4845 108.296C42.0472 108.723 41.8285 109.384 41.8285 110.28V111.464C41.8285 112.36 42.0472 113.021 42.4845 113.448C42.9218 113.875 43.4978 114.088 44.2125 114.088ZM55.4382 113.656H55.3742C55.2889 113.859 55.1822 114.056 55.0542 114.248C54.9262 114.429 54.7662 114.589 54.5742 114.728C54.3929 114.867 54.1742 114.979 53.9182 115.064C53.6622 115.149 53.3636 115.192 53.0222 115.192C52.1582 115.192 51.4649 114.92 50.9422 114.376C50.4196 113.821 50.1582 113.043 50.1582 112.04V106.744H51.4382V111.816C51.4382 112.573 51.6036 113.139 51.9342 113.512C52.2649 113.875 52.7502 114.056 53.3902 114.056C53.6462 114.056 53.8969 114.024 54.1422 113.96C54.3876 113.896 54.6062 113.8 54.7982 113.672C54.9902 113.544 55.1449 113.384 55.2622 113.192C55.3796 112.989 55.4382 112.749 55.4382 112.472V106.744H56.7182V115H55.4382V113.656ZM72.3217 115.192C71.7244 115.192 71.1911 115.091 70.7217 114.888C70.2631 114.675 69.8737 114.381 69.5537 114.008C69.2337 113.635 68.9884 113.181 68.8177 112.648C68.6577 112.115 68.5777 111.523 68.5777 110.872C68.5777 110.221 68.6631 109.629 68.8337 109.096C69.0044 108.563 69.2497 108.109 69.5697 107.736C69.8897 107.352 70.2791 107.059 70.7377 106.856C71.1964 106.653 71.7191 106.552 72.3057 106.552C73.1057 106.552 73.7564 106.728 74.2577 107.08C74.7591 107.432 75.1271 107.891 75.3617 108.456L74.3377 109C74.1884 108.573 73.9377 108.243 73.5857 108.008C73.2444 107.773 72.8177 107.656 72.3057 107.656C71.9324 107.656 71.5964 107.72 71.2977 107.848C71.0097 107.965 70.7644 108.136 70.5617 108.36C70.3591 108.584 70.2044 108.851 70.0977 109.16C70.0017 109.469 69.9537 109.805 69.9537 110.168V111.576C69.9537 111.939 70.0017 112.275 70.0977 112.584C70.2044 112.893 70.3591 113.16 70.5617 113.384C70.7644 113.608 71.0151 113.784 71.3137 113.912C71.6124 114.029 71.9537 114.088 72.3377 114.088C72.8924 114.088 73.3511 113.96 73.7137 113.704C74.0764 113.448 74.3644 113.096 74.5777 112.648L75.4897 113.272C75.2444 113.827 74.8604 114.285 74.3377 114.648C73.8257 115.011 73.1537 115.192 72.3217 115.192ZM84.4275 115C83.9262 115 83.5688 114.872 83.3555 114.616C83.1422 114.36 83.0088 114.04 82.9555 113.656H82.8755C82.6942 114.136 82.4008 114.515 81.9955 114.792C81.6008 115.059 81.0675 115.192 80.3955 115.192C79.5315 115.192 78.8435 114.968 78.3315 114.52C77.8195 114.072 77.5635 113.459 77.5635 112.68C77.5635 111.912 77.8408 111.32 78.3955 110.904C78.9608 110.488 79.8675 110.28 81.1155 110.28H82.8755V109.464C82.8755 108.856 82.7048 108.403 82.3635 108.104C82.0222 107.795 81.5368 107.64 80.9075 107.64C80.3528 107.64 79.8995 107.752 79.5475 107.976C79.1955 108.189 78.9128 108.483 78.6995 108.856L77.8355 108.216C77.9422 108.003 78.0862 107.795 78.2675 107.592C78.4488 107.389 78.6728 107.213 78.9395 107.064C79.2062 106.904 79.5102 106.781 79.8515 106.696C80.1928 106.6 80.5715 106.552 80.9875 106.552C81.9582 106.552 82.7262 106.797 83.2915 107.288C83.8675 107.779 84.1555 108.461 84.1555 109.336V113.88H85.3075V115H84.4275ZM80.6195 114.12C80.9502 114.12 81.2488 114.083 81.5155 114.008C81.7928 113.923 82.0328 113.816 82.2355 113.688C82.4382 113.549 82.5928 113.389 82.6995 113.208C82.8168 113.016 82.8755 112.813 82.8755 112.6V111.24H81.1155C80.3475 111.24 79.7875 111.347 79.4355 111.56C79.0835 111.773 78.9075 112.083 78.9075 112.488V112.824C78.9075 113.251 79.0568 113.576 79.3555 113.8C79.6648 114.013 80.0862 114.12 80.6195 114.12ZM87.3493 115V106.744H88.6293V108.088H88.6933C88.7786 107.885 88.8853 107.693 89.0133 107.512C89.1413 107.32 89.2959 107.155 89.4773 107.016C89.6693 106.877 89.8933 106.765 90.1493 106.68C90.4053 106.595 90.7039 106.552 91.0453 106.552C91.9093 106.552 92.6026 106.829 93.1253 107.384C93.6479 107.928 93.9093 108.701 93.9093 109.704V115H92.6293V109.928C92.6293 109.171 92.4639 108.611 92.1333 108.248C91.8026 107.875 91.3173 107.688 90.6773 107.688C90.4213 107.688 90.1706 107.72 89.9253 107.784C89.6799 107.848 89.4613 107.944 89.2693 108.072C89.0773 108.2 88.9226 108.365 88.8053 108.568C88.6879 108.771 88.6293 109.005 88.6293 109.272V115H87.3493ZM105.897 115V106.744H107.177V108.088H107.241C107.326 107.885 107.433 107.693 107.561 107.512C107.689 107.32 107.843 107.155 108.025 107.016C108.217 106.877 108.441 106.765 108.697 106.68C108.953 106.595 109.251 106.552 109.593 106.552C110.457 106.552 111.15 106.829 111.673 107.384C112.195 107.928 112.457 108.701 112.457 109.704V115H111.177V109.928C111.177 109.171 111.011 108.611 110.681 108.248C110.35 107.875 109.865 107.688 109.225 107.688C108.969 107.688 108.718 107.72 108.473 107.784C108.227 107.848 108.009 107.944 107.817 108.072C107.625 108.2 107.47 108.365 107.353 108.568C107.235 108.771 107.177 109.005 107.177 109.272V115H105.897ZM118.403 115.192C117.827 115.192 117.304 115.091 116.835 114.888C116.376 114.685 115.981 114.397 115.651 114.024C115.331 113.64 115.085 113.187 114.915 112.664C114.744 112.131 114.659 111.533 114.659 110.872C114.659 110.221 114.744 109.629 114.915 109.096C115.085 108.563 115.331 108.109 115.651 107.736C115.981 107.352 116.376 107.059 116.835 106.856C117.304 106.653 117.827 106.552 118.403 106.552C118.979 106.552 119.496 106.653 119.955 106.856C120.424 107.059 120.819 107.352 121.139 107.736C121.469 108.109 121.72 108.563 121.891 109.096C122.061 109.629 122.147 110.221 122.147 110.872C122.147 111.533 122.061 112.131 121.891 112.664C121.72 113.187 121.469 113.64 121.139 114.024C120.819 114.397 120.424 114.685 119.955 114.888C119.496 115.091 118.979 115.192 118.403 115.192ZM118.403 114.088C119.117 114.088 119.693 113.875 120.131 113.448C120.568 113.021 120.787 112.36 120.787 111.464V110.28C120.787 109.384 120.568 108.723 120.131 108.296C119.693 107.869 119.117 107.656 118.403 107.656C117.688 107.656 117.112 107.869 116.675 108.296C116.237 108.723 116.019 109.384 116.019 110.28V111.464C116.019 112.36 116.237 113.021 116.675 113.448C117.112 113.875 117.688 114.088 118.403 114.088ZM123.356 106.744H124.492L125.436 113.88H125.58L126.988 106.744H128.396L129.804 113.88H129.948L130.892 106.744H131.996L130.732 115H129.068L127.756 108.088H127.628L126.284 115H124.62L123.356 106.744ZM148.224 113.656H148.16C147.626 114.68 146.778 115.192 145.616 115.192C144.602 115.192 143.808 114.813 143.232 114.056C142.666 113.299 142.384 112.237 142.384 110.872C142.384 109.507 142.666 108.445 143.232 107.688C143.808 106.931 144.602 106.552 145.616 106.552C146.778 106.552 147.626 107.064 148.16 108.088H148.224V103.16H149.504V115H148.224V113.656ZM146.112 114.056C146.4 114.056 146.672 114.019 146.928 113.944C147.184 113.869 147.408 113.763 147.6 113.624C147.792 113.475 147.941 113.299 148.048 113.096C148.165 112.883 148.224 112.637 148.224 112.36V109.384C148.224 109.107 148.165 108.867 148.048 108.664C147.941 108.451 147.792 108.275 147.6 108.136C147.408 107.987 147.184 107.875 146.928 107.8C146.672 107.725 146.4 107.688 146.112 107.688C145.365 107.688 144.784 107.917 144.368 108.376C143.962 108.824 143.76 109.421 143.76 110.168V111.576C143.76 112.323 143.962 112.925 144.368 113.384C144.784 113.832 145.365 114.056 146.112 114.056ZM155.497 115.192C154.921 115.192 154.399 115.091 153.929 114.888C153.471 114.685 153.076 114.397 152.745 114.024C152.425 113.64 152.18 113.187 152.009 112.664C151.839 112.131 151.753 111.533 151.753 110.872C151.753 110.221 151.839 109.629 152.009 109.096C152.18 108.563 152.425 108.109 152.745 107.736C153.076 107.352 153.471 107.059 153.929 106.856C154.399 106.653 154.921 106.552 155.497 106.552C156.073 106.552 156.591 106.653 157.049 106.856C157.519 107.059 157.913 107.352 158.233 107.736C158.564 108.109 158.815 108.563 158.985 109.096C159.156 109.629 159.241 110.221 159.241 110.872C159.241 111.533 159.156 112.131 158.985 112.664C158.815 113.187 158.564 113.64 158.233 114.024C157.913 114.397 157.519 114.685 157.049 114.888C156.591 115.091 156.073 115.192 155.497 115.192ZM155.497 114.088C156.212 114.088 156.788 113.875 157.225 113.448C157.663 113.021 157.881 112.36 157.881 111.464V110.28C157.881 109.384 157.663 108.723 157.225 108.296C156.788 107.869 156.212 107.656 155.497 107.656C154.783 107.656 154.207 107.869 153.769 108.296C153.332 108.723 153.113 109.384 153.113 110.28V111.464C153.113 112.36 153.332 113.021 153.769 113.448C154.207 113.875 154.783 114.088 155.497 114.088ZM160.451 106.744H161.587L162.531 113.88H162.675L164.083 106.744H165.491L166.899 113.88H167.043L167.987 106.744H169.091L167.827 115H166.163L164.851 108.088H164.723L163.379 115H161.715L160.451 106.744ZM170.813 115V106.744H172.093V108.088H172.157C172.242 107.885 172.349 107.693 172.477 107.512C172.605 107.32 172.76 107.155 172.941 107.016C173.133 106.877 173.357 106.765 173.613 106.68C173.869 106.595 174.168 106.552 174.509 106.552C175.373 106.552 176.066 106.829 176.589 107.384C177.112 107.928 177.373 108.701 177.373 109.704V115H176.093V109.928C176.093 109.171 175.928 108.611 175.597 108.248C175.266 107.875 174.781 107.688 174.141 107.688C173.885 107.688 173.634 107.72 173.389 107.784C173.144 107.848 172.925 107.944 172.733 108.072C172.541 108.2 172.386 108.365 172.269 108.568C172.152 108.771 172.093 109.005 172.093 109.272V115H170.813ZM179.799 113.912H182.679V104.248H179.799V103.16H183.959V113.912H186.839V115H179.799V113.912ZM192.592 115.192C192.016 115.192 191.494 115.091 191.024 114.888C190.566 114.685 190.171 114.397 189.84 114.024C189.52 113.64 189.275 113.187 189.104 112.664C188.934 112.131 188.848 111.533 188.848 110.872C188.848 110.221 188.934 109.629 189.104 109.096C189.275 108.563 189.52 108.109 189.84 107.736C190.171 107.352 190.566 107.059 191.024 106.856C191.494 106.653 192.016 106.552 192.592 106.552C193.168 106.552 193.686 106.653 194.144 106.856C194.614 107.059 195.008 107.352 195.328 107.736C195.659 108.109 195.91 108.563 196.08 109.096C196.251 109.629 196.336 110.221 196.336 110.872C196.336 111.533 196.251 112.131 196.08 112.664C195.91 113.187 195.659 113.64 195.328 114.024C195.008 114.397 194.614 114.685 194.144 114.888C193.686 115.091 193.168 115.192 192.592 115.192ZM192.592 114.088C193.307 114.088 193.883 113.875 194.32 113.448C194.758 113.021 194.976 112.36 194.976 111.464V110.28C194.976 109.384 194.758 108.723 194.32 108.296C193.883 107.869 193.307 107.656 192.592 107.656C191.878 107.656 191.302 107.869 190.864 108.296C190.427 108.723 190.208 109.384 190.208 110.28V111.464C190.208 112.36 190.427 113.021 190.864 113.448C191.302 113.875 191.878 114.088 192.592 114.088ZM204.986 115C204.485 115 204.128 114.872 203.914 114.616C203.701 114.36 203.568 114.04 203.514 113.656H203.434C203.253 114.136 202.96 114.515 202.554 114.792C202.16 115.059 201.626 115.192 200.954 115.192C200.09 115.192 199.402 114.968 198.89 114.52C198.378 114.072 198.122 113.459 198.122 112.68C198.122 111.912 198.4 111.32 198.954 110.904C199.52 110.488 200.426 110.28 201.674 110.28H203.434V109.464C203.434 108.856 203.264 108.403 202.922 108.104C202.581 107.795 202.096 107.64 201.466 107.64C200.912 107.64 200.458 107.752 200.106 107.976C199.754 108.189 199.472 108.483 199.258 108.856L198.394 108.216C198.501 108.003 198.645 107.795 198.826 107.592C199.008 107.389 199.232 107.213 199.498 107.064C199.765 106.904 200.069 106.781 200.41 106.696C200.752 106.6 201.13 106.552 201.546 106.552C202.517 106.552 203.285 106.797 203.85 107.288C204.426 107.779 204.714 108.461 204.714 109.336V113.88H205.866V115H204.986ZM201.178 114.12C201.509 114.12 201.808 114.083 202.074 114.008C202.352 113.923 202.592 113.816 202.794 113.688C202.997 113.549 203.152 113.389 203.258 113.208C203.376 113.016 203.434 112.813 203.434 112.6V111.24H201.674C200.906 111.24 200.346 111.347 199.994 111.56C199.642 111.773 199.466 112.083 199.466 112.488V112.824C199.466 113.251 199.616 113.576 199.914 113.8C200.224 114.013 200.645 114.12 201.178 114.12ZM213.14 113.656H213.076C212.543 114.68 211.695 115.192 210.532 115.192C209.519 115.192 208.724 114.813 208.148 114.056C207.583 113.299 207.3 112.237 207.3 110.872C207.3 109.507 207.583 108.445 208.148 107.688C208.724 106.931 209.519 106.552 210.532 106.552C211.695 106.552 212.543 107.064 213.076 108.088H213.14V103.16H214.42V115H213.14V113.656ZM211.028 114.056C211.316 114.056 211.588 114.019 211.844 113.944C212.1 113.869 212.324 113.763 212.516 113.624C212.708 113.475 212.857 113.299 212.964 113.096C213.081 112.883 213.14 112.637 213.14 112.36V109.384C213.14 109.107 213.081 108.867 212.964 108.664C212.857 108.451 212.708 108.275 212.516 108.136C212.324 107.987 212.1 107.875 211.844 107.8C211.588 107.725 211.316 107.688 211.028 107.688C210.281 107.688 209.7 107.917 209.284 108.376C208.879 108.824 208.676 109.421 208.676 110.168V111.576C208.676 112.323 208.879 112.925 209.284 113.384C209.7 113.832 210.281 114.056 211.028 114.056ZM230.087 115C229.458 115 228.994 114.824 228.695 114.472C228.407 114.12 228.263 113.667 228.263 113.112V107.832H225.511V106.744H227.559C227.837 106.744 228.029 106.691 228.135 106.584C228.253 106.467 228.311 106.269 228.311 105.992V103.832H229.543V106.744H233.303V107.832H229.543V113.912H233.303V115H230.087ZM235.729 103.16H237.009V108.088H237.073C237.159 107.885 237.265 107.693 237.393 107.512C237.521 107.32 237.676 107.155 237.857 107.016C238.049 106.877 238.273 106.765 238.529 106.68C238.785 106.595 239.084 106.552 239.425 106.552C240.289 106.552 240.983 106.829 241.505 107.384C242.028 107.928 242.289 108.701 242.289 109.704V115H241.009V109.928C241.009 109.171 240.844 108.611 240.513 108.248C240.183 107.875 239.697 107.688 239.057 107.688C238.801 107.688 238.551 107.72 238.305 107.784C238.06 107.848 237.841 107.944 237.649 108.072C237.457 108.2 237.303 108.365 237.185 108.568C237.068 108.771 237.009 109.005 237.009 109.272V115H235.729V103.16ZM248.379 115.192C247.782 115.192 247.243 115.091 246.763 114.888C246.294 114.685 245.888 114.397 245.547 114.024C245.216 113.64 244.96 113.187 244.779 112.664C244.598 112.131 244.507 111.539 244.507 110.888C244.507 110.227 244.598 109.629 244.779 109.096C244.971 108.563 245.232 108.109 245.563 107.736C245.894 107.352 246.288 107.059 246.747 106.856C247.216 106.653 247.734 106.552 248.299 106.552C248.854 106.552 249.355 106.653 249.803 106.856C250.262 107.059 250.651 107.341 250.971 107.704C251.291 108.056 251.536 108.477 251.707 108.968C251.878 109.459 251.963 109.997 251.963 110.584V111.192H245.851V111.576C245.851 111.939 245.91 112.275 246.027 112.584C246.144 112.893 246.31 113.16 246.523 113.384C246.747 113.608 247.014 113.784 247.323 113.912C247.643 114.029 247.995 114.088 248.379 114.088C248.934 114.088 249.414 113.96 249.819 113.704C250.224 113.448 250.534 113.096 250.747 112.648L251.691 113.288C251.446 113.843 251.035 114.301 250.459 114.664C249.894 115.016 249.2 115.192 248.379 115.192ZM248.299 107.608C247.947 107.608 247.622 107.672 247.323 107.8C247.024 107.928 246.763 108.104 246.539 108.328C246.326 108.552 246.155 108.819 246.027 109.128C245.91 109.427 245.851 109.757 245.851 110.12V110.232H250.587V110.056C250.587 109.693 250.528 109.363 250.411 109.064C250.304 108.765 250.15 108.509 249.947 108.296C249.755 108.072 249.515 107.901 249.227 107.784C248.95 107.667 248.64 107.608 248.299 107.608ZM266.782 115.192C266.206 115.192 265.684 115.091 265.214 114.888C264.756 114.685 264.361 114.397 264.03 114.024C263.71 113.64 263.465 113.187 263.294 112.664C263.124 112.131 263.038 111.533 263.038 110.872C263.038 110.221 263.124 109.629 263.294 109.096C263.465 108.563 263.71 108.109 264.03 107.736C264.361 107.352 264.756 107.059 265.214 106.856C265.684 106.653 266.206 106.552 266.782 106.552C267.358 106.552 267.876 106.653 268.334 106.856C268.804 107.059 269.198 107.352 269.518 107.736C269.849 108.109 270.1 108.563 270.27 109.096C270.441 109.629 270.526 110.221 270.526 110.872C270.526 111.533 270.441 112.131 270.27 112.664C270.1 113.187 269.849 113.64 269.518 114.024C269.198 114.397 268.804 114.685 268.334 114.888C267.876 115.091 267.358 115.192 266.782 115.192ZM266.782 114.088C267.497 114.088 268.073 113.875 268.51 113.448C268.948 113.021 269.166 112.36 269.166 111.464V110.28C269.166 109.384 268.948 108.723 268.51 108.296C268.073 107.869 267.497 107.656 266.782 107.656C266.068 107.656 265.492 107.869 265.054 108.296C264.617 108.723 264.398 109.384 264.398 110.28V111.464C264.398 112.36 264.617 113.021 265.054 113.448C265.492 113.875 266.068 114.088 266.782 114.088ZM278.008 113.656H277.944C277.859 113.859 277.752 114.056 277.624 114.248C277.496 114.429 277.336 114.589 277.144 114.728C276.963 114.867 276.744 114.979 276.488 115.064C276.232 115.149 275.934 115.192 275.592 115.192C274.728 115.192 274.035 114.92 273.512 114.376C272.99 113.821 272.728 113.043 272.728 112.04V106.744H274.008V111.816C274.008 112.573 274.174 113.139 274.504 113.512C274.835 113.875 275.32 114.056 275.96 114.056C276.216 114.056 276.467 114.024 276.712 113.96C276.958 113.896 277.176 113.8 277.368 113.672C277.56 113.544 277.715 113.384 277.832 113.192C277.95 112.989 278.008 112.749 278.008 112.472V106.744H279.288V115H278.008V113.656ZM285.73 115C285.101 115 284.637 114.824 284.338 114.472C284.05 114.12 283.906 113.667 283.906 113.112V107.832H281.154V106.744H283.202C283.479 106.744 283.671 106.691 283.778 106.584C283.895 106.467 283.954 106.269 283.954 105.992V103.832H285.186V106.744H288.946V107.832H285.186V113.912H288.946V115H285.73ZM291.324 106.744H292.604V108.088H292.668C293.201 107.064 294.049 106.552 295.212 106.552C296.225 106.552 297.014 106.931 297.58 107.688C298.156 108.445 298.444 109.507 298.444 110.872C298.444 112.237 298.156 113.299 297.58 114.056C297.014 114.813 296.225 115.192 295.212 115.192C294.049 115.192 293.201 114.68 292.668 113.656H292.604V118.2H291.324V106.744ZM294.716 114.056C295.462 114.056 296.038 113.832 296.444 113.384C296.86 112.925 297.068 112.323 297.068 111.576V110.168C297.068 109.421 296.86 108.824 296.444 108.376C296.038 107.917 295.462 107.688 294.716 107.688C294.428 107.688 294.156 107.725 293.9 107.8C293.644 107.875 293.42 107.987 293.228 108.136C293.036 108.275 292.881 108.451 292.764 108.664C292.657 108.867 292.604 109.107 292.604 109.384V112.36C292.604 112.637 292.657 112.883 292.764 113.096C292.881 113.299 293.036 113.475 293.228 113.624C293.42 113.763 293.644 113.869 293.9 113.944C294.156 114.019 294.428 114.056 294.716 114.056ZM305.83 113.656H305.766C305.68 113.859 305.574 114.056 305.446 114.248C305.318 114.429 305.158 114.589 304.966 114.728C304.784 114.867 304.566 114.979 304.31 115.064C304.054 115.149 303.755 115.192 303.414 115.192C302.55 115.192 301.856 114.92 301.334 114.376C300.811 113.821 300.55 113.043 300.55 112.04V106.744H301.83V111.816C301.83 112.573 301.995 113.139 302.326 113.512C302.656 113.875 303.142 114.056 303.782 114.056C304.038 114.056 304.288 114.024 304.534 113.96C304.779 113.896 304.998 113.8 305.19 113.672C305.382 113.544 305.536 113.384 305.654 113.192C305.771 112.989 305.83 112.749 305.83 112.472V106.744H307.11V115H305.83V113.656ZM313.551 115C312.922 115 312.458 114.824 312.159 114.472C311.871 114.12 311.727 113.667 311.727 113.112V107.832H308.975V106.744H311.023C311.301 106.744 311.493 106.691 311.599 106.584C311.717 106.467 311.775 106.269 311.775 105.992V103.832H313.007V106.744H316.767V107.832H313.007V113.912H316.767V115H313.551ZM328.227 113.912H331.011V107.832H328.067V106.744H331.011V105.048C331.011 104.493 331.155 104.04 331.443 103.688C331.741 103.336 332.205 103.16 332.835 103.16H335.603V104.248H332.291V106.744H335.603V107.832H332.291V113.912H335.235V115H328.227V113.912ZM341.484 104.92C341.111 104.92 340.85 104.845 340.7 104.696C340.551 104.536 340.476 104.339 340.476 104.104V103.848C340.476 103.613 340.551 103.421 340.7 103.272C340.85 103.112 341.111 103.032 341.484 103.032C341.858 103.032 342.119 103.112 342.268 103.272C342.418 103.421 342.492 103.613 342.492 103.848V104.104C342.492 104.339 342.418 104.536 342.268 104.696C342.119 104.845 341.858 104.92 341.484 104.92ZM337.868 113.912H340.844V107.832H337.868V106.744H342.124V113.912H344.908V115H337.868V113.912ZM346.726 113.912H349.606V104.248H346.726V103.16H350.886V113.912H353.766V115H346.726V113.912ZM359.664 115.192C359.067 115.192 358.528 115.091 358.048 114.888C357.579 114.685 357.173 114.397 356.832 114.024C356.501 113.64 356.245 113.187 356.064 112.664C355.883 112.131 355.792 111.539 355.792 110.888C355.792 110.227 355.883 109.629 356.064 109.096C356.256 108.563 356.517 108.109 356.848 107.736C357.179 107.352 357.573 107.059 358.032 106.856C358.501 106.653 359.019 106.552 359.584 106.552C360.139 106.552 360.64 106.653 361.088 106.856C361.547 107.059 361.936 107.341 362.256 107.704C362.576 108.056 362.821 108.477 362.992 108.968C363.163 109.459 363.248 109.997 363.248 110.584V111.192H357.136V111.576C357.136 111.939 357.195 112.275 357.312 112.584C357.429 112.893 357.595 113.16 357.808 113.384C358.032 113.608 358.299 113.784 358.608 113.912C358.928 114.029 359.28 114.088 359.664 114.088C360.219 114.088 360.699 113.96 361.104 113.704C361.509 113.448 361.819 113.096 362.032 112.648L362.976 113.288C362.731 113.843 362.32 114.301 361.744 114.664C361.179 115.016 360.485 115.192 359.664 115.192ZM359.584 107.608C359.232 107.608 358.907 107.672 358.608 107.8C358.309 107.928 358.048 108.104 357.824 108.328C357.611 108.552 357.44 108.819 357.312 109.128C357.195 109.427 357.136 109.757 357.136 110.12V110.232H361.872V110.056C361.872 109.693 361.813 109.363 361.696 109.064C361.589 108.765 361.435 108.509 361.232 108.296C361.04 108.072 360.8 107.901 360.512 107.784C360.235 107.667 359.925 107.608 359.584 107.608ZM368.89 115.192C368.026 115.192 367.279 115.048 366.65 114.76C366.031 114.461 365.503 114.067 365.066 113.576L365.93 112.824C366.324 113.24 366.756 113.56 367.226 113.784C367.695 114.008 368.26 114.12 368.922 114.12C369.562 114.12 370.084 114.008 370.49 113.784C370.906 113.549 371.114 113.187 371.114 112.696C371.114 112.483 371.071 112.307 370.986 112.168C370.911 112.019 370.804 111.901 370.666 111.816C370.527 111.731 370.372 111.667 370.202 111.624C370.031 111.571 369.85 111.528 369.658 111.496L368.362 111.304C368.074 111.261 367.759 111.203 367.418 111.128C367.087 111.053 366.783 110.936 366.506 110.776C366.228 110.605 365.994 110.381 365.802 110.104C365.62 109.827 365.53 109.464 365.53 109.016C365.53 108.6 365.61 108.243 365.77 107.944C365.94 107.635 366.175 107.379 366.474 107.176C366.772 106.963 367.124 106.808 367.53 106.712C367.935 106.605 368.378 106.552 368.858 106.552C369.604 106.552 370.25 106.669 370.794 106.904C371.348 107.139 371.823 107.464 372.218 107.88L371.386 108.664C371.29 108.547 371.167 108.429 371.018 108.312C370.879 108.184 370.703 108.072 370.49 107.976C370.287 107.869 370.047 107.784 369.77 107.72C369.492 107.656 369.172 107.624 368.81 107.624C368.159 107.624 367.658 107.736 367.306 107.96C366.964 108.184 366.794 108.509 366.794 108.936C366.794 109.149 366.831 109.331 366.906 109.48C366.991 109.619 367.103 109.731 367.242 109.816C367.38 109.901 367.535 109.971 367.706 110.024C367.887 110.067 368.068 110.104 368.25 110.136L369.546 110.328C369.844 110.371 370.159 110.429 370.49 110.504C370.82 110.579 371.124 110.701 371.402 110.872C371.679 111.032 371.908 111.251 372.09 111.528C372.282 111.805 372.378 112.168 372.378 112.616C372.378 113.437 372.058 114.072 371.418 114.52C370.788 114.968 369.946 115.192 368.89 115.192ZM378.068 115.144C377.63 115.144 377.321 115.053 377.14 114.872C376.969 114.691 376.884 114.461 376.884 114.184V113.896C376.884 113.619 376.969 113.389 377.14 113.208C377.321 113.027 377.63 112.936 378.068 112.936C378.505 112.936 378.809 113.027 378.98 113.208C379.161 113.389 379.252 113.619 379.252 113.896V114.184C379.252 114.461 379.161 114.691 378.98 114.872C378.809 115.053 378.505 115.144 378.068 115.144Z" fill="#111111"/>
<circle cx="62" cy="164" r="24" fill="#6C989F"/>
<mask id="mask0_904_626079" style="mask-type:alpha" maskUnits="userSpaceOnUse" x="38" y="140" width="48" height="48">
<circle cx="62" cy="164" r="24" fill="#6C989F"/>
</mask>
<g mask="url(#mask0_904_626079)">
<path d="M47 153V197H67.9998L76.9998 188V153H47Z" fill="white"/>
<path d="M50 162V172.5H73.9998V162H50Z" fill="#F43DE3"/>
<path d="M55.1453 168.675C55.1453 169.359 54.9878 169.846 54.6683 170.139C54.3518 170.428 53.8658 170.575 53.2118 170.575C52.8683 170.575 52.5878 170.529 52.3688 170.434C52.1498 170.341 51.9743 170.211 51.8453 170.038C51.7163 169.866 51.6278 169.668 51.5813 169.44C51.5318 169.213 51.5078 168.972 51.5078 168.721V168.441H52.6958V168.64C52.6958 168.982 52.7318 169.234 52.8083 169.401C52.8833 169.564 53.0363 169.648 53.2718 169.648C53.5073 169.648 53.6618 169.564 53.7368 169.401C53.8118 169.236 53.8493 168.982 53.8493 168.64V164.049H55.1453V168.675Z" fill="white"/>
<path d="M57.5748 168.657C57.5748 168.807 57.5883 168.944 57.6108 169.065C57.6348 169.188 57.6798 169.292 57.7458 169.376C57.8118 169.461 57.9018 169.527 58.0128 169.575C58.1223 169.622 58.2618 169.647 58.4298 169.647C58.6278 169.647 58.8063 169.583 58.9638 169.454C59.1228 169.325 59.2038 169.124 59.2038 168.855C59.2038 168.711 59.1828 168.587 59.1453 168.482C59.1063 168.377 59.0418 168.282 58.9518 168.2C58.8603 168.114 58.7418 168.039 58.5948 167.97C58.4478 167.901 58.2663 167.831 58.0518 167.759C57.7638 167.663 57.5148 167.556 57.3048 167.442C57.0948 167.33 56.9193 167.196 56.7783 167.042C56.6373 166.889 56.5323 166.712 56.4678 166.511C56.4003 166.308 56.3688 166.077 56.3688 165.812C56.3688 165.176 56.5458 164.703 56.8998 164.391C57.2538 164.079 57.7413 163.923 58.3593 163.923C58.6458 163.923 58.9128 163.955 59.1558 164.018C59.3988 164.081 59.6088 164.181 59.7858 164.324C59.9613 164.465 60.1008 164.645 60.1983 164.862C60.2973 165.081 60.3483 165.344 60.3483 165.65V165.83H59.1048C59.1048 165.524 59.0508 165.288 58.9443 165.122C58.8363 164.958 58.6548 164.874 58.4028 164.874C58.2588 164.874 58.1388 164.897 58.0443 164.937C57.9498 164.979 57.8718 165.035 57.8148 165.104C57.7578 165.173 57.7173 165.255 57.6963 165.345C57.6753 165.435 57.6648 165.528 57.6648 165.624C57.6648 165.824 57.7068 165.989 57.7908 166.124C57.8748 166.26 58.0548 166.385 58.3308 166.497L59.3298 166.929C59.5758 167.037 59.7753 167.15 59.9313 167.268C60.0873 167.387 60.2118 167.511 60.3048 167.646C60.3978 167.781 60.4653 167.928 60.4998 168.092C60.5358 168.252 60.5538 168.434 60.5538 168.63C60.5538 169.308 60.3573 169.802 59.9628 170.111C59.5698 170.42 59.0223 170.576 58.3218 170.576C57.5898 170.576 57.0648 170.417 56.7498 170.099C56.4348 169.781 56.2773 169.325 56.2773 168.731V168.47H57.5748V168.657Z" fill="white"/>
<path d="M61.6749 165.917C61.7184 165.507 61.8189 165.153 61.9704 164.859C62.1249 164.567 62.3454 164.336 62.6319 164.171C62.9184 164.007 63.3069 163.923 63.7914 163.923C64.2774 163.923 64.6644 164.007 64.9524 164.171C65.2404 164.336 65.4609 164.567 65.6124 164.859C65.7669 165.153 65.8644 165.507 65.9109 165.917C65.9544 166.328 65.9784 166.776 65.9784 167.262C65.9784 167.753 65.9544 168.204 65.9109 168.611C65.8644 169.019 65.7654 169.37 65.6124 169.664C65.4594 169.958 65.2404 170.183 64.9524 170.339C64.6644 170.495 64.2774 170.573 63.7914 170.573C63.3069 170.573 62.9184 170.493 62.6319 170.339C62.3454 170.183 62.1234 169.958 61.9704 169.664C61.8174 169.37 61.7184 169.019 61.6749 168.611C61.6299 168.204 61.6074 167.753 61.6074 167.262C61.6074 166.778 61.6299 166.329 61.6749 165.917ZM62.9349 168.365C62.9559 168.668 62.9979 168.914 63.0609 169.103C63.1239 169.292 63.2139 169.43 63.3309 169.517C63.4479 169.604 63.6039 169.647 63.7944 169.647C63.9879 169.647 64.1409 169.604 64.2594 169.517C64.3764 169.428 64.4664 169.292 64.5309 169.103C64.5924 168.914 64.6344 168.668 64.6569 168.365C64.6779 168.062 64.6884 167.696 64.6884 167.264C64.6884 166.832 64.6779 166.466 64.6569 166.166C64.6344 165.866 64.5924 165.62 64.5309 165.428C64.4664 165.236 64.3764 165.096 64.2594 165.011C64.1424 164.922 63.9879 164.879 63.7944 164.879C63.6039 164.879 63.4494 164.922 63.3309 165.011C63.2139 165.098 63.1239 165.236 63.0609 165.428C62.9979 165.62 62.9559 165.866 62.9349 166.166C62.9139 166.466 62.9034 166.832 62.9034 167.264C62.9034 167.696 62.9139 168.062 62.9349 168.365Z" fill="white"/>
<path d="M70.3466 168.451H70.3646V164.049H71.5526V170.475H70.0781L68.4926 165.975H68.4746V170.475H67.2852V164.049H68.7791L70.3466 168.451Z" fill="white"/>
</g>
<path d="M99.328 170.5V159.332H106.624V161.06H101.424V163.972H106.112V165.7H101.424V170.5H99.328ZM108.522 170.5V168.932H111.034V160.9H108.522V159.332H115.626V160.9H113.114V168.932H115.626V170.5H108.522ZM118.148 170.5V159.332H120.244V168.772H125.188V170.5H118.148ZM127.149 170.5V159.332H134.205V161.06H129.245V163.972H134.029V165.7H129.245V168.772H134.205V170.5H127.149ZM147.393 162.484H147.233V170.5H145.441V159.332H148.017L150.945 167.348H151.105V159.332H152.897V170.5H150.321L147.393 162.484ZM160.827 170.5L160.043 167.668H156.731L155.963 170.5H153.851L156.987 159.332H159.899L163.051 170.5H160.827ZM158.459 161.396H158.331L157.099 165.956H159.691L158.459 161.396ZM169.924 165.332L170.02 162.1H169.876L167.716 167.844L165.556 162.1H165.412L165.508 165.332V170.5H163.684V159.332H166.18L167.732 163.444H167.844L169.412 159.332H171.748V170.5H169.924V165.332ZM173.518 170.5V159.332H180.574V161.06H175.614V163.972H180.398V165.7H175.614V168.772H180.574V170.5H173.518ZM186.264 170.676C185.709 170.676 185.314 170.559 185.08 170.324C184.845 170.089 184.728 169.801 184.728 169.46V168.98C184.728 168.639 184.845 168.351 185.08 168.116C185.314 167.881 185.709 167.764 186.264 167.764C186.818 167.764 187.213 167.881 187.448 168.116C187.682 168.351 187.8 168.639 187.8 168.98V169.46C187.8 169.801 187.682 170.089 187.448 170.324C187.213 170.559 186.818 170.676 186.264 170.676ZM198.77 159.332V167.444C198.77 167.945 198.684 168.399 198.514 168.804C198.343 169.199 198.098 169.535 197.778 169.812C197.468 170.089 197.09 170.308 196.642 170.468C196.204 170.617 195.714 170.692 195.17 170.692C194.114 170.692 193.282 170.425 192.674 169.892C192.076 169.359 191.692 168.649 191.522 167.764L193.49 167.348C193.586 167.817 193.756 168.207 194.002 168.516C194.258 168.815 194.647 168.964 195.17 168.964C195.65 168.964 196.018 168.825 196.274 168.548C196.53 168.26 196.658 167.812 196.658 167.204V161.06H192.882V159.332H198.77ZM204.683 170.692C203.723 170.692 202.902 170.527 202.219 170.196C201.547 169.865 200.998 169.428 200.571 168.884L201.835 167.572C202.251 168.052 202.699 168.409 203.179 168.644C203.67 168.868 204.193 168.98 204.747 168.98C205.387 168.98 205.878 168.836 206.219 168.548C206.561 168.26 206.731 167.844 206.731 167.3C206.731 166.852 206.603 166.516 206.347 166.292C206.091 166.057 205.659 165.892 205.051 165.796L203.867 165.604C202.833 165.423 202.097 165.049 201.659 164.484C201.222 163.908 201.003 163.231 201.003 162.452C201.003 161.385 201.35 160.569 202.043 160.004C202.737 159.428 203.697 159.14 204.923 159.14C205.798 159.14 206.55 159.279 207.179 159.556C207.819 159.833 208.331 160.212 208.715 160.692L207.483 162.004C207.185 161.652 206.827 161.375 206.411 161.172C205.995 160.959 205.505 160.852 204.939 160.852C203.723 160.852 203.115 161.353 203.115 162.356C203.115 162.783 203.243 163.108 203.499 163.332C203.755 163.556 204.193 163.721 204.811 163.828L205.979 164.036C206.95 164.217 207.67 164.575 208.139 165.108C208.609 165.641 208.843 166.324 208.843 167.156C208.843 167.679 208.753 168.159 208.571 168.596C208.39 169.023 208.123 169.396 207.771 169.716C207.419 170.025 206.982 170.265 206.459 170.436C205.947 170.607 205.355 170.692 204.683 170.692ZM214.085 170.692C213.36 170.692 212.73 170.564 212.197 170.308C211.664 170.041 211.221 169.663 210.869 169.172C210.528 168.681 210.272 168.079 210.101 167.364C209.941 166.649 209.861 165.833 209.861 164.916C209.861 164.009 209.941 163.199 210.101 162.484C210.272 161.759 210.528 161.151 210.869 160.66C211.221 160.169 211.664 159.796 212.197 159.54C212.73 159.273 213.36 159.14 214.085 159.14C215.536 159.14 216.602 159.647 217.285 160.66C217.968 161.673 218.309 163.092 218.309 164.916C218.309 166.74 217.968 168.159 217.285 169.172C216.602 170.185 215.536 170.692 214.085 170.692ZM214.085 168.98C214.458 168.98 214.773 168.911 215.029 168.772C215.285 168.623 215.488 168.415 215.637 168.148C215.797 167.881 215.909 167.556 215.973 167.172C216.048 166.777 216.085 166.34 216.085 165.86V163.956C216.085 162.996 215.936 162.239 215.637 161.684C215.349 161.129 214.832 160.852 214.085 160.852C213.338 160.852 212.816 161.129 212.517 161.684C212.229 162.239 212.085 162.996 212.085 163.956V165.876C212.085 166.836 212.229 167.593 212.517 168.148C212.816 168.703 213.338 168.98 214.085 168.98ZM221.583 162.484H221.423V170.5H219.631V159.332H222.207L225.135 167.348H225.295V159.332H227.087V170.5H224.511L221.583 162.484Z" fill="#333333"/>
<path d="M362 160V168M362 168L358 164M362 168L366 164M372 164C372 169.523 367.523 174 362 174C356.477 174 352 169.523 352 164C352 158.477 356.477 154 362 154C367.523 154 372 158.477 372 164Z" stroke="#F43DE3" stroke-width="2" stroke-linecap="round" stroke-linejoin="round"/>
</g>
<defs>
<clipPath id="clip0_904_626079">
<rect width="412" height="218" fill="white"/>
</clipPath>
</defs>
</svg>
