<svg width="300" height="279" viewBox="0 0 300 279" fill="none" xmlns="http://www.w3.org/2000/svg">
<g clip-path="url(#clip0_697_339818)">
<path d="M6 30.4669V22.7334L9.78498 15H291.655L294 22.7334V264.605L289.68 273H10.5L6 265.634V30.4669Z" fill="white"/>
<path d="M132.211 76C137.407 76.09 142.667 76.1373 147.861 76.0124L147.862 77.9864C149.186 78.0023 150.51 77.999 151.834 77.9764L151.829 80.0836C152.499 80.0834 153.17 80.0615 153.84 80.0491C153.946 81.4224 153.873 82.8315 153.822 84.2065L156.079 84.2094C156.156 83.5384 156.166 82.8666 156.183 82.1921L158.046 82.1707C158.094 81.4785 158.069 80.7731 158.068 80.079L169.69 80.0634C169.785 80.7777 169.828 81.4596 169.824 82.1802C171.121 82.1936 172.419 82.1802 173.716 82.1799C173.709 82.8572 173.729 83.5308 173.755 84.2075C174.234 84.1972 174.914 84.1088 175.356 84.3015C176.238 84.6853 175.39 85.3703 175.614 86.0027C176.201 86.458 177.022 86.3273 177.721 86.3048L177.717 90.3965C178.385 90.438 179.051 90.4184 179.719 90.405C179.837 91.7488 179.777 93.1386 179.779 94.4888L185.742 94.5002C185.777 95.2204 185.699 95.8992 185.608 96.6125L187.651 96.6095L187.662 98.7193L189.66 98.7596L189.665 100.516C189.747 102.574 189.819 104.677 189.678 106.733C189.751 108.078 189.736 109.424 189.732 110.77L187.666 110.761L187.656 112.901L185.769 112.902L185.776 114.884L176.711 114.874C175.221 114.875 173.585 115.009 172.112 114.83C171.831 114.398 171.945 113.427 171.949 112.901L167.784 112.907L167.788 114.886L165.727 114.887L165.738 116.988C161.864 116.955 157.96 116.894 154.087 116.996L154.082 114.885L152.055 114.891L152.072 112.897L149.802 112.901L149.801 114.891C148.486 114.881 147.166 114.849 145.852 114.887L145.844 116.981C142.601 116.958 139.357 116.965 136.114 117L136.094 114.893C134.794 114.865 133.494 114.864 132.194 114.89L132.185 112.899L127.975 112.891C127.968 113.559 127.991 114.232 127.836 114.886C123.984 114.871 120.095 114.756 116.247 114.895L116.25 112.905L114.201 112.896C114.197 112.187 114.21 111.473 114.186 110.764L112.293 110.762C112.291 109.437 112.33 108.097 112.279 106.773L112.184 106.701C111.539 106.673 110.888 106.688 110.243 106.686C110.24 104.766 110.25 102.846 110.272 100.926L110.25 100.565C110.358 99.268 110.283 97.9071 110.287 96.6029L112.278 96.6041C112.332 95.2557 112.296 93.894 112.296 92.544L116.262 92.5431L116.265 90.3941C118.261 90.4491 120.257 90.4486 122.253 90.3926L122.248 86.3252C122.927 86.3356 123.597 86.3193 124.276 86.2836C124.329 84.9214 124.297 83.5532 124.288 82.19L126.223 82.1873L126.218 80.0688L128.214 80.0645L128.237 78.0029L132.208 78.0011L132.211 76Z" fill="#00C1DF"/>
<path d="M132.212 76C137.407 76.09 142.667 76.1373 147.862 76.0124L147.862 77.9864C149.187 78.0023 150.511 77.999 151.834 77.9764L151.829 80.0836C152.499 80.0834 153.17 80.0614 153.84 80.0491C153.946 81.4224 153.873 82.8315 153.822 84.2065L156.08 84.2094C156.156 83.5384 156.166 82.8666 156.183 82.1921L158.046 82.1707C158.094 81.4785 158.069 80.7731 158.068 80.079L169.69 80.0634C169.785 80.7777 169.828 81.4596 169.824 82.1802C171.121 82.1936 172.419 82.1802 173.716 82.1799C173.71 82.8572 173.729 83.5308 173.756 84.2075C174.234 84.1972 174.914 84.1088 175.356 84.3015C176.238 84.6853 175.391 85.3703 175.615 86.0027C176.201 86.458 177.022 86.3273 177.721 86.3048L177.717 90.3965C178.385 90.438 179.051 90.4184 179.719 90.405C179.837 91.7488 179.777 93.1386 179.779 94.4888L185.743 94.5002C185.777 95.2204 185.7 95.8992 185.608 96.6124L187.652 96.6095L187.662 98.7193L189.66 98.7596L189.665 100.516C188.532 100.772 187.009 100.584 185.836 100.58C185.818 99.8982 185.837 99.2163 185.85 98.5345L177.858 98.5342L177.874 96.4267L175.902 96.4514C175.881 95.7595 175.843 95.065 175.884 94.3734L173.902 94.3839L173.893 92.3178L165.905 92.3258L165.917 94.3781L163.926 94.3816L163.93 96.4461L167.892 96.4398L167.898 98.5421L169.892 98.5309L169.905 102.629L167.896 102.631L167.897 100.579L163.929 100.581L163.925 98.519C161.291 98.5355 158.589 98.65 155.963 98.4692L155.938 100.581L151.967 100.56C151.947 101.242 152.004 101.935 152.035 102.617L149.982 102.639L149.986 104.733L147.97 104.733L147.968 100.578L149.991 100.567L149.991 96.4309C148.662 96.4611 147.334 96.4668 146.005 96.4478C145.973 95.761 145.992 95.0699 145.998 94.3823L136.025 94.3801L136.042 96.4352L134.039 96.4535L134.047 98.4722C133.379 98.5233 132.703 98.519 132.033 98.532L132.042 94.364L134.041 94.3927L134.04 92.3294L136.039 92.3351C136.018 91.6354 136.043 90.9407 136.07 90.2414L134.047 90.2344L134.042 88.1799C132.048 88.2031 130.052 88.1804 128.058 88.1754L128.06 90.2398L126.049 90.2395L126.069 92.3327L128.06 92.3449L128.053 94.3768L116.091 94.3774C116.073 95.0613 116.112 95.7481 116.136 96.4318L114.118 96.4464L114.122 98.504L112.108 98.5335L112.11 100.581L110.25 100.565C110.358 99.268 110.283 97.9071 110.287 96.6029L112.278 96.6041C112.332 95.2557 112.296 93.894 112.297 92.544L116.262 92.5431L116.265 90.3941C118.261 90.4491 120.257 90.4486 122.254 90.3926L122.248 86.3252C122.927 86.3356 123.598 86.3193 124.276 86.2836C124.329 84.9214 124.297 83.5532 124.288 82.19L126.223 82.1873L126.218 80.0688L128.215 80.0645L128.238 78.0029L132.208 78.0011L132.212 76Z" fill="#66EAFF"/>
<path d="M155.946 90.2393L159.945 90.2497L159.961 92.325L161.914 92.3241L161.914 94.3761C160.949 94.3827 156.507 94.1833 155.958 94.5048L155.941 96.4321L152.003 96.4437L151.981 94.38L153.972 94.3715L153.963 92.3256L155.979 92.3082C155.965 91.6187 155.954 90.929 155.946 90.2393Z" fill="#00C1DF"/>
<path d="M146.001 88.1797L151.956 88.1836L151.954 90.2518C151.405 90.2454 150.466 90.1212 149.981 90.3377L149.98 92.3293L147.97 92.3347L147.976 90.2582L146.025 90.2226C145.99 89.5426 146.001 88.8604 146.001 88.1797Z" fill="#00C1DF"/>
<path d="M187.862 106.777C188.468 106.783 189.075 106.804 189.678 106.732C189.751 108.078 189.737 109.424 189.732 110.77L187.666 110.761L187.656 112.901L185.769 112.902L185.776 114.884L176.711 114.874C175.222 114.875 173.585 115.009 172.112 114.83C171.831 114.398 171.945 113.427 171.949 112.9L167.784 112.906L167.788 114.886L165.727 114.887L165.738 116.988C161.864 116.955 157.96 116.893 154.087 116.996L154.083 114.884L152.055 114.891L152.072 112.897L149.802 112.901L149.802 114.891C148.486 114.881 147.166 114.849 145.852 114.887L145.844 116.98C142.601 116.958 139.357 116.964 136.114 117L136.094 114.892C134.794 114.865 133.494 114.864 132.194 114.89L132.185 112.899L127.975 112.891C127.968 113.559 127.991 114.232 127.836 114.885C123.985 114.871 120.095 114.756 116.247 114.895L116.25 112.905L114.201 112.896C114.197 112.187 114.21 111.473 114.187 110.764L112.293 110.762C112.292 109.436 112.33 108.097 112.279 106.773L114.122 106.761L114.122 108.831L116.111 108.834L116.138 110.931C117.448 110.938 118.758 110.93 120.068 110.909L120.109 112.963C122.092 112.983 124.076 112.986 126.059 112.97L126.036 110.942C126.712 110.951 127.39 110.913 128.065 110.887L128.05 108.827L130.056 108.823L130.065 110.943L134.049 110.916L134.03 112.98L147.964 112.983L147.97 110.941L149.984 110.911L149.99 108.809L151.944 108.831L151.947 110.941L153.978 110.917L153.981 112.985L157.946 112.981L157.933 115.056L161.909 115.021L161.926 112.964C163.259 112.998 164.597 112.975 165.931 112.976C165.878 112.299 165.894 111.608 165.886 110.928L167.868 110.943L167.917 108.823C168.582 108.836 169.249 108.826 169.914 108.826L169.912 110.937L175.904 110.922C175.897 111.608 175.878 112.295 175.85 112.981L181.832 112.981L181.842 110.952L185.832 110.936L185.828 108.827L187.842 108.83L187.862 106.777Z" fill="#0089A8"/>
<path d="M110.272 100.926C110.422 101.484 110.388 102.055 110.38 102.627C110.968 102.617 111.558 102.618 112.145 102.593C112.106 103.814 111.876 105.526 112.184 106.702C111.539 106.673 110.888 106.688 110.243 106.686C110.24 104.766 110.25 102.846 110.272 100.926Z" fill="#0089A8"/>
<path d="M169.905 102.629L171.855 102.629C171.86 103.326 171.882 104.027 171.861 104.724L169.913 104.734L169.905 102.629Z" fill="#66EAFF"/>
<path d="M175.903 98.5303L177.858 98.534L177.856 100.574L175.881 100.59C175.855 99.902 175.879 99.2183 175.903 98.5303Z" fill="#66EAFF"/>
<path d="M122.062 98.5518C124.059 98.5469 126.056 98.5276 128.053 98.4941L128.052 100.572L130.052 100.58L130.056 102.63L132.017 102.63L132.033 104.732C130.709 104.732 129.382 104.751 128.058 104.719L128.056 102.622C124.745 102.66 121.405 102.735 118.096 102.632L118.091 100.575L122.076 100.577L122.062 98.5518Z" fill="#66EAFF"/>
<path d="M177.875 102.641C179.868 102.629 181.861 102.63 183.854 102.643L183.847 104.714L185.814 104.736L185.851 106.769L181.694 106.775L177.857 106.769L177.855 108.838L175.898 108.842C175.859 107.47 175.835 106.093 175.919 104.722L177.863 104.748L177.875 102.641Z" fill="#66EAFF"/>
<path d="M138.012 104.739L144.001 104.74L143.998 106.777L145.967 106.771C146.021 108.162 145.987 109.547 145.955 110.938C145.311 110.909 144.659 110.936 144.014 110.944L144.003 108.83C141.345 108.854 138.688 108.854 136.03 108.829C136 108.139 136.023 107.464 136.061 106.774L138.016 106.775L138.012 104.739Z" fill="#66EAFF"/>
<path d="M155.964 104.746C158.617 104.706 161.274 104.733 163.928 104.726L163.924 108.832C163.255 108.848 162.584 108.836 161.914 108.836L161.916 106.777L157.935 106.763L157.934 108.824C156.615 108.846 155.295 108.847 153.976 108.829L153.965 106.782L155.959 106.777C155.935 106.1 155.954 105.423 155.964 104.746Z" fill="#66EAFF"/>
<path d="M116.073 102.642L118.096 102.632L118.097 104.73L116.148 104.738L116.073 102.642Z" fill="#66EAFF"/>
<path d="M134.052 108.84L136.032 108.83L135.995 110.937C135.347 110.914 134.695 110.93 134.046 110.93L134.052 108.84Z" fill="#66EAFF"/>
<path d="M142.526 179.973C141.973 179.531 141.494 178.906 141.254 178.244C140.203 175.56 142.416 172.36 143.633 170.099C144.278 168.867 144.887 167.616 145.459 166.348L146.473 168.738C147.727 171.625 150.475 175.082 149.147 178.355C148.723 179.384 148.059 180.157 147.008 180.58C145.938 181.021 144.573 181.039 143.485 180.58C143.135 180.432 142.803 180.212 142.526 179.973Z" fill="#00C1DF"/>
<path d="M142.526 179.973L142.711 179.807C143.338 180.046 143.909 180.212 144.592 180.249C145.606 180.304 147.118 180.285 147.893 179.513C148.391 179.017 148.483 178.336 148.446 177.656C148.409 177.141 148.262 177.049 147.893 176.755L147.672 176.829C147.616 177.196 147.598 177.527 147.395 177.84L147.1 177.785C146.639 176.939 147.266 175.946 147.155 175.045C146.971 173.611 146.104 172.177 145.846 170.706C145.735 170.062 145.772 169.327 146.159 168.775H146.455C147.709 171.643 150.457 175.1 149.129 178.355C148.705 179.384 148.041 180.157 146.989 180.58C145.92 181.021 144.555 181.039 143.467 180.58C143.116 180.433 142.784 180.212 142.508 179.973H142.526Z" fill="#66EAFF"/>
<path d="M144.131 170.485L144.481 170.761C144.813 171.827 144.869 172.986 144.537 174.052C144.352 174.659 144.131 174.879 143.559 175.174C143.319 174.935 143.08 174.659 142.969 174.328C142.582 173.114 143.541 171.515 144.131 170.485Z" fill="#66EAFF"/>
<path d="M144.094 177.546C144.463 177.527 144.85 177.491 145.219 177.509C145.643 177.527 145.883 177.564 146.159 177.877C146.067 178.373 145.625 178.631 145.274 178.943C144.629 179.072 143.872 179.201 143.301 178.778C143.098 178.631 143.153 178.557 143.135 178.336C143.393 177.913 143.688 177.766 144.094 177.546Z" fill="#66EAFF"/>
<path d="M127.127 152.879C127.237 153.081 127.2 152.989 127.274 153.191C128.325 155.931 130.446 158.892 131.092 161.613C131.387 162.863 131.387 164.334 130.686 165.456C129.911 166.669 128.657 167.092 127.329 167.405C126.776 167.313 126.186 167.24 125.67 167.056C124.711 166.725 123.825 166.008 123.383 165.107C121.723 161.631 125.928 156.281 127.108 152.897L127.127 152.879Z" fill="#00C1DF"/>
<path d="M126.001 156.869C126.204 156.943 126.315 157.035 126.499 157.163C126.813 158.193 126.96 159.278 126.628 160.326C126.444 160.933 126.094 161.153 125.559 161.429C125.264 161.264 125.005 161.025 124.858 160.731C124.286 159.462 125.448 158.248 125.909 157.145C125.946 157.053 125.983 156.961 126.02 156.869H126.001Z" fill="#66EAFF"/>
<path d="M137.27 138.61C137.915 139.438 140.977 146.26 141.143 147.252C141.327 148.356 141.18 149.569 140.497 150.47C139.76 151.445 138.635 151.794 137.454 151.96C137.067 151.923 136.698 151.868 136.329 151.757C135.296 151.463 134.282 150.893 133.784 149.9C131.977 146.443 136.182 142.049 137.214 138.831L137.288 138.61H137.27Z" fill="#00C1DF"/>
<path d="M136.237 141.902C136.403 141.994 136.476 142.086 136.606 142.233C136.772 143.189 137.196 144.918 136.864 145.837C136.698 146.297 136.495 146.37 136.108 146.609C136.071 146.573 136.015 146.554 135.979 146.517C135.702 146.334 135.388 146.168 135.241 145.855C134.706 144.771 135.794 142.895 136.237 141.884V141.902Z" fill="#66EAFF"/>
<path d="M135.592 149C135.942 148.963 136.311 148.945 136.662 148.926C137.215 148.889 137.565 148.889 137.989 149.257C137.989 149.827 137.676 150.121 137.381 150.599C136.828 150.599 136.108 150.655 135.592 150.434C135.205 150.268 135.186 150.213 135.039 149.846C135.168 149.478 135.315 149.276 135.592 149Z" fill="#66EAFF"/>
<path d="M172.204 143.669C172.72 144.184 175.745 150.619 175.966 151.594C176.206 152.697 176.169 154.003 175.524 154.977C174.767 156.136 173.513 156.522 172.241 156.798C171.853 156.724 171.448 156.669 171.06 156.559C170.065 156.264 169.142 155.584 168.7 154.646C167.058 151.171 170.95 147.034 172.112 143.926L172.204 143.687V143.669Z" fill="#00C1DF"/>
<path d="M171.411 147.145L171.632 147.328C171.927 148.321 172.075 149.884 171.522 150.84C171.3 151.208 171.005 151.263 170.599 151.374C170.304 150.951 170.046 150.509 169.77 150.068C170.194 148.983 170.544 147.99 171.411 147.163V147.145Z" fill="#66EAFF"/>
<path d="M171.429 153.396C171.872 153.396 172.296 153.359 172.683 153.58C172.923 153.708 172.886 153.764 172.941 154.003C172.739 154.591 172.296 154.885 171.816 155.253C171.319 155.235 170.655 155.161 170.341 154.72C170.12 154.426 170.175 154.297 170.267 153.966C170.636 153.58 170.913 153.506 171.411 153.396H171.429Z" fill="#66EAFF"/>
<path d="M159.516 143.032C159.221 142.811 159.036 142.443 158.907 142.112C157.561 138.931 161.305 134.592 162.374 131.668L162.467 131.411C162.835 132.017 163.186 132.587 163.407 133.268L163.481 133.47C164.569 136.155 167.299 139.133 166.044 142.186C166.026 142.241 165.989 142.296 165.971 142.37C165.952 142.425 165.915 142.48 165.878 142.535C165.842 142.59 165.823 142.645 165.786 142.701C165.749 142.756 165.712 142.811 165.676 142.866C165.639 142.921 165.602 142.976 165.565 143.032C165.528 143.087 165.491 143.142 165.454 143.179C165.417 143.215 165.38 143.271 165.325 143.326C165.288 143.381 165.233 143.418 165.196 143.473C165.159 143.51 165.104 143.565 165.049 143.602C164.993 143.638 164.956 143.693 164.901 143.73C164.846 143.767 164.809 143.804 164.753 143.841C164.698 143.877 164.643 143.914 164.587 143.951C164.532 143.988 164.477 144.024 164.421 144.061C164.366 144.098 164.311 144.116 164.255 144.153C164.2 144.19 164.145 144.208 164.089 144.245C164.034 144.263 163.979 144.3 163.905 144.319C162.891 144.723 161.858 144.631 160.899 144.153C160.364 143.877 159.903 143.546 159.516 143.068V143.032Z" fill="#00C1DF"/>
<path d="M163.886 141.469C164.55 139.317 163.37 137.699 163.02 135.658C162.891 134.849 162.927 133.966 163.388 133.286L163.462 133.488C164.55 136.173 167.28 139.152 166.026 142.204C166.007 142.259 165.97 142.314 165.952 142.388C165.934 142.443 165.897 142.498 165.86 142.553C165.823 142.609 165.804 142.664 165.768 142.719C165.731 142.774 165.694 142.829 165.657 142.884C165.62 142.94 165.583 142.995 165.546 143.05C165.509 143.105 165.472 143.16 165.436 143.197C165.399 143.234 165.362 143.289 165.306 143.344C165.27 143.399 165.214 143.436 165.177 143.491C165.141 143.528 165.085 143.583 165.03 143.62C164.975 143.657 164.938 143.712 164.882 143.749C164.827 143.785 164.79 143.822 164.735 143.859C164.679 143.896 164.624 143.932 164.569 143.969C164.513 144.006 164.458 144.043 164.403 144.08C164.347 144.116 164.292 144.135 164.237 144.172C164.181 144.208 164.126 144.227 164.071 144.263C164.016 144.282 163.96 144.319 163.886 144.337C162.872 144.742 161.839 144.65 160.88 144.172C160.345 143.896 159.884 143.565 159.497 143.087C160.087 143.307 160.641 143.583 161.194 143.896C162.356 144.135 163.241 143.969 164.366 143.657C164.864 143.179 165.804 142.388 165.841 141.652C165.841 141.45 165.675 141.377 165.528 141.248C164.864 141.101 164.477 141.285 163.868 141.524L163.886 141.469Z" fill="#66EAFF"/>
<path d="M161.452 134.886L161.655 134.996C162.005 135.382 162.079 136.026 162.061 136.522C162.024 137.405 161.729 137.754 161.102 138.343C160.825 138.306 160.899 138.343 160.677 138.232C160.493 138.14 160.53 138.195 160.456 137.956C160.124 136.945 160.954 135.75 161.452 134.904V134.886Z" fill="#66EAFF"/>
<path d="M163.311 158.57C163.809 159.121 164.104 160.114 164.418 160.795C165.34 162.707 166.705 164.527 166.963 166.679C167.092 167.782 166.907 169.032 166.17 169.896C165.414 170.779 164.399 171.073 163.274 171.147C162.813 171.092 162.389 171.037 161.965 170.889C161.116 170.577 160.305 169.896 159.918 169.051C158.442 165.741 162.241 161.732 163.256 158.772L163.33 158.57H163.311Z" fill="#00C1DF"/>
<path d="M162.352 161.88C162.665 162.487 162.868 163.185 163.108 163.81C162.868 164.675 162.702 165.208 162.001 165.796C161.872 165.741 161.651 165.668 161.54 165.594C161.319 165.447 161.227 165.263 161.172 165.006C160.95 163.994 161.835 162.689 162.352 161.861V161.88Z" fill="#66EAFF"/>
<path d="M161.725 168.297C162.444 168.297 163.44 168.15 164.03 168.573C163.975 168.995 163.772 169.106 163.495 169.418C163.274 169.584 163.145 169.657 162.868 169.694C162.315 169.749 162.02 169.602 161.632 169.234C161.54 168.812 161.596 168.701 161.743 168.297H161.725Z" fill="#66EAFF"/>
<path d="M152.356 148.383C152.983 148.935 155.27 154.12 155.547 155.095C155.842 156.179 155.934 157.503 155.288 158.496C154.661 159.471 153.481 159.82 152.411 160.059C151.969 160.004 151.489 159.93 151.065 159.765C150.217 159.452 149.442 158.846 149.11 157.981C148.022 155.242 151.249 150.921 152.356 148.365V148.383Z" fill="#00C1DF"/>
<path d="M151.674 151.196C151.674 151.196 151.784 151.325 151.803 151.399C152.098 152.042 152.116 154.212 151.674 154.819C151.379 155.223 151.176 155.242 150.733 155.37C150.493 155.002 150.235 154.616 150.198 154.175C150.106 152.998 150.973 152.06 151.655 151.196H151.674Z" fill="#66EAFF"/>
<path d="M151.784 157.411C152.282 157.393 152.743 157.319 153.149 157.595C152.983 158.073 152.43 158.423 152.042 158.735C151.747 158.754 151.36 158.809 151.065 158.735C150.696 158.643 150.585 158.459 150.401 158.165L150.512 157.834C150.899 157.485 151.268 157.467 151.766 157.411H151.784Z" fill="#66EAFF"/>
<path d="M148.664 132.22L148.848 132.146C149.457 133.01 151.338 136.908 151.688 137.901C151.928 138.582 152.002 139.317 152.057 140.053C151.633 141.119 151.264 142.057 150.139 142.535C149.77 142.7 149.438 142.737 149.051 142.792C148.848 142.829 148.848 142.847 148.608 142.847C147.742 142.847 147.059 142.461 146.469 141.873C146.082 141.487 145.842 141.119 145.658 140.604C144.809 138.232 147.613 134.371 148.664 132.22Z" fill="#00C1DF"/>
<path d="M148.664 132.22L148.848 132.146C149.457 133.01 151.338 136.908 151.688 137.901C151.928 138.582 152.002 139.317 152.057 140.053C151.633 141.119 151.264 142.057 150.139 142.535C149.77 142.7 149.438 142.737 149.051 142.792C148.996 142.498 148.959 142.627 149.125 142.369C149.623 142.369 150.268 142.204 150.655 141.891C151.08 141.542 151.43 141.046 151.467 140.494C151.172 140.089 150.508 139.906 150.047 139.703L149.918 139.28C149.918 139.133 149.955 138.986 149.955 138.839C149.991 137.956 149.254 134.463 148.719 133.874C148.608 134.187 148.553 134.426 148.295 134.628C148.037 134.573 148.147 134.628 147.944 134.389C148.369 133.764 148.645 133.157 148.682 132.385C148.682 132.33 148.682 132.275 148.682 132.238L148.664 132.22Z" fill="#66EAFF"/>
<path d="M147.852 134.757C147.945 134.812 148 134.83 148.055 134.922C148.406 135.4 148.479 137.092 148.332 137.662C148.221 138.14 147.889 138.25 147.52 138.508C147.262 138.269 146.912 137.975 146.783 137.644C146.432 136.669 147.354 135.547 147.852 134.775V134.757Z" fill="#66EAFF"/>
<path d="M148.258 141.91C147.926 141.781 147.649 141.634 147.336 141.45C147.151 141.137 147.151 141.156 147.244 140.825C147.539 140.604 147.779 140.475 148.147 140.439C148.664 140.365 148.977 140.475 149.383 140.77C149.014 141.156 148.645 141.542 148.258 141.91Z" fill="#66EAFF"/>
<path d="M143.71 124.66L143.932 124.2L144.153 124.274C144.282 124.568 144.466 124.899 144.559 125.212C145.352 126.443 146.403 127.786 146.052 129.33C146.016 129.514 146.016 129.477 145.96 129.624C145.536 130.176 145.075 130.599 144.337 130.691C143.71 130.765 143.194 130.599 142.604 130.36C142.327 130.047 142.069 129.735 141.94 129.312C141.626 128.282 142.087 127.473 142.548 126.591L143.673 124.623L143.71 124.66Z" fill="#00C1DF"/>
<path d="M144.54 127.675C144.392 127.234 144.263 126.719 144.226 126.241C144.19 125.763 144.282 125.579 144.577 125.229C145.37 126.461 146.421 127.804 146.071 129.348C146.034 129.532 146.034 129.495 145.979 129.642C145.794 129.367 145.647 129.183 145.37 128.999L145.241 128.907C144.669 128.502 144.651 128.337 144.54 127.657V127.675Z" fill="#66EAFF"/>
<path d="M142.585 126.627L143.71 124.66C143.968 125.726 144.097 126.535 143.821 127.62L143.581 127.859C143.23 127.786 143.101 127.749 142.88 127.418C142.788 127.289 142.751 127.068 142.714 126.903C142.659 126.701 142.696 126.793 142.585 126.59V126.627Z" fill="#66EAFF"/>
<path d="M126.278 141.81L126.555 141.663C126.813 141.976 126.961 142.233 127.127 142.601C127.698 143.557 128.547 144.844 128.159 146.021C128.03 146.425 127.827 146.664 127.44 146.848C126.905 147.106 126.204 146.995 125.651 146.848C125.282 146.591 125.006 146.278 124.84 145.855C124.6 145.212 124.95 144.513 125.19 143.925C125.596 143.226 126.02 142.546 126.297 141.792L126.278 141.81Z" fill="#00C1DF"/>
<path d="M125.633 146.867C125.854 146.793 126.112 146.756 126.352 146.701C126.85 146.573 127.127 146.462 127.403 146.003C127.496 145.396 127.071 144.991 126.887 144.44C126.702 143.87 126.813 143.097 127.127 142.583C127.698 143.539 128.547 144.826 128.159 146.003C128.03 146.407 127.827 146.646 127.44 146.83C126.905 147.087 126.205 146.977 125.651 146.83L125.633 146.867Z" fill="#66EAFF"/>
<path d="M126.278 141.81C126.334 142.582 126.555 144.108 126.094 144.752C125.928 144.605 125.799 144.458 125.651 144.274C125.504 144.09 125.393 144.035 125.172 143.943C125.578 143.244 126.002 142.564 126.278 141.81Z" fill="#66EAFF"/>
<path d="M144.647 157.669L145.182 158.643C145.661 159.434 146.104 160.151 146.344 161.052C146.307 161.218 146.251 161.383 146.196 161.549C146.03 161.99 145.661 162.321 145.219 162.523C144.813 162.707 144.333 162.725 143.909 162.523C143.522 162.321 143.264 161.935 143.19 161.512C142.895 160.096 143.928 158.791 144.628 157.669H144.647Z" fill="#00C1DF"/>
<path d="M145.182 158.643C145.661 159.434 146.104 160.151 146.344 161.052C146.122 161.015 145.827 160.979 145.625 160.887C145.366 160.776 145.293 160.666 145.182 160.409C144.942 159.912 144.979 159.14 145.182 158.625V158.643Z" fill="#66EAFF"/>
<path d="M294 52V12L290.816 6L9.18367 6L6 11.9764V15.8013V52H294Z" fill="#CBCBCB"/>
<path d="M294 6H288V12H294V6Z" fill="#365969"/>
<path d="M294 273H288V267H294V273Z" fill="#365969"/>
<path d="M12 6H6V12H12V6Z" fill="#365969"/>
<path d="M12 273H6V267H12V273Z" fill="#365969"/>
<g clip-path="url(#clip1_697_339818)">
<path d="M-24 0H18V6H-24V0Z" fill="#365969"/>
<path d="M-18 0H24V6H-18V0Z" fill="#365969"/>
<path d="M-12 0H30V6H-12V0Z" fill="#365969"/>
<path d="M-6 0H36V6H-6V0Z" fill="#365969"/>
<path d="M6 0H48V6H6V0Z" fill="#365969"/>
<path d="M12 0H54V6H12V0Z" fill="#365969"/>
<path d="M18 0H60V6H18V0Z" fill="#365969"/>
<path d="M24 0H66V6H24V0Z" fill="#365969"/>
<path d="M30 0H72V6H30V0Z" fill="#365969"/>
<path d="M36 0H78V6H36V0Z" fill="#365969"/>
<path d="M42 0H84V6H42V0Z" fill="#365969"/>
<path d="M48 0H90V6H48V0Z" fill="#365969"/>
<path d="M54 0H96V6H54V0Z" fill="#365969"/>
<path d="M60 0H102V6H60V0Z" fill="#365969"/>
<path d="M66 0H108V6H66V0Z" fill="#365969"/>
<path d="M72 0H114V6H72V0Z" fill="#365969"/>
<path d="M78 0H120V6H78V0Z" fill="#365969"/>
<path d="M84 0H126V6H84V0Z" fill="#365969"/>
<path d="M90 0H132V6H90V0Z" fill="#365969"/>
<path d="M96 0H138V6H96V0Z" fill="#365969"/>
<path d="M102 0H144V6H102V0Z" fill="#365969"/>
<path d="M108 0H150V6H108V0Z" fill="#365969"/>
<path d="M114 0H156V6H114V0Z" fill="#365969"/>
<path d="M120 0H162V6H120V0Z" fill="#365969"/>
<path d="M126 0H168V6H126V0Z" fill="#365969"/>
<path d="M132 0H174V6H132V0Z" fill="#365969"/>
<path d="M138 0H180V6H138V0Z" fill="#365969"/>
<path d="M144 0H186V6H144V0Z" fill="#365969"/>
<path d="M150 0H192V6H150V0Z" fill="#365969"/>
<path d="M156 0H198V6H156V0Z" fill="#365969"/>
<path d="M162 0H204V6H162V0Z" fill="#365969"/>
<path d="M168 0H210V6H168V0Z" fill="#365969"/>
<path d="M174 0H216V6H174V0Z" fill="#365969"/>
<path d="M180 0H222V6H180V0Z" fill="#365969"/>
<path d="M186 0H228V6H186V0Z" fill="#365969"/>
<path d="M192 0H234V6H192V0Z" fill="#365969"/>
<path d="M198 0H240V6H198V0Z" fill="#365969"/>
<path d="M204 0H246V6H204V0Z" fill="#365969"/>
<path d="M210 0H252V6H210V0Z" fill="#365969"/>
<path d="M216 0H258V6H216V0Z" fill="#365969"/>
<path d="M222 0H264V6H222V0Z" fill="#365969"/>
<path d="M228 0H270V6H228V0Z" fill="#365969"/>
<path d="M234 0H276V6H234V0Z" fill="#365969"/>
<path d="M240 0H282V6H240V0Z" fill="#365969"/>
<path d="M246 0H288V6H246V0Z" fill="#365969"/>
<path d="M252 0H294V6H252V0Z" fill="#365969"/>
<path d="M258 0H300V6H258V0Z" fill="#365969"/>
<path d="M264 0H306V6H264V0Z" fill="#365969"/>
<path d="M270 0H312V6H270V0Z" fill="#365969"/>
<path d="M276 0H318V6H276V0Z" fill="#365969"/>
<path d="M282 0H324V6H282V0Z" fill="#365969"/>
</g>
<g clip-path="url(#clip2_697_339818)">
<path d="M-24 279H18V273H-24V279Z" fill="#365969"/>
<path d="M-18 279H24V273H-18V279Z" fill="#365969"/>
<path d="M-12 279H30V273H-12V279Z" fill="#365969"/>
<path d="M-6 279H36V273H-6V279Z" fill="#365969"/>
<path d="M0 279H42V273H0V279Z" fill="#365969"/>
<path d="M6 279H48V273H6V279Z" fill="#365969"/>
<path d="M12 279H54V273H12V279Z" fill="#365969"/>
<path d="M18 279H60V273H18V279Z" fill="#365969"/>
<path d="M24 279H66V273H24V279Z" fill="#365969"/>
<path d="M30 279H72V273H30V279Z" fill="#365969"/>
<path d="M36 279H78V273H36V279Z" fill="#365969"/>
<path d="M42 279H84V273H42V279Z" fill="#365969"/>
<path d="M48 279H90V273H48V279Z" fill="#365969"/>
<path d="M54 279H96V273H54V279Z" fill="#365969"/>
<path d="M60 279H102V273H60V279Z" fill="#365969"/>
<path d="M66 279H108V273H66V279Z" fill="#365969"/>
<path d="M72 279H114V273H72V279Z" fill="#365969"/>
<path d="M78 279H120V273H78V279Z" fill="#365969"/>
<path d="M84 279H126V273H84V279Z" fill="#365969"/>
<path d="M90 279H132V273H90V279Z" fill="#365969"/>
<path d="M96 279H138V273H96V279Z" fill="#365969"/>
<path d="M102 279H144V273H102V279Z" fill="#365969"/>
<path d="M108 279H150V273H108V279Z" fill="#365969"/>
<path d="M114 279H156V273H114V279Z" fill="#365969"/>
<path d="M120 279H162V273H120V279Z" fill="#365969"/>
<path d="M126 279H168V273H126V279Z" fill="#365969"/>
<path d="M132 279H174V273H132V279Z" fill="#365969"/>
<path d="M138 279H180V273H138V279Z" fill="#365969"/>
<path d="M144 279H186V273H144V279Z" fill="#365969"/>
<path d="M150 279H192V273H150V279Z" fill="#365969"/>
<path d="M156 279H198V273H156V279Z" fill="#365969"/>
<path d="M162 279H204V273H162V279Z" fill="#365969"/>
<path d="M168 279H210V273H168V279Z" fill="#365969"/>
<path d="M174 279H216V273H174V279Z" fill="#365969"/>
<path d="M180 279H222V273H180V279Z" fill="#365969"/>
<path d="M186 279H228V273H186V279Z" fill="#365969"/>
<path d="M192 279H234V273H192V279Z" fill="#365969"/>
<path d="M198 279H240V273H198V279Z" fill="#365969"/>
<path d="M204 279H246V273H204V279Z" fill="#365969"/>
<path d="M210 279H252V273H210V279Z" fill="#365969"/>
<path d="M216 279H258V273H216V279Z" fill="#365969"/>
<path d="M222 279H264V273H222V279Z" fill="#365969"/>
<path d="M228 279H270V273H228V279Z" fill="#365969"/>
<path d="M234 279H276V273H234V279Z" fill="#365969"/>
<path d="M240 279H282V273H240V279Z" fill="#365969"/>
<path d="M246 279H288V273H246V279Z" fill="#365969"/>
<path d="M252 279H294V273H252V279Z" fill="#365969"/>
<path d="M258 279H300V273H258V279Z" fill="#365969"/>
<path d="M264 279H306V273H264V279Z" fill="#365969"/>
<path d="M270 279H312V273H270V279Z" fill="#365969"/>
<path d="M276 279H318V273H276V279Z" fill="#365969"/>
<path d="M282 279H324V273H282V279Z" fill="#365969"/>
</g>
<g clip-path="url(#clip3_697_339818)">
<path d="M-30 58H12V52H-30V58Z" fill="#F3F3F3"/>
<path d="M-24 58H18V52H-24V58Z" fill="#F3F3F3"/>
<path d="M-18 58H24V52H-18V58Z" fill="#F3F3F3"/>
<path d="M-12 58H30V52H-12V58Z" fill="#F3F3F3"/>
<path d="M6 58H48V52H6V58Z" fill="#F3F3F3"/>
<path d="M12 58H54V52H12V58Z" fill="#F3F3F3"/>
<path d="M18 58H60V52H18V58Z" fill="#F3F3F3"/>
<path d="M24 58H66V52H24V58Z" fill="#F3F3F3"/>
<path d="M30 58H72V52H30V58Z" fill="#F3F3F3"/>
<path d="M36 58H78V52H36V58Z" fill="#F3F3F3"/>
<path d="M42 58H84V52H42V58Z" fill="#F3F3F3"/>
<path d="M48 58H90V52H48V58Z" fill="#F3F3F3"/>
<path d="M54 58H96V52H54V58Z" fill="#F3F3F3"/>
<path d="M60 58H102V52H60V58Z" fill="#F3F3F3"/>
<path d="M66 58H108V52H66V58Z" fill="#F3F3F3"/>
<path d="M72 58H114V52H72V58Z" fill="#F3F3F3"/>
<path d="M78 58H120V52H78V58Z" fill="#F3F3F3"/>
<path d="M84 58H126V52H84V58Z" fill="#F3F3F3"/>
<path d="M90 58H132V52H90V58Z" fill="#F3F3F3"/>
<path d="M96 58H138V52H96V58Z" fill="#F3F3F3"/>
<path d="M102 58H144V52H102V58Z" fill="#F3F3F3"/>
<path d="M108 58H150V52H108V58Z" fill="#F3F3F3"/>
<path d="M114 58H156V52H114V58Z" fill="#F3F3F3"/>
<path d="M120 58H162V52H120V58Z" fill="#F3F3F3"/>
<path d="M126 58H168V52H126V58Z" fill="#F3F3F3"/>
<path d="M132 58H174V52H132V58Z" fill="#F3F3F3"/>
<path d="M138 58H180V52H138V58Z" fill="#F3F3F3"/>
<path d="M144 58H186V52H144V58Z" fill="#F3F3F3"/>
<path d="M150 58H192V52H150V58Z" fill="#F3F3F3"/>
<path d="M156 58H198V52H156V58Z" fill="#F3F3F3"/>
<path d="M162 58H204V52H162V58Z" fill="#F3F3F3"/>
<path d="M168 58H210V52H168V58Z" fill="#F3F3F3"/>
<path d="M174 58H216V52H174V58Z" fill="#F3F3F3"/>
<path d="M180 58H222V52H180V58Z" fill="#F3F3F3"/>
<path d="M186 58H228V52H186V58Z" fill="#F3F3F3"/>
<path d="M192 58H234V52H192V58Z" fill="#F3F3F3"/>
<path d="M198 58H240V52H198V58Z" fill="#F3F3F3"/>
<path d="M204 58H246V52H204V58Z" fill="#F3F3F3"/>
<path d="M210 58H252V52H210V58Z" fill="#F3F3F3"/>
<path d="M216 58H258V52H216V58Z" fill="#F3F3F3"/>
<path d="M222 58H264V52H222V58Z" fill="#F3F3F3"/>
<path d="M228 58H270V52H228V58Z" fill="#F3F3F3"/>
<path d="M234 58H276V52H234V58Z" fill="#F3F3F3"/>
<path d="M240 58H282V52H240V58Z" fill="#F3F3F3"/>
<path d="M246 58H288V52H246V58Z" fill="#F3F3F3"/>
<path d="M252 58H294V52H252V58Z" fill="#F3F3F3"/>
<path d="M258 58H300V52H258V58Z" fill="#F3F3F3"/>
<path d="M264 58H306V52H264V58Z" fill="#F3F3F3"/>
<path d="M270 58H312V52H270V58Z" fill="#F3F3F3"/>
<path d="M276 58H318V52H276V58Z" fill="#F3F3F3"/>
<path d="M282 58H324V52H282V58Z" fill="#F3F3F3"/>
</g>
<path d="M6 139H0V12H6V139Z" fill="#365969"/>
<path d="M6 145H0V18H6V145Z" fill="#365969"/>
<path d="M6 151H0V24H6V151Z" fill="#365969"/>
<path d="M6 157H0V30H6V157Z" fill="#365969"/>
<path d="M6 163H0V36H6V163Z" fill="#365969"/>
<path d="M6 169H0V42H6V169Z" fill="#365969"/>
<path d="M6 175H0V48H6V175Z" fill="#365969"/>
<path d="M6 181H0V54H6V181Z" fill="#365969"/>
<path d="M6 187H0V60H6V187Z" fill="#365969"/>
<path d="M6 193H0V66H6V193Z" fill="#365969"/>
<path d="M6 199H0V72H6V199Z" fill="#365969"/>
<path d="M6 205H0V78H6V205Z" fill="#365969"/>
<path d="M6 211H0V84H6V211Z" fill="#365969"/>
<path d="M6 217H0V90H6V217Z" fill="#365969"/>
<path d="M6 223H0V96H6V223Z" fill="#365969"/>
<path d="M6 229H0V102H6V229Z" fill="#365969"/>
<path d="M6 235H0V108H6V235Z" fill="#365969"/>
<path d="M6 241H0V114H6V241Z" fill="#365969"/>
<path d="M6 247H0V120H6V247Z" fill="#365969"/>
<path d="M6 253H0V126H6V253Z" fill="#365969"/>
<path d="M6 259H0V132H6V259Z" fill="#365969"/>
<path d="M6 265H0V138H6V265Z" fill="#365969"/>
<path d="M6 267H0V140H6V267Z" fill="#365969"/>
<path d="M300 139H294V12H300V139Z" fill="#365969"/>
<path d="M300 145H294V18H300V145Z" fill="#365969"/>
<path d="M300 151H294V24H300V151Z" fill="#365969"/>
<path d="M300 157H294V30H300V157Z" fill="#365969"/>
<path d="M300 163H294V36H300V163Z" fill="#365969"/>
<path d="M300 169H294V42H300V169Z" fill="#365969"/>
<path d="M300 175H294V48H300V175Z" fill="#365969"/>
<path d="M300 181H294V54H300V181Z" fill="#365969"/>
<path d="M300 187H294V60H300V187Z" fill="#365969"/>
<path d="M300 193H294V66H300V193Z" fill="#365969"/>
<path d="M300 199H294V72H300V199Z" fill="#365969"/>
<path d="M300 205H294V78H300V205Z" fill="#365969"/>
<path d="M300 211H294V84H300V211Z" fill="#365969"/>
<path d="M300 217H294V90H300V217Z" fill="#365969"/>
<path d="M300 223H294V96H300V223Z" fill="#365969"/>
<path d="M300 229H294V102H300V229Z" fill="#365969"/>
<path d="M300 235H294V108H300V235Z" fill="#365969"/>
<path d="M300 241H294V114H300V241Z" fill="#365969"/>
<path d="M300 247H294V120H300V247Z" fill="#365969"/>
<path d="M300 253H294V126H300V253Z" fill="#365969"/>
<path d="M300 259H294V132H300V259Z" fill="#365969"/>
<path d="M300 265H294V138H300V265Z" fill="#365969"/>
<path d="M300 267H294V140H300V267Z" fill="#365969"/>
<path d="M22 22.0714H23.3929V23.4643H22V22.0714ZM23.3929 22.0714H24.7857V23.4643H23.3929V22.0714ZM24.7857 22.0714H26.1786V23.4643H24.7857V22.0714ZM26.1786 22.0714H27.5714V23.4643H26.1786V22.0714ZM27.5714 22.0714H28.9643V23.4643H27.5714V22.0714ZM28.9643 22.0714H30.3571V23.4643H28.9643V22.0714ZM28.9643 23.4643H30.3571V24.8571H28.9643V23.4643ZM27.5714 23.4643H28.9643V24.8571H27.5714V23.4643ZM26.1786 23.4643H27.5714V24.8571H26.1786V23.4643ZM24.7857 23.4643H26.1786V24.8571H24.7857V23.4643ZM23.3929 23.4643H24.7857V24.8571H23.3929V23.4643ZM22 23.4643H23.3929V24.8571H22V23.4643ZM30.3571 23.4643H31.75V24.8571H30.3571V23.4643ZM28.9643 24.8571H30.3571V26.25H28.9643V24.8571ZM30.3571 24.8571H31.75V26.25H30.3571V24.8571ZM30.3571 26.25H31.75V27.6429H30.3571V26.25ZM30.3571 27.6429H31.75V29.0357H30.3571V27.6429ZM28.9643 27.6429H30.3571V29.0357H28.9643V27.6429ZM28.9643 26.25H30.3571V27.6429H28.9643V26.25ZM28.9643 29.0357H30.3571V30.4286H28.9643V29.0357ZM28.9643 30.4286H30.3571V31.8214H28.9643V30.4286ZM27.5714 30.4286H28.9643V31.8214H27.5714V30.4286ZM27.5714 29.0357H28.9643V30.4286H27.5714V29.0357ZM26.1786 29.0357H27.5714V30.4286H26.1786V29.0357ZM26.1786 30.4286H27.5714V31.8214H26.1786V30.4286ZM24.7857 30.4286H26.1786V31.8214H24.7857V30.4286ZM24.7857 29.0357H26.1786V30.4286H24.7857V29.0357ZM23.3929 29.0357H24.7857V30.4286H23.3929V29.0357ZM22 29.0357H23.3929V30.4286H22V29.0357ZM22 30.4286H23.3929V31.8214H22V30.4286ZM23.3929 30.4286H24.7857V31.8214H23.3929V30.4286ZM22 24.8571H23.3929V26.25H22V24.8571ZM23.3929 24.8571H24.7857V26.25H23.3929V24.8571ZM23.3929 26.25H24.7857V27.6429H23.3929V26.25ZM23.3929 27.6429H24.7857V29.0357H23.3929V27.6429ZM22 26.25H23.3929V27.6429H22V26.25ZM22 27.6429H23.3929V29.0357H22V27.6429ZM22 31.8214H23.3929V33.2143H22V31.8214ZM23.3929 31.8214H24.7857V33.2143H23.3929V31.8214ZM23.3929 33.2143H24.7857V34.6071H23.3929V33.2143ZM23.3929 34.6071H24.7857V36H23.3929V34.6071ZM22 34.6071H23.3929V36H22V34.6071ZM22 33.2143H23.3929V34.6071H22V33.2143ZM30.3571 29.0357H31.75V30.4286H30.3571V29.0357ZM33.4065 26.25H34.7993V27.6429H33.4065V26.25ZM33.4065 24.8571H34.7993V26.25H33.4065V24.8571ZM34.7993 24.8571H36.1922V26.25H34.7993V24.8571ZM34.7993 26.25H36.1922V27.6429H34.7993V26.25ZM34.7993 27.6429H36.1922V29.0357H34.7993V27.6429ZM34.7993 29.0357H36.1922V30.4286H34.7993V29.0357ZM34.7993 30.4286H36.1922V31.8214H34.7993V30.4286ZM33.4065 30.4286H34.7993V31.8214H33.4065V30.4286ZM33.4065 29.0357H34.7993V30.4286H33.4065V29.0357ZM33.4065 27.6429H34.7993V29.0357H33.4065V27.6429ZM33.4065 31.8214H34.7993V33.2143H33.4065V31.8214ZM34.7993 31.8214H36.1922V33.2143H34.7993V31.8214ZM34.7993 33.2143H36.1922V34.6071H34.7993V33.2143ZM34.7993 34.6071H36.1922V36H34.7993V34.6071ZM33.4065 34.6071H34.7993V36H33.4065V34.6071ZM33.4065 33.2143H34.7993V34.6071H33.4065V33.2143ZM36.1922 26.25H37.5851V27.6429H36.1922V26.25ZM37.5851 26.25H38.9779V27.6429H37.5851V26.25ZM38.9779 26.25H40.3708V27.6429H38.9779V26.25ZM38.9779 24.8571H40.3708V26.25H38.9779V24.8571ZM37.5851 24.8571H38.9779V26.25H37.5851V24.8571ZM36.1922 27.6429H37.5851V29.0357H36.1922V27.6429ZM40.3708 26.25H41.7636V27.6429H40.3708V26.25ZM38.9779 27.6429H40.3708V29.0357H38.9779V27.6429ZM46.2022 24.8571H47.5951V26.25H46.2022V24.8571ZM44.8093 24.8571H46.2022V26.25H44.8093V24.8571ZM44.8093 26.25H46.2022V27.6429H44.8093V26.25ZM46.2022 26.25H47.5951V27.6429H46.2022V26.25ZM47.5951 24.8571H48.9879V26.25H47.5951V24.8571ZM48.9879 24.8571H50.3808V26.25H48.9879V24.8571ZM50.3808 24.8571H51.7736V26.25H50.3808V24.8571ZM50.3808 26.25H51.7736V27.6429H50.3808V26.25ZM48.9879 26.25H50.3808V27.6429H48.9879V26.25ZM50.3808 29.0357H51.7736V30.4286H50.3808V29.0357ZM51.7736 26.25H53.1665V27.6429H51.7736V26.25ZM51.7736 27.6429H53.1665V29.0357H51.7736V27.6429ZM51.7736 29.0357H53.1665V30.4286H51.7736V29.0357ZM51.7736 30.4286H53.1665V31.8214H51.7736V30.4286ZM51.7736 31.8214H53.1665V33.2143H51.7736V31.8214ZM51.7736 33.2143H53.1665V34.6071H51.7736V33.2143ZM50.3808 33.2143H51.7736V34.6071H50.3808V33.2143ZM50.3808 31.8214H51.7736V33.2143H50.3808V31.8214ZM50.3808 30.4286H51.7736V31.8214H50.3808V30.4286ZM50.3808 27.6429H51.7736V29.0357H50.3808V27.6429ZM48.9879 33.2143H50.3808V34.6071H48.9879V33.2143ZM50.3808 34.6071H51.7736V36H50.3808V34.6071ZM48.9879 34.6071H50.3808V36H48.9879V34.6071ZM47.5951 34.6071H48.9879V36H47.5951V34.6071ZM46.2022 34.6071H47.5951V36H46.2022V34.6071ZM44.8093 34.6071H46.2022V36H44.8093V34.6071ZM44.8093 33.2143H46.2022V34.6071H44.8093V33.2143ZM46.2022 33.2143H47.5951V34.6071H46.2022V33.2143ZM44.8093 31.8214H46.2022V33.2143H44.8093V31.8214ZM43.4165 33.2143H44.8093V34.6071H43.4165V33.2143ZM43.4165 31.8214H44.8093V33.2143H43.4165V31.8214ZM43.4165 30.4286H44.8093V31.8214H43.4165V30.4286ZM43.4165 29.0357H44.8093V30.4286H43.4165V29.0357ZM43.4165 27.6429H44.8093V29.0357H43.4165V27.6429ZM43.4165 26.25H44.8093V27.6429H43.4165V26.25ZM44.8093 27.6429H46.2022V29.0357H44.8093V27.6429ZM44.8093 29.0357H46.2022V30.4286H44.8093V29.0357ZM44.8093 30.4286H46.2022V31.8214H44.8093V30.4286ZM47.5951 33.2143H48.9879V34.6071H47.5951V33.2143ZM47.5951 26.25H48.9879V27.6429H47.5951V26.25ZM57.6087 24.8571H59.0015V26.25H57.6087V24.8571ZM56.2158 24.8571H57.6087V26.25H56.2158V24.8571ZM56.2158 26.25H57.6087V27.6429H56.2158V26.25ZM57.6087 26.25H59.0015V27.6429H57.6087V26.25ZM59.0015 24.8571H60.3944V26.25H59.0015V24.8571ZM60.3944 24.8571H61.7873V26.25H60.3944V24.8571ZM61.7873 24.8571H63.1801V26.25H61.7873V24.8571ZM61.7873 26.25H63.1801V27.6429H61.7873V26.25ZM60.3944 26.25H61.7873V27.6429H60.3944V26.25ZM63.1801 26.25H64.573V27.6429H63.1801V26.25ZM63.1801 27.6429H64.573V29.0357H63.1801V27.6429ZM63.1801 31.8214H64.573V33.2143H63.1801V31.8214ZM63.1801 33.2143H64.573V34.6071H63.1801V33.2143ZM61.7873 33.2143H63.1801V34.6071H61.7873V33.2143ZM61.7873 31.8214H63.1801V33.2143H61.7873V31.8214ZM61.7873 27.6429H63.1801V29.0357H61.7873V27.6429ZM60.3944 33.2143H61.7873V34.6071H60.3944V33.2143ZM61.7873 34.6071H63.1801V36H61.7873V34.6071ZM60.3944 34.6071H61.7873V36H60.3944V34.6071ZM59.0015 34.6071H60.3944V36H59.0015V34.6071ZM57.6087 34.6071H59.0015V36H57.6087V34.6071ZM56.2158 34.6071H57.6087V36H56.2158V34.6071ZM56.2158 33.2143H57.6087V34.6071H56.2158V33.2143ZM57.6087 33.2143H59.0015V34.6071H57.6087V33.2143ZM56.2158 31.8214H57.6087V33.2143H56.2158V31.8214ZM54.823 33.2143H56.2158V34.6071H54.823V33.2143ZM54.823 31.8214H56.2158V33.2143H54.823V31.8214ZM54.823 30.4286H56.2158V31.8214H54.823V30.4286ZM54.823 29.0357H56.2158V30.4286H54.823V29.0357ZM54.823 27.6429H56.2158V29.0357H54.823V27.6429ZM54.823 26.25H56.2158V27.6429H54.823V26.25ZM56.2158 27.6429H57.6087V29.0357H56.2158V27.6429ZM56.2158 29.0357H57.6087V30.4286H56.2158V29.0357ZM56.2158 30.4286H57.6087V31.8214H56.2158V30.4286ZM59.0015 33.2143H60.3944V34.6071H59.0015V33.2143ZM59.0015 26.25H60.3944V27.6429H59.0015V26.25ZM69.0152 24.8571H70.408V26.25H69.0152V24.8571ZM67.6223 24.8571H69.0152V26.25H67.6223V24.8571ZM67.6223 26.25H69.0152V27.6429H67.6223V26.25ZM69.0152 26.25H70.408V27.6429H69.0152V26.25ZM70.408 24.8571H71.8009V26.25H70.408V24.8571ZM71.8009 24.8571H73.1937V26.25H71.8009V24.8571ZM73.1937 24.8571H74.5866V26.25H73.1937V24.8571ZM73.1937 26.25H74.5866V27.6429H73.1937V26.25ZM71.8009 26.25H73.1937V27.6429H71.8009V26.25ZM74.5866 26.25H75.9795V27.6429H74.5866V26.25ZM74.5866 27.6429H75.9795V29.0357H74.5866V27.6429ZM74.5866 33.2143H75.9795V34.6071H74.5866V33.2143ZM73.1937 33.2143H74.5866V34.6071H73.1937V33.2143ZM73.1937 27.6429H74.5866V29.0357H73.1937V27.6429ZM71.8009 33.2143H73.1937V34.6071H71.8009V33.2143ZM73.1937 34.6071H74.5866V36H73.1937V34.6071ZM71.8009 34.6071H73.1937V36H71.8009V34.6071ZM70.408 34.6071H71.8009V36H70.408V34.6071ZM69.0152 34.6071H70.408V36H69.0152V34.6071ZM67.6223 34.6071H69.0152V36H67.6223V34.6071ZM67.6223 33.2143H69.0152V34.6071H67.6223V33.2143ZM69.0152 33.2143H70.408V34.6071H69.0152V33.2143ZM67.6223 31.8214H69.0152V33.2143H67.6223V31.8214ZM66.2295 33.2143H67.6223V34.6071H66.2295V33.2143ZM66.2295 31.8214H67.6223V33.2143H66.2295V31.8214ZM66.2295 30.4286H67.6223V31.8214H66.2295V30.4286ZM66.2295 29.0357H67.6223V30.4286H66.2295V29.0357ZM66.2295 27.6429H67.6223V29.0357H66.2295V27.6429ZM66.2295 26.25H67.6223V27.6429H66.2295V26.25ZM67.6223 27.6429H69.0152V29.0357H67.6223V27.6429ZM67.6223 29.0357H69.0152V30.4286H67.6223V29.0357ZM67.6223 30.4286H69.0152V31.8214H67.6223V30.4286ZM70.408 33.2143H71.8009V34.6071H70.408V33.2143ZM70.408 26.25H71.8009V27.6429H70.408V26.25ZM73.1937 29.0357H74.5866V30.4286H73.1937V29.0357ZM74.5866 29.0357H75.9795V30.4286H74.5866V29.0357ZM69.0152 30.4286H70.408V31.8214H69.0152V30.4286ZM70.408 30.4286H71.8009V31.8214H70.408V30.4286ZM71.8009 30.4286H73.1937V31.8214H71.8009V30.4286ZM73.1937 30.4286H74.5866V31.8214H73.1937V30.4286ZM74.5866 30.4286H75.9795V31.8214H74.5866V30.4286ZM71.8009 29.0357H73.1937V30.4286H71.8009V29.0357ZM70.408 29.0357H71.8009V30.4286H70.408V29.0357ZM69.0152 29.0357H70.408V30.4286H69.0152V29.0357ZM77.6359 26.25H79.0288V27.6429H77.6359V26.25ZM79.0288 27.6429H80.4217V29.0357H79.0288V27.6429ZM77.6359 27.6429H79.0288V29.0357H77.6359V27.6429ZM77.6359 29.0357H79.0288V30.4286H77.6359V29.0357ZM79.0288 29.0357H80.4217V30.4286H79.0288V29.0357ZM79.0288 30.4286H80.4217V31.8214H79.0288V30.4286ZM80.4217 30.4286H81.8145V31.8214H80.4217V30.4286ZM81.8145 30.4286H83.2074V31.8214H81.8145V30.4286ZM83.2074 29.0357H84.6002V30.4286H83.2074V29.0357ZM81.8145 29.0357H83.2074V30.4286H81.8145V29.0357ZM80.4217 29.0357H81.8145V30.4286H80.4217V29.0357ZM83.2074 30.4286H84.6002V31.8214H83.2074V30.4286ZM84.6002 30.4286H85.9931V31.8214H84.6002V30.4286ZM84.6002 31.8214H85.9931V33.2143H84.6002V31.8214ZM83.2074 31.8214H84.6002V33.2143H83.2074V31.8214ZM83.2074 33.2143H84.6002V34.6071H83.2074V33.2143ZM84.6002 33.2143H85.9931V34.6071H84.6002V33.2143ZM83.2074 34.6071H84.6002V36H83.2074V34.6071ZM81.8145 33.2143H83.2074V34.6071H81.8145V33.2143ZM80.4217 33.2143H81.8145V34.6071H80.4217V33.2143ZM79.0288 33.2143H80.4217V34.6071H79.0288V33.2143ZM77.6359 33.2143H79.0288V34.6071H77.6359V33.2143ZM79.0288 34.6071H80.4217V36H79.0288V34.6071ZM80.4217 34.6071H81.8145V36H80.4217V34.6071ZM81.8145 34.6071H83.2074V36H81.8145V34.6071ZM84.6002 26.25H85.9931V27.6429H84.6002V26.25ZM83.2074 26.25H84.6002V27.6429H83.2074V26.25ZM83.2074 24.8571H84.6002V26.25H83.2074V24.8571ZM81.8145 24.8571H83.2074V26.25H81.8145V24.8571ZM80.4217 24.8571H81.8145V26.25H80.4217V24.8571ZM79.0288 24.8571H80.4217V26.25H79.0288V24.8571ZM79.0288 26.25H80.4217V27.6429H79.0288V26.25ZM80.4217 26.25H81.8145V27.6429H80.4217V26.25ZM81.8145 26.25H83.2074V27.6429H81.8145V26.25ZM87.6459 26.25H89.0388V27.6429H87.6459V26.25ZM89.0388 27.6429H90.4316V29.0357H89.0388V27.6429ZM87.6459 27.6429H89.0388V29.0357H87.6459V27.6429ZM87.6459 29.0357H89.0388V30.4286H87.6459V29.0357ZM89.0388 29.0357H90.4316V30.4286H89.0388V29.0357ZM89.0388 30.4286H90.4316V31.8214H89.0388V30.4286ZM90.4316 30.4286H91.8245V31.8214H90.4316V30.4286ZM91.8245 30.4286H93.2174V31.8214H91.8245V30.4286ZM93.2174 29.0357H94.6102V30.4286H93.2174V29.0357ZM91.8245 29.0357H93.2174V30.4286H91.8245V29.0357ZM90.4316 29.0357H91.8245V30.4286H90.4316V29.0357ZM93.2174 30.4286H94.6102V31.8214H93.2174V30.4286ZM94.6102 30.4286H96.0031V31.8214H94.6102V30.4286ZM94.6102 31.8214H96.0031V33.2143H94.6102V31.8214ZM93.2174 31.8214H94.6102V33.2143H93.2174V31.8214ZM93.2174 33.2143H94.6102V34.6071H93.2174V33.2143ZM94.6102 33.2143H96.0031V34.6071H94.6102V33.2143ZM93.2174 34.6071H94.6102V36H93.2174V34.6071ZM91.8245 33.2143H93.2174V34.6071H91.8245V33.2143ZM90.4316 33.2143H91.8245V34.6071H90.4316V33.2143ZM89.0388 33.2143H90.4316V34.6071H89.0388V33.2143ZM87.6459 33.2143H89.0388V34.6071H87.6459V33.2143ZM89.0388 34.6071H90.4316V36H89.0388V34.6071ZM90.4316 34.6071H91.8245V36H90.4316V34.6071ZM91.8245 34.6071H93.2174V36H91.8245V34.6071ZM94.6102 26.25H96.0031V27.6429H94.6102V26.25ZM93.2174 26.25H94.6102V27.6429H93.2174V26.25ZM93.2174 24.8571H94.6102V26.25H93.2174V24.8571ZM91.8245 24.8571H93.2174V26.25H91.8245V24.8571ZM90.4316 24.8571H91.8245V26.25H90.4316V24.8571ZM89.0388 24.8571H90.4316V26.25H89.0388V24.8571ZM89.0388 26.25H90.4316V27.6429H89.0388V26.25ZM90.4316 26.25H91.8245V27.6429H90.4316V26.25ZM91.8245 26.25H93.2174V27.6429H91.8245V26.25ZM97.6559 22.0714H100.442V24.8571H97.6559V22.0714ZM97.6559 26.25H100.442V36H97.6559V26.25ZM102.105 26.25H103.498V27.6429H102.105V26.25ZM102.105 24.8571H103.498V26.25H102.105V24.8571ZM103.498 24.8571H104.891V26.25H103.498V24.8571ZM103.498 26.25H104.891V27.6429H103.498V26.25ZM103.498 27.6429H104.891V29.0357H103.498V27.6429ZM103.498 29.0357H104.891V30.4286H103.498V29.0357ZM103.498 30.4286H104.891V31.8214H103.498V30.4286ZM102.105 30.4286H103.498V31.8214H102.105V30.4286ZM102.105 29.0357H103.498V30.4286H102.105V29.0357ZM102.105 27.6429H103.498V29.0357H102.105V27.6429ZM102.105 31.8214H103.498V33.2143H102.105V31.8214ZM103.498 31.8214H104.891V33.2143H103.498V31.8214ZM103.498 33.2143H104.891V34.6071H103.498V33.2143ZM103.498 34.6071H104.891V36H103.498V34.6071ZM102.105 34.6071H103.498V36H102.105V34.6071ZM102.105 33.2143H103.498V34.6071H102.105V33.2143ZM109.07 34.6071H110.463V36H109.07V34.6071ZM110.463 34.6071H111.855V36H110.463V34.6071ZM110.463 33.2143H111.855V34.6071H110.463V33.2143ZM110.463 31.8214H111.855V33.2143H110.463V31.8214ZM110.463 30.4286H111.855V31.8214H110.463V30.4286ZM110.463 29.0357H111.855V30.4286H110.463V29.0357ZM110.463 27.6429H111.855V29.0357H110.463V27.6429ZM110.463 26.25H111.855V27.6429H110.463V26.25ZM109.07 29.0357H110.463V30.4286H109.07V29.0357ZM109.07 30.4286H110.463V31.8214H109.07V30.4286ZM109.07 31.8214H110.463V33.2143H109.07V31.8214ZM109.07 33.2143H110.463V34.6071H109.07V33.2143ZM109.07 27.6429H110.463V29.0357H109.07V27.6429ZM104.891 26.25H106.284V27.6429H104.891V26.25ZM106.284 26.25H107.677V27.6429H106.284V26.25ZM107.677 26.25H109.07V27.6429H107.677V26.25ZM107.677 24.8571H109.07V26.25H107.677V24.8571ZM109.07 24.8571H110.463V26.25H109.07V24.8571ZM109.07 26.25H110.463V27.6429H109.07V26.25ZM106.284 24.8571H107.677V26.25H106.284V24.8571ZM121.869 24.8571H123.262V26.25H121.869V24.8571ZM120.476 24.8571H121.869V26.25H120.476V24.8571ZM119.083 24.8571H120.476V26.25H119.083V24.8571ZM117.69 24.8571H119.083V26.25H117.69V24.8571ZM116.298 24.8571H117.69V26.25H116.298V24.8571ZM116.298 26.25H117.69V27.6429H116.298V26.25ZM117.69 26.25H119.083V27.6429H117.69V26.25ZM119.083 26.25H120.476V27.6429H119.083V26.25ZM120.476 26.25H121.869V27.6429H120.476V26.25ZM121.869 26.25H123.262V27.6429H121.869V26.25ZM114.905 24.8571H116.298V26.25H114.905V24.8571ZM114.905 26.25H116.298V27.6429H114.905V26.25ZM114.905 27.6429H116.298V29.0357H114.905V27.6429ZM113.512 27.6429H114.905V29.0357H113.512V27.6429ZM113.512 26.25H114.905V27.6429H113.512V26.25ZM113.512 29.0357H114.905V30.4286H113.512V29.0357ZM113.512 30.4286H114.905V31.8214H113.512V30.4286ZM114.905 31.8214H116.298V33.2143H114.905V31.8214ZM114.905 30.4286H116.298V31.8214H114.905V30.4286ZM114.905 29.0357H116.298V30.4286H114.905V29.0357ZM113.512 31.8214H114.905V33.2143H113.512V31.8214ZM114.905 33.2143H116.298V34.6071H114.905V33.2143ZM116.298 33.2143H117.69V34.6071H116.298V33.2143ZM117.69 33.2143H119.083V34.6071H117.69V33.2143ZM120.476 33.2143H121.869V34.6071H120.476V33.2143ZM121.869 33.2143H123.262V34.6071H121.869V33.2143ZM121.869 31.8214H123.262V33.2143H121.869V31.8214ZM120.476 31.8214H121.869V33.2143H120.476V31.8214ZM119.083 31.8214H120.476V33.2143H119.083V31.8214ZM117.69 31.8214H119.083V33.2143H117.69V31.8214ZM116.298 31.8214H117.69V33.2143H116.298V31.8214ZM120.476 30.4286H121.869V31.8214H120.476V30.4286ZM120.476 29.0357H121.869V30.4286H120.476V29.0357ZM120.476 27.6429H121.869V29.0357H120.476V27.6429ZM121.869 27.6429H123.262V29.0357H121.869V27.6429ZM121.869 29.0357H123.262V30.4286H121.869V29.0357ZM121.869 30.4286H123.262V31.8214H121.869V30.4286ZM120.476 34.6071H121.869V36H120.476V34.6071ZM120.476 36H121.869V37.3929H120.476V36ZM121.869 36H123.262V37.3929H121.869V36ZM121.869 34.6071H123.262V36H121.869V34.6071ZM113.512 36H114.905V37.3929H113.512V36ZM114.905 36H116.298V37.3929H114.905V36ZM114.905 37.3929H116.298V38.7857H114.905V37.3929ZM116.298 37.3929H117.69V38.7857H116.298V37.3929ZM116.298 36H117.69V37.3929H116.298V36ZM117.69 36H119.083V37.3929H117.69V36ZM119.083 36H120.476V37.3929H119.083V36ZM120.476 37.3929H121.869V38.7857H120.476V37.3929ZM119.083 37.3929H120.476V38.7857H119.083V37.3929ZM117.69 37.3929H119.083V38.7857H117.69V37.3929ZM129.097 33.2143H130.49V34.6071H129.097V33.2143ZM130.49 33.2143H131.883V34.6071H130.49V33.2143ZM130.49 34.6071H131.883V36H130.49V34.6071ZM129.097 34.6071H130.49V36H129.097V34.6071ZM133.276 33.2143H134.668V34.6071H133.276V33.2143ZM134.668 33.2143H136.061V34.6071H134.668V33.2143ZM134.668 34.6071H136.061V36H134.668V34.6071ZM133.276 34.6071H134.668V36H133.276V34.6071ZM124.918 33.2143H126.311V34.6071H124.918V33.2143ZM126.311 33.2143H127.704V34.6071H126.311V33.2143ZM126.311 34.6071H127.704V36H126.311V34.6071ZM124.918 34.6071H126.311V36H124.918V34.6071Z" fill="#1E1E1E"/>
<path d="M36.4969 205.75V217H34.9849V205.75H30.7909V204.436H40.6909V205.75H36.4969ZM42.5378 203.68H43.9778V209.224H44.0498C44.1458 208.996 44.2658 208.78 44.4098 208.576C44.5538 208.36 44.7278 208.174 44.9318 208.018C45.1478 207.862 45.3998 207.736 45.6878 207.64C45.9758 207.544 46.3118 207.496 46.6958 207.496C47.6678 207.496 48.4478 207.808 49.0358 208.432C49.6238 209.044 49.9178 209.914 49.9178 211.042V217H48.4778V211.294C48.4778 210.442 48.2918 209.812 47.9198 209.404C47.5478 208.984 47.0018 208.774 46.2818 208.774C45.9938 208.774 45.7118 208.81 45.4358 208.882C45.1598 208.954 44.9138 209.062 44.6978 209.206C44.4818 209.35 44.3078 209.536 44.1758 209.764C44.0438 209.992 43.9778 210.256 43.9778 210.556V217H42.5378V203.68ZM57.1828 205.66C56.7628 205.66 56.4688 205.576 56.3008 205.408C56.1328 205.228 56.0488 205.006 56.0488 204.742V204.454C56.0488 204.19 56.1328 203.974 56.3008 203.806C56.4688 203.626 56.7628 203.536 57.1828 203.536C57.6028 203.536 57.8968 203.626 58.0648 203.806C58.2328 203.974 58.3168 204.19 58.3168 204.454V204.742C58.3168 205.006 58.2328 205.228 58.0648 205.408C57.8968 205.576 57.6028 205.66 57.1828 205.66ZM53.1148 215.776H56.4628V208.936H53.1148V207.712H57.9028V215.776H61.0348V217H53.1148V215.776ZM67.1478 217.216C66.1758 217.216 65.3358 217.054 64.6278 216.73C63.9318 216.394 63.3378 215.95 62.8458 215.398L63.8178 214.552C64.2618 215.02 64.7478 215.38 65.2758 215.632C65.8038 215.884 66.4398 216.01 67.1838 216.01C67.9038 216.01 68.4918 215.884 68.9478 215.632C69.4158 215.368 69.6498 214.96 69.6498 214.408C69.6498 214.168 69.6018 213.97 69.5058 213.814C69.4218 213.646 69.3018 213.514 69.1458 213.418C68.9898 213.322 68.8158 213.25 68.6238 213.202C68.4318 213.142 68.2278 213.094 68.0118 213.058L66.5538 212.842C66.2298 212.794 65.8758 212.728 65.4918 212.644C65.1198 212.56 64.7778 212.428 64.4658 212.248C64.1538 212.056 63.8898 211.804 63.6738 211.492C63.4698 211.18 63.3678 210.772 63.3678 210.268C63.3678 209.8 63.4578 209.398 63.6378 209.062C63.8298 208.714 64.0938 208.426 64.4298 208.198C64.7658 207.958 65.1618 207.784 65.6178 207.676C66.0738 207.556 66.5718 207.496 67.1118 207.496C67.9518 207.496 68.6778 207.628 69.2898 207.892C69.9138 208.156 70.4478 208.522 70.8918 208.99L69.9558 209.872C69.8478 209.74 69.7098 209.608 69.5418 209.476C69.3858 209.332 69.1878 209.206 68.9478 209.098C68.7198 208.978 68.4498 208.882 68.1378 208.81C67.8258 208.738 67.4658 208.702 67.0578 208.702C66.3258 208.702 65.7618 208.828 65.3658 209.08C64.9818 209.332 64.7898 209.698 64.7898 210.178C64.7898 210.418 64.8318 210.622 64.9158 210.79C65.0118 210.946 65.1378 211.072 65.2938 211.168C65.4498 211.264 65.6238 211.342 65.8158 211.402C66.0198 211.45 66.2238 211.492 66.4278 211.528L67.8858 211.744C68.2218 211.792 68.5758 211.858 68.9478 211.942C69.3198 212.026 69.6618 212.164 69.9738 212.356C70.2858 212.536 70.5438 212.782 70.7478 213.094C70.9638 213.406 71.0718 213.814 71.0718 214.318C71.0718 215.242 70.7118 215.956 69.9918 216.46C69.2838 216.964 68.3358 217.216 67.1478 217.216ZM83.4777 217V207.712H84.8097V208.792H84.8817C85.0257 208.432 85.2297 208.126 85.4937 207.874C85.7577 207.622 86.1477 207.496 86.6637 207.496C87.2037 207.496 87.6057 207.634 87.8697 207.91C88.1337 208.174 88.2957 208.522 88.3557 208.954H88.4097C88.5777 208.534 88.8177 208.186 89.1297 207.91C89.4417 207.634 89.8737 207.496 90.4257 207.496C91.1817 207.496 91.6857 207.76 91.9377 208.288C92.2017 208.816 92.3337 209.572 92.3337 210.556V217H91.0017V210.79C91.0017 209.998 90.9177 209.452 90.7497 209.152C90.5937 208.84 90.2997 208.684 89.8677 208.684C89.4837 208.684 89.1717 208.81 88.9317 209.062C88.6917 209.302 88.5717 209.674 88.5717 210.178V217H87.2397V210.79C87.2397 209.998 87.1557 209.452 86.9877 209.152C86.8317 208.84 86.5437 208.684 86.1237 208.684C85.7397 208.684 85.4217 208.81 85.1697 209.062C84.9297 209.302 84.8097 209.674 84.8097 210.178V217H83.4777ZM101.849 217C101.285 217 100.883 216.856 100.643 216.568C100.403 216.28 100.253 215.92 100.193 215.488H100.103C99.8987 216.028 99.5687 216.454 99.1127 216.766C98.6687 217.066 98.0687 217.216 97.3127 217.216C96.3407 217.216 95.5667 216.964 94.9907 216.46C94.4147 215.956 94.1267 215.266 94.1267 214.39C94.1267 213.526 94.4387 212.86 95.0627 212.392C95.6987 211.924 96.7187 211.69 98.1227 211.69H100.103V210.772C100.103 210.088 99.9107 209.578 99.5267 209.242C99.1427 208.894 98.5967 208.72 97.8887 208.72C97.2647 208.72 96.7547 208.846 96.3587 209.098C95.9627 209.338 95.6447 209.668 95.4047 210.088L94.4327 209.368C94.5527 209.128 94.7147 208.894 94.9187 208.666C95.1227 208.438 95.3747 208.24 95.6747 208.072C95.9747 207.892 96.3167 207.754 96.7007 207.658C97.0847 207.55 97.5107 207.496 97.9787 207.496C99.0707 207.496 99.9347 207.772 100.571 208.324C101.219 208.876 101.543 209.644 101.543 210.628V215.74H102.839V217H101.849ZM97.5647 216.01C97.9367 216.01 98.2727 215.968 98.5727 215.884C98.8847 215.788 99.1547 215.668 99.3827 215.524C99.6107 215.368 99.7847 215.188 99.9047 214.984C100.037 214.768 100.103 214.54 100.103 214.3V212.77H98.1227C97.2587 212.77 96.6287 212.89 96.2327 213.13C95.8367 213.37 95.6387 213.718 95.6387 214.174V214.552C95.6387 215.032 95.8067 215.398 96.1427 215.65C96.4907 215.89 96.9647 216.01 97.5647 216.01ZM111.778 207.712H113.218L108.61 219.034C108.502 219.298 108.382 219.526 108.25 219.718C108.118 219.922 107.962 220.084 107.782 220.204C107.602 220.336 107.386 220.432 107.134 220.492C106.882 220.564 106.582 220.6 106.234 220.6H104.866V219.376H107.026L108.07 216.82L104.326 207.712H105.802L107.368 211.6L108.754 215.128H108.826L110.212 211.6L111.778 207.712ZM130.088 217C129.38 217 128.858 216.802 128.522 216.406C128.198 216.01 128.036 215.5 128.036 214.876V208.936H124.94V207.712H127.244C127.556 207.712 127.772 207.652 127.892 207.532C128.024 207.4 128.09 207.178 128.09 206.866V204.436H129.476V207.712H133.706V208.936H129.476V215.776H133.706V217H130.088ZM143.581 217C143.017 217 142.615 216.856 142.375 216.568C142.135 216.28 141.985 215.92 141.925 215.488H141.835C141.631 216.028 141.301 216.454 140.845 216.766C140.401 217.066 139.801 217.216 139.045 217.216C138.073 217.216 137.299 216.964 136.723 216.46C136.147 215.956 135.859 215.266 135.859 214.39C135.859 213.526 136.171 212.86 136.795 212.392C137.431 211.924 138.451 211.69 139.855 211.69H141.835V210.772C141.835 210.088 141.643 209.578 141.259 209.242C140.875 208.894 140.329 208.72 139.621 208.72C138.997 208.72 138.487 208.846 138.091 209.098C137.695 209.338 137.377 209.668 137.137 210.088L136.165 209.368C136.285 209.128 136.447 208.894 136.651 208.666C136.855 208.438 137.107 208.24 137.407 208.072C137.707 207.892 138.049 207.754 138.433 207.658C138.817 207.55 139.243 207.496 139.711 207.496C140.803 207.496 141.667 207.772 142.303 208.324C142.951 208.876 143.275 209.644 143.275 210.628V215.74H144.571V217H143.581ZM139.297 216.01C139.669 216.01 140.005 215.968 140.305 215.884C140.617 215.788 140.887 215.668 141.115 215.524C141.343 215.368 141.517 215.188 141.637 214.984C141.769 214.768 141.835 214.54 141.835 214.3V212.77H139.855C138.991 212.77 138.361 212.89 137.965 213.13C137.569 213.37 137.371 213.718 137.371 214.174V214.552C137.371 215.032 137.539 215.398 137.875 215.65C138.223 215.89 138.697 216.01 139.297 216.01ZM146.994 203.68H148.434V212.086H148.506L150.126 210.556L153.222 207.712H154.986L151.134 211.348L155.436 217H153.654L150.036 212.176L148.434 213.634V217H146.994V203.68ZM161.098 217.216C160.426 217.216 159.82 217.102 159.28 216.874C158.752 216.646 158.296 216.322 157.912 215.902C157.54 215.47 157.252 214.96 157.048 214.372C156.844 213.772 156.742 213.106 156.742 212.374C156.742 211.63 156.844 210.958 157.048 210.358C157.264 209.758 157.558 209.248 157.93 208.828C158.302 208.396 158.746 208.066 159.262 207.838C159.79 207.61 160.372 207.496 161.008 207.496C161.632 207.496 162.196 207.61 162.7 207.838C163.216 208.066 163.654 208.384 164.014 208.792C164.374 209.188 164.65 209.662 164.842 210.214C165.034 210.766 165.13 211.372 165.13 212.032V212.716H158.254V213.148C158.254 213.556 158.32 213.934 158.452 214.282C158.584 214.63 158.77 214.93 159.01 215.182C159.262 215.434 159.562 215.632 159.91 215.776C160.27 215.908 160.666 215.974 161.098 215.974C161.722 215.974 162.262 215.83 162.718 215.542C163.174 215.254 163.522 214.858 163.762 214.354L164.824 215.074C164.548 215.698 164.086 216.214 163.438 216.622C162.802 217.018 162.022 217.216 161.098 217.216ZM161.008 208.684C160.612 208.684 160.246 208.756 159.91 208.9C159.574 209.044 159.28 209.242 159.028 209.494C158.788 209.746 158.596 210.046 158.452 210.394C158.32 210.73 158.254 211.102 158.254 211.51V211.636H163.582V211.438C163.582 211.03 163.516 210.658 163.384 210.322C163.264 209.986 163.09 209.698 162.862 209.458C162.646 209.206 162.376 209.014 162.052 208.882C161.74 208.75 161.392 208.684 161.008 208.684ZM185.312 217C184.748 217 184.346 216.856 184.106 216.568C183.866 216.28 183.716 215.92 183.656 215.488H183.566C183.362 216.028 183.032 216.454 182.576 216.766C182.132 217.066 181.532 217.216 180.776 217.216C179.804 217.216 179.03 216.964 178.454 216.46C177.878 215.956 177.59 215.266 177.59 214.39C177.59 213.526 177.902 212.86 178.526 212.392C179.162 211.924 180.182 211.69 181.586 211.69H183.566V210.772C183.566 210.088 183.374 209.578 182.99 209.242C182.606 208.894 182.06 208.72 181.352 208.72C180.728 208.72 180.218 208.846 179.822 209.098C179.426 209.338 179.108 209.668 178.868 210.088L177.896 209.368C178.016 209.128 178.178 208.894 178.382 208.666C178.586 208.438 178.838 208.24 179.138 208.072C179.438 207.892 179.78 207.754 180.164 207.658C180.548 207.55 180.974 207.496 181.442 207.496C182.534 207.496 183.398 207.772 184.034 208.324C184.682 208.876 185.006 209.644 185.006 210.628V215.74H186.302V217H185.312ZM181.028 216.01C181.4 216.01 181.736 215.968 182.036 215.884C182.348 215.788 182.618 215.668 182.846 215.524C183.074 215.368 183.248 215.188 183.368 214.984C183.5 214.768 183.566 214.54 183.566 214.3V212.77H181.586C180.722 212.77 180.092 212.89 179.696 213.13C179.3 213.37 179.102 213.718 179.102 214.174V214.552C179.102 215.032 179.27 215.398 179.606 215.65C179.954 215.89 180.428 216.01 181.028 216.01ZM198.24 217V207.712H199.572V208.792H199.644C199.788 208.432 199.992 208.126 200.256 207.874C200.52 207.622 200.91 207.496 201.426 207.496C201.966 207.496 202.368 207.634 202.632 207.91C202.896 208.174 203.058 208.522 203.118 208.954H203.172C203.34 208.534 203.58 208.186 203.892 207.91C204.204 207.634 204.636 207.496 205.188 207.496C205.944 207.496 206.448 207.76 206.7 208.288C206.964 208.816 207.096 209.572 207.096 210.556V217H205.764V210.79C205.764 209.998 205.68 209.452 205.512 209.152C205.356 208.84 205.062 208.684 204.63 208.684C204.246 208.684 203.934 208.81 203.694 209.062C203.454 209.302 203.334 209.674 203.334 210.178V217H202.002V210.79C202.002 209.998 201.918 209.452 201.75 209.152C201.594 208.84 201.306 208.684 200.886 208.684C200.502 208.684 200.184 208.81 199.932 209.062C199.692 209.302 199.572 209.674 199.572 210.178V217H198.24ZM213.101 217.216C212.453 217.216 211.865 217.102 211.337 216.874C210.821 216.646 210.377 216.322 210.005 215.902C209.645 215.47 209.369 214.96 209.177 214.372C208.985 213.772 208.889 213.1 208.889 212.356C208.889 211.624 208.985 210.958 209.177 210.358C209.369 209.758 209.645 209.248 210.005 208.828C210.377 208.396 210.821 208.066 211.337 207.838C211.865 207.61 212.453 207.496 213.101 207.496C213.749 207.496 214.331 207.61 214.847 207.838C215.375 208.066 215.819 208.396 216.179 208.828C216.551 209.248 216.833 209.758 217.025 210.358C217.217 210.958 217.313 211.624 217.313 212.356C217.313 213.1 217.217 213.772 217.025 214.372C216.833 214.96 216.551 215.47 216.179 215.902C215.819 216.322 215.375 216.646 214.847 216.874C214.331 217.102 213.749 217.216 213.101 217.216ZM213.101 215.974C213.905 215.974 214.553 215.734 215.045 215.254C215.537 214.774 215.783 214.03 215.783 213.022V211.69C215.783 210.682 215.537 209.938 215.045 209.458C214.553 208.978 213.905 208.738 213.101 208.738C212.297 208.738 211.649 208.978 211.157 209.458C210.665 209.938 210.419 210.682 210.419 211.69V213.022C210.419 214.03 210.665 214.774 211.157 215.254C211.649 215.734 212.297 215.974 213.101 215.974ZM219.106 217V207.712H220.438V208.792H220.51C220.654 208.432 220.858 208.126 221.122 207.874C221.386 207.622 221.776 207.496 222.292 207.496C222.832 207.496 223.234 207.634 223.498 207.91C223.762 208.174 223.924 208.522 223.984 208.954H224.038C224.206 208.534 224.446 208.186 224.758 207.91C225.07 207.634 225.502 207.496 226.054 207.496C226.81 207.496 227.314 207.76 227.566 208.288C227.83 208.816 227.962 209.572 227.962 210.556V217H226.63V210.79C226.63 209.998 226.546 209.452 226.378 209.152C226.222 208.84 225.928 208.684 225.496 208.684C225.112 208.684 224.8 208.81 224.56 209.062C224.32 209.302 224.2 209.674 224.2 210.178V217H222.868V210.79C222.868 209.998 222.784 209.452 222.616 209.152C222.46 208.84 222.172 208.684 221.752 208.684C221.368 208.684 221.05 208.81 220.798 209.062C220.558 209.302 220.438 209.674 220.438 210.178V217H219.106ZM234.129 217.216C233.457 217.216 232.851 217.102 232.311 216.874C231.783 216.646 231.327 216.322 230.943 215.902C230.571 215.47 230.283 214.96 230.079 214.372C229.875 213.772 229.773 213.106 229.773 212.374C229.773 211.63 229.875 210.958 230.079 210.358C230.295 209.758 230.589 209.248 230.961 208.828C231.333 208.396 231.777 208.066 232.293 207.838C232.821 207.61 233.403 207.496 234.039 207.496C234.663 207.496 235.227 207.61 235.731 207.838C236.247 208.066 236.685 208.384 237.045 208.792C237.405 209.188 237.681 209.662 237.873 210.214C238.065 210.766 238.161 211.372 238.161 212.032V212.716H231.285V213.148C231.285 213.556 231.351 213.934 231.483 214.282C231.615 214.63 231.801 214.93 232.041 215.182C232.293 215.434 232.593 215.632 232.941 215.776C233.301 215.908 233.697 215.974 234.129 215.974C234.753 215.974 235.293 215.83 235.749 215.542C236.205 215.254 236.553 214.858 236.793 214.354L237.855 215.074C237.579 215.698 237.117 216.214 236.469 216.622C235.833 217.018 235.053 217.216 234.129 217.216ZM234.039 208.684C233.643 208.684 233.277 208.756 232.941 208.9C232.605 209.044 232.311 209.242 232.059 209.494C231.819 209.746 231.627 210.046 231.483 210.394C231.351 210.73 231.285 211.102 231.285 211.51V211.636H236.613V211.438C236.613 211.03 236.547 210.658 236.415 210.322C236.295 209.986 236.121 209.698 235.893 209.458C235.677 209.206 235.407 209.014 235.083 208.882C234.771 208.75 234.423 208.684 234.039 208.684ZM240.764 217V207.712H242.204V209.224H242.276C242.372 208.996 242.492 208.78 242.636 208.576C242.78 208.36 242.954 208.174 243.158 208.018C243.374 207.862 243.626 207.736 243.914 207.64C244.202 207.544 244.538 207.496 244.922 207.496C245.894 207.496 246.674 207.808 247.262 208.432C247.85 209.044 248.144 209.914 248.144 211.042V217H246.704V211.294C246.704 210.442 246.518 209.812 246.146 209.404C245.774 208.984 245.228 208.774 244.508 208.774C244.22 208.774 243.938 208.81 243.662 208.882C243.386 208.954 243.14 209.062 242.924 209.206C242.708 209.35 242.534 209.536 242.402 209.764C242.27 209.992 242.204 210.256 242.204 210.556V217H240.764ZM255.283 217C254.575 217 254.053 216.802 253.717 216.406C253.393 216.01 253.231 215.5 253.231 214.876V208.936H250.135V207.712H252.439C252.751 207.712 252.967 207.652 253.087 207.532C253.219 207.4 253.285 207.178 253.285 206.866V204.436H254.671V207.712H258.901V208.936H254.671V215.776H258.901V217H255.283ZM265.266 217.162C264.774 217.162 264.426 217.06 264.222 216.856C264.03 216.652 263.934 216.394 263.934 216.082V215.758C263.934 215.446 264.03 215.188 264.222 214.984C264.426 214.78 264.774 214.678 265.266 214.678C265.758 214.678 266.1 214.78 266.292 214.984C266.496 215.188 266.598 215.446 266.598 215.758V216.082C266.598 216.394 266.496 216.652 266.292 216.856C266.1 217.06 265.758 217.162 265.266 217.162ZM42.3938 243V230.436H46.9658C48.1298 230.436 49.0178 230.754 49.6298 231.39C50.2418 232.026 50.5478 232.914 50.5478 234.054C50.5478 235.194 50.2418 236.082 49.6298 236.718C49.0178 237.354 48.1298 237.672 46.9658 237.672H43.9058V243H42.3938ZM43.9058 236.358H46.9298C47.5658 236.358 48.0578 236.202 48.4058 235.89C48.7658 235.566 48.9458 235.11 48.9458 234.522V233.586C48.9458 232.998 48.7658 232.548 48.4058 232.236C48.0578 231.912 47.5658 231.75 46.9298 231.75H43.9058V236.358ZM52.6468 241.776H55.8868V230.904H52.6468V229.68H57.3268V241.776H60.5668V243H52.6468V241.776ZM67.2018 243.216C66.5298 243.216 65.9238 243.102 65.3838 242.874C64.8558 242.646 64.3998 242.322 64.0158 241.902C63.6438 241.47 63.3558 240.96 63.1518 240.372C62.9478 239.772 62.8458 239.106 62.8458 238.374C62.8458 237.63 62.9478 236.958 63.1518 236.358C63.3678 235.758 63.6618 235.248 64.0338 234.828C64.4058 234.396 64.8498 234.066 65.3658 233.838C65.8938 233.61 66.4758 233.496 67.1118 233.496C67.7358 233.496 68.2998 233.61 68.8038 233.838C69.3198 234.066 69.7578 234.384 70.1178 234.792C70.4778 235.188 70.7538 235.662 70.9458 236.214C71.1378 236.766 71.2338 237.372 71.2338 238.032V238.716H64.3578V239.148C64.3578 239.556 64.4238 239.934 64.5558 240.282C64.6878 240.63 64.8738 240.93 65.1138 241.182C65.3658 241.434 65.6658 241.632 66.0138 241.776C66.3738 241.908 66.7698 241.974 67.2018 241.974C67.8258 241.974 68.3658 241.83 68.8218 241.542C69.2778 241.254 69.6258 240.858 69.8658 240.354L70.9278 241.074C70.6518 241.698 70.1898 242.214 69.5418 242.622C68.9058 243.018 68.1258 243.216 67.2018 243.216ZM67.1118 234.684C66.7158 234.684 66.3498 234.756 66.0138 234.9C65.6778 235.044 65.3838 235.242 65.1318 235.494C64.8918 235.746 64.6998 236.046 64.5558 236.394C64.4238 236.73 64.3578 237.102 64.3578 237.51V237.636H69.6858V237.438C69.6858 237.03 69.6198 236.658 69.4878 236.322C69.3678 235.986 69.1938 235.698 68.9658 235.458C68.7498 235.206 68.4798 235.014 68.1558 234.882C67.8438 234.75 67.4958 234.684 67.1118 234.684ZM80.9827 243C80.4187 243 80.0167 242.856 79.7767 242.568C79.5367 242.28 79.3867 241.92 79.3267 241.488H79.2367C79.0327 242.028 78.7027 242.454 78.2467 242.766C77.8027 243.066 77.2027 243.216 76.4467 243.216C75.4747 243.216 74.7007 242.964 74.1247 242.46C73.5487 241.956 73.2607 241.266 73.2607 240.39C73.2607 239.526 73.5727 238.86 74.1967 238.392C74.8327 237.924 75.8527 237.69 77.2567 237.69H79.2367V236.772C79.2367 236.088 79.0447 235.578 78.6607 235.242C78.2767 234.894 77.7307 234.72 77.0227 234.72C76.3987 234.72 75.8887 234.846 75.4927 235.098C75.0967 235.338 74.7787 235.668 74.5387 236.088L73.5667 235.368C73.6867 235.128 73.8487 234.894 74.0527 234.666C74.2567 234.438 74.5087 234.24 74.8087 234.072C75.1087 233.892 75.4507 233.754 75.8347 233.658C76.2187 233.55 76.6447 233.496 77.1127 233.496C78.2047 233.496 79.0687 233.772 79.7047 234.324C80.3527 234.876 80.6767 235.644 80.6767 236.628V241.74H81.9727V243H80.9827ZM76.6987 242.01C77.0707 242.01 77.4067 241.968 77.7067 241.884C78.0187 241.788 78.2887 241.668 78.5167 241.524C78.7447 241.368 78.9187 241.188 79.0387 240.984C79.1707 240.768 79.2367 240.54 79.2367 240.3V238.77H77.2567C76.3927 238.77 75.7627 238.89 75.3667 239.13C74.9707 239.37 74.7727 239.718 74.7727 240.174V240.552C74.7727 241.032 74.9407 241.398 75.2767 241.65C75.6247 241.89 76.0987 242.01 76.6987 242.01ZM88.0137 243.216C87.0417 243.216 86.2017 243.054 85.4937 242.73C84.7977 242.394 84.2037 241.95 83.7117 241.398L84.6837 240.552C85.1277 241.02 85.6137 241.38 86.1417 241.632C86.6697 241.884 87.3057 242.01 88.0497 242.01C88.7697 242.01 89.3577 241.884 89.8137 241.632C90.2817 241.368 90.5157 240.96 90.5157 240.408C90.5157 240.168 90.4677 239.97 90.3717 239.814C90.2877 239.646 90.1677 239.514 90.0117 239.418C89.8557 239.322 89.6817 239.25 89.4897 239.202C89.2977 239.142 89.0937 239.094 88.8777 239.058L87.4197 238.842C87.0957 238.794 86.7417 238.728 86.3577 238.644C85.9857 238.56 85.6437 238.428 85.3317 238.248C85.0197 238.056 84.7557 237.804 84.5397 237.492C84.3357 237.18 84.2337 236.772 84.2337 236.268C84.2337 235.8 84.3237 235.398 84.5037 235.062C84.6957 234.714 84.9597 234.426 85.2957 234.198C85.6317 233.958 86.0277 233.784 86.4837 233.676C86.9397 233.556 87.4377 233.496 87.9777 233.496C88.8177 233.496 89.5437 233.628 90.1557 233.892C90.7797 234.156 91.3137 234.522 91.7577 234.99L90.8217 235.872C90.7137 235.74 90.5757 235.608 90.4077 235.476C90.2517 235.332 90.0537 235.206 89.8137 235.098C89.5857 234.978 89.3157 234.882 89.0037 234.81C88.6917 234.738 88.3317 234.702 87.9237 234.702C87.1917 234.702 86.6277 234.828 86.2317 235.08C85.8477 235.332 85.6557 235.698 85.6557 236.178C85.6557 236.418 85.6977 236.622 85.7817 236.79C85.8777 236.946 86.0037 237.072 86.1597 237.168C86.3157 237.264 86.4897 237.342 86.6817 237.402C86.8857 237.45 87.0897 237.492 87.2937 237.528L88.7517 237.744C89.0877 237.792 89.4417 237.858 89.8137 237.942C90.1857 238.026 90.5277 238.164 90.8397 238.356C91.1517 238.536 91.4097 238.782 91.6137 239.094C91.8297 239.406 91.9377 239.814 91.9377 240.318C91.9377 241.242 91.5777 241.956 90.8577 242.46C90.1497 242.964 89.2017 243.216 88.0137 243.216ZM98.5007 243.216C97.8287 243.216 97.2227 243.102 96.6827 242.874C96.1547 242.646 95.6987 242.322 95.3147 241.902C94.9427 241.47 94.6547 240.96 94.4507 240.372C94.2467 239.772 94.1447 239.106 94.1447 238.374C94.1447 237.63 94.2467 236.958 94.4507 236.358C94.6667 235.758 94.9607 235.248 95.3327 234.828C95.7047 234.396 96.1487 234.066 96.6647 233.838C97.1927 233.61 97.7747 233.496 98.4107 233.496C99.0347 233.496 99.5987 233.61 100.103 233.838C100.619 234.066 101.057 234.384 101.417 234.792C101.777 235.188 102.053 235.662 102.245 236.214C102.437 236.766 102.533 237.372 102.533 238.032V238.716H95.6567V239.148C95.6567 239.556 95.7227 239.934 95.8547 240.282C95.9867 240.63 96.1727 240.93 96.4127 241.182C96.6647 241.434 96.9647 241.632 97.3127 241.776C97.6727 241.908 98.0687 241.974 98.5007 241.974C99.1247 241.974 99.6647 241.83 100.121 241.542C100.577 241.254 100.925 240.858 101.165 240.354L102.227 241.074C101.951 241.698 101.489 242.214 100.841 242.622C100.205 243.018 99.4247 243.216 98.5007 243.216ZM98.4107 234.684C98.0147 234.684 97.6487 234.756 97.3127 234.9C96.9767 235.044 96.6827 235.242 96.4307 235.494C96.1907 235.746 95.9987 236.046 95.8547 236.394C95.7227 236.73 95.6567 237.102 95.6567 237.51V237.636H100.985V237.438C100.985 237.03 100.919 236.658 100.787 236.322C100.667 235.986 100.493 235.698 100.265 235.458C100.049 235.206 99.7787 235.014 99.4547 234.882C99.1427 234.75 98.7947 234.684 98.4107 234.684ZM114.345 233.712H115.623L116.685 241.74H116.847L118.431 233.712H120.015L121.599 241.74H121.761L122.823 233.712H124.065L122.643 243H120.771L119.295 235.224H119.151L117.639 243H115.767L114.345 233.712ZM133.148 243C132.584 243 132.182 242.856 131.942 242.568C131.702 242.28 131.552 241.92 131.492 241.488H131.402C131.198 242.028 130.868 242.454 130.412 242.766C129.968 243.066 129.368 243.216 128.612 243.216C127.64 243.216 126.866 242.964 126.29 242.46C125.714 241.956 125.426 241.266 125.426 240.39C125.426 239.526 125.738 238.86 126.362 238.392C126.998 237.924 128.018 237.69 129.422 237.69H131.402V236.772C131.402 236.088 131.21 235.578 130.826 235.242C130.442 234.894 129.896 234.72 129.188 234.72C128.564 234.72 128.054 234.846 127.658 235.098C127.262 235.338 126.944 235.668 126.704 236.088L125.732 235.368C125.852 235.128 126.014 234.894 126.218 234.666C126.422 234.438 126.674 234.24 126.974 234.072C127.274 233.892 127.616 233.754 128 233.658C128.384 233.55 128.81 233.496 129.278 233.496C130.37 233.496 131.234 233.772 131.87 234.324C132.518 234.876 132.842 235.644 132.842 236.628V241.74H134.138V243H133.148ZM128.864 242.01C129.236 242.01 129.572 241.968 129.872 241.884C130.184 241.788 130.454 241.668 130.682 241.524C130.91 241.368 131.084 241.188 131.204 240.984C131.336 240.768 131.402 240.54 131.402 240.3V238.77H129.422C128.558 238.77 127.928 238.89 127.532 239.13C127.136 239.37 126.938 239.718 126.938 240.174V240.552C126.938 241.032 127.106 241.398 127.442 241.65C127.79 241.89 128.264 242.01 128.864 242.01ZM140.647 231.66C140.227 231.66 139.933 231.576 139.765 231.408C139.597 231.228 139.513 231.006 139.513 230.742V230.454C139.513 230.19 139.597 229.974 139.765 229.806C139.933 229.626 140.227 229.536 140.647 229.536C141.067 229.536 141.361 229.626 141.529 229.806C141.697 229.974 141.781 230.19 141.781 230.454V230.742C141.781 231.006 141.697 231.228 141.529 231.408C141.361 231.576 141.067 231.66 140.647 231.66ZM136.579 241.776H139.927V234.936H136.579V233.712H141.367V241.776H144.499V243H136.579V241.776ZM150.954 243C150.246 243 149.724 242.802 149.388 242.406C149.064 242.01 148.902 241.5 148.902 240.876V234.936H145.806V233.712H148.11C148.422 233.712 148.638 233.652 148.758 233.532C148.89 233.4 148.956 233.178 148.956 232.866V230.436H150.342V233.712H154.572V234.936H150.342V241.776H154.572V243H150.954ZM174.879 243C174.315 243 173.913 242.856 173.673 242.568C173.433 242.28 173.283 241.92 173.223 241.488H173.133C172.929 242.028 172.599 242.454 172.143 242.766C171.699 243.066 171.099 243.216 170.343 243.216C169.371 243.216 168.597 242.964 168.021 242.46C167.445 241.956 167.157 241.266 167.157 240.39C167.157 239.526 167.469 238.86 168.093 238.392C168.729 237.924 169.749 237.69 171.153 237.69H173.133V236.772C173.133 236.088 172.941 235.578 172.557 235.242C172.173 234.894 171.627 234.72 170.919 234.72C170.295 234.72 169.785 234.846 169.389 235.098C168.993 235.338 168.675 235.668 168.435 236.088L167.463 235.368C167.583 235.128 167.745 234.894 167.949 234.666C168.153 234.438 168.405 234.24 168.705 234.072C169.005 233.892 169.347 233.754 169.731 233.658C170.115 233.55 170.541 233.496 171.009 233.496C172.101 233.496 172.965 233.772 173.601 234.324C174.249 234.876 174.573 235.644 174.573 236.628V241.74H175.869V243H174.879ZM170.595 242.01C170.967 242.01 171.303 241.968 171.603 241.884C171.915 241.788 172.185 241.668 172.413 241.524C172.641 241.368 172.815 241.188 172.935 240.984C173.067 240.768 173.133 240.54 173.133 240.3V238.77H171.153C170.289 238.77 169.659 238.89 169.263 239.13C168.867 239.37 168.669 239.718 168.669 240.174V240.552C168.669 241.032 168.837 241.398 169.173 241.65C169.521 241.89 169.995 242.01 170.595 242.01ZM187.807 243V233.712H189.139V234.792H189.211C189.355 234.432 189.559 234.126 189.823 233.874C190.087 233.622 190.477 233.496 190.993 233.496C191.533 233.496 191.935 233.634 192.199 233.91C192.463 234.174 192.625 234.522 192.685 234.954H192.739C192.907 234.534 193.147 234.186 193.459 233.91C193.771 233.634 194.203 233.496 194.755 233.496C195.511 233.496 196.015 233.76 196.267 234.288C196.531 234.816 196.663 235.572 196.663 236.556V243H195.331V236.79C195.331 235.998 195.247 235.452 195.079 235.152C194.923 234.84 194.629 234.684 194.197 234.684C193.813 234.684 193.501 234.81 193.261 235.062C193.021 235.302 192.901 235.674 192.901 236.178V243H191.569V236.79C191.569 235.998 191.485 235.452 191.317 235.152C191.161 234.84 190.873 234.684 190.453 234.684C190.069 234.684 189.751 234.81 189.499 235.062C189.259 235.302 189.139 235.674 189.139 236.178V243H187.807ZM202.668 243.216C202.02 243.216 201.432 243.102 200.904 242.874C200.388 242.646 199.944 242.322 199.572 241.902C199.212 241.47 198.936 240.96 198.744 240.372C198.552 239.772 198.456 239.1 198.456 238.356C198.456 237.624 198.552 236.958 198.744 236.358C198.936 235.758 199.212 235.248 199.572 234.828C199.944 234.396 200.388 234.066 200.904 233.838C201.432 233.61 202.02 233.496 202.668 233.496C203.316 233.496 203.898 233.61 204.414 233.838C204.942 234.066 205.386 234.396 205.746 234.828C206.118 235.248 206.4 235.758 206.592 236.358C206.784 236.958 206.88 237.624 206.88 238.356C206.88 239.1 206.784 239.772 206.592 240.372C206.4 240.96 206.118 241.47 205.746 241.902C205.386 242.322 204.942 242.646 204.414 242.874C203.898 243.102 203.316 243.216 202.668 243.216ZM202.668 241.974C203.472 241.974 204.12 241.734 204.612 241.254C205.104 240.774 205.35 240.03 205.35 239.022V237.69C205.35 236.682 205.104 235.938 204.612 235.458C204.12 234.978 203.472 234.738 202.668 234.738C201.864 234.738 201.216 234.978 200.724 235.458C200.232 235.938 199.986 236.682 199.986 237.69V239.022C199.986 240.03 200.232 240.774 200.724 241.254C201.216 241.734 201.864 241.974 202.668 241.974ZM208.673 243V233.712H210.005V234.792H210.077C210.221 234.432 210.425 234.126 210.689 233.874C210.953 233.622 211.343 233.496 211.859 233.496C212.399 233.496 212.801 233.634 213.065 233.91C213.329 234.174 213.491 234.522 213.551 234.954H213.605C213.773 234.534 214.013 234.186 214.325 233.91C214.637 233.634 215.069 233.496 215.621 233.496C216.377 233.496 216.881 233.76 217.133 234.288C217.397 234.816 217.529 235.572 217.529 236.556V243H216.197V236.79C216.197 235.998 216.113 235.452 215.945 235.152C215.789 234.84 215.495 234.684 215.063 234.684C214.679 234.684 214.367 234.81 214.127 235.062C213.887 235.302 213.767 235.674 213.767 236.178V243H212.435V236.79C212.435 235.998 212.351 235.452 212.183 235.152C212.027 234.84 211.739 234.684 211.319 234.684C210.935 234.684 210.617 234.81 210.365 235.062C210.125 235.302 210.005 235.674 210.005 236.178V243H208.673ZM223.696 243.216C223.024 243.216 222.418 243.102 221.878 242.874C221.35 242.646 220.894 242.322 220.51 241.902C220.138 241.47 219.85 240.96 219.646 240.372C219.442 239.772 219.34 239.106 219.34 238.374C219.34 237.63 219.442 236.958 219.646 236.358C219.862 235.758 220.156 235.248 220.528 234.828C220.9 234.396 221.344 234.066 221.86 233.838C222.388 233.61 222.97 233.496 223.606 233.496C224.23 233.496 224.794 233.61 225.298 233.838C225.814 234.066 226.252 234.384 226.612 234.792C226.972 235.188 227.248 235.662 227.44 236.214C227.632 236.766 227.728 237.372 227.728 238.032V238.716H220.852V239.148C220.852 239.556 220.918 239.934 221.05 240.282C221.182 240.63 221.368 240.93 221.608 241.182C221.86 241.434 222.16 241.632 222.508 241.776C222.868 241.908 223.264 241.974 223.696 241.974C224.32 241.974 224.86 241.83 225.316 241.542C225.772 241.254 226.12 240.858 226.36 240.354L227.422 241.074C227.146 241.698 226.684 242.214 226.036 242.622C225.4 243.018 224.62 243.216 223.696 243.216ZM223.606 234.684C223.21 234.684 222.844 234.756 222.508 234.9C222.172 235.044 221.878 235.242 221.626 235.494C221.386 235.746 221.194 236.046 221.05 236.394C220.918 236.73 220.852 237.102 220.852 237.51V237.636H226.18V237.438C226.18 237.03 226.114 236.658 225.982 236.322C225.862 235.986 225.688 235.698 225.46 235.458C225.244 235.206 224.974 235.014 224.65 234.882C224.338 234.75 223.99 234.684 223.606 234.684ZM230.331 243V233.712H231.771V235.224H231.843C231.939 234.996 232.059 234.78 232.203 234.576C232.347 234.36 232.521 234.174 232.725 234.018C232.941 233.862 233.193 233.736 233.481 233.64C233.769 233.544 234.105 233.496 234.489 233.496C235.461 233.496 236.241 233.808 236.829 234.432C237.417 235.044 237.711 235.914 237.711 237.042V243H236.271V237.294C236.271 236.442 236.085 235.812 235.713 235.404C235.341 234.984 234.795 234.774 234.075 234.774C233.787 234.774 233.505 234.81 233.229 234.882C232.953 234.954 232.707 235.062 232.491 235.206C232.275 235.35 232.101 235.536 231.969 235.764C231.837 235.992 231.771 236.256 231.771 236.556V243H230.331ZM244.85 243C244.142 243 243.62 242.802 243.284 242.406C242.96 242.01 242.798 241.5 242.798 240.876V234.936H239.702V233.712H242.006C242.318 233.712 242.534 233.652 242.654 233.532C242.786 233.4 242.852 233.178 242.852 232.866V230.436H244.238V233.712H248.468V234.936H244.238V241.776H248.468V243H244.85ZM254.833 243.162C254.341 243.162 253.993 243.06 253.789 242.856C253.597 242.652 253.501 242.394 253.501 242.082V241.758C253.501 241.446 253.597 241.188 253.789 240.984C253.993 240.78 254.341 240.678 254.833 240.678C255.325 240.678 255.667 240.78 255.859 240.984C256.063 241.188 256.165 241.446 256.165 241.758V242.082C256.165 242.394 256.063 242.652 255.859 242.856C255.667 243.06 255.325 243.162 254.833 243.162Z" fill="#111111"/>
</g>
<defs>
<clipPath id="clip0_697_339818">
<rect width="300" height="279" fill="white"/>
</clipPath>
<clipPath id="clip1_697_339818">
<rect width="276" height="6" fill="white" transform="translate(12)"/>
</clipPath>
<clipPath id="clip2_697_339818">
<rect width="276" height="6" fill="white" transform="matrix(1 0 0 -1 12 279)"/>
</clipPath>
<clipPath id="clip3_697_339818">
<rect width="288" height="6" fill="white" transform="matrix(1 0 0 -1 6 58)"/>
</clipPath>
</defs>
</svg>
