<svg width="300" height="158" viewBox="0 0 300 158" fill="none" xmlns="http://www.w3.org/2000/svg">
<g clip-path="url(#clip0_655_227697)">
<path d="M6 23.2135V19.1067L9.78498 15H291.655L294 19.1067V147.549L289.68 152.007H10.5L6 148.096V23.2135Z" fill="white"/>
<path d="M294 52V12L290.816 6L9.18367 6L6 11.9764V15.8013V52H294Z" fill="#CBCBCB"/>
<path d="M294 6H288V12H294V6Z" fill="#365969"/>
<path d="M294 152H288V146H294V152Z" fill="#365969"/>
<path d="M12 6H6V12H12V6Z" fill="#365969"/>
<path d="M12 152H6V146H12V152Z" fill="#365969"/>
<g clip-path="url(#clip1_655_227697)">
<path d="M-24 0H18V6H-24V0Z" fill="#365969"/>
<path d="M-18 0H24V6H-18V0Z" fill="#365969"/>
<path d="M-12 0H30V6H-12V0Z" fill="#365969"/>
<path d="M-6 0H36V6H-6V0Z" fill="#365969"/>
<path d="M6 0H48V6H6V0Z" fill="#365969"/>
<path d="M12 0H54V6H12V0Z" fill="#365969"/>
<path d="M18 0H60V6H18V0Z" fill="#365969"/>
<path d="M24 0H66V6H24V0Z" fill="#365969"/>
<path d="M30 0H72V6H30V0Z" fill="#365969"/>
<path d="M36 0H78V6H36V0Z" fill="#365969"/>
<path d="M42 0H84V6H42V0Z" fill="#365969"/>
<path d="M48 0H90V6H48V0Z" fill="#365969"/>
<path d="M54 0H96V6H54V0Z" fill="#365969"/>
<path d="M60 0H102V6H60V0Z" fill="#365969"/>
<path d="M66 0H108V6H66V0Z" fill="#365969"/>
<path d="M72 0H114V6H72V0Z" fill="#365969"/>
<path d="M78 0H120V6H78V0Z" fill="#365969"/>
<path d="M84 0H126V6H84V0Z" fill="#365969"/>
<path d="M90 0H132V6H90V0Z" fill="#365969"/>
<path d="M96 0H138V6H96V0Z" fill="#365969"/>
<path d="M102 0H144V6H102V0Z" fill="#365969"/>
<path d="M108 0H150V6H108V0Z" fill="#365969"/>
<path d="M114 0H156V6H114V0Z" fill="#365969"/>
<path d="M120 0H162V6H120V0Z" fill="#365969"/>
<path d="M126 0H168V6H126V0Z" fill="#365969"/>
<path d="M132 0H174V6H132V0Z" fill="#365969"/>
<path d="M138 0H180V6H138V0Z" fill="#365969"/>
<path d="M144 0H186V6H144V0Z" fill="#365969"/>
<path d="M150 0H192V6H150V0Z" fill="#365969"/>
<path d="M156 0H198V6H156V0Z" fill="#365969"/>
<path d="M162 0H204V6H162V0Z" fill="#365969"/>
<path d="M168 0H210V6H168V0Z" fill="#365969"/>
<path d="M174 0H216V6H174V0Z" fill="#365969"/>
<path d="M180 0H222V6H180V0Z" fill="#365969"/>
<path d="M186 0H228V6H186V0Z" fill="#365969"/>
<path d="M192 0H234V6H192V0Z" fill="#365969"/>
<path d="M198 0H240V6H198V0Z" fill="#365969"/>
<path d="M204 0H246V6H204V0Z" fill="#365969"/>
<path d="M210 0H252V6H210V0Z" fill="#365969"/>
<path d="M216 0H258V6H216V0Z" fill="#365969"/>
<path d="M222 0H264V6H222V0Z" fill="#365969"/>
<path d="M228 0H270V6H228V0Z" fill="#365969"/>
<path d="M234 0H276V6H234V0Z" fill="#365969"/>
<path d="M240 0H282V6H240V0Z" fill="#365969"/>
<path d="M246 0H288V6H246V0Z" fill="#365969"/>
<path d="M252 0H294V6H252V0Z" fill="#365969"/>
<path d="M258 0H300V6H258V0Z" fill="#365969"/>
<path d="M264 0H306V6H264V0Z" fill="#365969"/>
<path d="M270 0H312V6H270V0Z" fill="#365969"/>
<path d="M276 0H318V6H276V0Z" fill="#365969"/>
<path d="M282 0H324V6H282V0Z" fill="#365969"/>
</g>
<g clip-path="url(#clip2_655_227697)">
<path d="M-24 158H18V152H-24V158Z" fill="#365969"/>
<path d="M-18 158H24V152H-18V158Z" fill="#365969"/>
<path d="M-12 158H30V152H-12V158Z" fill="#365969"/>
<path d="M-6 158H36V152H-6V158Z" fill="#365969"/>
<path d="M0 158H42V152H0V158Z" fill="#365969"/>
<path d="M6 158H48V152H6V158Z" fill="#365969"/>
<path d="M12 158H54V152H12V158Z" fill="#365969"/>
<path d="M18 158H60V152H18V158Z" fill="#365969"/>
<path d="M24 158H66V152H24V158Z" fill="#365969"/>
<path d="M30 158H72V152H30V158Z" fill="#365969"/>
<path d="M36 158H78V152H36V158Z" fill="#365969"/>
<path d="M42 158H84V152H42V158Z" fill="#365969"/>
<path d="M48 158H90V152H48V158Z" fill="#365969"/>
<path d="M54 158H96V152H54V158Z" fill="#365969"/>
<path d="M60 158H102V152H60V158Z" fill="#365969"/>
<path d="M66 158H108V152H66V158Z" fill="#365969"/>
<path d="M72 158H114V152H72V158Z" fill="#365969"/>
<path d="M78 158H120V152H78V158Z" fill="#365969"/>
<path d="M84 158H126V152H84V158Z" fill="#365969"/>
<path d="M90 158H132V152H90V158Z" fill="#365969"/>
<path d="M96 158H138V152H96V158Z" fill="#365969"/>
<path d="M102 158H144V152H102V158Z" fill="#365969"/>
<path d="M108 158H150V152H108V158Z" fill="#365969"/>
<path d="M114 158H156V152H114V158Z" fill="#365969"/>
<path d="M120 158H162V152H120V158Z" fill="#365969"/>
<path d="M126 158H168V152H126V158Z" fill="#365969"/>
<path d="M132 158H174V152H132V158Z" fill="#365969"/>
<path d="M138 158H180V152H138V158Z" fill="#365969"/>
<path d="M144 158H186V152H144V158Z" fill="#365969"/>
<path d="M150 158H192V152H150V158Z" fill="#365969"/>
<path d="M156 158H198V152H156V158Z" fill="#365969"/>
<path d="M162 158H204V152H162V158Z" fill="#365969"/>
<path d="M168 158H210V152H168V158Z" fill="#365969"/>
<path d="M174 158H216V152H174V158Z" fill="#365969"/>
<path d="M180 158H222V152H180V158Z" fill="#365969"/>
<path d="M186 158H228V152H186V158Z" fill="#365969"/>
<path d="M192 158H234V152H192V158Z" fill="#365969"/>
<path d="M198 158H240V152H198V158Z" fill="#365969"/>
<path d="M204 158H246V152H204V158Z" fill="#365969"/>
<path d="M210 158H252V152H210V158Z" fill="#365969"/>
<path d="M216 158H258V152H216V158Z" fill="#365969"/>
<path d="M222 158H264V152H222V158Z" fill="#365969"/>
<path d="M228 158H270V152H228V158Z" fill="#365969"/>
<path d="M234 158H276V152H234V158Z" fill="#365969"/>
<path d="M240 158H282V152H240V158Z" fill="#365969"/>
<path d="M246 158H288V152H246V158Z" fill="#365969"/>
<path d="M252 158H294V152H252V158Z" fill="#365969"/>
<path d="M258 158H300V152H258V158Z" fill="#365969"/>
<path d="M264 158H306V152H264V158Z" fill="#365969"/>
<path d="M270 158H312V152H270V158Z" fill="#365969"/>
<path d="M276 158H318V152H276V158Z" fill="#365969"/>
<path d="M282 158H324V152H282V158Z" fill="#365969"/>
</g>
<g clip-path="url(#clip3_655_227697)">
<path d="M-30 58H12V52H-30V58Z" fill="#F3F3F3"/>
<path d="M-24 58H18V52H-24V58Z" fill="#F3F3F3"/>
<path d="M-18 58H24V52H-18V58Z" fill="#F3F3F3"/>
<path d="M-12 58H30V52H-12V58Z" fill="#F3F3F3"/>
<path d="M6 58H48V52H6V58Z" fill="#F3F3F3"/>
<path d="M12 58H54V52H12V58Z" fill="#F3F3F3"/>
<path d="M18 58H60V52H18V58Z" fill="#F3F3F3"/>
<path d="M24 58H66V52H24V58Z" fill="#F3F3F3"/>
<path d="M30 58H72V52H30V58Z" fill="#F3F3F3"/>
<path d="M36 58H78V52H36V58Z" fill="#F3F3F3"/>
<path d="M42 58H84V52H42V58Z" fill="#F3F3F3"/>
<path d="M48 58H90V52H48V58Z" fill="#F3F3F3"/>
<path d="M54 58H96V52H54V58Z" fill="#F3F3F3"/>
<path d="M60 58H102V52H60V58Z" fill="#F3F3F3"/>
<path d="M66 58H108V52H66V58Z" fill="#F3F3F3"/>
<path d="M72 58H114V52H72V58Z" fill="#F3F3F3"/>
<path d="M78 58H120V52H78V58Z" fill="#F3F3F3"/>
<path d="M84 58H126V52H84V58Z" fill="#F3F3F3"/>
<path d="M90 58H132V52H90V58Z" fill="#F3F3F3"/>
<path d="M96 58H138V52H96V58Z" fill="#F3F3F3"/>
<path d="M102 58H144V52H102V58Z" fill="#F3F3F3"/>
<path d="M108 58H150V52H108V58Z" fill="#F3F3F3"/>
<path d="M114 58H156V52H114V58Z" fill="#F3F3F3"/>
<path d="M120 58H162V52H120V58Z" fill="#F3F3F3"/>
<path d="M126 58H168V52H126V58Z" fill="#F3F3F3"/>
<path d="M132 58H174V52H132V58Z" fill="#F3F3F3"/>
<path d="M138 58H180V52H138V58Z" fill="#F3F3F3"/>
<path d="M144 58H186V52H144V58Z" fill="#F3F3F3"/>
<path d="M150 58H192V52H150V58Z" fill="#F3F3F3"/>
<path d="M156 58H198V52H156V58Z" fill="#F3F3F3"/>
<path d="M162 58H204V52H162V58Z" fill="#F3F3F3"/>
<path d="M168 58H210V52H168V58Z" fill="#F3F3F3"/>
<path d="M174 58H216V52H174V58Z" fill="#F3F3F3"/>
<path d="M180 58H222V52H180V58Z" fill="#F3F3F3"/>
<path d="M186 58H228V52H186V58Z" fill="#F3F3F3"/>
<path d="M192 58H234V52H192V58Z" fill="#F3F3F3"/>
<path d="M198 58H240V52H198V58Z" fill="#F3F3F3"/>
<path d="M204 58H246V52H204V58Z" fill="#F3F3F3"/>
<path d="M210 58H252V52H210V58Z" fill="#F3F3F3"/>
<path d="M216 58H258V52H216V58Z" fill="#F3F3F3"/>
<path d="M222 58H264V52H222V58Z" fill="#F3F3F3"/>
<path d="M228 58H270V52H228V58Z" fill="#F3F3F3"/>
<path d="M234 58H276V52H234V58Z" fill="#F3F3F3"/>
<path d="M240 58H282V52H240V58Z" fill="#F3F3F3"/>
<path d="M246 58H288V52H246V58Z" fill="#F3F3F3"/>
<path d="M252 58H294V52H252V58Z" fill="#F3F3F3"/>
<path d="M258 58H300V52H258V58Z" fill="#F3F3F3"/>
<path d="M264 58H306V52H264V58Z" fill="#F3F3F3"/>
<path d="M270 58H312V52H270V58Z" fill="#F3F3F3"/>
<path d="M276 58H318V52H276V58Z" fill="#F3F3F3"/>
<path d="M282 58H324V52H282V58Z" fill="#F3F3F3"/>
</g>
<path d="M272 26H266V32H272V26Z" fill="#365969"/>
<path d="M266 32H260V38H266V32Z" fill="#365969"/>
<path d="M278 32H272V38H278V32Z" fill="#365969"/>
<path d="M266 20H260V26H266V20Z" fill="#365969"/>
<path d="M278 20H272V26H278V20Z" fill="#365969"/>
<path d="M6 18H0V12H6V18Z" fill="#365969"/>
<path d="M6 24H0V18H6V24Z" fill="#365969"/>
<path d="M6 30H0V24H6V30Z" fill="#365969"/>
<path d="M6 36H0V30H6V36Z" fill="#365969"/>
<path d="M6 42H0V36H6V42Z" fill="#365969"/>
<path d="M6 48H0V42H6V48Z" fill="#365969"/>
<path d="M6 54H0V48H6V54Z" fill="#365969"/>
<path d="M6 60H0V54H6V60Z" fill="#365969"/>
<path d="M6 66H0V60H6V66Z" fill="#365969"/>
<path d="M6 72H0V66H6V72Z" fill="#365969"/>
<path d="M6 78H0V72H6V78Z" fill="#365969"/>
<path d="M6 84H0V78H6V84Z" fill="#365969"/>
<path d="M6 90H0V84H6V90Z" fill="#365969"/>
<path d="M6 96H0V90H6V96Z" fill="#365969"/>
<path d="M6 102H0V96H6V102Z" fill="#365969"/>
<path d="M6 108H0V102H6V108Z" fill="#365969"/>
<path d="M6 114H0V108H6V114Z" fill="#365969"/>
<path d="M6 120H0V114H6V120Z" fill="#365969"/>
<path d="M6 126H0V120H6V126Z" fill="#365969"/>
<path d="M6 132H0V126H6V132Z" fill="#365969"/>
<path d="M6 138H0V132H6V138Z" fill="#365969"/>
<path d="M6 144H0V138H6V144Z" fill="#365969"/>
<path d="M6 146H0V140H6V146Z" fill="#365969"/>
<path d="M300 18H294V12H300V18Z" fill="#365969"/>
<path d="M300 24H294V18H300V24Z" fill="#365969"/>
<path d="M300 30H294V24H300V30Z" fill="#365969"/>
<path d="M300 36H294V30H300V36Z" fill="#365969"/>
<path d="M300 42H294V36H300V42Z" fill="#365969"/>
<path d="M300 48H294V42H300V48Z" fill="#365969"/>
<path d="M300 54H294V48H300V54Z" fill="#365969"/>
<path d="M300 60H294V54H300V60Z" fill="#365969"/>
<path d="M300 66H294V60H300V66Z" fill="#365969"/>
<path d="M300 72H294V66H300V72Z" fill="#365969"/>
<path d="M300 78H294V72H300V78Z" fill="#365969"/>
<path d="M300 84H294V78H300V84Z" fill="#365969"/>
<path d="M300 90H294V84H300V90Z" fill="#365969"/>
<path d="M300 96H294V90H300V96Z" fill="#365969"/>
<path d="M300 102H294V96H300V102Z" fill="#365969"/>
<path d="M300 108H294V102H300V108Z" fill="#365969"/>
<path d="M300 114H294V108H300V114Z" fill="#365969"/>
<path d="M300 120H294V114H300V120Z" fill="#365969"/>
<path d="M300 126H294V120H300V126Z" fill="#365969"/>
<path d="M300 132H294V126H300V132Z" fill="#365969"/>
<path d="M300 138H294V132H300V138Z" fill="#365969"/>
<path d="M300 144H294V138H300V144Z" fill="#365969"/>
<path d="M300 146H294V140H300V146Z" fill="#365969"/>
<path d="M22 22.0714H23.3929V23.4643H22V22.0714ZM23.3929 22.0714H24.7857V23.4643H23.3929V22.0714ZM23.3929 23.4643H24.7857V24.8571H23.3929V23.4643ZM23.3929 24.8571H24.7857V26.25H23.3929V24.8571ZM23.3929 26.25H24.7857V27.6429H23.3929V26.25ZM22 26.25H23.3929V27.6429H22V26.25ZM22 24.8571H23.3929V26.25H22V24.8571ZM22 23.4643H23.3929V24.8571H22V23.4643ZM22 27.6429H23.3929V29.0357H22V27.6429ZM22 29.0357H23.3929V30.4286H22V29.0357ZM22 30.4286H23.3929V31.8214H22V30.4286ZM23.3929 29.0357H24.7857V30.4286H23.3929V29.0357ZM23.3929 27.6429H24.7857V29.0357H23.3929V27.6429ZM23.3929 30.4286H24.7857V31.8214H23.3929V30.4286ZM23.3929 31.8214H24.7857V33.2143H23.3929V31.8214ZM22 33.2143H23.3929V34.6071H22V33.2143ZM22 31.8214H23.3929V33.2143H22V31.8214ZM22 34.6071H23.3929V36H22V34.6071ZM23.3929 34.6071H24.7857V36H23.3929V34.6071ZM23.3929 33.2143H24.7857V34.6071H23.3929V33.2143ZM24.7857 34.6071H26.1786V36H24.7857V34.6071ZM26.1786 34.6071H27.5714V36H26.1786V34.6071ZM27.5714 34.6071H28.9643V36H27.5714V34.6071ZM27.5714 33.2143H28.9643V34.6071H27.5714V33.2143ZM26.1786 33.2143H27.5714V34.6071H26.1786V33.2143ZM24.7857 33.2143H26.1786V34.6071H24.7857V33.2143ZM24.7857 22.0714H26.1786V23.4643H24.7857V22.0714ZM26.1786 22.0714H27.5714V23.4643H26.1786V22.0714ZM27.5714 22.0714H28.9643V23.4643H27.5714V22.0714ZM28.9643 22.0714H30.3571V23.4643H28.9643V22.0714ZM27.5714 23.4643H28.9643V24.8571H27.5714V23.4643ZM26.1786 23.4643H27.5714V24.8571H26.1786V23.4643ZM24.7857 23.4643H26.1786V24.8571H24.7857V23.4643ZM24.7857 29.0357H26.1786V30.4286H24.7857V29.0357ZM26.1786 27.6429H27.5714V29.0357H26.1786V27.6429ZM24.7857 27.6429H26.1786V29.0357H24.7857V27.6429ZM26.1786 29.0357H27.5714V30.4286H26.1786V29.0357ZM28.9643 23.4643H30.3571V24.8571H28.9643V23.4643ZM28.9643 33.2143H30.3571V34.6071H28.9643V33.2143ZM28.9643 34.6071H30.3571V36H28.9643V34.6071ZM27.5714 27.6429H28.9643V29.0357H27.5714V27.6429ZM27.5714 29.0357H28.9643V30.4286H27.5714V29.0357ZM32.01 33.2143H33.4029V34.6071H32.01V33.2143ZM32.01 31.8214H33.4029V33.2143H32.01V31.8214ZM33.4029 31.8214H34.7957V33.2143H33.4029V31.8214ZM33.4029 33.2143H34.7957V34.6071H33.4029V33.2143ZM33.4029 30.4286H34.7957V31.8214H33.4029V30.4286ZM34.7957 30.4286H36.1886V31.8214H34.7957V30.4286ZM37.5814 30.4286H38.9743V31.8214H37.5814V30.4286ZM38.9743 30.4286H40.3671V31.8214H38.9743V30.4286ZM38.9743 33.2143H40.3671V34.6071H38.9743V33.2143ZM40.3671 33.2143H41.76V34.6071H40.3671V33.2143ZM40.3671 31.8214H41.76V33.2143H40.3671V31.8214ZM34.7957 29.0357H36.1886V30.4286H34.7957V29.0357ZM36.1886 29.0357H37.5814V30.4286H36.1886V29.0357ZM37.5814 29.0357H38.9743V30.4286H37.5814V29.0357ZM37.5814 27.6429H38.9743V29.0357H37.5814V27.6429ZM38.9743 27.6429H40.3671V29.0357H38.9743V27.6429ZM38.9743 26.25H40.3671V27.6429H38.9743V26.25ZM38.9743 24.8571H40.3671V26.25H38.9743V24.8571ZM40.3671 24.8571H41.76V26.25H40.3671V24.8571ZM40.3671 26.25H41.76V27.6429H40.3671V26.25ZM34.7957 27.6429H36.1886V29.0357H34.7957V27.6429ZM33.4029 27.6429H34.7957V29.0357H33.4029V27.6429ZM33.4029 26.25H34.7957V27.6429H33.4029V26.25ZM33.4029 24.8571H34.7957V26.25H33.4029V24.8571ZM32.01 24.8571H33.4029V26.25H32.01V24.8571ZM32.01 26.25H33.4029V27.6429H32.01V26.25ZM34.7957 31.8214H36.1886V33.2143H34.7957V31.8214ZM37.5814 31.8214H38.9743V33.2143H37.5814V31.8214ZM38.9743 31.8214H40.3671V33.2143H38.9743V31.8214ZM34.7957 26.25H36.1886V27.6429H34.7957V26.25ZM37.5814 26.25H38.9743V27.6429H37.5814V26.25ZM36.1886 27.6429H37.5814V29.0357H36.1886V27.6429ZM36.1886 30.4286H37.5814V31.8214H36.1886V30.4286ZM32.01 34.6071H33.4029V36H32.01V34.6071ZM33.4029 34.6071H34.7957V36H33.4029V34.6071ZM38.9743 34.6071H40.3671V36H38.9743V34.6071ZM40.3671 34.6071H41.76V36H40.3671V34.6071ZM43.4165 22.0714H46.2022V24.8571H43.4165V22.0714ZM43.4165 26.25H46.2022V36H43.4165V26.25ZM53.4374 33.2143H54.8302V34.6071H53.4374V33.2143ZM53.4374 34.6071H54.8302V36H53.4374V34.6071ZM52.0445 34.6071H53.4374V36H52.0445V34.6071ZM52.0445 33.2143H53.4374V34.6071H52.0445V33.2143ZM50.6517 34.6071H52.0445V36H50.6517V34.6071ZM50.6517 33.2143H52.0445V34.6071H50.6517V33.2143ZM49.2588 33.2143H50.6517V34.6071H49.2588V33.2143ZM49.2588 31.8214H50.6517V33.2143H49.2588V31.8214ZM49.2588 30.4286H50.6517V31.8214H49.2588V30.4286ZM49.2588 29.0357H50.6517V30.4286H49.2588V29.0357ZM49.2588 27.6429H50.6517V29.0357H49.2588V27.6429ZM49.2588 26.25H50.6517V27.6429H49.2588V26.25ZM50.6517 30.4286H52.0445V31.8214H50.6517V30.4286ZM50.6517 31.8214H52.0445V33.2143H50.6517V31.8214ZM50.6517 29.0357H52.0445V30.4286H50.6517V29.0357ZM50.6517 27.6429H52.0445V29.0357H50.6517V27.6429ZM50.6517 22.0714H52.0445V23.4643H50.6517V22.0714ZM50.6517 23.4643H52.0445V24.8571H50.6517V23.4643ZM50.6517 24.8571H52.0445V26.25H50.6517V24.8571ZM50.6517 26.25H52.0445V27.6429H50.6517V26.25ZM49.2588 24.8571H50.6517V26.25H49.2588V24.8571ZM47.8659 26.25H49.2588V27.6429H47.8659V26.25ZM52.0445 26.25H53.4374V27.6429H52.0445V26.25ZM53.4374 26.25H54.8302V27.6429H53.4374V26.25ZM49.2588 23.4643H50.6517V24.8571H49.2588V23.4643ZM47.8659 27.6429H49.2588V29.0357H47.8659V27.6429ZM52.0445 27.6429H53.4374V29.0357H52.0445V27.6429ZM53.4374 27.6429H54.8302V29.0357H53.4374V27.6429ZM56.4795 22.0714H59.2652V24.8571H56.4795V22.0714ZM56.4795 26.25H59.2652V36H56.4795V26.25ZM60.9289 26.25H62.3218V27.6429H60.9289V26.25ZM60.9289 24.8571H62.3218V26.25H60.9289V24.8571ZM62.3218 24.8571H63.7146V26.25H62.3218V24.8571ZM62.3218 26.25H63.7146V27.6429H62.3218V26.25ZM62.3218 27.6429H63.7146V29.0357H62.3218V27.6429ZM62.3218 29.0357H63.7146V30.4286H62.3218V29.0357ZM62.3218 30.4286H63.7146V31.8214H62.3218V30.4286ZM60.9289 30.4286H62.3218V31.8214H60.9289V30.4286ZM60.9289 29.0357H62.3218V30.4286H60.9289V29.0357ZM60.9289 27.6429H62.3218V29.0357H60.9289V27.6429ZM60.9289 31.8214H62.3218V33.2143H60.9289V31.8214ZM62.3218 31.8214H63.7146V33.2143H62.3218V31.8214ZM62.3218 33.2143H63.7146V34.6071H62.3218V33.2143ZM62.3218 34.6071H63.7146V36H62.3218V34.6071ZM60.9289 34.6071H62.3218V36H60.9289V34.6071ZM60.9289 33.2143H62.3218V34.6071H60.9289V33.2143ZM67.8932 34.6071H69.286V36H67.8932V34.6071ZM69.286 34.6071H70.6789V36H69.286V34.6071ZM69.286 33.2143H70.6789V34.6071H69.286V33.2143ZM69.286 31.8214H70.6789V33.2143H69.286V31.8214ZM69.286 30.4286H70.6789V31.8214H69.286V30.4286ZM69.286 29.0357H70.6789V30.4286H69.286V29.0357ZM69.286 27.6429H70.6789V29.0357H69.286V27.6429ZM69.286 26.25H70.6789V27.6429H69.286V26.25ZM67.8932 29.0357H69.286V30.4286H67.8932V29.0357ZM67.8932 30.4286H69.286V31.8214H67.8932V30.4286ZM67.8932 31.8214H69.286V33.2143H67.8932V31.8214ZM67.8932 33.2143H69.286V34.6071H67.8932V33.2143ZM67.8932 27.6429H69.286V29.0357H67.8932V27.6429ZM63.7146 26.25H65.1075V27.6429H63.7146V26.25ZM65.1075 26.25H66.5003V27.6429H65.1075V26.25ZM66.5003 26.25H67.8932V27.6429H66.5003V26.25ZM66.5003 24.8571H67.8932V26.25H66.5003V24.8571ZM67.8932 24.8571H69.286V26.25H67.8932V24.8571ZM67.8932 26.25H69.286V27.6429H67.8932V26.25ZM65.1075 24.8571H66.5003V26.25H65.1075V24.8571ZM80.6925 24.8571H82.0854V26.25H80.6925V24.8571ZM79.2997 24.8571H80.6925V26.25H79.2997V24.8571ZM77.9068 24.8571H79.2997V26.25H77.9068V24.8571ZM76.514 24.8571H77.9068V26.25H76.514V24.8571ZM75.1211 24.8571H76.514V26.25H75.1211V24.8571ZM75.1211 26.25H76.514V27.6429H75.1211V26.25ZM76.514 26.25H77.9068V27.6429H76.514V26.25ZM77.9068 26.25H79.2997V27.6429H77.9068V26.25ZM79.2997 26.25H80.6925V27.6429H79.2997V26.25ZM80.6925 26.25H82.0854V27.6429H80.6925V26.25ZM73.7282 24.8571H75.1211V26.25H73.7282V24.8571ZM73.7282 26.25H75.1211V27.6429H73.7282V26.25ZM73.7282 27.6429H75.1211V29.0357H73.7282V27.6429ZM72.3354 27.6429H73.7282V29.0357H72.3354V27.6429ZM72.3354 26.25H73.7282V27.6429H72.3354V26.25ZM72.3354 29.0357H73.7282V30.4286H72.3354V29.0357ZM72.3354 30.4286H73.7282V31.8214H72.3354V30.4286ZM73.7282 31.8214H75.1211V33.2143H73.7282V31.8214ZM73.7282 30.4286H75.1211V31.8214H73.7282V30.4286ZM73.7282 29.0357H75.1211V30.4286H73.7282V29.0357ZM72.3354 31.8214H73.7282V33.2143H72.3354V31.8214ZM73.7282 33.2143H75.1211V34.6071H73.7282V33.2143ZM75.1211 33.2143H76.514V34.6071H75.1211V33.2143ZM76.514 33.2143H77.9068V34.6071H76.514V33.2143ZM79.2997 33.2143H80.6925V34.6071H79.2997V33.2143ZM80.6925 33.2143H82.0854V34.6071H80.6925V33.2143ZM80.6925 31.8214H82.0854V33.2143H80.6925V31.8214ZM79.2997 31.8214H80.6925V33.2143H79.2997V31.8214ZM77.9068 31.8214H79.2997V33.2143H77.9068V31.8214ZM76.514 31.8214H77.9068V33.2143H76.514V31.8214ZM75.1211 31.8214H76.514V33.2143H75.1211V31.8214ZM79.2997 30.4286H80.6925V31.8214H79.2997V30.4286ZM79.2997 29.0357H80.6925V30.4286H79.2997V29.0357ZM79.2997 27.6429H80.6925V29.0357H79.2997V27.6429ZM80.6925 27.6429H82.0854V29.0357H80.6925V27.6429ZM80.6925 29.0357H82.0854V30.4286H80.6925V29.0357ZM80.6925 30.4286H82.0854V31.8214H80.6925V30.4286ZM79.2997 34.6071H80.6925V36H79.2997V34.6071ZM79.2997 36H80.6925V37.3929H79.2997V36ZM80.6925 36H82.0854V37.3929H80.6925V36ZM80.6925 34.6071H82.0854V36H80.6925V34.6071ZM72.3354 36H73.7282V37.3929H72.3354V36ZM73.7282 36H75.1211V37.3929H73.7282V36ZM73.7282 37.3929H75.1211V38.7857H73.7282V37.3929ZM75.1211 37.3929H76.514V38.7857H75.1211V37.3929ZM75.1211 36H76.514V37.3929H75.1211V36ZM76.514 36H77.9068V37.3929H76.514V36ZM77.9068 36H79.2997V37.3929H77.9068V36ZM79.2997 37.3929H80.6925V38.7857H79.2997V37.3929ZM77.9068 37.3929H79.2997V38.7857H77.9068V37.3929ZM76.514 37.3929H77.9068V38.7857H76.514V37.3929ZM92.3481 23.4643H93.741V24.8571H92.3481V23.4643ZM93.741 23.4643H95.1339V24.8571H93.741V23.4643ZM93.741 22.0714H95.1339V23.4643H93.741V22.0714ZM95.1339 23.4643H96.5267V24.8571H95.1339V23.4643ZM95.1339 24.8571H96.5267V26.25H95.1339V24.8571ZM96.5267 24.8571H97.9196V26.25H96.5267V24.8571ZM93.741 24.8571H95.1339V26.25H93.741V24.8571ZM92.3481 24.8571H93.741V26.25H92.3481V24.8571ZM90.9553 24.8571H92.3481V26.25H90.9553V24.8571ZM90.9553 26.25H92.3481V27.6429H90.9553V26.25ZM89.5624 26.25H90.9553V27.6429H89.5624V26.25ZM92.3481 26.25H93.741V27.6429H92.3481V26.25ZM90.9553 27.6429H92.3481V29.0357H90.9553V27.6429ZM90.9553 29.0357H92.3481V30.4286H90.9553V29.0357ZM90.9553 30.4286H92.3481V31.8214H90.9553V30.4286ZM92.3481 30.4286H93.741V31.8214H92.3481V30.4286ZM93.741 30.4286H95.1339V31.8214H93.741V30.4286ZM95.1339 30.4286H96.5267V31.8214H95.1339V30.4286ZM96.5267 30.4286H97.9196V31.8214H96.5267V30.4286ZM97.9196 30.4286H99.3124V31.8214H97.9196V30.4286ZM97.9196 29.0357H99.3124V30.4286H97.9196V29.0357ZM97.9196 27.6429H99.3124V29.0357H97.9196V27.6429ZM97.9196 26.25H99.3124V27.6429H97.9196V26.25ZM96.5267 26.25H97.9196V27.6429H96.5267V26.25ZM95.1339 26.25H96.5267V27.6429H95.1339V26.25ZM96.5267 27.6429H97.9196V29.0357H96.5267V27.6429ZM96.5267 29.0357H97.9196V30.4286H96.5267V29.0357ZM96.5267 31.8214H97.9196V33.2143H96.5267V31.8214ZM97.9196 31.8214H99.3124V33.2143H97.9196V31.8214ZM97.9196 33.2143H99.3124V34.6071H97.9196V33.2143ZM97.9196 34.6071H99.3124V36H97.9196V34.6071ZM96.5267 34.6071H97.9196V36H96.5267V34.6071ZM96.5267 33.2143H97.9196V34.6071H96.5267V33.2143ZM95.1339 31.8214H96.5267V33.2143H95.1339V31.8214ZM93.741 31.8214H95.1339V33.2143H93.741V31.8214ZM92.3481 31.8214H93.741V33.2143H92.3481V31.8214ZM90.9553 31.8214H92.3481V33.2143H90.9553V31.8214ZM90.9553 33.2143H92.3481V34.6071H90.9553V33.2143ZM90.9553 34.6071H92.3481V36H90.9553V34.6071ZM89.5624 34.6071H90.9553V36H89.5624V34.6071ZM89.5624 33.2143H90.9553V34.6071H89.5624V33.2143ZM89.5624 31.8214H90.9553V33.2143H89.5624V31.8214ZM89.5624 30.4286H90.9553V31.8214H89.5624V30.4286ZM89.5624 29.0357H90.9553V30.4286H89.5624V29.0357ZM89.5624 27.6429H90.9553V29.0357H89.5624V27.6429ZM100.969 26.25H102.362V27.6429H100.969V26.25ZM100.969 24.8571H102.362V26.25H100.969V24.8571ZM102.362 24.8571H103.755V26.25H102.362V24.8571ZM102.362 26.25H103.755V27.6429H102.362V26.25ZM102.362 27.6429H103.755V29.0357H102.362V27.6429ZM102.362 29.0357H103.755V30.4286H102.362V29.0357ZM102.362 30.4286H103.755V31.8214H102.362V30.4286ZM100.969 30.4286H102.362V31.8214H100.969V30.4286ZM100.969 29.0357H102.362V30.4286H100.969V29.0357ZM100.969 27.6429H102.362V29.0357H100.969V27.6429ZM100.969 31.8214H102.362V33.2143H100.969V31.8214ZM102.362 31.8214H103.755V33.2143H102.362V31.8214ZM102.362 33.2143H103.755V34.6071H102.362V33.2143ZM102.362 34.6071H103.755V36H102.362V34.6071ZM100.969 34.6071H102.362V36H100.969V34.6071ZM100.969 33.2143H102.362V34.6071H100.969V33.2143ZM107.933 34.6071H109.326V36H107.933V34.6071ZM109.326 33.2143H110.719V34.6071H109.326V33.2143ZM109.326 31.8214H110.719V33.2143H109.326V31.8214ZM109.326 30.4286H110.719V31.8214H109.326V30.4286ZM109.326 29.0357H110.719V30.4286H109.326V29.0357ZM109.326 27.6429H110.719V29.0357H109.326V27.6429ZM109.326 26.25H110.719V27.6429H109.326V26.25ZM107.933 29.0357H109.326V30.4286H107.933V29.0357ZM107.933 30.4286H109.326V31.8214H107.933V30.4286ZM107.933 31.8214H109.326V33.2143H107.933V31.8214ZM107.933 33.2143H109.326V34.6071H107.933V33.2143ZM107.933 27.6429H109.326V29.0357H107.933V27.6429ZM103.755 26.25H105.147V27.6429H103.755V26.25ZM105.147 26.25H106.54V27.6429H105.147V26.25ZM106.54 26.25H107.933V27.6429H106.54V26.25ZM106.54 24.8571H107.933V26.25H106.54V24.8571ZM107.933 24.8571H109.326V26.25H107.933V24.8571ZM107.933 26.25H109.326V27.6429H107.933V26.25ZM105.147 24.8571H106.54V26.25H105.147V24.8571ZM103.755 34.6071H105.147V36H103.755V34.6071ZM105.147 34.6071H106.54V36H105.147V34.6071ZM106.54 34.6071H107.933V36H106.54V34.6071ZM106.54 33.2143H107.933V34.6071H106.54V33.2143ZM105.147 33.2143H106.54V34.6071H105.147V33.2143ZM103.755 33.2143H105.147V34.6071H103.755V33.2143ZM100.969 36H102.362V37.3929H100.969V36ZM102.362 36H103.755V37.3929H102.362V36ZM102.362 37.3929H103.755V38.7857H102.362V37.3929ZM100.969 37.3929H102.362V38.7857H100.969V37.3929ZM112.375 26.25H113.768V27.6429H112.375V26.25ZM112.375 24.8571H113.768V26.25H112.375V24.8571ZM113.768 24.8571H115.161V26.25H113.768V24.8571ZM113.768 26.25H115.161V27.6429H113.768V26.25ZM113.768 27.6429H115.161V29.0357H113.768V27.6429ZM113.768 29.0357H115.161V30.4286H113.768V29.0357ZM113.768 30.4286H115.161V31.8214H113.768V30.4286ZM112.375 30.4286H113.768V31.8214H112.375V30.4286ZM112.375 29.0357H113.768V30.4286H112.375V29.0357ZM112.375 27.6429H113.768V29.0357H112.375V27.6429ZM112.375 31.8214H113.768V33.2143H112.375V31.8214ZM113.768 31.8214H115.161V33.2143H113.768V31.8214ZM113.768 33.2143H115.161V34.6071H113.768V33.2143ZM113.768 34.6071H115.161V36H113.768V34.6071ZM112.375 34.6071H113.768V36H112.375V34.6071ZM112.375 33.2143H113.768V34.6071H112.375V33.2143ZM119.34 34.6071H120.733V36H119.34V34.6071ZM120.733 33.2143H122.125V34.6071H120.733V33.2143ZM120.733 31.8214H122.125V33.2143H120.733V31.8214ZM120.733 30.4286H122.125V31.8214H120.733V30.4286ZM120.733 29.0357H122.125V30.4286H120.733V29.0357ZM120.733 27.6429H122.125V29.0357H120.733V27.6429ZM120.733 26.25H122.125V27.6429H120.733V26.25ZM119.34 29.0357H120.733V30.4286H119.34V29.0357ZM119.34 30.4286H120.733V31.8214H119.34V30.4286ZM119.34 31.8214H120.733V33.2143H119.34V31.8214ZM119.34 33.2143H120.733V34.6071H119.34V33.2143ZM119.34 27.6429H120.733V29.0357H119.34V27.6429ZM115.161 26.25H116.554V27.6429H115.161V26.25ZM116.554 26.25H117.947V27.6429H116.554V26.25ZM117.947 26.25H119.34V27.6429H117.947V26.25ZM117.947 24.8571H119.34V26.25H117.947V24.8571ZM119.34 24.8571H120.733V26.25H119.34V24.8571ZM119.34 26.25H120.733V27.6429H119.34V26.25ZM116.554 24.8571H117.947V26.25H116.554V24.8571ZM115.161 34.6071H116.554V36H115.161V34.6071ZM116.554 34.6071H117.947V36H116.554V34.6071ZM117.947 34.6071H119.34V36H117.947V34.6071ZM117.947 33.2143H119.34V34.6071H117.947V33.2143ZM116.554 33.2143H117.947V34.6071H116.554V33.2143ZM115.161 33.2143H116.554V34.6071H115.161V33.2143ZM112.375 36H113.768V37.3929H112.375V36ZM113.768 36H115.161V37.3929H113.768V36ZM113.768 37.3929H115.161V38.7857H113.768V37.3929ZM112.375 37.3929H113.768V38.7857H112.375V37.3929Z" fill="#1E1E1E"/>
<path d="M56.8628 84.75V96H55.3508V84.75H51.1568V83.436H61.0568V84.75H56.8628ZM62.9038 82.68H64.3438V88.224H64.4158C64.5118 87.996 64.6318 87.78 64.7758 87.576C64.9198 87.36 65.0938 87.174 65.2978 87.018C65.5138 86.862 65.7658 86.736 66.0538 86.64C66.3418 86.544 66.6778 86.496 67.0618 86.496C68.0338 86.496 68.8138 86.808 69.4018 87.432C69.9898 88.044 70.2838 88.914 70.2838 90.042V96H68.8438V90.294C68.8438 89.442 68.6578 88.812 68.2858 88.404C67.9138 87.984 67.3678 87.774 66.6478 87.774C66.3598 87.774 66.0778 87.81 65.8018 87.882C65.5258 87.954 65.2798 88.062 65.0638 88.206C64.8478 88.35 64.6738 88.536 64.5418 88.764C64.4098 88.992 64.3438 89.256 64.3438 89.556V96H62.9038V82.68ZM77.1347 96.216C76.4627 96.216 75.8567 96.102 75.3167 95.874C74.7887 95.646 74.3327 95.322 73.9487 94.902C73.5767 94.47 73.2887 93.96 73.0847 93.372C72.8807 92.772 72.7787 92.106 72.7787 91.374C72.7787 90.63 72.8807 89.958 73.0847 89.358C73.3007 88.758 73.5947 88.248 73.9667 87.828C74.3387 87.396 74.7827 87.066 75.2987 86.838C75.8267 86.61 76.4087 86.496 77.0447 86.496C77.6687 86.496 78.2327 86.61 78.7367 86.838C79.2527 87.066 79.6907 87.384 80.0507 87.792C80.4107 88.188 80.6867 88.662 80.8787 89.214C81.0707 89.766 81.1667 90.372 81.1667 91.032V91.716H74.2907V92.148C74.2907 92.556 74.3567 92.934 74.4887 93.282C74.6207 93.63 74.8067 93.93 75.0467 94.182C75.2987 94.434 75.5987 94.632 75.9467 94.776C76.3067 94.908 76.7027 94.974 77.1347 94.974C77.7587 94.974 78.2987 94.83 78.7547 94.542C79.2107 94.254 79.5587 93.858 79.7987 93.354L80.8607 94.074C80.5847 94.698 80.1227 95.214 79.4747 95.622C78.8387 96.018 78.0587 96.216 77.1347 96.216ZM77.0447 87.684C76.6487 87.684 76.2827 87.756 75.9467 87.9C75.6107 88.044 75.3167 88.242 75.0647 88.494C74.8247 88.746 74.6327 89.046 74.4887 89.394C74.3567 89.73 74.2907 90.102 74.2907 90.51V90.636H79.6187V90.438C79.6187 90.03 79.5527 89.658 79.4207 89.322C79.3007 88.986 79.1267 88.698 78.8987 88.458C78.6827 88.206 78.4127 88.014 78.0887 87.882C77.7767 87.75 77.4287 87.684 77.0447 87.684ZM101.349 96C100.785 96 100.383 95.856 100.143 95.568C99.9027 95.28 99.7527 94.92 99.6927 94.488H99.6027C99.3987 95.028 99.0687 95.454 98.6127 95.766C98.1687 96.066 97.5687 96.216 96.8127 96.216C95.8407 96.216 95.0667 95.964 94.4907 95.46C93.9147 94.956 93.6267 94.266 93.6267 93.39C93.6267 92.526 93.9387 91.86 94.5627 91.392C95.1987 90.924 96.2187 90.69 97.6227 90.69H99.6027V89.772C99.6027 89.088 99.4107 88.578 99.0267 88.242C98.6427 87.894 98.0967 87.72 97.3887 87.72C96.7647 87.72 96.2547 87.846 95.8587 88.098C95.4627 88.338 95.1447 88.668 94.9047 89.088L93.9327 88.368C94.0527 88.128 94.2147 87.894 94.4187 87.666C94.6227 87.438 94.8747 87.24 95.1747 87.072C95.4747 86.892 95.8167 86.754 96.2007 86.658C96.5847 86.55 97.0107 86.496 97.4787 86.496C98.5707 86.496 99.4347 86.772 100.071 87.324C100.719 87.876 101.043 88.644 101.043 89.628V94.74H102.339V96H101.349ZM97.0647 95.01C97.4367 95.01 97.7727 94.968 98.0727 94.884C98.3847 94.788 98.6547 94.668 98.8827 94.524C99.1107 94.368 99.2847 94.188 99.4047 93.984C99.5367 93.768 99.6027 93.54 99.6027 93.3V91.77H97.6227C96.7587 91.77 96.1287 91.89 95.7327 92.13C95.3367 92.37 95.1387 92.718 95.1387 93.174V93.552C95.1387 94.032 95.3067 94.398 95.6427 94.65C95.9907 94.89 96.4647 95.01 97.0647 95.01ZM104.582 86.712H106.022V88.224H106.094C106.694 87.072 107.648 86.496 108.956 86.496C110.096 86.496 110.984 86.922 111.62 87.774C112.268 88.626 112.592 89.82 112.592 91.356C112.592 92.892 112.268 94.086 111.62 94.938C110.984 95.79 110.096 96.216 108.956 96.216C107.648 96.216 106.694 95.64 106.094 94.488H106.022V99.6H104.582V86.712ZM108.398 94.938C109.238 94.938 109.886 94.686 110.342 94.182C110.81 93.666 111.044 92.988 111.044 92.148V90.564C111.044 89.724 110.81 89.052 110.342 88.548C109.886 88.032 109.238 87.774 108.398 87.774C108.074 87.774 107.768 87.816 107.48 87.9C107.192 87.984 106.94 88.11 106.724 88.278C106.508 88.434 106.334 88.632 106.202 88.872C106.082 89.1 106.022 89.37 106.022 89.682V93.03C106.022 93.342 106.082 93.618 106.202 93.858C106.334 94.086 106.508 94.284 106.724 94.452C106.94 94.608 107.192 94.728 107.48 94.812C107.768 94.896 108.074 94.938 108.398 94.938ZM115.015 86.712H116.455V88.224H116.527C117.127 87.072 118.081 86.496 119.389 86.496C120.529 86.496 121.417 86.922 122.053 87.774C122.701 88.626 123.025 89.82 123.025 91.356C123.025 92.892 122.701 94.086 122.053 94.938C121.417 95.79 120.529 96.216 119.389 96.216C118.081 96.216 117.127 95.64 116.527 94.488H116.455V99.6H115.015V86.712ZM118.831 94.938C119.671 94.938 120.319 94.686 120.775 94.182C121.243 93.666 121.477 92.988 121.477 92.148V90.564C121.477 89.724 121.243 89.052 120.775 88.548C120.319 88.032 119.671 87.774 118.831 87.774C118.507 87.774 118.201 87.816 117.913 87.9C117.625 87.984 117.373 88.11 117.157 88.278C116.941 88.434 116.767 88.632 116.635 88.872C116.515 89.1 116.455 89.37 116.455 89.682V93.03C116.455 93.342 116.515 93.618 116.635 93.858C116.767 94.086 116.941 94.284 117.157 94.452C117.373 94.608 117.625 94.728 117.913 94.812C118.201 94.896 118.507 94.938 118.831 94.938ZM140.147 84.66C139.727 84.66 139.433 84.576 139.265 84.408C139.097 84.228 139.013 84.006 139.013 83.742V83.454C139.013 83.19 139.097 82.974 139.265 82.806C139.433 82.626 139.727 82.536 140.147 82.536C140.567 82.536 140.861 82.626 141.029 82.806C141.197 82.974 141.281 83.19 141.281 83.454V83.742C141.281 84.006 141.197 84.228 141.029 84.408C140.861 84.576 140.567 84.66 140.147 84.66ZM136.079 94.776H139.427V87.936H136.079V86.712H140.867V94.776H143.999V96H136.079V94.776ZM150.112 96.216C149.14 96.216 148.3 96.054 147.592 95.73C146.896 95.394 146.302 94.95 145.81 94.398L146.782 93.552C147.226 94.02 147.712 94.38 148.24 94.632C148.768 94.884 149.404 95.01 150.148 95.01C150.868 95.01 151.456 94.884 151.912 94.632C152.38 94.368 152.614 93.96 152.614 93.408C152.614 93.168 152.566 92.97 152.47 92.814C152.386 92.646 152.266 92.514 152.11 92.418C151.954 92.322 151.78 92.25 151.588 92.202C151.396 92.142 151.192 92.094 150.976 92.058L149.518 91.842C149.194 91.794 148.84 91.728 148.456 91.644C148.084 91.56 147.742 91.428 147.43 91.248C147.118 91.056 146.854 90.804 146.638 90.492C146.434 90.18 146.332 89.772 146.332 89.268C146.332 88.8 146.422 88.398 146.602 88.062C146.794 87.714 147.058 87.426 147.394 87.198C147.73 86.958 148.126 86.784 148.582 86.676C149.038 86.556 149.536 86.496 150.076 86.496C150.916 86.496 151.642 86.628 152.254 86.892C152.878 87.156 153.412 87.522 153.856 87.99L152.92 88.872C152.812 88.74 152.674 88.608 152.506 88.476C152.35 88.332 152.152 88.206 151.912 88.098C151.684 87.978 151.414 87.882 151.102 87.81C150.79 87.738 150.43 87.702 150.022 87.702C149.29 87.702 148.726 87.828 148.33 88.08C147.946 88.332 147.754 88.698 147.754 89.178C147.754 89.418 147.796 89.622 147.88 89.79C147.976 89.946 148.102 90.072 148.258 90.168C148.414 90.264 148.588 90.342 148.78 90.402C148.984 90.45 149.188 90.492 149.392 90.528L150.85 90.744C151.186 90.792 151.54 90.858 151.912 90.942C152.284 91.026 152.626 91.164 152.938 91.356C153.25 91.536 153.508 91.782 153.712 92.094C153.928 92.406 154.036 92.814 154.036 93.318C154.036 94.242 153.676 94.956 152.956 95.46C152.248 95.964 151.3 96.216 150.112 96.216ZM171.193 96.216C170.521 96.216 169.921 96.102 169.393 95.874C168.877 95.634 168.439 95.304 168.079 94.884C167.719 94.464 167.443 93.954 167.251 93.354C167.071 92.754 166.981 92.088 166.981 91.356C166.981 90.624 167.077 89.958 167.269 89.358C167.461 88.758 167.737 88.248 168.097 87.828C168.457 87.396 168.895 87.066 169.411 86.838C169.927 86.61 170.515 86.496 171.175 86.496C172.075 86.496 172.807 86.694 173.371 87.09C173.935 87.486 174.349 88.002 174.613 88.638L173.461 89.25C173.293 88.77 173.011 88.398 172.615 88.134C172.231 87.87 171.751 87.738 171.175 87.738C170.755 87.738 170.377 87.81 170.041 87.954C169.717 88.086 169.441 88.278 169.213 88.53C168.985 88.782 168.811 89.082 168.691 89.43C168.583 89.778 168.529 90.156 168.529 90.564V92.148C168.529 92.556 168.583 92.934 168.691 93.282C168.811 93.63 168.985 93.93 169.213 94.182C169.441 94.434 169.723 94.632 170.059 94.776C170.395 94.908 170.779 94.974 171.211 94.974C171.835 94.974 172.351 94.83 172.759 94.542C173.167 94.254 173.491 93.858 173.731 93.354L174.757 94.056C174.481 94.68 174.049 95.196 173.461 95.604C172.885 96.012 172.129 96.216 171.193 96.216ZM177.342 94.776H180.582V83.904H177.342V82.68H182.022V94.776H185.262V96H177.342V94.776ZM191.735 96.216C191.087 96.216 190.499 96.102 189.971 95.874C189.455 95.646 189.011 95.322 188.639 94.902C188.279 94.47 188.003 93.96 187.811 93.372C187.619 92.772 187.523 92.1 187.523 91.356C187.523 90.624 187.619 89.958 187.811 89.358C188.003 88.758 188.279 88.248 188.639 87.828C189.011 87.396 189.455 87.066 189.971 86.838C190.499 86.61 191.087 86.496 191.735 86.496C192.383 86.496 192.965 86.61 193.481 86.838C194.009 87.066 194.453 87.396 194.813 87.828C195.185 88.248 195.467 88.758 195.659 89.358C195.851 89.958 195.947 90.624 195.947 91.356C195.947 92.1 195.851 92.772 195.659 93.372C195.467 93.96 195.185 94.47 194.813 94.902C194.453 95.322 194.009 95.646 193.481 95.874C192.965 96.102 192.383 96.216 191.735 96.216ZM191.735 94.974C192.539 94.974 193.187 94.734 193.679 94.254C194.171 93.774 194.417 93.03 194.417 92.022V90.69C194.417 89.682 194.171 88.938 193.679 88.458C193.187 87.978 192.539 87.738 191.735 87.738C190.931 87.738 190.283 87.978 189.791 88.458C189.299 88.938 189.053 89.682 189.053 90.69V92.022C189.053 93.03 189.299 93.774 189.791 94.254C190.283 94.734 190.931 94.974 191.735 94.974ZM202.276 96.216C201.304 96.216 200.464 96.054 199.756 95.73C199.06 95.394 198.466 94.95 197.974 94.398L198.946 93.552C199.39 94.02 199.876 94.38 200.404 94.632C200.932 94.884 201.568 95.01 202.312 95.01C203.032 95.01 203.62 94.884 204.076 94.632C204.544 94.368 204.778 93.96 204.778 93.408C204.778 93.168 204.73 92.97 204.634 92.814C204.55 92.646 204.43 92.514 204.274 92.418C204.118 92.322 203.944 92.25 203.752 92.202C203.56 92.142 203.356 92.094 203.14 92.058L201.682 91.842C201.358 91.794 201.004 91.728 200.62 91.644C200.248 91.56 199.906 91.428 199.594 91.248C199.282 91.056 199.018 90.804 198.802 90.492C198.598 90.18 198.496 89.772 198.496 89.268C198.496 88.8 198.586 88.398 198.766 88.062C198.958 87.714 199.222 87.426 199.558 87.198C199.894 86.958 200.29 86.784 200.746 86.676C201.202 86.556 201.7 86.496 202.24 86.496C203.08 86.496 203.806 86.628 204.418 86.892C205.042 87.156 205.576 87.522 206.02 87.99L205.084 88.872C204.976 88.74 204.838 88.608 204.67 88.476C204.514 88.332 204.316 88.206 204.076 88.098C203.848 87.978 203.578 87.882 203.266 87.81C202.954 87.738 202.594 87.702 202.186 87.702C201.454 87.702 200.89 87.828 200.494 88.08C200.11 88.332 199.918 88.698 199.918 89.178C199.918 89.418 199.96 89.622 200.044 89.79C200.14 89.946 200.266 90.072 200.422 90.168C200.578 90.264 200.752 90.342 200.944 90.402C201.148 90.45 201.352 90.492 201.556 90.528L203.014 90.744C203.35 90.792 203.704 90.858 204.076 90.942C204.448 91.026 204.79 91.164 205.102 91.356C205.414 91.536 205.672 91.782 205.876 92.094C206.092 92.406 206.2 92.814 206.2 93.318C206.2 94.242 205.84 94.956 205.12 95.46C204.412 95.964 203.464 96.216 202.276 96.216ZM213.177 84.66C212.757 84.66 212.463 84.576 212.295 84.408C212.127 84.228 212.043 84.006 212.043 83.742V83.454C212.043 83.19 212.127 82.974 212.295 82.806C212.463 82.626 212.757 82.536 213.177 82.536C213.597 82.536 213.891 82.626 214.059 82.806C214.227 82.974 214.311 83.19 214.311 83.454V83.742C214.311 84.006 214.227 84.228 214.059 84.408C213.891 84.576 213.597 84.66 213.177 84.66ZM209.109 94.776H212.457V87.936H209.109V86.712H213.897V94.776H217.029V96H209.109V94.776ZM219.398 96V86.712H220.838V88.224H220.91C221.006 87.996 221.126 87.78 221.27 87.576C221.414 87.36 221.588 87.174 221.792 87.018C222.008 86.862 222.26 86.736 222.548 86.64C222.836 86.544 223.172 86.496 223.556 86.496C224.528 86.496 225.308 86.808 225.896 87.432C226.484 88.044 226.778 88.914 226.778 90.042V96H225.338V90.294C225.338 89.442 225.152 88.812 224.78 88.404C224.408 87.984 223.862 87.774 223.142 87.774C222.854 87.774 222.572 87.81 222.296 87.882C222.02 87.954 221.774 88.062 221.558 88.206C221.342 88.35 221.168 88.536 221.036 88.764C220.904 88.992 220.838 89.256 220.838 89.556V96H219.398ZM238.165 97.062C238.165 97.998 237.775 98.688 236.995 99.132C236.215 99.588 235.045 99.816 233.485 99.816C231.985 99.816 230.905 99.618 230.245 99.222C229.597 98.826 229.273 98.256 229.273 97.512C229.273 97.008 229.405 96.618 229.669 96.342C229.933 96.066 230.305 95.862 230.785 95.73V95.514C230.521 95.382 230.317 95.214 230.173 95.01C230.029 94.806 229.957 94.548 229.957 94.236C229.957 93.756 230.113 93.396 230.425 93.156C230.749 92.916 231.151 92.736 231.631 92.616V92.544C231.055 92.292 230.605 91.92 230.281 91.428C229.969 90.936 229.813 90.36 229.813 89.7C229.813 89.232 229.897 88.8 230.065 88.404C230.233 88.008 230.473 87.672 230.785 87.396C231.109 87.108 231.493 86.886 231.937 86.73C232.381 86.574 232.873 86.496 233.413 86.496C234.109 86.496 234.721 86.622 235.249 86.874V86.712C235.249 86.352 235.333 86.052 235.501 85.812C235.669 85.572 235.957 85.452 236.365 85.452H238.075V86.712H235.987V87.342C236.323 87.63 236.581 87.972 236.761 88.368C236.941 88.764 237.031 89.208 237.031 89.7C237.031 90.168 236.941 90.6 236.761 90.996C236.593 91.392 236.353 91.734 236.041 92.022C235.729 92.298 235.345 92.514 234.889 92.67C234.445 92.826 233.953 92.904 233.413 92.904C233.257 92.904 233.107 92.898 232.963 92.886C232.819 92.874 232.675 92.856 232.531 92.832C232.387 92.856 232.237 92.898 232.081 92.958C231.925 93.006 231.781 93.078 231.649 93.174C231.517 93.258 231.409 93.36 231.325 93.48C231.241 93.6 231.199 93.738 231.199 93.894C231.199 94.17 231.337 94.356 231.613 94.452C231.889 94.536 232.249 94.578 232.693 94.578H234.745C235.945 94.578 236.815 94.806 237.355 95.262C237.895 95.706 238.165 96.306 238.165 97.062ZM236.815 97.134C236.815 96.762 236.665 96.462 236.365 96.234C236.065 96.018 235.543 95.91 234.799 95.91H231.577C230.953 96.162 230.641 96.582 230.641 97.17C230.641 97.578 230.803 97.926 231.127 98.214C231.451 98.514 231.991 98.664 232.747 98.664H234.151C234.991 98.664 235.645 98.532 236.113 98.268C236.581 98.016 236.815 97.638 236.815 97.134ZM233.413 91.788C234.133 91.788 234.661 91.62 234.997 91.284C235.345 90.948 235.519 90.504 235.519 89.952V89.43C235.519 88.878 235.345 88.44 234.997 88.116C234.661 87.78 234.133 87.612 233.413 87.612C232.693 87.612 232.165 87.78 231.829 88.116C231.493 88.44 231.325 88.878 231.325 89.43V89.952C231.325 90.504 231.493 90.948 231.829 91.284C232.165 91.62 232.693 91.788 233.413 91.788ZM243.9 96.162C243.408 96.162 243.06 96.06 242.856 95.856C242.664 95.652 242.568 95.394 242.568 95.082V94.758C242.568 94.446 242.664 94.188 242.856 93.984C243.06 93.78 243.408 93.678 243.9 93.678C244.392 93.678 244.734 93.78 244.926 93.984C245.13 94.188 245.232 94.446 245.232 94.758V95.082C245.232 95.394 245.13 95.652 244.926 95.856C244.734 96.06 244.392 96.162 243.9 96.162ZM41.8938 122V109.436H46.4658C47.6298 109.436 48.5178 109.754 49.1298 110.39C49.7418 111.026 50.0478 111.914 50.0478 113.054C50.0478 114.194 49.7418 115.082 49.1298 115.718C48.5178 116.354 47.6298 116.672 46.4658 116.672H43.4058V122H41.8938ZM43.4058 115.358H46.4298C47.0658 115.358 47.5578 115.202 47.9058 114.89C48.2658 114.566 48.4458 114.11 48.4458 113.522V112.586C48.4458 111.998 48.2658 111.548 47.9058 111.236C47.5578 110.912 47.0658 110.75 46.4298 110.75H43.4058V115.358ZM52.1468 120.776H55.3868V109.904H52.1468V108.68H56.8268V120.776H60.0668V122H52.1468V120.776ZM66.7018 122.216C66.0298 122.216 65.4238 122.102 64.8838 121.874C64.3558 121.646 63.8998 121.322 63.5158 120.902C63.1438 120.47 62.8558 119.96 62.6518 119.372C62.4478 118.772 62.3458 118.106 62.3458 117.374C62.3458 116.63 62.4478 115.958 62.6518 115.358C62.8678 114.758 63.1618 114.248 63.5338 113.828C63.9058 113.396 64.3498 113.066 64.8658 112.838C65.3938 112.61 65.9758 112.496 66.6118 112.496C67.2358 112.496 67.7998 112.61 68.3038 112.838C68.8198 113.066 69.2578 113.384 69.6178 113.792C69.9778 114.188 70.2538 114.662 70.4458 115.214C70.6378 115.766 70.7338 116.372 70.7338 117.032V117.716H63.8578V118.148C63.8578 118.556 63.9238 118.934 64.0558 119.282C64.1878 119.63 64.3738 119.93 64.6138 120.182C64.8658 120.434 65.1658 120.632 65.5138 120.776C65.8738 120.908 66.2698 120.974 66.7018 120.974C67.3258 120.974 67.8658 120.83 68.3218 120.542C68.7778 120.254 69.1258 119.858 69.3658 119.354L70.4278 120.074C70.1518 120.698 69.6898 121.214 69.0418 121.622C68.4058 122.018 67.6258 122.216 66.7018 122.216ZM66.6118 113.684C66.2158 113.684 65.8498 113.756 65.5138 113.9C65.1778 114.044 64.8838 114.242 64.6318 114.494C64.3918 114.746 64.1998 115.046 64.0558 115.394C63.9238 115.73 63.8578 116.102 63.8578 116.51V116.636H69.1858V116.438C69.1858 116.03 69.1198 115.658 68.9878 115.322C68.8678 114.986 68.6938 114.698 68.4658 114.458C68.2498 114.206 67.9798 114.014 67.6558 113.882C67.3438 113.75 66.9958 113.684 66.6118 113.684ZM80.4827 122C79.9187 122 79.5167 121.856 79.2767 121.568C79.0367 121.28 78.8867 120.92 78.8267 120.488H78.7367C78.5327 121.028 78.2027 121.454 77.7467 121.766C77.3027 122.066 76.7027 122.216 75.9467 122.216C74.9747 122.216 74.2007 121.964 73.6247 121.46C73.0487 120.956 72.7607 120.266 72.7607 119.39C72.7607 118.526 73.0727 117.86 73.6967 117.392C74.3327 116.924 75.3527 116.69 76.7567 116.69H78.7367V115.772C78.7367 115.088 78.5447 114.578 78.1607 114.242C77.7767 113.894 77.2307 113.72 76.5227 113.72C75.8987 113.72 75.3887 113.846 74.9927 114.098C74.5967 114.338 74.2787 114.668 74.0387 115.088L73.0667 114.368C73.1867 114.128 73.3487 113.894 73.5527 113.666C73.7567 113.438 74.0087 113.24 74.3087 113.072C74.6087 112.892 74.9507 112.754 75.3347 112.658C75.7187 112.55 76.1447 112.496 76.6127 112.496C77.7047 112.496 78.5687 112.772 79.2047 113.324C79.8527 113.876 80.1767 114.644 80.1767 115.628V120.74H81.4727V122H80.4827ZM76.1987 121.01C76.5707 121.01 76.9067 120.968 77.2067 120.884C77.5187 120.788 77.7887 120.668 78.0167 120.524C78.2447 120.368 78.4187 120.188 78.5387 119.984C78.6707 119.768 78.7367 119.54 78.7367 119.3V117.77H76.7567C75.8927 117.77 75.2627 117.89 74.8667 118.13C74.4707 118.37 74.2727 118.718 74.2727 119.174V119.552C74.2727 120.032 74.4407 120.398 74.7767 120.65C75.1247 120.89 75.5987 121.01 76.1987 121.01ZM87.5137 122.216C86.5417 122.216 85.7017 122.054 84.9937 121.73C84.2977 121.394 83.7037 120.95 83.2117 120.398L84.1837 119.552C84.6277 120.02 85.1137 120.38 85.6417 120.632C86.1697 120.884 86.8057 121.01 87.5497 121.01C88.2697 121.01 88.8577 120.884 89.3137 120.632C89.7817 120.368 90.0157 119.96 90.0157 119.408C90.0157 119.168 89.9677 118.97 89.8717 118.814C89.7877 118.646 89.6677 118.514 89.5117 118.418C89.3557 118.322 89.1817 118.25 88.9897 118.202C88.7977 118.142 88.5937 118.094 88.3777 118.058L86.9197 117.842C86.5957 117.794 86.2417 117.728 85.8577 117.644C85.4857 117.56 85.1437 117.428 84.8317 117.248C84.5197 117.056 84.2557 116.804 84.0397 116.492C83.8357 116.18 83.7337 115.772 83.7337 115.268C83.7337 114.8 83.8237 114.398 84.0037 114.062C84.1957 113.714 84.4597 113.426 84.7957 113.198C85.1317 112.958 85.5277 112.784 85.9837 112.676C86.4397 112.556 86.9377 112.496 87.4777 112.496C88.3177 112.496 89.0437 112.628 89.6557 112.892C90.2797 113.156 90.8137 113.522 91.2577 113.99L90.3217 114.872C90.2137 114.74 90.0757 114.608 89.9077 114.476C89.7517 114.332 89.5537 114.206 89.3137 114.098C89.0857 113.978 88.8157 113.882 88.5037 113.81C88.1917 113.738 87.8317 113.702 87.4237 113.702C86.6917 113.702 86.1277 113.828 85.7317 114.08C85.3477 114.332 85.1557 114.698 85.1557 115.178C85.1557 115.418 85.1977 115.622 85.2817 115.79C85.3777 115.946 85.5037 116.072 85.6597 116.168C85.8157 116.264 85.9897 116.342 86.1817 116.402C86.3857 116.45 86.5897 116.492 86.7937 116.528L88.2517 116.744C88.5877 116.792 88.9417 116.858 89.3137 116.942C89.6857 117.026 90.0277 117.164 90.3397 117.356C90.6517 117.536 90.9097 117.782 91.1137 118.094C91.3297 118.406 91.4377 118.814 91.4377 119.318C91.4377 120.242 91.0777 120.956 90.3577 121.46C89.6497 121.964 88.7017 122.216 87.5137 122.216ZM98.0007 122.216C97.3287 122.216 96.7227 122.102 96.1827 121.874C95.6547 121.646 95.1987 121.322 94.8147 120.902C94.4427 120.47 94.1547 119.96 93.9507 119.372C93.7467 118.772 93.6447 118.106 93.6447 117.374C93.6447 116.63 93.7467 115.958 93.9507 115.358C94.1667 114.758 94.4607 114.248 94.8327 113.828C95.2047 113.396 95.6487 113.066 96.1647 112.838C96.6927 112.61 97.2747 112.496 97.9107 112.496C98.5347 112.496 99.0987 112.61 99.6027 112.838C100.119 113.066 100.557 113.384 100.917 113.792C101.277 114.188 101.553 114.662 101.745 115.214C101.937 115.766 102.033 116.372 102.033 117.032V117.716H95.1567V118.148C95.1567 118.556 95.2227 118.934 95.3547 119.282C95.4867 119.63 95.6727 119.93 95.9127 120.182C96.1647 120.434 96.4647 120.632 96.8127 120.776C97.1727 120.908 97.5687 120.974 98.0007 120.974C98.6247 120.974 99.1647 120.83 99.6207 120.542C100.077 120.254 100.425 119.858 100.665 119.354L101.727 120.074C101.451 120.698 100.989 121.214 100.341 121.622C99.7047 122.018 98.9247 122.216 98.0007 122.216ZM97.9107 113.684C97.5147 113.684 97.1487 113.756 96.8127 113.9C96.4767 114.044 96.1827 114.242 95.9307 114.494C95.6907 114.746 95.4987 115.046 95.3547 115.394C95.2227 115.73 95.1567 116.102 95.1567 116.51V116.636H100.485V116.438C100.485 116.03 100.419 115.658 100.287 115.322C100.167 114.986 99.9927 114.698 99.7647 114.458C99.5487 114.206 99.2787 114.014 98.9547 113.882C98.6427 113.75 98.2947 113.684 97.9107 113.684ZM113.845 112.712H115.123L116.185 120.74H116.347L117.931 112.712H119.515L121.099 120.74H121.261L122.323 112.712H123.565L122.143 122H120.271L118.795 114.224H118.651L117.139 122H115.267L113.845 112.712ZM132.648 122C132.084 122 131.682 121.856 131.442 121.568C131.202 121.28 131.052 120.92 130.992 120.488H130.902C130.698 121.028 130.368 121.454 129.912 121.766C129.468 122.066 128.868 122.216 128.112 122.216C127.14 122.216 126.366 121.964 125.79 121.46C125.214 120.956 124.926 120.266 124.926 119.39C124.926 118.526 125.238 117.86 125.862 117.392C126.498 116.924 127.518 116.69 128.922 116.69H130.902V115.772C130.902 115.088 130.71 114.578 130.326 114.242C129.942 113.894 129.396 113.72 128.688 113.72C128.064 113.72 127.554 113.846 127.158 114.098C126.762 114.338 126.444 114.668 126.204 115.088L125.232 114.368C125.352 114.128 125.514 113.894 125.718 113.666C125.922 113.438 126.174 113.24 126.474 113.072C126.774 112.892 127.116 112.754 127.5 112.658C127.884 112.55 128.31 112.496 128.778 112.496C129.87 112.496 130.734 112.772 131.37 113.324C132.018 113.876 132.342 114.644 132.342 115.628V120.74H133.638V122H132.648ZM128.364 121.01C128.736 121.01 129.072 120.968 129.372 120.884C129.684 120.788 129.954 120.668 130.182 120.524C130.41 120.368 130.584 120.188 130.704 119.984C130.836 119.768 130.902 119.54 130.902 119.3V117.77H128.922C128.058 117.77 127.428 117.89 127.032 118.13C126.636 118.37 126.438 118.718 126.438 119.174V119.552C126.438 120.032 126.606 120.398 126.942 120.65C127.29 120.89 127.764 121.01 128.364 121.01ZM140.147 110.66C139.727 110.66 139.433 110.576 139.265 110.408C139.097 110.228 139.013 110.006 139.013 109.742V109.454C139.013 109.19 139.097 108.974 139.265 108.806C139.433 108.626 139.727 108.536 140.147 108.536C140.567 108.536 140.861 108.626 141.029 108.806C141.197 108.974 141.281 109.19 141.281 109.454V109.742C141.281 110.006 141.197 110.228 141.029 110.408C140.861 110.576 140.567 110.66 140.147 110.66ZM136.079 120.776H139.427V113.936H136.079V112.712H140.867V120.776H143.999V122H136.079V120.776ZM150.454 122C149.746 122 149.224 121.802 148.888 121.406C148.564 121.01 148.402 120.5 148.402 119.876V113.936H145.306V112.712H147.61C147.922 112.712 148.138 112.652 148.258 112.532C148.39 112.4 148.456 112.178 148.456 111.866V109.436H149.842V112.712H154.072V113.936H149.842V120.776H154.072V122H150.454ZM174.379 122C173.815 122 173.413 121.856 173.173 121.568C172.933 121.28 172.783 120.92 172.723 120.488H172.633C172.429 121.028 172.099 121.454 171.643 121.766C171.199 122.066 170.599 122.216 169.843 122.216C168.871 122.216 168.097 121.964 167.521 121.46C166.945 120.956 166.657 120.266 166.657 119.39C166.657 118.526 166.969 117.86 167.593 117.392C168.229 116.924 169.249 116.69 170.653 116.69H172.633V115.772C172.633 115.088 172.441 114.578 172.057 114.242C171.673 113.894 171.127 113.72 170.419 113.72C169.795 113.72 169.285 113.846 168.889 114.098C168.493 114.338 168.175 114.668 167.935 115.088L166.963 114.368C167.083 114.128 167.245 113.894 167.449 113.666C167.653 113.438 167.905 113.24 168.205 113.072C168.505 112.892 168.847 112.754 169.231 112.658C169.615 112.55 170.041 112.496 170.509 112.496C171.601 112.496 172.465 112.772 173.101 113.324C173.749 113.876 174.073 114.644 174.073 115.628V120.74H175.369V122H174.379ZM170.095 121.01C170.467 121.01 170.803 120.968 171.103 120.884C171.415 120.788 171.685 120.668 171.913 120.524C172.141 120.368 172.315 120.188 172.435 119.984C172.567 119.768 172.633 119.54 172.633 119.3V117.77H170.653C169.789 117.77 169.159 117.89 168.763 118.13C168.367 118.37 168.169 118.718 168.169 119.174V119.552C168.169 120.032 168.337 120.398 168.673 120.65C169.021 120.89 169.495 121.01 170.095 121.01ZM187.307 122V112.712H188.639V113.792H188.711C188.855 113.432 189.059 113.126 189.323 112.874C189.587 112.622 189.977 112.496 190.493 112.496C191.033 112.496 191.435 112.634 191.699 112.91C191.963 113.174 192.125 113.522 192.185 113.954H192.239C192.407 113.534 192.647 113.186 192.959 112.91C193.271 112.634 193.703 112.496 194.255 112.496C195.011 112.496 195.515 112.76 195.767 113.288C196.031 113.816 196.163 114.572 196.163 115.556V122H194.831V115.79C194.831 114.998 194.747 114.452 194.579 114.152C194.423 113.84 194.129 113.684 193.697 113.684C193.313 113.684 193.001 113.81 192.761 114.062C192.521 114.302 192.401 114.674 192.401 115.178V122H191.069V115.79C191.069 114.998 190.985 114.452 190.817 114.152C190.661 113.84 190.373 113.684 189.953 113.684C189.569 113.684 189.251 113.81 188.999 114.062C188.759 114.302 188.639 114.674 188.639 115.178V122H187.307ZM202.168 122.216C201.52 122.216 200.932 122.102 200.404 121.874C199.888 121.646 199.444 121.322 199.072 120.902C198.712 120.47 198.436 119.96 198.244 119.372C198.052 118.772 197.956 118.1 197.956 117.356C197.956 116.624 198.052 115.958 198.244 115.358C198.436 114.758 198.712 114.248 199.072 113.828C199.444 113.396 199.888 113.066 200.404 112.838C200.932 112.61 201.52 112.496 202.168 112.496C202.816 112.496 203.398 112.61 203.914 112.838C204.442 113.066 204.886 113.396 205.246 113.828C205.618 114.248 205.9 114.758 206.092 115.358C206.284 115.958 206.38 116.624 206.38 117.356C206.38 118.1 206.284 118.772 206.092 119.372C205.9 119.96 205.618 120.47 205.246 120.902C204.886 121.322 204.442 121.646 203.914 121.874C203.398 122.102 202.816 122.216 202.168 122.216ZM202.168 120.974C202.972 120.974 203.62 120.734 204.112 120.254C204.604 119.774 204.85 119.03 204.85 118.022V116.69C204.85 115.682 204.604 114.938 204.112 114.458C203.62 113.978 202.972 113.738 202.168 113.738C201.364 113.738 200.716 113.978 200.224 114.458C199.732 114.938 199.486 115.682 199.486 116.69V118.022C199.486 119.03 199.732 119.774 200.224 120.254C200.716 120.734 201.364 120.974 202.168 120.974ZM208.173 122V112.712H209.505V113.792H209.577C209.721 113.432 209.925 113.126 210.189 112.874C210.453 112.622 210.843 112.496 211.359 112.496C211.899 112.496 212.301 112.634 212.565 112.91C212.829 113.174 212.991 113.522 213.051 113.954H213.105C213.273 113.534 213.513 113.186 213.825 112.91C214.137 112.634 214.569 112.496 215.121 112.496C215.877 112.496 216.381 112.76 216.633 113.288C216.897 113.816 217.029 114.572 217.029 115.556V122H215.697V115.79C215.697 114.998 215.613 114.452 215.445 114.152C215.289 113.84 214.995 113.684 214.563 113.684C214.179 113.684 213.867 113.81 213.627 114.062C213.387 114.302 213.267 114.674 213.267 115.178V122H211.935V115.79C211.935 114.998 211.851 114.452 211.683 114.152C211.527 113.84 211.239 113.684 210.819 113.684C210.435 113.684 210.117 113.81 209.865 114.062C209.625 114.302 209.505 114.674 209.505 115.178V122H208.173ZM223.196 122.216C222.524 122.216 221.918 122.102 221.378 121.874C220.85 121.646 220.394 121.322 220.01 120.902C219.638 120.47 219.35 119.96 219.146 119.372C218.942 118.772 218.84 118.106 218.84 117.374C218.84 116.63 218.942 115.958 219.146 115.358C219.362 114.758 219.656 114.248 220.028 113.828C220.4 113.396 220.844 113.066 221.36 112.838C221.888 112.61 222.47 112.496 223.106 112.496C223.73 112.496 224.294 112.61 224.798 112.838C225.314 113.066 225.752 113.384 226.112 113.792C226.472 114.188 226.748 114.662 226.94 115.214C227.132 115.766 227.228 116.372 227.228 117.032V117.716H220.352V118.148C220.352 118.556 220.418 118.934 220.55 119.282C220.682 119.63 220.868 119.93 221.108 120.182C221.36 120.434 221.66 120.632 222.008 120.776C222.368 120.908 222.764 120.974 223.196 120.974C223.82 120.974 224.36 120.83 224.816 120.542C225.272 120.254 225.62 119.858 225.86 119.354L226.922 120.074C226.646 120.698 226.184 121.214 225.536 121.622C224.9 122.018 224.12 122.216 223.196 122.216ZM223.106 113.684C222.71 113.684 222.344 113.756 222.008 113.9C221.672 114.044 221.378 114.242 221.126 114.494C220.886 114.746 220.694 115.046 220.55 115.394C220.418 115.73 220.352 116.102 220.352 116.51V116.636H225.68V116.438C225.68 116.03 225.614 115.658 225.482 115.322C225.362 114.986 225.188 114.698 224.96 114.458C224.744 114.206 224.474 114.014 224.15 113.882C223.838 113.75 223.49 113.684 223.106 113.684ZM229.831 122V112.712H231.271V114.224H231.343C231.439 113.996 231.559 113.78 231.703 113.576C231.847 113.36 232.021 113.174 232.225 113.018C232.441 112.862 232.693 112.736 232.981 112.64C233.269 112.544 233.605 112.496 233.989 112.496C234.961 112.496 235.741 112.808 236.329 113.432C236.917 114.044 237.211 114.914 237.211 116.042V122H235.771V116.294C235.771 115.442 235.585 114.812 235.213 114.404C234.841 113.984 234.295 113.774 233.575 113.774C233.287 113.774 233.005 113.81 232.729 113.882C232.453 113.954 232.207 114.062 231.991 114.206C231.775 114.35 231.601 114.536 231.469 114.764C231.337 114.992 231.271 115.256 231.271 115.556V122H229.831ZM244.35 122C243.642 122 243.12 121.802 242.784 121.406C242.46 121.01 242.298 120.5 242.298 119.876V113.936H239.202V112.712H241.506C241.818 112.712 242.034 112.652 242.154 112.532C242.286 112.4 242.352 112.178 242.352 111.866V109.436H243.738V112.712H247.968V113.936H243.738V120.776H247.968V122H244.35ZM254.333 122.162C253.841 122.162 253.493 122.06 253.289 121.856C253.097 121.652 253.001 121.394 253.001 121.082V120.758C253.001 120.446 253.097 120.188 253.289 119.984C253.493 119.78 253.841 119.678 254.333 119.678C254.825 119.678 255.167 119.78 255.359 119.984C255.563 120.188 255.665 120.446 255.665 120.758V121.082C255.665 121.394 255.563 121.652 255.359 121.856C255.167 122.06 254.825 122.162 254.333 122.162Z" fill="#111111"/>
</g>
<defs>
<clipPath id="clip0_655_227697">
<rect width="300" height="158" fill="white"/>
</clipPath>
<clipPath id="clip1_655_227697">
<rect width="276" height="6" fill="white" transform="translate(12)"/>
</clipPath>
<clipPath id="clip2_655_227697">
<rect width="276" height="6" fill="white" transform="matrix(1 0 0 -1 12 158)"/>
</clipPath>
<clipPath id="clip3_655_227697">
<rect width="288" height="6" fill="white" transform="matrix(1 0 0 -1 6 58)"/>
</clipPath>
</defs>
</svg>
