<svg width="300" height="158" viewBox="0 0 300 158" fill="none" xmlns="http://www.w3.org/2000/svg">
<g clip-path="url(#clip0_811_298248)">
<path d="M6 23.2135V19.1067L9.78498 15H291.655L294 19.1067V147.549L289.68 152.007H10.5L6 148.096V23.2135Z" fill="white"/>
<path d="M294 52V12L290.816 6L9.18367 6L6 11.9764V15.8013V52H294Z" fill="#CBCBCB"/>
<path d="M294 6H288V12H294V6Z" fill="#365969"/>
<path d="M294 152H288V146H294V152Z" fill="#365969"/>
<path d="M12 6H6V12H12V6Z" fill="#365969"/>
<path d="M12 152H6V146H12V152Z" fill="#365969"/>
<g clip-path="url(#clip1_811_298248)">
<path d="M-24 0H18V6H-24V0Z" fill="#365969"/>
<path d="M-18 0H24V6H-18V0Z" fill="#365969"/>
<path d="M-12 0H30V6H-12V0Z" fill="#365969"/>
<path d="M-6 0H36V6H-6V0Z" fill="#365969"/>
<path d="M6 0H48V6H6V0Z" fill="#365969"/>
<path d="M12 0H54V6H12V0Z" fill="#365969"/>
<path d="M18 0H60V6H18V0Z" fill="#365969"/>
<path d="M24 0H66V6H24V0Z" fill="#365969"/>
<path d="M30 0H72V6H30V0Z" fill="#365969"/>
<path d="M36 0H78V6H36V0Z" fill="#365969"/>
<path d="M42 0H84V6H42V0Z" fill="#365969"/>
<path d="M48 0H90V6H48V0Z" fill="#365969"/>
<path d="M54 0H96V6H54V0Z" fill="#365969"/>
<path d="M60 0H102V6H60V0Z" fill="#365969"/>
<path d="M66 0H108V6H66V0Z" fill="#365969"/>
<path d="M72 0H114V6H72V0Z" fill="#365969"/>
<path d="M78 0H120V6H78V0Z" fill="#365969"/>
<path d="M84 0H126V6H84V0Z" fill="#365969"/>
<path d="M90 0H132V6H90V0Z" fill="#365969"/>
<path d="M96 0H138V6H96V0Z" fill="#365969"/>
<path d="M102 0H144V6H102V0Z" fill="#365969"/>
<path d="M108 0H150V6H108V0Z" fill="#365969"/>
<path d="M114 0H156V6H114V0Z" fill="#365969"/>
<path d="M120 0H162V6H120V0Z" fill="#365969"/>
<path d="M126 0H168V6H126V0Z" fill="#365969"/>
<path d="M132 0H174V6H132V0Z" fill="#365969"/>
<path d="M138 0H180V6H138V0Z" fill="#365969"/>
<path d="M144 0H186V6H144V0Z" fill="#365969"/>
<path d="M150 0H192V6H150V0Z" fill="#365969"/>
<path d="M156 0H198V6H156V0Z" fill="#365969"/>
<path d="M162 0H204V6H162V0Z" fill="#365969"/>
<path d="M168 0H210V6H168V0Z" fill="#365969"/>
<path d="M174 0H216V6H174V0Z" fill="#365969"/>
<path d="M180 0H222V6H180V0Z" fill="#365969"/>
<path d="M186 0H228V6H186V0Z" fill="#365969"/>
<path d="M192 0H234V6H192V0Z" fill="#365969"/>
<path d="M198 0H240V6H198V0Z" fill="#365969"/>
<path d="M204 0H246V6H204V0Z" fill="#365969"/>
<path d="M210 0H252V6H210V0Z" fill="#365969"/>
<path d="M216 0H258V6H216V0Z" fill="#365969"/>
<path d="M222 0H264V6H222V0Z" fill="#365969"/>
<path d="M228 0H270V6H228V0Z" fill="#365969"/>
<path d="M234 0H276V6H234V0Z" fill="#365969"/>
<path d="M240 0H282V6H240V0Z" fill="#365969"/>
<path d="M246 0H288V6H246V0Z" fill="#365969"/>
<path d="M252 0H294V6H252V0Z" fill="#365969"/>
<path d="M258 0H300V6H258V0Z" fill="#365969"/>
<path d="M264 0H306V6H264V0Z" fill="#365969"/>
<path d="M270 0H312V6H270V0Z" fill="#365969"/>
<path d="M276 0H318V6H276V0Z" fill="#365969"/>
<path d="M282 0H324V6H282V0Z" fill="#365969"/>
</g>
<g clip-path="url(#clip2_811_298248)">
<path d="M-24 158H18V152H-24V158Z" fill="#365969"/>
<path d="M-18 158H24V152H-18V158Z" fill="#365969"/>
<path d="M-12 158H30V152H-12V158Z" fill="#365969"/>
<path d="M-6 158H36V152H-6V158Z" fill="#365969"/>
<path d="M0 158H42V152H0V158Z" fill="#365969"/>
<path d="M6 158H48V152H6V158Z" fill="#365969"/>
<path d="M12 158H54V152H12V158Z" fill="#365969"/>
<path d="M18 158H60V152H18V158Z" fill="#365969"/>
<path d="M24 158H66V152H24V158Z" fill="#365969"/>
<path d="M30 158H72V152H30V158Z" fill="#365969"/>
<path d="M36 158H78V152H36V158Z" fill="#365969"/>
<path d="M42 158H84V152H42V158Z" fill="#365969"/>
<path d="M48 158H90V152H48V158Z" fill="#365969"/>
<path d="M54 158H96V152H54V158Z" fill="#365969"/>
<path d="M60 158H102V152H60V158Z" fill="#365969"/>
<path d="M66 158H108V152H66V158Z" fill="#365969"/>
<path d="M72 158H114V152H72V158Z" fill="#365969"/>
<path d="M78 158H120V152H78V158Z" fill="#365969"/>
<path d="M84 158H126V152H84V158Z" fill="#365969"/>
<path d="M90 158H132V152H90V158Z" fill="#365969"/>
<path d="M96 158H138V152H96V158Z" fill="#365969"/>
<path d="M102 158H144V152H102V158Z" fill="#365969"/>
<path d="M108 158H150V152H108V158Z" fill="#365969"/>
<path d="M114 158H156V152H114V158Z" fill="#365969"/>
<path d="M120 158H162V152H120V158Z" fill="#365969"/>
<path d="M126 158H168V152H126V158Z" fill="#365969"/>
<path d="M132 158H174V152H132V158Z" fill="#365969"/>
<path d="M138 158H180V152H138V158Z" fill="#365969"/>
<path d="M144 158H186V152H144V158Z" fill="#365969"/>
<path d="M150 158H192V152H150V158Z" fill="#365969"/>
<path d="M156 158H198V152H156V158Z" fill="#365969"/>
<path d="M162 158H204V152H162V158Z" fill="#365969"/>
<path d="M168 158H210V152H168V158Z" fill="#365969"/>
<path d="M174 158H216V152H174V158Z" fill="#365969"/>
<path d="M180 158H222V152H180V158Z" fill="#365969"/>
<path d="M186 158H228V152H186V158Z" fill="#365969"/>
<path d="M192 158H234V152H192V158Z" fill="#365969"/>
<path d="M198 158H240V152H198V158Z" fill="#365969"/>
<path d="M204 158H246V152H204V158Z" fill="#365969"/>
<path d="M210 158H252V152H210V158Z" fill="#365969"/>
<path d="M216 158H258V152H216V158Z" fill="#365969"/>
<path d="M222 158H264V152H222V158Z" fill="#365969"/>
<path d="M228 158H270V152H228V158Z" fill="#365969"/>
<path d="M234 158H276V152H234V158Z" fill="#365969"/>
<path d="M240 158H282V152H240V158Z" fill="#365969"/>
<path d="M246 158H288V152H246V158Z" fill="#365969"/>
<path d="M252 158H294V152H252V158Z" fill="#365969"/>
<path d="M258 158H300V152H258V158Z" fill="#365969"/>
<path d="M264 158H306V152H264V158Z" fill="#365969"/>
<path d="M270 158H312V152H270V158Z" fill="#365969"/>
<path d="M276 158H318V152H276V158Z" fill="#365969"/>
<path d="M282 158H324V152H282V158Z" fill="#365969"/>
</g>
<g clip-path="url(#clip3_811_298248)">
<path d="M-30 58H12V52H-30V58Z" fill="#F3F3F3"/>
<path d="M-24 58H18V52H-24V58Z" fill="#F3F3F3"/>
<path d="M-18 58H24V52H-18V58Z" fill="#F3F3F3"/>
<path d="M-12 58H30V52H-12V58Z" fill="#F3F3F3"/>
<path d="M6 58H48V52H6V58Z" fill="#F3F3F3"/>
<path d="M12 58H54V52H12V58Z" fill="#F3F3F3"/>
<path d="M18 58H60V52H18V58Z" fill="#F3F3F3"/>
<path d="M24 58H66V52H24V58Z" fill="#F3F3F3"/>
<path d="M30 58H72V52H30V58Z" fill="#F3F3F3"/>
<path d="M36 58H78V52H36V58Z" fill="#F3F3F3"/>
<path d="M42 58H84V52H42V58Z" fill="#F3F3F3"/>
<path d="M48 58H90V52H48V58Z" fill="#F3F3F3"/>
<path d="M54 58H96V52H54V58Z" fill="#F3F3F3"/>
<path d="M60 58H102V52H60V58Z" fill="#F3F3F3"/>
<path d="M66 58H108V52H66V58Z" fill="#F3F3F3"/>
<path d="M72 58H114V52H72V58Z" fill="#F3F3F3"/>
<path d="M78 58H120V52H78V58Z" fill="#F3F3F3"/>
<path d="M84 58H126V52H84V58Z" fill="#F3F3F3"/>
<path d="M90 58H132V52H90V58Z" fill="#F3F3F3"/>
<path d="M96 58H138V52H96V58Z" fill="#F3F3F3"/>
<path d="M102 58H144V52H102V58Z" fill="#F3F3F3"/>
<path d="M108 58H150V52H108V58Z" fill="#F3F3F3"/>
<path d="M114 58H156V52H114V58Z" fill="#F3F3F3"/>
<path d="M120 58H162V52H120V58Z" fill="#F3F3F3"/>
<path d="M126 58H168V52H126V58Z" fill="#F3F3F3"/>
<path d="M132 58H174V52H132V58Z" fill="#F3F3F3"/>
<path d="M138 58H180V52H138V58Z" fill="#F3F3F3"/>
<path d="M144 58H186V52H144V58Z" fill="#F3F3F3"/>
<path d="M150 58H192V52H150V58Z" fill="#F3F3F3"/>
<path d="M156 58H198V52H156V58Z" fill="#F3F3F3"/>
<path d="M162 58H204V52H162V58Z" fill="#F3F3F3"/>
<path d="M168 58H210V52H168V58Z" fill="#F3F3F3"/>
<path d="M174 58H216V52H174V58Z" fill="#F3F3F3"/>
<path d="M180 58H222V52H180V58Z" fill="#F3F3F3"/>
<path d="M186 58H228V52H186V58Z" fill="#F3F3F3"/>
<path d="M192 58H234V52H192V58Z" fill="#F3F3F3"/>
<path d="M198 58H240V52H198V58Z" fill="#F3F3F3"/>
<path d="M204 58H246V52H204V58Z" fill="#F3F3F3"/>
<path d="M210 58H252V52H210V58Z" fill="#F3F3F3"/>
<path d="M216 58H258V52H216V58Z" fill="#F3F3F3"/>
<path d="M222 58H264V52H222V58Z" fill="#F3F3F3"/>
<path d="M228 58H270V52H228V58Z" fill="#F3F3F3"/>
<path d="M234 58H276V52H234V58Z" fill="#F3F3F3"/>
<path d="M240 58H282V52H240V58Z" fill="#F3F3F3"/>
<path d="M246 58H288V52H246V58Z" fill="#F3F3F3"/>
<path d="M252 58H294V52H252V58Z" fill="#F3F3F3"/>
<path d="M258 58H300V52H258V58Z" fill="#F3F3F3"/>
<path d="M264 58H306V52H264V58Z" fill="#F3F3F3"/>
<path d="M270 58H312V52H270V58Z" fill="#F3F3F3"/>
<path d="M276 58H318V52H276V58Z" fill="#F3F3F3"/>
<path d="M282 58H324V52H282V58Z" fill="#F3F3F3"/>
</g>
<path d="M272 26H266V32H272V26Z" fill="#365969"/>
<path d="M266 32H260V38H266V32Z" fill="#365969"/>
<path d="M278 32H272V38H278V32Z" fill="#365969"/>
<path d="M266 20H260V26H266V20Z" fill="#365969"/>
<path d="M278 20H272V26H278V20Z" fill="#365969"/>
<path d="M6 18H0V12H6V18Z" fill="#365969"/>
<path d="M6 24H0V18H6V24Z" fill="#365969"/>
<path d="M6 30H0V24H6V30Z" fill="#365969"/>
<path d="M6 36H0V30H6V36Z" fill="#365969"/>
<path d="M6 42H0V36H6V42Z" fill="#365969"/>
<path d="M6 48H0V42H6V48Z" fill="#365969"/>
<path d="M6 54H0V48H6V54Z" fill="#365969"/>
<path d="M6 60H0V54H6V60Z" fill="#365969"/>
<path d="M6 66H0V60H6V66Z" fill="#365969"/>
<path d="M6 72H0V66H6V72Z" fill="#365969"/>
<path d="M6 78H0V72H6V78Z" fill="#365969"/>
<path d="M6 84H0V78H6V84Z" fill="#365969"/>
<path d="M6 90H0V84H6V90Z" fill="#365969"/>
<path d="M6 96H0V90H6V96Z" fill="#365969"/>
<path d="M6 102H0V96H6V102Z" fill="#365969"/>
<path d="M6 108H0V102H6V108Z" fill="#365969"/>
<path d="M6 114H0V108H6V114Z" fill="#365969"/>
<path d="M6 120H0V114H6V120Z" fill="#365969"/>
<path d="M6 126H0V120H6V126Z" fill="#365969"/>
<path d="M6 132H0V126H6V132Z" fill="#365969"/>
<path d="M6 138H0V132H6V138Z" fill="#365969"/>
<path d="M6 144H0V138H6V144Z" fill="#365969"/>
<path d="M6 146H0V140H6V146Z" fill="#365969"/>
<path d="M300 18H294V12H300V18Z" fill="#365969"/>
<path d="M300 24H294V18H300V24Z" fill="#365969"/>
<path d="M300 30H294V24H300V30Z" fill="#365969"/>
<path d="M300 36H294V30H300V36Z" fill="#365969"/>
<path d="M300 42H294V36H300V42Z" fill="#365969"/>
<path d="M300 48H294V42H300V48Z" fill="#365969"/>
<path d="M300 54H294V48H300V54Z" fill="#365969"/>
<path d="M300 60H294V54H300V60Z" fill="#365969"/>
<path d="M300 66H294V60H300V66Z" fill="#365969"/>
<path d="M300 72H294V66H300V72Z" fill="#365969"/>
<path d="M300 78H294V72H300V78Z" fill="#365969"/>
<path d="M300 84H294V78H300V84Z" fill="#365969"/>
<path d="M300 90H294V84H300V90Z" fill="#365969"/>
<path d="M300 96H294V90H300V96Z" fill="#365969"/>
<path d="M300 102H294V96H300V102Z" fill="#365969"/>
<path d="M300 108H294V102H300V108Z" fill="#365969"/>
<path d="M300 114H294V108H300V114Z" fill="#365969"/>
<path d="M300 120H294V114H300V120Z" fill="#365969"/>
<path d="M300 126H294V120H300V126Z" fill="#365969"/>
<path d="M300 132H294V126H300V132Z" fill="#365969"/>
<path d="M300 138H294V132H300V138Z" fill="#365969"/>
<path d="M300 144H294V138H300V144Z" fill="#365969"/>
<path d="M300 146H294V140H300V146Z" fill="#365969"/>
<circle cx="32" cy="29" r="7" fill="#1E1E1E"/>
<path d="M32.6998 32.5H31.2998V28.3H32.6998V32.5Z" fill="white"/>
<path d="M32.6998 26.9H31.2998V25.5H32.6998V26.9Z" fill="white"/>
<path d="M46 22.0714H47.3929V23.4643H46V22.0714ZM47.3929 22.0714H48.7857V23.4643H47.3929V22.0714ZM47.3929 23.4643H48.7857V24.8571H47.3929V23.4643ZM47.3929 24.8571H48.7857V26.25H47.3929V24.8571ZM47.3929 26.25H48.7857V27.6429H47.3929V26.25ZM46 26.25H47.3929V27.6429H46V26.25ZM46 24.8571H47.3929V26.25H46V24.8571ZM46 23.4643H47.3929V24.8571H46V23.4643ZM46 27.6429H47.3929V29.0357H46V27.6429ZM46 29.0357H47.3929V30.4286H46V29.0357ZM46 30.4286H47.3929V31.8214H46V30.4286ZM47.3929 29.0357H48.7857V30.4286H47.3929V29.0357ZM47.3929 27.6429H48.7857V29.0357H47.3929V27.6429ZM47.3929 30.4286H48.7857V31.8214H47.3929V30.4286ZM47.3929 31.8214H48.7857V33.2143H47.3929V31.8214ZM46 33.2143H47.3929V34.6071H46V33.2143ZM46 31.8214H47.3929V33.2143H46V31.8214ZM46 34.6071H47.3929V36H46V34.6071ZM47.3929 34.6071H48.7857V36H47.3929V34.6071ZM47.3929 33.2143H48.7857V34.6071H47.3929V33.2143ZM48.7857 22.0714H50.1786V23.4643H48.7857V22.0714ZM50.1786 22.0714H51.5714V23.4643H50.1786V22.0714ZM51.5714 22.0714H52.9643V23.4643H51.5714V22.0714ZM52.9643 22.0714H54.3571V23.4643H52.9643V22.0714ZM51.5714 23.4643H52.9643V24.8571H51.5714V23.4643ZM50.1786 23.4643H51.5714V24.8571H50.1786V23.4643ZM48.7857 23.4643H50.1786V24.8571H48.7857V23.4643ZM48.7857 29.0357H50.1786V30.4286H48.7857V29.0357ZM50.1786 27.6429H51.5714V29.0357H50.1786V27.6429ZM48.7857 27.6429H50.1786V29.0357H48.7857V27.6429ZM50.1786 29.0357H51.5714V30.4286H50.1786V29.0357ZM52.9643 23.4643H54.3571V24.8571H52.9643V23.4643ZM51.5714 27.6429H52.9643V29.0357H51.5714V27.6429ZM51.5714 29.0357H52.9643V30.4286H51.5714V29.0357ZM58.7957 24.8571H60.1886V26.25H58.7957V24.8571ZM57.4029 24.8571H58.7957V26.25H57.4029V24.8571ZM57.4029 26.25H58.7957V27.6429H57.4029V26.25ZM58.7957 26.25H60.1886V27.6429H58.7957V26.25ZM60.1886 24.8571H61.5814V26.25H60.1886V24.8571ZM61.5814 24.8571H62.9743V26.25H61.5814V24.8571ZM62.9743 24.8571H64.3671V26.25H62.9743V24.8571ZM62.9743 26.25H64.3671V27.6429H62.9743V26.25ZM61.5814 26.25H62.9743V27.6429H61.5814V26.25ZM64.3671 26.25H65.76V27.6429H64.3671V26.25ZM64.3671 27.6429H65.76V29.0357H64.3671V27.6429ZM64.3671 33.2143H65.76V34.6071H64.3671V33.2143ZM62.9743 33.2143H64.3671V34.6071H62.9743V33.2143ZM62.9743 27.6429H64.3671V29.0357H62.9743V27.6429ZM61.5814 33.2143H62.9743V34.6071H61.5814V33.2143ZM62.9743 34.6071H64.3671V36H62.9743V34.6071ZM61.5814 34.6071H62.9743V36H61.5814V34.6071ZM60.1886 34.6071H61.5814V36H60.1886V34.6071ZM58.7957 34.6071H60.1886V36H58.7957V34.6071ZM57.4029 34.6071H58.7957V36H57.4029V34.6071ZM57.4029 33.2143H58.7957V34.6071H57.4029V33.2143ZM58.7957 33.2143H60.1886V34.6071H58.7957V33.2143ZM57.4029 31.8214H58.7957V33.2143H57.4029V31.8214ZM56.01 33.2143H57.4029V34.6071H56.01V33.2143ZM56.01 31.8214H57.4029V33.2143H56.01V31.8214ZM56.01 30.4286H57.4029V31.8214H56.01V30.4286ZM56.01 29.0357H57.4029V30.4286H56.01V29.0357ZM56.01 27.6429H57.4029V29.0357H56.01V27.6429ZM56.01 26.25H57.4029V27.6429H56.01V26.25ZM57.4029 27.6429H58.7957V29.0357H57.4029V27.6429ZM57.4029 29.0357H58.7957V30.4286H57.4029V29.0357ZM57.4029 30.4286H58.7957V31.8214H57.4029V30.4286ZM60.1886 33.2143H61.5814V34.6071H60.1886V33.2143ZM60.1886 26.25H61.5814V27.6429H60.1886V26.25ZM62.9743 29.0357H64.3671V30.4286H62.9743V29.0357ZM64.3671 29.0357H65.76V30.4286H64.3671V29.0357ZM58.7957 30.4286H60.1886V31.8214H58.7957V30.4286ZM60.1886 30.4286H61.5814V31.8214H60.1886V30.4286ZM61.5814 30.4286H62.9743V31.8214H61.5814V30.4286ZM62.9743 30.4286H64.3671V31.8214H62.9743V30.4286ZM64.3671 30.4286H65.76V31.8214H64.3671V30.4286ZM61.5814 29.0357H62.9743V30.4286H61.5814V29.0357ZM60.1886 29.0357H61.5814V30.4286H60.1886V29.0357ZM58.7957 29.0357H60.1886V30.4286H58.7957V29.0357ZM75.7736 36H74.3808V34.6071H75.7736V36ZM75.7736 34.6071H74.3808V33.2143H75.7736V34.6071ZM74.3808 34.6071H72.9879V33.2143H74.3808V34.6071ZM72.9879 36H71.5951V34.6071H72.9879V36ZM71.5951 36H70.2022V34.6071H71.5951V36ZM70.2022 36H68.8093V34.6071H70.2022V36ZM70.2022 34.6071H68.8093V33.2143H70.2022V34.6071ZM71.5951 34.6071H70.2022V33.2143H71.5951V34.6071ZM68.8093 34.6071H67.4165V33.2143H68.8093V34.6071ZM68.8093 33.2143H67.4165V31.8214H68.8093V33.2143ZM68.8093 27.6429H67.4165V26.25H68.8093V27.6429ZM70.2022 27.6429H68.8093V26.25H70.2022V27.6429ZM70.2022 33.2143H68.8093V31.8214H70.2022V33.2143ZM71.5951 27.6429H70.2022V26.25H71.5951V27.6429ZM70.2022 26.25H68.8093V24.8571H70.2022V26.25ZM71.5951 26.25H70.2022V24.8571H71.5951V26.25ZM72.9879 26.25H71.5951V24.8571H72.9879V26.25ZM74.3808 26.25H72.9879V24.8571H74.3808V26.25ZM75.7736 26.25H74.3808V24.8571H75.7736V26.25ZM75.7736 27.6429H74.3808V26.25H75.7736V27.6429ZM74.3808 27.6429H72.9879V26.25H74.3808V27.6429ZM75.7736 29.0357H74.3808V27.6429H75.7736V29.0357ZM77.1665 27.6429H75.7736V26.25H77.1665V27.6429ZM77.1665 29.0357H75.7736V27.6429H77.1665V29.0357ZM77.1665 30.4286H75.7736V29.0357H77.1665V30.4286ZM77.1665 31.8214H75.7736V30.4286H77.1665V31.8214ZM77.1665 33.2143H75.7736V31.8214H77.1665V33.2143ZM77.1665 34.6071H75.7736V33.2143H77.1665V34.6071ZM75.7736 33.2143H74.3808V31.8214H75.7736V33.2143ZM75.7736 31.8214H74.3808V30.4286H75.7736V31.8214ZM75.7736 30.4286H74.3808V29.0357H75.7736V30.4286ZM72.9879 27.6429H71.5951V26.25H72.9879V27.6429ZM72.9879 34.6071H71.5951V33.2143H72.9879V34.6071ZM75.7736 34.6071H77.1665V36H75.7736V34.6071ZM72.9879 29.0357H74.3808V30.4286H72.9879V29.0357ZM71.5951 29.0357H72.9879V30.4286H71.5951V29.0357ZM70.2022 29.0357H71.5951V30.4286H70.2022V29.0357ZM68.8093 29.0357H70.2022V30.4286H68.8093V29.0357ZM67.4165 30.4286H68.8093V31.8214H67.4165V30.4286ZM68.8093 30.4286H70.2022V31.8214H68.8093V30.4286ZM72.9879 30.4286H74.3808V31.8214H72.9879V30.4286ZM71.5951 30.4286H72.9879V31.8214H71.5951V30.4286ZM70.2022 30.4286H71.5951V31.8214H70.2022V30.4286ZM84.3944 33.2143H85.7873V34.6071H84.3944V33.2143ZM84.3944 34.6071H85.7873V36H84.3944V34.6071ZM83.0015 34.6071H84.3944V36H83.0015V34.6071ZM83.0015 33.2143H84.3944V34.6071H83.0015V33.2143ZM81.6087 34.6071H83.0015V36H81.6087V34.6071ZM81.6087 33.2143H83.0015V34.6071H81.6087V33.2143ZM80.2158 33.2143H81.6087V34.6071H80.2158V33.2143ZM80.2158 31.8214H81.6087V33.2143H80.2158V31.8214ZM80.2158 30.4286H81.6087V31.8214H80.2158V30.4286ZM80.2158 29.0357H81.6087V30.4286H80.2158V29.0357ZM80.2158 27.6429H81.6087V29.0357H80.2158V27.6429ZM80.2158 26.25H81.6087V27.6429H80.2158V26.25ZM81.6087 30.4286H83.0015V31.8214H81.6087V30.4286ZM81.6087 31.8214H83.0015V33.2143H81.6087V31.8214ZM81.6087 29.0357H83.0015V30.4286H81.6087V29.0357ZM81.6087 27.6429H83.0015V29.0357H81.6087V27.6429ZM81.6087 22.0714H83.0015V23.4643H81.6087V22.0714ZM81.6087 23.4643H83.0015V24.8571H81.6087V23.4643ZM81.6087 24.8571H83.0015V26.25H81.6087V24.8571ZM81.6087 26.25H83.0015V27.6429H81.6087V26.25ZM80.2158 24.8571H81.6087V26.25H80.2158V24.8571ZM78.823 26.25H80.2158V27.6429H78.823V26.25ZM83.0015 26.25H84.3944V27.6429H83.0015V26.25ZM84.3944 26.25H85.7873V27.6429H84.3944V26.25ZM80.2158 23.4643H81.6087V24.8571H80.2158V23.4643ZM78.823 27.6429H80.2158V29.0357H78.823V27.6429ZM83.0015 27.6429H84.3944V29.0357H83.0015V27.6429ZM84.3944 27.6429H85.7873V29.0357H84.3944V27.6429ZM97.1865 34.6071H95.7936V33.2143H97.1865V34.6071ZM97.1865 36H95.7936V34.6071H97.1865V36ZM95.7936 36H94.4008V34.6071H95.7936V36ZM95.7936 34.6071H94.4008V33.2143H95.7936V34.6071ZM95.7936 33.2143H94.4008V31.8214H95.7936V33.2143ZM95.7936 31.8214H94.4008V30.4286H95.7936V31.8214ZM95.7936 30.4286H94.4008V29.0357H95.7936V30.4286ZM97.1865 30.4286H95.7936V29.0357H97.1865V30.4286ZM97.1865 31.8214H95.7936V30.4286H97.1865V31.8214ZM97.1865 33.2143H95.7936V31.8214H97.1865V33.2143ZM97.1865 29.0357H95.7936V27.6429H97.1865V29.0357ZM95.7936 29.0357H94.4008V27.6429H95.7936V29.0357ZM95.7936 27.6429H94.4008V26.25H95.7936V27.6429ZM95.7936 26.25H94.4008V24.8571H95.7936V26.25ZM97.1865 26.25H95.7936V24.8571H97.1865V26.25ZM97.1865 27.6429H95.7936V26.25H97.1865V27.6429ZM90.2222 26.25H88.8293V24.8571H90.2222V26.25ZM88.8293 26.25H87.4365V24.8571H88.8293V26.25ZM88.8293 27.6429H87.4365V26.25H88.8293V27.6429ZM88.8293 29.0357H87.4365V27.6429H88.8293V29.0357ZM88.8293 30.4286H87.4365V29.0357H88.8293V30.4286ZM88.8293 31.8214H87.4365V30.4286H88.8293V31.8214ZM88.8293 33.2143H87.4365V31.8214H88.8293V33.2143ZM88.8293 34.6071H87.4365V33.2143H88.8293V34.6071ZM90.2222 31.8214H88.8293V30.4286H90.2222V31.8214ZM90.2222 30.4286H88.8293V29.0357H90.2222V30.4286ZM90.2222 29.0357H88.8293V27.6429H90.2222V29.0357ZM90.2222 27.6429H88.8293V26.25H90.2222V27.6429ZM90.2222 33.2143H88.8293V31.8214H90.2222V33.2143ZM94.4008 34.6071H93.0079V33.2143H94.4008V34.6071ZM93.0079 34.6071H91.6151V33.2143H93.0079V34.6071ZM91.6151 34.6071H90.2222V33.2143H91.6151V34.6071ZM91.6151 36H90.2222V34.6071H91.6151V36ZM90.2222 36H88.8293V34.6071H90.2222V36ZM90.2222 34.6071H88.8293V33.2143H90.2222V34.6071ZM93.0079 36H91.6151V34.6071H93.0079V36ZM98.843 26.25H100.236V27.6429H98.843V26.25ZM98.843 24.8571H100.236V26.25H98.843V24.8571ZM100.236 24.8571H101.629V26.25H100.236V24.8571ZM100.236 26.25H101.629V27.6429H100.236V26.25ZM100.236 27.6429H101.629V29.0357H100.236V27.6429ZM100.236 29.0357H101.629V30.4286H100.236V29.0357ZM100.236 30.4286H101.629V31.8214H100.236V30.4286ZM98.843 30.4286H100.236V31.8214H98.843V30.4286ZM98.843 29.0357H100.236V30.4286H98.843V29.0357ZM98.843 27.6429H100.236V29.0357H98.843V27.6429ZM98.843 31.8214H100.236V33.2143H98.843V31.8214ZM100.236 31.8214H101.629V33.2143H100.236V31.8214ZM100.236 33.2143H101.629V34.6071H100.236V33.2143ZM100.236 34.6071H101.629V36H100.236V34.6071ZM98.843 34.6071H100.236V36H98.843V34.6071ZM98.843 33.2143H100.236V34.6071H98.843V33.2143ZM101.629 26.25H103.022V27.6429H101.629V26.25ZM103.022 26.25H104.414V27.6429H103.022V26.25ZM104.414 26.25H105.807V27.6429H104.414V26.25ZM104.414 24.8571H105.807V26.25H104.414V24.8571ZM103.022 24.8571H104.414V26.25H103.022V24.8571ZM101.629 27.6429H103.022V29.0357H101.629V27.6429ZM105.807 26.25H107.2V27.6429H105.807V26.25ZM104.414 27.6429H105.807V29.0357H104.414V27.6429ZM111.639 24.8571H113.032V26.25H111.639V24.8571ZM110.246 24.8571H111.639V26.25H110.246V24.8571ZM110.246 26.25H111.639V27.6429H110.246V26.25ZM111.639 26.25H113.032V27.6429H111.639V26.25ZM113.032 24.8571H114.424V26.25H113.032V24.8571ZM114.424 24.8571H115.817V26.25H114.424V24.8571ZM115.817 24.8571H117.21V26.25H115.817V24.8571ZM115.817 26.25H117.21V27.6429H115.817V26.25ZM114.424 26.25H115.817V27.6429H114.424V26.25ZM117.21 26.25H118.603V27.6429H117.21V26.25ZM117.21 27.6429H118.603V29.0357H117.21V27.6429ZM117.21 33.2143H118.603V34.6071H117.21V33.2143ZM115.817 33.2143H117.21V34.6071H115.817V33.2143ZM115.817 27.6429H117.21V29.0357H115.817V27.6429ZM114.424 33.2143H115.817V34.6071H114.424V33.2143ZM115.817 34.6071H117.21V36H115.817V34.6071ZM114.424 34.6071H115.817V36H114.424V34.6071ZM113.032 34.6071H114.424V36H113.032V34.6071ZM111.639 34.6071H113.032V36H111.639V34.6071ZM110.246 34.6071H111.639V36H110.246V34.6071ZM110.246 33.2143H111.639V34.6071H110.246V33.2143ZM111.639 33.2143H113.032V34.6071H111.639V33.2143ZM110.246 31.8214H111.639V33.2143H110.246V31.8214ZM108.853 33.2143H110.246V34.6071H108.853V33.2143ZM108.853 31.8214H110.246V33.2143H108.853V31.8214ZM108.853 30.4286H110.246V31.8214H108.853V30.4286ZM108.853 29.0357H110.246V30.4286H108.853V29.0357ZM108.853 27.6429H110.246V29.0357H108.853V27.6429ZM108.853 26.25H110.246V27.6429H108.853V26.25ZM110.246 27.6429H111.639V29.0357H110.246V27.6429ZM110.246 29.0357H111.639V30.4286H110.246V29.0357ZM110.246 30.4286H111.639V31.8214H110.246V30.4286ZM113.032 33.2143H114.424V34.6071H113.032V33.2143ZM113.032 26.25H114.424V27.6429H113.032V26.25ZM115.817 29.0357H117.21V30.4286H115.817V29.0357ZM117.21 29.0357H118.603V30.4286H117.21V29.0357ZM111.639 30.4286H113.032V31.8214H111.639V30.4286ZM113.032 30.4286H114.424V31.8214H113.032V30.4286ZM114.424 30.4286H115.817V31.8214H114.424V30.4286ZM115.817 30.4286H117.21V31.8214H115.817V30.4286ZM117.21 30.4286H118.603V31.8214H117.21V30.4286ZM114.424 29.0357H115.817V30.4286H114.424V29.0357ZM113.032 29.0357H114.424V30.4286H113.032V29.0357ZM111.639 29.0357H113.032V30.4286H111.639V29.0357ZM135.83 34.6071H134.437V33.2143H135.83V34.6071ZM135.83 36H134.437V34.6071H135.83V36ZM134.437 36H133.044V34.6071H134.437V36ZM134.437 34.6071H133.044V33.2143H134.437V34.6071ZM134.437 33.2143H133.044V31.8214H134.437V33.2143ZM134.437 31.8214H133.044V30.4286H134.437V31.8214ZM134.437 30.4286H133.044V29.0357H134.437V30.4286ZM135.83 30.4286H134.437V29.0357H135.83V30.4286ZM135.83 31.8214H134.437V30.4286H135.83V31.8214ZM135.83 33.2143H134.437V31.8214H135.83V33.2143ZM135.83 29.0357H134.437V27.6429H135.83V29.0357ZM134.437 29.0357H133.044V27.6429H134.437V29.0357ZM134.437 27.6429H133.044V26.25H134.437V27.6429ZM134.437 26.25H133.044V24.8571H134.437V26.25ZM135.83 26.25H134.437V24.8571H135.83V26.25ZM135.83 27.6429H134.437V26.25H135.83V27.6429ZM128.866 26.25H127.473V24.8571H128.866V26.25ZM127.473 26.25H126.08V24.8571H127.473V26.25ZM127.473 27.6429H126.08V26.25H127.473V27.6429ZM127.473 29.0357H126.08V27.6429H127.473V29.0357ZM127.473 30.4286H126.08V29.0357H127.473V30.4286ZM127.473 31.8214H126.08V30.4286H127.473V31.8214ZM127.473 33.2143H126.08V31.8214H127.473V33.2143ZM127.473 34.6071H126.08V33.2143H127.473V34.6071ZM128.866 31.8214H127.473V30.4286H128.866V31.8214ZM128.866 30.4286H127.473V29.0357H128.866V30.4286ZM128.866 29.0357H127.473V27.6429H128.866V29.0357ZM128.866 27.6429H127.473V26.25H128.866V27.6429ZM128.866 33.2143H127.473V31.8214H128.866V33.2143ZM133.044 34.6071H131.651V33.2143H133.044V34.6071ZM131.651 34.6071H130.259V33.2143H131.651V34.6071ZM130.259 34.6071H128.866V33.2143H130.259V34.6071ZM130.259 36H128.866V34.6071H130.259V36ZM128.866 36H127.473V34.6071H128.866V36ZM128.866 34.6071H127.473V33.2143H128.866V34.6071ZM131.651 36H130.259V34.6071H131.651V36ZM137.486 26.25H138.879V27.6429H137.486V26.25ZM137.486 24.8571H138.879V26.25H137.486V24.8571ZM138.879 24.8571H140.272V26.25H138.879V24.8571ZM138.879 26.25H140.272V27.6429H138.879V26.25ZM138.879 27.6429H140.272V29.0357H138.879V27.6429ZM138.879 29.0357H140.272V30.4286H138.879V29.0357ZM138.879 30.4286H140.272V31.8214H138.879V30.4286ZM137.486 30.4286H138.879V31.8214H137.486V30.4286ZM137.486 29.0357H138.879V30.4286H137.486V29.0357ZM137.486 27.6429H138.879V29.0357H137.486V27.6429ZM137.486 31.8214H138.879V33.2143H137.486V31.8214ZM138.879 31.8214H140.272V33.2143H138.879V31.8214ZM138.879 33.2143H140.272V34.6071H138.879V33.2143ZM138.879 34.6071H140.272V36H138.879V34.6071ZM137.486 34.6071H138.879V36H137.486V34.6071ZM137.486 33.2143H138.879V34.6071H137.486V33.2143ZM144.451 34.6071H145.844V36H144.451V34.6071ZM145.844 33.2143H147.236V34.6071H145.844V33.2143ZM145.844 31.8214H147.236V33.2143H145.844V31.8214ZM145.844 30.4286H147.236V31.8214H145.844V30.4286ZM145.844 29.0357H147.236V30.4286H145.844V29.0357ZM145.844 27.6429H147.236V29.0357H145.844V27.6429ZM145.844 26.25H147.236V27.6429H145.844V26.25ZM144.451 29.0357H145.844V30.4286H144.451V29.0357ZM144.451 30.4286H145.844V31.8214H144.451V30.4286ZM144.451 31.8214H145.844V33.2143H144.451V31.8214ZM144.451 33.2143H145.844V34.6071H144.451V33.2143ZM144.451 27.6429H145.844V29.0357H144.451V27.6429ZM140.272 26.25H141.665V27.6429H140.272V26.25ZM141.665 26.25H143.058V27.6429H141.665V26.25ZM143.058 26.25H144.451V27.6429H143.058V26.25ZM143.058 24.8571H144.451V26.25H143.058V24.8571ZM144.451 24.8571H145.844V26.25H144.451V24.8571ZM144.451 26.25H145.844V27.6429H144.451V26.25ZM141.665 24.8571H143.058V26.25H141.665V24.8571ZM140.272 34.6071H141.665V36H140.272V34.6071ZM141.665 34.6071H143.058V36H141.665V34.6071ZM143.058 34.6071H144.451V36H143.058V34.6071ZM143.058 33.2143H144.451V34.6071H143.058V33.2143ZM141.665 33.2143H143.058V34.6071H141.665V33.2143ZM140.272 33.2143H141.665V34.6071H140.272V33.2143ZM137.486 36H138.879V37.3929H137.486V36ZM138.879 36H140.272V37.3929H138.879V36ZM138.879 37.3929H140.272V38.7857H138.879V37.3929ZM137.486 37.3929H138.879V38.7857H137.486V37.3929ZM158.643 26.25V27.6429H157.25V26.25H158.643ZM158.643 24.8571V26.25H157.25V24.8571H158.643ZM157.25 24.8571V26.25H155.857V24.8571H157.25ZM157.25 26.25V27.6429H155.857V26.25H157.25ZM157.25 27.6429V29.0357H155.857V27.6429H157.25ZM157.25 29.0357V30.4286H155.857V29.0357H157.25ZM157.25 30.4286V31.8214H155.857V30.4286H157.25ZM158.643 30.4286V31.8214H157.25V30.4286H158.643ZM158.643 29.0357V30.4286H157.25V29.0357H158.643ZM158.643 27.6429V29.0357H157.25V27.6429H158.643ZM158.643 31.8214V33.2143H157.25V31.8214H158.643ZM157.25 31.8214V33.2143H155.857V31.8214H157.25ZM157.25 33.2143V34.6071H155.857V33.2143H157.25ZM157.25 34.6071V36H155.857V34.6071H157.25ZM158.643 34.6071V36H157.25V34.6071H158.643ZM158.643 33.2143V34.6071H157.25V33.2143H158.643ZM151.679 34.6071V36H150.286V34.6071H151.679ZM150.286 33.2143V34.6071H148.893V33.2143H150.286ZM150.286 31.8214V33.2143H148.893V31.8214H150.286ZM150.286 30.4286V31.8214H148.893V30.4286H150.286ZM150.286 29.0357V30.4286H148.893V29.0357H150.286ZM150.286 27.6429V29.0357H148.893V27.6429H150.286ZM150.286 26.25V27.6429H148.893V26.25H150.286ZM151.679 29.0357V30.4286H150.286V29.0357H151.679ZM151.679 30.4286V31.8214H150.286V30.4286H151.679ZM151.679 31.8214V33.2143H150.286V31.8214H151.679ZM151.679 33.2143V34.6071H150.286V33.2143H151.679ZM151.679 27.6429V29.0357H150.286V27.6429H151.679ZM153.072 26.25V27.6429H151.679V26.25H153.072ZM153.072 24.8571V26.25H151.679V24.8571H153.072ZM151.679 24.8571V26.25H150.286V24.8571H151.679ZM151.679 26.25V27.6429H150.286V26.25H151.679ZM154.464 24.8571V26.25H153.072V24.8571H154.464ZM158.643 22.0714V23.4643H157.25V22.0714H158.643ZM157.25 22.0714V23.4643H155.857V22.0714H157.25ZM157.25 23.4643V24.8571H155.857V23.4643H157.25ZM158.643 23.4643V24.8571H157.25V23.4643H158.643ZM154.464 34.6071V36H153.072V34.6071H154.464ZM153.072 34.6071V36H151.679V34.6071H153.072ZM153.072 33.2143V34.6071H151.679V33.2143H153.072ZM154.464 33.2143V34.6071H153.072V33.2143H154.464ZM155.857 33.2143V34.6071H154.464V33.2143H155.857ZM155.857 24.8571V26.25H154.464V24.8571H155.857ZM155.857 26.25V27.6429H154.464V26.25H155.857ZM154.464 26.25V27.6429H153.072V26.25H154.464ZM168.657 36H167.264V34.6071H168.657V36ZM168.657 34.6071H167.264V33.2143H168.657V34.6071ZM167.264 34.6071H165.871V33.2143H167.264V34.6071ZM165.871 36H164.478V34.6071H165.871V36ZM164.478 36H163.085V34.6071H164.478V36ZM163.085 36H161.692V34.6071H163.085V36ZM163.085 34.6071H161.692V33.2143H163.085V34.6071ZM164.478 34.6071H163.085V33.2143H164.478V34.6071ZM161.692 34.6071H160.299V33.2143H161.692V34.6071ZM161.692 33.2143H160.299V31.8214H161.692V33.2143ZM161.692 27.6429H160.299V26.25H161.692V27.6429ZM163.085 27.6429H161.692V26.25H163.085V27.6429ZM163.085 33.2143H161.692V31.8214H163.085V33.2143ZM164.478 27.6429H163.085V26.25H164.478V27.6429ZM163.085 26.25H161.692V24.8571H163.085V26.25ZM164.478 26.25H163.085V24.8571H164.478V26.25ZM165.871 26.25H164.478V24.8571H165.871V26.25ZM167.264 26.25H165.871V24.8571H167.264V26.25ZM168.657 26.25H167.264V24.8571H168.657V26.25ZM168.657 27.6429H167.264V26.25H168.657V27.6429ZM167.264 27.6429H165.871V26.25H167.264V27.6429ZM168.657 29.0357H167.264V27.6429H168.657V29.0357ZM170.049 27.6429H168.657V26.25H170.049V27.6429ZM170.049 29.0357H168.657V27.6429H170.049V29.0357ZM170.049 30.4286H168.657V29.0357H170.049V30.4286ZM170.049 31.8214H168.657V30.4286H170.049V31.8214ZM170.049 33.2143H168.657V31.8214H170.049V33.2143ZM170.049 34.6071H168.657V33.2143H170.049V34.6071ZM168.657 33.2143H167.264V31.8214H168.657V33.2143ZM168.657 31.8214H167.264V30.4286H168.657V31.8214ZM168.657 30.4286H167.264V29.0357H168.657V30.4286ZM165.871 27.6429H164.478V26.25H165.871V27.6429ZM165.871 34.6071H164.478V33.2143H165.871V34.6071ZM168.657 34.6071H170.049V36H168.657V34.6071ZM165.871 29.0357H167.264V30.4286H165.871V29.0357ZM164.478 29.0357H165.871V30.4286H164.478V29.0357ZM163.085 29.0357H164.478V30.4286H163.085V29.0357ZM161.692 29.0357H163.085V30.4286H161.692V29.0357ZM160.299 30.4286H161.692V31.8214H160.299V30.4286ZM161.692 30.4286H163.085V31.8214H161.692V30.4286ZM165.871 30.4286H167.264V31.8214H165.871V30.4286ZM164.478 30.4286H165.871V31.8214H164.478V30.4286ZM163.085 30.4286H164.478V31.8214H163.085V30.4286ZM177.277 33.2143H178.67V34.6071H177.277V33.2143ZM177.277 34.6071H178.67V36H177.277V34.6071ZM175.885 34.6071H177.277V36H175.885V34.6071ZM175.885 33.2143H177.277V34.6071H175.885V33.2143ZM174.492 34.6071H175.885V36H174.492V34.6071ZM174.492 33.2143H175.885V34.6071H174.492V33.2143ZM173.099 33.2143H174.492V34.6071H173.099V33.2143ZM173.099 31.8214H174.492V33.2143H173.099V31.8214ZM173.099 30.4286H174.492V31.8214H173.099V30.4286ZM173.099 29.0357H174.492V30.4286H173.099V29.0357ZM173.099 27.6429H174.492V29.0357H173.099V27.6429ZM173.099 26.25H174.492V27.6429H173.099V26.25ZM174.492 30.4286H175.885V31.8214H174.492V30.4286ZM174.492 31.8214H175.885V33.2143H174.492V31.8214ZM174.492 29.0357H175.885V30.4286H174.492V29.0357ZM174.492 27.6429H175.885V29.0357H174.492V27.6429ZM174.492 22.0714H175.885V23.4643H174.492V22.0714ZM174.492 23.4643H175.885V24.8571H174.492V23.4643ZM174.492 24.8571H175.885V26.25H174.492V24.8571ZM174.492 26.25H175.885V27.6429H174.492V26.25ZM173.099 24.8571H174.492V26.25H173.099V24.8571ZM171.706 26.25H173.099V27.6429H171.706V26.25ZM175.885 26.25H177.277V27.6429H175.885V26.25ZM177.277 26.25H178.67V27.6429H177.277V26.25ZM173.099 23.4643H174.492V24.8571H173.099V23.4643ZM171.706 27.6429H173.099V29.0357H171.706V27.6429ZM175.885 27.6429H177.277V29.0357H175.885V27.6429ZM177.277 27.6429H178.67V29.0357H177.277V27.6429ZM183.105 24.8571H184.498V26.25H183.105V24.8571ZM181.712 24.8571H183.105V26.25H181.712V24.8571ZM181.712 26.25H183.105V27.6429H181.712V26.25ZM183.105 26.25H184.498V27.6429H183.105V26.25ZM184.498 24.8571H185.891V26.25H184.498V24.8571ZM185.891 24.8571H187.284V26.25H185.891V24.8571ZM187.284 24.8571H188.677V26.25H187.284V24.8571ZM187.284 26.25H188.677V27.6429H187.284V26.25ZM185.891 26.25H187.284V27.6429H185.891V26.25ZM188.677 26.25H190.069V27.6429H188.677V26.25ZM188.677 27.6429H190.069V29.0357H188.677V27.6429ZM188.677 33.2143H190.069V34.6071H188.677V33.2143ZM187.284 33.2143H188.677V34.6071H187.284V33.2143ZM187.284 27.6429H188.677V29.0357H187.284V27.6429ZM185.891 33.2143H187.284V34.6071H185.891V33.2143ZM187.284 34.6071H188.677V36H187.284V34.6071ZM185.891 34.6071H187.284V36H185.891V34.6071ZM184.498 34.6071H185.891V36H184.498V34.6071ZM183.105 34.6071H184.498V36H183.105V34.6071ZM181.712 34.6071H183.105V36H181.712V34.6071ZM181.712 33.2143H183.105V34.6071H181.712V33.2143ZM183.105 33.2143H184.498V34.6071H183.105V33.2143ZM181.712 31.8214H183.105V33.2143H181.712V31.8214ZM180.319 33.2143H181.712V34.6071H180.319V33.2143ZM180.319 31.8214H181.712V33.2143H180.319V31.8214ZM180.319 30.4286H181.712V31.8214H180.319V30.4286ZM180.319 29.0357H181.712V30.4286H180.319V29.0357ZM180.319 27.6429H181.712V29.0357H180.319V27.6429ZM180.319 26.25H181.712V27.6429H180.319V26.25ZM181.712 27.6429H183.105V29.0357H181.712V27.6429ZM181.712 29.0357H183.105V30.4286H181.712V29.0357ZM181.712 30.4286H183.105V31.8214H181.712V30.4286ZM184.498 33.2143H185.891V34.6071H184.498V33.2143ZM184.498 26.25H185.891V27.6429H184.498V26.25ZM187.284 29.0357H188.677V30.4286H187.284V29.0357ZM188.677 29.0357H190.069V30.4286H188.677V29.0357ZM183.105 30.4286H184.498V31.8214H183.105V30.4286ZM184.498 30.4286H185.891V31.8214H184.498V30.4286ZM185.891 30.4286H187.284V31.8214H185.891V30.4286ZM187.284 30.4286H188.677V31.8214H187.284V30.4286ZM188.677 30.4286H190.069V31.8214H188.677V30.4286ZM185.891 29.0357H187.284V30.4286H185.891V29.0357ZM184.498 29.0357H185.891V30.4286H184.498V29.0357ZM183.105 29.0357H184.498V30.4286H183.105V29.0357Z" fill="#1E1E1E"/>
<path d="M59.3573 85.416H59.2313V96H57.8633V83.436H60.0053L64.2893 94.02H64.4153V83.436H65.7833V96H63.6413L59.3573 85.416ZM72.2562 96.216C71.6082 96.216 71.0202 96.102 70.4922 95.874C69.9762 95.646 69.5322 95.322 69.1602 94.902C68.8002 94.47 68.5242 93.96 68.3322 93.372C68.1402 92.772 68.0442 92.1 68.0442 91.356C68.0442 90.624 68.1402 89.958 68.3322 89.358C68.5242 88.758 68.8002 88.248 69.1602 87.828C69.5322 87.396 69.9762 87.066 70.4922 86.838C71.0202 86.61 71.6082 86.496 72.2562 86.496C72.9042 86.496 73.4862 86.61 74.0022 86.838C74.5302 87.066 74.9742 87.396 75.3342 87.828C75.7062 88.248 75.9882 88.758 76.1802 89.358C76.3722 89.958 76.4682 90.624 76.4682 91.356C76.4682 92.1 76.3722 92.772 76.1802 93.372C75.9882 93.96 75.7062 94.47 75.3342 94.902C74.9742 95.322 74.5302 95.646 74.0022 95.874C73.4862 96.102 72.9042 96.216 72.2562 96.216ZM72.2562 94.974C73.0602 94.974 73.7082 94.734 74.2002 94.254C74.6922 93.774 74.9382 93.03 74.9382 92.022V90.69C74.9382 89.682 74.6922 88.938 74.2002 88.458C73.7082 87.978 73.0602 87.738 72.2562 87.738C71.4522 87.738 70.8042 87.978 70.3122 88.458C69.8202 88.938 69.5742 89.682 69.5742 90.69V92.022C69.5742 93.03 69.8202 93.774 70.3122 94.254C70.8042 94.734 71.4522 94.974 72.2562 94.974ZM83.1392 96C82.4312 96 81.9092 95.802 81.5732 95.406C81.2492 95.01 81.0872 94.5 81.0872 93.876V87.936H77.9912V86.712H80.2952C80.6072 86.712 80.8232 86.652 80.9432 86.532C81.0752 86.4 81.1412 86.178 81.1412 85.866V83.436H82.5272V86.712H86.7572V87.936H82.5272V94.776H86.7572V96H83.1392ZM103.663 96.216C102.691 96.216 101.851 96.054 101.143 95.73C100.447 95.394 99.8532 94.95 99.3612 94.398L100.333 93.552C100.777 94.02 101.263 94.38 101.791 94.632C102.319 94.884 102.955 95.01 103.699 95.01C104.419 95.01 105.007 94.884 105.463 94.632C105.931 94.368 106.165 93.96 106.165 93.408C106.165 93.168 106.117 92.97 106.021 92.814C105.937 92.646 105.817 92.514 105.661 92.418C105.505 92.322 105.331 92.25 105.139 92.202C104.947 92.142 104.743 92.094 104.527 92.058L103.069 91.842C102.745 91.794 102.391 91.728 102.007 91.644C101.635 91.56 101.293 91.428 100.981 91.248C100.669 91.056 100.405 90.804 100.189 90.492C99.9852 90.18 99.8832 89.772 99.8832 89.268C99.8832 88.8 99.9732 88.398 100.153 88.062C100.345 87.714 100.609 87.426 100.945 87.198C101.281 86.958 101.677 86.784 102.133 86.676C102.589 86.556 103.087 86.496 103.627 86.496C104.467 86.496 105.193 86.628 105.805 86.892C106.429 87.156 106.963 87.522 107.407 87.99L106.471 88.872C106.363 88.74 106.225 88.608 106.057 88.476C105.901 88.332 105.703 88.206 105.463 88.098C105.235 87.978 104.965 87.882 104.653 87.81C104.341 87.738 103.981 87.702 103.573 87.702C102.841 87.702 102.277 87.828 101.881 88.08C101.497 88.332 101.305 88.698 101.305 89.178C101.305 89.418 101.347 89.622 101.431 89.79C101.527 89.946 101.653 90.072 101.809 90.168C101.965 90.264 102.139 90.342 102.331 90.402C102.535 90.45 102.739 90.492 102.943 90.528L104.401 90.744C104.737 90.792 105.091 90.858 105.463 90.942C105.835 91.026 106.177 91.164 106.489 91.356C106.801 91.536 107.059 91.782 107.263 92.094C107.479 92.406 107.587 92.814 107.587 93.318C107.587 94.242 107.227 94.956 106.507 95.46C105.799 95.964 104.851 96.216 103.663 96.216ZM116.184 94.488H116.112C116.016 94.716 115.896 94.938 115.752 95.154C115.608 95.358 115.428 95.538 115.212 95.694C115.008 95.85 114.762 95.976 114.474 96.072C114.186 96.168 113.85 96.216 113.466 96.216C112.494 96.216 111.714 95.91 111.126 95.298C110.538 94.674 110.244 93.798 110.244 92.67V86.712H111.684V92.418C111.684 93.27 111.87 93.906 112.242 94.326C112.614 94.734 113.16 94.938 113.88 94.938C114.168 94.938 114.45 94.902 114.726 94.83C115.002 94.758 115.248 94.65 115.464 94.506C115.68 94.362 115.854 94.182 115.986 93.966C116.118 93.738 116.184 93.468 116.184 93.156V86.712H117.624V96H116.184V94.488ZM120.731 86.712H122.171V88.224H122.243C122.843 87.072 123.797 86.496 125.105 86.496C126.245 86.496 127.133 86.922 127.769 87.774C128.417 88.626 128.741 89.82 128.741 91.356C128.741 92.892 128.417 94.086 127.769 94.938C127.133 95.79 126.245 96.216 125.105 96.216C123.797 96.216 122.843 95.64 122.243 94.488H122.171V99.6H120.731V86.712ZM124.547 94.938C125.387 94.938 126.035 94.686 126.491 94.182C126.959 93.666 127.193 92.988 127.193 92.148V90.564C127.193 89.724 126.959 89.052 126.491 88.548C126.035 88.032 125.387 87.774 124.547 87.774C124.223 87.774 123.917 87.816 123.629 87.9C123.341 87.984 123.089 88.11 122.873 88.278C122.657 88.434 122.483 88.632 122.351 88.872C122.231 89.1 122.171 89.37 122.171 89.682V93.03C122.171 93.342 122.231 93.618 122.351 93.858C122.483 94.086 122.657 94.284 122.873 94.452C123.089 94.608 123.341 94.728 123.629 94.812C123.917 94.896 124.223 94.938 124.547 94.938ZM131.164 86.712H132.604V88.224H132.676C133.276 87.072 134.23 86.496 135.538 86.496C136.678 86.496 137.566 86.922 138.202 87.774C138.85 88.626 139.174 89.82 139.174 91.356C139.174 92.892 138.85 94.086 138.202 94.938C137.566 95.79 136.678 96.216 135.538 96.216C134.23 96.216 133.276 95.64 132.676 94.488H132.604V99.6H131.164V86.712ZM134.98 94.938C135.82 94.938 136.468 94.686 136.924 94.182C137.392 93.666 137.626 92.988 137.626 92.148V90.564C137.626 89.724 137.392 89.052 136.924 88.548C136.468 88.032 135.82 87.774 134.98 87.774C134.656 87.774 134.35 87.816 134.062 87.9C133.774 87.984 133.522 88.11 133.306 88.278C133.09 88.434 132.916 88.632 132.784 88.872C132.664 89.1 132.604 89.37 132.604 89.682V93.03C132.604 93.342 132.664 93.618 132.784 93.858C132.916 94.086 133.09 94.284 133.306 94.452C133.522 94.608 133.774 94.728 134.062 94.812C134.35 94.896 134.656 94.938 134.98 94.938ZM145.287 96.216C144.639 96.216 144.051 96.102 143.523 95.874C143.007 95.646 142.563 95.322 142.191 94.902C141.831 94.47 141.555 93.96 141.363 93.372C141.171 92.772 141.075 92.1 141.075 91.356C141.075 90.624 141.171 89.958 141.363 89.358C141.555 88.758 141.831 88.248 142.191 87.828C142.563 87.396 143.007 87.066 143.523 86.838C144.051 86.61 144.639 86.496 145.287 86.496C145.935 86.496 146.517 86.61 147.033 86.838C147.561 87.066 148.005 87.396 148.365 87.828C148.737 88.248 149.019 88.758 149.211 89.358C149.403 89.958 149.499 90.624 149.499 91.356C149.499 92.1 149.403 92.772 149.211 93.372C149.019 93.96 148.737 94.47 148.365 94.902C148.005 95.322 147.561 95.646 147.033 95.874C146.517 96.102 145.935 96.216 145.287 96.216ZM145.287 94.974C146.091 94.974 146.739 94.734 147.231 94.254C147.723 93.774 147.969 93.03 147.969 92.022V90.69C147.969 89.682 147.723 88.938 147.231 88.458C146.739 87.978 146.091 87.738 145.287 87.738C144.483 87.738 143.835 87.978 143.343 88.458C142.851 88.938 142.605 89.682 142.605 90.69V92.022C142.605 93.03 142.851 93.774 143.343 94.254C143.835 94.734 144.483 94.974 145.287 94.974ZM151.706 94.776H154.424V87.936H151.706V86.712H155.864V89.052H155.954C156.146 88.32 156.506 87.75 157.034 87.342C157.574 86.922 158.258 86.712 159.086 86.712H160.382V88.152H158.636C157.808 88.152 157.136 88.392 156.62 88.872C156.116 89.352 155.864 89.982 155.864 90.762V94.776H159.464V96H151.706V94.776ZM166.603 96C165.895 96 165.373 95.802 165.037 95.406C164.713 95.01 164.551 94.5 164.551 93.876V87.936H161.455V86.712H163.759C164.071 86.712 164.287 86.652 164.407 86.532C164.539 86.4 164.605 86.178 164.605 85.866V83.436H165.991V86.712H170.221V87.936H165.991V94.776H170.221V96H166.603ZM176.748 96.216C176.076 96.216 175.47 96.102 174.93 95.874C174.402 95.646 173.946 95.322 173.562 94.902C173.19 94.47 172.902 93.96 172.698 93.372C172.494 92.772 172.392 92.106 172.392 91.374C172.392 90.63 172.494 89.958 172.698 89.358C172.914 88.758 173.208 88.248 173.58 87.828C173.952 87.396 174.396 87.066 174.912 86.838C175.44 86.61 176.022 86.496 176.658 86.496C177.282 86.496 177.846 86.61 178.35 86.838C178.866 87.066 179.304 87.384 179.664 87.792C180.024 88.188 180.3 88.662 180.492 89.214C180.684 89.766 180.78 90.372 180.78 91.032V91.716H173.904V92.148C173.904 92.556 173.97 92.934 174.102 93.282C174.234 93.63 174.42 93.93 174.66 94.182C174.912 94.434 175.212 94.632 175.56 94.776C175.92 94.908 176.316 94.974 176.748 94.974C177.372 94.974 177.912 94.83 178.368 94.542C178.824 94.254 179.172 93.858 179.412 93.354L180.474 94.074C180.198 94.698 179.736 95.214 179.088 95.622C178.452 96.018 177.672 96.216 176.748 96.216ZM176.658 87.684C176.262 87.684 175.896 87.756 175.56 87.9C175.224 88.044 174.93 88.242 174.678 88.494C174.438 88.746 174.246 89.046 174.102 89.394C173.97 89.73 173.904 90.102 173.904 90.51V90.636H179.232V90.438C179.232 90.03 179.166 89.658 179.034 89.322C178.914 88.986 178.74 88.698 178.512 88.458C178.296 88.206 178.026 88.014 177.702 87.882C177.39 87.75 177.042 87.684 176.658 87.684ZM189.269 94.488H189.197C188.597 95.64 187.643 96.216 186.335 96.216C185.195 96.216 184.301 95.79 183.653 94.938C183.017 94.086 182.699 92.892 182.699 91.356C182.699 89.82 183.017 88.626 183.653 87.774C184.301 86.922 185.195 86.496 186.335 86.496C187.643 86.496 188.597 87.072 189.197 88.224H189.269V82.68H190.709V96H189.269V94.488ZM186.893 94.938C187.217 94.938 187.523 94.896 187.811 94.812C188.099 94.728 188.351 94.608 188.567 94.452C188.783 94.284 188.951 94.086 189.071 93.858C189.203 93.618 189.269 93.342 189.269 93.03V89.682C189.269 89.37 189.203 89.1 189.071 88.872C188.951 88.632 188.783 88.434 188.567 88.278C188.351 88.11 188.099 87.984 187.811 87.9C187.523 87.816 187.217 87.774 186.893 87.774C186.053 87.774 185.399 88.032 184.931 88.548C184.475 89.052 184.247 89.724 184.247 90.564V92.148C184.247 92.988 184.475 93.666 184.931 94.182C185.399 94.686 186.053 94.938 186.893 94.938ZM210.891 86.712H212.331L207.723 98.034C207.615 98.298 207.495 98.526 207.363 98.718C207.231 98.922 207.075 99.084 206.895 99.204C206.715 99.336 206.499 99.432 206.247 99.492C205.995 99.564 205.695 99.6 205.347 99.6H203.979V98.376H206.139L207.183 95.82L203.439 86.712H204.915L206.481 90.6L207.867 94.128H207.939L209.325 90.6L210.891 86.712ZM218.48 96.216C217.808 96.216 217.202 96.102 216.662 95.874C216.134 95.646 215.678 95.322 215.294 94.902C214.922 94.47 214.634 93.96 214.43 93.372C214.226 92.772 214.124 92.106 214.124 91.374C214.124 90.63 214.226 89.958 214.43 89.358C214.646 88.758 214.94 88.248 215.312 87.828C215.684 87.396 216.128 87.066 216.644 86.838C217.172 86.61 217.754 86.496 218.39 86.496C219.014 86.496 219.578 86.61 220.082 86.838C220.598 87.066 221.036 87.384 221.396 87.792C221.756 88.188 222.032 88.662 222.224 89.214C222.416 89.766 222.512 90.372 222.512 91.032V91.716H215.636V92.148C215.636 92.556 215.702 92.934 215.834 93.282C215.966 93.63 216.152 93.93 216.392 94.182C216.644 94.434 216.944 94.632 217.292 94.776C217.652 94.908 218.048 94.974 218.48 94.974C219.104 94.974 219.644 94.83 220.1 94.542C220.556 94.254 220.904 93.858 221.144 93.354L222.206 94.074C221.93 94.698 221.468 95.214 220.82 95.622C220.184 96.018 219.404 96.216 218.48 96.216ZM218.39 87.684C217.994 87.684 217.628 87.756 217.292 87.9C216.956 88.044 216.662 88.242 216.41 88.494C216.17 88.746 215.978 89.046 215.834 89.394C215.702 89.73 215.636 90.102 215.636 90.51V90.636H220.964V90.438C220.964 90.03 220.898 89.658 220.766 89.322C220.646 88.986 220.472 88.698 220.244 88.458C220.028 88.206 219.758 88.014 219.434 87.882C219.122 87.75 218.774 87.684 218.39 87.684ZM229.201 96C228.493 96 227.971 95.802 227.635 95.406C227.311 95.01 227.149 94.5 227.149 93.876V87.936H224.053V86.712H226.357C226.669 86.712 226.885 86.652 227.005 86.532C227.137 86.4 227.203 86.178 227.203 85.866V83.436H228.589V86.712H232.819V87.936H228.589V94.776H232.819V96H229.201ZM239.184 96.162C238.692 96.162 238.344 96.06 238.14 95.856C237.948 95.652 237.852 95.394 237.852 95.082V94.758C237.852 94.446 237.948 94.188 238.14 93.984C238.344 93.78 238.692 93.678 239.184 93.678C239.676 93.678 240.018 93.78 240.21 93.984C240.414 94.188 240.516 94.446 240.516 94.758V95.082C240.516 95.394 240.414 95.652 240.21 95.856C240.018 96.06 239.676 96.162 239.184 96.162ZM28.0764 109.436V116.978C28.0764 117.59 28.0944 118.136 28.1304 118.616C28.1664 119.096 28.2624 119.51 28.4184 119.858C28.5744 120.194 28.8144 120.452 29.1384 120.632C29.4744 120.812 29.9364 120.902 30.5244 120.902C31.1124 120.902 31.5684 120.812 31.8924 120.632C32.2284 120.452 32.4744 120.194 32.6304 119.858C32.7864 119.51 32.8824 119.096 32.9184 118.616C32.9544 118.136 32.9724 117.59 32.9724 116.978V109.436H34.4844V116.618C34.4844 117.554 34.4364 118.37 34.3404 119.066C34.2564 119.762 34.0704 120.344 33.7824 120.812C33.5064 121.28 33.1044 121.634 32.5764 121.874C32.0604 122.102 31.3764 122.216 30.5244 122.216C29.6724 122.216 28.9824 122.102 28.4544 121.874C27.9384 121.634 27.5364 121.28 27.2484 120.812C26.9724 120.344 26.7864 119.762 26.6904 119.066C26.6064 118.37 26.5644 117.554 26.5644 116.618V109.436H28.0764ZM41.0653 122.216C40.0933 122.216 39.2533 122.054 38.5453 121.73C37.8493 121.394 37.2553 120.95 36.7633 120.398L37.7353 119.552C38.1793 120.02 38.6653 120.38 39.1933 120.632C39.7213 120.884 40.3573 121.01 41.1013 121.01C41.8213 121.01 42.4093 120.884 42.8653 120.632C43.3333 120.368 43.5673 119.96 43.5673 119.408C43.5673 119.168 43.5193 118.97 43.4233 118.814C43.3393 118.646 43.2193 118.514 43.0633 118.418C42.9073 118.322 42.7333 118.25 42.5413 118.202C42.3493 118.142 42.1453 118.094 41.9293 118.058L40.4713 117.842C40.1473 117.794 39.7933 117.728 39.4093 117.644C39.0373 117.56 38.6953 117.428 38.3833 117.248C38.0713 117.056 37.8073 116.804 37.5913 116.492C37.3873 116.18 37.2853 115.772 37.2853 115.268C37.2853 114.8 37.3753 114.398 37.5553 114.062C37.7473 113.714 38.0113 113.426 38.3473 113.198C38.6833 112.958 39.0793 112.784 39.5353 112.676C39.9913 112.556 40.4893 112.496 41.0293 112.496C41.8693 112.496 42.5953 112.628 43.2073 112.892C43.8313 113.156 44.3653 113.522 44.8093 113.99L43.8733 114.872C43.7653 114.74 43.6273 114.608 43.4593 114.476C43.3033 114.332 43.1053 114.206 42.8653 114.098C42.6373 113.978 42.3673 113.882 42.0553 113.81C41.7433 113.738 41.3833 113.702 40.9753 113.702C40.2433 113.702 39.6793 113.828 39.2833 114.08C38.8993 114.332 38.7073 114.698 38.7073 115.178C38.7073 115.418 38.7493 115.622 38.8333 115.79C38.9293 115.946 39.0553 116.072 39.2113 116.168C39.3673 116.264 39.5413 116.342 39.7333 116.402C39.9373 116.45 40.1413 116.492 40.3453 116.528L41.8033 116.744C42.1393 116.792 42.4933 116.858 42.8653 116.942C43.2373 117.026 43.5793 117.164 43.8913 117.356C44.2033 117.536 44.4613 117.782 44.6653 118.094C44.8813 118.406 44.9893 118.814 44.9893 119.318C44.9893 120.242 44.6293 120.956 43.9093 121.46C43.2013 121.964 42.2533 122.216 41.0653 122.216ZM51.5523 122.216C50.8803 122.216 50.2743 122.102 49.7343 121.874C49.2063 121.646 48.7503 121.322 48.3663 120.902C47.9943 120.47 47.7063 119.96 47.5023 119.372C47.2983 118.772 47.1963 118.106 47.1963 117.374C47.1963 116.63 47.2983 115.958 47.5023 115.358C47.7183 114.758 48.0123 114.248 48.3843 113.828C48.7563 113.396 49.2003 113.066 49.7163 112.838C50.2443 112.61 50.8263 112.496 51.4623 112.496C52.0863 112.496 52.6503 112.61 53.1543 112.838C53.6703 113.066 54.1083 113.384 54.4683 113.792C54.8283 114.188 55.1043 114.662 55.2963 115.214C55.4883 115.766 55.5843 116.372 55.5843 117.032V117.716H48.7083V118.148C48.7083 118.556 48.7743 118.934 48.9063 119.282C49.0383 119.63 49.2243 119.93 49.4643 120.182C49.7163 120.434 50.0163 120.632 50.3643 120.776C50.7243 120.908 51.1203 120.974 51.5523 120.974C52.1763 120.974 52.7163 120.83 53.1723 120.542C53.6283 120.254 53.9763 119.858 54.2163 119.354L55.2783 120.074C55.0023 120.698 54.5403 121.214 53.8923 121.622C53.2563 122.018 52.4763 122.216 51.5523 122.216ZM51.4623 113.684C51.0663 113.684 50.7003 113.756 50.3643 113.9C50.0283 114.044 49.7343 114.242 49.4823 114.494C49.2423 114.746 49.0503 115.046 48.9063 115.394C48.7743 115.73 48.7083 116.102 48.7083 116.51V116.636H54.0363V116.438C54.0363 116.03 53.9703 115.658 53.8383 115.322C53.7183 114.986 53.5443 114.698 53.3163 114.458C53.1003 114.206 52.8303 114.014 52.5063 113.882C52.1943 113.75 51.8463 113.684 51.4623 113.684ZM75.7663 122C75.2023 122 74.8003 121.856 74.5603 121.568C74.3203 121.28 74.1703 120.92 74.1103 120.488H74.0203C73.8163 121.028 73.4863 121.454 73.0303 121.766C72.5863 122.066 71.9863 122.216 71.2303 122.216C70.2583 122.216 69.4843 121.964 68.9083 121.46C68.3323 120.956 68.0443 120.266 68.0443 119.39C68.0443 118.526 68.3563 117.86 68.9803 117.392C69.6163 116.924 70.6363 116.69 72.0403 116.69H74.0203V115.772C74.0203 115.088 73.8283 114.578 73.4443 114.242C73.0603 113.894 72.5143 113.72 71.8063 113.72C71.1823 113.72 70.6723 113.846 70.2763 114.098C69.8803 114.338 69.5623 114.668 69.3223 115.088L68.3503 114.368C68.4703 114.128 68.6323 113.894 68.8363 113.666C69.0403 113.438 69.2923 113.24 69.5923 113.072C69.8923 112.892 70.2343 112.754 70.6183 112.658C71.0023 112.55 71.4283 112.496 71.8963 112.496C72.9883 112.496 73.8523 112.772 74.4883 113.324C75.1363 113.876 75.4603 114.644 75.4603 115.628V120.74H76.7563V122H75.7663ZM71.4823 121.01C71.8543 121.01 72.1903 120.968 72.4903 120.884C72.8023 120.788 73.0723 120.668 73.3003 120.524C73.5283 120.368 73.7023 120.188 73.8223 119.984C73.9543 119.768 74.0203 119.54 74.0203 119.3V117.77H72.0403C71.1763 117.77 70.5463 117.89 70.1503 118.13C69.7543 118.37 69.5563 118.718 69.5563 119.174V119.552C69.5563 120.032 69.7243 120.398 70.0603 120.65C70.4083 120.89 70.8823 121.01 71.4823 121.01ZM79.0532 122V112.712H80.4932V114.224H80.5652C80.6612 113.996 80.7812 113.78 80.9252 113.576C81.0692 113.36 81.2432 113.174 81.4472 113.018C81.6632 112.862 81.9152 112.736 82.2032 112.64C82.4912 112.544 82.8272 112.496 83.2112 112.496C84.1832 112.496 84.9632 112.808 85.5512 113.432C86.1392 114.044 86.4332 114.914 86.4332 116.042V122H84.9932V116.294C84.9932 115.442 84.8072 114.812 84.4352 114.404C84.0632 113.984 83.5172 113.774 82.7972 113.774C82.5092 113.774 82.2272 113.81 81.9512 113.882C81.6752 113.954 81.4292 114.062 81.2132 114.206C80.9972 114.35 80.8232 114.536 80.6912 114.764C80.5592 114.992 80.4932 115.256 80.4932 115.556V122H79.0532ZM93.1222 122.216C92.4742 122.216 91.8862 122.102 91.3582 121.874C90.8422 121.646 90.3982 121.322 90.0262 120.902C89.6662 120.47 89.3902 119.96 89.1982 119.372C89.0062 118.772 88.9102 118.1 88.9102 117.356C88.9102 116.624 89.0062 115.958 89.1982 115.358C89.3902 114.758 89.6662 114.248 90.0262 113.828C90.3982 113.396 90.8422 113.066 91.3582 112.838C91.8862 112.61 92.4742 112.496 93.1222 112.496C93.7702 112.496 94.3522 112.61 94.8682 112.838C95.3962 113.066 95.8402 113.396 96.2002 113.828C96.5722 114.248 96.8542 114.758 97.0462 115.358C97.2382 115.958 97.3342 116.624 97.3342 117.356C97.3342 118.1 97.2382 118.772 97.0462 119.372C96.8542 119.96 96.5722 120.47 96.2002 120.902C95.8402 121.322 95.3962 121.646 94.8682 121.874C94.3522 122.102 93.7702 122.216 93.1222 122.216ZM93.1222 120.974C93.9262 120.974 94.5742 120.734 95.0662 120.254C95.5582 119.774 95.8042 119.03 95.8042 118.022V116.69C95.8042 115.682 95.5582 114.938 95.0662 114.458C94.5742 113.978 93.9262 113.738 93.1222 113.738C92.3182 113.738 91.6702 113.978 91.1782 114.458C90.6862 114.938 90.4402 115.682 90.4402 116.69V118.022C90.4402 119.03 90.6862 119.774 91.1782 120.254C91.6702 120.734 92.3182 120.974 93.1222 120.974ZM104.005 122C103.297 122 102.775 121.802 102.439 121.406C102.115 121.01 101.953 120.5 101.953 119.876V113.936H98.8572V112.712H101.161C101.473 112.712 101.689 112.652 101.809 112.532C101.941 112.4 102.007 112.178 102.007 111.866V109.436H103.393V112.712H107.623V113.936H103.393V120.776H107.623V122H104.005ZM110.352 108.68H111.792V114.224H111.864C111.96 113.996 112.08 113.78 112.224 113.576C112.368 113.36 112.542 113.174 112.746 113.018C112.962 112.862 113.214 112.736 113.502 112.64C113.79 112.544 114.126 112.496 114.51 112.496C115.482 112.496 116.262 112.808 116.85 113.432C117.438 114.044 117.732 114.914 117.732 116.042V122H116.292V116.294C116.292 115.442 116.106 114.812 115.734 114.404C115.362 113.984 114.816 113.774 114.096 113.774C113.808 113.774 113.526 113.81 113.25 113.882C112.974 113.954 112.728 114.062 112.512 114.206C112.296 114.35 112.122 114.536 111.99 114.764C111.858 114.992 111.792 115.256 111.792 115.556V122H110.352V108.68ZM124.583 122.216C123.911 122.216 123.305 122.102 122.765 121.874C122.237 121.646 121.781 121.322 121.397 120.902C121.025 120.47 120.737 119.96 120.533 119.372C120.329 118.772 120.227 118.106 120.227 117.374C120.227 116.63 120.329 115.958 120.533 115.358C120.749 114.758 121.043 114.248 121.415 113.828C121.787 113.396 122.231 113.066 122.747 112.838C123.275 112.61 123.857 112.496 124.493 112.496C125.117 112.496 125.681 112.61 126.185 112.838C126.701 113.066 127.139 113.384 127.499 113.792C127.859 114.188 128.135 114.662 128.327 115.214C128.519 115.766 128.615 116.372 128.615 117.032V117.716H121.739V118.148C121.739 118.556 121.805 118.934 121.937 119.282C122.069 119.63 122.255 119.93 122.495 120.182C122.747 120.434 123.047 120.632 123.395 120.776C123.755 120.908 124.151 120.974 124.583 120.974C125.207 120.974 125.747 120.83 126.203 120.542C126.659 120.254 127.007 119.858 127.247 119.354L128.309 120.074C128.033 120.698 127.571 121.214 126.923 121.622C126.287 122.018 125.507 122.216 124.583 122.216ZM124.493 113.684C124.097 113.684 123.731 113.756 123.395 113.9C123.059 114.044 122.765 114.242 122.513 114.494C122.273 114.746 122.081 115.046 121.937 115.394C121.805 115.73 121.739 116.102 121.739 116.51V116.636H127.067V116.438C127.067 116.03 127.001 115.658 126.869 115.322C126.749 114.986 126.575 114.698 126.347 114.458C126.131 114.206 125.861 114.014 125.537 113.882C125.225 113.75 124.877 113.684 124.493 113.684ZM130.84 120.776H133.558V113.936H130.84V112.712H134.998V115.052H135.088C135.28 114.32 135.64 113.75 136.168 113.342C136.708 112.922 137.392 112.712 138.22 112.712H139.516V114.152H137.77C136.942 114.152 136.27 114.392 135.754 114.872C135.25 115.352 134.998 115.982 134.998 116.762V120.776H138.598V122H130.84V120.776ZM156.17 122C155.462 122 154.94 121.802 154.604 121.406C154.28 121.01 154.118 120.5 154.118 119.876V113.936H151.022V112.712H153.326C153.638 112.712 153.854 112.652 153.974 112.532C154.106 112.4 154.172 112.178 154.172 111.866V109.436H155.558V112.712H159.788V113.936H155.558V120.776H159.788V122H156.17ZM162.139 120.776H164.857V113.936H162.139V112.712H166.297V115.052H166.387C166.579 114.32 166.939 113.75 167.467 113.342C168.007 112.922 168.691 112.712 169.519 112.712H170.815V114.152H169.069C168.241 114.152 167.569 114.392 167.053 114.872C166.549 115.352 166.297 115.982 166.297 116.762V120.776H169.897V122H162.139V120.776ZM180.096 122C179.532 122 179.13 121.856 178.89 121.568C178.65 121.28 178.5 120.92 178.44 120.488H178.35C178.146 121.028 177.816 121.454 177.36 121.766C176.916 122.066 176.316 122.216 175.56 122.216C174.588 122.216 173.814 121.964 173.238 121.46C172.662 120.956 172.374 120.266 172.374 119.39C172.374 118.526 172.686 117.86 173.31 117.392C173.946 116.924 174.966 116.69 176.37 116.69H178.35V115.772C178.35 115.088 178.158 114.578 177.774 114.242C177.39 113.894 176.844 113.72 176.136 113.72C175.512 113.72 175.002 113.846 174.606 114.098C174.21 114.338 173.892 114.668 173.652 115.088L172.68 114.368C172.8 114.128 172.962 113.894 173.166 113.666C173.37 113.438 173.622 113.24 173.922 113.072C174.222 112.892 174.564 112.754 174.948 112.658C175.332 112.55 175.758 112.496 176.226 112.496C177.318 112.496 178.182 112.772 178.818 113.324C179.466 113.876 179.79 114.644 179.79 115.628V120.74H181.086V122H180.096ZM175.812 121.01C176.184 121.01 176.52 120.968 176.82 120.884C177.132 120.788 177.402 120.668 177.63 120.524C177.858 120.368 178.032 120.188 178.152 119.984C178.284 119.768 178.35 119.54 178.35 119.3V117.77H176.37C175.506 117.77 174.876 117.89 174.48 118.13C174.084 118.37 173.886 118.718 173.886 119.174V119.552C173.886 120.032 174.054 120.398 174.39 120.65C174.738 120.89 175.212 121.01 175.812 121.01ZM183.383 122V112.712H184.823V114.224H184.895C184.991 113.996 185.111 113.78 185.255 113.576C185.399 113.36 185.573 113.174 185.777 113.018C185.993 112.862 186.245 112.736 186.533 112.64C186.821 112.544 187.157 112.496 187.541 112.496C188.513 112.496 189.293 112.808 189.881 113.432C190.469 114.044 190.763 114.914 190.763 116.042V122H189.323V116.294C189.323 115.442 189.137 114.812 188.765 114.404C188.393 113.984 187.847 113.774 187.127 113.774C186.839 113.774 186.557 113.81 186.281 113.882C186.005 113.954 185.759 114.062 185.543 114.206C185.327 114.35 185.153 114.536 185.021 114.764C184.889 114.992 184.823 115.256 184.823 115.556V122H183.383ZM197.56 122.216C196.588 122.216 195.748 122.054 195.04 121.73C194.344 121.394 193.75 120.95 193.258 120.398L194.23 119.552C194.674 120.02 195.16 120.38 195.688 120.632C196.216 120.884 196.852 121.01 197.596 121.01C198.316 121.01 198.904 120.884 199.36 120.632C199.828 120.368 200.062 119.96 200.062 119.408C200.062 119.168 200.014 118.97 199.918 118.814C199.834 118.646 199.714 118.514 199.558 118.418C199.402 118.322 199.228 118.25 199.036 118.202C198.844 118.142 198.64 118.094 198.424 118.058L196.966 117.842C196.642 117.794 196.288 117.728 195.904 117.644C195.532 117.56 195.19 117.428 194.878 117.248C194.566 117.056 194.302 116.804 194.086 116.492C193.882 116.18 193.78 115.772 193.78 115.268C193.78 114.8 193.87 114.398 194.05 114.062C194.242 113.714 194.506 113.426 194.842 113.198C195.178 112.958 195.574 112.784 196.03 112.676C196.486 112.556 196.984 112.496 197.524 112.496C198.364 112.496 199.09 112.628 199.702 112.892C200.326 113.156 200.86 113.522 201.304 113.99L200.368 114.872C200.26 114.74 200.122 114.608 199.954 114.476C199.798 114.332 199.6 114.206 199.36 114.098C199.132 113.978 198.862 113.882 198.55 113.81C198.238 113.738 197.878 113.702 197.47 113.702C196.738 113.702 196.174 113.828 195.778 114.08C195.394 114.332 195.202 114.698 195.202 115.178C195.202 115.418 195.244 115.622 195.328 115.79C195.424 115.946 195.55 116.072 195.706 116.168C195.862 116.264 196.036 116.342 196.228 116.402C196.432 116.45 196.636 116.492 196.84 116.528L198.298 116.744C198.634 116.792 198.988 116.858 199.36 116.942C199.732 117.026 200.074 117.164 200.386 117.356C200.698 117.536 200.956 117.782 201.16 118.094C201.376 118.406 201.484 118.814 201.484 119.318C201.484 120.242 201.124 120.956 200.404 121.46C199.696 121.964 198.748 122.216 197.56 122.216ZM211.395 122C210.831 122 210.429 121.856 210.189 121.568C209.949 121.28 209.799 120.92 209.739 120.488H209.649C209.445 121.028 209.115 121.454 208.659 121.766C208.215 122.066 207.615 122.216 206.859 122.216C205.887 122.216 205.113 121.964 204.537 121.46C203.961 120.956 203.673 120.266 203.673 119.39C203.673 118.526 203.985 117.86 204.609 117.392C205.245 116.924 206.265 116.69 207.669 116.69H209.649V115.772C209.649 115.088 209.457 114.578 209.073 114.242C208.689 113.894 208.143 113.72 207.435 113.72C206.811 113.72 206.301 113.846 205.905 114.098C205.509 114.338 205.191 114.668 204.951 115.088L203.979 114.368C204.099 114.128 204.261 113.894 204.465 113.666C204.669 113.438 204.921 113.24 205.221 113.072C205.521 112.892 205.863 112.754 206.247 112.658C206.631 112.55 207.057 112.496 207.525 112.496C208.617 112.496 209.481 112.772 210.117 113.324C210.765 113.876 211.089 114.644 211.089 115.628V120.74H212.385V122H211.395ZM207.111 121.01C207.483 121.01 207.819 120.968 208.119 120.884C208.431 120.788 208.701 120.668 208.929 120.524C209.157 120.368 209.331 120.188 209.451 119.984C209.583 119.768 209.649 119.54 209.649 119.3V117.77H207.669C206.805 117.77 206.175 117.89 205.779 118.13C205.383 118.37 205.185 118.718 205.185 119.174V119.552C205.185 120.032 205.353 120.398 205.689 120.65C206.037 120.89 206.511 121.01 207.111 121.01ZM218.642 122.216C217.97 122.216 217.37 122.102 216.842 121.874C216.326 121.634 215.888 121.304 215.528 120.884C215.168 120.464 214.892 119.954 214.7 119.354C214.52 118.754 214.43 118.088 214.43 117.356C214.43 116.624 214.526 115.958 214.718 115.358C214.91 114.758 215.186 114.248 215.546 113.828C215.906 113.396 216.344 113.066 216.86 112.838C217.376 112.61 217.964 112.496 218.624 112.496C219.524 112.496 220.256 112.694 220.82 113.09C221.384 113.486 221.798 114.002 222.062 114.638L220.91 115.25C220.742 114.77 220.46 114.398 220.064 114.134C219.68 113.87 219.2 113.738 218.624 113.738C218.204 113.738 217.826 113.81 217.49 113.954C217.166 114.086 216.89 114.278 216.662 114.53C216.434 114.782 216.26 115.082 216.14 115.43C216.032 115.778 215.978 116.156 215.978 116.564V118.148C215.978 118.556 216.032 118.934 216.14 119.282C216.26 119.63 216.434 119.93 216.662 120.182C216.89 120.434 217.172 120.632 217.508 120.776C217.844 120.908 218.228 120.974 218.66 120.974C219.284 120.974 219.8 120.83 220.208 120.542C220.616 120.254 220.94 119.858 221.18 119.354L222.206 120.056C221.93 120.68 221.498 121.196 220.91 121.604C220.334 122.012 219.578 122.216 218.642 122.216ZM229.201 122C228.493 122 227.971 121.802 227.635 121.406C227.311 121.01 227.149 120.5 227.149 119.876V113.936H224.053V112.712H226.357C226.669 112.712 226.885 112.652 227.005 112.532C227.137 112.4 227.203 112.178 227.203 111.866V109.436H228.589V112.712H232.819V113.936H228.589V120.776H232.819V122H229.201ZM239.76 110.66C239.34 110.66 239.046 110.576 238.878 110.408C238.71 110.228 238.626 110.006 238.626 109.742V109.454C238.626 109.19 238.71 108.974 238.878 108.806C239.046 108.626 239.34 108.536 239.76 108.536C240.18 108.536 240.474 108.626 240.642 108.806C240.81 108.974 240.894 109.19 240.894 109.454V109.742C240.894 110.006 240.81 110.228 240.642 110.408C240.474 110.576 240.18 110.66 239.76 110.66ZM235.692 120.776H239.04V113.936H235.692V112.712H240.48V120.776H243.612V122H235.692V120.776ZM249.617 122.216C248.969 122.216 248.381 122.102 247.853 121.874C247.337 121.646 246.893 121.322 246.521 120.902C246.161 120.47 245.885 119.96 245.693 119.372C245.501 118.772 245.405 118.1 245.405 117.356C245.405 116.624 245.501 115.958 245.693 115.358C245.885 114.758 246.161 114.248 246.521 113.828C246.893 113.396 247.337 113.066 247.853 112.838C248.381 112.61 248.969 112.496 249.617 112.496C250.265 112.496 250.847 112.61 251.363 112.838C251.891 113.066 252.335 113.396 252.695 113.828C253.067 114.248 253.349 114.758 253.541 115.358C253.733 115.958 253.829 116.624 253.829 117.356C253.829 118.1 253.733 118.772 253.541 119.372C253.349 119.96 253.067 120.47 252.695 120.902C252.335 121.322 251.891 121.646 251.363 121.874C250.847 122.102 250.265 122.216 249.617 122.216ZM249.617 120.974C250.421 120.974 251.069 120.734 251.561 120.254C252.053 119.774 252.299 119.03 252.299 118.022V116.69C252.299 115.682 252.053 114.938 251.561 114.458C251.069 113.978 250.421 113.738 249.617 113.738C248.813 113.738 248.165 113.978 247.673 114.458C247.181 114.938 246.935 115.682 246.935 116.69V118.022C246.935 119.03 247.181 119.774 247.673 120.254C248.165 120.734 248.813 120.974 249.617 120.974ZM256.414 122V112.712H257.854V114.224H257.926C258.022 113.996 258.142 113.78 258.286 113.576C258.43 113.36 258.604 113.174 258.808 113.018C259.024 112.862 259.276 112.736 259.564 112.64C259.852 112.544 260.188 112.496 260.572 112.496C261.544 112.496 262.324 112.808 262.912 113.432C263.5 114.044 263.794 114.914 263.794 116.042V122H262.354V116.294C262.354 115.442 262.168 114.812 261.796 114.404C261.424 113.984 260.878 113.774 260.158 113.774C259.87 113.774 259.588 113.81 259.312 113.882C259.036 113.954 258.79 114.062 258.574 114.206C258.358 114.35 258.184 114.536 258.052 114.764C257.92 114.992 257.854 115.256 257.854 115.556V122H256.414ZM270.483 122.162C269.991 122.162 269.643 122.06 269.439 121.856C269.247 121.652 269.151 121.394 269.151 121.082V120.758C269.151 120.446 269.247 120.188 269.439 119.984C269.643 119.78 269.991 119.678 270.483 119.678C270.975 119.678 271.317 119.78 271.509 119.984C271.713 120.188 271.815 120.446 271.815 120.758V121.082C271.815 121.394 271.713 121.652 271.509 121.856C271.317 122.06 270.975 122.162 270.483 122.162Z" fill="#111111"/>
</g>
<defs>
<clipPath id="clip0_811_298248">
<rect width="300" height="158" fill="white"/>
</clipPath>
<clipPath id="clip1_811_298248">
<rect width="276" height="6" fill="white" transform="translate(12)"/>
</clipPath>
<clipPath id="clip2_811_298248">
<rect width="276" height="6" fill="white" transform="matrix(1 0 0 -1 12 158)"/>
</clipPath>
<clipPath id="clip3_811_298248">
<rect width="288" height="6" fill="white" transform="matrix(1 0 0 -1 6 58)"/>
</clipPath>
</defs>
</svg>
