<svg width="103" height="51" viewBox="0 0 103 51" fill="none" xmlns="http://www.w3.org/2000/svg">
<g filter="url(#filter0_d_724_245019)">
<path d="M52 8.61538V4H8.00001L4 8.30769V31.6923L8.00001 36L12 40L16 44H20L24 40L26.2612 36.3077H52V31.6923V8.61538Z" fill="white"/>
<path d="M48 0H63V4H48V0Z" fill="#008BEE"/>
<path d="M48 4H63V8H48V4Z" fill="white"/>
<path d="M48 8H63V12H48V8Z" fill="white"/>
<path d="M48 12H63V16H48V12Z" fill="white"/>
<path d="M48 16H63V20H48V16Z" fill="white"/>
<path d="M48 24H63V28H48V24Z" fill="white"/>
<path d="M48 20H63V24H48V20Z" fill="white"/>
<path d="M48 28H63V32H48V28Z" fill="white"/>
<path d="M48 32H63V36H48V32Z" fill="white"/>
<path d="M48 40H63V36H48V40Z" fill="#008BEE"/>
<path d="M44 0H48V4H44V0Z" fill="#008BEE"/>
<path d="M44 40H48V36H44V40Z" fill="#008BEE"/>
<path d="M40 0H44V4H40V0Z" fill="#008BEE"/>
<path d="M40 40H44V36H40V40Z" fill="#008BEE"/>
<path d="M36 0H40V4H36V0Z" fill="#008BEE"/>
<path d="M36 40H40V36H36V40Z" fill="#008BEE"/>
<path d="M32 0H36V4H32V0Z" fill="#008BEE"/>
<path d="M32 40H36V36H32V40Z" fill="#008BEE"/>
<path d="M28 0H32V4H28V0Z" fill="#008BEE"/>
<path d="M28 40H32V36H28V40Z" fill="#008BEE"/>
<path d="M24 0H28V4H24V0Z" fill="#008BEE"/>
<path d="M24 40H28V36H24V40Z" fill="#008BEE"/>
<path d="M20 0H24V4H20V0Z" fill="#008BEE"/>
<path d="M20 44H24V40H20V44Z" fill="#008BEE"/>
<path d="M16 0H20V4H16V0Z" fill="#008BEE"/>
<path d="M16 48H20V44H16V48Z" fill="#008BEE"/>
<path d="M12 0H16V4H12V0Z" fill="#008BEE"/>
<path d="M12 44H16V40H12V44Z" fill="#008BEE"/>
<path d="M8 0H12V4H8V0Z" fill="#008BEE"/>
<path d="M8 40H12V36H8V40Z" fill="#008BEE"/>
<path d="M4 4H8V8H4V4Z" fill="#008BEE"/>
<path d="M4 36H8V32H4V36Z" fill="#008BEE"/>
<path d="M0 8H4V12H0V8Z" fill="#008BEE"/>
<path d="M0 12H4V16H0V12Z" fill="#008BEE"/>
<path d="M0 16H4V20H0V16Z" fill="#008BEE"/>
<path d="M0 20H4V24H0V20Z" fill="#008BEE"/>
<path d="M0 20H4V24H0V20Z" fill="#008BEE"/>
<path d="M0 24H4V28H0V24Z" fill="#008BEE"/>
<path d="M0 28H4V32H0V28Z" fill="#008BEE"/>
<path d="M51 8.625V4L99 4V8.31667V32.375L95 36H85.9055H81.2921H76.7388H51V31.375V8.625Z" fill="white"/>
<path d="M55 4H51V8H55V4Z" fill="white"/>
<path d="M55 8H51V12H55V8Z" fill="white"/>
<path d="M55 12H51V16H55V12Z" fill="white"/>
<path d="M55 16H51V20H55V16Z" fill="white"/>
<path d="M55 24H51V28H55V24Z" fill="white"/>
<path d="M55 20H51V24H55V20Z" fill="white"/>
<path d="M55 28H51V32H55V28Z" fill="white"/>
<path d="M55 32H51V36H55V32Z" fill="white"/>
<path d="M55 0H51V4H55V0Z" fill="#008BEE"/>
<path d="M55 40H51V36H55V40Z" fill="#008BEE"/>
<path d="M59 0H55V4H59V0Z" fill="#008BEE"/>
<path d="M59 40H55V36H59V40Z" fill="#008BEE"/>
<path d="M63 0H59V4H63V0Z" fill="#008BEE"/>
<path d="M63 40H59V36H63V40Z" fill="#008BEE"/>
<path d="M67 0H63V4H67V0Z" fill="#008BEE"/>
<path d="M67 40H63V36H67V40Z" fill="#008BEE"/>
<path d="M71 0H67V4H71V0Z" fill="#008BEE"/>
<path d="M71 40H67V36H71V40Z" fill="#008BEE"/>
<path d="M75 0H71V4H75V0Z" fill="#008BEE"/>
<path d="M75 40H71V36H75V40Z" fill="#008BEE"/>
<path d="M79 0H75V4H79V0Z" fill="#008BEE"/>
<path d="M79 40H75V36H79V40Z" fill="#008BEE"/>
<path d="M83 0H79V4H83V0Z" fill="#008BEE"/>
<path d="M83 40H79V36H83V40Z" fill="#008BEE"/>
<path d="M87 0H83V4H87V0Z" fill="#008BEE"/>
<path d="M87 40H83V36H87V40Z" fill="#008BEE"/>
<path d="M91 0H87V4H91V0Z" fill="#008BEE"/>
<path d="M91 40H87V36H91V40Z" fill="#008BEE"/>
<path d="M95 0H91V4H95V0Z" fill="#008BEE"/>
<path d="M95 40H91V36H95V40Z" fill="#008BEE"/>
<path d="M99 4H95V8H99V4Z" fill="#008BEE"/>
<path d="M99 36H95V32H99V36Z" fill="#008BEE"/>
<path d="M103 8H99V12H103V8Z" fill="#008BEE"/>
<path d="M103 12H99V16H103V12Z" fill="#008BEE"/>
<path d="M103 16H99V20H103V16Z" fill="#008BEE"/>
<path d="M103 20H99V24H103V20Z" fill="#008BEE"/>
<path d="M103 24H99V28H103V24Z" fill="#008BEE"/>
<path d="M103 28H99V32H103V28Z" fill="#008BEE"/>
<path d="M14 14.2143H15.1786V15.3929H14V14.2143ZM15.1786 14.2143H16.3571V15.3929H15.1786V14.2143ZM15.1786 15.3929H16.3571V16.5714H15.1786V15.3929ZM15.1786 16.5714H16.3571V17.75H15.1786V16.5714ZM15.1786 17.75H16.3571V18.9286H15.1786V17.75ZM14 17.75H15.1786V18.9286H14V17.75ZM14 16.5714H15.1786V17.75H14V16.5714ZM14 15.3929H15.1786V16.5714H14V15.3929ZM14 18.9286H15.1786V20.1071H14V18.9286ZM14 20.1071H15.1786V21.2857H14V20.1071ZM14 21.2857H15.1786V22.4643H14V21.2857ZM15.1786 20.1071H16.3571V21.2857H15.1786V20.1071ZM15.1786 18.9286H16.3571V20.1071H15.1786V18.9286ZM15.1786 21.2857H16.3571V22.4643H15.1786V21.2857ZM15.1786 22.4643H16.3571V23.6429H15.1786V22.4643ZM14 23.6429H15.1786V24.8214H14V23.6429ZM14 22.4643H15.1786V23.6429H14V22.4643ZM14 24.8214H15.1786V26H14V24.8214ZM15.1786 24.8214H16.3571V26H15.1786V24.8214ZM15.1786 23.6429H16.3571V24.8214H15.1786V23.6429ZM16.3571 24.8214H17.5357V26H16.3571V24.8214ZM17.5357 24.8214H18.7143V26H17.5357V24.8214ZM18.7143 24.8214H19.8929V26H18.7143V24.8214ZM18.7143 23.6429H19.8929V24.8214H18.7143V23.6429ZM17.5357 23.6429H18.7143V24.8214H17.5357V23.6429ZM16.3571 23.6429H17.5357V24.8214H16.3571V23.6429ZM16.3571 14.2143H17.5357V15.3929H16.3571V14.2143ZM17.5357 14.2143H18.7143V15.3929H17.5357V14.2143ZM18.7143 14.2143H19.8929V15.3929H18.7143V14.2143ZM19.8929 14.2143H21.0714V15.3929H19.8929V14.2143ZM18.7143 15.3929H19.8929V16.5714H18.7143V15.3929ZM17.5357 15.3929H18.7143V16.5714H17.5357V15.3929ZM16.3571 15.3929H17.5357V16.5714H16.3571V15.3929ZM16.3571 20.1071H17.5357V21.2857H16.3571V20.1071ZM17.5357 18.9286H18.7143V20.1071H17.5357V18.9286ZM16.3571 18.9286H17.5357V20.1071H16.3571V18.9286ZM17.5357 20.1071H18.7143V21.2857H17.5357V20.1071ZM19.8929 15.3929H21.0714V16.5714H19.8929V15.3929ZM19.8929 23.6429H21.0714V24.8214H19.8929V23.6429ZM19.8929 24.8214H21.0714V26H19.8929V24.8214ZM18.7143 18.9286H19.8929V20.1071H18.7143V18.9286ZM18.7143 20.1071H19.8929V21.2857H18.7143V20.1071ZM26.0057 24.8214H27.1843V26H26.0057V24.8214ZM26.0057 23.6429H27.1843V24.8214H26.0057V23.6429ZM26.0057 22.4643H27.1843V23.6429H26.0057V22.4643ZM24.8271 23.6429H26.0057V24.8214H24.8271V23.6429ZM24.8271 22.4643H26.0057V23.6429H24.8271V22.4643ZM24.8271 21.2857H26.0057V22.4643H24.8271V21.2857ZM23.6486 22.4643H24.8271V23.6429H23.6486V22.4643ZM23.6486 21.2857H24.8271V22.4643H23.6486V21.2857ZM27.1843 22.4643H28.3629V23.6429H27.1843V22.4643ZM27.1843 23.6429H28.3629V24.8214H27.1843V23.6429ZM27.1843 21.2857H28.3629V22.4643H27.1843V21.2857ZM28.3629 21.2857H29.5414V22.4643H28.3629V21.2857ZM28.3629 22.4643H29.5414V23.6429H28.3629V22.4643ZM29.5414 21.2857H30.72V22.4643H29.5414V21.2857ZM22.47 21.2857H23.6486V22.4643H22.47V21.2857ZM28.3629 14.2143H29.5414V15.3929H28.3629V14.2143ZM29.5414 14.2143H30.72V15.3929H29.5414V14.2143ZM29.5414 15.3929H30.72V16.5714H29.5414V15.3929ZM29.5414 16.5714H30.72V17.75H29.5414V16.5714ZM29.5414 17.75H30.72V18.9286H29.5414V17.75ZM29.5414 18.9286H30.72V20.1071H29.5414V18.9286ZM28.3629 18.9286H29.5414V20.1071H28.3629V18.9286ZM28.3629 20.1071H29.5414V21.2857H28.3629V20.1071ZM28.3629 17.75H29.5414V18.9286H28.3629V17.75ZM28.3629 16.5714H29.5414V17.75H28.3629V16.5714ZM28.3629 15.3929H29.5414V16.5714H28.3629V15.3929ZM29.5414 20.1071H30.72V21.2857H29.5414V20.1071ZM23.6486 20.1071H24.8271V21.2857H23.6486V20.1071ZM22.47 20.1071H23.6486V21.2857H22.47V20.1071ZM22.47 18.9286H23.6486V20.1071H22.47V18.9286ZM23.6486 18.9286H24.8271V20.1071H23.6486V18.9286ZM23.6486 17.75H24.8271V18.9286H23.6486V17.75ZM22.47 17.75H23.6486V18.9286H22.47V17.75ZM22.47 16.5714H23.6486V17.75H22.47V16.5714ZM23.6486 16.5714H24.8271V17.75H23.6486V16.5714ZM22.47 14.2143H23.6486V15.3929H22.47V14.2143ZM23.6486 14.2143H24.8271V15.3929H23.6486V14.2143ZM23.6486 15.3929H24.8271V16.5714H23.6486V15.3929ZM22.47 15.3929H23.6486V16.5714H22.47V15.3929ZM32.1216 24.8214H33.3002V26H32.1216V24.8214ZM32.1216 23.6429H33.3002V24.8214H32.1216V23.6429ZM32.1216 22.4643H33.3002V23.6429H32.1216V22.4643ZM32.1216 21.2857H33.3002V22.4643H32.1216V21.2857ZM32.1216 20.1071H33.3002V21.2857H32.1216V20.1071ZM32.1216 18.9286H33.3002V20.1071H32.1216V18.9286ZM33.3002 18.9286H34.4788V20.1071H33.3002V18.9286ZM33.3002 17.75H34.4788V18.9286H33.3002V17.75ZM33.3002 16.5714H34.4788V17.75H33.3002V16.5714ZM33.3002 15.3929H34.4788V16.5714H33.3002V15.3929ZM32.1216 15.3929H33.3002V16.5714H32.1216V15.3929ZM32.1216 14.2143H33.3002V15.3929H32.1216V14.2143ZM32.1216 16.5714H33.3002V17.75H32.1216V16.5714ZM32.1216 17.75H33.3002V18.9286H32.1216V17.75ZM33.3002 14.2143H34.4788V15.3929H33.3002V14.2143ZM33.3002 20.1071H34.4788V21.2857H33.3002V20.1071ZM33.3002 21.2857H34.4788V22.4643H33.3002V21.2857ZM33.3002 22.4643H34.4788V23.6429H33.3002V22.4643ZM33.3002 23.6429H34.4788V24.8214H33.3002V23.6429ZM33.3002 24.8214H34.4788V26H33.3002V24.8214ZM34.4788 16.5714H35.6574V17.75H34.4788V16.5714ZM34.4788 17.75H35.6574V18.9286H34.4788V17.75ZM35.6574 17.75H36.8359V18.9286H35.6574V17.75ZM35.6574 18.9286H36.8359V20.1071H35.6574V18.9286ZM36.8359 18.9286H38.0145V20.1071H36.8359V18.9286ZM36.8359 20.1071H38.0145V21.2857H36.8359V20.1071ZM38.0145 18.9286H39.1931V20.1071H38.0145V18.9286ZM38.0145 17.75H39.1931V18.9286H38.0145V17.75ZM39.1931 17.75H40.3716V18.9286H39.1931V17.75ZM39.1931 16.5714H40.3716V17.75H39.1931V16.5714ZM40.3716 14.2143H41.5502V15.3929H40.3716V14.2143ZM40.3716 15.3929H41.5502V16.5714H40.3716V15.3929ZM40.3716 16.5714H41.5502V17.75H40.3716V16.5714ZM40.3716 17.75H41.5502V18.9286H40.3716V17.75ZM40.3716 18.9286H41.5502V20.1071H40.3716V18.9286ZM40.3716 20.1071H41.5502V21.2857H40.3716V20.1071ZM40.3716 21.2857H41.5502V22.4643H40.3716V21.2857ZM40.3716 22.4643H41.5502V23.6429H40.3716V22.4643ZM40.3716 23.6429H41.5502V24.8214H40.3716V23.6429ZM40.3716 24.8214H41.5502V26H40.3716V24.8214ZM41.5502 24.8214H42.7288V26H41.5502V24.8214ZM41.5502 23.6429H42.7288V24.8214H41.5502V23.6429ZM41.5502 22.4643H42.7288V23.6429H41.5502V22.4643ZM41.5502 21.2857H42.7288V22.4643H41.5502V21.2857ZM41.5502 20.1071H42.7288V21.2857H41.5502V20.1071ZM41.5502 18.9286H42.7288V20.1071H41.5502V18.9286ZM41.5502 17.75H42.7288V18.9286H41.5502V17.75ZM41.5502 16.5714H42.7288V17.75H41.5502V16.5714ZM41.5502 15.3929H42.7288V16.5714H41.5502V15.3929ZM41.5502 14.2143H42.7288V15.3929H41.5502V14.2143ZM34.4788 15.3929H35.6574V16.5714H34.4788V15.3929ZM35.6574 16.5714H36.8359V17.75H35.6574V16.5714ZM36.8359 17.75H38.0145V18.9286H36.8359V17.75ZM38.0145 16.5714H39.1931V17.75H38.0145V16.5714ZM39.1931 15.3929H40.3716V16.5714H39.1931V15.3929ZM56.1331 16.5714H57.3116V17.75H56.1331V16.5714ZM54.9545 16.5714H56.1331V17.75H54.9545V16.5714ZM54.9545 15.3929H56.1331V16.5714H54.9545V15.3929ZM56.1331 15.3929H57.3116V16.5714H56.1331V15.3929ZM54.9545 14.2143H56.1331V15.3929H54.9545V14.2143ZM53.7759 14.2143H54.9545V15.3929H53.7759V14.2143ZM53.7759 15.3929H54.9545V16.5714H53.7759V15.3929ZM52.5974 15.3929H53.7759V16.5714H52.5974V15.3929ZM51.4188 15.3929H52.5974V16.5714H51.4188V15.3929ZM51.4188 14.2143H52.5974V15.3929H51.4188V14.2143ZM50.2402 14.2143H51.4188V15.3929H50.2402V14.2143ZM52.5974 14.2143H53.7759V15.3929H52.5974V14.2143ZM50.2402 15.3929H51.4188V16.5714H50.2402V15.3929ZM49.0616 15.3929H50.2402V16.5714H49.0616V15.3929ZM49.0616 16.5714H50.2402V17.75H49.0616V16.5714ZM50.2402 16.5714H51.4188V17.75H50.2402V16.5714ZM50.2402 17.75H51.4188V18.9286H50.2402V17.75ZM50.2402 18.9286H51.4188V20.1071H50.2402V18.9286ZM49.0616 18.9286H50.2402V20.1071H49.0616V18.9286ZM49.0616 17.75H50.2402V18.9286H49.0616V17.75ZM50.2402 20.1071H51.4188V21.2857H50.2402V20.1071ZM51.4188 20.1071H52.5974V21.2857H51.4188V20.1071ZM51.4188 18.9286H52.5974V20.1071H51.4188V18.9286ZM52.5974 18.9286H53.7759V20.1071H52.5974V18.9286ZM53.7759 18.9286H54.9545V20.1071H53.7759V18.9286ZM54.9545 18.9286H56.1331V20.1071H54.9545V18.9286ZM54.9545 20.1071H56.1331V21.2857H54.9545V20.1071ZM53.7759 20.1071H54.9545V21.2857H53.7759V20.1071ZM52.5974 20.1071H53.7759V21.2857H52.5974V20.1071ZM56.1331 20.1071H57.3116V21.2857H56.1331V20.1071ZM56.1331 21.2857H57.3116V22.4643H56.1331V21.2857ZM54.9545 21.2857H56.1331V22.4643H54.9545V21.2857ZM53.7759 23.6429H54.9545V24.8214H53.7759V23.6429ZM54.9545 23.6429H56.1331V24.8214H54.9545V23.6429ZM54.9545 22.4643H56.1331V23.6429H54.9545V22.4643ZM56.1331 22.4643H57.3116V23.6429H56.1331V22.4643ZM56.1331 23.6429H57.3116V24.8214H56.1331V23.6429ZM54.9545 24.8214H56.1331V26H54.9545V24.8214ZM53.7759 24.8214H54.9545V26H53.7759V24.8214ZM52.5974 24.8214H53.7759V26H52.5974V24.8214ZM51.4188 24.8214H52.5974V26H51.4188V24.8214ZM50.2402 24.8214H51.4188V26H50.2402V24.8214ZM50.2402 23.6429H51.4188V24.8214H50.2402V23.6429ZM51.4188 23.6429H52.5974V24.8214H51.4188V23.6429ZM52.5974 23.6429H53.7759V24.8214H52.5974V23.6429ZM49.0616 23.6429H50.2402V24.8214H49.0616V23.6429ZM49.0616 22.4643H50.2402V23.6429H49.0616V22.4643ZM50.2402 22.4643H51.4188V23.6429H50.2402V22.4643ZM58.7133 17.75H59.8919V18.9286H58.7133V17.75ZM58.7133 16.5714H59.8919V17.75H58.7133V16.5714ZM59.8919 16.5714H61.0704V17.75H59.8919V16.5714ZM59.8919 17.75H61.0704V18.9286H59.8919V17.75ZM59.8919 18.9286H61.0704V20.1071H59.8919V18.9286ZM59.8919 20.1071H61.0704V21.2857H59.8919V20.1071ZM59.8919 21.2857H61.0704V22.4643H59.8919V21.2857ZM58.7133 21.2857H59.8919V22.4643H58.7133V21.2857ZM58.7133 20.1071H59.8919V21.2857H58.7133V20.1071ZM58.7133 18.9286H59.8919V20.1071H58.7133V18.9286ZM58.7133 22.4643H59.8919V23.6429H58.7133V22.4643ZM59.8919 22.4643H61.0704V23.6429H59.8919V22.4643ZM59.8919 23.6429H61.0704V24.8214H59.8919V23.6429ZM59.8919 24.8214H61.0704V26H59.8919V24.8214ZM58.7133 24.8214H59.8919V26H58.7133V24.8214ZM58.7133 23.6429H59.8919V24.8214H58.7133V23.6429ZM64.6061 24.8214H65.7847V26H64.6061V24.8214ZM65.7847 23.6429H66.9633V24.8214H65.7847V23.6429ZM65.7847 22.4643H66.9633V23.6429H65.7847V22.4643ZM65.7847 21.2857H66.9633V22.4643H65.7847V21.2857ZM65.7847 20.1071H66.9633V21.2857H65.7847V20.1071ZM65.7847 18.9286H66.9633V20.1071H65.7847V18.9286ZM65.7847 17.75H66.9633V18.9286H65.7847V17.75ZM64.6061 20.1071H65.7847V21.2857H64.6061V20.1071ZM64.6061 21.2857H65.7847V22.4643H64.6061V21.2857ZM64.6061 22.4643H65.7847V23.6429H64.6061V22.4643ZM64.6061 23.6429H65.7847V24.8214H64.6061V23.6429ZM64.6061 18.9286H65.7847V20.1071H64.6061V18.9286ZM61.0704 17.75H62.249V18.9286H61.0704V17.75ZM62.249 17.75H63.4276V18.9286H62.249V17.75ZM63.4276 17.75H64.6061V18.9286H63.4276V17.75ZM63.4276 16.5714H64.6061V17.75H63.4276V16.5714ZM64.6061 16.5714H65.7847V17.75H64.6061V16.5714ZM64.6061 17.75H65.7847V18.9286H64.6061V17.75ZM62.249 16.5714H63.4276V17.75H62.249V16.5714ZM61.0704 24.8214H62.249V26H61.0704V24.8214ZM62.249 24.8214H63.4276V26H62.249V24.8214ZM63.4276 24.8214H64.6061V26H63.4276V24.8214ZM63.4276 23.6429H64.6061V24.8214H63.4276V23.6429ZM62.249 23.6429H63.4276V24.8214H62.249V23.6429ZM61.0704 23.6429H62.249V24.8214H61.0704V23.6429ZM58.7133 26H59.8919V27.1786H58.7133V26ZM59.8919 26H61.0704V27.1786H59.8919V26ZM59.8919 27.1786H61.0704V28.3571H59.8919V27.1786ZM58.7133 27.1786H59.8919V28.3571H58.7133V27.1786ZM70.7221 16.5714H71.9006V17.75H70.7221V16.5714ZM69.5435 16.5714H70.7221V17.75H69.5435V16.5714ZM69.5435 17.75H70.7221V18.9286H69.5435V17.75ZM70.7221 17.75H71.9006V18.9286H70.7221V17.75ZM71.9006 16.5714H73.0792V17.75H71.9006V16.5714ZM73.0792 16.5714H74.2578V17.75H73.0792V16.5714ZM74.2578 16.5714H75.4364V17.75H74.2578V16.5714ZM74.2578 17.75H75.4364V18.9286H74.2578V17.75ZM73.0792 17.75H74.2578V18.9286H73.0792V17.75ZM75.4364 17.75H76.6149V18.9286H75.4364V17.75ZM75.4364 18.9286H76.6149V20.1071H75.4364V18.9286ZM75.4364 23.6429H76.6149V24.8214H75.4364V23.6429ZM74.2578 23.6429H75.4364V24.8214H74.2578V23.6429ZM74.2578 18.9286H75.4364V20.1071H74.2578V18.9286ZM73.0792 23.6429H74.2578V24.8214H73.0792V23.6429ZM74.2578 24.8214H75.4364V26H74.2578V24.8214ZM73.0792 24.8214H74.2578V26H73.0792V24.8214ZM71.9006 24.8214H73.0792V26H71.9006V24.8214ZM70.7221 24.8214H71.9006V26H70.7221V24.8214ZM69.5435 24.8214H70.7221V26H69.5435V24.8214ZM69.5435 23.6429H70.7221V24.8214H69.5435V23.6429ZM70.7221 23.6429H71.9006V24.8214H70.7221V23.6429ZM69.5435 22.4643H70.7221V23.6429H69.5435V22.4643ZM68.3649 23.6429H69.5435V24.8214H68.3649V23.6429ZM68.3649 22.4643H69.5435V23.6429H68.3649V22.4643ZM68.3649 21.2857H69.5435V22.4643H68.3649V21.2857ZM68.3649 20.1071H69.5435V21.2857H68.3649V20.1071ZM68.3649 18.9286H69.5435V20.1071H68.3649V18.9286ZM68.3649 17.75H69.5435V18.9286H68.3649V17.75ZM69.5435 18.9286H70.7221V20.1071H69.5435V18.9286ZM69.5435 20.1071H70.7221V21.2857H69.5435V20.1071ZM69.5435 21.2857H70.7221V22.4643H69.5435V21.2857ZM71.9006 23.6429H73.0792V24.8214H71.9006V23.6429ZM71.9006 17.75H73.0792V18.9286H71.9006V17.75ZM74.2578 20.1071H75.4364V21.2857H74.2578V20.1071ZM75.4364 20.1071H76.6149V21.2857H75.4364V20.1071ZM70.7221 21.2857H71.9006V22.4643H70.7221V21.2857ZM71.9006 21.2857H73.0792V22.4643H71.9006V21.2857ZM73.0792 21.2857H74.2578V22.4643H73.0792V21.2857ZM74.2578 21.2857H75.4364V22.4643H74.2578V21.2857ZM75.4364 21.2857H76.6149V22.4643H75.4364V21.2857ZM73.0792 20.1071H74.2578V21.2857H73.0792V20.1071ZM71.9006 20.1071H73.0792V21.2857H71.9006V20.1071ZM70.7221 20.1071H71.9006V21.2857H70.7221V20.1071ZM80.3737 16.5714H81.5523V17.75H80.3737V16.5714ZM79.1951 16.5714H80.3737V17.75H79.1951V16.5714ZM79.1951 17.75H80.3737V18.9286H79.1951V17.75ZM80.3737 17.75H81.5523V18.9286H80.3737V17.75ZM81.5523 16.5714H82.7308V17.75H81.5523V16.5714ZM82.7308 16.5714H83.9094V17.75H82.7308V16.5714ZM83.9094 16.5714H85.088V17.75H83.9094V16.5714ZM83.9094 17.75H85.088V18.9286H83.9094V17.75ZM82.7308 17.75H83.9094V18.9286H82.7308V17.75ZM85.088 17.75H86.2666V18.9286H85.088V17.75ZM85.088 18.9286H86.2666V20.1071H85.088V18.9286ZM85.088 22.4643H86.2666V23.6429H85.088V22.4643ZM85.088 23.6429H86.2666V24.8214H85.088V23.6429ZM83.9094 23.6429H85.088V24.8214H83.9094V23.6429ZM83.9094 22.4643H85.088V23.6429H83.9094V22.4643ZM83.9094 18.9286H85.088V20.1071H83.9094V18.9286ZM82.7308 23.6429H83.9094V24.8214H82.7308V23.6429ZM83.9094 24.8214H85.088V26H83.9094V24.8214ZM82.7308 24.8214H83.9094V26H82.7308V24.8214ZM81.5523 24.8214H82.7308V26H81.5523V24.8214ZM80.3737 24.8214H81.5523V26H80.3737V24.8214ZM79.1951 24.8214H80.3737V26H79.1951V24.8214ZM79.1951 23.6429H80.3737V24.8214H79.1951V23.6429ZM80.3737 23.6429H81.5523V24.8214H80.3737V23.6429ZM79.1951 22.4643H80.3737V23.6429H79.1951V22.4643ZM78.0166 23.6429H79.1951V24.8214H78.0166V23.6429ZM78.0166 22.4643H79.1951V23.6429H78.0166V22.4643ZM78.0166 21.2857H79.1951V22.4643H78.0166V21.2857ZM78.0166 20.1071H79.1951V21.2857H78.0166V20.1071ZM78.0166 18.9286H79.1951V20.1071H78.0166V18.9286ZM78.0166 17.75H79.1951V18.9286H78.0166V17.75ZM79.1951 18.9286H80.3737V20.1071H79.1951V18.9286ZM79.1951 20.1071H80.3737V21.2857H79.1951V20.1071ZM79.1951 21.2857H80.3737V22.4643H79.1951V21.2857ZM81.5523 23.6429H82.7308V24.8214H81.5523V23.6429ZM81.5523 17.75H82.7308V18.9286H81.5523V17.75ZM87.6682 23.6429H88.8468V24.8214H87.6682V23.6429ZM88.8468 23.6429H90.0253V24.8214H88.8468V23.6429ZM88.8468 24.8214H90.0253V26H88.8468V24.8214ZM87.6682 24.8214H88.8468V26H87.6682V24.8214Z" fill="#008BEE"/>
</g>
<defs>
<filter id="filter0_d_724_245019" x="0" y="0" width="103" height="51" filterUnits="userSpaceOnUse" color-interpolation-filters="sRGB">
<feFlood flood-opacity="0" result="BackgroundImageFix"/>
<feColorMatrix in="SourceAlpha" type="matrix" values="0 0 0 0 0 0 0 0 0 0 0 0 0 0 0 0 0 0 127 0" result="hardAlpha"/>
<feOffset dy="3"/>
<feComposite in2="hardAlpha" operator="out"/>
<feColorMatrix type="matrix" values="0 0 0 0 0.0737057 0 0 0 0 0.380932 0 0 0 0 0.600379 0 0 0 1 0"/>
<feBlend mode="normal" in2="BackgroundImageFix" result="effect1_dropShadow_724_245019"/>
<feBlend mode="normal" in="SourceGraphic" in2="effect1_dropShadow_724_245019" result="shape"/>
</filter>
</defs>
</svg>
