<svg width="146" height="48" viewBox="0 0 146 48" fill="none" xmlns="http://www.w3.org/2000/svg">
<path d="M52 8.61538V4H8.00001L4 8.30769V31.6923L8.00001 36L12 40L16 44H20L24 40L26.2612 36.3077H52V31.6923V8.61538Z" fill="white"/>
<path d="M48 0H89V4H48V0Z" fill="#899BA3"/>
<path d="M48 4H89V8H48V4Z" fill="white"/>
<path d="M48 8H89V12H48V8Z" fill="white"/>
<path d="M48 12H89V16H48V12Z" fill="white"/>
<path d="M48 16H89V20H48V16Z" fill="white"/>
<path d="M48 24H89V28H48V24Z" fill="white"/>
<path d="M48 20H89V24H48V20Z" fill="white"/>
<path d="M48 28H89V32H48V28Z" fill="white"/>
<path d="M48 32H89V36H48V32Z" fill="white"/>
<path d="M48 40H89V36H48V40Z" fill="#899BA3"/>
<path d="M44 0H48V4H44V0Z" fill="#899BA3"/>
<path d="M44 40H48V36H44V40Z" fill="#899BA3"/>
<path d="M40 0H44V4H40V0Z" fill="#899BA3"/>
<path d="M40 40H44V36H40V40Z" fill="#899BA3"/>
<path d="M36 0H40V4H36V0Z" fill="#899BA3"/>
<path d="M36 40H40V36H36V40Z" fill="#899BA3"/>
<path d="M32 0H36V4H32V0Z" fill="#899BA3"/>
<path d="M32 40H36V36H32V40Z" fill="#899BA3"/>
<path d="M28 0H32V4H28V0Z" fill="#899BA3"/>
<path d="M28 40H32V36H28V40Z" fill="#899BA3"/>
<path d="M24 0H28V4H24V0Z" fill="#899BA3"/>
<path d="M24 40H28V36H24V40Z" fill="#899BA3"/>
<path d="M20 0H24V4H20V0Z" fill="#899BA3"/>
<path d="M20 44H24V40H20V44Z" fill="#899BA3"/>
<path d="M16 0H20V4H16V0Z" fill="#899BA3"/>
<path d="M16 48H20V44H16V48Z" fill="#899BA3"/>
<path d="M12 0H16V4H12V0Z" fill="#899BA3"/>
<path d="M12 44H16V40H12V44Z" fill="#899BA3"/>
<path d="M8 0H12V4H8V0Z" fill="#899BA3"/>
<path d="M8 40H12V36H8V40Z" fill="#899BA3"/>
<path d="M4 4H8V8H4V4Z" fill="#899BA3"/>
<path d="M4 36H8V32H4V36Z" fill="#899BA3"/>
<path d="M0 8H4V12H0V8Z" fill="#899BA3"/>
<path d="M0 12H4V16H0V12Z" fill="#899BA3"/>
<path d="M0 16H4V20H0V16Z" fill="#899BA3"/>
<path d="M0 20H4V24H0V20Z" fill="#899BA3"/>
<path d="M0 20H4V24H0V20Z" fill="#899BA3"/>
<path d="M0 24H4V28H0V24Z" fill="#899BA3"/>
<path d="M0 28H4V32H0V28Z" fill="#899BA3"/>
<path d="M94 8.625V4L142 4V8.31667V32.375L138 36H128.906H124.292H119.739H94V31.375V8.625Z" fill="white"/>
<path d="M98 4H73V8H98V4Z" fill="white"/>
<path d="M98 8H73V12H98V8Z" fill="white"/>
<path d="M98 12H73V16H98V12Z" fill="white"/>
<path d="M98 16H73V20H98V16Z" fill="white"/>
<path d="M98 24H73V28H98V24Z" fill="white"/>
<path d="M98 20H73V24H98V20Z" fill="white"/>
<path d="M98 28H73V32H98V28Z" fill="white"/>
<path d="M98 32H73V36H98V32Z" fill="white"/>
<path d="M98 0H73V4H98V0Z" fill="#899BA3"/>
<path d="M98 40H73V36H98V40Z" fill="#899BA3"/>
<path d="M102 0H98V4H102V0Z" fill="#899BA3"/>
<path d="M102 40H98V36H102V40Z" fill="#899BA3"/>
<path d="M106 0H102V4H106V0Z" fill="#899BA3"/>
<path d="M106 40H102V36H106V40Z" fill="#899BA3"/>
<path d="M110 0H106V4H110V0Z" fill="#899BA3"/>
<path d="M110 40H106V36H110V40Z" fill="#899BA3"/>
<path d="M114 0H110V4H114V0Z" fill="#899BA3"/>
<path d="M114 40H110V36H114V40Z" fill="#899BA3"/>
<path d="M118 0H114V4H118V0Z" fill="#899BA3"/>
<path d="M118 40H114V36H118V40Z" fill="#899BA3"/>
<path d="M122 0H118V4H122V0Z" fill="#899BA3"/>
<path d="M122 40H118V36H122V40Z" fill="#899BA3"/>
<path d="M126 0H122V4H126V0Z" fill="#899BA3"/>
<path d="M126 40H122V36H126V40Z" fill="#899BA3"/>
<path d="M130 0H126V4H130V0Z" fill="#899BA3"/>
<path d="M130 40H126V36H130V40Z" fill="#899BA3"/>
<path d="M134 0H130V4H134V0Z" fill="#899BA3"/>
<path d="M134 40H130V36H134V40Z" fill="#899BA3"/>
<path d="M138 0H134V4H138V0Z" fill="#899BA3"/>
<path d="M138 40H134V36H138V40Z" fill="#899BA3"/>
<path d="M142 4H138V8H142V4Z" fill="#899BA3"/>
<path d="M142 36H138V32H142V36Z" fill="#899BA3"/>
<path d="M146 8H142V12H146V8Z" fill="#899BA3"/>
<path d="M146 12H142V16H146V12Z" fill="#899BA3"/>
<path d="M146 16H142V20H146V16Z" fill="#899BA3"/>
<path d="M146 20H142V24H146V20Z" fill="#899BA3"/>
<path d="M146 24H142V28H146V24Z" fill="#899BA3"/>
<path d="M146 28H142V32H146V28Z" fill="#899BA3"/>
<path d="M14 17.75H15.1786V18.9286H14V17.75ZM14 16.5714H15.1786V17.75H14V16.5714ZM15.1786 16.5714H16.3571V17.75H15.1786V16.5714ZM15.1786 17.75H16.3571V18.9286H15.1786V17.75ZM15.1786 18.9286H16.3571V20.1071H15.1786V18.9286ZM15.1786 20.1071H16.3571V21.2857H15.1786V20.1071ZM15.1786 21.2857H16.3571V22.4643H15.1786V21.2857ZM14 21.2857H15.1786V22.4643H14V21.2857ZM14 20.1071H15.1786V21.2857H14V20.1071ZM14 18.9286H15.1786V20.1071H14V18.9286ZM14 22.4643H15.1786V23.6429H14V22.4643ZM15.1786 22.4643H16.3571V23.6429H15.1786V22.4643ZM15.1786 23.6429H16.3571V24.8214H15.1786V23.6429ZM15.1786 24.8214H16.3571V26H15.1786V24.8214ZM14 24.8214H15.1786V26H14V24.8214ZM14 23.6429H15.1786V24.8214H14V23.6429ZM19.8929 24.8214H21.0714V26H19.8929V24.8214ZM21.0714 23.6429H22.25V24.8214H21.0714V23.6429ZM21.0714 22.4643H22.25V23.6429H21.0714V22.4643ZM21.0714 21.2857H22.25V22.4643H21.0714V21.2857ZM21.0714 20.1071H22.25V21.2857H21.0714V20.1071ZM21.0714 18.9286H22.25V20.1071H21.0714V18.9286ZM21.0714 17.75H22.25V18.9286H21.0714V17.75ZM19.8929 20.1071H21.0714V21.2857H19.8929V20.1071ZM19.8929 21.2857H21.0714V22.4643H19.8929V21.2857ZM19.8929 22.4643H21.0714V23.6429H19.8929V22.4643ZM19.8929 23.6429H21.0714V24.8214H19.8929V23.6429ZM19.8929 18.9286H21.0714V20.1071H19.8929V18.9286ZM16.3571 17.75H17.5357V18.9286H16.3571V17.75ZM17.5357 17.75H18.7143V18.9286H17.5357V17.75ZM18.7143 17.75H19.8929V18.9286H18.7143V17.75ZM18.7143 16.5714H19.8929V17.75H18.7143V16.5714ZM19.8929 16.5714H21.0714V17.75H19.8929V16.5714ZM19.8929 17.75H21.0714V18.9286H19.8929V17.75ZM17.5357 16.5714H18.7143V17.75H17.5357V16.5714ZM14 14.2143H15.1786V15.3929H14V14.2143ZM15.1786 14.2143H16.3571V15.3929H15.1786V14.2143ZM15.1786 15.3929H16.3571V16.5714H15.1786V15.3929ZM14 15.3929H15.1786V16.5714H14V15.3929ZM16.3571 24.8214H17.5357V26H16.3571V24.8214ZM17.5357 24.8214H18.7143V26H17.5357V24.8214ZM18.7143 24.8214H19.8929V26H18.7143V24.8214ZM18.7143 23.6429H19.8929V24.8214H18.7143V23.6429ZM17.5357 23.6429H18.7143V24.8214H17.5357V23.6429ZM16.3571 23.6429H17.5357V24.8214H16.3571V23.6429ZM30.7231 26H29.5445V24.8214H30.7231V26ZM30.7231 24.8214H29.5445V23.6429H30.7231V24.8214ZM29.5445 24.8214H28.3659V23.6429H29.5445V24.8214ZM28.3659 26H27.1874V24.8214H28.3659V26ZM27.1874 26H26.0088V24.8214H27.1874V26ZM26.0088 26H24.8302V24.8214H26.0088V26ZM26.0088 24.8214H24.8302V23.6429H26.0088V24.8214ZM27.1874 24.8214H26.0088V23.6429H27.1874V24.8214ZM24.8302 24.8214H23.6516V23.6429H24.8302V24.8214ZM24.8302 23.6429H23.6516V22.4643H24.8302V23.6429ZM24.8302 18.9286H23.6516V17.75H24.8302V18.9286ZM26.0088 18.9286H24.8302V17.75H26.0088V18.9286ZM26.0088 23.6429H24.8302V22.4643H26.0088V23.6429ZM27.1874 18.9286H26.0088V17.75H27.1874V18.9286ZM26.0088 17.75H24.8302V16.5714H26.0088V17.75ZM27.1874 17.75H26.0088V16.5714H27.1874V17.75ZM28.3659 17.75H27.1874V16.5714H28.3659V17.75ZM29.5445 17.75H28.3659V16.5714H29.5445V17.75ZM30.7231 17.75H29.5445V16.5714H30.7231V17.75ZM30.7231 18.9286H29.5445V17.75H30.7231V18.9286ZM29.5445 18.9286H28.3659V17.75H29.5445V18.9286ZM30.7231 20.1071H29.5445V18.9286H30.7231V20.1071ZM31.9016 18.9286H30.7231V17.75H31.9016V18.9286ZM31.9016 20.1071H30.7231V18.9286H31.9016V20.1071ZM31.9016 21.2857H30.7231V20.1071H31.9016V21.2857ZM31.9016 22.4643H30.7231V21.2857H31.9016V22.4643ZM31.9016 23.6429H30.7231V22.4643H31.9016V23.6429ZM31.9016 24.8214H30.7231V23.6429H31.9016V24.8214ZM30.7231 23.6429H29.5445V22.4643H30.7231V23.6429ZM30.7231 22.4643H29.5445V21.2857H30.7231V22.4643ZM30.7231 21.2857H29.5445V20.1071H30.7231V21.2857ZM28.3659 18.9286H27.1874V17.75H28.3659V18.9286ZM28.3659 24.8214H27.1874V23.6429H28.3659V24.8214ZM30.7231 24.8214H31.9016V26H30.7231V24.8214ZM28.3659 20.1071H29.5445V21.2857H28.3659V20.1071ZM27.1874 20.1071H28.3659V21.2857H27.1874V20.1071ZM26.0088 20.1071H27.1874V21.2857H26.0088V20.1071ZM24.8302 20.1071H26.0088V21.2857H24.8302V20.1071ZM23.6516 21.2857H24.8302V22.4643H23.6516V21.2857ZM24.8302 21.2857H26.0088V22.4643H24.8302V21.2857ZM28.3659 21.2857H29.5445V22.4643H28.3659V21.2857ZM27.1874 21.2857H28.3659V22.4643H27.1874V21.2857ZM26.0088 21.2857H27.1874V22.4643H26.0088V21.2857ZM35.6604 16.5714H36.839V17.75H35.6604V16.5714ZM34.4819 16.5714H35.6604V17.75H34.4819V16.5714ZM34.4819 17.75H35.6604V18.9286H34.4819V17.75ZM35.6604 17.75H36.839V18.9286H35.6604V17.75ZM36.839 16.5714H38.0176V17.75H36.839V16.5714ZM38.0176 16.5714H39.1961V17.75H38.0176V16.5714ZM39.1961 16.5714H40.3747V17.75H39.1961V16.5714ZM39.1961 17.75H40.3747V18.9286H39.1961V17.75ZM38.0176 17.75H39.1961V18.9286H38.0176V17.75ZM40.3747 17.75H41.5533V18.9286H40.3747V17.75ZM40.3747 18.9286H41.5533V20.1071H40.3747V18.9286ZM40.3747 22.4643H41.5533V23.6429H40.3747V22.4643ZM40.3747 23.6429H41.5533V24.8214H40.3747V23.6429ZM39.1961 23.6429H40.3747V24.8214H39.1961V23.6429ZM39.1961 22.4643H40.3747V23.6429H39.1961V22.4643ZM39.1961 18.9286H40.3747V20.1071H39.1961V18.9286ZM38.0176 23.6429H39.1961V24.8214H38.0176V23.6429ZM39.1961 24.8214H40.3747V26H39.1961V24.8214ZM38.0176 24.8214H39.1961V26H38.0176V24.8214ZM36.839 24.8214H38.0176V26H36.839V24.8214ZM35.6604 24.8214H36.839V26H35.6604V24.8214ZM34.4819 24.8214H35.6604V26H34.4819V24.8214ZM34.4819 23.6429H35.6604V24.8214H34.4819V23.6429ZM35.6604 23.6429H36.839V24.8214H35.6604V23.6429ZM34.4819 22.4643H35.6604V23.6429H34.4819V22.4643ZM33.3033 23.6429H34.4819V24.8214H33.3033V23.6429ZM33.3033 22.4643H34.4819V23.6429H33.3033V22.4643ZM33.3033 21.2857H34.4819V22.4643H33.3033V21.2857ZM33.3033 20.1071H34.4819V21.2857H33.3033V20.1071ZM33.3033 18.9286H34.4819V20.1071H33.3033V18.9286ZM33.3033 17.75H34.4819V18.9286H33.3033V17.75ZM34.4819 18.9286H35.6604V20.1071H34.4819V18.9286ZM34.4819 20.1071H35.6604V21.2857H34.4819V20.1071ZM34.4819 21.2857H35.6604V22.4643H34.4819V21.2857ZM36.839 23.6429H38.0176V24.8214H36.839V23.6429ZM36.839 17.75H38.0176V18.9286H36.839V17.75ZM42.9549 14.2143H44.1335V15.3929H42.9549V14.2143ZM44.1335 14.2143H45.3121V15.3929H44.1335V14.2143ZM44.1335 15.3929H45.3121V16.5714H44.1335V15.3929ZM44.1335 16.5714H45.3121V17.75H44.1335V16.5714ZM44.1335 17.75H45.3121V18.9286H44.1335V17.75ZM42.9549 17.75H44.1335V18.9286H42.9549V17.75ZM42.9549 16.5714H44.1335V17.75H42.9549V16.5714ZM42.9549 15.3929H44.1335V16.5714H42.9549V15.3929ZM42.9549 18.9286H44.1335V20.1071H42.9549V18.9286ZM42.9549 20.1071H44.1335V21.2857H42.9549V20.1071ZM42.9549 21.2857H44.1335V22.4643H42.9549V21.2857ZM42.9549 22.4643H44.1335V23.6429H42.9549V22.4643ZM42.9549 23.6429H44.1335V24.8214H42.9549V23.6429ZM42.9549 24.8214H44.1335V26H42.9549V24.8214ZM44.1335 24.8214H45.3121V26H44.1335V24.8214ZM44.1335 23.6429H45.3121V24.8214H44.1335V23.6429ZM44.1335 22.4643H45.3121V23.6429H44.1335V22.4643ZM44.1335 21.2857H45.3121V22.4643H44.1335V21.2857ZM44.1335 20.1071H45.3121V21.2857H44.1335V20.1071ZM44.1335 18.9286H45.3121V20.1071H44.1335V18.9286ZM45.3121 20.1071H46.4906V21.2857H45.3121V20.1071ZM46.4906 20.1071H47.6692V21.2857H46.4906V20.1071ZM46.4906 18.9286H47.6692V20.1071H46.4906V18.9286ZM47.6692 18.9286H48.8478V20.1071H47.6692V18.9286ZM47.6692 17.75H48.8478V18.9286H47.6692V17.75ZM47.6692 16.5714H48.8478V17.75H47.6692V16.5714ZM48.8478 16.5714H50.0264V17.75H48.8478V16.5714ZM48.8478 17.75H50.0264V18.9286H48.8478V17.75ZM46.4906 21.2857H47.6692V22.4643H46.4906V21.2857ZM47.6692 21.2857H48.8478V22.4643H47.6692V21.2857ZM48.8478 22.4643H50.0264V23.6429H48.8478V22.4643ZM47.6692 22.4643H48.8478V23.6429H47.6692V22.4643ZM47.6692 23.6429H48.8478V24.8214H47.6692V23.6429ZM48.8478 23.6429H50.0264V24.8214H48.8478V23.6429ZM48.8478 24.8214H50.0264V26H48.8478V24.8214ZM47.6692 24.8214H48.8478V26H47.6692V24.8214ZM53.7821 16.5714H54.9606V17.75H53.7821V16.5714ZM52.6035 16.5714H53.7821V17.75H52.6035V16.5714ZM52.6035 17.75H53.7821V18.9286H52.6035V17.75ZM53.7821 17.75H54.9606V18.9286H53.7821V17.75ZM54.9606 16.5714H56.1392V17.75H54.9606V16.5714ZM56.1392 16.5714H57.3178V17.75H56.1392V16.5714ZM57.3178 16.5714H58.4964V17.75H57.3178V16.5714ZM57.3178 17.75H58.4964V18.9286H57.3178V17.75ZM56.1392 17.75H57.3178V18.9286H56.1392V17.75ZM58.4964 17.75H59.6749V18.9286H58.4964V17.75ZM58.4964 18.9286H59.6749V20.1071H58.4964V18.9286ZM58.4964 23.6429H59.6749V24.8214H58.4964V23.6429ZM57.3178 23.6429H58.4964V24.8214H57.3178V23.6429ZM57.3178 18.9286H58.4964V20.1071H57.3178V18.9286ZM56.1392 23.6429H57.3178V24.8214H56.1392V23.6429ZM57.3178 24.8214H58.4964V26H57.3178V24.8214ZM56.1392 24.8214H57.3178V26H56.1392V24.8214ZM54.9606 24.8214H56.1392V26H54.9606V24.8214ZM53.7821 24.8214H54.9606V26H53.7821V24.8214ZM52.6035 24.8214H53.7821V26H52.6035V24.8214ZM52.6035 23.6429H53.7821V24.8214H52.6035V23.6429ZM53.7821 23.6429H54.9606V24.8214H53.7821V23.6429ZM52.6035 22.4643H53.7821V23.6429H52.6035V22.4643ZM51.4249 23.6429H52.6035V24.8214H51.4249V23.6429ZM51.4249 22.4643H52.6035V23.6429H51.4249V22.4643ZM51.4249 21.2857H52.6035V22.4643H51.4249V21.2857ZM51.4249 20.1071H52.6035V21.2857H51.4249V20.1071ZM51.4249 18.9286H52.6035V20.1071H51.4249V18.9286ZM51.4249 17.75H52.6035V18.9286H51.4249V17.75ZM52.6035 18.9286H53.7821V20.1071H52.6035V18.9286ZM52.6035 20.1071H53.7821V21.2857H52.6035V20.1071ZM52.6035 21.2857H53.7821V22.4643H52.6035V21.2857ZM54.9606 23.6429H56.1392V24.8214H54.9606V23.6429ZM54.9606 17.75H56.1392V18.9286H54.9606V17.75ZM57.3178 20.1071H58.4964V21.2857H57.3178V20.1071ZM58.4964 20.1071H59.6749V21.2857H58.4964V20.1071ZM53.7821 21.2857H54.9606V22.4643H53.7821V21.2857ZM54.9606 21.2857H56.1392V22.4643H54.9606V21.2857ZM56.1392 21.2857H57.3178V22.4643H56.1392V21.2857ZM57.3178 21.2857H58.4964V22.4643H57.3178V21.2857ZM58.4964 21.2857H59.6749V22.4643H58.4964V21.2857ZM56.1392 20.1071H57.3178V21.2857H56.1392V20.1071ZM54.9606 20.1071H56.1392V21.2857H54.9606V20.1071ZM53.7821 20.1071H54.9606V21.2857H53.7821V20.1071ZM61.0766 17.75H62.2551V18.9286H61.0766V17.75ZM61.0766 16.5714H62.2551V17.75H61.0766V16.5714ZM62.2551 16.5714H63.4337V17.75H62.2551V16.5714ZM62.2551 17.75H63.4337V18.9286H62.2551V17.75ZM62.2551 18.9286H63.4337V20.1071H62.2551V18.9286ZM62.2551 20.1071H63.4337V21.2857H62.2551V20.1071ZM62.2551 21.2857H63.4337V22.4643H62.2551V21.2857ZM61.0766 21.2857H62.2551V22.4643H61.0766V21.2857ZM61.0766 20.1071H62.2551V21.2857H61.0766V20.1071ZM61.0766 18.9286H62.2551V20.1071H61.0766V18.9286ZM61.0766 22.4643H62.2551V23.6429H61.0766V22.4643ZM62.2551 22.4643H63.4337V23.6429H62.2551V22.4643ZM62.2551 23.6429H63.4337V24.8214H62.2551V23.6429ZM62.2551 24.8214H63.4337V26H62.2551V24.8214ZM61.0766 24.8214H62.2551V26H61.0766V24.8214ZM61.0766 23.6429H62.2551V24.8214H61.0766V23.6429ZM66.9694 24.8214H68.148V26H66.9694V24.8214ZM68.148 24.8214H69.3266V26H68.148V24.8214ZM68.148 23.6429H69.3266V24.8214H68.148V23.6429ZM68.148 22.4643H69.3266V23.6429H68.148V22.4643ZM68.148 21.2857H69.3266V22.4643H68.148V21.2857ZM68.148 20.1071H69.3266V21.2857H68.148V20.1071ZM68.148 18.9286H69.3266V20.1071H68.148V18.9286ZM68.148 17.75H69.3266V18.9286H68.148V17.75ZM66.9694 20.1071H68.148V21.2857H66.9694V20.1071ZM66.9694 21.2857H68.148V22.4643H66.9694V21.2857ZM66.9694 22.4643H68.148V23.6429H66.9694V22.4643ZM66.9694 23.6429H68.148V24.8214H66.9694V23.6429ZM66.9694 18.9286H68.148V20.1071H66.9694V18.9286ZM63.4337 17.75H64.6123V18.9286H63.4337V17.75ZM64.6123 17.75H65.7908V18.9286H64.6123V17.75ZM65.7908 17.75H66.9694V18.9286H65.7908V17.75ZM65.7908 16.5714H66.9694V17.75H65.7908V16.5714ZM66.9694 16.5714H68.148V17.75H66.9694V16.5714ZM66.9694 17.75H68.148V18.9286H66.9694V17.75ZM64.6123 16.5714H65.7908V17.75H64.6123V16.5714ZM78.9782 17.75V18.9286H77.7996V17.75H78.9782ZM78.9782 16.5714V17.75H77.7996V16.5714H78.9782ZM77.7996 16.5714V17.75H76.6211V16.5714H77.7996ZM77.7996 17.75V18.9286H76.6211V17.75H77.7996ZM77.7996 18.9286V20.1071H76.6211V18.9286H77.7996ZM77.7996 20.1071V21.2857H76.6211V20.1071H77.7996ZM77.7996 21.2857V22.4643H76.6211V21.2857H77.7996ZM78.9782 21.2857V22.4643H77.7996V21.2857H78.9782ZM78.9782 20.1071V21.2857H77.7996V20.1071H78.9782ZM78.9782 18.9286V20.1071H77.7996V18.9286H78.9782ZM78.9782 22.4643V23.6429H77.7996V22.4643H78.9782ZM77.7996 22.4643V23.6429H76.6211V22.4643H77.7996ZM77.7996 23.6429V24.8214H76.6211V23.6429H77.7996ZM77.7996 24.8214V26H76.6211V24.8214H77.7996ZM78.9782 24.8214V26H77.7996V24.8214H78.9782ZM78.9782 23.6429V24.8214H77.7996V23.6429H78.9782ZM73.0853 24.8214V26H71.9068V24.8214H73.0853ZM71.9068 23.6429V24.8214H70.7282V23.6429H71.9068ZM71.9068 22.4643V23.6429H70.7282V22.4643H71.9068ZM71.9068 21.2857V22.4643H70.7282V21.2857H71.9068ZM71.9068 20.1071V21.2857H70.7282V20.1071H71.9068ZM71.9068 18.9286V20.1071H70.7282V18.9286H71.9068ZM71.9068 17.75V18.9286H70.7282V17.75H71.9068ZM73.0853 20.1071V21.2857H71.9068V20.1071H73.0853ZM73.0853 21.2857V22.4643H71.9068V21.2857H73.0853ZM73.0853 22.4643V23.6429H71.9068V22.4643H73.0853ZM73.0853 23.6429V24.8214H71.9068V23.6429H73.0853ZM73.0853 18.9286V20.1071H71.9068V18.9286H73.0853ZM74.2639 17.75V18.9286H73.0853V17.75H74.2639ZM74.2639 16.5714V17.75H73.0853V16.5714H74.2639ZM73.0853 16.5714V17.75H71.9068V16.5714H73.0853ZM73.0853 17.75V18.9286H71.9068V17.75H73.0853ZM75.4425 16.5714V17.75H74.2639V16.5714H75.4425ZM78.9782 14.2143V15.3929H77.7996V14.2143H78.9782ZM77.7996 14.2143V15.3929H76.6211V14.2143H77.7996ZM77.7996 15.3929V16.5714H76.6211V15.3929H77.7996ZM78.9782 15.3929V16.5714H77.7996V15.3929H78.9782ZM75.4425 24.8214V26H74.2639V24.8214H75.4425ZM74.2639 24.8214V26H73.0853V24.8214H74.2639ZM74.2639 23.6429V24.8214H73.0853V23.6429H74.2639ZM75.4425 23.6429V24.8214H74.2639V23.6429H75.4425ZM76.6211 23.6429V24.8214H75.4425V23.6429H76.6211ZM76.6211 16.5714V17.75H75.4425V16.5714H76.6211ZM76.6211 17.75V18.9286H75.4425V17.75H76.6211ZM75.4425 17.75V18.9286H74.2639V17.75H75.4425ZM85.0941 14.2143H86.2727V15.3929H85.0941V14.2143ZM85.0941 15.3929H86.2727V16.5714H85.0941V15.3929ZM83.9156 15.3929H85.0941V16.5714H83.9156V15.3929ZM83.9156 14.2143H85.0941V15.3929H83.9156V14.2143ZM85.0941 16.5714H86.2727V17.75H85.0941V16.5714ZM83.9156 16.5714H85.0941V17.75H83.9156V16.5714ZM83.9156 17.75H85.0941V18.9286H83.9156V17.75ZM83.9156 18.9286H85.0941V20.1071H83.9156V18.9286ZM83.9156 20.1071H85.0941V21.2857H83.9156V20.1071ZM82.737 20.1071H83.9156V21.2857H82.737V20.1071ZM82.737 18.9286H83.9156V20.1071H82.737V18.9286ZM82.737 17.75H83.9156V18.9286H82.737V17.75ZM82.737 21.2857H83.9156V22.4643H82.737V21.2857ZM82.737 22.4643H83.9156V23.6429H82.737V22.4643ZM82.737 23.6429H83.9156V24.8214H82.737V23.6429ZM81.5584 23.6429H82.737V24.8214H81.5584V23.6429ZM81.5584 22.4643H82.737V23.6429H81.5584V22.4643ZM81.5584 21.2857H82.737V22.4643H81.5584V21.2857ZM81.5584 24.8214H82.737V26H81.5584V24.8214ZM81.5584 26H82.737V27.1786H81.5584V26ZM81.5584 27.1786H82.737V28.3571H81.5584V27.1786ZM80.3798 27.1786H81.5584V28.3571H80.3798V27.1786ZM80.3798 26H81.5584V27.1786H80.3798V26ZM80.3798 24.8214H81.5584V26H80.3798V24.8214ZM87.6682 17.75H88.8468V18.9286H87.6682V17.75ZM87.6682 16.5714H88.8468V17.75H87.6682V16.5714ZM88.8468 16.5714H90.0253V17.75H88.8468V16.5714ZM88.8468 17.75H90.0253V18.9286H88.8468V17.75ZM88.8468 18.9286H90.0253V20.1071H88.8468V18.9286ZM88.8468 20.1071H90.0253V21.2857H88.8468V20.1071ZM88.8468 21.2857H90.0253V22.4643H88.8468V21.2857ZM87.6682 21.2857H88.8468V22.4643H87.6682V21.2857ZM87.6682 20.1071H88.8468V21.2857H87.6682V20.1071ZM87.6682 18.9286H88.8468V20.1071H87.6682V18.9286ZM87.6682 22.4643H88.8468V23.6429H87.6682V22.4643ZM88.8468 22.4643H90.0253V23.6429H88.8468V22.4643ZM88.8468 23.6429H90.0253V24.8214H88.8468V23.6429ZM88.8468 24.8214H90.0253V26H88.8468V24.8214ZM87.6682 24.8214H88.8468V26H87.6682V24.8214ZM87.6682 23.6429H88.8468V24.8214H87.6682V23.6429ZM93.5611 24.8214H94.7396V26H93.5611V24.8214ZM94.7396 23.6429H95.9182V24.8214H94.7396V23.6429ZM94.7396 22.4643H95.9182V23.6429H94.7396V22.4643ZM94.7396 21.2857H95.9182V22.4643H94.7396V21.2857ZM94.7396 20.1071H95.9182V21.2857H94.7396V20.1071ZM94.7396 18.9286H95.9182V20.1071H94.7396V18.9286ZM94.7396 17.75H95.9182V18.9286H94.7396V17.75ZM93.5611 20.1071H94.7396V21.2857H93.5611V20.1071ZM93.5611 21.2857H94.7396V22.4643H93.5611V21.2857ZM93.5611 22.4643H94.7396V23.6429H93.5611V22.4643ZM93.5611 23.6429H94.7396V24.8214H93.5611V23.6429ZM93.5611 18.9286H94.7396V20.1071H93.5611V18.9286ZM90.0253 17.75H91.2039V18.9286H90.0253V17.75ZM91.2039 17.75H92.3825V18.9286H91.2039V17.75ZM92.3825 17.75H93.5611V18.9286H92.3825V17.75ZM92.3825 16.5714H93.5611V17.75H92.3825V16.5714ZM93.5611 16.5714H94.7396V17.75H93.5611V16.5714ZM93.5611 17.75H94.7396V18.9286H93.5611V17.75ZM91.2039 16.5714H92.3825V17.75H91.2039V16.5714ZM90.0253 24.8214H91.2039V26H90.0253V24.8214ZM91.2039 24.8214H92.3825V26H91.2039V24.8214ZM92.3825 24.8214H93.5611V26H92.3825V24.8214ZM92.3825 23.6429H93.5611V24.8214H92.3825V23.6429ZM91.2039 23.6429H92.3825V24.8214H91.2039V23.6429ZM90.0253 23.6429H91.2039V24.8214H90.0253V23.6429ZM87.6682 26H88.8468V27.1786H87.6682V26ZM88.8468 26H90.0253V27.1786H88.8468V26ZM88.8468 27.1786H90.0253V28.3571H88.8468V27.1786ZM87.6682 27.1786H88.8468V28.3571H87.6682V27.1786ZM97.3198 17.75H98.4984V18.9286H97.3198V17.75ZM97.3198 16.5714H98.4984V17.75H97.3198V16.5714ZM98.4984 16.5714H99.677V17.75H98.4984V16.5714ZM98.4984 17.75H99.677V18.9286H98.4984V17.75ZM98.4984 18.9286H99.677V20.1071H98.4984V18.9286ZM98.4984 20.1071H99.677V21.2857H98.4984V20.1071ZM98.4984 21.2857H99.677V22.4643H98.4984V21.2857ZM97.3198 21.2857H98.4984V22.4643H97.3198V21.2857ZM97.3198 20.1071H98.4984V21.2857H97.3198V20.1071ZM97.3198 18.9286H98.4984V20.1071H97.3198V18.9286ZM97.3198 22.4643H98.4984V23.6429H97.3198V22.4643ZM98.4984 22.4643H99.677V23.6429H98.4984V22.4643ZM98.4984 23.6429H99.677V24.8214H98.4984V23.6429ZM98.4984 24.8214H99.677V26H98.4984V24.8214ZM97.3198 24.8214H98.4984V26H97.3198V24.8214ZM97.3198 23.6429H98.4984V24.8214H97.3198V23.6429ZM99.677 17.75H100.856V18.9286H99.677V17.75ZM100.856 17.75H102.034V18.9286H100.856V17.75ZM102.034 17.75H103.213V18.9286H102.034V17.75ZM102.034 16.5714H103.213V17.75H102.034V16.5714ZM100.856 16.5714H102.034V17.75H100.856V16.5714ZM99.677 18.9286H100.856V20.1071H99.677V18.9286ZM103.213 17.75H104.391V18.9286H103.213V17.75ZM102.034 18.9286H103.213V20.1071H102.034V18.9286ZM108.147 16.5714H109.326V17.75H108.147V16.5714ZM106.968 16.5714H108.147V17.75H106.968V16.5714ZM106.968 17.75H108.147V18.9286H106.968V17.75ZM108.147 17.75H109.326V18.9286H108.147V17.75ZM109.326 16.5714H110.504V17.75H109.326V16.5714ZM110.504 16.5714H111.683V17.75H110.504V16.5714ZM111.683 16.5714H112.861V17.75H111.683V16.5714ZM111.683 17.75H112.861V18.9286H111.683V17.75ZM110.504 17.75H111.683V18.9286H110.504V17.75ZM111.683 20.1071H112.861V21.2857H111.683V20.1071ZM112.861 17.75H114.04V18.9286H112.861V17.75ZM112.861 18.9286H114.04V20.1071H112.861V18.9286ZM112.861 20.1071H114.04V21.2857H112.861V20.1071ZM112.861 21.2857H114.04V22.4643H112.861V21.2857ZM112.861 22.4643H114.04V23.6429H112.861V22.4643ZM112.861 23.6429H114.04V24.8214H112.861V23.6429ZM111.683 23.6429H112.861V24.8214H111.683V23.6429ZM111.683 22.4643H112.861V23.6429H111.683V22.4643ZM111.683 21.2857H112.861V22.4643H111.683V21.2857ZM111.683 18.9286H112.861V20.1071H111.683V18.9286ZM110.504 23.6429H111.683V24.8214H110.504V23.6429ZM111.683 24.8214H112.861V26H111.683V24.8214ZM110.504 24.8214H111.683V26H110.504V24.8214ZM109.326 24.8214H110.504V26H109.326V24.8214ZM108.147 24.8214H109.326V26H108.147V24.8214ZM106.968 24.8214H108.147V26H106.968V24.8214ZM106.968 23.6429H108.147V24.8214H106.968V23.6429ZM108.147 23.6429H109.326V24.8214H108.147V23.6429ZM106.968 22.4643H108.147V23.6429H106.968V22.4643ZM105.79 23.6429H106.968V24.8214H105.79V23.6429ZM105.79 22.4643H106.968V23.6429H105.79V22.4643ZM105.79 21.2857H106.968V22.4643H105.79V21.2857ZM105.79 20.1071H106.968V21.2857H105.79V20.1071ZM105.79 18.9286H106.968V20.1071H105.79V18.9286ZM105.79 17.75H106.968V18.9286H105.79V17.75ZM106.968 18.9286H108.147V20.1071H106.968V18.9286ZM106.968 20.1071H108.147V21.2857H106.968V20.1071ZM106.968 21.2857H108.147V22.4643H106.968V21.2857ZM109.326 23.6429H110.504V24.8214H109.326V23.6429ZM109.326 17.75H110.504V18.9286H109.326V17.75ZM115.441 16.5714H116.62V17.75H115.441V16.5714ZM116.62 16.5714H117.799V17.75H116.62V16.5714ZM116.62 17.75H117.799V18.9286H116.62V17.75ZM116.62 18.9286H117.799V20.1071H116.62V18.9286ZM116.62 20.1071H117.799V21.2857H116.62V20.1071ZM116.62 21.2857H117.799V22.4643H116.62V21.2857ZM115.441 21.2857H116.62V22.4643H115.441V21.2857ZM115.441 20.1071H116.62V21.2857H115.441V20.1071ZM115.441 18.9286H116.62V20.1071H115.441V18.9286ZM115.441 17.75H116.62V18.9286H115.441V17.75ZM116.62 22.4643H117.799V23.6429H116.62V22.4643ZM117.799 22.4643H118.977V23.6429H117.799V22.4643ZM117.799 23.6429H118.977V24.8214H117.799V23.6429ZM118.977 23.6429H120.156V24.8214H118.977V23.6429ZM118.977 24.8214H120.156V26H118.977V24.8214ZM120.156 23.6429H121.334V24.8214H120.156V23.6429ZM120.156 22.4643H121.334V23.6429H120.156V22.4643ZM121.334 22.4643H122.513V23.6429H121.334V22.4643ZM121.334 21.2857H122.513V22.4643H121.334V21.2857ZM121.334 20.1071H122.513V21.2857H121.334V20.1071ZM121.334 18.9286H122.513V20.1071H121.334V18.9286ZM121.334 17.75H122.513V18.9286H121.334V17.75ZM121.334 16.5714H122.513V17.75H121.334V16.5714ZM122.513 20.1071H123.691V21.2857H122.513V20.1071ZM122.513 21.2857H123.691V22.4643H122.513V21.2857ZM122.513 18.9286H123.691V20.1071H122.513V18.9286ZM122.513 17.75H123.691V18.9286H122.513V17.75ZM122.513 16.5714H123.691V17.75H122.513V16.5714ZM118.977 22.4643H120.156V23.6429H118.977V22.4643ZM117.799 21.2857H118.977V22.4643H117.799V21.2857ZM120.156 21.2857H121.334V22.4643H120.156V21.2857ZM127.45 16.5714H128.629V17.75H127.45V16.5714ZM126.272 16.5714H127.45V17.75H126.272V16.5714ZM126.272 17.75H127.45V18.9286H126.272V17.75ZM127.45 17.75H128.629V18.9286H127.45V17.75ZM128.629 16.5714H129.807V17.75H128.629V16.5714ZM129.807 16.5714H130.986V17.75H129.807V16.5714ZM130.986 16.5714H132.165V17.75H130.986V16.5714ZM130.986 17.75H132.165V18.9286H130.986V17.75ZM129.807 17.75H130.986V18.9286H129.807V17.75ZM132.165 17.75H133.343V18.9286H132.165V17.75ZM132.165 18.9286H133.343V20.1071H132.165V18.9286ZM132.165 23.6429H133.343V24.8214H132.165V23.6429ZM130.986 23.6429H132.165V24.8214H130.986V23.6429ZM130.986 18.9286H132.165V20.1071H130.986V18.9286ZM129.807 23.6429H130.986V24.8214H129.807V23.6429ZM130.986 24.8214H132.165V26H130.986V24.8214ZM129.807 24.8214H130.986V26H129.807V24.8214ZM128.629 24.8214H129.807V26H128.629V24.8214ZM127.45 24.8214H128.629V26H127.45V24.8214ZM126.272 24.8214H127.45V26H126.272V24.8214ZM126.272 23.6429H127.45V24.8214H126.272V23.6429ZM127.45 23.6429H128.629V24.8214H127.45V23.6429ZM126.272 22.4643H127.45V23.6429H126.272V22.4643ZM125.093 23.6429H126.272V24.8214H125.093V23.6429ZM125.093 22.4643H126.272V23.6429H125.093V22.4643ZM125.093 21.2857H126.272V22.4643H125.093V21.2857ZM125.093 20.1071H126.272V21.2857H125.093V20.1071ZM125.093 18.9286H126.272V20.1071H125.093V18.9286ZM125.093 17.75H126.272V18.9286H125.093V17.75ZM126.272 18.9286H127.45V20.1071H126.272V18.9286ZM126.272 20.1071H127.45V21.2857H126.272V20.1071ZM126.272 21.2857H127.45V22.4643H126.272V21.2857ZM128.629 23.6429H129.807V24.8214H128.629V23.6429ZM128.629 17.75H129.807V18.9286H128.629V17.75ZM130.986 20.1071H132.165V21.2857H130.986V20.1071ZM132.165 20.1071H133.343V21.2857H132.165V20.1071ZM127.45 21.2857H128.629V22.4643H127.45V21.2857ZM128.629 21.2857H129.807V22.4643H128.629V21.2857ZM129.807 21.2857H130.986V22.4643H129.807V21.2857ZM130.986 21.2857H132.165V22.4643H130.986V21.2857ZM132.165 21.2857H133.343V22.4643H132.165V21.2857ZM129.807 20.1071H130.986V21.2857H129.807V20.1071ZM128.629 20.1071H129.807V21.2857H128.629V20.1071ZM127.45 20.1071H128.629V21.2857H127.45V20.1071Z" fill="#0CC751"/>
</svg>
