<svg width="169" height="51" viewBox="0 0 169 51" fill="none" xmlns="http://www.w3.org/2000/svg">
<g filter="url(#filter0_d_724_244429)">
<path d="M52 8.61538V4H8.00001L4 8.30769V31.6923L8.00001 36L12 40L16 44H20L24 40L26.2612 36.3077H52V31.6923V8.61538Z" fill="white"/>
<path d="M48 0H103V4H48V0Z" fill="#E2677A"/>
<path d="M48 4H103V8H48V4Z" fill="white"/>
<path d="M48 8H103V12H48V8Z" fill="white"/>
<path d="M48 12H103V16H48V12Z" fill="white"/>
<path d="M48 16H103V20H48V16Z" fill="white"/>
<path d="M48 24H103V28H48V24Z" fill="white"/>
<path d="M48 20H103V24H48V20Z" fill="white"/>
<path d="M48 28H103V32H48V28Z" fill="white"/>
<path d="M48 32H103V36H48V32Z" fill="white"/>
<path d="M48 40H103V36H48V40Z" fill="#E2677A"/>
<path d="M44 0H48V4H44V0Z" fill="#E2677A"/>
<path d="M44 40H48V36H44V40Z" fill="#E2677A"/>
<path d="M40 0H44V4H40V0Z" fill="#E2677A"/>
<path d="M40 40H44V36H40V40Z" fill="#E2677A"/>
<path d="M36 0H40V4H36V0Z" fill="#E2677A"/>
<path d="M36 40H40V36H36V40Z" fill="#E2677A"/>
<path d="M32 0H36V4H32V0Z" fill="#E2677A"/>
<path d="M32 40H36V36H32V40Z" fill="#E2677A"/>
<path d="M28 0H32V4H28V0Z" fill="#E2677A"/>
<path d="M28 40H32V36H28V40Z" fill="#E2677A"/>
<path d="M24 0H28V4H24V0Z" fill="#E2677A"/>
<path d="M24 40H28V36H24V40Z" fill="#E2677A"/>
<path d="M20 0H24V4H20V0Z" fill="#E2677A"/>
<path d="M20 44H24V40H20V44Z" fill="#E2677A"/>
<path d="M16 0H20V4H16V0Z" fill="#E2677A"/>
<path d="M16 48H20V44H16V48Z" fill="#E2677A"/>
<path d="M12 0H16V4H12V0Z" fill="#E2677A"/>
<path d="M12 44H16V40H12V44Z" fill="#E2677A"/>
<path d="M8 0H12V4H8V0Z" fill="#E2677A"/>
<path d="M8 40H12V36H8V40Z" fill="#E2677A"/>
<path d="M4 4H8V8H4V4Z" fill="#E2677A"/>
<path d="M4 36H8V32H4V36Z" fill="#E2677A"/>
<path d="M0 8H4V12H0V8Z" fill="#E2677A"/>
<path d="M0 12H4V16H0V12Z" fill="#E2677A"/>
<path d="M0 16H4V20H0V16Z" fill="#E2677A"/>
<path d="M0 20H4V24H0V20Z" fill="#E2677A"/>
<path d="M0 20H4V24H0V20Z" fill="#E2677A"/>
<path d="M0 24H4V28H0V24Z" fill="#E2677A"/>
<path d="M0 28H4V32H0V28Z" fill="#E2677A"/>
<path d="M117 8.625V4L165 4V8.31667V32.375L161 36H151.906H147.292H142.739H117V31.375V8.625Z" fill="white"/>
<path d="M121 4H84V8H121V4Z" fill="white"/>
<path d="M121 8H84V12H121V8Z" fill="white"/>
<path d="M121 12H84V16H121V12Z" fill="white"/>
<path d="M121 16H84V20H121V16Z" fill="white"/>
<path d="M121 24H84V28H121V24Z" fill="white"/>
<path d="M121 20H84V24H121V20Z" fill="white"/>
<path d="M121 28H84V32H121V28Z" fill="white"/>
<path d="M121 32H84V36H121V32Z" fill="white"/>
<path d="M121 0H84V4H121V0Z" fill="#E2677A"/>
<path d="M121 40H84V36H121V40Z" fill="#E2677A"/>
<path d="M125 0H121V4H125V0Z" fill="#E2677A"/>
<path d="M125 40H121V36H125V40Z" fill="#E2677A"/>
<path d="M129 0H125V4H129V0Z" fill="#E2677A"/>
<path d="M129 40H125V36H129V40Z" fill="#E2677A"/>
<path d="M133 0H129V4H133V0Z" fill="#E2677A"/>
<path d="M133 40H129V36H133V40Z" fill="#E2677A"/>
<path d="M137 0H133V4H137V0Z" fill="#E2677A"/>
<path d="M137 40H133V36H137V40Z" fill="#E2677A"/>
<path d="M141 0H137V4H141V0Z" fill="#E2677A"/>
<path d="M141 40H137V36H141V40Z" fill="#E2677A"/>
<path d="M145 0H141V4H145V0Z" fill="#E2677A"/>
<path d="M145 40H141V36H145V40Z" fill="#E2677A"/>
<path d="M149 0H145V4H149V0Z" fill="#E2677A"/>
<path d="M149 40H145V36H149V40Z" fill="#E2677A"/>
<path d="M153 0H149V4H153V0Z" fill="#E2677A"/>
<path d="M153 40H149V36H153V40Z" fill="#E2677A"/>
<path d="M157 0H153V4H157V0Z" fill="#E2677A"/>
<path d="M157 40H153V36H157V40Z" fill="#E2677A"/>
<path d="M161 0H157V4H161V0Z" fill="#E2677A"/>
<path d="M161 40H157V36H161V40Z" fill="#E2677A"/>
<path d="M165 4H161V8H165V4Z" fill="#E2677A"/>
<path d="M165 36H161V32H165V36Z" fill="#E2677A"/>
<path d="M169 8H165V12H169V8Z" fill="#E2677A"/>
<path d="M169 12H165V16H169V12Z" fill="#E2677A"/>
<path d="M169 16H165V20H169V16Z" fill="#E2677A"/>
<path d="M169 20H165V24H169V20Z" fill="#E2677A"/>
<path d="M169 24H165V28H169V24Z" fill="#E2677A"/>
<path d="M169 28H165V32H169V28Z" fill="#E2677A"/>
<path d="M14 14.2143H15.1786V15.3929H14V14.2143ZM15.1786 14.2143H16.3571V15.3929H15.1786V14.2143ZM15.1786 15.3929H16.3571V16.5714H15.1786V15.3929ZM15.1786 16.5714H16.3571V17.75H15.1786V16.5714ZM15.1786 17.75H16.3571V18.9286H15.1786V17.75ZM15.1786 18.9286H16.3571V20.1071H15.1786V18.9286ZM15.1786 20.1071H16.3571V21.2857H15.1786V20.1071ZM14 20.1071H15.1786V21.2857H14V20.1071ZM14 21.2857H15.1786V22.4643H14V21.2857ZM14 22.4643H15.1786V23.6429H14V22.4643ZM14 23.6429H15.1786V24.8214H14V23.6429ZM14 24.8214H15.1786V26H14V24.8214ZM15.1786 24.8214H16.3571V26H15.1786V24.8214ZM15.1786 23.6429H16.3571V24.8214H15.1786V23.6429ZM15.1786 22.4643H16.3571V23.6429H15.1786V22.4643ZM15.1786 21.2857H16.3571V22.4643H15.1786V21.2857ZM14 18.9286H15.1786V20.1071H14V18.9286ZM14 17.75H15.1786V18.9286H14V17.75ZM14 16.5714H15.1786V17.75H14V16.5714ZM14 15.3929H15.1786V16.5714H14V15.3929ZM17.7649 14.2143H20.1221V16.5714H17.7649V14.2143ZM17.7649 17.75H20.1221V26H17.7649V17.75ZM21.5298 17.75H22.7084V18.9286H21.5298V17.75ZM21.5298 16.5714H22.7084V17.75H21.5298V16.5714ZM22.7084 16.5714H23.887V17.75H22.7084V16.5714ZM22.7084 17.75H23.887V18.9286H22.7084V17.75ZM22.7084 18.9286H23.887V20.1071H22.7084V18.9286ZM22.7084 20.1071H23.887V21.2857H22.7084V20.1071ZM22.7084 21.2857H23.887V22.4643H22.7084V21.2857ZM21.5298 21.2857H22.7084V22.4643H21.5298V21.2857ZM21.5298 20.1071H22.7084V21.2857H21.5298V20.1071ZM21.5298 18.9286H22.7084V20.1071H21.5298V18.9286ZM21.5298 22.4643H22.7084V23.6429H21.5298V22.4643ZM22.7084 22.4643H23.887V23.6429H22.7084V22.4643ZM22.7084 23.6429H23.887V24.8214H22.7084V23.6429ZM22.7084 24.8214H23.887V26H22.7084V24.8214ZM21.5298 24.8214H22.7084V26H21.5298V24.8214ZM21.5298 23.6429H22.7084V24.8214H21.5298V23.6429ZM27.4227 24.8214H28.6013V26H27.4227V24.8214ZM28.6013 23.6429H29.7798V24.8214H28.6013V23.6429ZM28.6013 22.4643H29.7798V23.6429H28.6013V22.4643ZM28.6013 21.2857H29.7798V22.4643H28.6013V21.2857ZM28.6013 20.1071H29.7798V21.2857H28.6013V20.1071ZM28.6013 18.9286H29.7798V20.1071H28.6013V18.9286ZM28.6013 17.75H29.7798V18.9286H28.6013V17.75ZM27.4227 20.1071H28.6013V21.2857H27.4227V20.1071ZM27.4227 21.2857H28.6013V22.4643H27.4227V21.2857ZM27.4227 22.4643H28.6013V23.6429H27.4227V22.4643ZM27.4227 23.6429H28.6013V24.8214H27.4227V23.6429ZM27.4227 18.9286H28.6013V20.1071H27.4227V18.9286ZM23.887 17.75H25.0656V18.9286H23.887V17.75ZM25.0656 17.75H26.2441V18.9286H25.0656V17.75ZM26.2441 17.75H27.4227V18.9286H26.2441V17.75ZM26.2441 16.5714H27.4227V17.75H26.2441V16.5714ZM27.4227 16.5714H28.6013V17.75H27.4227V16.5714ZM27.4227 17.75H28.6013V18.9286H27.4227V17.75ZM25.0656 16.5714H26.2441V17.75H25.0656V16.5714ZM21.5298 14.2143H22.7084V15.3929H21.5298V14.2143ZM22.7084 14.2143H23.887V15.3929H22.7084V14.2143ZM22.7084 15.3929H23.887V16.5714H22.7084V15.3929ZM21.5298 15.3929H22.7084V16.5714H21.5298V15.3929ZM23.887 24.8214H25.0656V26H23.887V24.8214ZM25.0656 24.8214H26.2441V26H25.0656V24.8214ZM26.2441 24.8214H27.4227V26H26.2441V24.8214ZM26.2441 23.6429H27.4227V24.8214H26.2441V23.6429ZM25.0656 23.6429H26.2441V24.8214H25.0656V23.6429ZM23.887 23.6429H25.0656V24.8214H23.887V23.6429ZM31.1815 17.75H32.3601V18.9286H31.1815V17.75ZM32.3601 18.9286H33.5386V20.1071H32.3601V18.9286ZM31.1815 18.9286H32.3601V20.1071H31.1815V18.9286ZM31.1815 20.1071H32.3601V21.2857H31.1815V20.1071ZM32.3601 20.1071H33.5386V21.2857H32.3601V20.1071ZM32.3601 21.2857H33.5386V22.4643H32.3601V21.2857ZM33.5386 21.2857H34.7172V22.4643H33.5386V21.2857ZM34.7172 21.2857H35.8958V22.4643H34.7172V21.2857ZM35.8958 20.1071H37.0743V21.2857H35.8958V20.1071ZM34.7172 20.1071H35.8958V21.2857H34.7172V20.1071ZM33.5386 20.1071H34.7172V21.2857H33.5386V20.1071ZM35.8958 21.2857H37.0743V22.4643H35.8958V21.2857ZM37.0743 21.2857H38.2529V22.4643H37.0743V21.2857ZM37.0743 22.4643H38.2529V23.6429H37.0743V22.4643ZM35.8958 22.4643H37.0743V23.6429H35.8958V22.4643ZM35.8958 23.6429H37.0743V24.8214H35.8958V23.6429ZM37.0743 23.6429H38.2529V24.8214H37.0743V23.6429ZM35.8958 24.8214H37.0743V26H35.8958V24.8214ZM34.7172 23.6429H35.8958V24.8214H34.7172V23.6429ZM33.5386 23.6429H34.7172V24.8214H33.5386V23.6429ZM32.3601 23.6429H33.5386V24.8214H32.3601V23.6429ZM31.1815 23.6429H32.3601V24.8214H31.1815V23.6429ZM32.3601 24.8214H33.5386V26H32.3601V24.8214ZM33.5386 24.8214H34.7172V26H33.5386V24.8214ZM34.7172 24.8214H35.8958V26H34.7172V24.8214ZM37.0743 17.75H38.2529V18.9286H37.0743V17.75ZM35.8958 17.75H37.0743V18.9286H35.8958V17.75ZM35.8958 16.5714H37.0743V17.75H35.8958V16.5714ZM34.7172 16.5714H35.8958V17.75H34.7172V16.5714ZM33.5386 16.5714H34.7172V17.75H33.5386V16.5714ZM32.3601 16.5714H33.5386V17.75H32.3601V16.5714ZM32.3601 17.75H33.5386V18.9286H32.3601V17.75ZM33.5386 17.75H34.7172V18.9286H33.5386V17.75ZM34.7172 17.75H35.8958V18.9286H34.7172V17.75ZM44.3658 14.2143H45.5443V15.3929H44.3658V14.2143ZM44.3658 15.3929H45.5443V16.5714H44.3658V15.3929ZM43.1872 15.3929H44.3658V16.5714H43.1872V15.3929ZM43.1872 14.2143H44.3658V15.3929H43.1872V14.2143ZM44.3658 16.5714H45.5443V17.75H44.3658V16.5714ZM43.1872 16.5714H44.3658V17.75H43.1872V16.5714ZM43.1872 17.75H44.3658V18.9286H43.1872V17.75ZM43.1872 18.9286H44.3658V20.1071H43.1872V18.9286ZM43.1872 20.1071H44.3658V21.2857H43.1872V20.1071ZM42.0086 20.1071H43.1872V21.2857H42.0086V20.1071ZM42.0086 18.9286H43.1872V20.1071H42.0086V18.9286ZM42.0086 17.75H43.1872V18.9286H42.0086V17.75ZM42.0086 21.2857H43.1872V22.4643H42.0086V21.2857ZM42.0086 22.4643H43.1872V23.6429H42.0086V22.4643ZM42.0086 23.6429H43.1872V24.8214H42.0086V23.6429ZM40.8301 23.6429H42.0086V24.8214H40.8301V23.6429ZM40.8301 22.4643H42.0086V23.6429H40.8301V22.4643ZM40.8301 21.2857H42.0086V22.4643H40.8301V21.2857ZM40.8301 24.8214H42.0086V26H40.8301V24.8214ZM40.8301 26H42.0086V27.1786H40.8301V26ZM40.8301 27.1786H42.0086V28.3571H40.8301V27.1786ZM39.6515 27.1786H40.8301V28.3571H39.6515V27.1786ZM39.6515 26H40.8301V27.1786H39.6515V26ZM39.6515 24.8214H40.8301V26H39.6515V24.8214ZM46.9398 14.2143H49.297V16.5714H46.9398V14.2143ZM46.9398 17.75H49.297V26H46.9398V17.75ZM50.7048 17.75H51.8833V18.9286H50.7048V17.75ZM50.7048 16.5714H51.8833V17.75H50.7048V16.5714ZM51.8833 16.5714H53.0619V17.75H51.8833V16.5714ZM51.8833 17.75H53.0619V18.9286H51.8833V17.75ZM51.8833 18.9286H53.0619V20.1071H51.8833V18.9286ZM51.8833 20.1071H53.0619V21.2857H51.8833V20.1071ZM51.8833 21.2857H53.0619V22.4643H51.8833V21.2857ZM50.7048 21.2857H51.8833V22.4643H50.7048V21.2857ZM50.7048 20.1071H51.8833V21.2857H50.7048V20.1071ZM50.7048 18.9286H51.8833V20.1071H50.7048V18.9286ZM50.7048 22.4643H51.8833V23.6429H50.7048V22.4643ZM51.8833 22.4643H53.0619V23.6429H51.8833V22.4643ZM51.8833 23.6429H53.0619V24.8214H51.8833V23.6429ZM51.8833 24.8214H53.0619V26H51.8833V24.8214ZM50.7048 24.8214H51.8833V26H50.7048V24.8214ZM50.7048 23.6429H51.8833V24.8214H50.7048V23.6429ZM56.5976 24.8214H57.7762V26H56.5976V24.8214ZM57.7762 24.8214H58.9548V26H57.7762V24.8214ZM57.7762 23.6429H58.9548V24.8214H57.7762V23.6429ZM57.7762 22.4643H58.9548V23.6429H57.7762V22.4643ZM57.7762 21.2857H58.9548V22.4643H57.7762V21.2857ZM57.7762 20.1071H58.9548V21.2857H57.7762V20.1071ZM57.7762 18.9286H58.9548V20.1071H57.7762V18.9286ZM57.7762 17.75H58.9548V18.9286H57.7762V17.75ZM56.5976 20.1071H57.7762V21.2857H56.5976V20.1071ZM56.5976 21.2857H57.7762V22.4643H56.5976V21.2857ZM56.5976 22.4643H57.7762V23.6429H56.5976V22.4643ZM56.5976 23.6429H57.7762V24.8214H56.5976V23.6429ZM56.5976 18.9286H57.7762V20.1071H56.5976V18.9286ZM53.0619 17.75H54.2405V18.9286H53.0619V17.75ZM54.2405 17.75H55.4191V18.9286H54.2405V17.75ZM55.4191 17.75H56.5976V18.9286H55.4191V17.75ZM55.4191 16.5714H56.5976V17.75H55.4191V16.5714ZM56.5976 16.5714H57.7762V17.75H56.5976V16.5714ZM56.5976 17.75H57.7762V18.9286H56.5976V17.75ZM54.2405 16.5714H55.4191V17.75H54.2405V16.5714ZM65.0707 23.6429H66.2493V24.8214H65.0707V23.6429ZM65.0707 24.8214H66.2493V26H65.0707V24.8214ZM63.8921 24.8214H65.0707V26H63.8921V24.8214ZM63.8921 23.6429H65.0707V24.8214H63.8921V23.6429ZM62.7136 24.8214H63.8921V26H62.7136V24.8214ZM62.7136 23.6429H63.8921V24.8214H62.7136V23.6429ZM61.535 23.6429H62.7136V24.8214H61.535V23.6429ZM61.535 22.4643H62.7136V23.6429H61.535V22.4643ZM61.535 21.2857H62.7136V22.4643H61.535V21.2857ZM61.535 20.1071H62.7136V21.2857H61.535V20.1071ZM61.535 18.9286H62.7136V20.1071H61.535V18.9286ZM61.535 17.75H62.7136V18.9286H61.535V17.75ZM62.7136 21.2857H63.8921V22.4643H62.7136V21.2857ZM62.7136 22.4643H63.8921V23.6429H62.7136V22.4643ZM62.7136 20.1071H63.8921V21.2857H62.7136V20.1071ZM62.7136 18.9286H63.8921V20.1071H62.7136V18.9286ZM62.7136 14.2143H63.8921V15.3929H62.7136V14.2143ZM62.7136 15.3929H63.8921V16.5714H62.7136V15.3929ZM62.7136 16.5714H63.8921V17.75H62.7136V16.5714ZM62.7136 17.75H63.8921V18.9286H62.7136V17.75ZM61.535 16.5714H62.7136V17.75H61.535V16.5714ZM60.3564 17.75H61.535V18.9286H60.3564V17.75ZM63.8921 17.75H65.0707V18.9286H63.8921V17.75ZM65.0707 17.75H66.2493V18.9286H65.0707V17.75ZM61.535 15.3929H62.7136V16.5714H61.535V15.3929ZM60.3564 18.9286H61.535V20.1071H60.3564V18.9286ZM63.8921 18.9286H65.0707V20.1071H63.8921V18.9286ZM65.0707 18.9286H66.2493V20.1071H65.0707V18.9286ZM70.0019 16.5714H71.1805V17.75H70.0019V16.5714ZM68.8233 16.5714H70.0019V17.75H68.8233V16.5714ZM68.8233 17.75H70.0019V18.9286H68.8233V17.75ZM70.0019 17.75H71.1805V18.9286H70.0019V17.75ZM71.1805 16.5714H72.359V17.75H71.1805V16.5714ZM72.359 16.5714H73.5376V17.75H72.359V16.5714ZM73.5376 16.5714H74.7162V17.75H73.5376V16.5714ZM73.5376 17.75H74.7162V18.9286H73.5376V17.75ZM72.359 17.75H73.5376V18.9286H72.359V17.75ZM74.7162 17.75H75.8948V18.9286H74.7162V17.75ZM74.7162 18.9286H75.8948V20.1071H74.7162V18.9286ZM74.7162 23.6429H75.8948V24.8214H74.7162V23.6429ZM73.5376 23.6429H74.7162V24.8214H73.5376V23.6429ZM73.5376 18.9286H74.7162V20.1071H73.5376V18.9286ZM72.359 23.6429H73.5376V24.8214H72.359V23.6429ZM73.5376 24.8214H74.7162V26H73.5376V24.8214ZM72.359 24.8214H73.5376V26H72.359V24.8214ZM71.1805 24.8214H72.359V26H71.1805V24.8214ZM70.0019 24.8214H71.1805V26H70.0019V24.8214ZM68.8233 24.8214H70.0019V26H68.8233V24.8214ZM68.8233 23.6429H70.0019V24.8214H68.8233V23.6429ZM70.0019 23.6429H71.1805V24.8214H70.0019V23.6429ZM68.8233 22.4643H70.0019V23.6429H68.8233V22.4643ZM67.6448 23.6429H68.8233V24.8214H67.6448V23.6429ZM67.6448 22.4643H68.8233V23.6429H67.6448V22.4643ZM67.6448 21.2857H68.8233V22.4643H67.6448V21.2857ZM67.6448 20.1071H68.8233V21.2857H67.6448V20.1071ZM67.6448 18.9286H68.8233V20.1071H67.6448V18.9286ZM67.6448 17.75H68.8233V18.9286H67.6448V17.75ZM68.8233 18.9286H70.0019V20.1071H68.8233V18.9286ZM68.8233 20.1071H70.0019V21.2857H68.8233V20.1071ZM68.8233 21.2857H70.0019V22.4643H68.8233V21.2857ZM71.1805 23.6429H72.359V24.8214H71.1805V23.6429ZM71.1805 17.75H72.359V18.9286H71.1805V17.75ZM73.5376 20.1071H74.7162V21.2857H73.5376V20.1071ZM74.7162 20.1071H75.8948V21.2857H74.7162V20.1071ZM70.0019 21.2857H71.1805V22.4643H70.0019V21.2857ZM71.1805 21.2857H72.359V22.4643H71.1805V21.2857ZM72.359 21.2857H73.5376V22.4643H72.359V21.2857ZM73.5376 21.2857H74.7162V22.4643H73.5376V21.2857ZM74.7162 21.2857H75.8948V22.4643H74.7162V21.2857ZM72.359 20.1071H73.5376V21.2857H72.359V20.1071ZM71.1805 20.1071H72.359V21.2857H71.1805V20.1071ZM70.0019 20.1071H71.1805V21.2857H70.0019V20.1071ZM77.2964 17.75H78.475V18.9286H77.2964V17.75ZM77.2964 16.5714H78.475V17.75H77.2964V16.5714ZM78.475 16.5714H79.6535V17.75H78.475V16.5714ZM78.475 17.75H79.6535V18.9286H78.475V17.75ZM78.475 18.9286H79.6535V20.1071H78.475V18.9286ZM78.475 20.1071H79.6535V21.2857H78.475V20.1071ZM78.475 21.2857H79.6535V22.4643H78.475V21.2857ZM77.2964 21.2857H78.475V22.4643H77.2964V21.2857ZM77.2964 20.1071H78.475V21.2857H77.2964V20.1071ZM77.2964 18.9286H78.475V20.1071H77.2964V18.9286ZM77.2964 22.4643H78.475V23.6429H77.2964V22.4643ZM78.475 22.4643H79.6535V23.6429H78.475V22.4643ZM78.475 23.6429H79.6535V24.8214H78.475V23.6429ZM78.475 24.8214H79.6535V26H78.475V24.8214ZM77.2964 24.8214H78.475V26H77.2964V24.8214ZM77.2964 23.6429H78.475V24.8214H77.2964V23.6429ZM79.6535 17.75H80.8321V18.9286H79.6535V17.75ZM80.8321 17.75H82.0107V18.9286H80.8321V17.75ZM82.0107 17.75H83.1893V18.9286H82.0107V17.75ZM82.0107 16.5714H83.1893V17.75H82.0107V16.5714ZM80.8321 16.5714H82.0107V17.75H80.8321V16.5714ZM79.6535 18.9286H80.8321V20.1071H79.6535V18.9286ZM83.1893 17.75H84.3678V18.9286H83.1893V17.75ZM82.0107 18.9286H83.1893V20.1071H82.0107V18.9286ZM85.7664 17.75H86.945V18.9286H85.7664V17.75ZM85.7664 16.5714H86.945V17.75H85.7664V16.5714ZM86.945 16.5714H88.1235V17.75H86.945V16.5714ZM86.945 17.75H88.1235V18.9286H86.945V17.75ZM86.945 18.9286H88.1235V20.1071H86.945V18.9286ZM86.945 20.1071H88.1235V21.2857H86.945V20.1071ZM86.945 21.2857H88.1235V22.4643H86.945V21.2857ZM85.7664 21.2857H86.945V22.4643H85.7664V21.2857ZM85.7664 20.1071H86.945V21.2857H85.7664V20.1071ZM85.7664 18.9286H86.945V20.1071H85.7664V18.9286ZM85.7664 22.4643H86.945V23.6429H85.7664V22.4643ZM86.945 22.4643H88.1235V23.6429H86.945V22.4643ZM86.945 23.6429H88.1235V24.8214H86.945V23.6429ZM86.945 24.8214H88.1235V26H86.945V24.8214ZM85.7664 24.8214H86.945V26H85.7664V24.8214ZM85.7664 23.6429H86.945V24.8214H85.7664V23.6429ZM91.6593 24.8214H92.8378V26H91.6593V24.8214ZM92.8378 24.8214H94.0164V26H92.8378V24.8214ZM92.8378 23.6429H94.0164V24.8214H92.8378V23.6429ZM92.8378 22.4643H94.0164V23.6429H92.8378V22.4643ZM92.8378 21.2857H94.0164V22.4643H92.8378V21.2857ZM92.8378 20.1071H94.0164V21.2857H92.8378V20.1071ZM92.8378 18.9286H94.0164V20.1071H92.8378V18.9286ZM92.8378 17.75H94.0164V18.9286H92.8378V17.75ZM91.6593 20.1071H92.8378V21.2857H91.6593V20.1071ZM91.6593 21.2857H92.8378V22.4643H91.6593V21.2857ZM91.6593 22.4643H92.8378V23.6429H91.6593V22.4643ZM91.6593 23.6429H92.8378V24.8214H91.6593V23.6429ZM91.6593 18.9286H92.8378V20.1071H91.6593V18.9286ZM88.1235 17.75H89.3021V18.9286H88.1235V17.75ZM89.3021 17.75H90.4807V18.9286H89.3021V17.75ZM90.4807 17.75H91.6593V18.9286H90.4807V17.75ZM90.4807 16.5714H91.6593V17.75H90.4807V16.5714ZM91.6593 16.5714H92.8378V17.75H91.6593V16.5714ZM91.6593 17.75H92.8378V18.9286H91.6593V17.75ZM89.3021 16.5714H90.4807V17.75H89.3021V16.5714ZM102.489 26H101.311V24.8214H102.489V26ZM102.489 24.8214H101.311V23.6429H102.489V24.8214ZM101.311 24.8214H100.132V23.6429H101.311V24.8214ZM100.132 26H98.9538V24.8214H100.132V26ZM98.9538 26H97.7752V24.8214H98.9538V26ZM97.7752 26H96.5966V24.8214H97.7752V26ZM97.7752 24.8214H96.5966V23.6429H97.7752V24.8214ZM98.9538 24.8214H97.7752V23.6429H98.9538V24.8214ZM96.5966 24.8214H95.418V23.6429H96.5966V24.8214ZM96.5966 23.6429H95.418V22.4643H96.5966V23.6429ZM96.5966 18.9286H95.418V17.75H96.5966V18.9286ZM97.7752 18.9286H96.5966V17.75H97.7752V18.9286ZM97.7752 23.6429H96.5966V22.4643H97.7752V23.6429ZM98.9538 18.9286H97.7752V17.75H98.9538V18.9286ZM97.7752 17.75H96.5966V16.5714H97.7752V17.75ZM98.9538 17.75H97.7752V16.5714H98.9538V17.75ZM100.132 17.75H98.9538V16.5714H100.132V17.75ZM101.311 17.75H100.132V16.5714H101.311V17.75ZM102.489 17.75H101.311V16.5714H102.489V17.75ZM102.489 18.9286H101.311V17.75H102.489V18.9286ZM101.311 18.9286H100.132V17.75H101.311V18.9286ZM102.489 20.1071H101.311V18.9286H102.489V20.1071ZM103.668 18.9286H102.489V17.75H103.668V18.9286ZM103.668 20.1071H102.489V18.9286H103.668V20.1071ZM103.668 21.2857H102.489V20.1071H103.668V21.2857ZM103.668 22.4643H102.489V21.2857H103.668V22.4643ZM103.668 23.6429H102.489V22.4643H103.668V23.6429ZM103.668 24.8214H102.489V23.6429H103.668V24.8214ZM102.489 23.6429H101.311V22.4643H102.489V23.6429ZM102.489 22.4643H101.311V21.2857H102.489V22.4643ZM102.489 21.2857H101.311V20.1071H102.489V21.2857ZM100.132 18.9286H98.9538V17.75H100.132V18.9286ZM100.132 24.8214H98.9538V23.6429H100.132V24.8214ZM102.489 24.8214H103.668V26H102.489V24.8214ZM100.132 20.1071H101.311V21.2857H100.132V20.1071ZM98.9538 20.1071H100.132V21.2857H98.9538V20.1071ZM97.7752 20.1071H98.9538V21.2857H97.7752V20.1071ZM96.5966 20.1071H97.7752V21.2857H96.5966V20.1071ZM95.418 21.2857H96.5966V22.4643H95.418V21.2857ZM96.5966 21.2857H97.7752V22.4643H96.5966V21.2857ZM100.132 21.2857H101.311V22.4643H100.132V21.2857ZM98.9538 21.2857H100.132V22.4643H98.9538V21.2857ZM97.7752 21.2857H98.9538V22.4643H97.7752V21.2857ZM105.07 14.2143H106.248V15.3929H105.07V14.2143ZM106.248 14.2143H107.427V15.3929H106.248V14.2143ZM106.248 15.3929H107.427V16.5714H106.248V15.3929ZM106.248 16.5714H107.427V17.75H106.248V16.5714ZM106.248 17.75H107.427V18.9286H106.248V17.75ZM106.248 18.9286H107.427V20.1071H106.248V18.9286ZM106.248 20.1071H107.427V21.2857H106.248V20.1071ZM105.07 20.1071H106.248V21.2857H105.07V20.1071ZM105.07 21.2857H106.248V22.4643H105.07V21.2857ZM105.07 22.4643H106.248V23.6429H105.07V22.4643ZM105.07 23.6429H106.248V24.8214H105.07V23.6429ZM105.07 24.8214H106.248V26H105.07V24.8214ZM106.248 24.8214H107.427V26H106.248V24.8214ZM106.248 23.6429H107.427V24.8214H106.248V23.6429ZM106.248 22.4643H107.427V23.6429H106.248V22.4643ZM106.248 21.2857H107.427V22.4643H106.248V21.2857ZM105.07 18.9286H106.248V20.1071H105.07V18.9286ZM105.07 17.75H106.248V18.9286H105.07V17.75ZM105.07 16.5714H106.248V17.75H105.07V16.5714ZM105.07 15.3929H106.248V16.5714H105.07V15.3929ZM113.549 14.2143H114.727V15.3929H113.549V14.2143ZM113.549 15.3929H114.727V16.5714H113.549V15.3929ZM112.37 15.3929H113.549V16.5714H112.37V15.3929ZM112.37 14.2143H113.549V15.3929H112.37V14.2143ZM113.549 16.5714H114.727V17.75H113.549V16.5714ZM112.37 16.5714H113.549V17.75H112.37V16.5714ZM112.37 17.75H113.549V18.9286H112.37V17.75ZM112.37 18.9286H113.549V20.1071H112.37V18.9286ZM112.37 20.1071H113.549V21.2857H112.37V20.1071ZM111.192 20.1071H112.37V21.2857H111.192V20.1071ZM111.192 18.9286H112.37V20.1071H111.192V18.9286ZM111.192 17.75H112.37V18.9286H111.192V17.75ZM111.192 21.2857H112.37V22.4643H111.192V21.2857ZM111.192 22.4643H112.37V23.6429H111.192V22.4643ZM111.192 23.6429H112.37V24.8214H111.192V23.6429ZM110.013 23.6429H111.192V24.8214H110.013V23.6429ZM110.013 22.4643H111.192V23.6429H110.013V22.4643ZM110.013 21.2857H111.192V22.4643H110.013V21.2857ZM110.013 24.8214H111.192V26H110.013V24.8214ZM110.013 26H111.192V27.1786H110.013V26ZM110.013 27.1786H111.192V28.3571H110.013V27.1786ZM108.835 27.1786H110.013V28.3571H108.835V27.1786ZM108.835 26H110.013V27.1786H108.835V26ZM108.835 24.8214H110.013V26H108.835V24.8214ZM116.123 17.75H117.302V18.9286H116.123V17.75ZM116.123 16.5714H117.302V17.75H116.123V16.5714ZM117.302 16.5714H118.48V17.75H117.302V16.5714ZM117.302 17.75H118.48V18.9286H117.302V17.75ZM117.302 18.9286H118.48V20.1071H117.302V18.9286ZM117.302 20.1071H118.48V21.2857H117.302V20.1071ZM117.302 21.2857H118.48V22.4643H117.302V21.2857ZM116.123 21.2857H117.302V22.4643H116.123V21.2857ZM116.123 20.1071H117.302V21.2857H116.123V20.1071ZM116.123 18.9286H117.302V20.1071H116.123V18.9286ZM116.123 22.4643H117.302V23.6429H116.123V22.4643ZM117.302 22.4643H118.48V23.6429H117.302V22.4643ZM117.302 23.6429H118.48V24.8214H117.302V23.6429ZM117.302 24.8214H118.48V26H117.302V24.8214ZM116.123 24.8214H117.302V26H116.123V24.8214ZM116.123 23.6429H117.302V24.8214H116.123V23.6429ZM122.016 24.8214H123.194V26H122.016V24.8214ZM123.194 23.6429H124.373V24.8214H123.194V23.6429ZM123.194 22.4643H124.373V23.6429H123.194V22.4643ZM123.194 21.2857H124.373V22.4643H123.194V21.2857ZM123.194 20.1071H124.373V21.2857H123.194V20.1071ZM123.194 18.9286H124.373V20.1071H123.194V18.9286ZM123.194 17.75H124.373V18.9286H123.194V17.75ZM122.016 20.1071H123.194V21.2857H122.016V20.1071ZM122.016 21.2857H123.194V22.4643H122.016V21.2857ZM122.016 22.4643H123.194V23.6429H122.016V22.4643ZM122.016 23.6429H123.194V24.8214H122.016V23.6429ZM122.016 18.9286H123.194V20.1071H122.016V18.9286ZM118.48 17.75H119.659V18.9286H118.48V17.75ZM119.659 17.75H120.837V18.9286H119.659V17.75ZM120.837 17.75H122.016V18.9286H120.837V17.75ZM120.837 16.5714H122.016V17.75H120.837V16.5714ZM122.016 16.5714H123.194V17.75H122.016V16.5714ZM122.016 17.75H123.194V18.9286H122.016V17.75ZM119.659 16.5714H120.837V17.75H119.659V16.5714ZM116.123 14.2143H117.302V15.3929H116.123V14.2143ZM117.302 14.2143H118.48V15.3929H117.302V14.2143ZM117.302 15.3929H118.48V16.5714H117.302V15.3929ZM116.123 15.3929H117.302V16.5714H116.123V15.3929ZM118.48 24.8214H119.659V26H118.48V24.8214ZM119.659 24.8214H120.837V26H119.659V24.8214ZM120.837 24.8214H122.016V26H120.837V24.8214ZM120.837 23.6429H122.016V24.8214H120.837V23.6429ZM119.659 23.6429H120.837V24.8214H119.659V23.6429ZM118.48 23.6429H119.659V24.8214H118.48V23.6429ZM125.775 14.2143H128.132V16.5714H125.775V14.2143ZM125.775 17.75H128.132V26H125.775V17.75ZM129.54 14.2143H130.718V15.3929H129.54V14.2143ZM130.718 14.2143H131.897V15.3929H130.718V14.2143ZM130.718 15.3929H131.897V16.5714H130.718V15.3929ZM130.718 16.5714H131.897V17.75H130.718V16.5714ZM130.718 17.75H131.897V18.9286H130.718V17.75ZM129.54 17.75H130.718V18.9286H129.54V17.75ZM129.54 16.5714H130.718V17.75H129.54V16.5714ZM129.54 15.3929H130.718V16.5714H129.54V15.3929ZM129.54 18.9286H130.718V20.1071H129.54V18.9286ZM129.54 20.1071H130.718V21.2857H129.54V20.1071ZM129.54 21.2857H130.718V22.4643H129.54V21.2857ZM129.54 22.4643H130.718V23.6429H129.54V22.4643ZM129.54 23.6429H130.718V24.8214H129.54V23.6429ZM129.54 24.8214H130.718V26H129.54V24.8214ZM130.718 24.8214H131.897V26H130.718V24.8214ZM130.718 23.6429H131.897V24.8214H130.718V23.6429ZM130.718 22.4643H131.897V23.6429H130.718V22.4643ZM130.718 21.2857H131.897V22.4643H130.718V21.2857ZM130.718 20.1071H131.897V21.2857H130.718V20.1071ZM130.718 18.9286H131.897V20.1071H130.718V18.9286ZM131.897 20.1071H133.075V21.2857H131.897V20.1071ZM133.075 20.1071H134.254V21.2857H133.075V20.1071ZM133.075 18.9286H134.254V20.1071H133.075V18.9286ZM134.254 18.9286H135.432V20.1071H134.254V18.9286ZM134.254 17.75H135.432V18.9286H134.254V17.75ZM134.254 16.5714H135.432V17.75H134.254V16.5714ZM135.432 16.5714H136.611V17.75H135.432V16.5714ZM135.432 17.75H136.611V18.9286H135.432V17.75ZM133.075 21.2857H134.254V22.4643H133.075V21.2857ZM134.254 21.2857H135.432V22.4643H134.254V21.2857ZM135.432 22.4643H136.611V23.6429H135.432V22.4643ZM134.254 22.4643H135.432V23.6429H134.254V22.4643ZM134.254 23.6429H135.432V24.8214H134.254V23.6429ZM135.432 23.6429H136.611V24.8214H135.432V23.6429ZM135.432 24.8214H136.611V26H135.432V24.8214ZM134.254 24.8214H135.432V26H134.254V24.8214ZM138.01 17.75H139.188V18.9286H138.01V17.75ZM139.188 17.75H140.367V18.9286H139.188V17.75ZM140.367 17.75H141.545V18.9286H140.367V17.75ZM141.545 17.75H142.724V18.9286H141.545V17.75ZM142.724 17.75H143.902V18.9286H142.724V17.75ZM143.902 17.75H145.081V18.9286H143.902V17.75ZM145.081 17.75H146.26V18.9286H145.081V17.75ZM145.081 16.5714H146.26V17.75H145.081V16.5714ZM143.902 16.5714H145.081V17.75H143.902V16.5714ZM142.724 16.5714H143.902V17.75H142.724V16.5714ZM141.545 16.5714H142.724V17.75H141.545V16.5714ZM140.367 16.5714H141.545V17.75H140.367V16.5714ZM139.188 16.5714H140.367V17.75H139.188V16.5714ZM138.01 16.5714H139.188V17.75H138.01V16.5714ZM145.081 18.9286H146.26V20.1071H145.081V18.9286ZM143.902 18.9286H145.081V20.1071H143.902V18.9286ZM142.724 18.9286H143.902V20.1071H142.724V18.9286ZM142.724 20.1071H143.902V21.2857H142.724V20.1071ZM143.902 20.1071H145.081V21.2857H143.902V20.1071ZM141.545 20.1071H142.724V21.2857H141.545V20.1071ZM142.724 21.2857H143.902V22.4643H142.724V21.2857ZM141.545 21.2857H142.724V22.4643H141.545V21.2857ZM140.367 21.2857H141.545V22.4643H140.367V21.2857ZM140.367 22.4643H141.545V23.6429H140.367V22.4643ZM139.188 22.4643H140.367V23.6429H139.188V22.4643ZM141.545 22.4643H142.724V23.6429H141.545V22.4643ZM138.01 23.6429H139.188V24.8214H138.01V23.6429ZM139.188 23.6429H140.367V24.8214H139.188V23.6429ZM140.367 23.6429H141.545V24.8214H140.367V23.6429ZM141.545 23.6429H142.724V24.8214H141.545V23.6429ZM142.724 23.6429H143.902V24.8214H142.724V23.6429ZM143.902 23.6429H145.081V24.8214H143.902V23.6429ZM143.902 24.8214H145.081V26H143.902V24.8214ZM145.081 24.8214H146.26V26H145.081V24.8214ZM145.081 23.6429H146.26V24.8214H145.081V23.6429ZM142.724 24.8214H143.902V26H142.724V24.8214ZM141.545 24.8214H142.724V26H141.545V24.8214ZM140.367 24.8214H141.545V26H140.367V24.8214ZM139.188 24.8214H140.367V26H139.188V24.8214ZM138.01 24.8214H139.188V26H138.01V24.8214ZM154.733 16.5714H155.911V17.75H154.733V16.5714ZM153.554 16.5714H154.733V17.75H153.554V16.5714ZM152.375 16.5714H153.554V17.75H152.375V16.5714ZM151.197 16.5714H152.375V17.75H151.197V16.5714ZM150.018 16.5714H151.197V17.75H150.018V16.5714ZM150.018 17.75H151.197V18.9286H150.018V17.75ZM151.197 17.75H152.375V18.9286H151.197V17.75ZM152.375 17.75H153.554V18.9286H152.375V17.75ZM153.554 17.75H154.733V18.9286H153.554V17.75ZM154.733 17.75H155.911V18.9286H154.733V17.75ZM148.84 16.5714H150.018V17.75H148.84V16.5714ZM148.84 17.75H150.018V18.9286H148.84V17.75ZM148.84 18.9286H150.018V20.1071H148.84V18.9286ZM147.661 18.9286H148.84V20.1071H147.661V18.9286ZM147.661 17.75H148.84V18.9286H147.661V17.75ZM147.661 20.1071H148.84V21.2857H147.661V20.1071ZM147.661 21.2857H148.84V22.4643H147.661V21.2857ZM148.84 22.4643H150.018V23.6429H148.84V22.4643ZM148.84 21.2857H150.018V22.4643H148.84V21.2857ZM148.84 20.1071H150.018V21.2857H148.84V20.1071ZM147.661 22.4643H148.84V23.6429H147.661V22.4643ZM148.84 23.6429H150.018V24.8214H148.84V23.6429ZM150.018 23.6429H151.197V24.8214H150.018V23.6429ZM151.197 23.6429H152.375V24.8214H151.197V23.6429ZM153.554 23.6429H154.733V24.8214H153.554V23.6429ZM154.733 23.6429H155.911V24.8214H154.733V23.6429ZM154.733 22.4643H155.911V23.6429H154.733V22.4643ZM153.554 22.4643H154.733V23.6429H153.554V22.4643ZM152.375 22.4643H153.554V23.6429H152.375V22.4643ZM151.197 22.4643H152.375V23.6429H151.197V22.4643ZM150.018 22.4643H151.197V23.6429H150.018V22.4643ZM153.554 21.2857H154.733V22.4643H153.554V21.2857ZM153.554 20.1071H154.733V21.2857H153.554V20.1071ZM153.554 18.9286H154.733V20.1071H153.554V18.9286ZM154.733 18.9286H155.911V20.1071H154.733V18.9286ZM154.733 20.1071H155.911V21.2857H154.733V20.1071ZM154.733 21.2857H155.911V22.4643H154.733V21.2857ZM153.554 24.8214H154.733V26H153.554V24.8214ZM153.554 26H154.733V27.1786H153.554V26ZM154.733 26H155.911V27.1786H154.733V26ZM154.733 24.8214H155.911V26H154.733V24.8214ZM147.661 26H148.84V27.1786H147.661V26ZM148.84 26H150.018V27.1786H148.84V26ZM148.84 27.1786H150.018V28.3571H148.84V27.1786ZM150.018 27.1786H151.197V28.3571H150.018V27.1786ZM150.018 26H151.197V27.1786H150.018V26ZM151.197 26H152.375V27.1786H151.197V26ZM152.375 26H153.554V27.1786H152.375V26ZM153.554 27.1786H154.733V28.3571H153.554V27.1786ZM152.375 27.1786H153.554V28.3571H152.375V27.1786ZM151.197 27.1786H152.375V28.3571H151.197V27.1786Z" fill="#E2677A"/>
</g>
<defs>
<filter id="filter0_d_724_244429" x="0" y="0" width="169" height="51" filterUnits="userSpaceOnUse" color-interpolation-filters="sRGB">
<feFlood flood-opacity="0" result="BackgroundImageFix"/>
<feColorMatrix in="SourceAlpha" type="matrix" values="0 0 0 0 0 0 0 0 0 0 0 0 0 0 0 0 0 0 127 0" result="hardAlpha"/>
<feOffset dy="3"/>
<feComposite in2="hardAlpha" operator="out"/>
<feColorMatrix type="matrix" values="0 0 0 0 0.627779 0 0 0 0 0.245356 0 0 0 0 0.30443 0 0 0 1 0"/>
<feBlend mode="normal" in2="BackgroundImageFix" result="effect1_dropShadow_724_244429"/>
<feBlend mode="normal" in="SourceGraphic" in2="effect1_dropShadow_724_244429" result="shape"/>
</filter>
</defs>
</svg>
