<svg width="209" height="48" viewBox="0 0 209 48" fill="none" xmlns="http://www.w3.org/2000/svg">
<path d="M52 8.61538V4H8.00001L4 8.30769V31.6923L8.00001 36L12 40L16 44H20L24 40L26.2612 36.3077H52V31.6923V8.61538Z" fill="white"/>
<path d="M48 0H128V4H48V0Z" fill="#899BA3"/>
<path d="M48 4H128V8H48V4Z" fill="white"/>
<path d="M48 8H128V12H48V8Z" fill="white"/>
<path d="M48 12H128V16H48V12Z" fill="white"/>
<path d="M48 16H128V20H48V16Z" fill="white"/>
<path d="M48 24H128V28H48V24Z" fill="white"/>
<path d="M48 20H128V24H48V20Z" fill="white"/>
<path d="M48 28H128V32H48V28Z" fill="white"/>
<path d="M48 32H128V36H48V32Z" fill="white"/>
<path d="M48 40H128V36H48V40Z" fill="#899BA3"/>
<path d="M44 0H48V4H44V0Z" fill="#899BA3"/>
<path d="M44 40H48V36H44V40Z" fill="#899BA3"/>
<path d="M40 0H44V4H40V0Z" fill="#899BA3"/>
<path d="M40 40H44V36H40V40Z" fill="#899BA3"/>
<path d="M36 0H40V4H36V0Z" fill="#899BA3"/>
<path d="M36 40H40V36H36V40Z" fill="#899BA3"/>
<path d="M32 0H36V4H32V0Z" fill="#899BA3"/>
<path d="M32 40H36V36H32V40Z" fill="#899BA3"/>
<path d="M28 0H32V4H28V0Z" fill="#899BA3"/>
<path d="M28 40H32V36H28V40Z" fill="#899BA3"/>
<path d="M24 0H28V4H24V0Z" fill="#899BA3"/>
<path d="M24 40H28V36H24V40Z" fill="#899BA3"/>
<path d="M20 0H24V4H20V0Z" fill="#899BA3"/>
<path d="M20 44H24V40H20V44Z" fill="#899BA3"/>
<path d="M16 0H20V4H16V0Z" fill="#899BA3"/>
<path d="M16 48H20V44H16V48Z" fill="#899BA3"/>
<path d="M12 0H16V4H12V0Z" fill="#899BA3"/>
<path d="M12 44H16V40H12V44Z" fill="#899BA3"/>
<path d="M8 0H12V4H8V0Z" fill="#899BA3"/>
<path d="M8 40H12V36H8V40Z" fill="#899BA3"/>
<path d="M4 4H8V8H4V4Z" fill="#899BA3"/>
<path d="M4 36H8V32H4V36Z" fill="#899BA3"/>
<path d="M0 8H4V12H0V8Z" fill="#899BA3"/>
<path d="M0 12H4V16H0V12Z" fill="#899BA3"/>
<path d="M0 16H4V20H0V16Z" fill="#899BA3"/>
<path d="M0 20H4V24H0V20Z" fill="#899BA3"/>
<path d="M0 20H4V24H0V20Z" fill="#899BA3"/>
<path d="M0 24H4V28H0V24Z" fill="#899BA3"/>
<path d="M0 28H4V32H0V28Z" fill="#899BA3"/>
<path d="M157 8.625V4L205 4V8.31667V32.375L201 36H191.906H187.292H182.739H157V31.375V8.625Z" fill="white"/>
<path d="M161 4H104V8H161V4Z" fill="white"/>
<path d="M161 8H104V12H161V8Z" fill="white"/>
<path d="M161 12H104V16H161V12Z" fill="white"/>
<path d="M161 16H104V20H161V16Z" fill="white"/>
<path d="M161 24H104V28H161V24Z" fill="white"/>
<path d="M161 20H104V24H161V20Z" fill="white"/>
<path d="M161 28H104V32H161V28Z" fill="white"/>
<path d="M161 32H104V36H161V32Z" fill="white"/>
<path d="M161 0H104V4H161V0Z" fill="#899BA3"/>
<path d="M161 40H104V36H161V40Z" fill="#899BA3"/>
<path d="M165 0H161V4H165V0Z" fill="#899BA3"/>
<path d="M165 40H161V36H165V40Z" fill="#899BA3"/>
<path d="M169 0H165V4H169V0Z" fill="#899BA3"/>
<path d="M169 40H165V36H169V40Z" fill="#899BA3"/>
<path d="M173 0H169V4H173V0Z" fill="#899BA3"/>
<path d="M173 40H169V36H173V40Z" fill="#899BA3"/>
<path d="M177 0H173V4H177V0Z" fill="#899BA3"/>
<path d="M177 40H173V36H177V40Z" fill="#899BA3"/>
<path d="M181 0H177V4H181V0Z" fill="#899BA3"/>
<path d="M181 40H177V36H181V40Z" fill="#899BA3"/>
<path d="M185 0H181V4H185V0Z" fill="#899BA3"/>
<path d="M185 40H181V36H185V40Z" fill="#899BA3"/>
<path d="M189 0H185V4H189V0Z" fill="#899BA3"/>
<path d="M189 40H185V36H189V40Z" fill="#899BA3"/>
<path d="M193 0H189V4H193V0Z" fill="#899BA3"/>
<path d="M193 40H189V36H193V40Z" fill="#899BA3"/>
<path d="M197 0H193V4H197V0Z" fill="#899BA3"/>
<path d="M197 40H193V36H197V40Z" fill="#899BA3"/>
<path d="M201 0H197V4H201V0Z" fill="#899BA3"/>
<path d="M201 40H197V36H201V40Z" fill="#899BA3"/>
<path d="M205 4H201V8H205V4Z" fill="#899BA3"/>
<path d="M205 36H201V32H205V36Z" fill="#899BA3"/>
<path d="M209 8H205V12H209V8Z" fill="#899BA3"/>
<path d="M209 12H205V16H209V12Z" fill="#899BA3"/>
<path d="M209 16H205V20H209V16Z" fill="#899BA3"/>
<path d="M209 20H205V24H209V20Z" fill="#899BA3"/>
<path d="M209 24H205V28H209V24Z" fill="#899BA3"/>
<path d="M209 28H205V32H209V28Z" fill="#899BA3"/>
<path d="M18.7143 14.2143H19.8929V15.3929H18.7143V14.2143ZM18.7143 15.3929H19.8929V16.5714H18.7143V15.3929ZM17.5357 15.3929H18.7143V16.5714H17.5357V15.3929ZM17.5357 14.2143H18.7143V15.3929H17.5357V14.2143ZM16.3571 14.2143H17.5357V15.3929H16.3571V14.2143ZM16.3571 15.3929H17.5357V16.5714H16.3571V15.3929ZM16.3571 16.5714H17.5357V17.75H16.3571V16.5714ZM15.1786 15.3929H16.3571V16.5714H15.1786V15.3929ZM15.1786 16.5714H16.3571V17.75H15.1786V16.5714ZM15.1786 17.75H16.3571V18.9286H15.1786V17.75ZM15.1786 18.9286H16.3571V20.1071H15.1786V18.9286ZM16.3571 18.9286H17.5357V20.1071H16.3571V18.9286ZM16.3571 17.75H17.5357V18.9286H16.3571V17.75ZM15.1786 24.8214H16.3571V26H15.1786V24.8214ZM15.1786 23.6429H16.3571V24.8214H15.1786V23.6429ZM15.1786 22.4643H16.3571V23.6429H15.1786V22.4643ZM15.1786 21.2857H16.3571V22.4643H15.1786V21.2857ZM15.1786 20.1071H16.3571V21.2857H15.1786V20.1071ZM16.3571 20.1071H17.5357V21.2857H16.3571V20.1071ZM16.3571 21.2857H17.5357V22.4643H16.3571V21.2857ZM16.3571 22.4643H17.5357V23.6429H16.3571V22.4643ZM16.3571 23.6429H17.5357V24.8214H16.3571V23.6429ZM16.3571 24.8214H17.5357V26H16.3571V24.8214ZM14 17.75H15.1786V18.9286H14V17.75ZM17.5357 17.75H18.7143V18.9286H17.5357V17.75ZM18.7143 17.75H19.8929V18.9286H18.7143V17.75ZM14 18.9286H15.1786V20.1071H14V18.9286ZM17.5357 18.9286H18.7143V20.1071H17.5357V18.9286ZM18.7143 18.9286H19.8929V20.1071H18.7143V18.9286ZM21.2884 17.75H22.4669V18.9286H21.2884V17.75ZM21.2884 16.5714H22.4669V17.75H21.2884V16.5714ZM22.4669 16.5714H23.6455V17.75H22.4669V16.5714ZM22.4669 17.75H23.6455V18.9286H22.4669V17.75ZM22.4669 18.9286H23.6455V20.1071H22.4669V18.9286ZM22.4669 20.1071H23.6455V21.2857H22.4669V20.1071ZM22.4669 21.2857H23.6455V22.4643H22.4669V21.2857ZM21.2884 21.2857H22.4669V22.4643H21.2884V21.2857ZM21.2884 20.1071H22.4669V21.2857H21.2884V20.1071ZM21.2884 18.9286H22.4669V20.1071H21.2884V18.9286ZM21.2884 22.4643H22.4669V23.6429H21.2884V22.4643ZM22.4669 22.4643H23.6455V23.6429H22.4669V22.4643ZM22.4669 23.6429H23.6455V24.8214H22.4669V23.6429ZM22.4669 24.8214H23.6455V26H22.4669V24.8214ZM21.2884 24.8214H22.4669V26H21.2884V24.8214ZM21.2884 23.6429H22.4669V24.8214H21.2884V23.6429ZM23.6455 17.75H24.8241V18.9286H23.6455V17.75ZM24.8241 17.75H26.0026V18.9286H24.8241V17.75ZM26.0026 17.75H27.1812V18.9286H26.0026V17.75ZM26.0026 16.5714H27.1812V17.75H26.0026V16.5714ZM24.8241 16.5714H26.0026V17.75H24.8241V16.5714ZM23.6455 18.9286H24.8241V20.1071H23.6455V18.9286ZM27.1812 17.75H28.3598V18.9286H27.1812V17.75ZM26.0026 18.9286H27.1812V20.1071H26.0026V18.9286ZM32.1155 16.5714H33.2941V17.75H32.1155V16.5714ZM30.9369 16.5714H32.1155V17.75H30.9369V16.5714ZM30.9369 17.75H32.1155V18.9286H30.9369V17.75ZM32.1155 17.75H33.2941V18.9286H32.1155V17.75ZM33.2941 16.5714H34.4726V17.75H33.2941V16.5714ZM34.4726 16.5714H35.6512V17.75H34.4726V16.5714ZM35.6512 16.5714H36.8298V17.75H35.6512V16.5714ZM35.6512 17.75H36.8298V18.9286H35.6512V17.75ZM34.4726 17.75H35.6512V18.9286H34.4726V17.75ZM35.6512 20.1071H36.8298V21.2857H35.6512V20.1071ZM36.8298 17.75H38.0084V18.9286H36.8298V17.75ZM36.8298 18.9286H38.0084V20.1071H36.8298V18.9286ZM36.8298 20.1071H38.0084V21.2857H36.8298V20.1071ZM36.8298 21.2857H38.0084V22.4643H36.8298V21.2857ZM36.8298 22.4643H38.0084V23.6429H36.8298V22.4643ZM36.8298 23.6429H38.0084V24.8214H36.8298V23.6429ZM35.6512 23.6429H36.8298V24.8214H35.6512V23.6429ZM35.6512 22.4643H36.8298V23.6429H35.6512V22.4643ZM35.6512 21.2857H36.8298V22.4643H35.6512V21.2857ZM35.6512 18.9286H36.8298V20.1071H35.6512V18.9286ZM34.4726 23.6429H35.6512V24.8214H34.4726V23.6429ZM35.6512 24.8214H36.8298V26H35.6512V24.8214ZM34.4726 24.8214H35.6512V26H34.4726V24.8214ZM33.2941 24.8214H34.4726V26H33.2941V24.8214ZM32.1155 24.8214H33.2941V26H32.1155V24.8214ZM30.9369 24.8214H32.1155V26H30.9369V24.8214ZM30.9369 23.6429H32.1155V24.8214H30.9369V23.6429ZM32.1155 23.6429H33.2941V24.8214H32.1155V23.6429ZM30.9369 22.4643H32.1155V23.6429H30.9369V22.4643ZM29.7584 23.6429H30.9369V24.8214H29.7584V23.6429ZM29.7584 22.4643H30.9369V23.6429H29.7584V22.4643ZM29.7584 21.2857H30.9369V22.4643H29.7584V21.2857ZM29.7584 20.1071H30.9369V21.2857H29.7584V20.1071ZM29.7584 18.9286H30.9369V20.1071H29.7584V18.9286ZM29.7584 17.75H30.9369V18.9286H29.7584V17.75ZM30.9369 18.9286H32.1155V20.1071H30.9369V18.9286ZM30.9369 20.1071H32.1155V21.2857H30.9369V20.1071ZM30.9369 21.2857H32.1155V22.4643H30.9369V21.2857ZM33.2941 23.6429H34.4726V24.8214H33.2941V23.6429ZM33.2941 17.75H34.4726V18.9286H33.2941V17.75ZM39.41 17.75H40.5886V18.9286H39.41V17.75ZM39.41 16.5714H40.5886V17.75H39.41V16.5714ZM40.5886 16.5714H41.7671V17.75H40.5886V16.5714ZM40.5886 17.75H41.7671V18.9286H40.5886V17.75ZM40.5886 18.9286H41.7671V20.1071H40.5886V18.9286ZM40.5886 20.1071H41.7671V21.2857H40.5886V20.1071ZM40.5886 21.2857H41.7671V22.4643H40.5886V21.2857ZM39.41 21.2857H40.5886V22.4643H39.41V21.2857ZM39.41 20.1071H40.5886V21.2857H39.41V20.1071ZM39.41 18.9286H40.5886V20.1071H39.41V18.9286ZM39.41 22.4643H40.5886V23.6429H39.41V22.4643ZM40.5886 22.4643H41.7671V23.6429H40.5886V22.4643ZM40.5886 23.6429H41.7671V24.8214H40.5886V23.6429ZM40.5886 24.8214H41.7671V26H40.5886V24.8214ZM39.41 24.8214H40.5886V26H39.41V24.8214ZM39.41 23.6429H40.5886V24.8214H39.41V23.6429ZM45.3029 24.8214H46.4814V26H45.3029V24.8214ZM46.4814 24.8214H47.66V26H46.4814V24.8214ZM46.4814 23.6429H47.66V24.8214H46.4814V23.6429ZM46.4814 22.4643H47.66V23.6429H46.4814V22.4643ZM46.4814 21.2857H47.66V22.4643H46.4814V21.2857ZM46.4814 20.1071H47.66V21.2857H46.4814V20.1071ZM46.4814 18.9286H47.66V20.1071H46.4814V18.9286ZM46.4814 17.75H47.66V18.9286H46.4814V17.75ZM45.3029 20.1071H46.4814V21.2857H45.3029V20.1071ZM45.3029 21.2857H46.4814V22.4643H45.3029V21.2857ZM45.3029 22.4643H46.4814V23.6429H45.3029V22.4643ZM45.3029 23.6429H46.4814V24.8214H45.3029V23.6429ZM45.3029 18.9286H46.4814V20.1071H45.3029V18.9286ZM41.7671 17.75H42.9457V18.9286H41.7671V17.75ZM42.9457 17.75H44.1243V18.9286H42.9457V17.75ZM44.1243 17.75H45.3029V18.9286H44.1243V17.75ZM44.1243 16.5714H45.3029V17.75H44.1243V16.5714ZM45.3029 16.5714H46.4814V17.75H45.3029V16.5714ZM45.3029 17.75H46.4814V18.9286H45.3029V17.75ZM42.9457 16.5714H44.1243V17.75H42.9457V16.5714ZM53.7759 23.6429H54.9545V24.8214H53.7759V23.6429ZM53.7759 24.8214H54.9545V26H53.7759V24.8214ZM52.5974 24.8214H53.7759V26H52.5974V24.8214ZM52.5974 23.6429H53.7759V24.8214H52.5974V23.6429ZM51.4188 24.8214H52.5974V26H51.4188V24.8214ZM51.4188 23.6429H52.5974V24.8214H51.4188V23.6429ZM50.2402 23.6429H51.4188V24.8214H50.2402V23.6429ZM50.2402 22.4643H51.4188V23.6429H50.2402V22.4643ZM50.2402 21.2857H51.4188V22.4643H50.2402V21.2857ZM50.2402 20.1071H51.4188V21.2857H50.2402V20.1071ZM50.2402 18.9286H51.4188V20.1071H50.2402V18.9286ZM50.2402 17.75H51.4188V18.9286H50.2402V17.75ZM51.4188 21.2857H52.5974V22.4643H51.4188V21.2857ZM51.4188 22.4643H52.5974V23.6429H51.4188V22.4643ZM51.4188 20.1071H52.5974V21.2857H51.4188V20.1071ZM51.4188 18.9286H52.5974V20.1071H51.4188V18.9286ZM51.4188 14.2143H52.5974V15.3929H51.4188V14.2143ZM51.4188 15.3929H52.5974V16.5714H51.4188V15.3929ZM51.4188 16.5714H52.5974V17.75H51.4188V16.5714ZM51.4188 17.75H52.5974V18.9286H51.4188V17.75ZM50.2402 16.5714H51.4188V17.75H50.2402V16.5714ZM49.0616 17.75H50.2402V18.9286H49.0616V17.75ZM52.5974 17.75H53.7759V18.9286H52.5974V17.75ZM53.7759 17.75H54.9545V18.9286H53.7759V17.75ZM50.2402 15.3929H51.4188V16.5714H50.2402V15.3929ZM49.0616 18.9286H50.2402V20.1071H49.0616V18.9286ZM52.5974 18.9286H53.7759V20.1071H52.5974V18.9286ZM53.7759 18.9286H54.9545V20.1071H53.7759V18.9286ZM58.7071 16.5714H59.8857V17.75H58.7071V16.5714ZM57.5286 16.5714H58.7071V17.75H57.5286V16.5714ZM57.5286 17.75H58.7071V18.9286H57.5286V17.75ZM58.7071 17.75H59.8857V18.9286H58.7071V17.75ZM59.8857 16.5714H61.0643V17.75H59.8857V16.5714ZM61.0643 16.5714H62.2429V17.75H61.0643V16.5714ZM62.2429 16.5714H63.4214V17.75H62.2429V16.5714ZM62.2429 17.75H63.4214V18.9286H62.2429V17.75ZM61.0643 17.75H62.2429V18.9286H61.0643V17.75ZM63.4214 17.75H64.6V18.9286H63.4214V17.75ZM63.4214 18.9286H64.6V20.1071H63.4214V18.9286ZM63.4214 23.6429H64.6V24.8214H63.4214V23.6429ZM62.2429 23.6429H63.4214V24.8214H62.2429V23.6429ZM62.2429 18.9286H63.4214V20.1071H62.2429V18.9286ZM61.0643 23.6429H62.2429V24.8214H61.0643V23.6429ZM62.2429 24.8214H63.4214V26H62.2429V24.8214ZM61.0643 24.8214H62.2429V26H61.0643V24.8214ZM59.8857 24.8214H61.0643V26H59.8857V24.8214ZM58.7071 24.8214H59.8857V26H58.7071V24.8214ZM57.5286 24.8214H58.7071V26H57.5286V24.8214ZM57.5286 23.6429H58.7071V24.8214H57.5286V23.6429ZM58.7071 23.6429H59.8857V24.8214H58.7071V23.6429ZM57.5286 22.4643H58.7071V23.6429H57.5286V22.4643ZM56.35 23.6429H57.5286V24.8214H56.35V23.6429ZM56.35 22.4643H57.5286V23.6429H56.35V22.4643ZM56.35 21.2857H57.5286V22.4643H56.35V21.2857ZM56.35 20.1071H57.5286V21.2857H56.35V20.1071ZM56.35 18.9286H57.5286V20.1071H56.35V18.9286ZM56.35 17.75H57.5286V18.9286H56.35V17.75ZM57.5286 18.9286H58.7071V20.1071H57.5286V18.9286ZM57.5286 20.1071H58.7071V21.2857H57.5286V20.1071ZM57.5286 21.2857H58.7071V22.4643H57.5286V21.2857ZM59.8857 23.6429H61.0643V24.8214H59.8857V23.6429ZM59.8857 17.75H61.0643V18.9286H59.8857V17.75ZM62.2429 20.1071H63.4214V21.2857H62.2429V20.1071ZM63.4214 20.1071H64.6V21.2857H63.4214V20.1071ZM58.7071 21.2857H59.8857V22.4643H58.7071V21.2857ZM59.8857 21.2857H61.0643V22.4643H59.8857V21.2857ZM61.0643 21.2857H62.2429V22.4643H61.0643V21.2857ZM62.2429 21.2857H63.4214V22.4643H62.2429V21.2857ZM63.4214 21.2857H64.6V22.4643H63.4214V21.2857ZM61.0643 20.1071H62.2429V21.2857H61.0643V20.1071ZM59.8857 20.1071H61.0643V21.2857H59.8857V20.1071ZM58.7071 20.1071H59.8857V21.2857H58.7071V20.1071ZM66.0016 17.75H67.1802V18.9286H66.0016V17.75ZM66.0016 16.5714H67.1802V17.75H66.0016V16.5714ZM67.1802 16.5714H68.3588V17.75H67.1802V16.5714ZM67.1802 17.75H68.3588V18.9286H67.1802V17.75ZM67.1802 18.9286H68.3588V20.1071H67.1802V18.9286ZM67.1802 20.1071H68.3588V21.2857H67.1802V20.1071ZM67.1802 21.2857H68.3588V22.4643H67.1802V21.2857ZM66.0016 21.2857H67.1802V22.4643H66.0016V21.2857ZM66.0016 20.1071H67.1802V21.2857H66.0016V20.1071ZM66.0016 18.9286H67.1802V20.1071H66.0016V18.9286ZM66.0016 22.4643H67.1802V23.6429H66.0016V22.4643ZM67.1802 22.4643H68.3588V23.6429H67.1802V22.4643ZM67.1802 23.6429H68.3588V24.8214H67.1802V23.6429ZM67.1802 24.8214H68.3588V26H67.1802V24.8214ZM66.0016 24.8214H67.1802V26H66.0016V24.8214ZM66.0016 23.6429H67.1802V24.8214H66.0016V23.6429ZM71.8945 24.8214H73.0731V26H71.8945V24.8214ZM73.0731 24.8214H74.2516V26H73.0731V24.8214ZM73.0731 23.6429H74.2516V24.8214H73.0731V23.6429ZM73.0731 22.4643H74.2516V23.6429H73.0731V22.4643ZM73.0731 21.2857H74.2516V22.4643H73.0731V21.2857ZM73.0731 20.1071H74.2516V21.2857H73.0731V20.1071ZM73.0731 18.9286H74.2516V20.1071H73.0731V18.9286ZM73.0731 17.75H74.2516V18.9286H73.0731V17.75ZM71.8945 20.1071H73.0731V21.2857H71.8945V20.1071ZM71.8945 21.2857H73.0731V22.4643H71.8945V21.2857ZM71.8945 22.4643H73.0731V23.6429H71.8945V22.4643ZM71.8945 23.6429H73.0731V24.8214H71.8945V23.6429ZM71.8945 18.9286H73.0731V20.1071H71.8945V18.9286ZM68.3588 17.75H69.5374V18.9286H68.3588V17.75ZM69.5374 17.75H70.7159V18.9286H69.5374V17.75ZM70.7159 17.75H71.8945V18.9286H70.7159V17.75ZM70.7159 16.5714H71.8945V17.75H70.7159V16.5714ZM71.8945 16.5714H73.0731V17.75H71.8945V16.5714ZM71.8945 17.75H73.0731V18.9286H71.8945V17.75ZM69.5374 16.5714H70.7159V17.75H69.5374V16.5714ZM83.9033 17.75V18.9286H82.7247V17.75H83.9033ZM83.9033 16.5714V17.75H82.7247V16.5714H83.9033ZM82.7247 16.5714V17.75H81.5461V16.5714H82.7247ZM82.7247 17.75V18.9286H81.5461V17.75H82.7247ZM82.7247 18.9286V20.1071H81.5461V18.9286H82.7247ZM82.7247 20.1071V21.2857H81.5461V20.1071H82.7247ZM82.7247 21.2857V22.4643H81.5461V21.2857H82.7247ZM83.9033 21.2857V22.4643H82.7247V21.2857H83.9033ZM83.9033 20.1071V21.2857H82.7247V20.1071H83.9033ZM83.9033 18.9286V20.1071H82.7247V18.9286H83.9033ZM83.9033 22.4643V23.6429H82.7247V22.4643H83.9033ZM82.7247 22.4643V23.6429H81.5461V22.4643H82.7247ZM82.7247 23.6429V24.8214H81.5461V23.6429H82.7247ZM82.7247 24.8214V26H81.5461V24.8214H82.7247ZM83.9033 24.8214V26H82.7247V24.8214H83.9033ZM83.9033 23.6429V24.8214H82.7247V23.6429H83.9033ZM78.0104 24.8214V26H76.8319V24.8214H78.0104ZM76.8319 23.6429V24.8214H75.6533V23.6429H76.8319ZM76.8319 22.4643V23.6429H75.6533V22.4643H76.8319ZM76.8319 21.2857V22.4643H75.6533V21.2857H76.8319ZM76.8319 20.1071V21.2857H75.6533V20.1071H76.8319ZM76.8319 18.9286V20.1071H75.6533V18.9286H76.8319ZM76.8319 17.75V18.9286H75.6533V17.75H76.8319ZM78.0104 20.1071V21.2857H76.8319V20.1071H78.0104ZM78.0104 21.2857V22.4643H76.8319V21.2857H78.0104ZM78.0104 22.4643V23.6429H76.8319V22.4643H78.0104ZM78.0104 23.6429V24.8214H76.8319V23.6429H78.0104ZM78.0104 18.9286V20.1071H76.8319V18.9286H78.0104ZM79.189 17.75V18.9286H78.0104V17.75H79.189ZM79.189 16.5714V17.75H78.0104V16.5714H79.189ZM78.0104 16.5714V17.75H76.8319V16.5714H78.0104ZM78.0104 17.75V18.9286H76.8319V17.75H78.0104ZM80.3676 16.5714V17.75H79.189V16.5714H80.3676ZM83.9033 14.2143V15.3929H82.7247V14.2143H83.9033ZM82.7247 14.2143V15.3929H81.5461V14.2143H82.7247ZM82.7247 15.3929V16.5714H81.5461V15.3929H82.7247ZM83.9033 15.3929V16.5714H82.7247V15.3929H83.9033ZM80.3676 24.8214V26H79.189V24.8214H80.3676ZM79.189 24.8214V26H78.0104V24.8214H79.189ZM79.189 23.6429V24.8214H78.0104V23.6429H79.189ZM80.3676 23.6429V24.8214H79.189V23.6429H80.3676ZM81.5461 23.6429V24.8214H80.3676V23.6429H81.5461ZM81.5461 16.5714V17.75H80.3676V16.5714H81.5461ZM81.5461 17.75V18.9286H80.3676V17.75H81.5461ZM80.3676 17.75V18.9286H79.189V17.75H80.3676ZM90.0192 14.2143H91.1978V15.3929H90.0192V14.2143ZM90.0192 15.3929H91.1978V16.5714H90.0192V15.3929ZM88.8406 15.3929H90.0192V16.5714H88.8406V15.3929ZM88.8406 14.2143H90.0192V15.3929H88.8406V14.2143ZM90.0192 16.5714H91.1978V17.75H90.0192V16.5714ZM88.8406 16.5714H90.0192V17.75H88.8406V16.5714ZM88.8406 17.75H90.0192V18.9286H88.8406V17.75ZM88.8406 18.9286H90.0192V20.1071H88.8406V18.9286ZM88.8406 20.1071H90.0192V21.2857H88.8406V20.1071ZM87.6621 20.1071H88.8406V21.2857H87.6621V20.1071ZM87.6621 18.9286H88.8406V20.1071H87.6621V18.9286ZM87.6621 17.75H88.8406V18.9286H87.6621V17.75ZM87.6621 21.2857H88.8406V22.4643H87.6621V21.2857ZM87.6621 22.4643H88.8406V23.6429H87.6621V22.4643ZM87.6621 23.6429H88.8406V24.8214H87.6621V23.6429ZM86.4835 23.6429H87.6621V24.8214H86.4835V23.6429ZM86.4835 22.4643H87.6621V23.6429H86.4835V22.4643ZM86.4835 21.2857H87.6621V22.4643H86.4835V21.2857ZM86.4835 24.8214H87.6621V26H86.4835V24.8214ZM86.4835 26H87.6621V27.1786H86.4835V26ZM86.4835 27.1786H87.6621V28.3571H86.4835V27.1786ZM85.3049 27.1786H86.4835V28.3571H85.3049V27.1786ZM85.3049 26H86.4835V27.1786H85.3049V26ZM85.3049 24.8214H86.4835V26H85.3049V24.8214ZM100.843 17.75V18.9286H99.6647V17.75H100.843ZM100.843 16.5714V17.75H99.6647V16.5714H100.843ZM99.6647 16.5714V17.75H98.4861V16.5714H99.6647ZM99.6647 17.75V18.9286H98.4861V17.75H99.6647ZM99.6647 18.9286V20.1071H98.4861V18.9286H99.6647ZM99.6647 20.1071V21.2857H98.4861V20.1071H99.6647ZM99.6647 21.2857V22.4643H98.4861V21.2857H99.6647ZM100.843 21.2857V22.4643H99.6647V21.2857H100.843ZM100.843 20.1071V21.2857H99.6647V20.1071H100.843ZM100.843 18.9286V20.1071H99.6647V18.9286H100.843ZM100.843 22.4643V23.6429H99.6647V22.4643H100.843ZM99.6647 22.4643V23.6429H98.4861V22.4643H99.6647ZM99.6647 23.6429V24.8214H98.4861V23.6429H99.6647ZM99.6647 24.8214V26H98.4861V24.8214H99.6647ZM100.843 24.8214V26H99.6647V24.8214H100.843ZM100.843 23.6429V24.8214H99.6647V23.6429H100.843ZM94.9504 24.8214V26H93.7719V24.8214H94.9504ZM93.7719 23.6429V24.8214H92.5933V23.6429H93.7719ZM93.7719 22.4643V23.6429H92.5933V22.4643H93.7719ZM93.7719 21.2857V22.4643H92.5933V21.2857H93.7719ZM93.7719 20.1071V21.2857H92.5933V20.1071H93.7719ZM93.7719 18.9286V20.1071H92.5933V18.9286H93.7719ZM93.7719 17.75V18.9286H92.5933V17.75H93.7719ZM94.9504 20.1071V21.2857H93.7719V20.1071H94.9504ZM94.9504 21.2857V22.4643H93.7719V21.2857H94.9504ZM94.9504 22.4643V23.6429H93.7719V22.4643H94.9504ZM94.9504 23.6429V24.8214H93.7719V23.6429H94.9504ZM94.9504 18.9286V20.1071H93.7719V18.9286H94.9504ZM96.129 17.75V18.9286H94.9504V17.75H96.129ZM96.129 16.5714V17.75H94.9504V16.5714H96.129ZM94.9504 16.5714V17.75H93.7719V16.5714H94.9504ZM94.9504 17.75V18.9286H93.7719V17.75H94.9504ZM97.3076 16.5714V17.75H96.129V16.5714H97.3076ZM97.3076 24.8214V26H96.129V24.8214H97.3076ZM96.129 24.8214V26H94.9504V24.8214H96.129ZM96.129 23.6429V24.8214H94.9504V23.6429H96.129ZM97.3076 23.6429V24.8214H96.129V23.6429H97.3076ZM98.4861 23.6429V24.8214H97.3076V23.6429H98.4861ZM98.4861 16.5714V17.75H97.3076V16.5714H98.4861ZM98.4861 17.75V18.9286H97.3076V17.75H98.4861ZM97.3076 17.75V18.9286H96.129V17.75H97.3076ZM100.843 26V27.1786H99.6647V26H100.843ZM99.6647 26V27.1786H98.4861V26H99.6647ZM99.6647 27.1786V28.3571H98.4861V27.1786H99.6647ZM100.843 27.1786V28.3571H99.6647V27.1786H100.843ZM109.316 26H108.138V24.8214H109.316V26ZM109.316 24.8214H108.138V23.6429H109.316V24.8214ZM108.138 24.8214H106.959V23.6429H108.138V24.8214ZM106.959 26H105.781V24.8214H106.959V26ZM105.781 26H104.602V24.8214H105.781V26ZM104.602 26H103.423V24.8214H104.602V26ZM104.602 24.8214H103.423V23.6429H104.602V24.8214ZM105.781 24.8214H104.602V23.6429H105.781V24.8214ZM103.423 24.8214H102.245V23.6429H103.423V24.8214ZM103.423 23.6429H102.245V22.4643H103.423V23.6429ZM103.423 18.9286H102.245V17.75H103.423V18.9286ZM104.602 18.9286H103.423V17.75H104.602V18.9286ZM104.602 23.6429H103.423V22.4643H104.602V23.6429ZM105.781 18.9286H104.602V17.75H105.781V18.9286ZM104.602 17.75H103.423V16.5714H104.602V17.75ZM105.781 17.75H104.602V16.5714H105.781V17.75ZM106.959 17.75H105.781V16.5714H106.959V17.75ZM108.138 17.75H106.959V16.5714H108.138V17.75ZM109.316 17.75H108.138V16.5714H109.316V17.75ZM109.316 18.9286H108.138V17.75H109.316V18.9286ZM108.138 18.9286H106.959V17.75H108.138V18.9286ZM109.316 20.1071H108.138V18.9286H109.316V20.1071ZM110.495 18.9286H109.316V17.75H110.495V18.9286ZM110.495 20.1071H109.316V18.9286H110.495V20.1071ZM110.495 21.2857H109.316V20.1071H110.495V21.2857ZM110.495 22.4643H109.316V21.2857H110.495V22.4643ZM110.495 23.6429H109.316V22.4643H110.495V23.6429ZM110.495 24.8214H109.316V23.6429H110.495V24.8214ZM109.316 23.6429H108.138V22.4643H109.316V23.6429ZM109.316 22.4643H108.138V21.2857H109.316V22.4643ZM109.316 21.2857H108.138V20.1071H109.316V21.2857ZM106.959 18.9286H105.781V17.75H106.959V18.9286ZM106.959 24.8214H105.781V23.6429H106.959V24.8214ZM109.316 24.8214H110.495V26H109.316V24.8214ZM106.959 20.1071H108.138V21.2857H106.959V20.1071ZM105.781 20.1071H106.959V21.2857H105.781V20.1071ZM104.602 20.1071H105.781V21.2857H104.602V20.1071ZM103.423 20.1071H104.602V21.2857H103.423V20.1071ZM102.245 21.2857H103.423V22.4643H102.245V21.2857ZM103.423 21.2857H104.602V22.4643H103.423V21.2857ZM106.959 21.2857H108.138V22.4643H106.959V21.2857ZM105.781 21.2857H106.959V22.4643H105.781V21.2857ZM104.602 21.2857H105.781V22.4643H104.602V21.2857ZM111.897 17.75H113.075V18.9286H111.897V17.75ZM111.897 16.5714H113.075V17.75H111.897V16.5714ZM113.075 16.5714H114.254V17.75H113.075V16.5714ZM113.075 17.75H114.254V18.9286H113.075V17.75ZM113.075 18.9286H114.254V20.1071H113.075V18.9286ZM113.075 20.1071H114.254V21.2857H113.075V20.1071ZM113.075 21.2857H114.254V22.4643H113.075V21.2857ZM111.897 21.2857H113.075V22.4643H111.897V21.2857ZM111.897 20.1071H113.075V21.2857H111.897V20.1071ZM111.897 18.9286H113.075V20.1071H111.897V18.9286ZM111.897 22.4643H113.075V23.6429H111.897V22.4643ZM113.075 22.4643H114.254V23.6429H113.075V22.4643ZM113.075 23.6429H114.254V24.8214H113.075V23.6429ZM113.075 24.8214H114.254V26H113.075V24.8214ZM111.897 24.8214H113.075V26H111.897V24.8214ZM111.897 23.6429H113.075V24.8214H111.897V23.6429ZM117.789 24.8214H118.968V26H117.789V24.8214ZM118.968 23.6429H120.147V24.8214H118.968V23.6429ZM118.968 22.4643H120.147V23.6429H118.968V22.4643ZM118.968 21.2857H120.147V22.4643H118.968V21.2857ZM118.968 20.1071H120.147V21.2857H118.968V20.1071ZM118.968 18.9286H120.147V20.1071H118.968V18.9286ZM118.968 17.75H120.147V18.9286H118.968V17.75ZM117.789 20.1071H118.968V21.2857H117.789V20.1071ZM117.789 21.2857H118.968V22.4643H117.789V21.2857ZM117.789 22.4643H118.968V23.6429H117.789V22.4643ZM117.789 23.6429H118.968V24.8214H117.789V23.6429ZM117.789 18.9286H118.968V20.1071H117.789V18.9286ZM114.254 17.75H115.432V18.9286H114.254V17.75ZM115.432 17.75H116.611V18.9286H115.432V17.75ZM116.611 17.75H117.789V18.9286H116.611V17.75ZM116.611 16.5714H117.789V17.75H116.611V16.5714ZM117.789 16.5714H118.968V17.75H117.789V16.5714ZM117.789 17.75H118.968V18.9286H117.789V17.75ZM115.432 16.5714H116.611V17.75H115.432V16.5714ZM114.254 24.8214H115.432V26H114.254V24.8214ZM115.432 24.8214H116.611V26H115.432V24.8214ZM116.611 24.8214H117.789V26H116.611V24.8214ZM116.611 23.6429H117.789V24.8214H116.611V23.6429ZM115.432 23.6429H116.611V24.8214H115.432V23.6429ZM114.254 23.6429H115.432V24.8214H114.254V23.6429ZM111.897 26H113.075V27.1786H111.897V26ZM113.075 26H114.254V27.1786H113.075V26ZM113.075 27.1786H114.254V28.3571H113.075V27.1786ZM111.897 27.1786H113.075V28.3571H111.897V27.1786ZM121.548 18.9286H122.727V20.1071H121.548V18.9286ZM122.727 18.9286H123.905V20.1071H122.727V18.9286ZM123.905 18.9286H125.084V20.1071H123.905V18.9286ZM125.084 18.9286H126.262V20.1071H125.084V18.9286ZM126.262 18.9286H127.441V20.1071H126.262V18.9286ZM127.441 18.9286H128.62V20.1071H127.441V18.9286ZM127.441 20.1071H128.62V21.2857H127.441V20.1071ZM126.262 20.1071H127.441V21.2857H126.262V20.1071ZM125.084 20.1071H126.262V21.2857H125.084V20.1071ZM123.905 20.1071H125.084V21.2857H123.905V20.1071ZM122.727 20.1071H123.905V21.2857H122.727V20.1071ZM121.548 20.1071H122.727V21.2857H121.548V20.1071ZM132.375 16.5714H133.554V17.75H132.375V16.5714ZM131.197 16.5714H132.375V17.75H131.197V16.5714ZM131.197 17.75H132.375V18.9286H131.197V17.75ZM132.375 17.75H133.554V18.9286H132.375V17.75ZM133.554 16.5714H134.732V17.75H133.554V16.5714ZM134.732 16.5714H135.911V17.75H134.732V16.5714ZM135.911 16.5714H137.09V17.75H135.911V16.5714ZM135.911 17.75H137.09V18.9286H135.911V17.75ZM134.732 17.75H135.911V18.9286H134.732V17.75ZM137.09 17.75H138.268V18.9286H137.09V17.75ZM137.09 18.9286H138.268V20.1071H137.09V18.9286ZM137.09 22.4643H138.268V23.6429H137.09V22.4643ZM137.09 23.6429H138.268V24.8214H137.09V23.6429ZM135.911 23.6429H137.09V24.8214H135.911V23.6429ZM135.911 22.4643H137.09V23.6429H135.911V22.4643ZM135.911 18.9286H137.09V20.1071H135.911V18.9286ZM134.732 23.6429H135.911V24.8214H134.732V23.6429ZM135.911 24.8214H137.09V26H135.911V24.8214ZM134.732 24.8214H135.911V26H134.732V24.8214ZM133.554 24.8214H134.732V26H133.554V24.8214ZM132.375 24.8214H133.554V26H132.375V24.8214ZM131.197 24.8214H132.375V26H131.197V24.8214ZM131.197 23.6429H132.375V24.8214H131.197V23.6429ZM132.375 23.6429H133.554V24.8214H132.375V23.6429ZM131.197 22.4643H132.375V23.6429H131.197V22.4643ZM130.018 23.6429H131.197V24.8214H130.018V23.6429ZM130.018 22.4643H131.197V23.6429H130.018V22.4643ZM130.018 21.2857H131.197V22.4643H130.018V21.2857ZM130.018 20.1071H131.197V21.2857H130.018V20.1071ZM130.018 18.9286H131.197V20.1071H130.018V18.9286ZM130.018 17.75H131.197V18.9286H130.018V17.75ZM131.197 18.9286H132.375V20.1071H131.197V18.9286ZM131.197 20.1071H132.375V21.2857H131.197V20.1071ZM131.197 21.2857H132.375V22.4643H131.197V21.2857ZM133.554 23.6429H134.732V24.8214H133.554V23.6429ZM133.554 17.75H134.732V18.9286H133.554V17.75ZM142.027 16.5714H143.206V17.75H142.027V16.5714ZM140.848 16.5714H142.027V17.75H140.848V16.5714ZM140.848 17.75H142.027V18.9286H140.848V17.75ZM142.027 17.75H143.206V18.9286H142.027V17.75ZM143.206 16.5714H144.384V17.75H143.206V16.5714ZM144.384 16.5714H145.563V17.75H144.384V16.5714ZM145.563 16.5714H146.741V17.75H145.563V16.5714ZM145.563 17.75H146.741V18.9286H145.563V17.75ZM144.384 17.75H145.563V18.9286H144.384V17.75ZM145.563 20.1071H146.741V21.2857H145.563V20.1071ZM146.741 17.75H147.92V18.9286H146.741V17.75ZM146.741 18.9286H147.92V20.1071H146.741V18.9286ZM146.741 20.1071H147.92V21.2857H146.741V20.1071ZM146.741 21.2857H147.92V22.4643H146.741V21.2857ZM146.741 22.4643H147.92V23.6429H146.741V22.4643ZM146.741 23.6429H147.92V24.8214H146.741V23.6429ZM145.563 23.6429H146.741V24.8214H145.563V23.6429ZM145.563 22.4643H146.741V23.6429H145.563V22.4643ZM145.563 21.2857H146.741V22.4643H145.563V21.2857ZM145.563 18.9286H146.741V20.1071H145.563V18.9286ZM144.384 23.6429H145.563V24.8214H144.384V23.6429ZM145.563 24.8214H146.741V26H145.563V24.8214ZM144.384 24.8214H145.563V26H144.384V24.8214ZM143.206 24.8214H144.384V26H143.206V24.8214ZM142.027 24.8214H143.206V26H142.027V24.8214ZM140.848 24.8214H142.027V26H140.848V24.8214ZM140.848 23.6429H142.027V24.8214H140.848V23.6429ZM142.027 23.6429H143.206V24.8214H142.027V23.6429ZM140.848 22.4643H142.027V23.6429H140.848V22.4643ZM139.67 23.6429H140.848V24.8214H139.67V23.6429ZM139.67 22.4643H140.848V23.6429H139.67V22.4643ZM139.67 21.2857H140.848V22.4643H139.67V21.2857ZM139.67 20.1071H140.848V21.2857H139.67V20.1071ZM139.67 18.9286H140.848V20.1071H139.67V18.9286ZM139.67 17.75H140.848V18.9286H139.67V17.75ZM140.848 18.9286H142.027V20.1071H140.848V18.9286ZM140.848 20.1071H142.027V21.2857H140.848V20.1071ZM140.848 21.2857H142.027V22.4643H140.848V21.2857ZM143.206 23.6429H144.384V24.8214H143.206V23.6429ZM143.206 17.75H144.384V18.9286H143.206V17.75ZM149.321 17.75H150.5V18.9286H149.321V17.75ZM149.321 16.5714H150.5V17.75H149.321V16.5714ZM150.5 16.5714H151.679V17.75H150.5V16.5714ZM150.5 17.75H151.679V18.9286H150.5V17.75ZM150.5 18.9286H151.679V20.1071H150.5V18.9286ZM150.5 20.1071H151.679V21.2857H150.5V20.1071ZM150.5 21.2857H151.679V22.4643H150.5V21.2857ZM149.321 21.2857H150.5V22.4643H149.321V21.2857ZM149.321 20.1071H150.5V21.2857H149.321V20.1071ZM149.321 18.9286H150.5V20.1071H149.321V18.9286ZM149.321 22.4643H150.5V23.6429H149.321V22.4643ZM150.5 22.4643H151.679V23.6429H150.5V22.4643ZM150.5 23.6429H151.679V24.8214H150.5V23.6429ZM150.5 24.8214H151.679V26H150.5V24.8214ZM149.321 24.8214H150.5V26H149.321V24.8214ZM149.321 23.6429H150.5V24.8214H149.321V23.6429ZM154.036 24.8214H155.214V26H154.036V24.8214ZM155.214 24.8214H156.393V26H155.214V24.8214ZM155.214 23.6429H156.393V24.8214H155.214V23.6429ZM155.214 22.4643H156.393V23.6429H155.214V22.4643ZM155.214 21.2857H156.393V22.4643H155.214V21.2857ZM155.214 20.1071H156.393V21.2857H155.214V20.1071ZM155.214 18.9286H156.393V20.1071H155.214V18.9286ZM155.214 17.75H156.393V18.9286H155.214V17.75ZM154.036 20.1071H155.214V21.2857H154.036V20.1071ZM154.036 21.2857H155.214V22.4643H154.036V21.2857ZM154.036 22.4643H155.214V23.6429H154.036V22.4643ZM154.036 23.6429H155.214V24.8214H154.036V23.6429ZM154.036 18.9286H155.214V20.1071H154.036V18.9286ZM151.679 17.75H152.857V18.9286H151.679V17.75ZM152.857 17.75H154.036V18.9286H152.857V17.75ZM154.036 16.5714H155.214V17.75H154.036V16.5714ZM154.036 17.75H155.214V18.9286H154.036V17.75ZM152.857 16.5714H154.036V17.75H152.857V16.5714ZM158.75 24.8214H159.929V26H158.75V24.8214ZM159.929 24.8214H161.107V26H159.929V24.8214ZM159.929 23.6429H161.107V24.8214H159.929V23.6429ZM159.929 22.4643H161.107V23.6429H159.929V22.4643ZM159.929 21.2857H161.107V22.4643H159.929V21.2857ZM159.929 20.1071H161.107V21.2857H159.929V20.1071ZM159.929 18.9286H161.107V20.1071H159.929V18.9286ZM159.929 17.75H161.107V18.9286H159.929V17.75ZM158.75 20.1071H159.929V21.2857H158.75V20.1071ZM158.75 21.2857H159.929V22.4643H158.75V21.2857ZM158.75 22.4643H159.929V23.6429H158.75V22.4643ZM158.75 23.6429H159.929V24.8214H158.75V23.6429ZM158.75 18.9286H159.929V20.1071H158.75V18.9286ZM156.393 17.75H157.571V18.9286H156.393V17.75ZM157.571 17.75H158.75V18.9286H157.571V17.75ZM158.75 16.5714H159.929V17.75H158.75V16.5714ZM158.75 17.75H159.929V18.9286H158.75V17.75ZM157.571 16.5714H158.75V17.75H157.571V16.5714ZM162.497 17.75H163.675V18.9286H162.497V17.75ZM162.497 16.5714H163.675V17.75H162.497V16.5714ZM163.675 16.5714H164.854V17.75H163.675V16.5714ZM163.675 17.75H164.854V18.9286H163.675V17.75ZM163.675 18.9286H164.854V20.1071H163.675V18.9286ZM163.675 20.1071H164.854V21.2857H163.675V20.1071ZM163.675 21.2857H164.854V22.4643H163.675V21.2857ZM162.497 21.2857H163.675V22.4643H162.497V21.2857ZM162.497 20.1071H163.675V21.2857H162.497V20.1071ZM162.497 18.9286H163.675V20.1071H162.497V18.9286ZM162.497 22.4643H163.675V23.6429H162.497V22.4643ZM163.675 22.4643H164.854V23.6429H163.675V22.4643ZM163.675 23.6429H164.854V24.8214H163.675V23.6429ZM163.675 24.8214H164.854V26H163.675V24.8214ZM162.497 24.8214H163.675V26H162.497V24.8214ZM162.497 23.6429H163.675V24.8214H162.497V23.6429ZM168.389 24.8214H169.568V26H168.389V24.8214ZM169.568 23.6429H170.747V24.8214H169.568V23.6429ZM169.568 22.4643H170.747V23.6429H169.568V22.4643ZM169.568 21.2857H170.747V22.4643H169.568V21.2857ZM169.568 20.1071H170.747V21.2857H169.568V20.1071ZM169.568 18.9286H170.747V20.1071H169.568V18.9286ZM169.568 17.75H170.747V18.9286H169.568V17.75ZM168.389 20.1071H169.568V21.2857H168.389V20.1071ZM168.389 21.2857H169.568V22.4643H168.389V21.2857ZM168.389 22.4643H169.568V23.6429H168.389V22.4643ZM168.389 23.6429H169.568V24.8214H168.389V23.6429ZM168.389 18.9286H169.568V20.1071H168.389V18.9286ZM164.854 17.75H166.032V18.9286H164.854V17.75ZM166.032 17.75H167.211V18.9286H166.032V17.75ZM167.211 17.75H168.389V18.9286H167.211V17.75ZM167.211 16.5714H168.389V17.75H167.211V16.5714ZM168.389 16.5714H169.568V17.75H168.389V16.5714ZM168.389 17.75H169.568V18.9286H168.389V17.75ZM166.032 16.5714H167.211V17.75H166.032V16.5714ZM164.854 24.8214H166.032V26H164.854V24.8214ZM166.032 24.8214H167.211V26H166.032V24.8214ZM167.211 24.8214H168.389V26H167.211V24.8214ZM167.211 23.6429H168.389V24.8214H167.211V23.6429ZM166.032 23.6429H167.211V24.8214H166.032V23.6429ZM164.854 23.6429H166.032V24.8214H164.854V23.6429ZM162.497 26H163.675V27.1786H162.497V26ZM163.675 26H164.854V27.1786H163.675V26ZM163.675 27.1786H164.854V28.3571H163.675V27.1786ZM162.497 27.1786H163.675V28.3571H162.497V27.1786ZM172.148 14.2143H174.505V16.5714H172.148V14.2143ZM172.148 17.75H174.505V26H172.148V17.75ZM175.913 14.2143H177.092V15.3929H175.913V14.2143ZM177.092 14.2143H178.27V15.3929H177.092V14.2143ZM177.092 15.3929H178.27V16.5714H177.092V15.3929ZM177.092 16.5714H178.27V17.75H177.092V16.5714ZM177.092 17.75H178.27V18.9286H177.092V17.75ZM177.092 18.9286H178.27V20.1071H177.092V18.9286ZM177.092 20.1071H178.27V21.2857H177.092V20.1071ZM175.913 20.1071H177.092V21.2857H175.913V20.1071ZM175.913 21.2857H177.092V22.4643H175.913V21.2857ZM175.913 22.4643H177.092V23.6429H175.913V22.4643ZM175.913 23.6429H177.092V24.8214H175.913V23.6429ZM175.913 24.8214H177.092V26H175.913V24.8214ZM177.092 24.8214H178.27V26H177.092V24.8214ZM177.092 23.6429H178.27V24.8214H177.092V23.6429ZM177.092 22.4643H178.27V23.6429H177.092V22.4643ZM177.092 21.2857H178.27V22.4643H177.092V21.2857ZM175.913 18.9286H177.092V20.1071H175.913V18.9286ZM175.913 17.75H177.092V18.9286H175.913V17.75ZM175.913 16.5714H177.092V17.75H175.913V16.5714ZM175.913 15.3929H177.092V16.5714H175.913V15.3929ZM182.035 16.5714H183.214V17.75H182.035V16.5714ZM180.857 16.5714H182.035V17.75H180.857V16.5714ZM180.857 17.75H182.035V18.9286H180.857V17.75ZM182.035 17.75H183.214V18.9286H182.035V17.75ZM183.214 16.5714H184.392V17.75H183.214V16.5714ZM184.392 16.5714H185.571V17.75H184.392V16.5714ZM185.571 16.5714H186.749V17.75H185.571V16.5714ZM185.571 17.75H186.749V18.9286H185.571V17.75ZM184.392 17.75H185.571V18.9286H184.392V17.75ZM186.749 17.75H187.928V18.9286H186.749V17.75ZM186.749 18.9286H187.928V20.1071H186.749V18.9286ZM186.749 23.6429H187.928V24.8214H186.749V23.6429ZM185.571 23.6429H186.749V24.8214H185.571V23.6429ZM185.571 18.9286H186.749V20.1071H185.571V18.9286ZM184.392 23.6429H185.571V24.8214H184.392V23.6429ZM185.571 24.8214H186.749V26H185.571V24.8214ZM184.392 24.8214H185.571V26H184.392V24.8214ZM183.214 24.8214H184.392V26H183.214V24.8214ZM182.035 24.8214H183.214V26H182.035V24.8214ZM180.857 24.8214H182.035V26H180.857V24.8214ZM180.857 23.6429H182.035V24.8214H180.857V23.6429ZM182.035 23.6429H183.214V24.8214H182.035V23.6429ZM180.857 22.4643H182.035V23.6429H180.857V22.4643ZM179.678 23.6429H180.857V24.8214H179.678V23.6429ZM179.678 22.4643H180.857V23.6429H179.678V22.4643ZM179.678 21.2857H180.857V22.4643H179.678V21.2857ZM179.678 20.1071H180.857V21.2857H179.678V20.1071ZM179.678 18.9286H180.857V20.1071H179.678V18.9286ZM179.678 17.75H180.857V18.9286H179.678V17.75ZM180.857 18.9286H182.035V20.1071H180.857V18.9286ZM180.857 20.1071H182.035V21.2857H180.857V20.1071ZM180.857 21.2857H182.035V22.4643H180.857V21.2857ZM183.214 23.6429H184.392V24.8214H183.214V23.6429ZM183.214 17.75H184.392V18.9286H183.214V17.75ZM185.571 20.1071H186.749V21.2857H185.571V20.1071ZM186.749 20.1071H187.928V21.2857H186.749V20.1071ZM182.035 21.2857H183.214V22.4643H182.035V21.2857ZM183.214 21.2857H184.392V22.4643H183.214V21.2857ZM184.392 21.2857H185.571V22.4643H184.392V21.2857ZM185.571 21.2857H186.749V22.4643H185.571V21.2857ZM186.749 21.2857H187.928V22.4643H186.749V21.2857ZM184.392 20.1071H185.571V21.2857H184.392V20.1071ZM183.214 20.1071H184.392V21.2857H183.214V20.1071ZM182.035 20.1071H183.214V21.2857H182.035V20.1071ZM189.33 17.75H190.508V18.9286H189.33V17.75ZM189.33 16.5714H190.508V17.75H189.33V16.5714ZM190.508 16.5714H191.687V17.75H190.508V16.5714ZM190.508 17.75H191.687V18.9286H190.508V17.75ZM190.508 18.9286H191.687V20.1071H190.508V18.9286ZM190.508 20.1071H191.687V21.2857H190.508V20.1071ZM190.508 21.2857H191.687V22.4643H190.508V21.2857ZM189.33 21.2857H190.508V22.4643H189.33V21.2857ZM189.33 20.1071H190.508V21.2857H189.33V20.1071ZM189.33 18.9286H190.508V20.1071H189.33V18.9286ZM189.33 22.4643H190.508V23.6429H189.33V22.4643ZM190.508 22.4643H191.687V23.6429H190.508V22.4643ZM190.508 23.6429H191.687V24.8214H190.508V23.6429ZM190.508 24.8214H191.687V26H190.508V24.8214ZM189.33 24.8214H190.508V26H189.33V24.8214ZM189.33 23.6429H190.508V24.8214H189.33V23.6429ZM191.687 17.75H192.865V18.9286H191.687V17.75ZM192.865 17.75H194.044V18.9286H192.865V17.75ZM194.044 17.75H195.223V18.9286H194.044V17.75ZM194.044 16.5714H195.223V17.75H194.044V16.5714ZM192.865 16.5714H194.044V17.75H192.865V16.5714ZM191.687 18.9286H192.865V20.1071H191.687V18.9286ZM195.223 17.75H196.401V18.9286H195.223V17.75ZM194.044 18.9286H195.223V20.1071H194.044V18.9286Z" fill="#EA893A"/>
</svg>
