<svg width="197" height="48" viewBox="0 0 197 48" fill="none" xmlns="http://www.w3.org/2000/svg">
<path d="M52 8.61538V4H8.00001L4 8.30769V31.6923L8.00001 36L12 40L16 44H20L24 40L26.2612 36.3077H52V31.6923V8.61538Z" fill="white"/>
<path d="M48 0H120V4H48V0Z" fill="#899BA3"/>
<path d="M48 4H120V8H48V4Z" fill="white"/>
<path d="M48 8H120V12H48V8Z" fill="white"/>
<path d="M48 12H120V16H48V12Z" fill="white"/>
<path d="M48 16H120V20H48V16Z" fill="white"/>
<path d="M48 24H120V28H48V24Z" fill="white"/>
<path d="M48 20H120V24H48V20Z" fill="white"/>
<path d="M48 28H120V32H48V28Z" fill="white"/>
<path d="M48 32H120V36H48V32Z" fill="white"/>
<path d="M48 40H120V36H48V40Z" fill="#899BA3"/>
<path d="M44 0H48V4H44V0Z" fill="#899BA3"/>
<path d="M44 40H48V36H44V40Z" fill="#899BA3"/>
<path d="M40 0H44V4H40V0Z" fill="#899BA3"/>
<path d="M40 40H44V36H40V40Z" fill="#899BA3"/>
<path d="M36 0H40V4H36V0Z" fill="#899BA3"/>
<path d="M36 40H40V36H36V40Z" fill="#899BA3"/>
<path d="M32 0H36V4H32V0Z" fill="#899BA3"/>
<path d="M32 40H36V36H32V40Z" fill="#899BA3"/>
<path d="M28 0H32V4H28V0Z" fill="#899BA3"/>
<path d="M28 40H32V36H28V40Z" fill="#899BA3"/>
<path d="M24 0H28V4H24V0Z" fill="#899BA3"/>
<path d="M24 40H28V36H24V40Z" fill="#899BA3"/>
<path d="M20 0H24V4H20V0Z" fill="#899BA3"/>
<path d="M20 44H24V40H20V44Z" fill="#899BA3"/>
<path d="M16 0H20V4H16V0Z" fill="#899BA3"/>
<path d="M16 48H20V44H16V48Z" fill="#899BA3"/>
<path d="M12 0H16V4H12V0Z" fill="#899BA3"/>
<path d="M12 44H16V40H12V44Z" fill="#899BA3"/>
<path d="M8 0H12V4H8V0Z" fill="#899BA3"/>
<path d="M8 40H12V36H8V40Z" fill="#899BA3"/>
<path d="M4 4H8V8H4V4Z" fill="#899BA3"/>
<path d="M4 36H8V32H4V36Z" fill="#899BA3"/>
<path d="M0 8H4V12H0V8Z" fill="#899BA3"/>
<path d="M0 12H4V16H0V12Z" fill="#899BA3"/>
<path d="M0 16H4V20H0V16Z" fill="#899BA3"/>
<path d="M0 20H4V24H0V20Z" fill="#899BA3"/>
<path d="M0 20H4V24H0V20Z" fill="#899BA3"/>
<path d="M0 24H4V28H0V24Z" fill="#899BA3"/>
<path d="M0 28H4V32H0V28Z" fill="#899BA3"/>
<path d="M145 8.625V4L193 4V8.31667V32.375L189 36H179.906H175.292H170.739H145V31.375V8.625Z" fill="white"/>
<path d="M149 4H98V8H149V4Z" fill="white"/>
<path d="M149 8H98V12H149V8Z" fill="white"/>
<path d="M149 12H98V16H149V12Z" fill="white"/>
<path d="M149 16H98V20H149V16Z" fill="white"/>
<path d="M149 24H98V28H149V24Z" fill="white"/>
<path d="M149 20H98V24H149V20Z" fill="white"/>
<path d="M149 28H98V32H149V28Z" fill="white"/>
<path d="M149 32H98V36H149V32Z" fill="white"/>
<path d="M149 0H98V4H149V0Z" fill="#899BA3"/>
<path d="M149 40H98V36H149V40Z" fill="#899BA3"/>
<path d="M153 0H149V4H153V0Z" fill="#899BA3"/>
<path d="M153 40H149V36H153V40Z" fill="#899BA3"/>
<path d="M157 0H153V4H157V0Z" fill="#899BA3"/>
<path d="M157 40H153V36H157V40Z" fill="#899BA3"/>
<path d="M161 0H157V4H161V0Z" fill="#899BA3"/>
<path d="M161 40H157V36H161V40Z" fill="#899BA3"/>
<path d="M165 0H161V4H165V0Z" fill="#899BA3"/>
<path d="M165 40H161V36H165V40Z" fill="#899BA3"/>
<path d="M169 0H165V4H169V0Z" fill="#899BA3"/>
<path d="M169 40H165V36H169V40Z" fill="#899BA3"/>
<path d="M173 0H169V4H173V0Z" fill="#899BA3"/>
<path d="M173 40H169V36H173V40Z" fill="#899BA3"/>
<path d="M177 0H173V4H177V0Z" fill="#899BA3"/>
<path d="M177 40H173V36H177V40Z" fill="#899BA3"/>
<path d="M181 0H177V4H181V0Z" fill="#899BA3"/>
<path d="M181 40H177V36H181V40Z" fill="#899BA3"/>
<path d="M185 0H181V4H185V0Z" fill="#899BA3"/>
<path d="M185 40H181V36H185V40Z" fill="#899BA3"/>
<path d="M189 0H185V4H189V0Z" fill="#899BA3"/>
<path d="M189 40H185V36H189V40Z" fill="#899BA3"/>
<path d="M193 4H189V8H193V4Z" fill="#899BA3"/>
<path d="M193 36H189V32H193V36Z" fill="#899BA3"/>
<path d="M197 8H193V12H197V8Z" fill="#899BA3"/>
<path d="M197 12H193V16H197V12Z" fill="#899BA3"/>
<path d="M197 16H193V20H197V16Z" fill="#899BA3"/>
<path d="M197 20H193V24H197V20Z" fill="#899BA3"/>
<path d="M197 24H193V28H197V24Z" fill="#899BA3"/>
<path d="M197 28H193V32H197V28Z" fill="#899BA3"/>
<path d="M18.7143 14.2143H19.8929V15.3929H18.7143V14.2143ZM18.7143 15.3929H19.8929V16.5714H18.7143V15.3929ZM17.5357 15.3929H18.7143V16.5714H17.5357V15.3929ZM17.5357 14.2143H18.7143V15.3929H17.5357V14.2143ZM16.3571 14.2143H17.5357V15.3929H16.3571V14.2143ZM16.3571 15.3929H17.5357V16.5714H16.3571V15.3929ZM16.3571 16.5714H17.5357V17.75H16.3571V16.5714ZM15.1786 15.3929H16.3571V16.5714H15.1786V15.3929ZM15.1786 16.5714H16.3571V17.75H15.1786V16.5714ZM15.1786 17.75H16.3571V18.9286H15.1786V17.75ZM15.1786 18.9286H16.3571V20.1071H15.1786V18.9286ZM16.3571 18.9286H17.5357V20.1071H16.3571V18.9286ZM16.3571 17.75H17.5357V18.9286H16.3571V17.75ZM15.1786 24.8214H16.3571V26H15.1786V24.8214ZM15.1786 23.6429H16.3571V24.8214H15.1786V23.6429ZM15.1786 22.4643H16.3571V23.6429H15.1786V22.4643ZM15.1786 21.2857H16.3571V22.4643H15.1786V21.2857ZM15.1786 20.1071H16.3571V21.2857H15.1786V20.1071ZM16.3571 20.1071H17.5357V21.2857H16.3571V20.1071ZM16.3571 21.2857H17.5357V22.4643H16.3571V21.2857ZM16.3571 22.4643H17.5357V23.6429H16.3571V22.4643ZM16.3571 23.6429H17.5357V24.8214H16.3571V23.6429ZM16.3571 24.8214H17.5357V26H16.3571V24.8214ZM14 17.75H15.1786V18.9286H14V17.75ZM17.5357 17.75H18.7143V18.9286H17.5357V17.75ZM18.7143 17.75H19.8929V18.9286H18.7143V17.75ZM14 18.9286H15.1786V20.1071H14V18.9286ZM17.5357 18.9286H18.7143V20.1071H17.5357V18.9286ZM18.7143 18.9286H19.8929V20.1071H18.7143V18.9286ZM21.2884 17.75H22.4669V18.9286H21.2884V17.75ZM21.2884 16.5714H22.4669V17.75H21.2884V16.5714ZM22.4669 16.5714H23.6455V17.75H22.4669V16.5714ZM22.4669 17.75H23.6455V18.9286H22.4669V17.75ZM22.4669 18.9286H23.6455V20.1071H22.4669V18.9286ZM22.4669 20.1071H23.6455V21.2857H22.4669V20.1071ZM22.4669 21.2857H23.6455V22.4643H22.4669V21.2857ZM21.2884 21.2857H22.4669V22.4643H21.2884V21.2857ZM21.2884 20.1071H22.4669V21.2857H21.2884V20.1071ZM21.2884 18.9286H22.4669V20.1071H21.2884V18.9286ZM21.2884 22.4643H22.4669V23.6429H21.2884V22.4643ZM22.4669 22.4643H23.6455V23.6429H22.4669V22.4643ZM22.4669 23.6429H23.6455V24.8214H22.4669V23.6429ZM22.4669 24.8214H23.6455V26H22.4669V24.8214ZM21.2884 24.8214H22.4669V26H21.2884V24.8214ZM21.2884 23.6429H22.4669V24.8214H21.2884V23.6429ZM23.6455 17.75H24.8241V18.9286H23.6455V17.75ZM24.8241 17.75H26.0026V18.9286H24.8241V17.75ZM26.0026 17.75H27.1812V18.9286H26.0026V17.75ZM26.0026 16.5714H27.1812V17.75H26.0026V16.5714ZM24.8241 16.5714H26.0026V17.75H24.8241V16.5714ZM23.6455 18.9286H24.8241V20.1071H23.6455V18.9286ZM27.1812 17.75H28.3598V18.9286H27.1812V17.75ZM26.0026 18.9286H27.1812V20.1071H26.0026V18.9286ZM32.1155 16.5714H33.2941V17.75H32.1155V16.5714ZM30.9369 16.5714H32.1155V17.75H30.9369V16.5714ZM30.9369 17.75H32.1155V18.9286H30.9369V17.75ZM32.1155 17.75H33.2941V18.9286H32.1155V17.75ZM33.2941 16.5714H34.4726V17.75H33.2941V16.5714ZM34.4726 16.5714H35.6512V17.75H34.4726V16.5714ZM35.6512 16.5714H36.8298V17.75H35.6512V16.5714ZM35.6512 17.75H36.8298V18.9286H35.6512V17.75ZM34.4726 17.75H35.6512V18.9286H34.4726V17.75ZM35.6512 20.1071H36.8298V21.2857H35.6512V20.1071ZM36.8298 17.75H38.0084V18.9286H36.8298V17.75ZM36.8298 18.9286H38.0084V20.1071H36.8298V18.9286ZM36.8298 20.1071H38.0084V21.2857H36.8298V20.1071ZM36.8298 21.2857H38.0084V22.4643H36.8298V21.2857ZM36.8298 22.4643H38.0084V23.6429H36.8298V22.4643ZM36.8298 23.6429H38.0084V24.8214H36.8298V23.6429ZM35.6512 23.6429H36.8298V24.8214H35.6512V23.6429ZM35.6512 22.4643H36.8298V23.6429H35.6512V22.4643ZM35.6512 21.2857H36.8298V22.4643H35.6512V21.2857ZM35.6512 18.9286H36.8298V20.1071H35.6512V18.9286ZM34.4726 23.6429H35.6512V24.8214H34.4726V23.6429ZM35.6512 24.8214H36.8298V26H35.6512V24.8214ZM34.4726 24.8214H35.6512V26H34.4726V24.8214ZM33.2941 24.8214H34.4726V26H33.2941V24.8214ZM32.1155 24.8214H33.2941V26H32.1155V24.8214ZM30.9369 24.8214H32.1155V26H30.9369V24.8214ZM30.9369 23.6429H32.1155V24.8214H30.9369V23.6429ZM32.1155 23.6429H33.2941V24.8214H32.1155V23.6429ZM30.9369 22.4643H32.1155V23.6429H30.9369V22.4643ZM29.7584 23.6429H30.9369V24.8214H29.7584V23.6429ZM29.7584 22.4643H30.9369V23.6429H29.7584V22.4643ZM29.7584 21.2857H30.9369V22.4643H29.7584V21.2857ZM29.7584 20.1071H30.9369V21.2857H29.7584V20.1071ZM29.7584 18.9286H30.9369V20.1071H29.7584V18.9286ZM29.7584 17.75H30.9369V18.9286H29.7584V17.75ZM30.9369 18.9286H32.1155V20.1071H30.9369V18.9286ZM30.9369 20.1071H32.1155V21.2857H30.9369V20.1071ZM30.9369 21.2857H32.1155V22.4643H30.9369V21.2857ZM33.2941 23.6429H34.4726V24.8214H33.2941V23.6429ZM33.2941 17.75H34.4726V18.9286H33.2941V17.75ZM39.41 17.75H40.5886V18.9286H39.41V17.75ZM39.41 16.5714H40.5886V17.75H39.41V16.5714ZM40.5886 16.5714H41.7671V17.75H40.5886V16.5714ZM40.5886 17.75H41.7671V18.9286H40.5886V17.75ZM40.5886 18.9286H41.7671V20.1071H40.5886V18.9286ZM40.5886 20.1071H41.7671V21.2857H40.5886V20.1071ZM40.5886 21.2857H41.7671V22.4643H40.5886V21.2857ZM39.41 21.2857H40.5886V22.4643H39.41V21.2857ZM39.41 20.1071H40.5886V21.2857H39.41V20.1071ZM39.41 18.9286H40.5886V20.1071H39.41V18.9286ZM39.41 22.4643H40.5886V23.6429H39.41V22.4643ZM40.5886 22.4643H41.7671V23.6429H40.5886V22.4643ZM40.5886 23.6429H41.7671V24.8214H40.5886V23.6429ZM40.5886 24.8214H41.7671V26H40.5886V24.8214ZM39.41 24.8214H40.5886V26H39.41V24.8214ZM39.41 23.6429H40.5886V24.8214H39.41V23.6429ZM45.3029 24.8214H46.4814V26H45.3029V24.8214ZM46.4814 24.8214H47.66V26H46.4814V24.8214ZM46.4814 23.6429H47.66V24.8214H46.4814V23.6429ZM46.4814 22.4643H47.66V23.6429H46.4814V22.4643ZM46.4814 21.2857H47.66V22.4643H46.4814V21.2857ZM46.4814 20.1071H47.66V21.2857H46.4814V20.1071ZM46.4814 18.9286H47.66V20.1071H46.4814V18.9286ZM46.4814 17.75H47.66V18.9286H46.4814V17.75ZM45.3029 20.1071H46.4814V21.2857H45.3029V20.1071ZM45.3029 21.2857H46.4814V22.4643H45.3029V21.2857ZM45.3029 22.4643H46.4814V23.6429H45.3029V22.4643ZM45.3029 23.6429H46.4814V24.8214H45.3029V23.6429ZM45.3029 18.9286H46.4814V20.1071H45.3029V18.9286ZM41.7671 17.75H42.9457V18.9286H41.7671V17.75ZM42.9457 17.75H44.1243V18.9286H42.9457V17.75ZM44.1243 17.75H45.3029V18.9286H44.1243V17.75ZM44.1243 16.5714H45.3029V17.75H44.1243V16.5714ZM45.3029 16.5714H46.4814V17.75H45.3029V16.5714ZM45.3029 17.75H46.4814V18.9286H45.3029V17.75ZM42.9457 16.5714H44.1243V17.75H42.9457V16.5714ZM53.7759 23.6429H54.9545V24.8214H53.7759V23.6429ZM53.7759 24.8214H54.9545V26H53.7759V24.8214ZM52.5974 24.8214H53.7759V26H52.5974V24.8214ZM52.5974 23.6429H53.7759V24.8214H52.5974V23.6429ZM51.4188 24.8214H52.5974V26H51.4188V24.8214ZM51.4188 23.6429H52.5974V24.8214H51.4188V23.6429ZM50.2402 23.6429H51.4188V24.8214H50.2402V23.6429ZM50.2402 22.4643H51.4188V23.6429H50.2402V22.4643ZM50.2402 21.2857H51.4188V22.4643H50.2402V21.2857ZM50.2402 20.1071H51.4188V21.2857H50.2402V20.1071ZM50.2402 18.9286H51.4188V20.1071H50.2402V18.9286ZM50.2402 17.75H51.4188V18.9286H50.2402V17.75ZM51.4188 21.2857H52.5974V22.4643H51.4188V21.2857ZM51.4188 22.4643H52.5974V23.6429H51.4188V22.4643ZM51.4188 20.1071H52.5974V21.2857H51.4188V20.1071ZM51.4188 18.9286H52.5974V20.1071H51.4188V18.9286ZM51.4188 14.2143H52.5974V15.3929H51.4188V14.2143ZM51.4188 15.3929H52.5974V16.5714H51.4188V15.3929ZM51.4188 16.5714H52.5974V17.75H51.4188V16.5714ZM51.4188 17.75H52.5974V18.9286H51.4188V17.75ZM50.2402 16.5714H51.4188V17.75H50.2402V16.5714ZM49.0616 17.75H50.2402V18.9286H49.0616V17.75ZM52.5974 17.75H53.7759V18.9286H52.5974V17.75ZM53.7759 17.75H54.9545V18.9286H53.7759V17.75ZM50.2402 15.3929H51.4188V16.5714H50.2402V15.3929ZM49.0616 18.9286H50.2402V20.1071H49.0616V18.9286ZM52.5974 18.9286H53.7759V20.1071H52.5974V18.9286ZM53.7759 18.9286H54.9545V20.1071H53.7759V18.9286ZM58.7071 16.5714H59.8857V17.75H58.7071V16.5714ZM57.5286 16.5714H58.7071V17.75H57.5286V16.5714ZM57.5286 17.75H58.7071V18.9286H57.5286V17.75ZM58.7071 17.75H59.8857V18.9286H58.7071V17.75ZM59.8857 16.5714H61.0643V17.75H59.8857V16.5714ZM61.0643 16.5714H62.2429V17.75H61.0643V16.5714ZM62.2429 16.5714H63.4214V17.75H62.2429V16.5714ZM62.2429 17.75H63.4214V18.9286H62.2429V17.75ZM61.0643 17.75H62.2429V18.9286H61.0643V17.75ZM63.4214 17.75H64.6V18.9286H63.4214V17.75ZM63.4214 18.9286H64.6V20.1071H63.4214V18.9286ZM63.4214 23.6429H64.6V24.8214H63.4214V23.6429ZM62.2429 23.6429H63.4214V24.8214H62.2429V23.6429ZM62.2429 18.9286H63.4214V20.1071H62.2429V18.9286ZM61.0643 23.6429H62.2429V24.8214H61.0643V23.6429ZM62.2429 24.8214H63.4214V26H62.2429V24.8214ZM61.0643 24.8214H62.2429V26H61.0643V24.8214ZM59.8857 24.8214H61.0643V26H59.8857V24.8214ZM58.7071 24.8214H59.8857V26H58.7071V24.8214ZM57.5286 24.8214H58.7071V26H57.5286V24.8214ZM57.5286 23.6429H58.7071V24.8214H57.5286V23.6429ZM58.7071 23.6429H59.8857V24.8214H58.7071V23.6429ZM57.5286 22.4643H58.7071V23.6429H57.5286V22.4643ZM56.35 23.6429H57.5286V24.8214H56.35V23.6429ZM56.35 22.4643H57.5286V23.6429H56.35V22.4643ZM56.35 21.2857H57.5286V22.4643H56.35V21.2857ZM56.35 20.1071H57.5286V21.2857H56.35V20.1071ZM56.35 18.9286H57.5286V20.1071H56.35V18.9286ZM56.35 17.75H57.5286V18.9286H56.35V17.75ZM57.5286 18.9286H58.7071V20.1071H57.5286V18.9286ZM57.5286 20.1071H58.7071V21.2857H57.5286V20.1071ZM57.5286 21.2857H58.7071V22.4643H57.5286V21.2857ZM59.8857 23.6429H61.0643V24.8214H59.8857V23.6429ZM59.8857 17.75H61.0643V18.9286H59.8857V17.75ZM62.2429 20.1071H63.4214V21.2857H62.2429V20.1071ZM63.4214 20.1071H64.6V21.2857H63.4214V20.1071ZM58.7071 21.2857H59.8857V22.4643H58.7071V21.2857ZM59.8857 21.2857H61.0643V22.4643H59.8857V21.2857ZM61.0643 21.2857H62.2429V22.4643H61.0643V21.2857ZM62.2429 21.2857H63.4214V22.4643H62.2429V21.2857ZM63.4214 21.2857H64.6V22.4643H63.4214V21.2857ZM61.0643 20.1071H62.2429V21.2857H61.0643V20.1071ZM59.8857 20.1071H61.0643V21.2857H59.8857V20.1071ZM58.7071 20.1071H59.8857V21.2857H58.7071V20.1071ZM66.0016 17.75H67.1802V18.9286H66.0016V17.75ZM66.0016 16.5714H67.1802V17.75H66.0016V16.5714ZM67.1802 16.5714H68.3588V17.75H67.1802V16.5714ZM67.1802 17.75H68.3588V18.9286H67.1802V17.75ZM67.1802 18.9286H68.3588V20.1071H67.1802V18.9286ZM67.1802 20.1071H68.3588V21.2857H67.1802V20.1071ZM67.1802 21.2857H68.3588V22.4643H67.1802V21.2857ZM66.0016 21.2857H67.1802V22.4643H66.0016V21.2857ZM66.0016 20.1071H67.1802V21.2857H66.0016V20.1071ZM66.0016 18.9286H67.1802V20.1071H66.0016V18.9286ZM66.0016 22.4643H67.1802V23.6429H66.0016V22.4643ZM67.1802 22.4643H68.3588V23.6429H67.1802V22.4643ZM67.1802 23.6429H68.3588V24.8214H67.1802V23.6429ZM67.1802 24.8214H68.3588V26H67.1802V24.8214ZM66.0016 24.8214H67.1802V26H66.0016V24.8214ZM66.0016 23.6429H67.1802V24.8214H66.0016V23.6429ZM71.8945 24.8214H73.0731V26H71.8945V24.8214ZM73.0731 24.8214H74.2516V26H73.0731V24.8214ZM73.0731 23.6429H74.2516V24.8214H73.0731V23.6429ZM73.0731 22.4643H74.2516V23.6429H73.0731V22.4643ZM73.0731 21.2857H74.2516V22.4643H73.0731V21.2857ZM73.0731 20.1071H74.2516V21.2857H73.0731V20.1071ZM73.0731 18.9286H74.2516V20.1071H73.0731V18.9286ZM73.0731 17.75H74.2516V18.9286H73.0731V17.75ZM71.8945 20.1071H73.0731V21.2857H71.8945V20.1071ZM71.8945 21.2857H73.0731V22.4643H71.8945V21.2857ZM71.8945 22.4643H73.0731V23.6429H71.8945V22.4643ZM71.8945 23.6429H73.0731V24.8214H71.8945V23.6429ZM71.8945 18.9286H73.0731V20.1071H71.8945V18.9286ZM68.3588 17.75H69.5374V18.9286H68.3588V17.75ZM69.5374 17.75H70.7159V18.9286H69.5374V17.75ZM70.7159 17.75H71.8945V18.9286H70.7159V17.75ZM70.7159 16.5714H71.8945V17.75H70.7159V16.5714ZM71.8945 16.5714H73.0731V17.75H71.8945V16.5714ZM71.8945 17.75H73.0731V18.9286H71.8945V17.75ZM69.5374 16.5714H70.7159V17.75H69.5374V16.5714ZM83.9033 17.75V18.9286H82.7247V17.75H83.9033ZM83.9033 16.5714V17.75H82.7247V16.5714H83.9033ZM82.7247 16.5714V17.75H81.5461V16.5714H82.7247ZM82.7247 17.75V18.9286H81.5461V17.75H82.7247ZM82.7247 18.9286V20.1071H81.5461V18.9286H82.7247ZM82.7247 20.1071V21.2857H81.5461V20.1071H82.7247ZM82.7247 21.2857V22.4643H81.5461V21.2857H82.7247ZM83.9033 21.2857V22.4643H82.7247V21.2857H83.9033ZM83.9033 20.1071V21.2857H82.7247V20.1071H83.9033ZM83.9033 18.9286V20.1071H82.7247V18.9286H83.9033ZM83.9033 22.4643V23.6429H82.7247V22.4643H83.9033ZM82.7247 22.4643V23.6429H81.5461V22.4643H82.7247ZM82.7247 23.6429V24.8214H81.5461V23.6429H82.7247ZM82.7247 24.8214V26H81.5461V24.8214H82.7247ZM83.9033 24.8214V26H82.7247V24.8214H83.9033ZM83.9033 23.6429V24.8214H82.7247V23.6429H83.9033ZM78.0104 24.8214V26H76.8319V24.8214H78.0104ZM76.8319 23.6429V24.8214H75.6533V23.6429H76.8319ZM76.8319 22.4643V23.6429H75.6533V22.4643H76.8319ZM76.8319 21.2857V22.4643H75.6533V21.2857H76.8319ZM76.8319 20.1071V21.2857H75.6533V20.1071H76.8319ZM76.8319 18.9286V20.1071H75.6533V18.9286H76.8319ZM76.8319 17.75V18.9286H75.6533V17.75H76.8319ZM78.0104 20.1071V21.2857H76.8319V20.1071H78.0104ZM78.0104 21.2857V22.4643H76.8319V21.2857H78.0104ZM78.0104 22.4643V23.6429H76.8319V22.4643H78.0104ZM78.0104 23.6429V24.8214H76.8319V23.6429H78.0104ZM78.0104 18.9286V20.1071H76.8319V18.9286H78.0104ZM79.189 17.75V18.9286H78.0104V17.75H79.189ZM79.189 16.5714V17.75H78.0104V16.5714H79.189ZM78.0104 16.5714V17.75H76.8319V16.5714H78.0104ZM78.0104 17.75V18.9286H76.8319V17.75H78.0104ZM80.3676 16.5714V17.75H79.189V16.5714H80.3676ZM83.9033 14.2143V15.3929H82.7247V14.2143H83.9033ZM82.7247 14.2143V15.3929H81.5461V14.2143H82.7247ZM82.7247 15.3929V16.5714H81.5461V15.3929H82.7247ZM83.9033 15.3929V16.5714H82.7247V15.3929H83.9033ZM80.3676 24.8214V26H79.189V24.8214H80.3676ZM79.189 24.8214V26H78.0104V24.8214H79.189ZM79.189 23.6429V24.8214H78.0104V23.6429H79.189ZM80.3676 23.6429V24.8214H79.189V23.6429H80.3676ZM81.5461 23.6429V24.8214H80.3676V23.6429H81.5461ZM81.5461 16.5714V17.75H80.3676V16.5714H81.5461ZM81.5461 17.75V18.9286H80.3676V17.75H81.5461ZM80.3676 17.75V18.9286H79.189V17.75H80.3676ZM90.0192 14.2143H91.1978V15.3929H90.0192V14.2143ZM90.0192 15.3929H91.1978V16.5714H90.0192V15.3929ZM88.8406 15.3929H90.0192V16.5714H88.8406V15.3929ZM88.8406 14.2143H90.0192V15.3929H88.8406V14.2143ZM90.0192 16.5714H91.1978V17.75H90.0192V16.5714ZM88.8406 16.5714H90.0192V17.75H88.8406V16.5714ZM88.8406 17.75H90.0192V18.9286H88.8406V17.75ZM88.8406 18.9286H90.0192V20.1071H88.8406V18.9286ZM88.8406 20.1071H90.0192V21.2857H88.8406V20.1071ZM87.6621 20.1071H88.8406V21.2857H87.6621V20.1071ZM87.6621 18.9286H88.8406V20.1071H87.6621V18.9286ZM87.6621 17.75H88.8406V18.9286H87.6621V17.75ZM87.6621 21.2857H88.8406V22.4643H87.6621V21.2857ZM87.6621 22.4643H88.8406V23.6429H87.6621V22.4643ZM87.6621 23.6429H88.8406V24.8214H87.6621V23.6429ZM86.4835 23.6429H87.6621V24.8214H86.4835V23.6429ZM86.4835 22.4643H87.6621V23.6429H86.4835V22.4643ZM86.4835 21.2857H87.6621V22.4643H86.4835V21.2857ZM86.4835 24.8214H87.6621V26H86.4835V24.8214ZM86.4835 26H87.6621V27.1786H86.4835V26ZM86.4835 27.1786H87.6621V28.3571H86.4835V27.1786ZM85.3049 27.1786H86.4835V28.3571H85.3049V27.1786ZM85.3049 26H86.4835V27.1786H85.3049V26ZM85.3049 24.8214H86.4835V26H85.3049V24.8214ZM92.5933 17.75H93.7719V18.9286H92.5933V17.75ZM93.7719 18.9286H94.9504V20.1071H93.7719V18.9286ZM92.5933 18.9286H93.7719V20.1071H92.5933V18.9286ZM92.5933 20.1071H93.7719V21.2857H92.5933V20.1071ZM93.7719 20.1071H94.9504V21.2857H93.7719V20.1071ZM93.7719 21.2857H94.9504V22.4643H93.7719V21.2857ZM94.9504 21.2857H96.129V22.4643H94.9504V21.2857ZM96.129 21.2857H97.3076V22.4643H96.129V21.2857ZM97.3076 20.1071H98.4861V21.2857H97.3076V20.1071ZM96.129 20.1071H97.3076V21.2857H96.129V20.1071ZM94.9504 20.1071H96.129V21.2857H94.9504V20.1071ZM97.3076 21.2857H98.4861V22.4643H97.3076V21.2857ZM98.4861 21.2857H99.6647V22.4643H98.4861V21.2857ZM98.4861 22.4643H99.6647V23.6429H98.4861V22.4643ZM97.3076 22.4643H98.4861V23.6429H97.3076V22.4643ZM97.3076 23.6429H98.4861V24.8214H97.3076V23.6429ZM98.4861 23.6429H99.6647V24.8214H98.4861V23.6429ZM97.3076 24.8214H98.4861V26H97.3076V24.8214ZM96.129 23.6429H97.3076V24.8214H96.129V23.6429ZM94.9504 23.6429H96.129V24.8214H94.9504V23.6429ZM93.7719 23.6429H94.9504V24.8214H93.7719V23.6429ZM92.5933 23.6429H93.7719V24.8214H92.5933V23.6429ZM93.7719 24.8214H94.9504V26H93.7719V24.8214ZM94.9504 24.8214H96.129V26H94.9504V24.8214ZM96.129 24.8214H97.3076V26H96.129V24.8214ZM98.4861 17.75H99.6647V18.9286H98.4861V17.75ZM97.3076 17.75H98.4861V18.9286H97.3076V17.75ZM97.3076 16.5714H98.4861V17.75H97.3076V16.5714ZM96.129 16.5714H97.3076V17.75H96.129V16.5714ZM94.9504 16.5714H96.129V17.75H94.9504V16.5714ZM93.7719 16.5714H94.9504V17.75H93.7719V16.5714ZM93.7719 17.75H94.9504V18.9286H93.7719V17.75ZM94.9504 17.75H96.129V18.9286H94.9504V17.75ZM96.129 17.75H97.3076V18.9286H96.129V17.75ZM101.063 16.5714H102.242V17.75H101.063V16.5714ZM102.242 16.5714H103.42V17.75H102.242V16.5714ZM102.242 17.75H103.42V18.9286H102.242V17.75ZM102.242 18.9286H103.42V20.1071H102.242V18.9286ZM102.242 20.1071H103.42V21.2857H102.242V20.1071ZM101.063 18.9286H102.242V20.1071H101.063V18.9286ZM101.063 17.75H102.242V18.9286H101.063V17.75ZM101.063 20.1071H102.242V21.2857H101.063V20.1071ZM101.063 21.2857H102.242V22.4643H101.063V21.2857ZM102.242 21.2857H103.42V22.4643H102.242V21.2857ZM102.242 22.4643H103.42V23.6429H102.242V22.4643ZM103.42 22.4643H104.599V23.6429H103.42V22.4643ZM103.42 23.6429H104.599V24.8214H103.42V23.6429ZM104.599 23.6429H105.778V24.8214H104.599V23.6429ZM105.778 23.6429H106.956V24.8214H105.778V23.6429ZM105.778 22.4643H106.956V23.6429H105.778V22.4643ZM105.778 21.2857H106.956V22.4643H105.778V21.2857ZM106.956 21.2857H108.135V22.4643H106.956V21.2857ZM106.956 22.4643H108.135V23.6429H106.956V22.4643ZM106.956 20.1071H108.135V21.2857H106.956V20.1071ZM105.778 20.1071H106.956V21.2857H105.778V20.1071ZM105.778 16.5714H106.956V17.75H105.778V16.5714ZM106.956 16.5714H108.135V17.75H106.956V16.5714ZM106.956 17.75H108.135V18.9286H106.956V17.75ZM106.956 18.9286H108.135V20.1071H106.956V18.9286ZM105.778 17.75H106.956V18.9286H105.778V17.75ZM105.778 18.9286H106.956V20.1071H105.778V18.9286ZM104.599 24.8214H105.778V26H104.599V24.8214ZM103.42 24.8214H104.599V26H103.42V24.8214ZM103.42 26H104.599V27.1786H103.42V26ZM102.242 26H103.42V27.1786H102.242V26ZM102.242 24.8214H103.42V26H102.242V24.8214ZM102.242 27.1786H103.42V28.3571H102.242V27.1786ZM101.063 27.1786H102.242V28.3571H101.063V27.1786ZM101.063 26H102.242V27.1786H101.063V26ZM104.599 22.4643H105.778V23.6429H104.599V22.4643ZM103.42 21.2857H104.599V22.4643H103.42V21.2857ZM109.533 17.75H110.712V18.9286H109.533V17.75ZM109.533 16.5714H110.712V17.75H109.533V16.5714ZM110.712 16.5714H111.89V17.75H110.712V16.5714ZM110.712 17.75H111.89V18.9286H110.712V17.75ZM110.712 18.9286H111.89V20.1071H110.712V18.9286ZM110.712 20.1071H111.89V21.2857H110.712V20.1071ZM110.712 21.2857H111.89V22.4643H110.712V21.2857ZM109.533 21.2857H110.712V22.4643H109.533V21.2857ZM109.533 20.1071H110.712V21.2857H109.533V20.1071ZM109.533 18.9286H110.712V20.1071H109.533V18.9286ZM109.533 22.4643H110.712V23.6429H109.533V22.4643ZM110.712 22.4643H111.89V23.6429H110.712V22.4643ZM110.712 23.6429H111.89V24.8214H110.712V23.6429ZM110.712 24.8214H111.89V26H110.712V24.8214ZM109.533 24.8214H110.712V26H109.533V24.8214ZM109.533 23.6429H110.712V24.8214H109.533V23.6429ZM115.426 24.8214H116.605V26H115.426V24.8214ZM116.605 24.8214H117.783V26H116.605V24.8214ZM116.605 23.6429H117.783V24.8214H116.605V23.6429ZM116.605 22.4643H117.783V23.6429H116.605V22.4643ZM116.605 21.2857H117.783V22.4643H116.605V21.2857ZM116.605 20.1071H117.783V21.2857H116.605V20.1071ZM116.605 18.9286H117.783V20.1071H116.605V18.9286ZM116.605 17.75H117.783V18.9286H116.605V17.75ZM115.426 20.1071H116.605V21.2857H115.426V20.1071ZM115.426 21.2857H116.605V22.4643H115.426V21.2857ZM115.426 22.4643H116.605V23.6429H115.426V22.4643ZM115.426 23.6429H116.605V24.8214H115.426V23.6429ZM115.426 18.9286H116.605V20.1071H115.426V18.9286ZM111.89 17.75H113.069V18.9286H111.89V17.75ZM113.069 17.75H114.248V18.9286H113.069V17.75ZM114.248 17.75H115.426V18.9286H114.248V17.75ZM114.248 16.5714H115.426V17.75H114.248V16.5714ZM115.426 16.5714H116.605V17.75H115.426V16.5714ZM115.426 17.75H116.605V18.9286H115.426V17.75ZM113.069 16.5714H114.248V17.75H113.069V16.5714ZM123.899 23.6429H125.078V24.8214H123.899V23.6429ZM123.899 24.8214H125.078V26H123.899V24.8214ZM122.721 24.8214H123.899V26H122.721V24.8214ZM122.721 23.6429H123.899V24.8214H122.721V23.6429ZM121.542 24.8214H122.721V26H121.542V24.8214ZM121.542 23.6429H122.721V24.8214H121.542V23.6429ZM120.363 23.6429H121.542V24.8214H120.363V23.6429ZM120.363 22.4643H121.542V23.6429H120.363V22.4643ZM120.363 21.2857H121.542V22.4643H120.363V21.2857ZM120.363 20.1071H121.542V21.2857H120.363V20.1071ZM120.363 18.9286H121.542V20.1071H120.363V18.9286ZM120.363 17.75H121.542V18.9286H120.363V17.75ZM121.542 21.2857H122.721V22.4643H121.542V21.2857ZM121.542 22.4643H122.721V23.6429H121.542V22.4643ZM121.542 20.1071H122.721V21.2857H121.542V20.1071ZM121.542 18.9286H122.721V20.1071H121.542V18.9286ZM121.542 14.2143H122.721V15.3929H121.542V14.2143ZM121.542 15.3929H122.721V16.5714H121.542V15.3929ZM121.542 16.5714H122.721V17.75H121.542V16.5714ZM121.542 17.75H122.721V18.9286H121.542V17.75ZM120.363 16.5714H121.542V17.75H120.363V16.5714ZM119.185 17.75H120.363V18.9286H119.185V17.75ZM122.721 17.75H123.899V18.9286H122.721V17.75ZM123.899 17.75H125.078V18.9286H123.899V17.75ZM120.363 15.3929H121.542V16.5714H120.363V15.3929ZM119.185 18.9286H120.363V20.1071H119.185V18.9286ZM122.721 18.9286H123.899V20.1071H122.721V18.9286ZM123.899 18.9286H125.078V20.1071H123.899V18.9286ZM126.473 17.75H127.652V18.9286H126.473V17.75ZM126.473 16.5714H127.652V17.75H126.473V16.5714ZM127.652 16.5714H128.83V17.75H127.652V16.5714ZM127.652 17.75H128.83V18.9286H127.652V17.75ZM127.652 18.9286H128.83V20.1071H127.652V18.9286ZM127.652 20.1071H128.83V21.2857H127.652V20.1071ZM127.652 21.2857H128.83V22.4643H127.652V21.2857ZM126.473 21.2857H127.652V22.4643H126.473V21.2857ZM126.473 20.1071H127.652V21.2857H126.473V20.1071ZM126.473 18.9286H127.652V20.1071H126.473V18.9286ZM126.473 22.4643H127.652V23.6429H126.473V22.4643ZM127.652 22.4643H128.83V23.6429H127.652V22.4643ZM127.652 23.6429H128.83V24.8214H127.652V23.6429ZM127.652 24.8214H128.83V26H127.652V24.8214ZM126.473 24.8214H127.652V26H126.473V24.8214ZM126.473 23.6429H127.652V24.8214H126.473V23.6429ZM132.366 24.8214H133.545V26H132.366V24.8214ZM133.545 24.8214H134.723V26H133.545V24.8214ZM133.545 23.6429H134.723V24.8214H133.545V23.6429ZM133.545 22.4643H134.723V23.6429H133.545V22.4643ZM133.545 21.2857H134.723V22.4643H133.545V21.2857ZM133.545 20.1071H134.723V21.2857H133.545V20.1071ZM133.545 18.9286H134.723V20.1071H133.545V18.9286ZM133.545 17.75H134.723V18.9286H133.545V17.75ZM132.366 20.1071H133.545V21.2857H132.366V20.1071ZM132.366 21.2857H133.545V22.4643H132.366V21.2857ZM132.366 22.4643H133.545V23.6429H132.366V22.4643ZM132.366 23.6429H133.545V24.8214H132.366V23.6429ZM132.366 18.9286H133.545V20.1071H132.366V18.9286ZM128.83 17.75H130.009V18.9286H128.83V17.75ZM130.009 17.75H131.188V18.9286H130.009V17.75ZM131.188 17.75H132.366V18.9286H131.188V17.75ZM131.188 16.5714H132.366V17.75H131.188V16.5714ZM132.366 16.5714H133.545V17.75H132.366V16.5714ZM132.366 17.75H133.545V18.9286H132.366V17.75ZM130.009 16.5714H131.188V17.75H130.009V16.5714ZM126.473 14.2143H127.652V15.3929H126.473V14.2143ZM127.652 14.2143H128.83V15.3929H127.652V14.2143ZM127.652 15.3929H128.83V16.5714H127.652V15.3929ZM126.473 15.3929H127.652V16.5714H126.473V15.3929ZM138.482 16.5714H139.661V17.75H138.482V16.5714ZM137.303 16.5714H138.482V17.75H137.303V16.5714ZM137.303 17.75H138.482V18.9286H137.303V17.75ZM138.482 17.75H139.661V18.9286H138.482V17.75ZM139.661 16.5714H140.839V17.75H139.661V16.5714ZM140.839 16.5714H142.018V17.75H140.839V16.5714ZM142.018 16.5714H143.196V17.75H142.018V16.5714ZM142.018 17.75H143.196V18.9286H142.018V17.75ZM140.839 17.75H142.018V18.9286H140.839V17.75ZM143.196 17.75H144.375V18.9286H143.196V17.75ZM143.196 18.9286H144.375V20.1071H143.196V18.9286ZM143.196 23.6429H144.375V24.8214H143.196V23.6429ZM142.018 23.6429H143.196V24.8214H142.018V23.6429ZM142.018 18.9286H143.196V20.1071H142.018V18.9286ZM140.839 23.6429H142.018V24.8214H140.839V23.6429ZM142.018 24.8214H143.196V26H142.018V24.8214ZM140.839 24.8214H142.018V26H140.839V24.8214ZM139.661 24.8214H140.839V26H139.661V24.8214ZM138.482 24.8214H139.661V26H138.482V24.8214ZM137.303 24.8214H138.482V26H137.303V24.8214ZM137.303 23.6429H138.482V24.8214H137.303V23.6429ZM138.482 23.6429H139.661V24.8214H138.482V23.6429ZM137.303 22.4643H138.482V23.6429H137.303V22.4643ZM136.125 23.6429H137.303V24.8214H136.125V23.6429ZM136.125 22.4643H137.303V23.6429H136.125V22.4643ZM136.125 21.2857H137.303V22.4643H136.125V21.2857ZM136.125 20.1071H137.303V21.2857H136.125V20.1071ZM136.125 18.9286H137.303V20.1071H136.125V18.9286ZM136.125 17.75H137.303V18.9286H136.125V17.75ZM137.303 18.9286H138.482V20.1071H137.303V18.9286ZM137.303 20.1071H138.482V21.2857H137.303V20.1071ZM137.303 21.2857H138.482V22.4643H137.303V21.2857ZM139.661 23.6429H140.839V24.8214H139.661V23.6429ZM139.661 17.75H140.839V18.9286H139.661V17.75ZM142.018 20.1071H143.196V21.2857H142.018V20.1071ZM143.196 20.1071H144.375V21.2857H143.196V20.1071ZM138.482 21.2857H139.661V22.4643H138.482V21.2857ZM139.661 21.2857H140.839V22.4643H139.661V21.2857ZM140.839 21.2857H142.018V22.4643H140.839V21.2857ZM142.018 21.2857H143.196V22.4643H142.018V21.2857ZM143.196 21.2857H144.375V22.4643H143.196V21.2857ZM140.839 20.1071H142.018V21.2857H140.839V20.1071ZM139.661 20.1071H140.839V21.2857H139.661V20.1071ZM138.482 20.1071H139.661V21.2857H138.482V20.1071ZM145.777 17.75H146.955V18.9286H145.777V17.75ZM146.955 18.9286H148.134V20.1071H146.955V18.9286ZM145.777 18.9286H146.955V20.1071H145.777V18.9286ZM145.777 20.1071H146.955V21.2857H145.777V20.1071ZM146.955 20.1071H148.134V21.2857H146.955V20.1071ZM146.955 21.2857H148.134V22.4643H146.955V21.2857ZM148.134 21.2857H149.312V22.4643H148.134V21.2857ZM149.312 21.2857H150.491V22.4643H149.312V21.2857ZM150.491 20.1071H151.669V21.2857H150.491V20.1071ZM149.312 20.1071H150.491V21.2857H149.312V20.1071ZM148.134 20.1071H149.312V21.2857H148.134V20.1071ZM150.491 21.2857H151.669V22.4643H150.491V21.2857ZM151.669 21.2857H152.848V22.4643H151.669V21.2857ZM151.669 22.4643H152.848V23.6429H151.669V22.4643ZM150.491 22.4643H151.669V23.6429H150.491V22.4643ZM150.491 23.6429H151.669V24.8214H150.491V23.6429ZM151.669 23.6429H152.848V24.8214H151.669V23.6429ZM150.491 24.8214H151.669V26H150.491V24.8214ZM149.312 23.6429H150.491V24.8214H149.312V23.6429ZM148.134 23.6429H149.312V24.8214H148.134V23.6429ZM146.955 23.6429H148.134V24.8214H146.955V23.6429ZM145.777 23.6429H146.955V24.8214H145.777V23.6429ZM146.955 24.8214H148.134V26H146.955V24.8214ZM148.134 24.8214H149.312V26H148.134V24.8214ZM149.312 24.8214H150.491V26H149.312V24.8214ZM151.669 17.75H152.848V18.9286H151.669V17.75ZM150.491 17.75H151.669V18.9286H150.491V17.75ZM150.491 16.5714H151.669V17.75H150.491V16.5714ZM149.312 16.5714H150.491V17.75H149.312V16.5714ZM148.134 16.5714H149.312V17.75H148.134V16.5714ZM146.955 16.5714H148.134V17.75H146.955V16.5714ZM146.955 17.75H148.134V18.9286H146.955V17.75ZM148.134 17.75H149.312V18.9286H148.134V17.75ZM149.312 17.75H150.491V18.9286H149.312V17.75ZM154.247 14.2143H156.604V16.5714H154.247V14.2143ZM154.247 17.75H156.604V26H154.247V17.75ZM158.011 17.75H159.19V18.9286H158.011V17.75ZM159.19 17.75H160.369V18.9286H159.19V17.75ZM160.369 17.75H161.547V18.9286H160.369V17.75ZM161.547 17.75H162.726V18.9286H161.547V17.75ZM162.726 17.75H163.904V18.9286H162.726V17.75ZM163.904 17.75H165.083V18.9286H163.904V17.75ZM165.083 17.75H166.261V18.9286H165.083V17.75ZM165.083 16.5714H166.261V17.75H165.083V16.5714ZM163.904 16.5714H165.083V17.75H163.904V16.5714ZM162.726 16.5714H163.904V17.75H162.726V16.5714ZM161.547 16.5714H162.726V17.75H161.547V16.5714ZM160.369 16.5714H161.547V17.75H160.369V16.5714ZM159.19 16.5714H160.369V17.75H159.19V16.5714ZM158.011 16.5714H159.19V17.75H158.011V16.5714ZM165.083 18.9286H166.261V20.1071H165.083V18.9286ZM163.904 18.9286H165.083V20.1071H163.904V18.9286ZM162.726 18.9286H163.904V20.1071H162.726V18.9286ZM162.726 20.1071H163.904V21.2857H162.726V20.1071ZM163.904 20.1071H165.083V21.2857H163.904V20.1071ZM161.547 20.1071H162.726V21.2857H161.547V20.1071ZM162.726 21.2857H163.904V22.4643H162.726V21.2857ZM161.547 21.2857H162.726V22.4643H161.547V21.2857ZM160.369 21.2857H161.547V22.4643H160.369V21.2857ZM160.369 22.4643H161.547V23.6429H160.369V22.4643ZM159.19 22.4643H160.369V23.6429H159.19V22.4643ZM161.547 22.4643H162.726V23.6429H161.547V22.4643ZM158.011 23.6429H159.19V24.8214H158.011V23.6429ZM159.19 23.6429H160.369V24.8214H159.19V23.6429ZM160.369 23.6429H161.547V24.8214H160.369V23.6429ZM161.547 23.6429H162.726V24.8214H161.547V23.6429ZM162.726 23.6429H163.904V24.8214H162.726V23.6429ZM163.904 23.6429H165.083V24.8214H163.904V23.6429ZM163.904 24.8214H165.083V26H163.904V24.8214ZM165.083 24.8214H166.261V26H165.083V24.8214ZM165.083 23.6429H166.261V24.8214H165.083V23.6429ZM162.726 24.8214H163.904V26H162.726V24.8214ZM161.547 24.8214H162.726V26H161.547V24.8214ZM160.369 24.8214H161.547V26H160.369V24.8214ZM159.19 24.8214H160.369V26H159.19V24.8214ZM158.011 24.8214H159.19V26H158.011V24.8214ZM170.02 16.5714H171.199V17.75H170.02V16.5714ZM168.842 16.5714H170.02V17.75H168.842V16.5714ZM168.842 17.75H170.02V18.9286H168.842V17.75ZM170.02 17.75H171.199V18.9286H170.02V17.75ZM171.199 16.5714H172.377V17.75H171.199V16.5714ZM172.377 16.5714H173.556V17.75H172.377V16.5714ZM173.556 16.5714H174.735V17.75H173.556V16.5714ZM173.556 17.75H174.735V18.9286H173.556V17.75ZM172.377 17.75H173.556V18.9286H172.377V17.75ZM174.735 17.75H175.913V18.9286H174.735V17.75ZM174.735 18.9286H175.913V20.1071H174.735V18.9286ZM174.735 23.6429H175.913V24.8214H174.735V23.6429ZM173.556 23.6429H174.735V24.8214H173.556V23.6429ZM173.556 18.9286H174.735V20.1071H173.556V18.9286ZM172.377 23.6429H173.556V24.8214H172.377V23.6429ZM173.556 24.8214H174.735V26H173.556V24.8214ZM172.377 24.8214H173.556V26H172.377V24.8214ZM171.199 24.8214H172.377V26H171.199V24.8214ZM170.02 24.8214H171.199V26H170.02V24.8214ZM168.842 24.8214H170.02V26H168.842V24.8214ZM168.842 23.6429H170.02V24.8214H168.842V23.6429ZM170.02 23.6429H171.199V24.8214H170.02V23.6429ZM168.842 22.4643H170.02V23.6429H168.842V22.4643ZM167.663 23.6429H168.842V24.8214H167.663V23.6429ZM167.663 22.4643H168.842V23.6429H167.663V22.4643ZM167.663 21.2857H168.842V22.4643H167.663V21.2857ZM167.663 20.1071H168.842V21.2857H167.663V20.1071ZM167.663 18.9286H168.842V20.1071H167.663V18.9286ZM167.663 17.75H168.842V18.9286H167.663V17.75ZM168.842 18.9286H170.02V20.1071H168.842V18.9286ZM168.842 20.1071H170.02V21.2857H168.842V20.1071ZM168.842 21.2857H170.02V22.4643H168.842V21.2857ZM171.199 23.6429H172.377V24.8214H171.199V23.6429ZM171.199 17.75H172.377V18.9286H171.199V17.75ZM173.556 20.1071H174.735V21.2857H173.556V20.1071ZM174.735 20.1071H175.913V21.2857H174.735V20.1071ZM170.02 21.2857H171.199V22.4643H170.02V21.2857ZM171.199 21.2857H172.377V22.4643H171.199V21.2857ZM172.377 21.2857H173.556V22.4643H172.377V21.2857ZM173.556 21.2857H174.735V22.4643H173.556V21.2857ZM174.735 21.2857H175.913V22.4643H174.735V21.2857ZM172.377 20.1071H173.556V21.2857H172.377V20.1071ZM171.199 20.1071H172.377V21.2857H171.199V20.1071ZM170.02 20.1071H171.199V21.2857H170.02V20.1071ZM177.315 17.75H178.493V18.9286H177.315V17.75ZM177.315 16.5714H178.493V17.75H177.315V16.5714ZM178.493 16.5714H179.672V17.75H178.493V16.5714ZM178.493 17.75H179.672V18.9286H178.493V17.75ZM178.493 18.9286H179.672V20.1071H178.493V18.9286ZM178.493 20.1071H179.672V21.2857H178.493V20.1071ZM178.493 21.2857H179.672V22.4643H178.493V21.2857ZM177.315 21.2857H178.493V22.4643H177.315V21.2857ZM177.315 20.1071H178.493V21.2857H177.315V20.1071ZM177.315 18.9286H178.493V20.1071H177.315V18.9286ZM177.315 22.4643H178.493V23.6429H177.315V22.4643ZM178.493 22.4643H179.672V23.6429H178.493V22.4643ZM178.493 23.6429H179.672V24.8214H178.493V23.6429ZM178.493 24.8214H179.672V26H178.493V24.8214ZM177.315 24.8214H178.493V26H177.315V24.8214ZM177.315 23.6429H178.493V24.8214H177.315V23.6429ZM179.672 17.75H180.85V18.9286H179.672V17.75ZM180.85 17.75H182.029V18.9286H180.85V17.75ZM182.029 17.75H183.208V18.9286H182.029V17.75ZM182.029 16.5714H183.208V17.75H182.029V16.5714ZM180.85 16.5714H182.029V17.75H180.85V16.5714ZM179.672 18.9286H180.85V20.1071H179.672V18.9286ZM183.208 17.75H184.386V18.9286H183.208V17.75ZM182.029 18.9286H183.208V20.1071H182.029V18.9286Z" fill="#EA893A"/>
</svg>
