<svg width="32" height="32" viewBox="0 0 32 32" fill="none" xmlns="http://www.w3.org/2000/svg">
<g id="Pixel/Regular/Brightness Low">
<path id="Vector" d="M26.6668 14.6665H25.3335V17.3332H26.6668V14.6665Z" fill="white"/>
<path id="Vector_2" d="M30.6668 14.6665H29.3335V17.3332H30.6668V14.6665Z" fill="white"/>
<path id="Vector_3" d="M29.3332 13.3335H26.6665V14.6668H29.3332V13.3335Z" fill="white"/>
<path id="Vector_4" d="M29.3332 17.3335H26.6665V18.6668H29.3332V17.3335Z" fill="white"/>
<path id="Vector_5" d="M23.9998 5.3335H22.6665V8.00016H23.9998V5.3335Z" fill="white"/>
<path id="Vector_6" d="M26.6667 8H24V9.33333H26.6667V8Z" fill="white"/>
<path id="Vector_7" d="M27.9998 5.3335H26.6665V8.00016H27.9998V5.3335Z" fill="white"/>
<path id="Vector_8" d="M26.6667 4H24V5.33333H26.6667V4Z" fill="white"/>
<path id="Vector_9" d="M26.6667 22.6665H24V23.9998H26.6667V22.6665Z" fill="white"/>
<path id="Vector_10" d="M27.9998 24H26.6665V26.6667H27.9998V24Z" fill="white"/>
<path id="Vector_11" d="M23.9998 24H22.6665V26.6667H23.9998V24Z" fill="white"/>
<path id="Vector_12" d="M26.6667 26.6665H24V27.9998H26.6667V26.6665Z" fill="white"/>
<path id="Vector_13" d="M17.3332 25.3335H14.6665V26.6668H17.3332V25.3335Z" fill="white"/>
<path id="Vector_14" d="M17.3332 29.3335H14.6665V30.6668H17.3332V29.3335Z" fill="white"/>
<path id="Vector_15" d="M18.6668 26.6665H17.3335V29.3332H18.6668V26.6665Z" fill="white"/>
<path id="Vector_16" d="M14.6668 26.6665H13.3335V29.3332H14.6668V26.6665Z" fill="white"/>
<path id="Vector_17" d="M18.6668 2.6665H17.3335V5.33317H18.6668V2.6665Z" fill="white"/>
<path id="Vector_18" d="M14.6668 2.6665H13.3335V5.33317H14.6668V2.6665Z" fill="white"/>
<path id="Vector_19" d="M17.3332 1.3335H14.6665V2.66683H17.3332V1.3335Z" fill="white"/>
<path id="Vector_20" d="M17.3332 5.3335H14.6665V6.66683H17.3332V5.3335Z" fill="white"/>
<path id="Vector_21" d="M21.3335 13.3335V10.6668H18.6668V9.3335H13.3335V10.6668H10.6668V13.3335H9.3335V18.6668H10.6668V21.3335H13.3335V22.6668H18.6668V21.3335H21.3335V18.6668H22.6668V13.3335H21.3335ZM18.6668 18.6668V20.0002H13.3335V18.6668H12.0002V13.3335H13.3335V12.0002H18.6668V13.3335H20.0002V18.6668H18.6668Z" fill="white"/>
<path id="Vector_22" d="M5.33333 24H4V26.6667H5.33333V24Z" fill="white"/>
<path id="Vector_23" d="M8.00016 26.6665H5.3335V27.9998H8.00016V26.6665Z" fill="white"/>
<path id="Vector_24" d="M8.00016 22.6665H5.3335V23.9998H8.00016V22.6665Z" fill="white"/>
<path id="Vector_25" d="M9.33333 24H8V26.6667H9.33333V24Z" fill="white"/>
<path id="Vector_26" d="M9.33333 5.3335H8V8.00016H9.33333V5.3335Z" fill="white"/>
<path id="Vector_27" d="M8.00016 4H5.3335V5.33333H8.00016V4Z" fill="white"/>
<path id="Vector_28" d="M8.00016 8H5.3335V9.33333H8.00016V8Z" fill="white"/>
<path id="Vector_29" d="M5.33333 5.3335H4V8.00016H5.33333V5.3335Z" fill="white"/>
<path id="Vector_30" d="M5.33317 17.3335H2.6665V18.6668H5.33317V17.3335Z" fill="white"/>
<path id="Vector_31" d="M5.33317 13.3335H2.6665V14.6668H5.33317V13.3335Z" fill="white"/>
<path id="Vector_32" d="M2.66683 14.6665H1.3335V17.3332H2.66683V14.6665Z" fill="white"/>
<path id="Vector_33" d="M6.66683 14.6665H5.3335V17.3332H6.66683V14.6665Z" fill="white"/>
</g>
</svg>
