<svg width="34" height="34" viewBox="0 0 34 34" fill="none" xmlns="http://www.w3.org/2000/svg">
<g id="Pixel/Regular/Ellipses Horizontal" clip-path="url(#clip0_1101_299)">
<path id="Vector" d="M11.3139 19.799L10.6068 20.5061L9.89972 19.799L8.4855 21.2132L9.19261 21.9203L8.4855 22.6274L9.19261 23.3345L8.4855 24.0417L9.89972 25.4559L10.6068 24.7488L11.3139 25.4559L12.021 24.7488L12.7281 25.4559L14.1424 24.0417L13.4352 23.3345L14.1424 22.6274L13.4352 21.9203L14.1424 21.2132L12.7281 19.799L12.021 20.5061L11.3139 19.799ZM12.7281 22.6274L11.3139 24.0417L9.89972 22.6274L11.3139 21.2132L12.7281 22.6274Z" fill="white"/>
<path id="Vector_2" d="M16.9707 14.1423L16.2636 14.8494L15.5565 14.1423L14.1422 15.5565L14.8493 16.2636L14.1422 16.9707L14.8493 17.6778L14.1422 18.3849L15.5565 19.7991L16.2636 19.092L16.9707 19.7991L17.6778 19.092L18.3849 19.7991L19.7991 18.3849L19.092 17.6778L19.7991 16.9707L19.092 16.2636L19.7991 15.5565L18.3849 14.1423L17.6778 14.8494L16.9707 14.1423ZM18.3849 16.9707L16.9707 18.3849L15.5565 16.9707L16.9707 15.5565L18.3849 16.9707Z" fill="white"/>
<path id="Vector_3" d="M23.3345 9.19264L22.6274 8.48554L21.9203 9.19264L21.2132 8.48554L19.799 9.89975L20.5061 10.6069L19.799 11.314L20.5061 12.0211L19.799 12.7282L21.2132 14.1424L21.9203 13.4353L22.6274 14.1424L23.3345 13.4353L24.0416 14.1424L25.4558 12.7282L24.7487 12.0211L25.4558 11.314L24.7487 10.6069L25.4558 9.89975L24.0416 8.48554L23.3345 9.19264ZM22.6274 12.7282L21.2132 11.314L22.6274 9.89975L24.0416 11.314L22.6274 12.7282Z" fill="white"/>
</g>
<defs>
<clipPath id="clip0_1101_299">
<rect width="24" height="24" fill="white" transform="translate(0 16.9707) rotate(-45)"/>
</clipPath>
</defs>
</svg>
