<svg width="24" height="24" viewBox="0 0 24 24" fill="none" xmlns="http://www.w3.org/2000/svg">
<g id="Pixel/Regular/Spinner">
<path id="Vector" d="M22 13H20V14H22V13Z" fill="white"/>
<path id="Vector_2" d="M23 11H22V13H23V11Z" fill="white"/>
<path id="Vector_3" d="M22 10H20V11H22V10Z" fill="white"/>
<path id="Vector_4" d="M20 11H19V13H20V11Z" fill="white"/>
<path id="Vector_5" d="M19 19H17V20H19V19Z" fill="white"/>
<path id="Vector_6" d="M20 17H19V19H20V17Z" fill="white"/>
<path id="Vector_7" d="M19 16H17V17H19V16Z" fill="white"/>
<path id="Vector_8" d="M17 17H16V19H17V17Z" fill="white"/>
<path id="Vector_9" d="M11 20H10V22H11V20Z" fill="white"/>
<path id="Vector_10" d="M13 22H11V23H13V22Z" fill="white"/>
<path id="Vector_11" d="M14 20H13V22H14V20Z" fill="white"/>
<path id="Vector_12" d="M13 19H11V20H13V19Z" fill="white"/>
<path id="Vector_13" d="M7 19H5V20H7V19Z" fill="white"/>
<path id="Vector_14" d="M14 2H13V4H14V2Z" fill="white"/>
<path id="Vector_15" d="M13 4H11V5H13V4Z" fill="white"/>
<path id="Vector_16" d="M13 1H11V2H13V1Z" fill="white"/>
<path id="Vector_17" d="M11 2H10V4H11V2Z" fill="white"/>
<path id="Vector_18" d="M8 17H7V19H8V17Z" fill="white"/>
<path id="Vector_19" d="M7 16H5V17H7V16Z" fill="white"/>
<path id="Vector_20" d="M5 17H4V19H5V17Z" fill="white"/>
<path id="Vector_21" d="M5 11H4V13H5V11Z" fill="white"/>
<g id="Vector_22">
<path d="M8 5H7V7H8V5Z" fill="white"/>
<path d="M7 7H5V8H7V7Z" fill="white"/>
<path d="M7 4H5V5H7V4Z" fill="white"/>
<path d="M5 5H4V7H5V5Z" fill="white"/>
</g>
<g id="Vector_23">
<path d="M20 5H19V7H20V5Z" fill="white"/>
<path d="M19 7H17V8H19V7Z" fill="white"/>
<path d="M19 4H17V5H19V4Z" fill="white"/>
<path d="M17 5H16V7H17V5Z" fill="white"/>
</g>
<path id="Vector_24" d="M4 10H2V11H4V10Z" fill="white"/>
<path id="Vector_25" d="M4 13H2V14H4V13Z" fill="white"/>
<path id="Vector_26" d="M2 11H1V13H2V11Z" fill="white"/>
</g>
</svg>
