<svg width="334" height="30" viewBox="0 0 334 30" fill="none" xmlns="http://www.w3.org/2000/svg">
<path d="M0.688756 10.411C0.567241 10.8161 0.405207 11.4238 0.283691 11.8289C0.445725 11.2213 0.85083 10.6946 1.37745 10.411C2.47121 8.99318 4.17262 8.18301 5.95508 8.18301C2.67376 7.25128 1.661 8.30452 1.37745 8.83114C1.09386 9.35776 0.85083 9.88442 0.688756 10.411Z" fill="#2A72E5"/>
<path d="M4.09161 5.38776L3.60547 5.83338C4.17261 5.38776 5.06381 5.46879 6.48168 6.15745C6.80575 5.59031 7.17033 5.10421 7.61596 4.6991C6.92726 4.21296 6.27913 3.76734 5.8335 3.96989C5.22585 4.41551 4.61823 4.86114 4.09161 5.38776Z" fill="#2A72E5"/>
<path d="M10.8162 1.57986C10.3301 1.78241 9.64137 2.02548 9.15527 2.22804C9.39834 2.51158 9.64137 2.79517 9.84393 3.11924C10.5731 2.71418 11.3833 2.34955 12.153 2.066C12.0315 1.49886 11.991 1.21527 12.153 1.13428C11.7884 1.25579 11.2213 1.41783 10.8162 1.57986Z" fill="#2A72E5"/>
<path d="M18.9585 0.0405185C18.1889 0.121556 17.1761 0.202552 16.4064 0.283589C16.0013 0.364586 15.8393 0.52662 15.6367 1.13428C16.69 0.931725 17.7027 0.810209 18.756 0.729172C19.0801 0.283589 19.5662 0 20.1333 0L18.9585 0.0405185Z" fill="#2A72E5"/>
<path d="M27.4652 0.486142C26.736 0.364586 25.8045 0.243071 25.0753 0.162034C24.3461 0.0810374 23.6169 0.243071 23.0498 0.648176C24.1436 0.688654 25.2373 0.81021 26.3312 0.972243C27.1412 0.607657 28.0324 0.52662 28.8831 0.729173C28.4376 0.688654 27.8704 0.567139 27.4652 0.486142Z" fill="#2A72E5"/>
<path d="M35.0813 2.91669C34.5549 2.67362 33.8257 2.34955 33.2989 2.10648C32.2458 1.66086 31.071 1.57986 29.9771 1.82289C30.8682 2.10648 31.719 2.43055 32.5294 2.79513C33.9877 2.6331 35.4864 2.95717 36.7016 3.76738C36.2156 3.52431 35.608 3.15972 35.0813 2.91669Z" fill="#2A72E5"/>
<path d="M42.6978 10.8567C42.333 9.84391 41.847 8.87166 41.239 7.98046L40.8747 7.45384C39.5379 5.59039 37.4312 4.41559 35.1221 4.37507C35.6489 4.78018 36.1756 5.26628 36.5804 5.79294C40.4291 6.31956 43.1026 9.72239 43.3458 14.4215C43.3054 13.2467 43.1026 12.0315 42.6978 10.8567Z" fill="#2A72E5"/>
<path d="M37.1884 25.2782C37.9176 24.7922 38.6063 24.2654 39.2951 23.6577C39.5379 23.4147 39.8619 23.0906 40.1051 22.8475C44.9257 17.2572 42.7382 9.23625 37.5532 7.77786C37.5936 8.02094 37.634 8.30452 37.634 8.54755C37.634 8.58807 37.634 8.62859 37.634 8.66911C37.634 8.91214 37.5936 9.19573 37.5532 9.43876C43.0622 11.9504 42.5358 21.8753 36.6616 25.6022L37.1884 25.2782Z" fill="#2A72E5"/>
<path d="M29.9367 28.2353C30.6659 28.0329 31.5975 27.7897 32.3267 27.5465C39.416 24.873 40.5503 14.0164 36.5801 11.4238C36.1345 11.9504 35.6485 12.396 35.1217 12.8011C38.484 16.4875 35.041 26.9797 28.7212 28.4785L29.9367 28.2353Z" fill="#2A72E5"/>
<path d="M21.7131 29.0861C22.3613 29.0861 23.2525 29.0861 23.9412 29.0457C29.8152 28.4381 33.9875 17.6623 32.5291 14.2595C31.7191 14.624 30.828 14.9076 29.9772 15.1507C29.9772 19.4852 24.1437 29.1265 19.9712 29.0049C20.4978 29.0457 21.1865 29.0861 21.7131 29.0861Z" fill="#2A72E5"/>
<path d="M13.166 27.9517C13.8141 28.1137 14.7054 28.3165 15.3535 28.4381C17.8246 28.6001 23.9822 20.2954 26.2508 15.8798C25.1569 16.0014 24.0632 16.1229 22.9694 16.1229C21.1869 17.8648 16.4878 23.2932 15.5561 24.3462C13.166 27.1009 12.2748 27.6277 11.9912 27.5873L13.166 27.9517Z" fill="#2A72E5"/>
<path d="M6.03623 24.8326C6.7654 25.3186 7.49457 25.7238 8.26426 26.129L8.3453 26.1694C8.46682 25.4806 14.3408 18.4725 18.8373 16.0014C17.7841 15.8798 16.7308 15.7178 15.7181 15.4747C10.3303 17.5407 4.82092 23.8603 5.75264 24.6298L6.03623 24.8326Z" fill="#2A72E5"/>
<path d="M2.10636 21.0651C2.34939 21.3891 2.71401 21.8753 2.99756 22.1994C1.78225 20.3359 6.88653 15.5557 12.1933 14.4215C11.3831 14.0974 10.6134 13.7328 9.88426 13.3277C5.02305 13.8543 0.364422 17.2977 1.33667 19.6877C1.53922 20.1334 1.86328 20.7005 2.10636 21.0651Z" fill="#2A72E5"/>
<path d="M0 14.3C0 14.381 0 14.4621 0 14.5431C0.0405185 14.9482 0.0405187 15.4748 0.0809969 15.8799C-0.0405183 13.2468 3.92945 11.5453 7.61587 11.6669C7.17025 11.2213 6.76514 10.6946 6.48159 10.168C3.40283 9.76291 1.70142 10.5731 0.810209 11.3023C0.283589 12.234 0.0405185 13.2467 0 14.3Z" fill="#2A72E5"/>
<path d="M64.8575 6.15745H52.3804V8.66907H57.1606V22.8475H60.1177V8.66907H64.8575V6.15745Z" fill="white"/>
<path d="M74.3367 11.5857C73.8104 11.0995 73.162 10.6944 72.514 10.4919C70.9341 9.96526 69.2729 9.96526 67.6934 10.4919C67.0046 10.735 66.397 11.0995 65.8702 11.5857C65.3435 12.0718 64.9387 12.6794 64.6955 13.3681C64.4119 14.1378 64.2499 14.9885 64.2903 15.7987V17.2571C64.2903 18.0673 64.4119 18.918 64.6955 19.6876C64.9387 20.3763 65.3435 20.984 65.8702 21.4701C66.397 21.9562 67.0046 22.3613 67.6934 22.5639C69.2729 23.0905 70.9341 23.0905 72.514 22.5639C73.2024 22.3208 73.8104 21.9562 74.3367 21.4701C74.8635 20.9434 75.2687 20.3358 75.5115 19.6876C75.7951 18.918 75.9571 18.0673 75.9167 17.2571V15.7987C75.9167 14.948 75.7951 14.1378 75.5115 13.3681C75.2687 12.72 74.8635 12.1123 74.3367 11.5857ZM71.258 20.2953C70.4885 20.5384 69.6781 20.5384 68.9489 20.2953C68.6249 20.1738 68.301 20.0117 68.0174 19.7282C67.7338 19.4446 67.531 19.1205 67.4098 18.7154C67.2474 18.2293 67.1666 17.7432 67.207 17.2165V15.8392C67.1262 14.948 67.4098 14.0568 67.9766 13.3681C69.2325 12.3959 70.9745 12.3959 72.2304 13.3681C72.838 14.0568 73.1216 14.948 73 15.8392V17.2165C73 17.7432 72.9188 18.2293 72.7568 18.7154C72.6356 19.08 72.4328 19.4446 72.1492 19.7282C71.906 19.9712 71.582 20.1738 71.258 20.2953Z" fill="white"/>
<path d="M89.2848 10.3705H85.5985L81.0207 15.5557V6.15745H78.104V22.807H81.0207V19.0801L82.3982 17.5407L85.7605 22.7665H89.4876L84.4642 15.4747L89.2848 10.3705Z" fill="white"/>
<path d="M99.129 11.1401C98.6426 10.7755 98.1162 10.5325 97.549 10.3704C95.9691 9.92482 94.2675 10.0059 92.7284 10.6135C91.9584 10.9376 91.2701 11.3022 90.5813 11.7883L90.5409 11.8288L91.9992 13.9758L92.0396 13.9353C93.012 13.1251 94.2675 12.72 95.5235 12.72C96.1311 12.6795 96.6983 12.8415 97.1842 13.2061C97.549 13.6518 97.7514 14.2594 97.711 14.8266V15.2721H94.9159C94.1867 15.2721 93.4168 15.3532 92.6876 15.5557C92.1612 15.7178 91.6344 15.9608 91.2293 16.2849C90.8649 16.5684 90.5813 16.9736 90.4193 17.4192C90.2573 17.8648 90.1761 18.3509 90.1761 18.837V19.5662C90.1357 20.5384 90.5409 21.5107 91.3105 22.1588C92.2016 22.807 93.336 23.1311 94.4295 23.0906C94.7943 23.0906 95.1183 23.05 95.4831 22.969C95.8475 22.888 96.1715 22.7665 96.5363 22.6449C96.8602 22.5234 97.1438 22.3209 97.4274 22.1183C97.6298 21.9563 97.7918 21.7537 97.9542 21.5107L97.9946 22.9285H100.628V14.1784C100.628 13.6112 100.506 13.0036 100.263 12.477C99.9389 11.9098 99.5745 11.5047 99.129 11.1401ZM97.6706 17.5002V17.7838C97.6706 18.1483 97.6706 18.5535 97.5894 18.918C97.549 19.2421 97.387 19.4852 97.1438 19.7282C96.4551 20.3359 95.5235 20.6195 94.5915 20.5384C94.146 20.5789 93.7004 20.4574 93.3764 20.2143C93.0928 20.0118 92.9308 19.6472 92.9712 19.2826V18.999C92.9712 18.5939 93.0928 18.1889 93.4168 17.8648C93.8628 17.5407 94.3891 17.3787 94.9563 17.4597L97.6706 17.5002Z" fill="white"/>
<path d="M119.546 11.3021C119.141 10.897 118.695 10.6134 118.169 10.4109C117.642 10.2083 117.075 10.1273 116.508 10.1273C115.698 10.0868 114.928 10.2489 114.199 10.6134C113.591 10.9375 113.064 11.4236 112.7 11.9908C112.457 11.4236 112.011 10.9375 111.444 10.654C110.796 10.2894 110.107 10.1273 109.378 10.1273C108.649 10.1273 107.92 10.2894 107.272 10.6134C106.705 10.9375 106.259 11.3831 105.975 11.9097V10.3704H103.221V22.8474H106.137V15.1911C106.097 14.5024 106.299 13.8137 106.745 13.3276C107.191 12.9225 107.758 12.6794 108.365 12.72C108.649 12.72 108.932 12.7605 109.216 12.8415C109.5 12.9225 109.702 13.0845 109.905 13.2871C110.107 13.5302 110.269 13.8137 110.391 14.0973C110.512 14.5024 110.593 14.948 110.553 15.3936V22.8879H113.47V15.3531C113.47 14.9075 113.51 14.5024 113.672 14.0973C113.794 13.8137 113.956 13.5302 114.199 13.2871C114.401 13.0845 114.644 12.963 114.928 12.882C115.455 12.72 116.022 12.72 116.589 12.882C116.873 12.963 117.075 13.0845 117.277 13.2871C117.521 13.5302 117.683 13.8137 117.764 14.0973C117.885 14.5429 117.966 14.9885 117.926 15.4746V22.8879H120.842V14.867C120.842 14.1783 120.721 13.4491 120.478 12.801C120.275 12.1933 119.951 11.7072 119.546 11.3021Z" fill="white"/>
<path d="M131.902 11.1401C131.416 10.7755 130.889 10.5325 130.322 10.3704C128.742 9.92482 127.041 10.0059 125.501 10.6135C124.731 10.9376 124.043 11.3022 123.354 11.7883L123.313 11.8288L124.772 13.9758L124.813 13.9353C125.785 13.1251 127.041 12.72 128.296 12.72C128.904 12.6795 129.471 12.8415 129.957 13.2061C130.322 13.6518 130.524 14.2594 130.484 14.8266V15.2721H127.689C126.959 15.2721 126.19 15.3532 125.461 15.5557C124.934 15.7178 124.407 15.9608 124.002 16.2849C123.637 16.5684 123.354 16.9736 123.192 17.4192C123.03 17.8648 122.949 18.3509 122.949 18.837V19.5662C122.908 20.5384 123.313 21.5107 124.083 22.1588C124.975 22.807 126.109 23.1311 127.203 23.0906C127.567 23.0906 127.891 23.05 128.256 22.969C128.62 22.888 128.944 22.7665 129.309 22.6449C129.633 22.5234 129.917 22.3209 130.2 22.1183C130.403 21.9563 130.565 21.7537 130.727 21.5107L130.767 22.9285H133.401V14.1784C133.401 13.6112 133.279 13.0036 133.036 12.477C132.712 11.9098 132.347 11.5047 131.902 11.1401ZM130.443 17.5002V17.7838C130.443 18.1483 130.443 18.5535 130.362 18.918C130.322 19.2421 130.16 19.4852 129.917 19.7282C129.228 20.3359 128.296 20.6195 127.365 20.5384C126.919 20.5789 126.473 20.4574 126.149 20.2143C125.866 20.0118 125.704 19.6472 125.744 19.2826V18.999C125.744 18.5939 125.866 18.1889 126.19 17.8648C126.635 17.5407 127.162 17.3787 127.729 17.4597L130.443 17.5002Z" fill="white"/>
<path d="M147.173 10.3705H143.487L138.909 15.5557V6.15745H135.993V22.807H138.909V19.0801L140.287 17.5407L143.649 22.7665H147.376L142.353 15.4747L147.173 10.3705Z" fill="white"/>
<path d="M163.053 16.4063L157.544 6.19784H154.182V22.8474H156.936V11.3426C156.936 11.3426 157.666 12.6389 157.868 13.0035L163.418 22.8474H166.78V6.19784H164.026V18.2293C164.026 18.1888 163.215 16.6899 163.053 16.4063Z" fill="white"/>
<path d="M178.731 11.4642C178.245 10.9781 177.637 10.654 176.989 10.4515C176.301 10.2084 175.531 10.0869 174.801 10.1274C174.032 10.1274 173.303 10.2489 172.574 10.4515C171.885 10.654 171.277 11.0186 170.791 11.5047C170.264 12.0313 169.859 12.639 169.576 13.3277C169.252 14.1784 169.13 15.0291 169.13 15.9203V17.2166C169.09 18.1889 169.252 19.1206 169.616 20.0118C169.9 20.7005 170.346 21.3081 170.913 21.7943C171.439 22.2398 172.088 22.5639 172.736 22.726C173.424 22.9285 174.113 23.0095 174.842 23.0095C175.855 23.05 176.868 22.9285 177.84 22.6449C178.61 22.4424 179.298 22.1183 179.946 21.6727H179.987L178.772 19.5662H178.731C178.164 19.8903 177.556 20.1738 176.949 20.3359C176.301 20.4979 175.652 20.5789 175.004 20.5789C174.194 20.6195 173.384 20.3764 172.776 19.8498C172.25 19.2826 171.966 18.4724 172.006 17.6622H180.311V15.5962C180.311 14.786 180.189 13.9758 179.906 13.2061C179.622 12.558 179.217 11.9503 178.731 11.4642ZM174.761 12.5175C175.166 12.5175 175.612 12.558 176.017 12.72C176.341 12.8416 176.625 13.0036 176.868 13.2467C177.07 13.4492 177.232 13.7328 177.354 14.0163C177.435 14.2999 177.516 14.624 177.516 14.9481V15.4342H172.006V14.9886C172.006 14.3404 172.25 13.6923 172.695 13.2061C173.222 12.72 173.991 12.477 174.761 12.5175Z" fill="white"/>
<path d="M189.021 20.1739C188.737 20.2954 188.413 20.3764 188.129 20.4574C187.846 20.4979 187.562 20.5385 187.279 20.5385C186.955 20.5385 186.671 20.4574 186.428 20.2954C186.185 20.0118 186.064 19.6473 186.104 19.2827V12.8011H189.223V10.3705H186.104V6.15745L183.187 7.21069V10.3705H181.202V12.8011H183.187V19.2827C183.187 19.8093 183.228 20.3359 183.349 20.8625C183.471 21.3082 183.673 21.7133 183.957 22.0373C184.281 22.3614 184.686 22.645 185.132 22.7665C185.699 22.9285 186.306 23.05 186.914 23.0096C187.441 23.0096 187.927 22.969 188.413 22.8475C188.777 22.7665 189.142 22.645 189.466 22.4829H189.507L189.061 20.1334L189.021 20.1739Z" fill="white"/>
<path d="M202.024 19.9712L199.877 10.4109V10.3704H197.163L194.935 19.9712H194.894L193.071 10.4109V10.3704H189.952L193.031 22.8069V22.8474H196.393L198.419 14.1378H198.459L200.485 22.8474H203.847L206.926 10.4514V10.4109H204.009L202.024 19.9712Z" fill="white"/>
<path d="M217.863 11.5857C217.337 11.0995 216.688 10.6944 216.04 10.4919C214.501 9.96526 212.8 9.96526 211.22 10.4919C210.531 10.735 209.923 11.0995 209.397 11.5857C208.87 12.0718 208.465 12.6794 208.222 13.3681C207.938 14.1378 207.776 14.9885 207.817 15.7987V17.2571C207.817 18.0673 207.938 18.918 208.222 19.6876C208.465 20.3763 208.87 20.984 209.397 21.4701C209.923 21.9562 210.531 22.3613 211.22 22.5639C212.8 23.0905 214.46 23.0905 216.04 22.5639C216.729 22.3208 217.337 21.9562 217.863 21.4701C218.39 20.9434 218.795 20.3358 219.038 19.6876C219.321 18.918 219.483 18.0673 219.443 17.2571V15.7987C219.443 14.948 219.321 14.1378 219.038 13.3681C218.795 12.72 218.39 12.1123 217.863 11.5857ZM214.784 20.2953C214.015 20.5384 213.204 20.5384 212.475 20.2953C212.151 20.1738 211.827 20.0117 211.544 19.7282C211.26 19.4446 211.058 19.1205 210.936 18.7154C210.774 18.2293 210.693 17.7432 210.693 17.2165V15.8392C210.612 14.948 210.895 14.0568 211.463 13.3681C212.718 12.3959 214.46 12.3959 215.716 13.3681C216.324 14.0568 216.608 14.948 216.486 15.8392V17.2165C216.486 17.7432 216.405 18.2293 216.283 18.7154C216.162 19.08 215.959 19.4446 215.676 19.7282C215.433 19.9712 215.108 20.1738 214.784 20.2953Z" fill="white"/>
<path d="M228.882 10.168C228.558 10.1275 228.234 10.0869 227.95 10.0869C227.181 10.0464 226.411 10.249 225.763 10.6541C225.236 11.0187 224.791 11.5453 224.466 12.1124V10.33H221.671V22.807H224.588V15.4343C224.588 15.0697 224.669 14.6646 224.79 14.3405C224.912 14.0164 225.115 13.7328 225.358 13.4898C225.601 13.2467 225.884 13.0441 226.208 12.9226C226.532 12.8011 226.897 12.7201 227.302 12.7201C227.586 12.7201 227.91 12.7201 228.194 12.8011C228.437 12.8416 228.639 12.9226 228.841 13.0036H228.882L229.733 10.3705H229.692C229.409 10.2895 229.125 10.2085 228.882 10.168Z" fill="white"/>
<path d="M237.43 15.5557L242.291 10.3705H238.604L234.027 15.5557V6.15745H231.11V22.807H234.027V19.0801L235.404 17.5407L238.766 22.7665H242.493L237.43 15.5557Z" fill="white"/>
<path d="M324.115 20.0577L320.674 11.2833C320.443 10.706 320.212 9.96708 319.82 8.76639V22.8286H317.072V6.18023H321.274L325.361 16.5248L329.287 6.18023H333.536V22.8286H330.741V8.76639C330.395 10.1518 330.164 10.6829 329.957 11.2833L326.47 20.0577H324.115Z" fill="#2A72E5"/>
<path d="M305.641 22.8286L299.522 6.18023H302.686L307.05 19.2034L311.576 6.18023H314.577L308.297 22.8286H305.641Z" fill="#2A72E5"/>
<path d="M286.698 6.18023H297.412V8.62782H289.631V13.1074H296.928V15.5089H289.631V20.381H297.574V22.8286H286.698V6.18023Z" fill="#2A72E5"/>
<path d="M275.967 15.7165V13.3151H283.818V15.7165H275.967Z" fill="#2A72E5"/>
<path d="M274.536 10.1056L269.594 15.3702L274.743 22.8285H271.026L267.562 17.4253L266.108 19.0417V22.8285H263.198V5.372H266.108V15.4857L270.864 10.1056H274.536Z" fill="#2A72E5"/>
<path d="M260.542 10.1056V12.4147L254.307 20.2886H260.911V22.8285H250.474V20.8428L256.986 12.6456H250.936V10.1056H260.542Z" fill="#2A72E5"/>
</svg>
