<svg width="550" height="18" viewBox="0 0 550 18" fill="none" xmlns="http://www.w3.org/2000/svg">
<circle cx="8" cy="9" r="7" fill="#365969"/>
<path d="M8.6998 12.5H7.2998V8.3H8.6998V12.5Z" fill="white"/>
<path d="M8.6998 6.9H7.2998V5.5H8.6998V6.9Z" fill="white"/>
<path d="M26.788 5.25V14H25.612V5.25H22.35V4.228H30.05V5.25H26.788ZM34.3145 14.168C33.7172 14.168 33.2039 14.056 32.7745 13.832C32.3452 13.5987 31.9905 13.2673 31.7105 12.838C31.4305 12.4087 31.2252 11.8813 31.0945 11.256C30.9639 10.6307 30.8985 9.91667 30.8985 9.114C30.8985 8.32067 30.9639 7.61133 31.0945 6.986C31.2252 6.35133 31.4305 5.81933 31.7105 5.39C31.9905 4.96067 32.3452 4.634 32.7745 4.41C33.2039 4.17667 33.7172 4.06 34.3145 4.06C34.9119 4.06 35.4252 4.17667 35.8545 4.41C36.2839 4.634 36.6385 4.96067 36.9185 5.39C37.1985 5.81933 37.4039 6.35133 37.5345 6.986C37.6652 7.61133 37.7305 8.32067 37.7305 9.114C37.7305 9.91667 37.6652 10.6307 37.5345 11.256C37.4039 11.8813 37.1985 12.4087 36.9185 12.838C36.6385 13.2673 36.2839 13.5987 35.8545 13.832C35.4252 14.056 34.9119 14.168 34.3145 14.168ZM34.3145 13.146C34.7065 13.146 35.0379 13.0713 35.3085 12.922C35.5792 12.7633 35.8032 12.544 35.9805 12.264C36.1579 11.984 36.2839 11.648 36.3585 11.256C36.4425 10.8547 36.4845 10.4067 36.4845 9.912V8.316C36.4845 7.83067 36.4425 7.38733 36.3585 6.986C36.2839 6.58467 36.1579 6.244 35.9805 5.964C35.8032 5.684 35.5792 5.46933 35.3085 5.32C35.0379 5.16133 34.7065 5.082 34.3145 5.082C33.9225 5.082 33.5912 5.16133 33.3205 5.32C33.0499 5.46933 32.8259 5.684 32.6485 5.964C32.4712 6.244 32.3405 6.58467 32.2565 6.986C32.1819 7.38733 32.1445 7.83067 32.1445 8.316V9.912C32.1445 10.4067 32.1819 10.8547 32.2565 11.256C32.3405 11.648 32.4712 11.984 32.6485 12.264C32.8259 12.544 33.0499 12.7633 33.3205 12.922C33.5912 13.0713 33.9225 13.146 34.3145 13.146ZM40.5111 5.768H40.4131V14H39.3491V4.228H41.0151L44.3471 12.46H44.4451V4.228H45.5091V14H43.8431L40.5111 5.768ZM59.0081 14C58.4575 14 58.0515 13.846 57.7901 13.538C57.5381 13.23 57.4121 12.8333 57.4121 12.348V7.728H55.0041V6.776H56.7961C57.0388 6.776 57.2068 6.72933 57.3001 6.636C57.4028 6.53333 57.4541 6.36067 57.4541 6.118V4.228H58.5321V6.776H61.8221V7.728H58.5321V13.048H61.8221V14H59.0081ZM63.6507 13.048H65.7647V7.728H63.6507V6.776H66.8847V8.596H66.9547C67.104 8.02667 67.384 7.58333 67.7947 7.266C68.2147 6.93933 68.7467 6.776 69.3907 6.776H70.3987V7.896H69.0407C68.3967 7.896 67.874 8.08267 67.4727 8.456C67.0807 8.82933 66.8847 9.31933 66.8847 9.926V13.048H69.6847V14H63.6507V13.048ZM77.6172 14C77.1785 14 76.8659 13.888 76.6792 13.664C76.4925 13.44 76.3759 13.16 76.3292 12.824H76.2592C76.1005 13.244 75.8439 13.5753 75.4892 13.818C75.1439 14.0513 74.6772 14.168 74.0892 14.168C73.3332 14.168 72.7312 13.972 72.2832 13.58C71.8352 13.188 71.6112 12.6513 71.6112 11.97C71.6112 11.298 71.8539 10.78 72.3392 10.416C72.8339 10.052 73.6272 9.87 74.7192 9.87H76.2592V9.156C76.2592 8.624 76.1099 8.22733 75.8112 7.966C75.5125 7.69533 75.0879 7.56 74.5372 7.56C74.0519 7.56 73.6552 7.658 73.3472 7.854C73.0392 8.04067 72.7919 8.29733 72.6052 8.624L71.8492 8.064C71.9425 7.87733 72.0685 7.69533 72.2272 7.518C72.3859 7.34067 72.5819 7.18667 72.8152 7.056C73.0485 6.916 73.3145 6.80867 73.6132 6.734C73.9119 6.65 74.2432 6.608 74.6072 6.608C75.4565 6.608 76.1285 6.82267 76.6232 7.252C77.1272 7.68133 77.3792 8.27867 77.3792 9.044V13.02H78.3872V14H77.6172ZM74.2852 13.23C74.5745 13.23 74.8359 13.1973 75.0692 13.132C75.3119 13.0573 75.5219 12.964 75.6992 12.852C75.8765 12.7307 76.0119 12.5907 76.1052 12.432C76.2079 12.264 76.2592 12.0867 76.2592 11.9V10.71H74.7192C74.0472 10.71 73.5572 10.8033 73.2492 10.99C72.9412 11.1767 72.7872 11.4473 72.7872 11.802V12.096C72.7872 12.4693 72.9179 12.754 73.1792 12.95C73.4499 13.1367 73.8185 13.23 74.2852 13.23ZM80.1737 14V6.776H81.2937V7.952H81.3497C81.4244 7.77467 81.5177 7.60667 81.6297 7.448C81.7417 7.28 81.8771 7.13533 82.0357 7.014C82.2037 6.89267 82.3997 6.79467 82.6237 6.72C82.8477 6.64533 83.1091 6.608 83.4077 6.608C84.1637 6.608 84.7704 6.85067 85.2277 7.336C85.6851 7.812 85.9137 8.48867 85.9137 9.366V14H84.7937V9.562C84.7937 8.89933 84.6491 8.40933 84.3597 8.092C84.0704 7.76533 83.6457 7.602 83.0857 7.602C82.8617 7.602 82.6424 7.63 82.4277 7.686C82.2131 7.742 82.0217 7.826 81.8537 7.938C81.6857 8.05 81.5504 8.19467 81.4477 8.372C81.3451 8.54933 81.2937 8.75467 81.2937 8.988V14H80.1737ZM91.2003 14.168C90.4443 14.168 89.7909 14.042 89.2403 13.79C88.6989 13.5287 88.2369 13.1833 87.8543 12.754L88.6103 12.096C88.9556 12.46 89.3336 12.74 89.7443 12.936C90.1549 13.132 90.6496 13.23 91.2283 13.23C91.7883 13.23 92.2456 13.132 92.6003 12.936C92.9643 12.7307 93.1463 12.4133 93.1463 11.984C93.1463 11.7973 93.1089 11.6433 93.0343 11.522C92.9689 11.3913 92.8756 11.2887 92.7543 11.214C92.6329 11.1393 92.4976 11.0833 92.3483 11.046C92.1989 10.9993 92.0403 10.962 91.8723 10.934L90.7383 10.766C90.4863 10.7287 90.2109 10.6773 89.9123 10.612C89.6229 10.5467 89.3569 10.444 89.1143 10.304C88.8716 10.1547 88.6663 9.95867 88.4983 9.716C88.3396 9.47333 88.2603 9.156 88.2603 8.764C88.2603 8.4 88.3303 8.08733 88.4703 7.826C88.6196 7.55533 88.8249 7.33133 89.0863 7.154C89.3476 6.96733 89.6556 6.832 90.0103 6.748C90.3649 6.65467 90.7523 6.608 91.1723 6.608C91.8256 6.608 92.3903 6.71067 92.8663 6.916C93.3516 7.12133 93.7669 7.406 94.1123 7.77L93.3843 8.456C93.3003 8.35333 93.1929 8.25067 93.0623 8.148C92.9409 8.036 92.7869 7.938 92.6003 7.854C92.4229 7.76067 92.2129 7.686 91.9703 7.63C91.7276 7.574 91.4476 7.546 91.1303 7.546C90.5609 7.546 90.1223 7.644 89.8143 7.84C89.5156 8.036 89.3663 8.32067 89.3663 8.694C89.3663 8.88067 89.3989 9.03933 89.4643 9.17C89.5389 9.29133 89.6369 9.38933 89.7583 9.464C89.8796 9.53867 90.0149 9.59933 90.1643 9.646C90.3229 9.68333 90.4816 9.716 90.6403 9.744L91.7743 9.912C92.0356 9.94933 92.3109 10.0007 92.6003 10.066C92.8896 10.1313 93.1556 10.2387 93.3983 10.388C93.6409 10.528 93.8416 10.7193 94.0003 10.962C94.1683 11.2047 94.2523 11.522 94.2523 11.914C94.2523 12.6327 93.9723 13.188 93.4123 13.58C92.8616 13.972 92.1243 14.168 91.2003 14.168ZM101.961 14C101.522 14 101.209 13.888 101.023 13.664C100.836 13.44 100.719 13.16 100.673 12.824H100.603C100.444 13.244 100.187 13.5753 99.8328 13.818C99.4875 14.0513 99.0208 14.168 98.4328 14.168C97.6768 14.168 97.0748 13.972 96.6268 13.58C96.1788 13.188 95.9548 12.6513 95.9548 11.97C95.9548 11.298 96.1975 10.78 96.6828 10.416C97.1775 10.052 97.9708 9.87 99.0628 9.87H100.603V9.156C100.603 8.624 100.453 8.22733 100.155 7.966C99.8561 7.69533 99.4315 7.56 98.8808 7.56C98.3955 7.56 97.9988 7.658 97.6908 7.854C97.3828 8.04067 97.1355 8.29733 96.9488 8.624L96.1928 8.064C96.2861 7.87733 96.4121 7.69533 96.5708 7.518C96.7295 7.34067 96.9255 7.18667 97.1588 7.056C97.3921 6.916 97.6581 6.80867 97.9568 6.734C98.2555 6.65 98.5868 6.608 98.9508 6.608C99.8001 6.608 100.472 6.82267 100.967 7.252C101.471 7.68133 101.723 8.27867 101.723 9.044V13.02H102.731V14H101.961ZM98.6288 13.23C98.9181 13.23 99.1795 13.1973 99.4128 13.132C99.6555 13.0573 99.8655 12.964 100.043 12.852C100.22 12.7307 100.355 12.5907 100.449 12.432C100.551 12.264 100.603 12.0867 100.603 11.9V10.71H99.0628C98.3908 10.71 97.9008 10.8033 97.5928 10.99C97.2848 11.1767 97.1308 11.4473 97.1308 11.802V12.096C97.1308 12.4693 97.2615 12.754 97.5228 12.95C97.7935 13.1367 98.1621 13.23 98.6288 13.23ZM107.597 14.168C107.075 14.168 106.608 14.0793 106.197 13.902C105.796 13.7153 105.455 13.4587 105.175 13.132C104.895 12.8053 104.681 12.4087 104.531 11.942C104.391 11.4753 104.321 10.9573 104.321 10.388C104.321 9.81867 104.396 9.30067 104.545 8.834C104.695 8.36733 104.909 7.97067 105.189 7.644C105.469 7.308 105.81 7.05133 106.211 6.874C106.613 6.69667 107.07 6.608 107.583 6.608C108.283 6.608 108.853 6.762 109.291 7.07C109.73 7.378 110.052 7.77933 110.257 8.274L109.361 8.75C109.231 8.37667 109.011 8.08733 108.703 7.882C108.405 7.67667 108.031 7.574 107.583 7.574C107.257 7.574 106.963 7.63 106.701 7.742C106.449 7.84467 106.235 7.994 106.057 8.19C105.88 8.386 105.745 8.61933 105.651 8.89C105.567 9.16067 105.525 9.45467 105.525 9.772V11.004C105.525 11.3213 105.567 11.6153 105.651 11.886C105.745 12.1567 105.88 12.39 106.057 12.586C106.235 12.782 106.454 12.936 106.715 13.048C106.977 13.1507 107.275 13.202 107.611 13.202C108.097 13.202 108.498 13.09 108.815 12.866C109.133 12.642 109.385 12.334 109.571 11.942L110.369 12.488C110.155 12.9733 109.819 13.3747 109.361 13.692C108.913 14.0093 108.325 14.168 107.597 14.168ZM115.81 14C115.259 14 114.853 13.846 114.592 13.538C114.34 13.23 114.214 12.8333 114.214 12.348V7.728H111.806V6.776H113.598C113.841 6.776 114.009 6.72933 114.102 6.636C114.205 6.53333 114.256 6.36067 114.256 6.118V4.228H115.334V6.776H118.624V7.728H115.334V13.048H118.624V14H115.81ZM124.022 5.18C123.696 5.18 123.467 5.11467 123.336 4.984C123.206 4.844 123.14 4.67133 123.14 4.466V4.242C123.14 4.03667 123.206 3.86867 123.336 3.738C123.467 3.598 123.696 3.528 124.022 3.528C124.349 3.528 124.578 3.598 124.708 3.738C124.839 3.86867 124.904 4.03667 124.904 4.242V4.466C124.904 4.67133 124.839 4.844 124.708 4.984C124.578 5.11467 124.349 5.18 124.022 5.18ZM120.858 13.048H123.462V7.728H120.858V6.776H124.582V13.048H127.018V14H120.858V13.048ZM131.689 14.168C131.185 14.168 130.728 14.0793 130.317 13.902C129.916 13.7247 129.57 13.4727 129.281 13.146C129.001 12.81 128.786 12.4133 128.637 11.956C128.488 11.4893 128.413 10.9667 128.413 10.388C128.413 9.81867 128.488 9.30067 128.637 8.834C128.786 8.36733 129.001 7.97067 129.281 7.644C129.57 7.308 129.916 7.05133 130.317 6.874C130.728 6.69667 131.185 6.608 131.689 6.608C132.193 6.608 132.646 6.69667 133.047 6.874C133.458 7.05133 133.803 7.308 134.083 7.644C134.372 7.97067 134.592 8.36733 134.741 8.834C134.89 9.30067 134.965 9.81867 134.965 10.388C134.965 10.9667 134.89 11.4893 134.741 11.956C134.592 12.4133 134.372 12.81 134.083 13.146C133.803 13.4727 133.458 13.7247 133.047 13.902C132.646 14.0793 132.193 14.168 131.689 14.168ZM131.689 13.202C132.314 13.202 132.818 13.0153 133.201 12.642C133.584 12.2687 133.775 11.69 133.775 10.906V9.87C133.775 9.086 133.584 8.50733 133.201 8.134C132.818 7.76067 132.314 7.574 131.689 7.574C131.064 7.574 130.56 7.76067 130.177 8.134C129.794 8.50733 129.603 9.086 129.603 9.87V10.906C129.603 11.69 129.794 12.2687 130.177 12.642C130.56 13.0153 131.064 13.202 131.689 13.202ZM136.975 14V6.776H138.095V7.952H138.151C138.226 7.77467 138.319 7.60667 138.431 7.448C138.543 7.28 138.679 7.13533 138.837 7.014C139.005 6.89267 139.201 6.79467 139.425 6.72C139.649 6.64533 139.911 6.608 140.209 6.608C140.965 6.608 141.572 6.85067 142.029 7.336C142.487 7.812 142.715 8.48867 142.715 9.366V14H141.595V9.562C141.595 8.89933 141.451 8.40933 141.161 8.092C140.872 7.76533 140.447 7.602 139.887 7.602C139.663 7.602 139.444 7.63 139.229 7.686C139.015 7.742 138.823 7.826 138.655 7.938C138.487 8.05 138.352 8.19467 138.249 8.372C138.147 8.54933 138.095 8.75467 138.095 8.988V14H136.975ZM153.205 3.64H154.325V7.952H154.381C154.455 7.77467 154.549 7.60667 154.661 7.448C154.773 7.28 154.908 7.13533 155.067 7.014C155.235 6.89267 155.431 6.79467 155.655 6.72C155.879 6.64533 156.14 6.608 156.439 6.608C157.195 6.608 157.801 6.85067 158.259 7.336C158.716 7.812 158.945 8.48867 158.945 9.366V14H157.825V9.562C157.825 8.89933 157.68 8.40933 157.391 8.092C157.101 7.76533 156.677 7.602 156.117 7.602C155.893 7.602 155.673 7.63 155.459 7.686C155.244 7.742 155.053 7.826 154.885 7.938C154.717 8.05 154.581 8.19467 154.479 8.372C154.376 8.54933 154.325 8.75467 154.325 8.988V14H153.205V3.64ZM166.877 14C166.438 14 166.126 13.888 165.939 13.664C165.752 13.44 165.636 13.16 165.589 12.824H165.519C165.36 13.244 165.104 13.5753 164.749 13.818C164.404 14.0513 163.937 14.168 163.349 14.168C162.593 14.168 161.991 13.972 161.543 13.58C161.095 13.188 160.871 12.6513 160.871 11.97C160.871 11.298 161.114 10.78 161.599 10.416C162.094 10.052 162.887 9.87 163.979 9.87H165.519V9.156C165.519 8.624 165.37 8.22733 165.071 7.966C164.772 7.69533 164.348 7.56 163.797 7.56C163.312 7.56 162.915 7.658 162.607 7.854C162.299 8.04067 162.052 8.29733 161.865 8.624L161.109 8.064C161.202 7.87733 161.328 7.69533 161.487 7.518C161.646 7.34067 161.842 7.18667 162.075 7.056C162.308 6.916 162.574 6.80867 162.873 6.734C163.172 6.65 163.503 6.608 163.867 6.608C164.716 6.608 165.388 6.82267 165.883 7.252C166.387 7.68133 166.639 8.27867 166.639 9.044V13.02H167.647V14H166.877ZM163.545 13.23C163.834 13.23 164.096 13.1973 164.329 13.132C164.572 13.0573 164.782 12.964 164.959 12.852C165.136 12.7307 165.272 12.5907 165.365 12.432C165.468 12.264 165.519 12.0867 165.519 11.9V10.71H163.979C163.307 10.71 162.817 10.8033 162.509 10.99C162.201 11.1767 162.047 11.4473 162.047 11.802V12.096C162.047 12.4693 162.178 12.754 162.439 12.95C162.71 13.1367 163.078 13.23 163.545 13.23ZM172.346 14.168C171.59 14.168 170.936 14.042 170.386 13.79C169.844 13.5287 169.382 13.1833 169 12.754L169.756 12.096C170.101 12.46 170.479 12.74 170.89 12.936C171.3 13.132 171.795 13.23 172.374 13.23C172.934 13.23 173.391 13.132 173.746 12.936C174.11 12.7307 174.292 12.4133 174.292 11.984C174.292 11.7973 174.254 11.6433 174.18 11.522C174.114 11.3913 174.021 11.2887 173.9 11.214C173.778 11.1393 173.643 11.0833 173.494 11.046C173.344 10.9993 173.186 10.962 173.018 10.934L171.884 10.766C171.632 10.7287 171.356 10.6773 171.058 10.612C170.768 10.5467 170.502 10.444 170.26 10.304C170.017 10.1547 169.812 9.95867 169.644 9.716C169.485 9.47333 169.406 9.156 169.406 8.764C169.406 8.4 169.476 8.08733 169.616 7.826C169.765 7.55533 169.97 7.33133 170.232 7.154C170.493 6.96733 170.801 6.832 171.156 6.748C171.51 6.65467 171.898 6.608 172.318 6.608C172.971 6.608 173.536 6.71067 174.012 6.916C174.497 7.12133 174.912 7.406 175.258 7.77L174.53 8.456C174.446 8.35333 174.338 8.25067 174.208 8.148C174.086 8.036 173.932 7.938 173.746 7.854C173.568 7.76067 173.358 7.686 173.116 7.63C172.873 7.574 172.593 7.546 172.276 7.546C171.706 7.546 171.268 7.644 170.96 7.84C170.661 8.036 170.512 8.32067 170.512 8.694C170.512 8.88067 170.544 9.03933 170.61 9.17C170.684 9.29133 170.782 9.38933 170.904 9.464C171.025 9.53867 171.16 9.59933 171.31 9.646C171.468 9.68333 171.627 9.716 171.786 9.744L172.92 9.912C173.181 9.94933 173.456 10.0007 173.746 10.066C174.035 10.1313 174.301 10.2387 174.544 10.388C174.786 10.528 174.987 10.7193 175.146 10.962C175.314 11.2047 175.398 11.522 175.398 11.914C175.398 12.6327 175.118 13.188 174.558 13.58C174.007 13.972 173.27 14.168 172.346 14.168ZM177.548 3.64H178.668V7.952H178.724C178.799 7.77467 178.892 7.60667 179.004 7.448C179.116 7.28 179.251 7.13533 179.41 7.014C179.578 6.89267 179.774 6.79467 179.998 6.72C180.222 6.64533 180.483 6.608 180.782 6.608C181.538 6.608 182.145 6.85067 182.602 7.336C183.059 7.812 183.288 8.48867 183.288 9.366V14H182.168V9.562C182.168 8.89933 182.023 8.40933 181.734 8.092C181.445 7.76533 181.02 7.602 180.46 7.602C180.236 7.602 180.017 7.63 179.802 7.686C179.587 7.742 179.396 7.826 179.228 7.938C179.06 8.05 178.925 8.19467 178.822 8.372C178.719 8.54933 178.668 8.75467 178.668 8.988V14H177.548V3.64ZM188.617 14.168C188.094 14.168 187.623 14.0793 187.203 13.902C186.792 13.7247 186.437 13.4727 186.139 13.146C185.849 12.81 185.625 12.4133 185.467 11.956C185.308 11.4893 185.229 10.9713 185.229 10.402C185.229 9.82333 185.308 9.30067 185.467 8.834C185.635 8.36733 185.863 7.97067 186.153 7.644C186.442 7.308 186.787 7.05133 187.189 6.874C187.599 6.69667 188.052 6.608 188.547 6.608C189.032 6.608 189.471 6.69667 189.863 6.874C190.264 7.05133 190.605 7.29867 190.885 7.616C191.165 7.924 191.379 8.29267 191.529 8.722C191.678 9.15133 191.753 9.62267 191.753 10.136V10.668H186.405V11.004C186.405 11.3213 186.456 11.6153 186.559 11.886C186.661 12.1567 186.806 12.39 186.993 12.586C187.189 12.782 187.422 12.936 187.693 13.048C187.973 13.1507 188.281 13.202 188.617 13.202C189.102 13.202 189.522 13.09 189.877 12.866C190.231 12.642 190.502 12.334 190.689 11.942L191.515 12.502C191.3 12.9873 190.941 13.3887 190.437 13.706C189.942 14.014 189.335 14.168 188.617 14.168ZM188.547 7.532C188.239 7.532 187.954 7.588 187.693 7.7C187.431 7.812 187.203 7.966 187.007 8.162C186.82 8.358 186.671 8.59133 186.559 8.862C186.456 9.12333 186.405 9.41267 186.405 9.73V9.828H190.549V9.674C190.549 9.35667 190.497 9.06733 190.395 8.806C190.301 8.54467 190.166 8.32067 189.989 8.134C189.821 7.938 189.611 7.78867 189.359 7.686C189.116 7.58333 188.845 7.532 188.547 7.532ZM196.689 14.168C195.933 14.168 195.28 14.042 194.729 13.79C194.188 13.5287 193.726 13.1833 193.343 12.754L194.099 12.096C194.444 12.46 194.822 12.74 195.233 12.936C195.644 13.132 196.138 13.23 196.717 13.23C197.277 13.23 197.734 13.132 198.089 12.936C198.453 12.7307 198.635 12.4133 198.635 11.984C198.635 11.7973 198.598 11.6433 198.523 11.522C198.458 11.3913 198.364 11.2887 198.243 11.214C198.122 11.1393 197.986 11.0833 197.837 11.046C197.688 10.9993 197.529 10.962 197.361 10.934L196.227 10.766C195.975 10.7287 195.7 10.6773 195.401 10.612C195.112 10.5467 194.846 10.444 194.603 10.304C194.36 10.1547 194.155 9.95867 193.987 9.716C193.828 9.47333 193.749 9.156 193.749 8.764C193.749 8.4 193.819 8.08733 193.959 7.826C194.108 7.55533 194.314 7.33133 194.575 7.154C194.836 6.96733 195.144 6.832 195.499 6.748C195.854 6.65467 196.241 6.608 196.661 6.608C197.314 6.608 197.879 6.71067 198.355 6.916C198.84 7.12133 199.256 7.406 199.601 7.77L198.873 8.456C198.789 8.35333 198.682 8.25067 198.551 8.148C198.43 8.036 198.276 7.938 198.089 7.854C197.912 7.76067 197.702 7.686 197.459 7.63C197.216 7.574 196.936 7.546 196.619 7.546C196.05 7.546 195.611 7.644 195.303 7.84C195.004 8.036 194.855 8.32067 194.855 8.694C194.855 8.88067 194.888 9.03933 194.953 9.17C195.028 9.29133 195.126 9.38933 195.247 9.464C195.368 9.53867 195.504 9.59933 195.653 9.646C195.812 9.68333 195.97 9.716 196.129 9.744L197.263 9.912C197.524 9.94933 197.8 10.0007 198.089 10.066C198.378 10.1313 198.644 10.2387 198.887 10.388C199.13 10.528 199.33 10.7193 199.489 10.962C199.657 11.2047 199.741 11.522 199.741 11.914C199.741 12.6327 199.461 13.188 198.901 13.58C198.35 13.972 197.613 14.168 196.689 14.168ZM215.564 14C215.126 14 214.813 13.888 214.626 13.664C214.44 13.44 214.323 13.16 214.276 12.824H214.206C214.048 13.244 213.791 13.5753 213.436 13.818C213.091 14.0513 212.624 14.168 212.036 14.168C211.28 14.168 210.678 13.972 210.23 13.58C209.782 13.188 209.558 12.6513 209.558 11.97C209.558 11.298 209.801 10.78 210.286 10.416C210.781 10.052 211.574 9.87 212.666 9.87H214.206V9.156C214.206 8.624 214.057 8.22733 213.758 7.966C213.46 7.69533 213.035 7.56 212.484 7.56C211.999 7.56 211.602 7.658 211.294 7.854C210.986 8.04067 210.739 8.29733 210.552 8.624L209.796 8.064C209.89 7.87733 210.016 7.69533 210.174 7.518C210.333 7.34067 210.529 7.18667 210.762 7.056C210.996 6.916 211.262 6.80867 211.56 6.734C211.859 6.65 212.19 6.608 212.554 6.608C213.404 6.608 214.076 6.82267 214.57 7.252C215.074 7.68133 215.326 8.27867 215.326 9.044V13.02H216.334V14H215.564ZM212.232 13.23C212.522 13.23 212.783 13.1973 213.016 13.132C213.259 13.0573 213.469 12.964 213.646 12.852C213.824 12.7307 213.959 12.5907 214.052 12.432C214.155 12.264 214.206 12.0867 214.206 11.9V10.71H212.666C211.994 10.71 211.504 10.8033 211.196 10.99C210.888 11.1767 210.734 11.4473 210.734 11.802V12.096C210.734 12.4693 210.865 12.754 211.126 12.95C211.397 13.1367 211.766 13.23 212.232 13.23ZM217.827 13.048H219.941V7.728H217.827V6.776H221.061V8.596H221.131C221.28 8.02667 221.56 7.58333 221.971 7.266C222.391 6.93933 222.923 6.776 223.567 6.776H224.575V7.896H223.217C222.573 7.896 222.05 8.08267 221.649 8.456C221.257 8.82933 221.061 9.31933 221.061 9.926V13.048H223.861V14H217.827V13.048ZM229.189 14.168C228.667 14.168 228.195 14.0793 227.775 13.902C227.365 13.7247 227.01 13.4727 226.711 13.146C226.422 12.81 226.198 12.4133 226.039 11.956C225.881 11.4893 225.801 10.9713 225.801 10.402C225.801 9.82333 225.881 9.30067 226.039 8.834C226.207 8.36733 226.436 7.97067 226.725 7.644C227.015 7.308 227.36 7.05133 227.761 6.874C228.172 6.69667 228.625 6.608 229.119 6.608C229.605 6.608 230.043 6.69667 230.435 6.874C230.837 7.05133 231.177 7.29867 231.457 7.616C231.737 7.924 231.952 8.29267 232.101 8.722C232.251 9.15133 232.325 9.62267 232.325 10.136V10.668H226.977V11.004C226.977 11.3213 227.029 11.6153 227.131 11.886C227.234 12.1567 227.379 12.39 227.565 12.586C227.761 12.782 227.995 12.936 228.265 13.048C228.545 13.1507 228.853 13.202 229.189 13.202C229.675 13.202 230.095 13.09 230.449 12.866C230.804 12.642 231.075 12.334 231.261 11.942L232.087 12.502C231.873 12.9873 231.513 13.3887 231.009 13.706C230.515 14.014 229.908 14.168 229.189 14.168ZM229.119 7.532C228.811 7.532 228.527 7.588 228.265 7.7C228.004 7.812 227.775 7.966 227.579 8.162C227.393 8.358 227.243 8.59133 227.131 8.862C227.029 9.12333 226.977 9.41267 226.977 9.73V9.828H231.121V9.674C231.121 9.35667 231.07 9.06733 230.967 8.806C230.874 8.54467 230.739 8.32067 230.561 8.134C230.393 7.938 230.183 7.78867 229.931 7.686C229.689 7.58333 229.418 7.532 229.119 7.532ZM242.17 13.048H244.284V7.728H242.17V6.776H245.404V8.596H245.474C245.624 8.02667 245.904 7.58333 246.314 7.266C246.734 6.93933 247.266 6.776 247.91 6.776H248.918V7.896H247.56C246.916 7.896 246.394 8.08267 245.992 8.456C245.6 8.82933 245.404 9.31933 245.404 9.926V13.048H248.204V14H242.17V13.048ZM253.533 14.168C253.01 14.168 252.539 14.0793 252.119 13.902C251.708 13.7247 251.354 13.4727 251.055 13.146C250.766 12.81 250.542 12.4133 250.383 11.956C250.224 11.4893 250.145 10.9713 250.145 10.402C250.145 9.82333 250.224 9.30067 250.383 8.834C250.551 8.36733 250.78 7.97067 251.069 7.644C251.358 7.308 251.704 7.05133 252.105 6.874C252.516 6.69667 252.968 6.608 253.463 6.608C253.948 6.608 254.387 6.69667 254.779 6.874C255.18 7.05133 255.521 7.29867 255.801 7.616C256.081 7.924 256.296 8.29267 256.445 8.722C256.594 9.15133 256.669 9.62267 256.669 10.136V10.668H251.321V11.004C251.321 11.3213 251.372 11.6153 251.475 11.886C251.578 12.1567 251.722 12.39 251.909 12.586C252.105 12.782 252.338 12.936 252.609 13.048C252.889 13.1507 253.197 13.202 253.533 13.202C254.018 13.202 254.438 13.09 254.793 12.866C255.148 12.642 255.418 12.334 255.605 11.942L256.431 12.502C256.216 12.9873 255.857 13.3887 255.353 13.706C254.858 14.014 254.252 14.168 253.533 14.168ZM253.463 7.532C253.155 7.532 252.87 7.588 252.609 7.7C252.348 7.812 252.119 7.966 251.923 8.162C251.736 8.358 251.587 8.59133 251.475 8.862C251.372 9.12333 251.321 9.41267 251.321 9.73V9.828H255.465V9.674C255.465 9.35667 255.414 9.06733 255.311 8.806C255.218 8.54467 255.082 8.32067 254.905 8.134C254.737 7.938 254.527 7.78867 254.275 7.686C254.032 7.58333 253.762 7.532 253.463 7.532ZM261.773 14.168C261.251 14.168 260.784 14.0793 260.373 13.902C259.972 13.7153 259.631 13.4587 259.351 13.132C259.071 12.8053 258.857 12.4087 258.707 11.942C258.567 11.4753 258.497 10.9573 258.497 10.388C258.497 9.81867 258.572 9.30067 258.721 8.834C258.871 8.36733 259.085 7.97067 259.365 7.644C259.645 7.308 259.986 7.05133 260.387 6.874C260.789 6.69667 261.246 6.608 261.759 6.608C262.459 6.608 263.029 6.762 263.467 7.07C263.906 7.378 264.228 7.77933 264.433 8.274L263.537 8.75C263.407 8.37667 263.187 8.08733 262.879 7.882C262.581 7.67667 262.207 7.574 261.759 7.574C261.433 7.574 261.139 7.63 260.877 7.742C260.625 7.84467 260.411 7.994 260.233 8.19C260.056 8.386 259.921 8.61933 259.827 8.89C259.743 9.16067 259.701 9.45467 259.701 9.772V11.004C259.701 11.3213 259.743 11.6153 259.827 11.886C259.921 12.1567 260.056 12.39 260.233 12.586C260.411 12.782 260.63 12.936 260.891 13.048C261.153 13.1507 261.451 13.202 261.787 13.202C262.273 13.202 262.674 13.09 262.991 12.866C263.309 12.642 263.561 12.334 263.747 11.942L264.545 12.488C264.331 12.9733 263.995 13.3747 263.537 13.692C263.089 14.0093 262.501 14.168 261.773 14.168ZM269.636 14.168C269.132 14.168 268.675 14.0793 268.264 13.902C267.863 13.7247 267.517 13.4727 267.228 13.146C266.948 12.81 266.733 12.4133 266.584 11.956C266.435 11.4893 266.36 10.9667 266.36 10.388C266.36 9.81867 266.435 9.30067 266.584 8.834C266.733 8.36733 266.948 7.97067 267.228 7.644C267.517 7.308 267.863 7.05133 268.264 6.874C268.675 6.69667 269.132 6.608 269.636 6.608C270.14 6.608 270.593 6.69667 270.994 6.874C271.405 7.05133 271.75 7.308 272.03 7.644C272.319 7.97067 272.539 8.36733 272.688 8.834C272.837 9.30067 272.912 9.81867 272.912 10.388C272.912 10.9667 272.837 11.4893 272.688 11.956C272.539 12.4133 272.319 12.81 272.03 13.146C271.75 13.4727 271.405 13.7247 270.994 13.902C270.593 14.0793 270.14 14.168 269.636 14.168ZM269.636 13.202C270.261 13.202 270.765 13.0153 271.148 12.642C271.531 12.2687 271.722 11.69 271.722 10.906V9.87C271.722 9.086 271.531 8.50733 271.148 8.134C270.765 7.76067 270.261 7.574 269.636 7.574C269.011 7.574 268.507 7.76067 268.124 8.134C267.741 8.50733 267.55 9.086 267.55 9.87V10.906C267.55 11.69 267.741 12.2687 268.124 12.642C268.507 13.0153 269.011 13.202 269.636 13.202ZM274.306 14V6.776H275.342V7.616H275.398C275.51 7.336 275.669 7.098 275.874 6.902C276.08 6.706 276.383 6.608 276.784 6.608C277.204 6.608 277.517 6.71533 277.722 6.93C277.928 7.13533 278.054 7.406 278.1 7.742H278.142C278.273 7.41533 278.46 7.14467 278.702 6.93C278.945 6.71533 279.281 6.608 279.71 6.608C280.298 6.608 280.69 6.81333 280.886 7.224C281.092 7.63467 281.194 8.22267 281.194 8.988V14H280.158V9.17C280.158 8.554 280.093 8.12933 279.962 7.896C279.841 7.65333 279.612 7.532 279.276 7.532C278.978 7.532 278.735 7.63 278.548 7.826C278.362 8.01267 278.268 8.302 278.268 8.694V14H277.232V9.17C277.232 8.554 277.167 8.12933 277.036 7.896C276.915 7.65333 276.691 7.532 276.364 7.532C276.066 7.532 275.818 7.63 275.622 7.826C275.436 8.01267 275.342 8.302 275.342 8.694V14H274.306ZM282.421 14V6.776H283.457V7.616H283.513C283.625 7.336 283.784 7.098 283.989 6.902C284.194 6.706 284.498 6.608 284.899 6.608C285.319 6.608 285.632 6.71533 285.837 6.93C286.042 7.13533 286.168 7.406 286.215 7.742H286.257C286.388 7.41533 286.574 7.14467 286.817 6.93C287.06 6.71533 287.396 6.608 287.825 6.608C288.413 6.608 288.805 6.81333 289.001 7.224C289.206 7.63467 289.309 8.22267 289.309 8.988V14H288.273V9.17C288.273 8.554 288.208 8.12933 288.077 7.896C287.956 7.65333 287.727 7.532 287.391 7.532C287.092 7.532 286.85 7.63 286.663 7.826C286.476 8.01267 286.383 8.302 286.383 8.694V14H285.347V9.17C285.347 8.554 285.282 8.12933 285.151 7.896C285.03 7.65333 284.806 7.532 284.479 7.532C284.18 7.532 283.933 7.63 283.737 7.826C283.55 8.01267 283.457 8.302 283.457 8.694V14H282.421ZM294.106 14.168C293.583 14.168 293.112 14.0793 292.692 13.902C292.281 13.7247 291.926 13.4727 291.628 13.146C291.338 12.81 291.114 12.4133 290.956 11.956C290.797 11.4893 290.718 10.9713 290.718 10.402C290.718 9.82333 290.797 9.30067 290.956 8.834C291.124 8.36733 291.352 7.97067 291.642 7.644C291.931 7.308 292.276 7.05133 292.678 6.874C293.088 6.69667 293.541 6.608 294.036 6.608C294.521 6.608 294.96 6.69667 295.352 6.874C295.753 7.05133 296.094 7.29867 296.374 7.616C296.654 7.924 296.868 8.29267 297.018 8.722C297.167 9.15133 297.242 9.62267 297.242 10.136V10.668H291.894V11.004C291.894 11.3213 291.945 11.6153 292.048 11.886C292.15 12.1567 292.295 12.39 292.482 12.586C292.678 12.782 292.911 12.936 293.182 13.048C293.462 13.1507 293.77 13.202 294.106 13.202C294.591 13.202 295.011 13.09 295.366 12.866C295.72 12.642 295.991 12.334 296.178 11.942L297.004 12.502C296.789 12.9873 296.43 13.3887 295.926 13.706C295.431 14.014 294.824 14.168 294.106 14.168ZM294.036 7.532C293.728 7.532 293.443 7.588 293.182 7.7C292.92 7.812 292.692 7.966 292.496 8.162C292.309 8.358 292.16 8.59133 292.048 8.862C291.945 9.12333 291.894 9.41267 291.894 9.73V9.828H296.038V9.674C296.038 9.35667 295.986 9.06733 295.884 8.806C295.79 8.54467 295.655 8.32067 295.478 8.134C295.31 7.938 295.1 7.78867 294.848 7.686C294.605 7.58333 294.334 7.532 294.036 7.532ZM299.266 14V6.776H300.386V7.952H300.442C300.517 7.77467 300.61 7.60667 300.722 7.448C300.834 7.28 300.969 7.13533 301.128 7.014C301.296 6.89267 301.492 6.79467 301.716 6.72C301.94 6.64533 302.201 6.608 302.5 6.608C303.256 6.608 303.863 6.85067 304.32 7.336C304.777 7.812 305.006 8.48867 305.006 9.366V14H303.886V9.562C303.886 8.89933 303.741 8.40933 303.452 8.092C303.163 7.76533 302.738 7.602 302.178 7.602C301.954 7.602 301.735 7.63 301.52 7.686C301.305 7.742 301.114 7.826 300.946 7.938C300.778 8.05 300.643 8.19467 300.54 8.372C300.437 8.54933 300.386 8.75467 300.386 8.988V14H299.266ZM311.959 12.824H311.903C311.436 13.72 310.694 14.168 309.677 14.168C308.79 14.168 308.095 13.8367 307.591 13.174C307.096 12.5113 306.849 11.5827 306.849 10.388C306.849 9.19333 307.096 8.26467 307.591 7.602C308.095 6.93933 308.79 6.608 309.677 6.608C310.694 6.608 311.436 7.056 311.903 7.952H311.959V3.64H313.079V14H311.959V12.824ZM310.111 13.174C310.363 13.174 310.601 13.1413 310.825 13.076C311.049 13.0107 311.245 12.9173 311.413 12.796C311.581 12.6653 311.711 12.5113 311.805 12.334C311.907 12.1473 311.959 11.9327 311.959 11.69V9.086C311.959 8.84333 311.907 8.63333 311.805 8.456C311.711 8.26933 311.581 8.11533 311.413 7.994C311.245 7.86333 311.049 7.76533 310.825 7.7C310.601 7.63467 310.363 7.602 310.111 7.602C309.457 7.602 308.949 7.80267 308.585 8.204C308.23 8.596 308.053 9.11867 308.053 9.772V11.004C308.053 11.6573 308.23 12.1847 308.585 12.586C308.949 12.978 309.457 13.174 310.111 13.174ZM318.449 14.168C317.926 14.168 317.455 14.0793 317.035 13.902C316.624 13.7247 316.27 13.4727 315.971 13.146C315.682 12.81 315.458 12.4133 315.299 11.956C315.14 11.4893 315.061 10.9713 315.061 10.402C315.061 9.82333 315.14 9.30067 315.299 8.834C315.467 8.36733 315.696 7.97067 315.985 7.644C316.274 7.308 316.62 7.05133 317.021 6.874C317.432 6.69667 317.884 6.608 318.379 6.608C318.864 6.608 319.303 6.69667 319.695 6.874C320.096 7.05133 320.437 7.29867 320.717 7.616C320.997 7.924 321.212 8.29267 321.361 8.722C321.51 9.15133 321.585 9.62267 321.585 10.136V10.668H316.237V11.004C316.237 11.3213 316.288 11.6153 316.391 11.886C316.494 12.1567 316.638 12.39 316.825 12.586C317.021 12.782 317.254 12.936 317.525 13.048C317.805 13.1507 318.113 13.202 318.449 13.202C318.934 13.202 319.354 13.09 319.709 12.866C320.064 12.642 320.334 12.334 320.521 11.942L321.347 12.502C321.132 12.9873 320.773 13.3887 320.269 13.706C319.774 14.014 319.168 14.168 318.449 14.168ZM318.379 7.532C318.071 7.532 317.786 7.588 317.525 7.7C317.264 7.812 317.035 7.966 316.839 8.162C316.652 8.358 316.503 8.59133 316.391 8.862C316.288 9.12333 316.237 9.41267 316.237 9.73V9.828H320.381V9.674C320.381 9.35667 320.33 9.06733 320.227 8.806C320.134 8.54467 319.998 8.32067 319.821 8.134C319.653 7.938 319.443 7.78867 319.191 7.686C318.948 7.58333 318.678 7.532 318.379 7.532ZM328.188 12.824H328.132C327.665 13.72 326.923 14.168 325.906 14.168C325.019 14.168 324.324 13.8367 323.82 13.174C323.325 12.5113 323.078 11.5827 323.078 10.388C323.078 9.19333 323.325 8.26467 323.82 7.602C324.324 6.93933 325.019 6.608 325.906 6.608C326.923 6.608 327.665 7.056 328.132 7.952H328.188V3.64H329.308V14H328.188V12.824ZM326.34 13.174C326.592 13.174 326.83 13.1413 327.054 13.076C327.278 13.0107 327.474 12.9173 327.642 12.796C327.81 12.6653 327.94 12.5113 328.034 12.334C328.136 12.1473 328.188 11.9327 328.188 11.69V9.086C328.188 8.84333 328.136 8.63333 328.034 8.456C327.94 8.26933 327.81 8.11533 327.642 7.994C327.474 7.86333 327.278 7.76533 327.054 7.7C326.83 7.63467 326.592 7.602 326.34 7.602C325.686 7.602 325.178 7.80267 324.814 8.204C324.459 8.596 324.282 9.11867 324.282 9.772V11.004C324.282 11.6573 324.459 12.1847 324.814 12.586C325.178 12.978 325.686 13.174 326.34 13.174ZM344.417 12.824H344.361C343.894 13.72 343.152 14.168 342.135 14.168C341.248 14.168 340.553 13.8367 340.049 13.174C339.554 12.5113 339.307 11.5827 339.307 10.388C339.307 9.19333 339.554 8.26467 340.049 7.602C340.553 6.93933 341.248 6.608 342.135 6.608C343.152 6.608 343.894 7.056 344.361 7.952H344.417V3.64H345.537V14H344.417V12.824ZM342.569 13.174C342.821 13.174 343.059 13.1413 343.283 13.076C343.507 13.0107 343.703 12.9173 343.871 12.796C344.039 12.6653 344.169 12.5113 344.263 12.334C344.365 12.1473 344.417 11.9327 344.417 11.69V9.086C344.417 8.84333 344.365 8.63333 344.263 8.456C344.169 8.26933 344.039 8.11533 343.871 7.994C343.703 7.86333 343.507 7.76533 343.283 7.7C343.059 7.63467 342.821 7.602 342.569 7.602C341.915 7.602 341.407 7.80267 341.043 8.204C340.688 8.596 340.511 9.11867 340.511 9.772V11.004C340.511 11.6573 340.688 12.1847 341.043 12.586C341.407 12.978 341.915 13.174 342.569 13.174ZM352.489 12.824H352.433C352.359 13.0013 352.265 13.174 352.153 13.342C352.041 13.5007 351.901 13.6407 351.733 13.762C351.575 13.8833 351.383 13.9813 351.159 14.056C350.935 14.1307 350.674 14.168 350.375 14.168C349.619 14.168 349.013 13.93 348.555 13.454C348.098 12.9687 347.869 12.2873 347.869 11.41V6.776H348.989V11.214C348.989 11.8767 349.134 12.3713 349.423 12.698C349.713 13.0153 350.137 13.174 350.697 13.174C350.921 13.174 351.141 13.146 351.355 13.09C351.57 13.034 351.761 12.95 351.929 12.838C352.097 12.726 352.233 12.586 352.335 12.418C352.438 12.2407 352.489 12.0307 352.489 11.788V6.776H353.609V14H352.489V12.824ZM355.774 13.048H357.888V7.728H355.774V6.776H359.008V8.596H359.078C359.227 8.02667 359.507 7.58333 359.918 7.266C360.338 6.93933 360.87 6.776 361.514 6.776H362.522V7.896H361.164C360.52 7.896 359.997 8.08267 359.596 8.456C359.204 8.82933 359.008 9.31933 359.008 9.926V13.048H361.808V14H355.774V13.048ZM367.458 5.18C367.132 5.18 366.903 5.11467 366.772 4.984C366.642 4.844 366.576 4.67133 366.576 4.466V4.242C366.576 4.03667 366.642 3.86867 366.772 3.738C366.903 3.598 367.132 3.528 367.458 3.528C367.785 3.528 368.014 3.598 368.144 3.738C368.275 3.86867 368.34 4.03667 368.34 4.242V4.466C368.34 4.67133 368.275 4.844 368.144 4.984C368.014 5.11467 367.785 5.18 367.458 5.18ZM364.294 13.048H366.898V7.728H364.294V6.776H368.018V13.048H370.454V14H364.294V13.048ZM372.297 14V6.776H373.417V7.952H373.473C373.548 7.77467 373.641 7.60667 373.753 7.448C373.865 7.28 374 7.13533 374.159 7.014C374.327 6.89267 374.523 6.79467 374.747 6.72C374.971 6.64533 375.232 6.608 375.531 6.608C376.287 6.608 376.894 6.85067 377.351 7.336C377.808 7.812 378.037 8.48867 378.037 9.366V14H376.917V9.562C376.917 8.89933 376.772 8.40933 376.483 8.092C376.194 7.76533 375.769 7.602 375.209 7.602C374.985 7.602 374.766 7.63 374.551 7.686C374.336 7.742 374.145 7.826 373.977 7.938C373.809 8.05 373.674 8.19467 373.571 8.372C373.468 8.54933 373.417 8.75467 373.417 8.988V14H372.297ZM386.893 14.826C386.893 15.554 386.59 16.0907 385.983 16.436C385.377 16.7907 384.467 16.968 383.253 16.968C382.087 16.968 381.247 16.814 380.733 16.506C380.229 16.198 379.977 15.7547 379.977 15.176C379.977 14.784 380.08 14.4807 380.285 14.266C380.491 14.0513 380.78 13.8927 381.153 13.79V13.622C380.948 13.5193 380.789 13.3887 380.677 13.23C380.565 13.0713 380.509 12.8707 380.509 12.628C380.509 12.2547 380.631 11.9747 380.873 11.788C381.125 11.6013 381.438 11.4613 381.811 11.368V11.312C381.363 11.116 381.013 10.8267 380.761 10.444C380.519 10.0613 380.397 9.61333 380.397 9.1C380.397 8.736 380.463 8.4 380.593 8.092C380.724 7.784 380.911 7.52267 381.153 7.308C381.405 7.084 381.704 6.91133 382.049 6.79C382.395 6.66867 382.777 6.608 383.197 6.608C383.739 6.608 384.215 6.706 384.625 6.902V6.776C384.625 6.496 384.691 6.26267 384.821 6.076C384.952 5.88933 385.176 5.796 385.493 5.796H386.823V6.776H385.199V7.266C385.461 7.49 385.661 7.756 385.801 8.064C385.941 8.372 386.011 8.71733 386.011 9.1C386.011 9.464 385.941 9.8 385.801 10.108C385.671 10.416 385.484 10.682 385.241 10.906C384.999 11.1207 384.7 11.2887 384.345 11.41C384 11.5313 383.617 11.592 383.197 11.592C383.076 11.592 382.959 11.5873 382.847 11.578C382.735 11.5687 382.623 11.5547 382.511 11.536C382.399 11.5547 382.283 11.5873 382.161 11.634C382.04 11.6713 381.928 11.7273 381.825 11.802C381.723 11.8673 381.639 11.9467 381.573 12.04C381.508 12.1333 381.475 12.2407 381.475 12.362C381.475 12.5767 381.583 12.7213 381.797 12.796C382.012 12.8613 382.292 12.894 382.637 12.894H384.233C385.167 12.894 385.843 13.0713 386.263 13.426C386.683 13.7713 386.893 14.238 386.893 14.826ZM385.843 14.882C385.843 14.5927 385.727 14.3593 385.493 14.182C385.26 14.014 384.854 13.93 384.275 13.93H381.769C381.284 14.126 381.041 14.4527 381.041 14.91C381.041 15.2273 381.167 15.498 381.419 15.722C381.671 15.9553 382.091 16.072 382.679 16.072H383.771C384.425 16.072 384.933 15.9693 385.297 15.764C385.661 15.568 385.843 15.274 385.843 14.882ZM383.197 10.724C383.757 10.724 384.168 10.5933 384.429 10.332C384.7 10.0707 384.835 9.72533 384.835 9.296V8.89C384.835 8.46067 384.7 8.12 384.429 7.868C384.168 7.60667 383.757 7.476 383.197 7.476C382.637 7.476 382.227 7.60667 381.965 7.868C381.704 8.12 381.573 8.46067 381.573 8.89V9.296C381.573 9.72533 381.704 10.0707 381.965 10.332C382.227 10.5933 382.637 10.724 383.197 10.724ZM399.818 14C399.268 14 398.862 13.846 398.6 13.538C398.348 13.23 398.222 12.8333 398.222 12.348V7.728H395.814V6.776H397.606C397.849 6.776 398.017 6.72933 398.11 6.636C398.213 6.53333 398.264 6.36067 398.264 6.118V4.228H399.342V6.776H402.632V7.728H399.342V13.048H402.632V14H399.818ZM404.755 3.64H405.875V7.952H405.931C406.006 7.77467 406.099 7.60667 406.211 7.448C406.323 7.28 406.458 7.13533 406.617 7.014C406.785 6.89267 406.981 6.79467 407.205 6.72C407.429 6.64533 407.69 6.608 407.989 6.608C408.745 6.608 409.352 6.85067 409.809 7.336C410.266 7.812 410.495 8.48867 410.495 9.366V14H409.375V9.562C409.375 8.89933 409.23 8.40933 408.941 8.092C408.652 7.76533 408.227 7.602 407.667 7.602C407.443 7.602 407.224 7.63 407.009 7.686C406.794 7.742 406.603 7.826 406.435 7.938C406.267 8.05 406.132 8.19467 406.029 8.372C405.926 8.54933 405.875 8.75467 405.875 8.988V14H404.755V3.64ZM415.823 14.168C415.301 14.168 414.829 14.0793 414.409 13.902C413.999 13.7247 413.644 13.4727 413.345 13.146C413.056 12.81 412.832 12.4133 412.673 11.956C412.515 11.4893 412.435 10.9713 412.435 10.402C412.435 9.82333 412.515 9.30067 412.673 8.834C412.841 8.36733 413.07 7.97067 413.359 7.644C413.649 7.308 413.994 7.05133 414.395 6.874C414.806 6.69667 415.259 6.608 415.753 6.608C416.239 6.608 416.677 6.69667 417.069 6.874C417.471 7.05133 417.811 7.29867 418.091 7.616C418.371 7.924 418.586 8.29267 418.735 8.722C418.885 9.15133 418.959 9.62267 418.959 10.136V10.668H413.611V11.004C413.611 11.3213 413.663 11.6153 413.765 11.886C413.868 12.1567 414.013 12.39 414.199 12.586C414.395 12.782 414.629 12.936 414.899 13.048C415.179 13.1507 415.487 13.202 415.823 13.202C416.309 13.202 416.729 13.09 417.083 12.866C417.438 12.642 417.709 12.334 417.895 11.942L418.721 12.502C418.507 12.9873 418.147 13.3887 417.643 13.706C417.149 14.014 416.542 14.168 415.823 14.168ZM415.753 7.532C415.445 7.532 415.161 7.588 414.899 7.7C414.638 7.812 414.409 7.966 414.213 8.162C414.027 8.358 413.877 8.59133 413.765 8.862C413.663 9.12333 413.611 9.41267 413.611 9.73V9.828H417.755V9.674C417.755 9.35667 417.704 9.06733 417.601 8.806C417.508 8.54467 417.373 8.32067 417.195 8.134C417.027 7.938 416.817 7.78867 416.565 7.686C416.323 7.58333 416.052 7.532 415.753 7.532ZM434.657 14C434.218 14 433.905 13.888 433.719 13.664C433.532 13.44 433.415 13.16 433.369 12.824H433.299C433.14 13.244 432.883 13.5753 432.529 13.818C432.183 14.0513 431.717 14.168 431.129 14.168C430.373 14.168 429.771 13.972 429.323 13.58C428.875 13.188 428.651 12.6513 428.651 11.97C428.651 11.298 428.893 10.78 429.379 10.416C429.873 10.052 430.667 9.87 431.759 9.87H433.299V9.156C433.299 8.624 433.149 8.22733 432.851 7.966C432.552 7.69533 432.127 7.56 431.577 7.56C431.091 7.56 430.695 7.658 430.387 7.854C430.079 8.04067 429.831 8.29733 429.645 8.624L428.889 8.064C428.982 7.87733 429.108 7.69533 429.267 7.518C429.425 7.34067 429.621 7.18667 429.855 7.056C430.088 6.916 430.354 6.80867 430.653 6.734C430.951 6.65 431.283 6.608 431.647 6.608C432.496 6.608 433.168 6.82267 433.663 7.252C434.167 7.68133 434.419 8.27867 434.419 9.044V13.02H435.427V14H434.657ZM431.325 13.23C431.614 13.23 431.875 13.1973 432.109 13.132C432.351 13.0573 432.561 12.964 432.739 12.852C432.916 12.7307 433.051 12.5907 433.145 12.432C433.247 12.264 433.299 12.0867 433.299 11.9V10.71H431.759C431.087 10.71 430.597 10.8033 430.289 10.99C429.981 11.1767 429.827 11.4473 429.827 11.802V12.096C429.827 12.4693 429.957 12.754 430.219 12.95C430.489 13.1367 430.858 13.23 431.325 13.23ZM440.489 5.18C440.162 5.18 439.934 5.11467 439.803 4.984C439.672 4.844 439.607 4.67133 439.607 4.466V4.242C439.607 4.03667 439.672 3.86867 439.803 3.738C439.934 3.598 440.162 3.528 440.489 3.528C440.816 3.528 441.044 3.598 441.175 3.738C441.306 3.86867 441.371 4.03667 441.371 4.242V4.466C441.371 4.67133 441.306 4.844 441.175 4.984C441.044 5.11467 440.816 5.18 440.489 5.18ZM437.325 13.048H439.929V7.728H437.325V6.776H441.049V13.048H443.485V14H437.325V13.048ZM445.034 13.048H447.148V7.728H445.034V6.776H448.268V8.596H448.338C448.487 8.02667 448.767 7.58333 449.178 7.266C449.598 6.93933 450.13 6.776 450.774 6.776H451.782V7.896H450.424C449.78 7.896 449.257 8.08267 448.856 8.456C448.464 8.82933 448.268 9.31933 448.268 9.926V13.048H451.068V14H445.034V13.048ZM458.02 12.824H457.964C457.497 13.72 456.755 14.168 455.738 14.168C454.851 14.168 454.156 13.8367 453.652 13.174C453.157 12.5113 452.91 11.5827 452.91 10.388C452.91 9.19333 453.157 8.26467 453.652 7.602C454.156 6.93933 454.851 6.608 455.738 6.608C456.755 6.608 457.497 7.056 457.964 7.952H458.02V3.64H459.14V14H458.02V12.824ZM456.172 13.174C456.424 13.174 456.662 13.1413 456.886 13.076C457.11 13.0107 457.306 12.9173 457.474 12.796C457.642 12.6653 457.773 12.5113 457.866 12.334C457.969 12.1473 458.02 11.9327 458.02 11.69V9.086C458.02 8.84333 457.969 8.63333 457.866 8.456C457.773 8.26933 457.642 8.11533 457.474 7.994C457.306 7.86333 457.11 7.76533 456.886 7.7C456.662 7.63467 456.424 7.602 456.172 7.602C455.519 7.602 455.01 7.80267 454.646 8.204C454.291 8.596 454.114 9.11867 454.114 9.772V11.004C454.114 11.6573 454.291 12.1847 454.646 12.586C455.01 12.978 455.519 13.174 456.172 13.174ZM461.263 13.048H463.377V7.728H461.263V6.776H464.497V8.596H464.567C464.716 8.02667 464.996 7.58333 465.407 7.266C465.827 6.93933 466.359 6.776 467.003 6.776H468.011V7.896H466.653C466.009 7.896 465.486 8.08267 465.085 8.456C464.693 8.82933 464.497 9.31933 464.497 9.926V13.048H467.297V14H461.263V13.048ZM472.499 14.168C471.995 14.168 471.538 14.0793 471.127 13.902C470.726 13.7247 470.381 13.4727 470.091 13.146C469.811 12.81 469.597 12.4133 469.447 11.956C469.298 11.4893 469.223 10.9667 469.223 10.388C469.223 9.81867 469.298 9.30067 469.447 8.834C469.597 8.36733 469.811 7.97067 470.091 7.644C470.381 7.308 470.726 7.05133 471.127 6.874C471.538 6.69667 471.995 6.608 472.499 6.608C473.003 6.608 473.456 6.69667 473.857 6.874C474.268 7.05133 474.613 7.308 474.893 7.644C475.183 7.97067 475.402 8.36733 475.551 8.834C475.701 9.30067 475.775 9.81867 475.775 10.388C475.775 10.9667 475.701 11.4893 475.551 11.956C475.402 12.4133 475.183 12.81 474.893 13.146C474.613 13.4727 474.268 13.7247 473.857 13.902C473.456 14.0793 473.003 14.168 472.499 14.168ZM472.499 13.202C473.125 13.202 473.629 13.0153 474.011 12.642C474.394 12.2687 474.585 11.69 474.585 10.906V9.87C474.585 9.086 474.394 8.50733 474.011 8.134C473.629 7.76067 473.125 7.574 472.499 7.574C471.874 7.574 471.37 7.76067 470.987 8.134C470.605 8.50733 470.413 9.086 470.413 9.87V10.906C470.413 11.69 470.605 12.2687 470.987 12.642C471.37 13.0153 471.874 13.202 472.499 13.202ZM477.744 6.776H478.864V7.952H478.92C479.386 7.056 480.128 6.608 481.146 6.608C482.032 6.608 482.723 6.93933 483.218 7.602C483.722 8.26467 483.974 9.19333 483.974 10.388C483.974 11.5827 483.722 12.5113 483.218 13.174C482.723 13.8367 482.032 14.168 481.146 14.168C480.128 14.168 479.386 13.72 478.92 12.824H478.864V16.8H477.744V6.776ZM480.712 13.174C481.365 13.174 481.869 12.978 482.224 12.586C482.588 12.1847 482.77 11.6573 482.77 11.004V9.772C482.77 9.11867 482.588 8.596 482.224 8.204C481.869 7.80267 481.365 7.602 480.712 7.602C480.46 7.602 480.222 7.63467 479.998 7.7C479.774 7.76533 479.578 7.86333 479.41 7.994C479.242 8.11533 479.106 8.26933 479.004 8.456C478.91 8.63333 478.864 8.84333 478.864 9.086V11.69C478.864 11.9327 478.91 12.1473 479.004 12.334C479.106 12.5113 479.242 12.6653 479.41 12.796C479.578 12.9173 479.774 13.0107 479.998 13.076C480.222 13.1413 480.46 13.174 480.712 13.174ZM493.973 6.776H495.093V7.952H495.149C495.615 7.056 496.357 6.608 497.375 6.608C498.261 6.608 498.952 6.93933 499.447 7.602C499.951 8.26467 500.203 9.19333 500.203 10.388C500.203 11.5827 499.951 12.5113 499.447 13.174C498.952 13.8367 498.261 14.168 497.375 14.168C496.357 14.168 495.615 13.72 495.149 12.824H495.093V16.8H493.973V6.776ZM496.941 13.174C497.594 13.174 498.098 12.978 498.453 12.586C498.817 12.1847 498.999 11.6573 498.999 11.004V9.772C498.999 9.11867 498.817 8.596 498.453 8.204C498.098 7.80267 497.594 7.602 496.941 7.602C496.689 7.602 496.451 7.63467 496.227 7.7C496.003 7.76533 495.807 7.86333 495.639 7.994C495.471 8.11533 495.335 8.26933 495.233 8.456C495.139 8.63333 495.093 8.84333 495.093 9.086V11.69C495.093 11.9327 495.139 12.1473 495.233 12.334C495.335 12.5113 495.471 12.6653 495.639 12.796C495.807 12.9173 496.003 13.0107 496.227 13.076C496.451 13.1413 496.689 13.174 496.941 13.174ZM505.083 14.168C504.561 14.168 504.089 14.0793 503.669 13.902C503.259 13.7247 502.904 13.4727 502.605 13.146C502.316 12.81 502.092 12.4133 501.933 11.956C501.775 11.4893 501.695 10.9713 501.695 10.402C501.695 9.82333 501.775 9.30067 501.933 8.834C502.101 8.36733 502.33 7.97067 502.619 7.644C502.909 7.308 503.254 7.05133 503.655 6.874C504.066 6.69667 504.519 6.608 505.013 6.608C505.499 6.608 505.937 6.69667 506.329 6.874C506.731 7.05133 507.071 7.29867 507.351 7.616C507.631 7.924 507.846 8.29267 507.995 8.722C508.145 9.15133 508.219 9.62267 508.219 10.136V10.668H502.871V11.004C502.871 11.3213 502.923 11.6153 503.025 11.886C503.128 12.1567 503.273 12.39 503.459 12.586C503.655 12.782 503.889 12.936 504.159 13.048C504.439 13.1507 504.747 13.202 505.083 13.202C505.569 13.202 505.989 13.09 506.343 12.866C506.698 12.642 506.969 12.334 507.155 11.942L507.981 12.502C507.767 12.9873 507.407 13.3887 506.903 13.706C506.409 14.014 505.802 14.168 505.083 14.168ZM505.013 7.532C504.705 7.532 504.421 7.588 504.159 7.7C503.898 7.812 503.669 7.966 503.473 8.162C503.287 8.358 503.137 8.59133 503.025 8.862C502.923 9.12333 502.871 9.41267 502.871 9.73V9.828H507.015V9.674C507.015 9.35667 506.964 9.06733 506.861 8.806C506.768 8.54467 506.633 8.32067 506.455 8.134C506.287 7.938 506.077 7.78867 505.825 7.686C505.583 7.58333 505.312 7.532 505.013 7.532ZM509.95 13.048H512.064V7.728H509.95V6.776H513.184V8.596H513.254C513.403 8.02667 513.683 7.58333 514.094 7.266C514.514 6.93933 515.046 6.776 515.69 6.776H516.698V7.896H515.34C514.696 7.896 514.173 8.08267 513.772 8.456C513.38 8.82933 513.184 9.31933 513.184 9.926V13.048H515.984V14H509.95V13.048ZM521.634 5.18C521.308 5.18 521.079 5.11467 520.948 4.984C520.818 4.844 520.752 4.67133 520.752 4.466V4.242C520.752 4.03667 520.818 3.86867 520.948 3.738C521.079 3.598 521.308 3.528 521.634 3.528C521.961 3.528 522.19 3.598 522.32 3.738C522.451 3.86867 522.516 4.03667 522.516 4.242V4.466C522.516 4.67133 522.451 4.844 522.32 4.984C522.19 5.11467 521.961 5.18 521.634 5.18ZM518.47 13.048H521.074V7.728H518.47V6.776H522.194V13.048H524.63V14H518.47V13.048ZM529.301 14.168C528.797 14.168 528.34 14.0793 527.929 13.902C527.528 13.7247 527.182 13.4727 526.893 13.146C526.613 12.81 526.398 12.4133 526.249 11.956C526.1 11.4893 526.025 10.9667 526.025 10.388C526.025 9.81867 526.1 9.30067 526.249 8.834C526.398 8.36733 526.613 7.97067 526.893 7.644C527.182 7.308 527.528 7.05133 527.929 6.874C528.34 6.69667 528.797 6.608 529.301 6.608C529.805 6.608 530.258 6.69667 530.659 6.874C531.07 7.05133 531.415 7.308 531.695 7.644C531.984 7.97067 532.204 8.36733 532.353 8.834C532.502 9.30067 532.577 9.81867 532.577 10.388C532.577 10.9667 532.502 11.4893 532.353 11.956C532.204 12.4133 531.984 12.81 531.695 13.146C531.415 13.4727 531.07 13.7247 530.659 13.902C530.258 14.0793 529.805 14.168 529.301 14.168ZM529.301 13.202C529.926 13.202 530.43 13.0153 530.813 12.642C531.196 12.2687 531.387 11.69 531.387 10.906V9.87C531.387 9.086 531.196 8.50733 530.813 8.134C530.43 7.76067 529.926 7.574 529.301 7.574C528.676 7.574 528.172 7.76067 527.789 8.134C527.406 8.50733 527.215 9.086 527.215 9.87V10.906C527.215 11.69 527.406 12.2687 527.789 12.642C528.172 13.0153 528.676 13.202 529.301 13.202ZM539.165 12.824H539.109C538.643 13.72 537.901 14.168 536.883 14.168C535.997 14.168 535.301 13.8367 534.797 13.174C534.303 12.5113 534.055 11.5827 534.055 10.388C534.055 9.19333 534.303 8.26467 534.797 7.602C535.301 6.93933 535.997 6.608 536.883 6.608C537.901 6.608 538.643 7.056 539.109 7.952H539.165V3.64H540.285V14H539.165V12.824ZM537.317 13.174C537.569 13.174 537.807 13.1413 538.031 13.076C538.255 13.0107 538.451 12.9173 538.619 12.796C538.787 12.6653 538.918 12.5113 539.011 12.334C539.114 12.1473 539.165 11.9327 539.165 11.69V9.086C539.165 8.84333 539.114 8.63333 539.011 8.456C538.918 8.26933 538.787 8.11533 538.619 7.994C538.451 7.86333 538.255 7.76533 538.031 7.7C537.807 7.63467 537.569 7.602 537.317 7.602C536.664 7.602 536.155 7.80267 535.791 8.204C535.437 8.596 535.259 9.11867 535.259 9.772V11.004C535.259 11.6573 535.437 12.1847 535.791 12.586C536.155 12.978 536.664 13.174 537.317 13.174ZM545.53 14.126C545.147 14.126 544.877 14.0467 544.718 13.888C544.569 13.7293 544.494 13.5287 544.494 13.286V13.034C544.494 12.7913 544.569 12.5907 544.718 12.432C544.877 12.2733 545.147 12.194 545.53 12.194C545.913 12.194 546.179 12.2733 546.328 12.432C546.487 12.5907 546.566 12.7913 546.566 13.034V13.286C546.566 13.5287 546.487 13.7293 546.328 13.888C546.179 14.0467 545.913 14.126 545.53 14.126Z" fill="#365969"/>
</svg>
