<svg width="48" height="48" viewBox="0 0 48 48" fill="none" xmlns="http://www.w3.org/2000/svg">
<circle cx="24" cy="24" r="24" fill="#6C989F"/>
<path d="M40.206 21.63C40.1262 21.5671 39.3662 20.9918 37.762 20.9918C37.3379 20.9918 36.918 21.0296 36.4981 21.1009C36.1874 18.9762 34.4321 17.9389 34.3524 17.8928L33.924 17.645L33.6427 18.0524C33.2899 18.6024 33.0296 19.2071 32.8784 19.8412C32.5929 21.0548 32.765 22.1928 33.3823 23.167C32.6391 23.5827 31.4423 23.6835 31.2029 23.6918H11.4374C10.9209 23.6918 10.5011 24.1118 10.5011 24.6241C10.4801 26.3541 10.7698 28.0758 11.3661 29.7009C12.0464 31.4855 13.0583 32.7998 14.3769 33.6061C15.8549 34.5089 18.2527 35.0254 20.9738 35.0254C22.2041 35.0296 23.4303 34.9162 24.6355 34.6936C26.3151 34.3871 27.9318 33.7992 29.4141 32.9552C30.6361 32.2455 31.7405 31.3427 32.6769 30.2845C34.2432 28.5125 35.1754 26.5388 35.8683 24.7836C35.9607 24.7836 36.053 24.7836 36.1454 24.7836C37.8587 24.7836 38.9127 24.0991 39.4964 23.5238C39.8827 23.1585 40.185 22.7092 40.3782 22.2136L40.5 21.8525L40.206 21.63Z" fill="white"/>
<path d="M13.2681 23.1124H15.9178C16.0437 23.1124 16.1487 23.0074 16.1487 22.8814V20.5215C16.1487 20.3955 16.0479 20.2905 15.9178 20.2905H13.2681C13.1421 20.2905 13.0371 20.3955 13.0371 20.5215V22.8814C13.0371 23.0074 13.1421 23.1124 13.2681 23.1124Z" fill="white"/>
<path d="M16.9173 23.1124H19.5669C19.6929 23.1124 19.7979 23.0074 19.7979 22.8814V20.5215C19.7979 20.3955 19.6971 20.2905 19.5669 20.2905H16.9173C16.7871 20.2905 16.6863 20.3955 16.6863 20.5215V22.8814C16.6863 23.0074 16.7913 23.1124 16.9173 23.1124Z" fill="white"/>
<path d="M20.624 23.1124H23.2737C23.3997 23.1124 23.5047 23.0074 23.5047 22.8814V20.5215C23.5047 20.3955 23.4039 20.2905 23.2737 20.2905H20.624C20.4981 20.2905 20.3931 20.3955 20.3931 20.5215V22.8814C20.3931 23.0074 20.4938 23.1124 20.624 23.1124Z" fill="white"/>
<path d="M24.2871 23.1124H26.9368C27.0628 23.1124 27.1678 23.0074 27.1678 22.8814V20.5215C27.1678 20.3913 27.0628 20.2905 26.9368 20.2905H24.2871C24.1612 20.2905 24.0562 20.3955 24.0562 20.5215V22.8814C24.0562 23.0074 24.1569 23.1124 24.2871 23.1124Z" fill="white"/>
<path d="M16.9173 19.7193H19.5669C19.6929 19.7193 19.7979 19.6143 19.7979 19.4884V17.1284C19.7979 17.0025 19.6929 16.8975 19.5669 16.8975H16.9173C16.7913 16.8975 16.6863 17.0025 16.6863 17.1284V19.4884C16.6863 19.6144 16.7913 19.7193 16.9173 19.7193Z" fill="white"/>
<path d="M20.624 19.7193H23.2737C23.3997 19.7193 23.5047 19.6143 23.5047 19.4884V17.1284C23.5047 17.0025 23.3997 16.8975 23.2737 16.8975H20.624C20.4981 16.8975 20.3931 17.0025 20.3931 17.1284V19.4884C20.3931 19.6144 20.4938 19.7193 20.624 19.7193Z" fill="white"/>
<path d="M24.2871 19.7193H26.9368C27.067 19.7193 27.1678 19.6143 27.1678 19.4884V17.1284C27.1678 17.0025 27.0628 16.8975 26.9368 16.8975H24.2871C24.1612 16.8975 24.0562 17.0025 24.0562 17.1284V19.4884C24.0562 19.6144 24.1569 19.7193 24.2871 19.7193Z" fill="white"/>
<path d="M24.2871 16.3219H26.9368C27.0628 16.3219 27.1678 16.2169 27.1678 16.0909V13.731C27.1678 13.605 27.0628 13.5 26.9368 13.5H24.2871C24.1612 13.5 24.0562 13.605 24.0562 13.731V16.0909C24.0562 16.2211 24.1569 16.3219 24.2871 16.3219Z" fill="white"/>
<path d="M27.9785 23.1124H30.6282C30.7542 23.1124 30.8592 23.0074 30.8592 22.8814V20.5215C30.8592 20.3913 30.7542 20.2905 30.6282 20.2905H27.9785C27.8526 20.2905 27.7476 20.3955 27.7476 20.5215V22.8814C27.7476 23.0074 27.8526 23.1124 27.9785 23.1124Z" fill="white"/>
</svg>
