<svg width="80" height="80" viewBox="0 0 80 80" fill="none" xmlns="http://www.w3.org/2000/svg">
<g id="Property 1=Default">
<path id="Vector" d="M31.6959 69.9698C31.0811 69.4795 30.5483 68.7848 30.2819 68.0493C29.1139 65.0665 31.5729 61.5116 32.9254 58.9986C33.6426 57.6298 34.3188 56.2405 34.9541 54.8308L36.0811 57.4868C37.4746 60.6944 40.5278 64.5353 39.0524 68.1719C38.5811 69.316 37.8434 70.1741 36.6754 70.644C35.4869 71.1343 33.9705 71.1548 32.7614 70.644C32.3721 70.4806 32.0032 70.2354 31.6959 69.9698Z" fill="#0091FF"/>
<path id="Vector_2" d="M31.6958 69.9698L31.9007 69.7859C32.5974 70.0515 33.2327 70.2354 33.9909 70.2762C35.1179 70.3375 36.7982 70.3171 37.6589 69.459C38.2122 68.9074 38.3146 68.1514 38.2737 67.3955C38.2327 66.8235 38.0687 66.7213 37.6589 66.3944L37.413 66.4761C37.3515 66.8848 37.331 67.2525 37.1056 67.5998L36.7778 67.5385C36.2655 66.5987 36.9622 65.4955 36.8392 64.4944C36.6343 62.9008 35.6712 61.3072 35.3843 59.6728C35.2614 58.9577 35.3023 58.1405 35.7327 57.5276H36.0605C37.454 60.7147 40.5073 64.5557 39.0319 68.1719C38.5605 69.316 37.8228 70.1741 36.6548 70.644C35.4663 71.1343 33.9499 71.1547 32.7409 70.644C32.3515 70.4805 31.9827 70.2354 31.6753 69.9698H31.6958Z" fill="#9ED5FF"/>
<path id="Vector_3" d="M33.4784 59.4277L33.8677 59.7342C34.2366 60.9192 34.298 62.2063 33.9292 63.3913C33.7243 64.0655 33.4784 64.3106 32.8431 64.6375C32.5767 64.3719 32.3103 64.0655 32.1874 63.6977C31.757 62.3493 32.8226 60.5718 33.4784 59.4277Z" fill="#9ED5FF"/>
<path id="Vector_4" d="M33.4376 67.273C33.8475 67.2526 34.2778 67.2117 34.6876 67.2321C35.159 67.2526 35.4253 67.2934 35.7327 67.6407C35.6303 68.1924 35.1385 68.4784 34.7491 68.8257C34.0319 68.9687 33.1917 69.1117 32.5565 68.6418C32.3311 68.4784 32.3926 68.3967 32.3721 68.1515C32.659 67.6816 32.9868 67.5182 33.4376 67.273Z" fill="#9ED5FF"/>
<path id="Vector_5" d="M14.5851 39.8657C14.7081 40.0905 14.6671 39.9883 14.749 40.213C15.9171 43.2572 18.2736 46.5465 18.9908 49.5702C19.3187 50.9595 19.3187 52.5939 18.54 53.8402C17.6794 55.1886 16.2859 55.6585 14.8105 56.0058C14.1958 55.9037 13.54 55.8219 12.9662 55.6176C11.9007 55.2499 10.9171 54.4531 10.4253 53.452C8.581 49.5906 13.2531 43.6454 14.5646 39.8862L14.5851 39.8657Z" fill="#0091FF"/>
<path id="Vector_6" d="M13.3351 44.2993C13.5605 44.381 13.6835 44.4832 13.8884 44.6262C14.2367 45.7703 14.4007 46.9757 14.0318 48.1402C13.8269 48.8145 13.4376 49.0596 12.8433 49.3661C12.5154 49.1822 12.2285 48.9166 12.0646 48.5897C11.4294 47.18 12.7203 45.8316 13.2326 44.6058C13.2736 44.5036 13.3146 44.4015 13.3556 44.2993H13.3351Z" fill="#9ED5FF"/>
<path id="Vector_7" d="M25.8555 24.0117C26.5728 24.9311 29.9744 32.5108 30.1588 33.6141C30.3637 34.8399 30.1998 36.1883 29.4416 37.1894C28.6219 38.2722 27.3719 38.6604 26.0605 38.8443C25.6301 38.8034 25.2203 38.7421 24.8105 38.6195C23.6629 38.2926 22.5359 37.6593 21.9826 36.556C19.9744 32.7151 24.6465 27.8322 25.7941 24.2569L25.876 24.0117H25.8555Z" fill="#0091FF"/>
<path id="Vector_8" d="M24.7077 27.6689C24.8921 27.771 24.9741 27.8732 25.1175 28.0366C25.302 29.099 25.7733 31.0195 25.4044 32.041C25.22 32.5518 24.9946 32.6335 24.5643 32.8991C24.5233 32.8582 24.4618 32.8378 24.4208 32.7969C24.1134 32.5926 23.7651 32.4087 23.6012 32.0614C23.0069 30.856 24.2159 28.7721 24.7077 27.6484V27.6689Z" fill="#9ED5FF"/>
<path id="Vector_9" d="M23.9907 35.5551C24.3801 35.5142 24.7899 35.4938 25.1793 35.4733C25.794 35.4325 26.1834 35.4325 26.6547 35.8411C26.6547 36.4744 26.3063 36.8013 25.9784 37.3325C25.3637 37.3325 24.5645 37.3938 23.9907 37.1486C23.5604 36.9648 23.5399 36.9035 23.376 36.4949C23.5194 36.0862 23.6834 35.8615 23.9907 35.5551Z" fill="#9ED5FF"/>
<path id="Vector_10" d="M64.6711 29.6323C65.2449 30.2044 68.6056 37.3551 68.8515 38.4379C69.1178 39.6637 69.0769 41.1143 68.3597 42.1971C67.5195 43.4842 66.126 43.9132 64.7121 44.2197C64.2818 44.138 63.831 44.0767 63.4006 43.9541C62.2941 43.6272 61.2695 42.8713 60.7777 41.8293C58.9539 37.968 63.2777 33.3711 64.5687 29.9184L64.6711 29.6528V29.6323Z" fill="#0091FF"/>
<path id="Vector_11" d="M63.7901 33.4937L64.036 33.698C64.3638 34.8012 64.5278 36.5378 63.913 37.6002C63.6671 38.0088 63.3393 38.0701 62.8884 38.1927C62.5606 37.7228 62.2737 37.2324 61.9663 36.7421C62.4376 35.5367 62.827 34.4335 63.7901 33.5141V33.4937Z" fill="#9ED5FF"/>
<path id="Vector_12" d="M63.8104 40.4401C64.3022 40.4401 64.7736 40.3992 65.2039 40.6444C65.4703 40.7874 65.4293 40.8487 65.4908 41.1143C65.2654 41.768 64.7736 42.0949 64.2408 42.5035C63.6875 42.4831 62.9498 42.4014 62.6014 41.911C62.3555 41.5842 62.417 41.4411 62.5195 41.0734C62.9293 40.6444 63.2367 40.5626 63.7899 40.4401H63.8104Z" fill="#9ED5FF"/>
<path id="Vector_13" d="M50.5729 28.9238C50.245 28.6786 50.0401 28.27 49.8967 27.9023C48.4008 24.3678 52.5606 19.5462 53.7491 16.2977L53.8516 16.0117C54.2614 16.6859 54.6508 17.3193 54.8967 18.0752L54.9787 18.2999C56.1877 21.2828 59.2205 24.5925 57.827 27.984C57.8065 28.0453 57.7655 28.1066 57.745 28.1883C57.7246 28.2496 57.6836 28.3109 57.6426 28.3722C57.6016 28.4335 57.5811 28.4948 57.5401 28.556C57.4991 28.6173 57.4582 28.6786 57.4172 28.7399C57.3762 28.8012 57.3352 28.8625 57.2942 28.9238C57.2532 28.9851 57.2123 29.0464 57.1713 29.0872C57.1303 29.1281 57.0893 29.1894 57.0278 29.2507C56.9869 29.312 56.9254 29.3528 56.8844 29.4141C56.8434 29.455 56.7819 29.5163 56.7205 29.5571C56.659 29.598 56.618 29.6593 56.5565 29.7002C56.495 29.741 56.4541 29.7819 56.3926 29.8227C56.3311 29.8636 56.2696 29.9045 56.2082 29.9453C56.1467 29.9862 56.0852 30.027 56.0237 30.0679C55.9623 30.1088 55.9008 30.1292 55.8393 30.1701C55.7778 30.2109 55.7164 30.2313 55.6549 30.2722C55.5934 30.2926 55.5319 30.3335 55.45 30.3539C54.3229 30.8034 53.1754 30.7012 52.1098 30.1701C51.5155 29.8636 51.0032 29.4958 50.5729 28.9647V28.9238Z" fill="#0091FF"/>
<path id="Vector_14" d="M55.4293 27.1873C56.167 24.7969 54.8555 22.999 54.4662 20.7312C54.3227 19.8323 54.3637 18.8516 54.876 18.0957L54.958 18.3204C56.167 21.3033 59.1998 24.613 57.8063 28.0045C57.7859 28.0658 57.7449 28.1271 57.7244 28.2088C57.7039 28.2701 57.6629 28.3314 57.6219 28.3927C57.5809 28.454 57.5604 28.5153 57.5195 28.5766C57.4785 28.6378 57.4375 28.6991 57.3965 28.7604C57.3555 28.8217 57.3145 28.883 57.2736 28.9443C57.2326 29.0056 57.1916 29.0669 57.1506 29.1077C57.1096 29.1486 57.0686 29.2099 57.0072 29.2712C56.9662 29.3325 56.9047 29.3733 56.8637 29.4346C56.8227 29.4755 56.7613 29.5368 56.6998 29.5776C56.6383 29.6185 56.5973 29.6798 56.5359 29.7207C56.4744 29.7615 56.4334 29.8024 56.3719 29.8432C56.3104 29.8841 56.249 29.925 56.1875 29.9658C56.126 30.0067 56.0645 30.0475 56.0031 30.0884C55.9416 30.1293 55.8801 30.1497 55.8186 30.1906C55.7572 30.2314 55.6957 30.2519 55.6342 30.2927C55.5727 30.3131 55.5113 30.354 55.4293 30.3744C54.3022 30.8239 53.1547 30.7218 52.0891 30.1906C51.4949 29.8841 50.9826 29.5164 50.5522 28.9852C51.208 29.2303 51.8227 29.5368 52.4375 29.8841C53.7285 30.1497 54.7121 29.9658 55.9621 29.6185C56.5154 29.0873 57.5604 28.2088 57.6014 27.3916C57.6014 27.1668 57.417 27.0851 57.2531 26.9421C56.5154 26.7787 56.085 26.983 55.4088 27.2486L55.4293 27.1873Z" fill="#9ED5FF"/>
<path id="Vector_15" d="M52.7245 19.873L52.9499 19.9956C53.3392 20.4247 53.4212 21.1397 53.4007 21.6914C53.3597 22.672 53.0318 23.0602 52.3351 23.714C52.0277 23.6731 52.1097 23.714 51.8638 23.5914C51.6589 23.4892 51.6999 23.5505 51.6179 23.2849C51.2491 22.1613 52.1712 20.8333 52.7245 19.8935V19.873Z" fill="#9ED5FF"/>
<path id="Vector_16" d="M54.79 46.1887C55.3432 46.8016 55.6711 47.9049 56.0195 48.6608C57.0441 50.7856 58.5605 52.8082 58.8473 55.1986C58.9908 56.4244 58.7859 57.8137 57.9662 58.7739C57.126 59.7546 55.999 60.0815 54.749 60.1632C54.2367 60.1019 53.7654 60.0406 53.2941 59.8772C52.3514 59.5298 51.4498 58.7739 51.0195 57.8341C49.3801 54.1566 53.6014 49.7028 54.7285 46.4135L54.8105 46.1887H54.79Z" fill="#0091FF"/>
<path id="Vector_17" d="M53.7242 49.8661C54.0726 50.5403 54.298 51.3167 54.5644 52.0113C54.298 52.9716 54.1136 53.5641 53.3349 54.2178C53.1914 54.1565 52.9455 54.0748 52.8226 53.9931C52.5767 53.8297 52.4742 53.6253 52.4127 53.3393C52.1668 52.2156 53.1504 50.7651 53.7242 49.8457V49.8661Z" fill="#9ED5FF"/>
<path id="Vector_18" d="M53.0275 56.9965C53.8267 56.9965 54.9333 56.8331 55.589 57.303C55.5275 57.7729 55.3021 57.8954 54.9948 58.2428C54.7489 58.4266 54.6054 58.5084 54.298 58.5492C53.6833 58.6105 53.3554 58.4471 52.9251 58.0385C52.8226 57.5686 52.8841 57.446 53.048 56.9965H53.0275Z" fill="#9ED5FF"/>
<path id="Vector_19" d="M42.6177 34.8703C43.3144 35.4832 45.8554 41.2446 46.1627 42.3274C46.4906 43.5328 46.5931 45.0038 45.8758 46.1071C45.1791 47.1899 43.8677 47.5781 42.6791 47.8437C42.1873 47.7824 41.6545 47.7006 41.1832 47.5168C40.2406 47.1694 39.3799 46.4952 39.0111 45.535C37.8021 42.4909 41.3881 37.6897 42.6177 34.8499V34.8703Z" fill="#0091FF"/>
<path id="Vector_20" d="M41.8598 37.9961C41.8598 37.9961 41.9827 38.1391 42.0032 38.2208C42.3311 38.9359 42.3516 41.3467 41.8598 42.0209C41.5319 42.4704 41.3065 42.4908 40.8147 42.6338C40.5483 42.2252 40.2614 41.7962 40.2204 41.3058C40.118 39.9983 41.0811 38.9563 41.8393 37.9961H41.8598Z" fill="#9ED5FF"/>
<path id="Vector_21" d="M41.9827 44.9014C42.536 44.881 43.0483 44.7993 43.4991 45.1057C43.3147 45.6369 42.6999 46.0251 42.2696 46.3724C41.9417 46.3929 41.5114 46.4541 41.1835 46.3724C40.7737 46.2703 40.6507 46.066 40.4458 45.7391L40.5688 45.3713C40.9991 44.9832 41.4089 44.9627 41.9622 44.9014H41.9827Z" fill="#9ED5FF"/>
<path id="Vector_22" d="M38.5153 16.9106L38.7202 16.8289C39.3964 17.7891 41.4866 22.1204 41.876 23.2236C42.1423 23.9795 42.2243 24.7968 42.2858 25.614C41.8145 26.7989 41.4046 27.8409 40.1546 28.3721C39.7448 28.556 39.376 28.5968 38.9456 28.6581C38.7202 28.699 38.7202 28.7194 38.4538 28.7194C37.4907 28.7194 36.7325 28.2904 36.0768 27.6366C35.6464 27.2076 35.38 26.7989 35.1751 26.2269C34.2325 23.5914 37.3473 19.3009 38.5153 16.9106Z" fill="#0091FF"/>
<path id="Vector_23" d="M38.515 16.9106L38.7199 16.8289C39.3961 17.7891 41.4863 22.1204 41.8757 23.2236C42.142 23.9795 42.224 24.7968 42.2855 25.614C41.8142 26.7989 41.4043 27.8409 40.1543 28.3721C39.7445 28.556 39.3757 28.5968 38.9453 28.6581C38.8839 28.3312 38.8429 28.4742 39.0273 28.1882C39.5806 28.1882 40.2978 28.0043 40.7281 27.657C41.1994 27.2688 41.5888 26.7172 41.6298 26.1043C41.3019 25.6548 40.5642 25.4505 40.0519 25.2258L39.9084 24.7559C39.9084 24.5924 39.9494 24.429 39.9494 24.2656C39.9904 23.2849 39.1707 19.4031 38.5765 18.7493C38.4535 19.0966 38.392 19.3622 38.1052 19.587C37.8183 19.5257 37.9412 19.587 37.7158 19.3214C38.1871 18.6267 38.4945 17.9525 38.5355 17.0945C38.5355 17.0332 38.5355 16.9719 38.5355 16.931L38.515 16.9106Z" fill="#9ED5FF"/>
<path id="Vector_24" d="M37.6136 19.73C37.716 19.7913 37.7775 19.8117 37.839 19.9139C38.2283 20.445 38.3103 22.3247 38.1463 22.958C38.0234 23.4892 37.6545 23.6118 37.2447 23.8978C36.9578 23.6322 36.5685 23.3053 36.425 22.9376C36.0357 21.8548 37.0603 20.6085 37.6136 19.7504V19.73Z" fill="#9ED5FF"/>
<path id="Vector_25" d="M38.0645 27.6775C37.6956 27.5345 37.3882 27.3711 37.0399 27.1667C36.835 26.8194 36.835 26.8399 36.9374 26.4721C37.2653 26.2269 37.5317 26.0839 37.9415 26.0431C38.5153 25.9613 38.8636 26.0839 39.3145 26.4108C38.9046 26.8399 38.4948 27.2689 38.0645 27.6775Z" fill="#9ED5FF"/>
<path id="Vector_26" d="M33.0112 8.51076L33.2571 8L33.503 8.08172C33.6464 8.40861 33.8513 8.77636 33.9538 9.12368C34.8349 10.4925 36.003 11.9839 35.6136 13.7001C35.5726 13.9044 35.5726 13.8636 35.5112 14.027C35.0398 14.6399 34.5276 15.1098 33.7079 15.212C33.0112 15.2937 32.4374 15.1098 31.7817 14.8442C31.4743 14.4969 31.1874 14.1496 31.0439 13.6797C30.6956 12.5356 31.2079 11.6366 31.7202 10.656L32.9702 8.4699L33.0112 8.51076Z" fill="#0091FF"/>
<path id="Vector_27" d="M33.9336 11.8613C33.7696 11.371 33.6262 10.7989 33.5852 10.2677C33.5442 9.73653 33.6467 9.53222 33.9746 9.14404C34.8557 10.5129 36.0237 12.0043 35.6344 13.7205C35.5934 13.9248 35.5934 13.8839 35.5319 14.0474C35.327 13.7409 35.1631 13.5366 34.8557 13.3323L34.7123 13.2301C34.077 12.7807 34.0565 12.5968 33.9336 11.8409V11.8613Z" fill="#9ED5FF"/>
<path id="Vector_28" d="M31.7612 10.6968L33.0112 8.51074C33.2981 9.69571 33.4416 10.5947 33.1342 11.8001L32.8678 12.0656C32.4784 11.9839 32.335 11.9431 32.0891 11.5753C31.9866 11.4323 31.9457 11.1871 31.9047 11.0033C31.8432 10.7785 31.8842 10.8807 31.7612 10.6559V10.6968Z" fill="#9ED5FF"/>
<path id="Vector_29" d="M13.6427 27.5668L13.9501 27.4033C14.237 27.7506 14.4009 28.0367 14.5853 28.4453C15.2206 29.5077 16.1632 30.9378 15.7329 32.2453C15.5894 32.6948 15.364 32.9604 14.9337 33.1647C14.3394 33.4507 13.5607 33.3282 12.946 33.1647C12.5362 32.8787 12.2288 32.5314 12.0444 32.0615C11.778 31.3464 12.1673 30.57 12.4337 29.9163C12.8845 29.1399 13.3558 28.384 13.6632 27.5463L13.6427 27.5668Z" fill="#0091FF"/>
<path id="Vector_30" d="M12.9253 33.1851C13.1712 33.1034 13.4581 33.0625 13.7245 33.0012C14.2778 32.8582 14.5851 32.7356 14.8925 32.2249C14.995 31.5507 14.5237 31.1012 14.3187 30.4883C14.1138 29.8549 14.2368 28.9969 14.5851 28.4248C15.2204 29.4872 16.163 30.9173 15.7327 32.2249C15.5892 32.6743 15.3638 32.9399 14.9335 33.1443C14.3392 33.4303 13.5605 33.3077 12.9458 33.1443L12.9253 33.1851Z" fill="#9ED5FF"/>
<path id="Vector_31" d="M13.6426 27.5667C13.7041 28.4247 13.95 30.1205 13.4377 30.8355C13.2532 30.6721 13.1098 30.5086 12.9459 30.3043C12.7819 30.1 12.659 30.0387 12.4131 29.9366C12.8639 29.1602 13.3352 28.4043 13.6426 27.5667Z" fill="#9ED5FF"/>
<path id="Vector_32" d="M34.0523 45.1875L34.6466 46.2703C35.1794 47.1488 35.6712 47.9456 35.9376 48.9467C35.8966 49.1306 35.8351 49.3145 35.7736 49.4983C35.5892 49.9887 35.1794 50.3564 34.6876 50.5812C34.2367 50.7855 33.704 50.8059 33.2326 50.5812C32.8023 50.3564 32.5154 49.9274 32.4335 49.4575C32.1056 47.8843 33.2531 46.4338 34.0318 45.1875H34.0523Z" fill="#0091FF"/>
<path id="Vector_33" d="M34.6467 46.2704C35.1794 47.1489 35.6712 47.9457 35.9376 48.9468C35.6917 48.906 35.3639 48.8651 35.1385 48.763C34.8516 48.6404 34.7696 48.5178 34.6467 48.2318C34.3803 47.6801 34.4212 46.8221 34.6467 46.25V46.2704Z" fill="#9ED5FF"/>
</g>
</svg>
