<svg width="82" height="24" viewBox="0 0 82 24" fill="none" xmlns="http://www.w3.org/2000/svg">
<rect width="82" height="24" rx="4" fill="#8DDCE6"/>
<path d="M14.954 17H13.12V7.228H16.83C17.782 7.228 18.51 7.49867 19.014 8.04C19.518 8.58133 19.77 9.31867 19.77 10.252C19.77 10.9707 19.602 11.5773 19.266 12.072C18.9393 12.5573 18.468 12.8653 17.852 12.996L19.938 17H17.922L16.06 13.206H14.954V17ZM16.452 11.778C16.9467 11.778 17.3013 11.68 17.516 11.484C17.7307 11.2787 17.838 10.9567 17.838 10.518V9.986C17.838 9.54733 17.7307 9.23 17.516 9.034C17.3013 8.82867 16.9467 8.726 16.452 8.726H14.954V11.778H16.452ZM25.6725 15.726H25.6025C25.4439 16.118 25.1965 16.4587 24.8605 16.748C24.5339 17.028 24.0765 17.168 23.4885 17.168C22.7792 17.168 22.2005 16.9347 21.7525 16.468C21.3139 15.992 21.0945 15.3153 21.0945 14.438V9.776H22.8865V14.186C22.8865 15.2313 23.3392 15.754 24.2445 15.754C24.4219 15.754 24.5945 15.7307 24.7625 15.684C24.9399 15.6373 25.0939 15.5673 25.2245 15.474C25.3645 15.3713 25.4719 15.25 25.5465 15.11C25.6305 14.97 25.6725 14.802 25.6725 14.606V9.776H27.4645V17H25.6725V15.726ZM29.2791 17V9.776H31.0711V11.05H31.1411C31.2997 10.658 31.5424 10.322 31.8691 10.042C32.2051 9.75267 32.6671 9.608 33.2551 9.608C33.9644 9.608 34.5384 9.846 34.9771 10.322C35.4251 10.7887 35.6491 11.4607 35.6491 12.338V17H33.8571V12.59C33.8571 11.5447 33.4044 11.022 32.4991 11.022C32.3124 11.022 32.1351 11.0453 31.9671 11.092C31.7991 11.1387 31.6451 11.2133 31.5051 11.316C31.3744 11.4093 31.2671 11.526 31.1831 11.666C31.1084 11.806 31.0711 11.974 31.0711 12.17V17H29.2791ZM37.3936 17V9.776H39.1856V11.05H39.2556C39.4143 10.658 39.6569 10.322 39.9836 10.042C40.3196 9.75267 40.7816 9.608 41.3696 9.608C42.0789 9.608 42.6529 9.846 43.0916 10.322C43.5396 10.7887 43.7636 11.4607 43.7636 12.338V17H41.9716V12.59C41.9716 11.5447 41.5189 11.022 40.6136 11.022C40.4269 11.022 40.2496 11.0453 40.0816 11.092C39.9136 11.1387 39.7596 11.2133 39.6196 11.316C39.4889 11.4093 39.3816 11.526 39.2976 11.666C39.2229 11.806 39.1856 11.974 39.1856 12.17V17H37.3936ZM49.1061 8.656C48.6861 8.656 48.3875 8.56733 48.2101 8.39C48.0421 8.21267 47.9581 7.998 47.9581 7.746V7.41C47.9581 7.158 48.0421 6.94333 48.2101 6.766C48.3875 6.58867 48.6861 6.5 49.1061 6.5C49.5261 6.5 49.8201 6.58867 49.9881 6.766C50.1655 6.94333 50.2541 7.158 50.2541 7.41V7.746C50.2541 7.998 50.1655 8.21267 49.9881 8.39C49.8201 8.56733 49.5261 8.656 49.1061 8.656ZM45.8301 15.586H48.2101V11.19H45.8301V9.776H50.0021V15.586H52.2141V17H45.8301V15.586ZM53.6227 17V9.776H55.4147V11.05H55.4847C55.6433 10.658 55.886 10.322 56.2127 10.042C56.5487 9.75267 57.0107 9.608 57.5987 9.608C58.308 9.608 58.882 9.846 59.3207 10.322C59.7687 10.7887 59.9927 11.4607 59.9927 12.338V17H58.2007V12.59C58.2007 11.5447 57.748 11.022 56.8427 11.022C56.656 11.022 56.4787 11.0453 56.3107 11.092C56.1427 11.1387 55.9887 11.2133 55.8487 11.316C55.718 11.4093 55.6107 11.526 55.5267 11.666C55.452 11.806 55.4147 11.974 55.4147 12.17V17H53.6227ZM68.7512 17.756C68.7512 18.512 68.4339 19.0673 67.7992 19.422C67.1739 19.786 66.1939 19.968 64.8592 19.968C64.2059 19.968 63.6599 19.926 63.2212 19.842C62.7825 19.7673 62.4279 19.6553 62.1572 19.506C61.8959 19.3567 61.7092 19.1747 61.5972 18.96C61.4852 18.7547 61.4292 18.5213 61.4292 18.26C61.4292 17.8587 61.5459 17.5507 61.7792 17.336C62.0125 17.1213 62.3392 16.9627 62.7592 16.86V16.748C62.4792 16.6547 62.2552 16.524 62.0872 16.356C61.9285 16.188 61.8492 15.9547 61.8492 15.656C61.8492 15.3013 61.9659 15.0353 62.1992 14.858C62.4419 14.6807 62.7592 14.5453 63.1512 14.452V14.382C62.7219 14.1767 62.3859 13.8873 62.1432 13.514C61.9005 13.1407 61.7792 12.688 61.7792 12.156C61.7792 11.7547 61.8492 11.4 61.9892 11.092C62.1385 10.7747 62.3439 10.5087 62.6052 10.294C62.8759 10.07 63.1979 9.902 63.5712 9.79C63.9445 9.66867 64.3599 9.608 64.8172 9.608C65.3025 9.608 65.7412 9.67333 66.1332 9.804V9.496C66.1332 9.216 66.2219 8.98267 66.3992 8.796C66.5859 8.60933 66.8425 8.516 67.1692 8.516H68.4712V9.86H66.7632V10.098C67.1179 10.3127 67.3885 10.5927 67.5752 10.938C67.7712 11.274 67.8692 11.68 67.8692 12.156C67.8692 12.5573 67.7945 12.9167 67.6452 13.234C67.5052 13.5513 67.2999 13.8173 67.0292 14.032C66.7679 14.2467 66.4459 14.4147 66.0632 14.536C65.6899 14.648 65.2745 14.704 64.8172 14.704C64.6305 14.704 64.4485 14.6993 64.2712 14.69C64.1032 14.6713 63.9399 14.6387 63.7812 14.592C63.6505 14.6387 63.5245 14.7133 63.4032 14.816C63.2819 14.9187 63.2212 15.054 63.2212 15.222C63.2212 15.446 63.3285 15.586 63.5432 15.642C63.7579 15.6887 64.0145 15.712 64.3132 15.712H65.9512C66.4552 15.712 66.8845 15.7633 67.2392 15.866C67.5939 15.9593 67.8832 16.0993 68.1072 16.286C68.3312 16.4633 68.4945 16.678 68.5972 16.93C68.6999 17.182 68.7512 17.4573 68.7512 17.756ZM67.0712 17.882C67.0712 17.6673 66.9825 17.4947 66.8052 17.364C66.6372 17.2427 66.3199 17.182 65.8532 17.182H63.3612C63.0812 17.3407 62.9412 17.574 62.9412 17.882C62.9412 18.134 63.0439 18.344 63.2492 18.512C63.4639 18.68 63.8232 18.764 64.3272 18.764H65.4892C66.5439 18.764 67.0712 18.47 67.0712 17.882ZM64.8172 13.528C65.2745 13.528 65.6105 13.4207 65.8252 13.206C66.0399 12.982 66.1472 12.6927 66.1472 12.338V11.974C66.1472 11.6193 66.0399 11.3347 65.8252 11.12C65.6105 10.896 65.2745 10.784 64.8172 10.784C64.3692 10.784 64.0379 10.896 63.8232 11.12C63.6085 11.3347 63.5012 11.6193 63.5012 11.974V12.338C63.5012 12.6927 63.6085 12.982 63.8232 13.206C64.0379 13.4207 64.3692 13.528 64.8172 13.528Z" fill="#333333"/>
</svg>
