<svg width="1021" height="348" viewBox="0 0 1021 348" fill="none" xmlns="http://www.w3.org/2000/svg">
<path d="M168 307H171V310H168V307Z" fill="#BBC8CC"/>
<path d="M165 310H168V313H165V310Z" fill="#516066"/>
<path d="M162 307H165V310H162V307Z" fill="#516066"/>
<path d="M162 298H165V301H162V298Z" fill="#516066"/>
<path d="M177 310H180V313H177V310Z" fill="#516066"/>
<path d="M177 313H180V316H177V313Z" fill="#516066"/>
<path d="M174 307H177V310H174V307Z" fill="#516066"/>
<path d="M174 310H177V313H174V310Z" fill="#BBC8CC"/>
<path d="M174 313H177V316H174V313Z" fill="#BBC8CC"/>
<path d="M171 304H174V307H171V304Z" fill="#516066"/>
<path d="M171 307H174V310H171V307Z" fill="#BBC8CC"/>
<path d="M171 310H174V313H171V310Z" fill="#BBC8CC"/>
<path d="M171 313H174V316H171V313Z" fill="#BBC8CC"/>
<path d="M168 301H171V304H168V301Z" fill="#516066"/>
<path d="M165 298H168V301H165V298Z" fill="#516066"/>
<path d="M168 304H171V307H168V304Z" fill="#BBC8CC"/>
<path d="M165 301H168V304H165V301Z" fill="#BBC8CC"/>
<path d="M165 304H168V307H165V304Z" fill="#BBC8CC"/>
<path d="M162 304H165V307H162V304Z" fill="#BBC8CC"/>
<path d="M162 301H165V304H162V301Z" fill="#BBC8CC"/>
<path d="M171 310H174V313H171V310Z" fill="#BBC8CC"/>
<path d="M168 310H171V313H168V310Z" fill="#BBC8CC"/>
<path d="M165 307H168V310H165V307Z" fill="#BBC8CC"/>
<path d="M168 313H171V316H168V313Z" fill="#516066"/>
<path d="M177 319H180V333.5H177V319Z" fill="#516066"/>
<path d="M177 333.5H180V348H177V333.5Z" fill="#516066"/>
<path d="M174 319H177V333.5H174V319Z" fill="#BBC8CC"/>
<path d="M174 333.5H177V348H174V333.5Z" fill="#BBC8CC"/>
<path d="M171 319H174V333.5H171V319Z" fill="#BBC8CC"/>
<path d="M171 333.5H174V348H171V333.5Z" fill="#BBC8CC"/>
<path d="M168 319H171V333.5H168V319Z" fill="#516066"/>
<path d="M168 333.5H171V348H168V333.5Z" fill="#516066"/>
<path d="M181 319H184V322H181V319Z" fill="#516066"/>
<path d="M181 316H184V319H181V316Z" fill="#516066"/>
<path d="M170 316H181V319H170V316Z" fill="#516066"/>
<path d="M170 322H181V325H170V322Z" fill="#516066"/>
<path d="M167 316H178V319H167V316Z" fill="#516066"/>
<path d="M167 322H178V325H167V322Z" fill="#516066"/>
<path d="M164 316H167V319H164V316Z" fill="#516066"/>
<path d="M181 322H184V325H181V322Z" fill="#516066"/>
<path d="M170 319H181V322H170V319Z" fill="#BBC8CC"/>
<path d="M167 319H178V322H167V319Z" fill="#BBC8CC"/>
<path d="M164 319H167V322H164V319Z" fill="#516066"/>
<path d="M164 322H167V325H164V322Z" fill="#516066"/>
<path d="M148 301L148 298L155.5 298L155.5 301L148 301Z" fill="#516066"/>
<path d="M155.5 301L155.5 298L163 298L163 301L155.5 301Z" fill="#516066"/>
<path d="M148 304L148 301L155.5 301L155.5 304L148 304Z" fill="#BBC8CC"/>
<path d="M155.5 304L155.5 301L163 301L163 304L155.5 304Z" fill="#BBC8CC"/>
<path d="M148 307L148 304L155.5 304L155.5 307L148 307Z" fill="#BBC8CC"/>
<path d="M155.5 307L155.5 304L163 304L163 307L155.5 307Z" fill="#BBC8CC"/>
<path d="M148 310L148 307L155.5 307L155.5 310L148 310Z" fill="#516066"/>
<path d="M155.5 310L155.5 307L163 307L163 310L155.5 310Z" fill="#516066"/>
<path d="M148 302V300H118.5V302H148Z" fill="#516066"/>
<path d="M118.5 302V300H89V302H118.5Z" fill="#516066"/>
<path d="M148 304V302H118.5V304H148Z" fill="#BBC8CC"/>
<path d="M118.5 304V302H89V304H118.5Z" fill="#BBC8CC"/>
<path d="M148 306V304H118.5V306H148Z" fill="#BBC8CC"/>
<path d="M118.5 306V304H89V306H118.5Z" fill="#BBC8CC"/>
<path d="M148 308V306H118.5V308H148Z" fill="#516066"/>
<path d="M118.5 308V306H89V308H118.5Z" fill="#516066"/>
<path d="M82 170H80V233.5H82V170Z" fill="#516066"/>
<path d="M82 233.5H80V297H82V233.5Z" fill="#516066"/>
<path d="M84 170H82V233.5H84V170Z" fill="#BBC8CC"/>
<path d="M84 233.5H82V297H84V233.5Z" fill="#BBC8CC"/>
<path d="M86 170H84V233.5H86V170Z" fill="#BBC8CC"/>
<path d="M86 233.5H84V297H86V233.5Z" fill="#BBC8CC"/>
<path d="M88 170H86V233.5H88V170Z" fill="#516066"/>
<path d="M88 233.5H86V297H88V233.5Z" fill="#516066"/>
<path d="M76 165L76 163L38 163L38 165L76 165Z" fill="#516066"/>
<path d="M38 165L38 163L0 163L-8.74228e-08 165L38 165Z" fill="#516066"/>
<path d="M76 167L76 165L38 165L38 167L76 167Z" fill="#BBC8CC"/>
<path d="M38 167L38 165L0 165L-8.74228e-08 167L38 167Z" fill="#BBC8CC"/>
<path d="M76 169L76 167L38 167L38 169L76 169Z" fill="#BBC8CC"/>
<path d="M38 169L38 167L0 167L-8.74228e-08 169L38 169Z" fill="#BBC8CC"/>
<path d="M76 171L76 169L38 169L38 171L76 171Z" fill="#516066"/>
<path d="M38 171L38 169L0 169L-8.74228e-08 171L38 171Z" fill="#516066"/>
<path d="M86 300V302H88V300H86Z" fill="#BBC8CC"/>
<path d="M88 298V300H90V298H88Z" fill="#516066"/>
<path d="M86 296V298H88V296H86Z" fill="#516066"/>
<path d="M80 296V298H82V296H80Z" fill="#516066"/>
<path d="M88 306V308H90V306H88Z" fill="#516066"/>
<path d="M90 306V308H92V306H90Z" fill="#516066"/>
<path d="M86 304V306H88V304H86Z" fill="#516066"/>
<path d="M88 304V306H90V304H88Z" fill="#BBC8CC"/>
<path d="M90 304V306H92V304H90Z" fill="#BBC8CC"/>
<path d="M84 302V304H86V302H84Z" fill="#516066"/>
<path d="M86 302V304H88V302H86Z" fill="#BBC8CC"/>
<path d="M88 302.308V304.308H90V302.308H88Z" fill="#BBC8CC"/>
<path d="M90 302V304H92V302H90Z" fill="#BBC8CC"/>
<path d="M82 300V302H84V300H82Z" fill="#516066"/>
<path d="M80 298V300H82V298H80Z" fill="#516066"/>
<path d="M84 300V302H86V300H84Z" fill="#BBC8CC"/>
<path d="M82 298V300H84V298H82Z" fill="#BBC8CC"/>
<path d="M84 298V300H86V298H84Z" fill="#BBC8CC"/>
<path d="M84 296V298H86V296H84Z" fill="#BBC8CC"/>
<path d="M82 296V298H84V296H82Z" fill="#BBC8CC"/>
<path d="M88 302V304H90V302H88Z" fill="#BBC8CC"/>
<path d="M88 300V302H90V300H88Z" fill="#BBC8CC"/>
<path d="M86 298V300H88V298H86Z" fill="#BBC8CC"/>
<path d="M90 300V302H92V300H90Z" fill="#516066"/>
<path d="M82 171V169H80V171H82Z" fill="#BBC8CC"/>
<path d="M80 173V171H78V173H80Z" fill="#516066"/>
<path d="M82 175V173H80V175H82Z" fill="#516066"/>
<path d="M88 175V173H86V175H88Z" fill="#516066"/>
<path d="M80 165V163H78V165H80Z" fill="#516066"/>
<path d="M78 165V163H76V165H78Z" fill="#516066"/>
<path d="M82 167V165H80V167H82Z" fill="#516066"/>
<path d="M80 167V165H78V167H80Z" fill="#BBC8CC"/>
<path d="M78 167V165H76V167H78Z" fill="#BBC8CC"/>
<path d="M84 169V167H82V169H84Z" fill="#516066"/>
<path d="M82 169V167H80V169H82Z" fill="#BBC8CC"/>
<path d="M80 168.692V166.692H78V168.692H80Z" fill="#BBC8CC"/>
<path d="M78 169V167H76V169H78Z" fill="#BBC8CC"/>
<path d="M86 171V169H84V171H86Z" fill="#516066"/>
<path d="M88 173V171H86V173H88Z" fill="#516066"/>
<path d="M84 171V169H82V171H84Z" fill="#BBC8CC"/>
<path d="M86 173V171H84V173H86Z" fill="#BBC8CC"/>
<path d="M84 173V171H82V173H84Z" fill="#BBC8CC"/>
<path d="M84 175V173H82V175H84Z" fill="#BBC8CC"/>
<path d="M86 175V173H84V175H86Z" fill="#BBC8CC"/>
<path d="M80 169V167H78V169H80Z" fill="#BBC8CC"/>
<path d="M80 171V169H78V171H80Z" fill="#BBC8CC"/>
<path d="M82 173V171H80V173H82Z" fill="#BBC8CC"/>
<path d="M78 171V169H76V171H78Z" fill="#516066"/>
<path d="M149 311L149 314L146 314L146 311L149 311Z" fill="#516066"/>
<path d="M152 311L152 314L149 314L149 311L152 311Z" fill="#516066"/>
<path d="M152 300L152 311L149 311L149 300L152 300Z" fill="#516066"/>
<path d="M146 300L146 311L143 311L143 300L146 300Z" fill="#516066"/>
<path d="M152 297L152 308L149 308L149 297L152 297Z" fill="#516066"/>
<path d="M146 297L146 308L143 308L143 297L146 297Z" fill="#516066"/>
<path d="M152 294L152 297L149 297L149 294L152 294Z" fill="#516066"/>
<path d="M146 311L146 314L143 314L143 311L146 311Z" fill="#516066"/>
<path d="M149 300L149 311L146 311L146 300L149 300Z" fill="#BBC8CC"/>
<path d="M149 297L149 308L146 308L146 297L149 297Z" fill="#BBC8CC"/>
<path d="M149 294L149 297L146 297L146 294L149 294Z" fill="#516066"/>
<path d="M146 294L146 297L143 297L143 294L146 294Z" fill="#516066"/>
<path d="M974 175H971V178H974V175Z" fill="#BBC8CC"/>
<path d="M977 178H974V181H977V178Z" fill="#516066"/>
<path d="M980 175H977V178H980V175Z" fill="#516066"/>
<path d="M980 166H977V169H980V166Z" fill="#516066"/>
<path d="M965 178H962V181H965V178Z" fill="#516066"/>
<path d="M965 181H962V184H965V181Z" fill="#516066"/>
<path d="M968 175H965V178H968V175Z" fill="#516066"/>
<path d="M968 178H965V181H968V178Z" fill="#BBC8CC"/>
<path d="M968 181H965V184H968V181Z" fill="#BBC8CC"/>
<path d="M971 172H968V175H971V172Z" fill="#516066"/>
<path d="M971 175H968V178H971V175Z" fill="#BBC8CC"/>
<path d="M971 178H968V181H971V178Z" fill="#BBC8CC"/>
<path d="M971 181H968V184H971V181Z" fill="#BBC8CC"/>
<path d="M974 169H971V172H974V169Z" fill="#516066"/>
<path d="M977 166H974V169H977V166Z" fill="#516066"/>
<path d="M974 172H971V175H974V172Z" fill="#BBC8CC"/>
<path d="M977 169H974V172H977V169Z" fill="#BBC8CC"/>
<path d="M977 172H974V175H977V172Z" fill="#BBC8CC"/>
<path d="M980 172H977V175H980V172Z" fill="#BBC8CC"/>
<path d="M980 169H977V172H980V169Z" fill="#BBC8CC"/>
<path d="M971 178H968V181H971V178Z" fill="#BBC8CC"/>
<path d="M974 178H971V181H974V178Z" fill="#BBC8CC"/>
<path d="M977 175H974V178H977V175Z" fill="#BBC8CC"/>
<path d="M974 181H971V184H974V181Z" fill="#516066"/>
<path d="M1011 7H1013V9H1011V7Z" fill="#BBC8CC"/>
<path d="M1009 9H1011V11H1009V9Z" fill="#516066"/>
<path d="M1007 7H1009V9H1007V7Z" fill="#516066"/>
<path d="M1007 1H1009V3H1007V1Z" fill="#516066"/>
<path d="M1017 9H1019V11H1017V9Z" fill="#516066"/>
<path d="M1017 11H1019V13H1017V11Z" fill="#516066"/>
<path d="M1015 7H1017V9H1015V7Z" fill="#516066"/>
<path d="M1015 9H1017V11H1015V9Z" fill="#BBC8CC"/>
<path d="M1015 11H1017V13H1015V11Z" fill="#BBC8CC"/>
<path d="M1013 5H1015V7H1013V5Z" fill="#516066"/>
<path d="M1013 7H1015V9H1013V7Z" fill="#BBC8CC"/>
<path d="M1013.31 9H1015.31V11H1013.31V9Z" fill="#BBC8CC"/>
<path d="M1013 11H1015V13H1013V11Z" fill="#BBC8CC"/>
<path d="M1011 3H1013V5H1011V3Z" fill="#516066"/>
<path d="M1009 1H1011V3H1009V1Z" fill="#516066"/>
<path d="M1011 5H1013V7H1011V5Z" fill="#BBC8CC"/>
<path d="M1009 3H1011V5H1009V3Z" fill="#BBC8CC"/>
<path d="M1009 5H1011V7H1009V5Z" fill="#BBC8CC"/>
<path d="M1007 5H1009V7H1007V5Z" fill="#BBC8CC"/>
<path d="M1007 3H1009V5H1007V3Z" fill="#BBC8CC"/>
<path d="M1013 9H1015V11H1013V9Z" fill="#BBC8CC"/>
<path d="M1011 9H1013V11H1011V9Z" fill="#BBC8CC"/>
<path d="M1009 7H1011V9H1009V7Z" fill="#BBC8CC"/>
<path d="M1011 11H1013V13H1011V11Z" fill="#516066"/>
<path d="M1009 169H1012V166H1009V169Z" fill="#BBC8CC"/>
<path d="M1006 166H1009V163H1006V166Z" fill="#516066"/>
<path d="M1003 169H1006V166H1003V169Z" fill="#516066"/>
<path d="M1003 178H1006V175H1003V178Z" fill="#516066"/>
<path d="M1018 166H1021V163H1018V166Z" fill="#516066"/>
<path d="M1018 163H1021V160H1018V163Z" fill="#516066"/>
<path d="M1015 169H1018V166H1015V169Z" fill="#516066"/>
<path d="M1015 166H1018V163H1015V166Z" fill="#BBC8CC"/>
<path d="M1015 163H1018V160H1015V163Z" fill="#BBC8CC"/>
<path d="M1012 172H1015V169H1012V172Z" fill="#516066"/>
<path d="M1012 169H1015V166H1012V169Z" fill="#BBC8CC"/>
<path d="M1012 166H1015V163H1012V166Z" fill="#BBC8CC"/>
<path d="M1012 163H1015V160H1012V163Z" fill="#BBC8CC"/>
<path d="M1009 175H1012V172H1009V175Z" fill="#516066"/>
<path d="M1006 178H1009V175H1006V178Z" fill="#516066"/>
<path d="M1009 172H1012V169H1009V172Z" fill="#BBC8CC"/>
<path d="M1006 175H1009V172H1006V175Z" fill="#BBC8CC"/>
<path d="M1006 172H1009V169H1006V172Z" fill="#BBC8CC"/>
<path d="M1003 172H1006V169H1003V172Z" fill="#BBC8CC"/>
<path d="M1003 175H1006V172H1003V175Z" fill="#BBC8CC"/>
<path d="M1012 166H1015V163H1012V166Z" fill="#BBC8CC"/>
<path d="M1009 166H1012V163H1009V166Z" fill="#BBC8CC"/>
<path d="M1006 169H1009V166H1006V169Z" fill="#BBC8CC"/>
<path d="M1009 163H1012V160H1009V163Z" fill="#516066"/>
<path d="M965 184H962V202H965V184Z" fill="#516066"/>
<path d="M965 202H962V220H965V202Z" fill="#516066"/>
<path d="M968 184H965V202H968V184Z" fill="#BBC8CC"/>
<path d="M968 202H965V220H968V202Z" fill="#BBC8CC"/>
<path d="M971 184H968V202H971V184Z" fill="#BBC8CC"/>
<path d="M971 202H968V220H971V202Z" fill="#BBC8CC"/>
<path d="M974 184H971V202H974V184Z" fill="#516066"/>
<path d="M974 202H971V220H974V202Z" fill="#516066"/>
<path d="M961 187H958V190H961V187Z" fill="#516066"/>
<path d="M961 184H958V187H961V184Z" fill="#516066"/>
<path d="M972 184H961V187H972V184Z" fill="#516066"/>
<path d="M972 190H961V193H972V190Z" fill="#516066"/>
<path d="M975 184H964V187H975V184Z" fill="#516066"/>
<path d="M975 190H964V193H975V190Z" fill="#516066"/>
<path d="M978 184H975V187H978V184Z" fill="#516066"/>
<path d="M961 190H958V193H961V190Z" fill="#516066"/>
<path d="M972 187H961V190H972V187Z" fill="#BBC8CC"/>
<path d="M975 187H964V190H975V187Z" fill="#BBC8CC"/>
<path d="M978 187H975V190H978V187Z" fill="#516066"/>
<path d="M978 190H975V193H978V190Z" fill="#516066"/>
<path d="M1013 13H1011V86.5H1013V13Z" fill="#516066"/>
<path d="M1013 86.5H1011V160H1013V86.5Z" fill="#516066"/>
<path d="M1015 13H1013V86.5H1015V13Z" fill="#BBC8CC"/>
<path d="M1015 86.5H1013V160H1015V86.5Z" fill="#BBC8CC"/>
<path d="M1017 13H1015V86.5H1017V13Z" fill="#BBC8CC"/>
<path d="M1017 86.5H1015V160H1017V86.5Z" fill="#BBC8CC"/>
<path d="M1019 13H1017V86.5H1019V13Z" fill="#516066"/>
<path d="M1019 86.5H1017V160H1019V86.5Z" fill="#516066"/>
<path d="M1012 156H1010V158H1012V156Z" fill="#516066"/>
<path d="M1012 154H1010V156H1012V154Z" fill="#516066"/>
<path d="M1014 154H1012V156H1014V154Z" fill="#516066"/>
<path d="M1014 158H1012V160H1014V158Z" fill="#516066"/>
<path d="M1016 154H1014V156H1016V154Z" fill="#516066"/>
<path d="M1018 154H1016V156H1018V154Z" fill="#516066"/>
<path d="M1016 158H1014V160H1016V158Z" fill="#516066"/>
<path d="M1018 158H1016V160H1018V158Z" fill="#516066"/>
<path d="M1020 154H1018V156H1020V154Z" fill="#516066"/>
<path d="M1012 158H1010V160H1012V158Z" fill="#516066"/>
<path d="M1014 156H1012V158H1014V156Z" fill="#BBC8CC"/>
<path d="M1016 156H1014V158H1016V156Z" fill="#BBC8CC"/>
<path d="M1018 156H1016V158H1018V156Z" fill="#BBC8CC"/>
<path d="M1020 156H1018V158H1020V156Z" fill="#516066"/>
<path d="M1020 158H1018V160H1020V158Z" fill="#516066"/>
<path d="M1004 169L1004 166L991.5 166L991.5 169L1004 169Z" fill="#516066"/>
<path d="M991.5 169L991.5 166L979 166L979 169L991.5 169Z" fill="#516066"/>
<path d="M1004 172L1004 169L991.5 169L991.5 172L1004 172Z" fill="#BBC8CC"/>
<path d="M991.5 172L991.5 169L979 169L979 172L991.5 172Z" fill="#BBC8CC"/>
<path d="M1004 175L1004 172L991.5 172L991.5 175L1004 175Z" fill="#BBC8CC"/>
<path d="M991.5 175L991.5 172L979 172L979 175L991.5 175Z" fill="#BBC8CC"/>
<path d="M1004 178L1004 175L991.5 175L991.5 178L1004 178Z" fill="#516066"/>
<path d="M991.5 178L991.5 175L979 175L979 178L991.5 178Z" fill="#516066"/>
<path d="M958 7V9L982.5 9V7L958 7Z" fill="#516066"/>
<path d="M982.5 7V9L1007 9V7L982.5 7Z" fill="#516066"/>
<path d="M958 5V7L982.5 7V5L958 5Z" fill="#BBC8CC"/>
<path d="M982.5 5V7L1007 7V5L982.5 5Z" fill="#BBC8CC"/>
<path d="M958 3V5L982.5 5V3L958 3Z" fill="#BBC8CC"/>
<path d="M982.5 3V5L1007 5V3L982.5 3Z" fill="#BBC8CC"/>
<path d="M958 1V3L982.5 3V1L958 1Z" fill="#516066"/>
<path d="M982.5 1V3L1007 3V1L982.5 1Z" fill="#516066"/>
<path d="M956 8V10H958V8H956Z" fill="#516066"/>
<path d="M954 8V10H956V8H954Z" fill="#516066"/>
<path d="M954 6V8H956V6H954Z" fill="#516066"/>
<path d="M958 6V8H960V6H958Z" fill="#516066"/>
<path d="M954 4V6H956V4H954Z" fill="#516066"/>
<path d="M954 2V4H956V2H954Z" fill="#516066"/>
<path d="M958 4V6H960V4H958Z" fill="#516066"/>
<path d="M958 2V4H960V2H958Z" fill="#516066"/>
<path d="M954 1.19209e-07V2H956V1.19209e-07L954 1.19209e-07Z" fill="#516066"/>
<path d="M958 8V10H960V8H958Z" fill="#516066"/>
<path d="M956 6V8H958V6H956Z" fill="#BBC8CC"/>
<path d="M956 4V6H958V4H956Z" fill="#BBC8CC"/>
<path d="M956 2V4H958V2H956Z" fill="#BBC8CC"/>
<path d="M956 1.19209e-07V2H958V1.19209e-07L956 1.19209e-07Z" fill="#516066"/>
<path d="M958 1.19209e-07V2H960V1.19209e-07L958 1.19209e-07Z" fill="#516066"/>
</svg>
