<svg width="402" height="195" viewBox="0 0 402 195" fill="none" xmlns="http://www.w3.org/2000/svg">
<g clip-path="url(#clip0_2087_71404)">
<rect width="1" height="195" fill="#DFDFDF"/>
<rect width="400" height="195" transform="translate(1)" fill="#BDBDBD"/>
<rect x="1" width="400" height="1" fill="#DFDFDF"/>
<rect width="400" height="22" transform="translate(1 1)" fill="#0F2058"/>
<path d="M10.08 16V7.624H15.24V8.5H11.088V11.32H15.096V12.196H11.088V15.124H15.24V16H10.08ZM17.1193 15.184H18.9313V10.624H17.1193V9.808H19.8913V11.368H19.9513C20.0793 10.88 20.3193 10.5 20.6713 10.228C21.0313 9.948 21.4873 9.808 22.0393 9.808H22.9033V10.768H21.7393C21.1873 10.768 20.7393 10.928 20.3953 11.248C20.0593 11.568 19.8913 11.988 19.8913 12.508V15.184H22.2913V16H17.1193V15.184ZM24.3146 15.184H26.1266V10.624H24.3146V9.808H27.0866V11.368H27.1466C27.2746 10.88 27.5146 10.5 27.8666 10.228C28.2266 9.948 28.6826 9.808 29.2346 9.808H30.0986V10.768H28.9346C28.3826 10.768 27.9346 10.928 27.5906 11.248C27.2546 11.568 27.0866 11.988 27.0866 12.508V15.184H29.4866V16H24.3146V15.184ZM34.1859 16.144C33.7539 16.144 33.3619 16.068 33.0099 15.916C32.6659 15.764 32.3699 15.548 32.1219 15.268C31.8819 14.98 31.6979 14.64 31.5699 14.248C31.4419 13.848 31.3779 13.4 31.3779 12.904C31.3779 12.416 31.4419 11.972 31.5699 11.572C31.6979 11.172 31.8819 10.832 32.1219 10.552C32.3699 10.264 32.6659 10.044 33.0099 9.892C33.3619 9.74 33.7539 9.664 34.1859 9.664C34.6179 9.664 35.0059 9.74 35.3499 9.892C35.7019 10.044 35.9979 10.264 36.2379 10.552C36.4859 10.832 36.6739 11.172 36.8019 11.572C36.9299 11.972 36.9939 12.416 36.9939 12.904C36.9939 13.4 36.9299 13.848 36.8019 14.248C36.6739 14.64 36.4859 14.98 36.2379 15.268C35.9979 15.548 35.7019 15.764 35.3499 15.916C35.0059 16.068 34.6179 16.144 34.1859 16.144ZM34.1859 15.316C34.7219 15.316 35.1539 15.156 35.4819 14.836C35.8099 14.516 35.9739 14.02 35.9739 13.348V12.46C35.9739 11.788 35.8099 11.292 35.4819 10.972C35.1539 10.652 34.7219 10.492 34.1859 10.492C33.6499 10.492 33.2179 10.652 32.8899 10.972C32.5619 11.292 32.3979 11.788 32.3979 12.46V13.348C32.3979 14.02 32.5619 14.516 32.8899 14.836C33.2179 15.156 33.6499 15.316 34.1859 15.316ZM38.7053 15.184H40.5173V10.624H38.7053V9.808H41.4773V11.368H41.5373C41.6653 10.88 41.9053 10.5 42.2573 10.228C42.6173 9.948 43.0733 9.808 43.6253 9.808H44.4893V10.768H43.3253C42.7733 10.768 42.3253 10.928 41.9813 11.248C41.6453 11.568 41.4773 11.988 41.4773 12.508V15.184H43.8773V16H38.7053V15.184Z" fill="white"/>
<rect width="382" height="33" transform="translate(9 39)" fill="#F2F2F2"/>
<rect x="9" y="39" width="382" height="1" fill="#5F5F5F"/>
<rect x="9" y="40" width="1" height="31" fill="#5F5F5F"/>
<rect x="18" y="43.5" width="12" height="24" fill="#BC2828"/>
<rect x="34" y="43.5" width="12" height="24" fill="#BC2828"/>
<rect x="50" y="43.5" width="12" height="24" fill="#BC2828"/>
<rect x="66" y="43.5" width="12" height="24" fill="#BC2828"/>
<rect x="82" y="43.5" width="12" height="24" fill="#BC2828"/>
<rect x="98" y="43.5" width="12" height="24" fill="#BC2828"/>
<rect x="114" y="43.5" width="12" height="24" fill="#BC2828"/>
<rect x="130" y="43.5" width="12" height="24" fill="#BC2828"/>
<rect x="146" y="43.5" width="12" height="24" fill="#BC2828"/>
<rect x="162" y="43.5" width="12" height="24" fill="#BC2828"/>
<rect x="178" y="43.5" width="12" height="24" fill="#BC2828"/>
<rect x="194" y="43.5" width="12" height="24" fill="#BC2828"/>
<rect x="210" y="43.5" width="12" height="24" fill="#BC2828"/>
<rect x="226" y="43.5" width="12" height="24" fill="#BC2828"/>
<rect x="242" y="43.5" width="12" height="24" fill="#BC2828"/>
<rect x="258" y="43.5" width="12" height="24" fill="#BC2828"/>
<rect x="274" y="43.5" width="12" height="24" fill="#BC2828"/>
<rect x="290" y="43.5" width="12" height="24" fill="#BC2828"/>
<rect x="306" y="43.5" width="12" height="24" fill="#BC2828"/>
<rect x="322" y="43.5" width="12" height="24" fill="#A5A5A5"/>
<rect x="338" y="43.5" width="12" height="24" fill="#A5A5A5"/>
<rect x="354" y="43.5" width="12" height="24" fill="#A5A5A5"/>
<rect x="370" y="43.5" width="12" height="24" fill="#A5A5A5"/>
<rect x="390" y="40" width="1" height="31" fill="#DFDFDF"/>
<rect x="9" y="71" width="382" height="1" fill="#DFDFDF"/>
<path d="M10.26 102V92.228H16.42V93.25H11.436V96.54H16V97.562H11.436V102H10.26ZM24.0445 102C23.6059 102 23.2932 101.888 23.1065 101.664C22.9199 101.44 22.8032 101.16 22.7565 100.824H22.6865C22.5279 101.244 22.2712 101.575 21.9165 101.818C21.5712 102.051 21.1045 102.168 20.5165 102.168C19.7605 102.168 19.1585 101.972 18.7105 101.58C18.2625 101.188 18.0385 100.651 18.0385 99.97C18.0385 99.298 18.2812 98.78 18.7665 98.416C19.2612 98.052 20.0545 97.87 21.1465 97.87H22.6865V97.156C22.6865 96.624 22.5372 96.2273 22.2385 95.966C21.9399 95.6953 21.5152 95.56 20.9645 95.56C20.4792 95.56 20.0825 95.658 19.7745 95.854C19.4665 96.0407 19.2192 96.2973 19.0325 96.624L18.2765 96.064C18.3699 95.8773 18.4959 95.6953 18.6545 95.518C18.8132 95.3407 19.0092 95.1867 19.2425 95.056C19.4759 94.916 19.7419 94.8087 20.0405 94.734C20.3392 94.65 20.6705 94.608 21.0345 94.608C21.8839 94.608 22.5559 94.8227 23.0505 95.252C23.5545 95.6813 23.8065 96.2787 23.8065 97.044V101.02H24.8145V102H24.0445ZM20.7125 101.23C21.0019 101.23 21.2632 101.197 21.4965 101.132C21.7392 101.057 21.9492 100.964 22.1265 100.852C22.3039 100.731 22.4392 100.591 22.5325 100.432C22.6352 100.264 22.6865 100.087 22.6865 99.9V98.71H21.1465C20.4745 98.71 19.9845 98.8033 19.6765 98.99C19.3685 99.1767 19.2145 99.4473 19.2145 99.802V100.096C19.2145 100.469 19.3452 100.754 19.6065 100.95C19.8772 101.137 20.2459 101.23 20.7125 101.23ZM29.8771 93.18C29.5504 93.18 29.3217 93.1147 29.1911 92.984C29.0604 92.844 28.9951 92.6713 28.9951 92.466V92.242C28.9951 92.0367 29.0604 91.8687 29.1911 91.738C29.3217 91.598 29.5504 91.528 29.8771 91.528C30.2037 91.528 30.4324 91.598 30.5631 91.738C30.6937 91.8687 30.7591 92.0367 30.7591 92.242V92.466C30.7591 92.6713 30.6937 92.844 30.5631 92.984C30.4324 93.1147 30.2037 93.18 29.8771 93.18ZM26.7131 101.048H29.3171V95.728H26.7131V94.776H30.4371V101.048H32.8731V102H26.7131V101.048ZM34.4636 101.048H36.9836V92.592H34.4636V91.64H38.1036V101.048H40.6236V102H34.4636V101.048ZM45.7841 102.168C45.2615 102.168 44.7901 102.079 44.3701 101.902C43.9595 101.725 43.6048 101.473 43.3061 101.146C43.0168 100.81 42.7928 100.413 42.6341 99.956C42.4755 99.4893 42.3961 98.9713 42.3961 98.402C42.3961 97.8233 42.4755 97.3007 42.6341 96.834C42.8021 96.3673 43.0308 95.9707 43.3201 95.644C43.6095 95.308 43.9548 95.0513 44.3561 94.874C44.7668 94.6967 45.2195 94.608 45.7141 94.608C46.1995 94.608 46.6381 94.6967 47.0301 94.874C47.4315 95.0513 47.7721 95.2987 48.0521 95.616C48.3321 95.924 48.5468 96.2927 48.6961 96.722C48.8455 97.1513 48.9201 97.6227 48.9201 98.136V98.668H43.5721V99.004C43.5721 99.3213 43.6235 99.6153 43.7261 99.886C43.8288 100.157 43.9735 100.39 44.1601 100.586C44.3561 100.782 44.5895 100.936 44.8601 101.048C45.1401 101.151 45.4481 101.202 45.7841 101.202C46.2695 101.202 46.6895 101.09 47.0441 100.866C47.3988 100.642 47.6695 100.334 47.8561 99.942L48.6821 100.502C48.4675 100.987 48.1081 101.389 47.6041 101.706C47.1095 102.014 46.5028 102.168 45.7841 102.168ZM45.7141 95.532C45.4061 95.532 45.1215 95.588 44.8601 95.7C44.5988 95.812 44.3701 95.966 44.1741 96.162C43.9875 96.358 43.8381 96.5913 43.7261 96.862C43.6235 97.1233 43.5721 97.4127 43.5721 97.73V97.828H47.7161V97.674C47.7161 97.3567 47.6648 97.0673 47.5621 96.806C47.4688 96.5447 47.3335 96.3207 47.1561 96.134C46.9881 95.938 46.7781 95.7887 46.5261 95.686C46.2835 95.5833 46.0128 95.532 45.7141 95.532ZM55.5227 100.824H55.4667C55 101.72 54.258 102.168 53.2407 102.168C52.354 102.168 51.6587 101.837 51.1547 101.174C50.66 100.511 50.4127 99.5827 50.4127 98.388C50.4127 97.1933 50.66 96.2647 51.1547 95.602C51.6587 94.9393 52.354 94.608 53.2407 94.608C54.258 94.608 55 95.056 55.4667 95.952H55.5227V91.64H56.6427V102H55.5227V100.824ZM53.6747 101.174C53.9267 101.174 54.1647 101.141 54.3887 101.076C54.6127 101.011 54.8087 100.917 54.9767 100.796C55.1447 100.665 55.2753 100.511 55.3687 100.334C55.4713 100.147 55.5227 99.9327 55.5227 99.69V97.086C55.5227 96.8433 55.4713 96.6333 55.3687 96.456C55.2753 96.2693 55.1447 96.1153 54.9767 95.994C54.8087 95.8633 54.6127 95.7653 54.3887 95.7C54.1647 95.6347 53.9267 95.602 53.6747 95.602C53.0213 95.602 52.5127 95.8027 52.1487 96.204C51.794 96.596 51.6167 97.1187 51.6167 97.772V99.004C51.6167 99.6573 51.794 100.185 52.1487 100.586C52.5127 100.978 53.0213 101.174 53.6747 101.174ZM70.3517 102C69.8011 102 69.3951 101.846 69.1337 101.538C68.8817 101.23 68.7557 100.833 68.7557 100.348V95.728H66.3477V94.776H68.1397C68.3824 94.776 68.5504 94.7293 68.6437 94.636C68.7464 94.5333 68.7977 94.3607 68.7977 94.118V92.228H69.8757V94.776H73.1657V95.728H69.8757V101.048H73.1657V102H70.3517ZM78.1163 102.168C77.6123 102.168 77.1549 102.079 76.7443 101.902C76.3429 101.725 75.9976 101.473 75.7083 101.146C75.4283 100.81 75.2136 100.413 75.0643 99.956C74.9149 99.4893 74.8403 98.9667 74.8403 98.388C74.8403 97.8187 74.9149 97.3007 75.0643 96.834C75.2136 96.3673 75.4283 95.9707 75.7083 95.644C75.9976 95.308 76.3429 95.0513 76.7443 94.874C77.1549 94.6967 77.6123 94.608 78.1163 94.608C78.6203 94.608 79.0729 94.6967 79.4743 94.874C79.8849 95.0513 80.2303 95.308 80.5103 95.644C80.7996 95.9707 81.0189 96.3673 81.1683 96.834C81.3176 97.3007 81.3923 97.8187 81.3923 98.388C81.3923 98.9667 81.3176 99.4893 81.1683 99.956C81.0189 100.413 80.7996 100.81 80.5103 101.146C80.2303 101.473 79.8849 101.725 79.4743 101.902C79.0729 102.079 78.6203 102.168 78.1163 102.168ZM78.1163 101.202C78.7416 101.202 79.2456 101.015 79.6283 100.642C80.0109 100.269 80.2023 99.69 80.2023 98.906V97.87C80.2023 97.086 80.0109 96.5073 79.6283 96.134C79.2456 95.7607 78.7416 95.574 78.1163 95.574C77.4909 95.574 76.9869 95.7607 76.6043 96.134C76.2216 96.5073 76.0303 97.086 76.0303 97.87V98.906C76.0303 99.69 76.2216 100.269 76.6043 100.642C76.9869 101.015 77.4909 101.202 78.1163 101.202ZM91.3073 101.048H93.7433V95.728H91.1673V94.776H93.7433V93.292C93.7433 92.8067 93.8693 92.41 94.1213 92.102C94.3826 91.794 94.7886 91.64 95.3393 91.64H97.7613V92.592H94.8633V94.776H97.7613V95.728H94.8633V101.048H97.4393V102H91.3073V101.048ZM102.586 102.168C102.063 102.168 101.592 102.079 101.172 101.902C100.761 101.725 100.407 101.473 100.108 101.146C99.8185 100.81 99.5945 100.413 99.4358 99.956C99.2772 99.4893 99.1978 98.9713 99.1978 98.402C99.1978 97.8233 99.2772 97.3007 99.4358 96.834C99.6038 96.3673 99.8325 95.9707 100.122 95.644C100.411 95.308 100.757 95.0513 101.158 94.874C101.569 94.6967 102.021 94.608 102.516 94.608C103.001 94.608 103.44 94.6967 103.832 94.874C104.233 95.0513 104.574 95.2987 104.854 95.616C105.134 95.924 105.349 96.2927 105.498 96.722C105.647 97.1513 105.722 97.6227 105.722 98.136V98.668H100.374V99.004C100.374 99.3213 100.425 99.6153 100.528 99.886C100.631 100.157 100.775 100.39 100.962 100.586C101.158 100.782 101.391 100.936 101.662 101.048C101.942 101.151 102.25 101.202 102.586 101.202C103.071 101.202 103.491 101.09 103.846 100.866C104.201 100.642 104.471 100.334 104.658 99.942L105.484 100.502C105.269 100.987 104.91 101.389 104.406 101.706C103.911 102.014 103.305 102.168 102.586 102.168ZM102.516 95.532C102.208 95.532 101.923 95.588 101.662 95.7C101.401 95.812 101.172 95.966 100.976 96.162C100.789 96.358 100.64 96.5913 100.528 96.862C100.425 97.1233 100.374 97.4127 100.374 97.73V97.828H104.518V97.674C104.518 97.3567 104.467 97.0673 104.364 96.806C104.271 96.5447 104.135 96.3207 103.958 96.134C103.79 95.938 103.58 95.7887 103.328 95.686C103.085 95.5833 102.815 95.532 102.516 95.532ZM110.924 102C110.374 102 109.968 101.846 109.706 101.538C109.454 101.23 109.328 100.833 109.328 100.348V95.728H106.92V94.776H108.712C108.955 94.776 109.123 94.7293 109.216 94.636C109.319 94.5333 109.37 94.3607 109.37 94.118V92.228H110.448V94.776H113.738V95.728H110.448V101.048H113.738V102H110.924ZM118.941 102.168C118.418 102.168 117.952 102.079 117.541 101.902C117.14 101.715 116.799 101.459 116.519 101.132C116.239 100.805 116.024 100.409 115.875 99.942C115.735 99.4753 115.665 98.9573 115.665 98.388C115.665 97.8187 115.74 97.3007 115.889 96.834C116.038 96.3673 116.253 95.9707 116.533 95.644C116.813 95.308 117.154 95.0513 117.555 94.874C117.956 94.6967 118.414 94.608 118.927 94.608C119.627 94.608 120.196 94.762 120.635 95.07C121.074 95.378 121.396 95.7793 121.601 96.274L120.705 96.75C120.574 96.3767 120.355 96.0873 120.047 95.882C119.748 95.6767 119.375 95.574 118.927 95.574C118.6 95.574 118.306 95.63 118.045 95.742C117.793 95.8447 117.578 95.994 117.401 96.19C117.224 96.386 117.088 96.6193 116.995 96.89C116.911 97.1607 116.869 97.4547 116.869 97.772V99.004C116.869 99.3213 116.911 99.6153 116.995 99.886C117.088 100.157 117.224 100.39 117.401 100.586C117.578 100.782 117.798 100.936 118.059 101.048C118.32 101.151 118.619 101.202 118.955 101.202C119.44 101.202 119.842 101.09 120.159 100.866C120.476 100.642 120.728 100.334 120.915 99.942L121.713 100.488C121.498 100.973 121.162 101.375 120.705 101.692C120.257 102.009 119.669 102.168 118.941 102.168ZM123.975 91.64H125.095V95.952H125.151C125.226 95.7747 125.319 95.6067 125.431 95.448C125.543 95.28 125.679 95.1353 125.837 95.014C126.005 94.8927 126.201 94.7947 126.425 94.72C126.649 94.6453 126.911 94.608 127.209 94.608C127.965 94.608 128.572 94.8507 129.029 95.336C129.487 95.812 129.715 96.4887 129.715 97.366V102H128.595V97.562C128.595 96.8993 128.451 96.4093 128.161 96.092C127.872 95.7653 127.447 95.602 126.887 95.602C126.663 95.602 126.444 95.63 126.229 95.686C126.015 95.742 125.823 95.826 125.655 95.938C125.487 96.05 125.352 96.1947 125.249 96.372C125.147 96.5493 125.095 96.7547 125.095 96.988V102H123.975V91.64ZM143.383 102C142.832 102 142.426 101.846 142.165 101.538C141.913 101.23 141.787 100.833 141.787 100.348V95.728H139.379V94.776H141.171C141.413 94.776 141.581 94.7293 141.675 94.636C141.777 94.5333 141.829 94.3607 141.829 94.118V92.228H142.907V94.776H146.197V95.728H142.907V101.048H146.197V102H143.383ZM148.025 101.048H150.139V95.728H148.025V94.776H151.259V96.596H151.329C151.478 96.0267 151.758 95.5833 152.169 95.266C152.589 94.9393 153.121 94.776 153.765 94.776H154.773V95.896H153.415C152.771 95.896 152.248 96.0827 151.847 96.456C151.455 96.8293 151.259 97.3193 151.259 97.926V101.048H154.059V102H148.025V101.048ZM161.992 102C161.553 102 161.24 101.888 161.054 101.664C160.867 101.44 160.75 101.16 160.704 100.824H160.634C160.475 101.244 160.218 101.575 159.864 101.818C159.518 102.051 159.052 102.168 158.464 102.168C157.708 102.168 157.106 101.972 156.658 101.58C156.21 101.188 155.986 100.651 155.986 99.97C155.986 99.298 156.228 98.78 156.714 98.416C157.208 98.052 158.002 97.87 159.094 97.87H160.634V97.156C160.634 96.624 160.484 96.2273 160.186 95.966C159.887 95.6953 159.462 95.56 158.912 95.56C158.426 95.56 158.03 95.658 157.722 95.854C157.414 96.0407 157.166 96.2973 156.98 96.624L156.224 96.064C156.317 95.8773 156.443 95.6953 156.602 95.518C156.76 95.3407 156.956 95.1867 157.19 95.056C157.423 94.916 157.689 94.8087 157.988 94.734C158.286 94.65 158.618 94.608 158.982 94.608C159.831 94.608 160.503 94.8227 160.998 95.252C161.502 95.6813 161.754 96.2787 161.754 97.044V101.02H162.762V102H161.992ZM158.66 101.23C158.949 101.23 159.21 101.197 159.444 101.132C159.686 101.057 159.896 100.964 160.074 100.852C160.251 100.731 160.386 100.591 160.48 100.432C160.582 100.264 160.634 100.087 160.634 99.9V98.71H159.094C158.422 98.71 157.932 98.8033 157.624 98.99C157.316 99.1767 157.162 99.4473 157.162 99.802V100.096C157.162 100.469 157.292 100.754 157.554 100.95C157.824 101.137 158.193 101.23 158.66 101.23ZM164.548 102V94.776H165.668V95.952H165.724C165.799 95.7747 165.892 95.6067 166.004 95.448C166.116 95.28 166.251 95.1353 166.41 95.014C166.578 94.8927 166.774 94.7947 166.998 94.72C167.222 94.6453 167.483 94.608 167.782 94.608C168.538 94.608 169.145 94.8507 169.602 95.336C170.059 95.812 170.288 96.4887 170.288 97.366V102H169.168V97.562C169.168 96.8993 169.023 96.4093 168.734 96.092C168.445 95.7653 168.02 95.602 167.46 95.602C167.236 95.602 167.017 95.63 166.802 95.686C166.587 95.742 166.396 95.826 166.228 95.938C166.06 96.05 165.925 96.1947 165.822 96.372C165.719 96.5493 165.668 96.7547 165.668 96.988V102H164.548ZM175.575 102.168C174.819 102.168 174.165 102.042 173.615 101.79C173.073 101.529 172.611 101.183 172.229 100.754L172.985 100.096C173.33 100.46 173.708 100.74 174.119 100.936C174.529 101.132 175.024 101.23 175.603 101.23C176.163 101.23 176.62 101.132 176.975 100.936C177.339 100.731 177.521 100.413 177.521 99.984C177.521 99.7973 177.483 99.6433 177.409 99.522C177.343 99.3913 177.25 99.2887 177.129 99.214C177.007 99.1393 176.872 99.0833 176.723 99.046C176.573 98.9993 176.415 98.962 176.247 98.934L175.113 98.766C174.861 98.7287 174.585 98.6773 174.287 98.612C173.997 98.5467 173.731 98.444 173.489 98.304C173.246 98.1547 173.041 97.9587 172.873 97.716C172.714 97.4733 172.635 97.156 172.635 96.764C172.635 96.4 172.705 96.0873 172.845 95.826C172.994 95.5553 173.199 95.3313 173.461 95.154C173.722 94.9673 174.03 94.832 174.385 94.748C174.739 94.6547 175.127 94.608 175.547 94.608C176.2 94.608 176.765 94.7107 177.241 94.916C177.726 95.1213 178.141 95.406 178.487 95.77L177.759 96.456C177.675 96.3533 177.567 96.2507 177.437 96.148C177.315 96.036 177.161 95.938 176.975 95.854C176.797 95.7607 176.587 95.686 176.345 95.63C176.102 95.574 175.822 95.546 175.505 95.546C174.935 95.546 174.497 95.644 174.189 95.84C173.89 96.036 173.741 96.3207 173.741 96.694C173.741 96.8807 173.773 97.0393 173.839 97.17C173.913 97.2913 174.011 97.3893 174.133 97.464C174.254 97.5387 174.389 97.5993 174.539 97.646C174.697 97.6833 174.856 97.716 175.015 97.744L176.149 97.912C176.41 97.9493 176.685 98.0007 176.975 98.066C177.264 98.1313 177.53 98.2387 177.773 98.388C178.015 98.528 178.216 98.7193 178.375 98.962C178.543 99.2047 178.627 99.522 178.627 99.914C178.627 100.633 178.347 101.188 177.787 101.58C177.236 101.972 176.499 102.168 175.575 102.168ZM186.335 102C185.896 102 185.584 101.888 185.397 101.664C185.21 101.44 185.094 101.16 185.047 100.824H184.977C184.818 101.244 184.562 101.575 184.207 101.818C183.862 102.051 183.395 102.168 182.807 102.168C182.051 102.168 181.449 101.972 181.001 101.58C180.553 101.188 180.329 100.651 180.329 99.97C180.329 99.298 180.572 98.78 181.057 98.416C181.552 98.052 182.345 97.87 183.437 97.87H184.977V97.156C184.977 96.624 184.828 96.2273 184.529 95.966C184.23 95.6953 183.806 95.56 183.255 95.56C182.77 95.56 182.373 95.658 182.065 95.854C181.757 96.0407 181.51 96.2973 181.323 96.624L180.567 96.064C180.66 95.8773 180.786 95.6953 180.945 95.518C181.104 95.3407 181.3 95.1867 181.533 95.056C181.766 94.916 182.032 94.8087 182.331 94.734C182.63 94.65 182.961 94.608 183.325 94.608C184.174 94.608 184.846 94.8227 185.341 95.252C185.845 95.6813 186.097 96.2787 186.097 97.044V101.02H187.105V102H186.335ZM183.003 101.23C183.292 101.23 183.554 101.197 183.787 101.132C184.03 101.057 184.24 100.964 184.417 100.852C184.594 100.731 184.73 100.591 184.823 100.432C184.926 100.264 184.977 100.087 184.977 99.9V98.71H183.437C182.765 98.71 182.275 98.8033 181.967 98.99C181.659 99.1767 181.505 99.4473 181.505 99.802V100.096C181.505 100.469 181.636 100.754 181.897 100.95C182.168 101.137 182.536 101.23 183.003 101.23ZM191.972 102.168C191.449 102.168 190.982 102.079 190.572 101.902C190.17 101.715 189.83 101.459 189.55 101.132C189.27 100.805 189.055 100.409 188.906 99.942C188.766 99.4753 188.696 98.9573 188.696 98.388C188.696 97.8187 188.77 97.3007 188.92 96.834C189.069 96.3673 189.284 95.9707 189.564 95.644C189.844 95.308 190.184 95.0513 190.586 94.874C190.987 94.6967 191.444 94.608 191.958 94.608C192.658 94.608 193.227 94.762 193.666 95.07C194.104 95.378 194.426 95.7793 194.632 96.274L193.736 96.75C193.605 96.3767 193.386 96.0873 193.078 95.882C192.779 95.6767 192.406 95.574 191.958 95.574C191.631 95.574 191.337 95.63 191.076 95.742C190.824 95.8447 190.609 95.994 190.432 96.19C190.254 96.386 190.119 96.6193 190.026 96.89C189.942 97.1607 189.9 97.4547 189.9 97.772V99.004C189.9 99.3213 189.942 99.6153 190.026 99.886C190.119 100.157 190.254 100.39 190.432 100.586C190.609 100.782 190.828 100.936 191.09 101.048C191.351 101.151 191.65 101.202 191.986 101.202C192.471 101.202 192.872 101.09 193.19 100.866C193.507 100.642 193.759 100.334 193.946 99.942L194.744 100.488C194.529 100.973 194.193 101.375 193.736 101.692C193.288 102.009 192.7 102.168 191.972 102.168ZM200.184 102C199.634 102 199.228 101.846 198.966 101.538C198.714 101.23 198.588 100.833 198.588 100.348V95.728H196.18V94.776H197.972C198.215 94.776 198.383 94.7293 198.476 94.636C198.579 94.5333 198.63 94.3607 198.63 94.118V92.228H199.708V94.776H202.998V95.728H199.708V101.048H202.998V102H200.184ZM208.397 93.18C208.07 93.18 207.841 93.1147 207.711 92.984C207.58 92.844 207.515 92.6713 207.515 92.466V92.242C207.515 92.0367 207.58 91.8687 207.711 91.738C207.841 91.598 208.07 91.528 208.397 91.528C208.723 91.528 208.952 91.598 209.083 91.738C209.213 91.8687 209.279 92.0367 209.279 92.242V92.466C209.279 92.6713 209.213 92.844 209.083 92.984C208.952 93.1147 208.723 93.18 208.397 93.18ZM205.233 101.048H207.837V95.728H205.233V94.776H208.957V101.048H211.393V102H205.233V101.048ZM216.063 102.168C215.559 102.168 215.102 102.079 214.691 101.902C214.29 101.725 213.945 101.473 213.655 101.146C213.375 100.81 213.161 100.413 213.011 99.956C212.862 99.4893 212.787 98.9667 212.787 98.388C212.787 97.8187 212.862 97.3007 213.011 96.834C213.161 96.3673 213.375 95.9707 213.655 95.644C213.945 95.308 214.29 95.0513 214.691 94.874C215.102 94.6967 215.559 94.608 216.063 94.608C216.567 94.608 217.02 94.6967 217.421 94.874C217.832 95.0513 218.177 95.308 218.457 95.644C218.747 95.9707 218.966 96.3673 219.115 96.834C219.265 97.3007 219.339 97.8187 219.339 98.388C219.339 98.9667 219.265 99.4893 219.115 99.956C218.966 100.413 218.747 100.81 218.457 101.146C218.177 101.473 217.832 101.725 217.421 101.902C217.02 102.079 216.567 102.168 216.063 102.168ZM216.063 101.202C216.689 101.202 217.193 101.015 217.575 100.642C217.958 100.269 218.149 99.69 218.149 98.906V97.87C218.149 97.086 217.958 96.5073 217.575 96.134C217.193 95.7607 216.689 95.574 216.063 95.574C215.438 95.574 214.934 95.7607 214.551 96.134C214.169 96.5073 213.977 97.086 213.977 97.87V98.906C213.977 99.69 214.169 100.269 214.551 100.642C214.934 101.015 215.438 101.202 216.063 101.202ZM221.35 102V94.776H222.47V95.952H222.526C222.6 95.7747 222.694 95.6067 222.806 95.448C222.918 95.28 223.053 95.1353 223.212 95.014C223.38 94.8927 223.576 94.7947 223.8 94.72C224.024 94.6453 224.285 94.608 224.584 94.608C225.34 94.608 225.946 94.8507 226.404 95.336C226.861 95.812 227.09 96.4887 227.09 97.366V102H225.97V97.562C225.97 96.8993 225.825 96.4093 225.536 96.092C225.246 95.7653 224.822 95.602 224.262 95.602C224.038 95.602 223.818 95.63 223.604 95.686C223.389 95.742 223.198 95.826 223.03 95.938C222.862 96.05 222.726 96.1947 222.624 96.372C222.521 96.5493 222.47 96.7547 222.47 96.988V102H221.35ZM237.537 91.64H238.657V95.952H238.713C239.18 95.056 239.922 94.608 240.939 94.608C241.826 94.608 242.516 94.9393 243.011 95.602C243.515 96.2647 243.767 97.1933 243.767 98.388C243.767 99.5827 243.515 100.511 243.011 101.174C242.516 101.837 241.826 102.168 240.939 102.168C239.922 102.168 239.18 101.72 238.713 100.824H238.657V102H237.537V91.64ZM240.505 101.174C241.158 101.174 241.662 100.978 242.017 100.586C242.381 100.185 242.563 99.6573 242.563 99.004V97.772C242.563 97.1187 242.381 96.596 242.017 96.204C241.662 95.8027 241.158 95.602 240.505 95.602C240.253 95.602 240.015 95.6347 239.791 95.7C239.567 95.7653 239.371 95.8633 239.203 95.994C239.035 96.1153 238.9 96.2693 238.797 96.456C238.704 96.6333 238.657 96.8433 238.657 97.086V99.69C238.657 99.9327 238.704 100.147 238.797 100.334C238.9 100.511 239.035 100.665 239.203 100.796C239.371 100.917 239.567 101.011 239.791 101.076C240.015 101.141 240.253 101.174 240.505 101.174ZM250.859 94.776H251.979L248.395 103.582C248.311 103.787 248.218 103.965 248.115 104.114C248.013 104.273 247.891 104.399 247.751 104.492C247.611 104.595 247.443 104.669 247.247 104.716C247.051 104.772 246.818 104.8 246.547 104.8H245.483V103.848H247.163L247.975 101.86L245.063 94.776H246.211L247.429 97.8L248.507 100.544H248.563L249.641 97.8L250.859 94.776ZM256.986 102C256.435 102 256.029 101.846 255.768 101.538C255.516 101.23 255.39 100.833 255.39 100.348V95.728H252.982V94.776H254.774C255.017 94.776 255.185 94.7293 255.278 94.636C255.381 94.5333 255.432 94.3607 255.432 94.118V92.228H256.51V94.776H259.8V95.728H256.51V101.048H259.8V102H256.986ZM264.876 102.168C264.354 102.168 263.882 102.079 263.462 101.902C263.052 101.725 262.697 101.473 262.398 101.146C262.109 100.81 261.885 100.413 261.726 99.956C261.568 99.4893 261.488 98.9713 261.488 98.402C261.488 97.8233 261.568 97.3007 261.726 96.834C261.894 96.3673 262.123 95.9707 262.412 95.644C262.702 95.308 263.047 95.0513 263.448 94.874C263.859 94.6967 264.312 94.608 264.806 94.608C265.292 94.608 265.73 94.6967 266.122 94.874C266.524 95.0513 266.864 95.2987 267.144 95.616C267.424 95.924 267.639 96.2927 267.788 96.722C267.938 97.1513 268.012 97.6227 268.012 98.136V98.668H262.664V99.004C262.664 99.3213 262.716 99.6153 262.818 99.886C262.921 100.157 263.066 100.39 263.252 100.586C263.448 100.782 263.682 100.936 263.952 101.048C264.232 101.151 264.54 101.202 264.876 101.202C265.362 101.202 265.782 101.09 266.136 100.866C266.491 100.642 266.762 100.334 266.948 99.942L267.774 100.502C267.56 100.987 267.2 101.389 266.696 101.706C266.202 102.014 265.595 102.168 264.876 102.168ZM264.806 95.532C264.498 95.532 264.214 95.588 263.952 95.7C263.691 95.812 263.462 95.966 263.266 96.162C263.08 96.358 262.93 96.5913 262.818 96.862C262.716 97.1233 262.664 97.4127 262.664 97.73V97.828H266.808V97.674C266.808 97.3567 266.757 97.0673 266.654 96.806C266.561 96.5447 266.426 96.3207 266.248 96.134C266.08 95.938 265.87 95.7887 265.618 95.686C265.376 95.5833 265.105 95.532 264.806 95.532ZM273.117 102.168C272.594 102.168 272.128 102.079 271.717 101.902C271.316 101.715 270.975 101.459 270.695 101.132C270.415 100.805 270.2 100.409 270.051 99.942C269.911 99.4753 269.841 98.9573 269.841 98.388C269.841 97.8187 269.916 97.3007 270.065 96.834C270.214 96.3673 270.429 95.9707 270.709 95.644C270.989 95.308 271.33 95.0513 271.731 94.874C272.132 94.6967 272.59 94.608 273.103 94.608C273.803 94.608 274.372 94.762 274.811 95.07C275.25 95.378 275.572 95.7793 275.777 96.274L274.881 96.75C274.75 96.3767 274.531 96.0873 274.223 95.882C273.924 95.6767 273.551 95.574 273.103 95.574C272.776 95.574 272.482 95.63 272.221 95.742C271.969 95.8447 271.754 95.994 271.577 96.19C271.4 96.386 271.264 96.6193 271.171 96.89C271.087 97.1607 271.045 97.4547 271.045 97.772V99.004C271.045 99.3213 271.087 99.6153 271.171 99.886C271.264 100.157 271.4 100.39 271.577 100.586C271.754 100.782 271.974 100.936 272.235 101.048C272.496 101.151 272.795 101.202 273.131 101.202C273.616 101.202 274.018 101.09 274.335 100.866C274.652 100.642 274.904 100.334 275.091 99.942L275.889 100.488C275.674 100.973 275.338 101.375 274.881 101.692C274.433 102.009 273.845 102.168 273.117 102.168ZM280.98 102.168C280.476 102.168 280.018 102.079 279.608 101.902C279.206 101.725 278.861 101.473 278.572 101.146C278.292 100.81 278.077 100.413 277.928 99.956C277.778 99.4893 277.704 98.9667 277.704 98.388C277.704 97.8187 277.778 97.3007 277.928 96.834C278.077 96.3673 278.292 95.9707 278.572 95.644C278.861 95.308 279.206 95.0513 279.608 94.874C280.018 94.6967 280.476 94.608 280.98 94.608C281.484 94.608 281.936 94.6967 282.338 94.874C282.748 95.0513 283.094 95.308 283.374 95.644C283.663 95.9707 283.882 96.3673 284.032 96.834C284.181 97.3007 284.256 97.8187 284.256 98.388C284.256 98.9667 284.181 99.4893 284.032 99.956C283.882 100.413 283.663 100.81 283.374 101.146C283.094 101.473 282.748 101.725 282.338 101.902C281.936 102.079 281.484 102.168 280.98 102.168ZM280.98 101.202C281.605 101.202 282.109 101.015 282.492 100.642C282.874 100.269 283.066 99.69 283.066 98.906V97.87C283.066 97.086 282.874 96.5073 282.492 96.134C282.109 95.7607 281.605 95.574 280.98 95.574C280.354 95.574 279.85 95.7607 279.468 96.134C279.085 96.5073 278.894 97.086 278.894 97.87V98.906C278.894 99.69 279.085 100.269 279.468 100.642C279.85 101.015 280.354 101.202 280.98 101.202ZM290.844 100.824H290.788C290.321 101.72 289.579 102.168 288.562 102.168C287.675 102.168 286.98 101.837 286.476 101.174C285.981 100.511 285.734 99.5827 285.734 98.388C285.734 97.1933 285.981 96.2647 286.476 95.602C286.98 94.9393 287.675 94.608 288.562 94.608C289.579 94.608 290.321 95.056 290.788 95.952H290.844V91.64H291.964V102H290.844V100.824ZM288.996 101.174C289.248 101.174 289.486 101.141 289.71 101.076C289.934 101.011 290.13 100.917 290.298 100.796C290.466 100.665 290.597 100.511 290.69 100.334C290.793 100.147 290.844 99.9327 290.844 99.69V97.086C290.844 96.8433 290.793 96.6333 290.69 96.456C290.597 96.2693 290.466 96.1153 290.298 95.994C290.13 95.8633 289.934 95.7653 289.71 95.7C289.486 95.6347 289.248 95.602 288.996 95.602C288.343 95.602 287.834 95.8027 287.47 96.204C287.115 96.596 286.938 97.1187 286.938 97.772V99.004C286.938 99.6573 287.115 100.185 287.47 100.586C287.834 100.978 288.343 101.174 288.996 101.174ZM297.335 102.168C296.812 102.168 296.341 102.079 295.921 101.902C295.51 101.725 295.155 101.473 294.857 101.146C294.567 100.81 294.343 100.413 294.185 99.956C294.026 99.4893 293.947 98.9713 293.947 98.402C293.947 97.8233 294.026 97.3007 294.185 96.834C294.353 96.3673 294.581 95.9707 294.871 95.644C295.16 95.308 295.505 95.0513 295.907 94.874C296.317 94.6967 296.77 94.608 297.265 94.608C297.75 94.608 298.189 94.6967 298.581 94.874C298.982 95.0513 299.323 95.2987 299.603 95.616C299.883 95.924 300.097 96.2927 300.247 96.722C300.396 97.1513 300.471 97.6227 300.471 98.136V98.668H295.123V99.004C295.123 99.3213 295.174 99.6153 295.277 99.886C295.379 100.157 295.524 100.39 295.711 100.586C295.907 100.782 296.14 100.936 296.411 101.048C296.691 101.151 296.999 101.202 297.335 101.202C297.82 101.202 298.24 101.09 298.595 100.866C298.949 100.642 299.22 100.334 299.407 99.942L300.233 100.502C300.018 100.987 299.659 101.389 299.155 101.706C298.66 102.014 298.053 102.168 297.335 102.168ZM297.265 95.532C296.957 95.532 296.672 95.588 296.411 95.7C296.149 95.812 295.921 95.966 295.725 96.162C295.538 96.358 295.389 96.5913 295.277 96.862C295.174 97.1233 295.123 97.4127 295.123 97.73V97.828H299.267V97.674C299.267 97.3567 299.215 97.0673 299.113 96.806C299.019 96.5447 298.884 96.3207 298.707 96.134C298.539 95.938 298.329 95.7887 298.077 95.686C297.834 95.5833 297.563 95.532 297.265 95.532ZM305.323 102.126C304.94 102.126 304.67 102.047 304.511 101.888C304.362 101.729 304.287 101.529 304.287 101.286V101.034C304.287 100.791 304.362 100.591 304.511 100.432C304.67 100.273 304.94 100.194 305.323 100.194C305.706 100.194 305.972 100.273 306.121 100.432C306.28 100.591 306.359 100.791 306.359 101.034V101.286C306.359 101.529 306.28 101.729 306.121 101.888C305.972 102.047 305.706 102.126 305.323 102.126ZM10.26 125V115.228H13.816C14.7213 115.228 15.412 115.475 15.888 115.97C16.364 116.465 16.602 117.155 16.602 118.042C16.602 118.929 16.364 119.619 15.888 120.114C15.412 120.609 14.7213 120.856 13.816 120.856H11.436V125H10.26ZM11.436 119.834H13.788C14.2827 119.834 14.6653 119.713 14.936 119.47C15.216 119.218 15.356 118.863 15.356 118.406V117.678C15.356 117.221 15.216 116.871 14.936 116.628C14.6653 116.376 14.2827 116.25 13.788 116.25H11.436V119.834ZM18.2345 124.048H20.7545V115.592H18.2345V114.64H21.8745V124.048H24.3945V125H18.2345V124.048ZM29.5551 125.168C29.0324 125.168 28.5611 125.079 28.1411 124.902C27.7304 124.725 27.3757 124.473 27.0771 124.146C26.7877 123.81 26.5637 123.413 26.4051 122.956C26.2464 122.489 26.1671 121.971 26.1671 121.402C26.1671 120.823 26.2464 120.301 26.4051 119.834C26.5731 119.367 26.8017 118.971 27.0911 118.644C27.3804 118.308 27.7257 118.051 28.1271 117.874C28.5377 117.697 28.9904 117.608 29.4851 117.608C29.9704 117.608 30.4091 117.697 30.8011 117.874C31.2024 118.051 31.5431 118.299 31.8231 118.616C32.1031 118.924 32.3177 119.293 32.4671 119.722C32.6164 120.151 32.6911 120.623 32.6911 121.136V121.668H27.3431V122.004C27.3431 122.321 27.3944 122.615 27.4971 122.886C27.5997 123.157 27.7444 123.39 27.9311 123.586C28.1271 123.782 28.3604 123.936 28.6311 124.048C28.9111 124.151 29.2191 124.202 29.5551 124.202C30.0404 124.202 30.4604 124.09 30.8151 123.866C31.1697 123.642 31.4404 123.334 31.6271 122.942L32.4531 123.502C32.2384 123.987 31.8791 124.389 31.3751 124.706C30.8804 125.014 30.2737 125.168 29.5551 125.168ZM29.4851 118.532C29.1771 118.532 28.8924 118.588 28.6311 118.7C28.3697 118.812 28.1411 118.966 27.9451 119.162C27.7584 119.358 27.6091 119.591 27.4971 119.862C27.3944 120.123 27.3431 120.413 27.3431 120.73V120.828H31.4871V120.674C31.4871 120.357 31.4357 120.067 31.3331 119.806C31.2397 119.545 31.1044 119.321 30.9271 119.134C30.7591 118.938 30.5491 118.789 30.2971 118.686C30.0544 118.583 29.7837 118.532 29.4851 118.532ZM40.2736 125C39.8349 125 39.5223 124.888 39.3356 124.664C39.1489 124.44 39.0323 124.16 38.9856 123.824H38.9156C38.7569 124.244 38.5003 124.575 38.1456 124.818C37.8003 125.051 37.3336 125.168 36.7456 125.168C35.9896 125.168 35.3876 124.972 34.9396 124.58C34.4916 124.188 34.2676 123.651 34.2676 122.97C34.2676 122.298 34.5103 121.78 34.9956 121.416C35.4903 121.052 36.2836 120.87 37.3756 120.87H38.9156V120.156C38.9156 119.624 38.7663 119.227 38.4676 118.966C38.1689 118.695 37.7443 118.56 37.1936 118.56C36.7083 118.56 36.3116 118.658 36.0036 118.854C35.6956 119.041 35.4483 119.297 35.2616 119.624L34.5056 119.064C34.5989 118.877 34.7249 118.695 34.8836 118.518C35.0423 118.341 35.2383 118.187 35.4716 118.056C35.7049 117.916 35.9709 117.809 36.2696 117.734C36.5683 117.65 36.8996 117.608 37.2636 117.608C38.1129 117.608 38.7849 117.823 39.2796 118.252C39.7836 118.681 40.0356 119.279 40.0356 120.044V124.02H41.0436V125H40.2736ZM36.9416 124.23C37.2309 124.23 37.4923 124.197 37.7256 124.132C37.9683 124.057 38.1783 123.964 38.3556 123.852C38.5329 123.731 38.6683 123.591 38.7616 123.432C38.8643 123.264 38.9156 123.087 38.9156 122.9V121.71H37.3756C36.7036 121.71 36.2136 121.803 35.9056 121.99C35.5976 122.177 35.4436 122.447 35.4436 122.802V123.096C35.4436 123.469 35.5743 123.754 35.8356 123.95C36.1063 124.137 36.4749 124.23 36.9416 124.23ZM45.7421 125.168C44.9861 125.168 44.3328 125.042 43.7821 124.79C43.2408 124.529 42.7788 124.183 42.3961 123.754L43.1521 123.096C43.4975 123.46 43.8755 123.74 44.2861 123.936C44.6968 124.132 45.1915 124.23 45.7701 124.23C46.3301 124.23 46.7875 124.132 47.1421 123.936C47.5061 123.731 47.6881 123.413 47.6881 122.984C47.6881 122.797 47.6508 122.643 47.5761 122.522C47.5108 122.391 47.4175 122.289 47.2961 122.214C47.1748 122.139 47.0395 122.083 46.8901 122.046C46.7408 121.999 46.5821 121.962 46.4141 121.934L45.2801 121.766C45.0281 121.729 44.7528 121.677 44.4541 121.612C44.1648 121.547 43.8988 121.444 43.6561 121.304C43.4135 121.155 43.2081 120.959 43.0401 120.716C42.8815 120.473 42.8021 120.156 42.8021 119.764C42.8021 119.4 42.8721 119.087 43.0121 118.826C43.1615 118.555 43.3668 118.331 43.6281 118.154C43.8895 117.967 44.1975 117.832 44.5521 117.748C44.9068 117.655 45.2941 117.608 45.7141 117.608C46.3675 117.608 46.9321 117.711 47.4081 117.916C47.8935 118.121 48.3088 118.406 48.6541 118.77L47.9261 119.456C47.8421 119.353 47.7348 119.251 47.6041 119.148C47.4828 119.036 47.3288 118.938 47.1421 118.854C46.9648 118.761 46.7548 118.686 46.5121 118.63C46.2695 118.574 45.9895 118.546 45.6721 118.546C45.1028 118.546 44.6641 118.644 44.3561 118.84C44.0575 119.036 43.9081 119.321 43.9081 119.694C43.9081 119.881 43.9408 120.039 44.0061 120.17C44.0808 120.291 44.1788 120.389 44.3001 120.464C44.4215 120.539 44.5568 120.599 44.7061 120.646C44.8648 120.683 45.0235 120.716 45.1821 120.744L46.3161 120.912C46.5775 120.949 46.8528 121.001 47.1421 121.066C47.4315 121.131 47.6975 121.239 47.9401 121.388C48.1828 121.528 48.3835 121.719 48.5421 121.962C48.7101 122.205 48.7941 122.522 48.7941 122.914C48.7941 123.633 48.5141 124.188 47.9541 124.58C47.4035 124.972 46.6661 125.168 45.7421 125.168ZM53.8987 125.168C53.376 125.168 52.9047 125.079 52.4847 124.902C52.074 124.725 51.7193 124.473 51.4207 124.146C51.1313 123.81 50.9073 123.413 50.7487 122.956C50.59 122.489 50.5107 121.971 50.5107 121.402C50.5107 120.823 50.59 120.301 50.7487 119.834C50.9167 119.367 51.1453 118.971 51.4347 118.644C51.724 118.308 52.0693 118.051 52.4707 117.874C52.8813 117.697 53.334 117.608 53.8287 117.608C54.314 117.608 54.7527 117.697 55.1447 117.874C55.546 118.051 55.8867 118.299 56.1667 118.616C56.4467 118.924 56.6613 119.293 56.8107 119.722C56.96 120.151 57.0347 120.623 57.0347 121.136V121.668H51.6867V122.004C51.6867 122.321 51.738 122.615 51.8407 122.886C51.9433 123.157 52.088 123.39 52.2747 123.586C52.4707 123.782 52.704 123.936 52.9747 124.048C53.2547 124.151 53.5627 124.202 53.8987 124.202C54.384 124.202 54.804 124.09 55.1587 123.866C55.5133 123.642 55.784 123.334 55.9707 122.942L56.7967 123.502C56.582 123.987 56.2227 124.389 55.7187 124.706C55.224 125.014 54.6173 125.168 53.8987 125.168ZM53.8287 118.532C53.5207 118.532 53.236 118.588 52.9747 118.7C52.7133 118.812 52.4847 118.966 52.2887 119.162C52.102 119.358 51.9527 119.591 51.8407 119.862C51.738 120.123 51.6867 120.413 51.6867 120.73V120.828H55.8307V120.674C55.8307 120.357 55.7793 120.067 55.6767 119.806C55.5833 119.545 55.448 119.321 55.2707 119.134C55.1027 118.938 54.8927 118.789 54.6407 118.686C54.398 118.583 54.1273 118.532 53.8287 118.532ZM70.2537 125.168C69.7311 125.168 69.2644 125.079 68.8537 124.902C68.4524 124.715 68.1117 124.459 67.8317 124.132C67.5517 123.805 67.3371 123.409 67.1877 122.942C67.0477 122.475 66.9777 121.957 66.9777 121.388C66.9777 120.819 67.0524 120.301 67.2017 119.834C67.3511 119.367 67.5657 118.971 67.8457 118.644C68.1257 118.308 68.4664 118.051 68.8677 117.874C69.2691 117.697 69.7264 117.608 70.2397 117.608C70.9397 117.608 71.5091 117.762 71.9477 118.07C72.3864 118.378 72.7084 118.779 72.9137 119.274L72.0177 119.75C71.8871 119.377 71.6677 119.087 71.3597 118.882C71.0611 118.677 70.6877 118.574 70.2397 118.574C69.9131 118.574 69.6191 118.63 69.3577 118.742C69.1057 118.845 68.8911 118.994 68.7137 119.19C68.5364 119.386 68.4011 119.619 68.3077 119.89C68.2237 120.161 68.1817 120.455 68.1817 120.772V122.004C68.1817 122.321 68.2237 122.615 68.3077 122.886C68.4011 123.157 68.5364 123.39 68.7137 123.586C68.8911 123.782 69.1104 123.936 69.3717 124.048C69.6331 124.151 69.9317 124.202 70.2677 124.202C70.7531 124.202 71.1544 124.09 71.4717 123.866C71.7891 123.642 72.0411 123.334 72.2277 122.942L73.0257 123.488C72.8111 123.973 72.4751 124.375 72.0177 124.692C71.5697 125.009 70.9817 125.168 70.2537 125.168ZM75.2883 114.64H76.4083V118.952H76.4643C76.5389 118.775 76.6323 118.607 76.7443 118.448C76.8563 118.28 76.9916 118.135 77.1503 118.014C77.3183 117.893 77.5143 117.795 77.7383 117.72C77.9623 117.645 78.2236 117.608 78.5223 117.608C79.2783 117.608 79.8849 117.851 80.3423 118.336C80.7996 118.812 81.0283 119.489 81.0283 120.366V125H79.9083V120.562C79.9083 119.899 79.7636 119.409 79.4743 119.092C79.1849 118.765 78.7603 118.602 78.2003 118.602C77.9763 118.602 77.7569 118.63 77.5423 118.686C77.3276 118.742 77.1363 118.826 76.9683 118.938C76.8003 119.05 76.6649 119.195 76.5623 119.372C76.4596 119.549 76.4083 119.755 76.4083 119.988V125H75.2883V114.64ZM86.3568 125.168C85.8341 125.168 85.3628 125.079 84.9428 124.902C84.5321 124.725 84.1775 124.473 83.8788 124.146C83.5895 123.81 83.3655 123.413 83.2068 122.956C83.0481 122.489 82.9688 121.971 82.9688 121.402C82.9688 120.823 83.0481 120.301 83.2068 119.834C83.3748 119.367 83.6035 118.971 83.8928 118.644C84.1821 118.308 84.5275 118.051 84.9288 117.874C85.3395 117.697 85.7921 117.608 86.2868 117.608C86.7721 117.608 87.2108 117.697 87.6028 117.874C88.0041 118.051 88.3448 118.299 88.6248 118.616C88.9048 118.924 89.1195 119.293 89.2688 119.722C89.4181 120.151 89.4928 120.623 89.4928 121.136V121.668H84.1448V122.004C84.1448 122.321 84.1961 122.615 84.2988 122.886C84.4015 123.157 84.5461 123.39 84.7328 123.586C84.9288 123.782 85.1621 123.936 85.4328 124.048C85.7128 124.151 86.0208 124.202 86.3568 124.202C86.8421 124.202 87.2621 124.09 87.6168 123.866C87.9715 123.642 88.2421 123.334 88.4288 122.942L89.2548 123.502C89.0401 123.987 88.6808 124.389 88.1768 124.706C87.6821 125.014 87.0755 125.168 86.3568 125.168ZM86.2868 118.532C85.9788 118.532 85.6941 118.588 85.4328 118.7C85.1715 118.812 84.9428 118.966 84.7468 119.162C84.5601 119.358 84.4108 119.591 84.2988 119.862C84.1961 120.123 84.1448 120.413 84.1448 120.73V120.828H88.2888V120.674C88.2888 120.357 88.2375 120.067 88.1348 119.806C88.0415 119.545 87.9061 119.321 87.7288 119.134C87.5608 118.938 87.3508 118.789 87.0988 118.686C86.8561 118.583 86.5855 118.532 86.2868 118.532ZM94.5973 125.168C94.0746 125.168 93.608 125.079 93.1973 124.902C92.796 124.715 92.4553 124.459 92.1753 124.132C91.8953 123.805 91.6806 123.409 91.5313 122.942C91.3913 122.475 91.3213 121.957 91.3213 121.388C91.3213 120.819 91.396 120.301 91.5453 119.834C91.6946 119.367 91.9093 118.971 92.1893 118.644C92.4693 118.308 92.81 118.051 93.2113 117.874C93.6126 117.697 94.07 117.608 94.5833 117.608C95.2833 117.608 95.8526 117.762 96.2913 118.07C96.73 118.378 97.052 118.779 97.2573 119.274L96.3613 119.75C96.2306 119.377 96.0113 119.087 95.7033 118.882C95.4046 118.677 95.0313 118.574 94.5833 118.574C94.2566 118.574 93.9626 118.63 93.7013 118.742C93.4493 118.845 93.2346 118.994 93.0573 119.19C92.88 119.386 92.7446 119.619 92.6513 119.89C92.5673 120.161 92.5253 120.455 92.5253 120.772V122.004C92.5253 122.321 92.5673 122.615 92.6513 122.886C92.7446 123.157 92.88 123.39 93.0573 123.586C93.2346 123.782 93.454 123.936 93.7153 124.048C93.9766 124.151 94.2753 124.202 94.6113 124.202C95.0966 124.202 95.498 124.09 95.8153 123.866C96.1326 123.642 96.3846 123.334 96.5713 122.942L97.3693 123.488C97.1546 123.973 96.8186 124.375 96.3613 124.692C95.9133 125.009 95.3253 125.168 94.5973 125.168ZM99.7298 114.64H100.85V121.178H100.906L102.166 119.988L104.574 117.776H105.946L102.95 120.604L106.296 125H104.91L102.096 121.248L100.85 122.382V125H99.7298V114.64ZM119.039 125C118.488 125 118.082 124.846 117.821 124.538C117.569 124.23 117.443 123.833 117.443 123.348V118.728H115.035V117.776H116.827C117.07 117.776 117.238 117.729 117.331 117.636C117.434 117.533 117.485 117.361 117.485 117.118V115.228H118.563V117.776H121.853V118.728H118.563V124.048H121.853V125H119.039ZM123.975 114.64H125.095V118.952H125.151C125.226 118.775 125.319 118.607 125.431 118.448C125.543 118.28 125.679 118.135 125.837 118.014C126.005 117.893 126.201 117.795 126.425 117.72C126.649 117.645 126.911 117.608 127.209 117.608C127.965 117.608 128.572 117.851 129.029 118.336C129.487 118.812 129.715 119.489 129.715 120.366V125H128.595V120.562C128.595 119.899 128.451 119.409 128.161 119.092C127.872 118.765 127.447 118.602 126.887 118.602C126.663 118.602 126.444 118.63 126.229 118.686C126.015 118.742 125.823 118.826 125.655 118.938C125.487 119.05 125.352 119.195 125.249 119.372C125.147 119.549 125.095 119.755 125.095 119.988V125H123.975V114.64ZM135.044 125.168C134.521 125.168 134.05 125.079 133.63 124.902C133.219 124.725 132.865 124.473 132.566 124.146C132.277 123.81 132.053 123.413 131.894 122.956C131.735 122.489 131.656 121.971 131.656 121.402C131.656 120.823 131.735 120.301 131.894 119.834C132.062 119.367 132.291 118.971 132.58 118.644C132.869 118.308 133.215 118.051 133.616 117.874C134.027 117.697 134.479 117.608 134.974 117.608C135.459 117.608 135.898 117.697 136.29 117.874C136.691 118.051 137.032 118.299 137.312 118.616C137.592 118.924 137.807 119.293 137.956 119.722C138.105 120.151 138.18 120.623 138.18 121.136V121.668H132.832V122.004C132.832 122.321 132.883 122.615 132.986 122.886C133.089 123.157 133.233 123.39 133.42 123.586C133.616 123.782 133.849 123.936 134.12 124.048C134.4 124.151 134.708 124.202 135.044 124.202C135.529 124.202 135.949 124.09 136.304 123.866C136.659 123.642 136.929 123.334 137.116 122.942L137.942 123.502C137.727 123.987 137.368 124.389 136.864 124.706C136.369 125.014 135.763 125.168 135.044 125.168ZM134.974 118.532C134.666 118.532 134.381 118.588 134.12 118.7C133.859 118.812 133.63 118.966 133.434 119.162C133.247 119.358 133.098 119.591 132.986 119.862C132.883 120.123 132.832 120.413 132.832 120.73V120.828H136.976V120.674C136.976 120.357 136.925 120.067 136.822 119.806C136.729 119.545 136.593 119.321 136.416 119.134C136.248 118.938 136.038 118.789 135.786 118.686C135.543 118.583 135.273 118.532 134.974 118.532ZM151.497 125C150.946 125 150.54 124.846 150.279 124.538C150.027 124.23 149.901 123.833 149.901 123.348V118.728H147.493V117.776H149.285C149.528 117.776 149.696 117.729 149.789 117.636C149.892 117.533 149.943 117.361 149.943 117.118V115.228H151.021V117.776H154.311V118.728H151.021V124.048H154.311V125H151.497ZM156.14 124.048H158.254V118.728H156.14V117.776H159.374V119.596H159.444C159.593 119.027 159.873 118.583 160.284 118.266C160.704 117.939 161.236 117.776 161.88 117.776H162.888V118.896H161.53C160.886 118.896 160.363 119.083 159.962 119.456C159.57 119.829 159.374 120.319 159.374 120.926V124.048H162.174V125H156.14V124.048ZM170.106 125C169.667 125 169.355 124.888 169.168 124.664C168.981 124.44 168.865 124.16 168.818 123.824H168.748C168.589 124.244 168.333 124.575 167.978 124.818C167.633 125.051 167.166 125.168 166.578 125.168C165.822 125.168 165.22 124.972 164.772 124.58C164.324 124.188 164.1 123.651 164.1 122.97C164.1 122.298 164.343 121.78 164.828 121.416C165.323 121.052 166.116 120.87 167.208 120.87H168.748V120.156C168.748 119.624 168.599 119.227 168.3 118.966C168.001 118.695 167.577 118.56 167.026 118.56C166.541 118.56 166.144 118.658 165.836 118.854C165.528 119.041 165.281 119.297 165.094 119.624L164.338 119.064C164.431 118.877 164.557 118.695 164.716 118.518C164.875 118.341 165.071 118.187 165.304 118.056C165.537 117.916 165.803 117.809 166.102 117.734C166.401 117.65 166.732 117.608 167.096 117.608C167.945 117.608 168.617 117.823 169.112 118.252C169.616 118.681 169.868 119.279 169.868 120.044V124.02H170.876V125H170.106ZM166.774 124.23C167.063 124.23 167.325 124.197 167.558 124.132C167.801 124.057 168.011 123.964 168.188 123.852C168.365 123.731 168.501 123.591 168.594 123.432C168.697 123.264 168.748 123.087 168.748 122.9V121.71H167.208C166.536 121.71 166.046 121.803 165.738 121.99C165.43 122.177 165.276 122.447 165.276 122.802V123.096C165.276 123.469 165.407 123.754 165.668 123.95C165.939 124.137 166.307 124.23 166.774 124.23ZM172.663 125V117.776H173.783V118.952H173.839C173.913 118.775 174.007 118.607 174.119 118.448C174.231 118.28 174.366 118.135 174.525 118.014C174.693 117.893 174.889 117.795 175.113 117.72C175.337 117.645 175.598 117.608 175.897 117.608C176.653 117.608 177.259 117.851 177.717 118.336C178.174 118.812 178.403 119.489 178.403 120.366V125H177.283V120.562C177.283 119.899 177.138 119.409 176.849 119.092C176.559 118.765 176.135 118.602 175.575 118.602C175.351 118.602 175.131 118.63 174.917 118.686C174.702 118.742 174.511 118.826 174.343 118.938C174.175 119.05 174.039 119.195 173.937 119.372C173.834 119.549 173.783 119.755 173.783 119.988V125H172.663ZM183.689 125.168C182.933 125.168 182.28 125.042 181.729 124.79C181.188 124.529 180.726 124.183 180.343 123.754L181.099 123.096C181.444 123.46 181.822 123.74 182.233 123.936C182.644 124.132 183.138 124.23 183.717 124.23C184.277 124.23 184.734 124.132 185.089 123.936C185.453 123.731 185.635 123.413 185.635 122.984C185.635 122.797 185.598 122.643 185.523 122.522C185.458 122.391 185.364 122.289 185.243 122.214C185.122 122.139 184.986 122.083 184.837 122.046C184.688 121.999 184.529 121.962 184.361 121.934L183.227 121.766C182.975 121.729 182.7 121.677 182.401 121.612C182.112 121.547 181.846 121.444 181.603 121.304C181.36 121.155 181.155 120.959 180.987 120.716C180.828 120.473 180.749 120.156 180.749 119.764C180.749 119.4 180.819 119.087 180.959 118.826C181.108 118.555 181.314 118.331 181.575 118.154C181.836 117.967 182.144 117.832 182.499 117.748C182.854 117.655 183.241 117.608 183.661 117.608C184.314 117.608 184.879 117.711 185.355 117.916C185.84 118.121 186.256 118.406 186.601 118.77L185.873 119.456C185.789 119.353 185.682 119.251 185.551 119.148C185.43 119.036 185.276 118.938 185.089 118.854C184.912 118.761 184.702 118.686 184.459 118.63C184.216 118.574 183.936 118.546 183.619 118.546C183.05 118.546 182.611 118.644 182.303 118.84C182.004 119.036 181.855 119.321 181.855 119.694C181.855 119.881 181.888 120.039 181.953 120.17C182.028 120.291 182.126 120.389 182.247 120.464C182.368 120.539 182.504 120.599 182.653 120.646C182.812 120.683 182.97 120.716 183.129 120.744L184.263 120.912C184.524 120.949 184.8 121.001 185.089 121.066C185.378 121.131 185.644 121.239 185.887 121.388C186.13 121.528 186.33 121.719 186.489 121.962C186.657 122.205 186.741 122.522 186.741 122.914C186.741 123.633 186.461 124.188 185.901 124.58C185.35 124.972 184.613 125.168 183.689 125.168ZM194.45 125C194.011 125 193.698 124.888 193.512 124.664C193.325 124.44 193.208 124.16 193.162 123.824H193.092C192.933 124.244 192.676 124.575 192.322 124.818C191.976 125.051 191.51 125.168 190.922 125.168C190.166 125.168 189.564 124.972 189.116 124.58C188.668 124.188 188.444 123.651 188.444 122.97C188.444 122.298 188.686 121.78 189.172 121.416C189.666 121.052 190.46 120.87 191.552 120.87H193.092V120.156C193.092 119.624 192.942 119.227 192.644 118.966C192.345 118.695 191.92 118.56 191.37 118.56C190.884 118.56 190.488 118.658 190.18 118.854C189.872 119.041 189.624 119.297 189.438 119.624L188.682 119.064C188.775 118.877 188.901 118.695 189.06 118.518C189.218 118.341 189.414 118.187 189.648 118.056C189.881 117.916 190.147 117.809 190.446 117.734C190.744 117.65 191.076 117.608 191.44 117.608C192.289 117.608 192.961 117.823 193.456 118.252C193.96 118.681 194.212 119.279 194.212 120.044V124.02H195.22V125H194.45ZM191.118 124.23C191.407 124.23 191.668 124.197 191.902 124.132C192.144 124.057 192.354 123.964 192.532 123.852C192.709 123.731 192.844 123.591 192.938 123.432C193.04 123.264 193.092 123.087 193.092 122.9V121.71H191.552C190.88 121.71 190.39 121.803 190.082 121.99C189.774 122.177 189.62 122.447 189.62 122.802V123.096C189.62 123.469 189.75 123.754 190.012 123.95C190.282 124.137 190.651 124.23 191.118 124.23ZM200.086 125.168C199.564 125.168 199.097 125.079 198.686 124.902C198.285 124.715 197.944 124.459 197.664 124.132C197.384 123.805 197.17 123.409 197.02 122.942C196.88 122.475 196.81 121.957 196.81 121.388C196.81 120.819 196.885 120.301 197.034 119.834C197.184 119.367 197.398 118.971 197.678 118.644C197.958 118.308 198.299 118.051 198.7 117.874C199.102 117.697 199.559 117.608 200.072 117.608C200.772 117.608 201.342 117.762 201.78 118.07C202.219 118.378 202.541 118.779 202.746 119.274L201.85 119.75C201.72 119.377 201.5 119.087 201.192 118.882C200.894 118.677 200.52 118.574 200.072 118.574C199.746 118.574 199.452 118.63 199.19 118.742C198.938 118.845 198.724 118.994 198.546 119.19C198.369 119.386 198.234 119.619 198.14 119.89C198.056 120.161 198.014 120.455 198.014 120.772V122.004C198.014 122.321 198.056 122.615 198.14 122.886C198.234 123.157 198.369 123.39 198.546 123.586C198.724 123.782 198.943 123.936 199.204 124.048C199.466 124.151 199.764 124.202 200.1 124.202C200.586 124.202 200.987 124.09 201.304 123.866C201.622 123.642 201.874 123.334 202.06 122.942L202.858 123.488C202.644 123.973 202.308 124.375 201.85 124.692C201.402 125.009 200.814 125.168 200.086 125.168ZM208.299 125C207.748 125 207.342 124.846 207.081 124.538C206.829 124.23 206.703 123.833 206.703 123.348V118.728H204.295V117.776H206.087C206.329 117.776 206.497 117.729 206.591 117.636C206.693 117.533 206.745 117.361 206.745 117.118V115.228H207.823V117.776H211.113V118.728H207.823V124.048H211.113V125H208.299ZM216.511 116.18C216.185 116.18 215.956 116.115 215.825 115.984C215.695 115.844 215.629 115.671 215.629 115.466V115.242C215.629 115.037 215.695 114.869 215.825 114.738C215.956 114.598 216.185 114.528 216.511 114.528C216.838 114.528 217.067 114.598 217.197 114.738C217.328 114.869 217.393 115.037 217.393 115.242V115.466C217.393 115.671 217.328 115.844 217.197 115.984C217.067 116.115 216.838 116.18 216.511 116.18ZM213.347 124.048H215.951V118.728H213.347V117.776H217.071V124.048H219.507V125H213.347V124.048ZM224.178 125.168C223.674 125.168 223.216 125.079 222.806 124.902C222.404 124.725 222.059 124.473 221.77 124.146C221.49 123.81 221.275 123.413 221.126 122.956C220.976 122.489 220.902 121.967 220.902 121.388C220.902 120.819 220.976 120.301 221.126 119.834C221.275 119.367 221.49 118.971 221.77 118.644C222.059 118.308 222.404 118.051 222.806 117.874C223.216 117.697 223.674 117.608 224.178 117.608C224.682 117.608 225.134 117.697 225.536 117.874C225.946 118.051 226.292 118.308 226.572 118.644C226.861 118.971 227.08 119.367 227.23 119.834C227.379 120.301 227.454 120.819 227.454 121.388C227.454 121.967 227.379 122.489 227.23 122.956C227.08 123.413 226.861 123.81 226.572 124.146C226.292 124.473 225.946 124.725 225.536 124.902C225.134 125.079 224.682 125.168 224.178 125.168ZM224.178 124.202C224.803 124.202 225.307 124.015 225.69 123.642C226.072 123.269 226.264 122.69 226.264 121.906V120.87C226.264 120.086 226.072 119.507 225.69 119.134C225.307 118.761 224.803 118.574 224.178 118.574C223.552 118.574 223.048 118.761 222.666 119.134C222.283 119.507 222.092 120.086 222.092 120.87V121.906C222.092 122.69 222.283 123.269 222.666 123.642C223.048 124.015 223.552 124.202 224.178 124.202ZM229.464 125V117.776H230.584V118.952H230.64C230.715 118.775 230.808 118.607 230.92 118.448C231.032 118.28 231.168 118.135 231.326 118.014C231.494 117.893 231.69 117.795 231.914 117.72C232.138 117.645 232.4 117.608 232.698 117.608C233.454 117.608 234.061 117.851 234.518 118.336C234.976 118.812 235.204 119.489 235.204 120.366V125H234.084V120.562C234.084 119.899 233.94 119.409 233.65 119.092C233.361 118.765 232.936 118.602 232.376 118.602C232.152 118.602 231.933 118.63 231.718 118.686C231.504 118.742 231.312 118.826 231.144 118.938C230.976 119.05 230.841 119.195 230.738 119.372C230.636 119.549 230.584 119.755 230.584 119.988V125H229.464ZM245.497 125V124.062H247.933V116.166H245.497V115.228H251.545V116.166H249.109V124.062H251.545V125H245.497ZM253.766 115.228H256.496C257.691 115.228 258.582 115.639 259.17 116.46C259.758 117.281 260.052 118.499 260.052 120.114C260.052 121.729 259.758 122.947 259.17 123.768C258.582 124.589 257.691 125 256.496 125H253.766V115.228ZM256.44 123.978C257.224 123.978 257.812 123.707 258.204 123.166C258.605 122.625 258.806 121.859 258.806 120.87V119.358C258.806 118.369 258.605 117.603 258.204 117.062C257.812 116.521 257.224 116.25 256.44 116.25H254.942V123.978H256.44ZM275.595 125C275.156 125 274.844 124.888 274.657 124.664C274.47 124.44 274.354 124.16 274.307 123.824H274.237C274.078 124.244 273.822 124.575 273.467 124.818C273.122 125.051 272.655 125.168 272.067 125.168C271.311 125.168 270.709 124.972 270.261 124.58C269.813 124.188 269.589 123.651 269.589 122.97C269.589 122.298 269.832 121.78 270.317 121.416C270.812 121.052 271.605 120.87 272.697 120.87H274.237V120.156C274.237 119.624 274.088 119.227 273.789 118.966C273.49 118.695 273.066 118.56 272.515 118.56C272.03 118.56 271.633 118.658 271.325 118.854C271.017 119.041 270.77 119.297 270.583 119.624L269.827 119.064C269.92 118.877 270.046 118.695 270.205 118.518C270.364 118.341 270.56 118.187 270.793 118.056C271.026 117.916 271.292 117.809 271.591 117.734C271.89 117.65 272.221 117.608 272.585 117.608C273.434 117.608 274.106 117.823 274.601 118.252C275.105 118.681 275.357 119.279 275.357 120.044V124.02H276.365V125H275.595ZM272.263 124.23C272.552 124.23 272.814 124.197 273.047 124.132C273.29 124.057 273.5 123.964 273.677 123.852C273.854 123.731 273.99 123.591 274.083 123.432C274.186 123.264 274.237 123.087 274.237 122.9V121.71H272.697C272.025 121.71 271.535 121.803 271.227 121.99C270.919 122.177 270.765 122.447 270.765 122.802V123.096C270.765 123.469 270.896 123.754 271.157 123.95C271.428 124.137 271.796 124.23 272.263 124.23ZM278.152 125V117.776H279.272V118.952H279.328C279.402 118.775 279.496 118.607 279.608 118.448C279.72 118.28 279.855 118.135 280.014 118.014C280.182 117.893 280.378 117.795 280.602 117.72C280.826 117.645 281.087 117.608 281.386 117.608C282.142 117.608 282.748 117.851 283.206 118.336C283.663 118.812 283.892 119.489 283.892 120.366V125H282.772V120.562C282.772 119.899 282.627 119.409 282.338 119.092C282.048 118.765 281.624 118.602 281.064 118.602C280.84 118.602 280.62 118.63 280.406 118.686C280.191 118.742 280 118.826 279.832 118.938C279.664 119.05 279.528 119.195 279.426 119.372C279.323 119.549 279.272 119.755 279.272 119.988V125H278.152ZM290.844 123.824H290.788C290.321 124.72 289.579 125.168 288.562 125.168C287.675 125.168 286.98 124.837 286.476 124.174C285.981 123.511 285.734 122.583 285.734 121.388C285.734 120.193 285.981 119.265 286.476 118.602C286.98 117.939 287.675 117.608 288.562 117.608C289.579 117.608 290.321 118.056 290.788 118.952H290.844V114.64H291.964V125H290.844V123.824ZM288.996 124.174C289.248 124.174 289.486 124.141 289.71 124.076C289.934 124.011 290.13 123.917 290.298 123.796C290.466 123.665 290.597 123.511 290.69 123.334C290.793 123.147 290.844 122.933 290.844 122.69V120.086C290.844 119.843 290.793 119.633 290.69 119.456C290.597 119.269 290.466 119.115 290.298 118.994C290.13 118.863 289.934 118.765 289.71 118.7C289.486 118.635 289.248 118.602 288.996 118.602C288.343 118.602 287.834 118.803 287.47 119.204C287.115 119.596 286.938 120.119 286.938 120.772V122.004C286.938 122.657 287.115 123.185 287.47 123.586C287.834 123.978 288.343 124.174 288.996 124.174ZM305.673 125C305.122 125 304.716 124.846 304.455 124.538C304.203 124.23 304.077 123.833 304.077 123.348V118.728H301.669V117.776H303.461C303.704 117.776 303.872 117.729 303.965 117.636C304.068 117.533 304.119 117.361 304.119 117.118V115.228H305.197V117.776H308.487V118.728H305.197V124.048H308.487V125H305.673ZM310.316 124.048H312.43V118.728H310.316V117.776H313.55V119.596H313.62C313.769 119.027 314.049 118.583 314.46 118.266C314.88 117.939 315.412 117.776 316.056 117.776H317.064V118.896H315.706C315.062 118.896 314.539 119.083 314.138 119.456C313.746 119.829 313.55 120.319 313.55 120.926V124.048H316.35V125H310.316V124.048ZM323.89 117.776H325.01L321.426 126.582C321.342 126.787 321.249 126.965 321.146 127.114C321.044 127.273 320.922 127.399 320.782 127.492C320.642 127.595 320.474 127.669 320.278 127.716C320.082 127.772 319.849 127.8 319.578 127.8H318.514V126.848H320.194L321.006 124.86L318.094 117.776H319.242L320.46 120.8L321.538 123.544H321.594L322.672 120.8L323.89 117.776ZM340.511 125C340.073 125 339.76 124.888 339.573 124.664C339.387 124.44 339.27 124.16 339.223 123.824H339.153C338.995 124.244 338.738 124.575 338.383 124.818C338.038 125.051 337.571 125.168 336.983 125.168C336.227 125.168 335.625 124.972 335.177 124.58C334.729 124.188 334.505 123.651 334.505 122.97C334.505 122.298 334.748 121.78 335.233 121.416C335.728 121.052 336.521 120.87 337.613 120.87H339.153V120.156C339.153 119.624 339.004 119.227 338.705 118.966C338.407 118.695 337.982 118.56 337.431 118.56C336.946 118.56 336.549 118.658 336.241 118.854C335.933 119.041 335.686 119.297 335.499 119.624L334.743 119.064C334.837 118.877 334.963 118.695 335.121 118.518C335.28 118.341 335.476 118.187 335.709 118.056C335.943 117.916 336.209 117.809 336.507 117.734C336.806 117.65 337.137 117.608 337.501 117.608C338.351 117.608 339.023 117.823 339.517 118.252C340.021 118.681 340.273 119.279 340.273 120.044V124.02H341.281V125H340.511ZM337.179 124.23C337.469 124.23 337.73 124.197 337.963 124.132C338.206 124.057 338.416 123.964 338.593 123.852C338.771 123.731 338.906 123.591 338.999 123.432C339.102 123.264 339.153 123.087 339.153 122.9V121.71H337.613C336.941 121.71 336.451 121.803 336.143 121.99C335.835 122.177 335.681 122.447 335.681 122.802V123.096C335.681 123.469 335.812 123.754 336.073 123.95C336.344 124.137 336.713 124.23 337.179 124.23ZM349.55 125.826C349.55 126.554 349.246 127.091 348.64 127.436C348.033 127.791 347.123 127.968 345.91 127.968C344.743 127.968 343.903 127.814 343.39 127.506C342.886 127.198 342.634 126.755 342.634 126.176C342.634 125.784 342.736 125.481 342.942 125.266C343.147 125.051 343.436 124.893 343.81 124.79V124.622C343.604 124.519 343.446 124.389 343.334 124.23C343.222 124.071 343.166 123.871 343.166 123.628C343.166 123.255 343.287 122.975 343.53 122.788C343.782 122.601 344.094 122.461 344.468 122.368V122.312C344.02 122.116 343.67 121.827 343.418 121.444C343.175 121.061 343.054 120.613 343.054 120.1C343.054 119.736 343.119 119.4 343.25 119.092C343.38 118.784 343.567 118.523 343.81 118.308C344.062 118.084 344.36 117.911 344.706 117.79C345.051 117.669 345.434 117.608 345.854 117.608C346.395 117.608 346.871 117.706 347.282 117.902V117.776C347.282 117.496 347.347 117.263 347.478 117.076C347.608 116.889 347.832 116.796 348.15 116.796H349.48V117.776H347.856V118.266C348.117 118.49 348.318 118.756 348.458 119.064C348.598 119.372 348.668 119.717 348.668 120.1C348.668 120.464 348.598 120.8 348.458 121.108C348.327 121.416 348.14 121.682 347.898 121.906C347.655 122.121 347.356 122.289 347.002 122.41C346.656 122.531 346.274 122.592 345.854 122.592C345.732 122.592 345.616 122.587 345.504 122.578C345.392 122.569 345.28 122.555 345.168 122.536C345.056 122.555 344.939 122.587 344.818 122.634C344.696 122.671 344.584 122.727 344.482 122.802C344.379 122.867 344.295 122.947 344.23 123.04C344.164 123.133 344.132 123.241 344.132 123.362C344.132 123.577 344.239 123.721 344.454 123.796C344.668 123.861 344.948 123.894 345.294 123.894H346.89C347.823 123.894 348.5 124.071 348.92 124.426C349.34 124.771 349.55 125.238 349.55 125.826ZM348.5 125.882C348.5 125.593 348.383 125.359 348.15 125.182C347.916 125.014 347.51 124.93 346.932 124.93H344.426C343.94 125.126 343.698 125.453 343.698 125.91C343.698 126.227 343.824 126.498 344.076 126.722C344.328 126.955 344.748 127.072 345.336 127.072H346.428C347.081 127.072 347.59 126.969 347.954 126.764C348.318 126.568 348.5 126.274 348.5 125.882ZM345.854 121.724C346.414 121.724 346.824 121.593 347.086 121.332C347.356 121.071 347.492 120.725 347.492 120.296V119.89C347.492 119.461 347.356 119.12 347.086 118.868C346.824 118.607 346.414 118.476 345.854 118.476C345.294 118.476 344.883 118.607 344.622 118.868C344.36 119.12 344.23 119.461 344.23 119.89V120.296C344.23 120.725 344.36 121.071 344.622 121.332C344.883 121.593 345.294 121.724 345.854 121.724ZM356.74 125C356.302 125 355.989 124.888 355.802 124.664C355.616 124.44 355.499 124.16 355.452 123.824H355.382C355.224 124.244 354.967 124.575 354.612 124.818C354.267 125.051 353.8 125.168 353.212 125.168C352.456 125.168 351.854 124.972 351.406 124.58C350.958 124.188 350.734 123.651 350.734 122.97C350.734 122.298 350.977 121.78 351.462 121.416C351.957 121.052 352.75 120.87 353.842 120.87H355.382V120.156C355.382 119.624 355.233 119.227 354.934 118.966C354.636 118.695 354.211 118.56 353.66 118.56C353.175 118.56 352.778 118.658 352.47 118.854C352.162 119.041 351.915 119.297 351.728 119.624L350.972 119.064C351.066 118.877 351.192 118.695 351.35 118.518C351.509 118.341 351.705 118.187 351.938 118.056C352.172 117.916 352.438 117.809 352.736 117.734C353.035 117.65 353.366 117.608 353.73 117.608C354.58 117.608 355.252 117.823 355.746 118.252C356.25 118.681 356.502 119.279 356.502 120.044V124.02H357.51V125H356.74ZM353.408 124.23C353.698 124.23 353.959 124.197 354.192 124.132C354.435 124.057 354.645 123.964 354.822 123.852C355 123.731 355.135 123.591 355.228 123.432C355.331 123.264 355.382 123.087 355.382 122.9V121.71H353.842C353.17 121.71 352.68 121.803 352.372 121.99C352.064 122.177 351.91 122.447 351.91 122.802V123.096C351.91 123.469 352.041 123.754 352.302 123.95C352.573 124.137 352.942 124.23 353.408 124.23ZM362.573 116.18C362.246 116.18 362.018 116.115 361.887 115.984C361.756 115.844 361.691 115.671 361.691 115.466V115.242C361.691 115.037 361.756 114.869 361.887 114.738C362.018 114.598 362.246 114.528 362.573 114.528C362.9 114.528 363.128 114.598 363.259 114.738C363.39 114.869 363.455 115.037 363.455 115.242V115.466C363.455 115.671 363.39 115.844 363.259 115.984C363.128 116.115 362.9 116.18 362.573 116.18ZM359.409 124.048H362.013V118.728H359.409V117.776H363.133V124.048H365.569V125H359.409V124.048ZM367.411 125V117.776H368.531V118.952H368.587C368.662 118.775 368.755 118.607 368.867 118.448C368.979 118.28 369.115 118.135 369.273 118.014C369.441 117.893 369.637 117.795 369.861 117.72C370.085 117.645 370.347 117.608 370.645 117.608C371.401 117.608 372.008 117.851 372.465 118.336C372.923 118.812 373.151 119.489 373.151 120.366V125H372.031V120.562C372.031 119.899 371.887 119.409 371.597 119.092C371.308 118.765 370.883 118.602 370.323 118.602C370.099 118.602 369.88 118.63 369.665 118.686C369.451 118.742 369.259 118.826 369.091 118.938C368.923 119.05 368.788 119.195 368.685 119.372C368.583 119.549 368.531 119.755 368.531 119.988V125H367.411ZM378.354 125.126C377.971 125.126 377.701 125.047 377.542 124.888C377.393 124.729 377.318 124.529 377.318 124.286V124.034C377.318 123.791 377.393 123.591 377.542 123.432C377.701 123.273 377.971 123.194 378.354 123.194C378.737 123.194 379.003 123.273 379.152 123.432C379.311 123.591 379.39 123.791 379.39 124.034V124.286C379.39 124.529 379.311 124.729 379.152 124.888C379.003 125.047 378.737 125.126 378.354 125.126Z" fill="#222222"/>
<rect x="9" y="147" width="373" height="1" fill="#A8A8A8"/>
<rect width="373" height="28" transform="translate(9 148)" fill="#BDBDBD"/>
<rect x="9" y="148" width="1" height="28" fill="#A8A8A8"/>
<path d="M130.144 158.426H133.225C134.005 158.426 134.616 158.638 135.058 159.063C135.5 159.488 135.721 160.055 135.721 160.766C135.721 161.312 135.587 161.741 135.318 162.053C135.058 162.365 134.72 162.586 134.304 162.716V162.755C134.815 162.876 135.236 163.106 135.565 163.444C135.894 163.773 136.059 164.254 136.059 164.887C136.059 165.251 135.998 165.593 135.877 165.914C135.756 166.235 135.582 166.512 135.357 166.746C135.14 166.98 134.88 167.166 134.577 167.305C134.282 167.435 133.962 167.5 133.615 167.5H130.144V158.426ZM133.29 166.551C133.793 166.551 134.187 166.438 134.473 166.213C134.759 165.988 134.902 165.641 134.902 165.173V164.64C134.902 164.181 134.759 163.838 134.473 163.613C134.187 163.379 133.793 163.262 133.29 163.262H131.236V166.551H133.29ZM133.108 162.365C133.567 162.365 133.927 162.265 134.187 162.066C134.447 161.858 134.577 161.546 134.577 161.13V160.623C134.577 160.207 134.447 159.895 134.187 159.687C133.927 159.479 133.567 159.375 133.108 159.375H131.236V162.365H133.108ZM143.23 167.5C142.823 167.5 142.532 167.396 142.359 167.188C142.186 166.98 142.077 166.72 142.034 166.408H141.969C141.822 166.798 141.583 167.106 141.254 167.331C140.933 167.548 140.5 167.656 139.954 167.656C139.252 167.656 138.693 167.474 138.277 167.11C137.861 166.746 137.653 166.248 137.653 165.615C137.653 164.991 137.878 164.51 138.329 164.172C138.788 163.834 139.525 163.665 140.539 163.665H141.969V163.002C141.969 162.508 141.83 162.14 141.553 161.897C141.276 161.646 140.881 161.52 140.37 161.52C139.919 161.52 139.551 161.611 139.265 161.793C138.979 161.966 138.749 162.205 138.576 162.508L137.874 161.988C137.961 161.815 138.078 161.646 138.225 161.481C138.372 161.316 138.554 161.173 138.771 161.052C138.988 160.922 139.235 160.822 139.512 160.753C139.789 160.675 140.097 160.636 140.435 160.636C141.224 160.636 141.848 160.835 142.307 161.234C142.775 161.633 143.009 162.187 143.009 162.898V166.59H143.945V167.5H143.23ZM140.136 166.785C140.405 166.785 140.647 166.755 140.864 166.694C141.089 166.625 141.284 166.538 141.449 166.434C141.614 166.321 141.739 166.191 141.826 166.044C141.921 165.888 141.969 165.723 141.969 165.55V164.445H140.539C139.915 164.445 139.46 164.532 139.174 164.705C138.888 164.878 138.745 165.13 138.745 165.459V165.732C138.745 166.079 138.866 166.343 139.109 166.525C139.36 166.698 139.703 166.785 140.136 166.785ZM148.724 167.656C148.239 167.656 147.805 167.574 147.424 167.409C147.051 167.236 146.735 166.997 146.475 166.694C146.215 166.391 146.016 166.022 145.877 165.589C145.747 165.156 145.682 164.675 145.682 164.146C145.682 163.617 145.751 163.136 145.89 162.703C146.029 162.27 146.228 161.901 146.488 161.598C146.748 161.286 147.064 161.048 147.437 160.883C147.81 160.718 148.234 160.636 148.711 160.636C149.361 160.636 149.89 160.779 150.297 161.065C150.704 161.351 151.003 161.724 151.194 162.183L150.362 162.625C150.241 162.278 150.037 162.01 149.751 161.819C149.474 161.628 149.127 161.533 148.711 161.533C148.408 161.533 148.135 161.585 147.892 161.689C147.658 161.784 147.459 161.923 147.294 162.105C147.129 162.287 147.004 162.504 146.917 162.755C146.839 163.006 146.8 163.279 146.8 163.574V164.718C146.8 165.013 146.839 165.286 146.917 165.537C147.004 165.788 147.129 166.005 147.294 166.187C147.459 166.369 147.662 166.512 147.905 166.616C148.148 166.711 148.425 166.759 148.737 166.759C149.188 166.759 149.56 166.655 149.855 166.447C150.15 166.239 150.384 165.953 150.557 165.589L151.298 166.096C151.099 166.547 150.787 166.919 150.362 167.214C149.946 167.509 149.4 167.656 148.724 167.656ZM153.75 157.88H154.79V163.951H154.842L156.012 162.846L158.248 160.792H159.522L156.74 163.418L159.847 167.5H158.56L155.947 164.016L154.79 165.069V167.5H153.75V157.88ZM172.2 167.5C171.688 167.5 171.311 167.357 171.069 167.071C170.835 166.785 170.718 166.417 170.718 165.966V161.676H168.482V160.792H170.146C170.371 160.792 170.527 160.749 170.614 160.662C170.709 160.567 170.757 160.406 170.757 160.181V158.426H171.758V160.792H174.813V161.676H171.758V166.616H174.813V167.5H172.2ZM179.67 167.656C179.202 167.656 178.777 167.574 178.396 167.409C178.023 167.244 177.702 167.01 177.434 166.707C177.174 166.395 176.974 166.027 176.836 165.602C176.697 165.169 176.628 164.683 176.628 164.146C176.628 163.617 176.697 163.136 176.836 162.703C176.974 162.27 177.174 161.901 177.434 161.598C177.702 161.286 178.023 161.048 178.396 160.883C178.777 160.718 179.202 160.636 179.67 160.636C180.138 160.636 180.558 160.718 180.931 160.883C181.312 161.048 181.633 161.286 181.893 161.598C182.161 161.901 182.365 162.27 182.504 162.703C182.642 163.136 182.712 163.617 182.712 164.146C182.712 164.683 182.642 165.169 182.504 165.602C182.365 166.027 182.161 166.395 181.893 166.707C181.633 167.01 181.312 167.244 180.931 167.409C180.558 167.574 180.138 167.656 179.67 167.656ZM179.67 166.759C180.25 166.759 180.718 166.586 181.074 166.239C181.429 165.892 181.607 165.355 181.607 164.627V163.665C181.607 162.937 181.429 162.4 181.074 162.053C180.718 161.706 180.25 161.533 179.67 161.533C179.089 161.533 178.621 161.706 178.266 162.053C177.91 162.4 177.733 162.937 177.733 163.665V164.627C177.733 165.355 177.91 165.892 178.266 166.239C178.621 166.586 179.089 166.759 179.67 166.759ZM192.061 167.5V160.792H193.023V161.572H193.075C193.179 161.312 193.327 161.091 193.517 160.909C193.708 160.727 193.99 160.636 194.362 160.636C194.752 160.636 195.043 160.736 195.233 160.935C195.424 161.126 195.541 161.377 195.584 161.689H195.623C195.745 161.386 195.918 161.134 196.143 160.935C196.369 160.736 196.681 160.636 197.079 160.636C197.625 160.636 197.989 160.827 198.171 161.208C198.362 161.589 198.457 162.135 198.457 162.846V167.5H197.495V163.015C197.495 162.443 197.435 162.049 197.313 161.832C197.201 161.607 196.988 161.494 196.676 161.494C196.399 161.494 196.174 161.585 196 161.767C195.827 161.94 195.74 162.209 195.74 162.573V167.5H194.778V163.015C194.778 162.443 194.718 162.049 194.596 161.832C194.484 161.607 194.276 161.494 193.972 161.494C193.695 161.494 193.465 161.585 193.283 161.767C193.11 161.94 193.023 162.209 193.023 162.573V167.5H192.061ZM205.589 167.5C205.182 167.5 204.892 167.396 204.718 167.188C204.545 166.98 204.437 166.72 204.393 166.408H204.328C204.181 166.798 203.943 167.106 203.613 167.331C203.293 167.548 202.859 167.656 202.313 167.656C201.611 167.656 201.052 167.474 200.636 167.11C200.22 166.746 200.012 166.248 200.012 165.615C200.012 164.991 200.238 164.51 200.688 164.172C201.148 163.834 201.884 163.665 202.898 163.665H204.328V163.002C204.328 162.508 204.19 162.14 203.912 161.897C203.635 161.646 203.241 161.52 202.729 161.52C202.279 161.52 201.91 161.611 201.624 161.793C201.338 161.966 201.109 162.205 200.935 162.508L200.233 161.988C200.32 161.815 200.437 161.646 200.584 161.481C200.732 161.316 200.914 161.173 201.13 161.052C201.347 160.922 201.594 160.822 201.871 160.753C202.149 160.675 202.456 160.636 202.794 160.636C203.583 160.636 204.207 160.835 204.666 161.234C205.134 161.633 205.368 162.187 205.368 162.898V166.59H206.304V167.5H205.589ZM202.495 166.785C202.764 166.785 203.007 166.755 203.223 166.694C203.449 166.625 203.644 166.538 203.808 166.434C203.973 166.321 204.099 166.191 204.185 166.044C204.281 165.888 204.328 165.723 204.328 165.55V164.445H202.898C202.274 164.445 201.819 164.532 201.533 164.705C201.247 164.878 201.104 165.13 201.104 165.459V165.732C201.104 166.079 201.226 166.343 201.468 166.525C201.72 166.698 202.062 166.785 202.495 166.785ZM211.265 159.31C210.962 159.31 210.75 159.249 210.628 159.128C210.507 158.998 210.446 158.838 210.446 158.647V158.439C210.446 158.248 210.507 158.092 210.628 157.971C210.75 157.841 210.962 157.776 211.265 157.776C211.569 157.776 211.781 157.841 211.902 157.971C212.024 158.092 212.084 158.248 212.084 158.439V158.647C212.084 158.838 212.024 158.998 211.902 159.128C211.781 159.249 211.569 159.31 211.265 159.31ZM208.327 166.616H210.745V161.676H208.327V160.792H211.785V166.616H214.047V167.5H208.327V166.616ZM216.018 167.5V160.792H217.058V161.884H217.11C217.179 161.719 217.266 161.563 217.37 161.416C217.474 161.26 217.6 161.126 217.747 161.013C217.903 160.9 218.085 160.809 218.293 160.74C218.501 160.671 218.744 160.636 219.021 160.636C219.723 160.636 220.286 160.861 220.711 161.312C221.136 161.754 221.348 162.382 221.348 163.197V167.5H220.308V163.379C220.308 162.764 220.174 162.309 219.905 162.014C219.636 161.711 219.242 161.559 218.722 161.559C218.514 161.559 218.31 161.585 218.111 161.637C217.912 161.689 217.734 161.767 217.578 161.871C217.422 161.975 217.296 162.109 217.201 162.274C217.106 162.439 217.058 162.629 217.058 162.846V167.5H216.018ZM231.569 160.792H232.609V161.884H232.661C233.094 161.052 233.783 160.636 234.728 160.636C235.551 160.636 236.193 160.944 236.652 161.559C237.12 162.174 237.354 163.037 237.354 164.146C237.354 165.255 237.12 166.118 236.652 166.733C236.193 167.348 235.551 167.656 234.728 167.656C233.783 167.656 233.094 167.24 232.661 166.408H232.609V170.1H231.569V160.792ZM234.325 166.733C234.932 166.733 235.4 166.551 235.729 166.187C236.067 165.814 236.236 165.325 236.236 164.718V163.574C236.236 162.967 236.067 162.482 235.729 162.118C235.4 161.745 234.932 161.559 234.325 161.559C234.091 161.559 233.87 161.589 233.662 161.65C233.454 161.711 233.272 161.802 233.116 161.923C232.96 162.036 232.834 162.179 232.739 162.352C232.652 162.517 232.609 162.712 232.609 162.937V165.355C232.609 165.58 232.652 165.78 232.739 165.953C232.834 166.118 232.96 166.261 233.116 166.382C233.272 166.495 233.454 166.581 233.662 166.642C233.87 166.703 234.091 166.733 234.325 166.733ZM244.564 167.5C244.157 167.5 243.866 167.396 243.693 167.188C243.52 166.98 243.411 166.72 243.368 166.408H243.303C243.156 166.798 242.917 167.106 242.588 167.331C242.267 167.548 241.834 167.656 241.288 167.656C240.586 167.656 240.027 167.474 239.611 167.11C239.195 166.746 238.987 166.248 238.987 165.615C238.987 164.991 239.212 164.51 239.663 164.172C240.122 163.834 240.859 163.665 241.873 163.665H243.303V163.002C243.303 162.508 243.164 162.14 242.887 161.897C242.61 161.646 242.215 161.52 241.704 161.52C241.253 161.52 240.885 161.611 240.599 161.793C240.313 161.966 240.083 162.205 239.91 162.508L239.208 161.988C239.295 161.815 239.412 161.646 239.559 161.481C239.706 161.316 239.888 161.173 240.105 161.052C240.322 160.922 240.569 160.822 240.846 160.753C241.123 160.675 241.431 160.636 241.769 160.636C242.558 160.636 243.182 160.835 243.641 161.234C244.109 161.633 244.343 162.187 244.343 162.898V166.59H245.279V167.5H244.564ZM241.47 166.785C241.739 166.785 241.981 166.755 242.198 166.694C242.423 166.625 242.618 166.538 242.783 166.434C242.948 166.321 243.073 166.191 243.16 166.044C243.255 165.888 243.303 165.723 243.303 165.55V164.445H241.873C241.249 164.445 240.794 164.532 240.508 164.705C240.222 164.878 240.079 165.13 240.079 165.459V165.732C240.079 166.079 240.2 166.343 240.443 166.525C240.694 166.698 241.037 166.785 241.47 166.785ZM253.217 168.267C253.217 168.943 252.935 169.441 252.372 169.762C251.808 170.091 250.963 170.256 249.837 170.256C248.753 170.256 247.973 170.113 247.497 169.827C247.029 169.541 246.795 169.129 246.795 168.592C246.795 168.228 246.89 167.946 247.081 167.747C247.271 167.548 247.54 167.4 247.887 167.305V167.149C247.696 167.054 247.549 166.932 247.445 166.785C247.341 166.638 247.289 166.451 247.289 166.226C247.289 165.879 247.401 165.619 247.627 165.446C247.861 165.273 248.151 165.143 248.498 165.056V165.004C248.082 164.822 247.757 164.553 247.523 164.198C247.297 163.843 247.185 163.427 247.185 162.95C247.185 162.612 247.245 162.3 247.367 162.014C247.488 161.728 247.661 161.485 247.887 161.286C248.121 161.078 248.398 160.918 248.719 160.805C249.039 160.692 249.395 160.636 249.785 160.636C250.287 160.636 250.729 160.727 251.111 160.909V160.792C251.111 160.532 251.171 160.315 251.293 160.142C251.414 159.969 251.622 159.882 251.917 159.882H253.152V160.792H251.644V161.247C251.886 161.455 252.073 161.702 252.203 161.988C252.333 162.274 252.398 162.595 252.398 162.95C252.398 163.288 252.333 163.6 252.203 163.886C252.081 164.172 251.908 164.419 251.683 164.627C251.457 164.826 251.18 164.982 250.851 165.095C250.53 165.208 250.175 165.264 249.785 165.264C249.672 165.264 249.564 165.26 249.46 165.251C249.356 165.242 249.252 165.229 249.148 165.212C249.044 165.229 248.935 165.26 248.823 165.303C248.71 165.338 248.606 165.39 248.511 165.459C248.415 165.52 248.337 165.593 248.277 165.68C248.216 165.767 248.186 165.866 248.186 165.979C248.186 166.178 248.285 166.313 248.485 166.382C248.684 166.443 248.944 166.473 249.265 166.473H250.747C251.613 166.473 252.242 166.638 252.632 166.967C253.022 167.288 253.217 167.721 253.217 168.267ZM252.242 168.319C252.242 168.05 252.133 167.834 251.917 167.669C251.7 167.513 251.323 167.435 250.786 167.435H248.459C248.008 167.617 247.783 167.92 247.783 168.345C247.783 168.64 247.9 168.891 248.134 169.099C248.368 169.316 248.758 169.424 249.304 169.424H250.318C250.924 169.424 251.397 169.329 251.735 169.138C252.073 168.956 252.242 168.683 252.242 168.319ZM249.785 164.458C250.305 164.458 250.686 164.337 250.929 164.094C251.18 163.851 251.306 163.531 251.306 163.132V162.755C251.306 162.356 251.18 162.04 250.929 161.806C250.686 161.563 250.305 161.442 249.785 161.442C249.265 161.442 248.883 161.563 248.641 161.806C248.398 162.04 248.277 162.356 248.277 162.755V163.132C248.277 163.531 248.398 163.851 248.641 164.094C248.883 164.337 249.265 164.458 249.785 164.458ZM257.736 167.656C257.25 167.656 256.813 167.574 256.423 167.409C256.041 167.244 255.712 167.01 255.435 166.707C255.166 166.395 254.958 166.027 254.811 165.602C254.663 165.169 254.59 164.688 254.59 164.159C254.59 163.622 254.663 163.136 254.811 162.703C254.967 162.27 255.179 161.901 255.448 161.598C255.716 161.286 256.037 161.048 256.41 160.883C256.791 160.718 257.211 160.636 257.671 160.636C258.121 160.636 258.529 160.718 258.893 160.883C259.265 161.048 259.582 161.277 259.842 161.572C260.102 161.858 260.301 162.2 260.44 162.599C260.578 162.998 260.648 163.435 260.648 163.912V164.406H255.682V164.718C255.682 165.013 255.729 165.286 255.825 165.537C255.92 165.788 256.054 166.005 256.228 166.187C256.41 166.369 256.626 166.512 256.878 166.616C257.138 166.711 257.424 166.759 257.736 166.759C258.186 166.759 258.576 166.655 258.906 166.447C259.235 166.239 259.486 165.953 259.66 165.589L260.427 166.109C260.227 166.56 259.894 166.932 259.426 167.227C258.966 167.513 258.403 167.656 257.736 167.656ZM257.671 161.494C257.385 161.494 257.12 161.546 256.878 161.65C256.635 161.754 256.423 161.897 256.241 162.079C256.067 162.261 255.929 162.478 255.825 162.729C255.729 162.972 255.682 163.24 255.682 163.535V163.626H259.53V163.483C259.53 163.188 259.482 162.92 259.387 162.677C259.3 162.434 259.174 162.226 259.01 162.053C258.854 161.871 258.659 161.732 258.425 161.637C258.199 161.542 257.948 161.494 257.671 161.494Z" fill="#222222"/>
<rect x="381" y="148" width="1" height="28" fill="#5F5F5F"/>
<rect x="9" y="176" width="373" height="1" fill="#5F5F5F"/>
<rect x="1" y="194" width="400" height="1" fill="#5F5F5F"/>
<rect x="401" width="1" height="195" fill="#5F5F5F"/>
</g>
<defs>
<clipPath id="clip0_2087_71404">
<rect width="402" height="195" fill="white"/>
</clipPath>
</defs>
</svg>
