<svg width="1368" height="630" viewBox="0 0 1368 630" fill="none" xmlns="http://www.w3.org/2000/svg">
<g clip-path="url(#clip0_704_26522)">
<path d="M1339.64 389.142L1338.31 389.136L1338.29 391.803L1339.63 391.808L1339.64 389.142Z" fill="white"/>
<path d="M1343.64 389.158L1342.31 389.153L1342.29 391.819L1343.63 391.825L1343.64 389.158Z" fill="white"/>
<path d="M1342.31 387.82L1339.64 387.809L1339.64 389.142L1342.31 389.153L1342.31 387.82Z" fill="white"/>
<path d="M1342.29 391.82L1339.63 391.809L1339.62 393.142L1342.29 393.153L1342.29 391.82Z" fill="white"/>
<path d="M1337.01 379.798L1335.68 379.792L1335.67 382.459L1337 382.465L1337.01 379.798Z" fill="white"/>
<path d="M1339.67 382.475L1337 382.464L1336.99 383.798L1339.66 383.809L1339.67 382.475Z" fill="white"/>
<path d="M1341.01 379.814L1339.68 379.809L1339.67 382.475L1341 382.481L1341.01 379.814Z" fill="white"/>
<path d="M1339.68 378.475L1337.02 378.464L1337.01 379.798L1339.68 379.809L1339.68 378.475Z" fill="white"/>
<path d="M1339.61 397.142L1336.94 397.131L1336.93 398.464L1339.6 398.475L1339.61 397.142Z" fill="white"/>
<path d="M1340.93 398.481L1339.6 398.475L1339.59 401.142L1340.92 401.147L1340.93 398.481Z" fill="white"/>
<path d="M1336.93 398.464L1335.6 398.459L1335.59 401.126L1336.92 401.131L1336.93 398.464Z" fill="white"/>
<path d="M1339.59 401.142L1336.92 401.131L1336.92 402.464L1339.58 402.475L1339.59 401.142Z" fill="white"/>
<path d="M1330.26 399.77L1327.59 399.759L1327.59 401.093L1330.26 401.104L1330.26 399.77Z" fill="white"/>
<path d="M1330.25 403.77L1327.58 403.759L1327.57 405.093L1330.24 405.104L1330.25 403.77Z" fill="white"/>
<path d="M1331.59 401.109L1330.26 401.104L1330.24 403.77L1331.58 403.776L1331.59 401.109Z" fill="white"/>
<path d="M1327.59 401.093L1326.26 401.087L1326.24 403.754L1327.58 403.76L1327.59 401.093Z" fill="white"/>
<path d="M1331.69 377.109L1330.35 377.104L1330.34 379.771L1331.68 379.776L1331.69 377.109Z" fill="white"/>
<path d="M1327.69 377.093L1326.35 377.087L1326.34 379.754L1327.68 379.76L1327.69 377.093Z" fill="white"/>
<path d="M1330.36 375.771L1327.69 375.76L1327.69 377.093L1330.35 377.104L1330.36 375.771Z" fill="white"/>
<path d="M1330.34 379.771L1327.68 379.76L1327.67 381.093L1330.34 381.104L1330.34 379.771Z" fill="white"/>
<path d="M1334.31 387.787L1334.32 385.12L1331.65 385.109L1331.66 383.776L1326.33 383.754L1326.32 385.087L1323.66 385.077L1323.64 387.743L1322.31 387.738L1322.29 393.071L1323.62 393.077L1323.61 395.743L1326.28 395.754L1326.27 397.087L1331.61 397.109L1331.61 395.776L1334.28 395.787L1334.29 393.12L1335.62 393.126L1335.64 387.792L1334.31 387.787ZM1331.62 393.109L1331.62 394.443L1326.28 394.421L1326.29 393.087L1324.96 393.082L1324.98 387.749L1326.31 387.754L1326.32 386.421L1331.65 386.443L1331.64 387.776L1332.98 387.781L1332.96 393.115L1331.62 393.109Z" fill="white"/>
<path d="M1318.27 398.388L1316.93 398.382L1316.92 401.049L1318.26 401.054L1318.27 398.388Z" fill="white"/>
<path d="M1320.92 401.066L1318.26 401.055L1318.25 402.388L1320.92 402.399L1320.92 401.066Z" fill="white"/>
<path d="M1320.94 397.066L1318.27 397.055L1318.27 398.388L1320.93 398.399L1320.94 397.066Z" fill="white"/>
<path d="M1322.27 398.404L1320.93 398.399L1320.92 401.066L1322.26 401.071L1322.27 398.404Z" fill="white"/>
<path d="M1322.34 379.738L1321.01 379.732L1321 382.399L1322.33 382.405L1322.34 379.738Z" fill="white"/>
<path d="M1321.02 378.399L1318.35 378.388L1318.34 379.722L1321.01 379.732L1321.02 378.399Z" fill="white"/>
<path d="M1321 382.399L1318.33 382.388L1318.33 383.722L1320.99 383.732L1321 382.399Z" fill="white"/>
<path d="M1318.34 379.721L1317.01 379.716L1317 382.382L1318.33 382.388L1318.34 379.721Z" fill="white"/>
<path d="M1318.29 391.721L1315.63 391.71L1315.62 393.044L1318.29 393.055L1318.29 391.721Z" fill="white"/>
<path d="M1318.31 387.721L1315.64 387.71L1315.64 389.044L1318.31 389.055L1318.31 387.721Z" fill="white"/>
<path d="M1315.64 389.044L1314.31 389.038L1314.29 391.705L1315.63 391.71L1315.64 389.044Z" fill="white"/>
<path d="M1319.64 389.06L1318.31 389.055L1318.29 391.721L1319.63 391.727L1319.64 389.06Z" fill="white"/>
<path d="M62.1348 591.249L61.1348 591.245L61.1266 593.245L62.1266 593.249L62.1348 591.249Z" fill="white"/>
<path d="M65.1348 591.261L64.1348 591.257L64.1266 593.257L65.1266 593.261L65.1348 591.261Z" fill="white"/>
<path d="M64.1387 590.257L62.1387 590.249L62.1346 591.249L64.1346 591.257L64.1387 590.257Z" fill="white"/>
<path d="M64.126 593.257L62.126 593.249L62.1219 594.249L64.1219 594.257L64.126 593.257Z" fill="white"/>
<path d="M60.1631 584.24L59.1631 584.236L59.1549 586.236L60.1549 586.24L60.1631 584.24Z" fill="white"/>
<path d="M62.1553 586.249L60.1553 586.241L60.1512 587.241L62.1512 587.249L62.1553 586.249Z" fill="white"/>
<path d="M63.1631 584.253L62.1631 584.249L62.1549 586.249L63.1549 586.253L63.1631 584.253Z" fill="white"/>
<path d="M62.167 583.249L60.167 583.241L60.1629 584.241L62.1629 584.249L62.167 583.249Z" fill="white"/>
<path d="M62.1103 597.249L60.1104 597.241L60.1063 598.241L62.1062 598.249L62.1103 597.249Z" fill="white"/>
<path d="M63.1055 598.253L62.1055 598.249L62.0973 600.249L63.0973 600.253L63.1055 598.253Z" fill="white"/>
<path d="M60.1055 598.24L59.1055 598.236L59.0973 600.236L60.0973 600.24L60.1055 598.24Z" fill="white"/>
<path d="M62.0976 600.249L60.0977 600.241L60.0936 601.241L62.0935 601.249L62.0976 600.249Z" fill="white"/>
<path d="M55.1015 599.22L53.1016 599.212L53.0975 600.212L55.0975 600.22L55.1015 599.22Z" fill="white"/>
<path d="M55.0898 602.22L53.0898 602.212L53.0858 603.212L55.0857 603.22L55.0898 602.22Z" fill="white"/>
<path d="M56.0976 600.224L55.0977 600.22L55.0895 602.22L56.0895 602.224L56.0976 600.224Z" fill="white"/>
<path d="M53.0976 600.212L52.0977 600.208L52.0895 602.208L53.0895 602.212L53.0976 600.212Z" fill="white"/>
<path d="M56.1719 582.224L55.1719 582.22L55.1637 584.22L56.1637 584.224L56.1719 582.224Z" fill="white"/>
<path d="M53.1719 582.212L52.1719 582.208L52.1637 584.208L53.1637 584.212L53.1719 582.212Z" fill="white"/>
<path d="M55.1758 581.22L53.1758 581.212L53.1717 582.212L55.1717 582.22L55.1758 581.22Z" fill="white"/>
<path d="M55.1631 584.22L53.1631 584.212L53.159 585.212L55.159 585.22L55.1631 584.22Z" fill="white"/>
<path d="M58.139 590.233L58.1472 588.233L56.1472 588.224L56.1513 587.224L52.1513 587.208L52.1472 588.208L50.1473 588.2L50.1391 590.2L49.1391 590.196L49.1227 594.196L50.1227 594.2L50.1145 596.2L52.1145 596.208L52.1104 597.208L56.1104 597.224L56.1145 596.224L58.1145 596.233L58.1226 594.233L59.1226 594.237L59.139 590.237L58.139 590.233ZM56.1227 594.224L56.1186 595.224L52.1186 595.208L52.1227 594.208L51.1227 594.204L51.1391 590.204L52.1391 590.208L52.1432 589.208L56.1431 589.224L56.139 590.224L57.139 590.229L57.1227 594.228L56.1227 594.224Z" fill="white"/>
<path d="M46.1064 598.183L45.1064 598.179L45.0983 600.179L46.0983 600.183L46.1064 598.183Z" fill="white"/>
<path d="M48.0976 600.191L46.0977 600.183L46.0936 601.183L48.0935 601.191L48.0976 600.191Z" fill="white"/>
<path d="M48.1103 597.191L46.1104 597.183L46.1063 598.183L48.1062 598.191L48.1103 597.191Z" fill="white"/>
<path d="M49.1064 598.195L48.1064 598.191L48.0983 600.191L49.0983 600.195L49.1064 598.195Z" fill="white"/>
<path d="M49.1631 584.195L48.1631 584.191L48.1549 586.191L49.1549 586.195L49.1631 584.195Z" fill="white"/>
<path d="M48.167 583.191L46.167 583.183L46.1629 584.183L48.1629 584.191L48.167 583.191Z" fill="white"/>
<path d="M48.1553 586.191L46.1553 586.183L46.1512 587.183L48.1512 587.191L48.1553 586.191Z" fill="white"/>
<path d="M46.1631 584.183L45.1631 584.179L45.1549 586.179L46.1549 586.183L46.1631 584.183Z" fill="white"/>
<path d="M46.1269 593.183L44.127 593.175L44.1229 594.175L46.1228 594.183L46.1269 593.183Z" fill="white"/>
<path d="M46.1387 590.183L44.1387 590.175L44.1346 591.175L46.1346 591.183L46.1387 590.183Z" fill="white"/>
<path d="M44.1348 591.175L43.1348 591.171L43.1266 593.171L44.1266 593.175L44.1348 591.175Z" fill="white"/>
<path d="M47.1348 591.187L46.1348 591.183L46.1266 593.183L47.1266 593.187L47.1348 591.187Z" fill="white"/>
<g clip-path="url(#clip1_704_26522)">
<path d="M1064.82 502.15L1064.11 502.855L1063.41 502.145L1061.99 503.553L1062.69 504.263L1061.98 504.967L1062.69 505.677L1061.98 506.381L1063.38 507.801L1064.09 507.097L1064.8 507.807L1065.51 507.103L1066.21 507.813L1067.63 506.405L1066.93 505.695L1067.64 504.99L1066.93 504.28L1067.64 503.576L1066.24 502.156L1065.53 502.86L1064.82 502.15ZM1066.22 504.985L1064.8 506.393L1063.4 504.973L1064.82 503.565L1066.22 504.985Z" fill="white"/>
<path d="M1070.5 496.517L1069.79 497.221L1069.09 496.511L1067.67 497.92L1068.37 498.63L1067.66 499.334L1068.37 500.044L1067.66 500.748L1069.06 502.168L1069.77 501.464L1070.48 502.174L1071.19 501.47L1071.89 502.18L1073.31 500.771L1072.61 500.061L1073.32 499.357L1072.61 498.647L1073.32 497.943L1071.92 496.523L1071.21 497.227L1070.5 496.517ZM1071.9 499.351L1070.48 500.76L1069.08 499.34L1070.5 497.931L1071.9 499.351Z" fill="white"/>
<path d="M1076.89 491.593L1076.18 490.883L1075.47 491.588L1074.77 490.878L1073.35 492.286L1074.05 492.996L1073.34 493.7L1074.05 494.41L1073.34 495.114L1074.74 496.534L1075.45 495.83L1076.16 496.54L1076.87 495.836L1077.57 496.546L1078.99 495.137L1078.29 494.427L1079 493.723L1078.29 493.013L1079 492.309L1077.6 490.889L1076.89 491.593ZM1076.16 495.126L1074.76 493.706L1076.18 492.297L1077.58 493.717L1076.16 495.126Z" fill="white"/>
</g>
<g clip-path="url(#clip2_704_26522)">
<path d="M273.509 576.913L272.799 577.617L272.095 576.907L270.675 578.315L271.379 579.025L270.669 579.729L271.373 580.439L270.663 581.144L272.072 582.564L272.782 581.859L273.486 582.569L274.196 581.865L274.9 582.575L276.32 581.167L275.616 580.457L276.326 579.753L275.622 579.043L276.332 578.338L274.923 576.918L274.213 577.623L273.509 576.913ZM274.912 579.747L273.492 581.155L272.083 579.735L273.503 578.327L274.912 579.747Z" fill="white"/>
<path d="M279.189 571.279L278.479 571.983L277.775 571.274L276.355 572.682L277.059 573.392L276.349 574.096L277.053 574.806L276.343 575.51L277.751 576.93L278.461 576.226L279.166 576.936L279.876 576.232L280.58 576.942L282 575.533L281.296 574.823L282.006 574.119L281.301 573.409L282.011 572.705L280.603 571.285L279.893 571.989L279.189 571.279ZM280.591 574.113L279.171 575.522L277.763 574.102L279.183 572.693L280.591 574.113Z" fill="white"/>
<path d="M285.574 566.355L284.869 565.646L284.159 566.35L283.455 565.64L282.035 567.048L282.739 567.758L282.029 568.462L282.734 569.172L282.024 569.877L283.432 571.297L284.142 570.592L284.846 571.302L285.556 570.598L286.26 571.308L287.68 569.9L286.976 569.19L287.686 568.485L286.982 567.775L287.692 567.071L286.284 565.651L285.574 566.355ZM284.852 569.888L283.444 568.468L284.864 567.06L286.272 568.48L284.852 569.888Z" fill="white"/>
</g>
<g clip-path="url(#clip3_704_26522)">
<path d="M1344.39 120.291L1343.68 120.995L1342.97 120.285L1341.55 121.694L1342.26 122.404L1341.55 123.108L1342.25 123.818L1341.54 124.522L1342.95 125.942L1343.66 125.238L1344.36 125.948L1345.07 125.244L1345.78 125.954L1347.2 124.545L1346.49 123.835L1347.2 123.131L1346.5 122.421L1347.21 121.717L1345.8 120.297L1345.09 121.001L1344.39 120.291ZM1345.79 123.125L1344.37 124.534L1342.96 123.114L1344.38 121.705L1345.79 123.125Z" fill="white"/>
<path d="M1350.07 114.658L1349.36 115.362L1348.65 114.652L1347.23 116.06L1347.94 116.77L1347.23 117.475L1347.93 118.185L1347.22 118.889L1348.63 120.309L1349.34 119.605L1350.04 120.315L1350.75 119.61L1351.46 120.32L1352.88 118.912L1352.17 118.202L1352.88 117.498L1352.18 116.788L1352.89 116.083L1351.48 114.663L1350.77 115.368L1350.07 114.658ZM1351.47 117.492L1350.05 118.9L1348.64 117.48L1350.06 116.072L1351.47 117.492Z" fill="white"/>
<path d="M1356.45 109.734L1355.75 109.024L1355.04 109.728L1354.33 109.018L1352.91 110.427L1353.62 111.137L1352.91 111.841L1353.61 112.551L1352.9 113.255L1354.31 114.675L1355.02 113.971L1355.72 114.681L1356.43 113.977L1357.14 114.687L1358.56 113.278L1357.85 112.568L1358.56 111.864L1357.86 111.154L1358.57 110.45L1357.16 109.03L1356.45 109.734ZM1355.73 113.267L1354.32 111.847L1355.74 110.438L1357.15 111.858L1355.73 113.267Z" fill="white"/>
</g>
<g clip-path="url(#clip4_704_26522)">
<path d="M67.1966 164.064L66.4866 164.769L65.7824 164.059L64.3624 165.467L65.0666 166.177L64.3566 166.881L65.0608 167.591L64.3508 168.295L65.7592 169.715L66.4692 169.011L67.1734 169.721L67.8834 169.017L68.5876 169.727L70.0076 168.319L69.3034 167.609L70.0134 166.904L69.3092 166.194L70.0192 165.49L68.6108 164.07L67.9008 164.774L67.1966 164.064ZM68.5992 166.899L67.1792 168.307L65.7708 166.887L67.1908 165.479L68.5992 166.899Z" fill="white"/>
<path d="M72.8763 158.431L72.1663 159.135L71.462 158.425L70.0421 159.834L70.7463 160.544L70.0363 161.248L70.7405 161.958L70.0305 162.662L71.4389 164.082L72.1489 163.378L72.8531 164.088L73.5631 163.384L74.2673 164.094L75.6873 162.685L74.9831 161.975L75.6931 161.271L74.9889 160.561L75.6989 159.857L74.2905 158.437L73.5805 159.141L72.8763 158.431ZM74.2789 161.265L72.8589 162.674L71.4505 161.254L72.8705 159.845L74.2789 161.265Z" fill="white"/>
<path d="M79.2611 153.507L78.5569 152.797L77.8469 153.502L77.1427 152.792L75.7227 154.2L76.4269 154.91L75.7169 155.614L76.4211 156.324L75.7111 157.028L77.1196 158.448L77.8296 157.744L78.5338 158.454L79.2438 157.75L79.948 158.46L81.368 157.052L80.6637 156.342L81.3737 155.637L80.6695 154.927L81.3795 154.223L79.9711 152.803L79.2611 153.507ZM78.5396 157.04L77.1311 155.62L78.5511 154.212L79.9595 155.632L78.5396 157.04Z" fill="white"/>
</g>
<path d="M170.751 440.692L168.751 440.684L168.747 441.684L170.747 441.692L170.751 440.692Z" fill="white"/>
<path d="M171.76 438.696L170.76 438.692L170.752 440.692L171.752 440.696L171.76 438.696Z" fill="white"/>
<path d="M170.764 437.692L168.764 437.684L168.76 438.684L170.76 438.692L170.764 437.692Z" fill="white"/>
<path d="M168.76 438.684L167.76 438.68L167.752 440.68L168.752 440.684L168.76 438.684Z" fill="white"/>
<path d="M167.727 446.68L165.727 446.671L165.722 447.671L167.722 447.68L167.727 446.68Z" fill="white"/>
<path d="M168.735 444.684L167.735 444.68L167.727 446.68L168.727 446.684L168.735 444.684Z" fill="white"/>
<path d="M167.739 443.68L165.739 443.671L165.735 444.671L167.735 444.68L167.739 443.68Z" fill="white"/>
<path d="M165.735 444.672L164.735 444.667L164.727 446.667L165.727 446.672L165.735 444.672Z" fill="white"/>
<path d="M159.723 447.647L158.723 447.643L158.714 449.643L159.714 449.647L159.723 447.647Z" fill="white"/>
<path d="M161.715 449.655L159.715 449.647L159.711 450.647L161.711 450.655L161.715 449.655Z" fill="white"/>
<path d="M162.723 447.659L161.723 447.655L161.714 449.655L162.714 449.659L162.723 447.659Z" fill="white"/>
<path d="M161.727 446.655L159.727 446.647L159.722 447.647L161.722 447.655L161.727 446.655Z" fill="white"/>
<path d="M155.727 446.631L153.727 446.623L153.722 447.623L155.722 447.631L155.727 446.631Z" fill="white"/>
<path d="M162.797 429.659L161.797 429.655L161.789 431.655L162.789 431.659L162.797 429.659Z" fill="white"/>
<path d="M161.788 431.655L159.788 431.647L159.784 432.647L161.784 432.655L161.788 431.655Z" fill="white"/>
<path d="M161.801 428.655L159.801 428.647L159.797 429.647L161.797 429.655L161.801 428.655Z" fill="white"/>
<path d="M159.797 429.647L158.797 429.643L158.789 431.643L159.789 431.647L159.797 429.647Z" fill="white"/>
<path d="M156.735 444.634L155.735 444.63L155.727 446.63L156.727 446.634L156.735 444.634Z" fill="white"/>
<path d="M155.739 443.631L153.739 443.623L153.735 444.623L155.735 444.631L155.739 443.631Z" fill="white"/>
<path d="M153.735 444.622L152.735 444.618L152.727 446.618L153.727 446.622L153.735 444.622Z" fill="white"/>
<path d="M153.76 438.622L152.76 438.618L152.752 440.618L153.752 440.622L153.76 438.622Z" fill="white"/>
<path d="M156.784 432.635L155.784 432.63L155.776 434.63L156.776 434.635L156.784 432.635Z" fill="white"/>
<path d="M155.776 434.63L153.776 434.622L153.772 435.622L155.772 435.63L155.776 434.63Z" fill="white"/>
<path d="M155.788 431.63L153.788 431.622L153.784 432.622L155.784 432.63L155.788 431.63Z" fill="white"/>
<path d="M153.784 432.622L152.784 432.618L152.776 434.618L153.776 434.622L153.784 432.622Z" fill="white"/>
<path d="M168.784 432.684L167.784 432.68L167.776 434.68L168.776 434.684L168.784 432.684Z" fill="white"/>
<path d="M167.776 434.68L165.776 434.672L165.772 435.672L167.772 435.68L167.776 434.68Z" fill="white"/>
<path d="M167.788 431.68L165.788 431.672L165.784 432.672L167.784 432.68L167.788 431.68Z" fill="white"/>
<path d="M165.784 432.672L164.784 432.667L164.776 434.667L165.776 434.672L165.784 432.672Z" fill="white"/>
<path d="M152.764 437.619L150.764 437.61L150.76 438.61L152.76 438.619L152.764 437.619Z" fill="white"/>
<path d="M152.752 440.619L150.752 440.61L150.748 441.61L152.748 441.619L152.752 440.619Z" fill="white"/>
<path d="M150.76 438.61L149.76 438.606L149.752 440.606L150.752 440.61L150.76 438.61Z" fill="white"/>
<path d="M1230.74 202.028L1231.74 202.032L1231.73 204.032L1230.73 204.028L1230.72 205.028L1228.72 205.02L1228.73 204.02L1227.73 204.016L1227.74 202.016L1228.74 202.02L1228.74 201.02L1230.74 201.028L1230.74 202.028Z" fill="white"/>
<path d="M1242.74 202.077L1243.74 202.081L1243.73 204.081L1242.73 204.077L1242.72 205.077L1240.72 205.069L1240.73 204.069L1239.73 204.065L1239.74 202.065L1240.74 202.069L1240.74 201.069L1242.74 201.077L1242.74 202.077Z" fill="white"/>
<path d="M1236.75 199.053L1237.75 199.057L1237.74 201.057L1236.74 201.053L1236.74 202.053L1234.74 202.045L1234.74 201.045L1233.74 201.041L1233.75 199.041L1234.75 199.045L1234.75 198.045L1236.75 198.053L1236.75 199.053Z" fill="white"/>
<path d="M1227.7 211.016L1225.7 211.007L1225.7 210.007L1224.7 210.003L1224.71 208.003L1225.71 208.008L1225.72 207.008L1227.72 207.016L1227.71 208.016L1228.71 208.02L1228.7 210.02L1227.7 210.016L1227.7 211.016Z" fill="white"/>
<path d="M1230.69 214.028L1231.69 214.032L1231.68 216.032L1230.68 216.028L1230.68 217.028L1228.68 217.02L1228.68 216.02L1227.68 216.016L1227.69 214.016L1228.69 214.02L1228.69 213.02L1230.69 213.028L1230.69 214.028Z" fill="white"/>
<path d="M1246.71 208.094L1246.7 210.093L1245.7 210.089L1245.7 211.089L1243.7 211.081L1243.7 210.081L1242.7 210.077L1242.71 208.077L1243.71 208.081L1243.72 207.081L1245.72 207.089L1245.71 208.089L1246.71 208.094Z" fill="white"/>
<path d="M1242.69 214.077L1243.69 214.081L1243.68 216.081L1242.68 216.077L1242.68 217.077L1240.68 217.069L1240.68 216.069L1239.68 216.065L1239.69 214.065L1240.69 214.069L1240.69 213.069L1242.69 213.077L1242.69 214.077Z" fill="white"/>
<path d="M1236.68 217.052L1237.68 217.056L1237.67 219.056L1236.67 219.052L1236.66 220.052L1234.66 220.044L1234.67 219.044L1233.67 219.04L1233.68 217.04L1234.68 217.044L1234.68 216.044L1236.68 216.052L1236.68 217.052Z" fill="white"/>
<path d="M1149.07 609.697L1150.07 609.701L1150.06 611.701L1149.06 611.697L1149.06 612.697L1147.06 612.689L1147.06 611.689L1146.06 611.685L1146.07 609.685L1147.07 609.689L1147.07 608.689L1149.07 608.697L1149.07 609.697Z" fill="white"/>
<path d="M1161.07 609.746L1162.07 609.75L1162.06 611.75L1161.06 611.746L1161.06 612.746L1159.06 612.738L1159.06 611.738L1158.06 611.734L1158.07 609.734L1159.07 609.738L1159.07 608.738L1161.07 608.746L1161.07 609.746Z" fill="white"/>
<path d="M1155.08 606.722L1156.08 606.726L1156.07 608.726L1155.07 608.722L1155.07 609.722L1153.07 609.714L1153.07 608.714L1152.07 608.709L1152.08 606.709L1153.08 606.714L1153.08 605.714L1155.08 605.722L1155.08 606.722Z" fill="white"/>
<path d="M1146.03 618.685L1144.03 618.676L1144.04 617.676L1143.04 617.672L1143.04 615.672L1144.04 615.676L1144.05 614.676L1146.05 614.685L1146.04 615.685L1147.04 615.689L1147.04 617.689L1146.04 617.685L1146.03 618.685Z" fill="white"/>
<path d="M1149.02 621.697L1150.02 621.701L1150.01 623.701L1149.01 623.697L1149.01 624.697L1147.01 624.689L1147.01 623.689L1146.01 623.685L1146.02 621.685L1147.02 621.689L1147.02 620.689L1149.02 620.697L1149.02 621.697Z" fill="white"/>
<path d="M1165.04 615.762L1165.04 617.762L1164.04 617.758L1164.03 618.758L1162.03 618.75L1162.04 617.75L1161.04 617.746L1161.04 615.746L1162.04 615.75L1162.05 614.75L1164.05 614.758L1164.04 615.758L1165.04 615.762Z" fill="white"/>
<path d="M1161.02 621.746L1162.02 621.75L1162.01 623.75L1161.01 623.746L1161.01 624.746L1159.01 624.738L1159.01 623.738L1158.01 623.734L1158.02 621.734L1159.02 621.738L1159.02 620.738L1161.02 620.746L1161.02 621.746Z" fill="white"/>
<path d="M1155.01 624.721L1156.01 624.725L1156 626.725L1155 626.721L1154.99 627.721L1152.99 627.713L1153 626.713L1152 626.709L1152.01 624.709L1153.01 624.713L1153.01 623.713L1155.01 623.721L1155.01 624.721Z" fill="white"/>
<path d="M183.355 251.399L186.195 248.582L189.011 251.422L186.171 254.239L183.355 251.399Z" fill="white"/>
<path d="M189.011 251.422L191.851 248.605L194.668 251.445L191.828 254.262L189.011 251.422Z" fill="white"/>
<path d="M188.988 257.079L191.828 254.262L194.645 257.102L191.805 259.919L188.988 257.079Z" fill="white"/>
<path d="M183.331 257.056L186.171 254.239L188.988 257.079L186.148 259.896L183.331 257.056Z" fill="white"/>
<path d="M625.06 568.724L627.9 565.907L630.717 568.747L627.877 571.564L625.06 568.724Z" fill="white"/>
<path d="M630.717 568.747L633.556 565.93L636.373 568.77L633.533 571.587L630.717 568.747Z" fill="white"/>
<path d="M630.693 574.404L633.533 571.587L636.35 574.427L633.51 577.244L630.693 574.404Z" fill="white"/>
<path d="M625.037 574.381L627.877 571.564L630.693 574.404L627.853 577.22L625.037 574.381Z" fill="white"/>
<path d="M878.84 420.59L882.84 420.606L882.823 424.606L878.823 424.59L878.84 420.59Z" fill="white"/>
<path d="M882.823 424.606L886.823 424.622L886.807 428.622L882.807 428.606L882.823 424.606Z" fill="white"/>
<path d="M878.807 428.59L882.807 428.606L882.791 432.606L878.791 432.59L878.807 428.59Z" fill="white"/>
<path d="M874.823 424.573L878.823 424.59L878.807 428.59L874.807 428.573L874.823 424.573Z" fill="white"/>
<path d="M1244.18 583.086L1248.18 583.103L1248.16 587.103L1244.16 587.086L1244.18 583.086Z" fill="white"/>
<path d="M1248.16 587.103L1252.16 587.119L1252.14 591.119L1248.14 591.102L1248.16 587.103Z" fill="white"/>
<path d="M1244.14 591.086L1248.14 591.102L1248.13 595.102L1244.13 595.086L1244.14 591.086Z" fill="white"/>
<path d="M1240.16 587.07L1244.16 587.086L1244.14 591.086L1240.14 591.07L1240.16 587.07Z" fill="white"/>
<path d="M1234.46 25.0418L1238.46 25.0581L1238.45 29.0581L1234.45 29.0417L1234.46 25.0418Z" fill="white"/>
<path d="M1238.45 29.0581L1242.45 29.0745L1242.43 33.0744L1238.43 33.0581L1238.45 29.0581Z" fill="white"/>
<path d="M1234.43 33.0417L1238.43 33.0581L1238.41 37.058L1234.41 37.0417L1234.43 33.0417Z" fill="white"/>
<path d="M1230.45 29.0254L1234.45 29.0417L1234.43 33.0417L1230.43 33.0253L1230.45 29.0254Z" fill="white"/>
<path d="M12.2052 11.3532L13.828 9.74355L15.4377 11.3664L13.8148 12.976L12.2052 11.3532Z" fill="white"/>
<path d="M7.37635 6.48463L8.99919 4.87501L12.2184 8.1207L10.5956 9.73032L7.37635 6.48463Z" fill="white"/>
<path d="M15.4244 14.5989L17.0473 12.9892L20.2665 16.2349L18.6437 17.8445L15.4244 14.5989Z" fill="white"/>
<path d="M8.94628 17.8049L7.33666 16.182L10.5824 12.9628L12.192 14.5856L8.94628 17.8049Z" fill="white"/>
<path d="M17.0605 9.75678L15.4509 8.13393L18.6966 4.9147L20.3062 6.53754L17.0605 9.75678Z" fill="white"/>
<path d="M17.8066 391.923L20.0923 391.932L20.0829 394.218L17.7972 394.208L17.8066 391.923Z" fill="white"/>
<path d="M17.8346 385.066L20.1203 385.075L20.1016 389.646L17.8159 389.637L17.8346 385.066Z" fill="white"/>
<path d="M17.7879 396.494L20.0735 396.503L20.0548 401.075L17.7691 401.066L17.7879 396.494Z" fill="white"/>
<path d="M10.9401 394.18L10.9495 391.895L15.5209 391.913L15.5115 394.199L10.9401 394.18Z" fill="white"/>
<path d="M22.3686 394.227L22.378 391.941L26.9493 391.96L26.94 394.246L22.3686 394.227Z" fill="white"/>
<path d="M1120.8 333.771L1123.01 333.189L1123.59 335.399L1121.38 335.981L1120.8 333.771Z" fill="white"/>
<path d="M1119.05 327.141L1121.26 326.558L1122.42 330.978L1120.21 331.561L1119.05 327.141Z" fill="white"/>
<path d="M1121.96 338.192L1124.17 337.609L1125.34 342.03L1123.13 342.612L1121.96 338.192Z" fill="white"/>
<path d="M1114.75 337.729L1114.17 335.519L1118.59 334.354L1119.17 336.564L1114.75 337.729Z" fill="white"/>
<path d="M1125.8 334.816L1125.22 332.606L1129.64 331.441L1130.22 333.651L1125.8 334.816Z" fill="white"/>
<path d="M526.565 452.005L528.851 452.015L528.842 454.3L526.556 454.291L526.565 452.005Z" fill="white"/>
<path d="M526.593 445.148L528.879 445.158L528.86 449.729L526.575 449.72L526.593 445.148Z" fill="white"/>
<path d="M526.547 456.577L528.832 456.586L528.814 461.157L526.528 461.148L526.547 456.577Z" fill="white"/>
<path d="M519.699 454.263L519.708 451.977L524.28 451.996L524.27 454.282L519.699 454.263Z" fill="white"/>
<path d="M531.127 454.31L531.137 452.024L535.708 452.043L535.699 454.328L531.127 454.31Z" fill="white"/>
</g>
<defs>
<clipPath id="clip0_704_26522">
<rect width="1364.94" height="624" fill="white" transform="translate(2.55371) rotate(0.234482)"/>
</clipPath>
<clipPath id="clip1_704_26522">
<rect width="24" height="24" fill="white" transform="translate(1053.52 499.276) rotate(-44.7655)"/>
</clipPath>
<clipPath id="clip2_704_26522">
<rect width="24" height="24" fill="white" transform="translate(262.207 574.038) rotate(-44.7655)"/>
</clipPath>
<clipPath id="clip3_704_26522">
<rect width="24" height="24" fill="white" transform="translate(1333.08 117.417) rotate(-44.7655)"/>
</clipPath>
<clipPath id="clip4_704_26522">
<rect width="24" height="24" fill="white" transform="translate(55.8945 161.19) rotate(-44.7655)"/>
</clipPath>
</defs>
</svg>
