<svg width="300" height="158" viewBox="0 0 300 158" fill="none" xmlns="http://www.w3.org/2000/svg">
<g clip-path="url(#clip0_193_257685)">
<path d="M6 23.2135V19.1067L9.78498 15H291.655L294 19.1067V147.549L289.68 152.007H10.5L6 148.096V23.2135Z" fill="white"/>
<path d="M294 52V12L290.816 6L9.18367 6L6 11.9764V15.8013V52H294Z" fill="#CBCBCB"/>
<path d="M294 6H288V12H294V6Z" fill="#365969"/>
<path d="M294 152H288V146H294V152Z" fill="#365969"/>
<path d="M12 6H6V12H12V6Z" fill="#365969"/>
<path d="M12 152H6V146H12V152Z" fill="#365969"/>
<g clip-path="url(#clip1_193_257685)">
<path d="M-24 0H18V6H-24V0Z" fill="#365969"/>
<path d="M-18 0H24V6H-18V0Z" fill="#365969"/>
<path d="M-12 0H30V6H-12V0Z" fill="#365969"/>
<path d="M-6 0H36V6H-6V0Z" fill="#365969"/>
<path d="M6 0H48V6H6V0Z" fill="#365969"/>
<path d="M12 0H54V6H12V0Z" fill="#365969"/>
<path d="M18 0H60V6H18V0Z" fill="#365969"/>
<path d="M24 0H66V6H24V0Z" fill="#365969"/>
<path d="M30 0H72V6H30V0Z" fill="#365969"/>
<path d="M36 0H78V6H36V0Z" fill="#365969"/>
<path d="M42 0H84V6H42V0Z" fill="#365969"/>
<path d="M48 0H90V6H48V0Z" fill="#365969"/>
<path d="M54 0H96V6H54V0Z" fill="#365969"/>
<path d="M60 0H102V6H60V0Z" fill="#365969"/>
<path d="M66 0H108V6H66V0Z" fill="#365969"/>
<path d="M72 0H114V6H72V0Z" fill="#365969"/>
<path d="M78 0H120V6H78V0Z" fill="#365969"/>
<path d="M84 0H126V6H84V0Z" fill="#365969"/>
<path d="M90 0H132V6H90V0Z" fill="#365969"/>
<path d="M96 0H138V6H96V0Z" fill="#365969"/>
<path d="M102 0H144V6H102V0Z" fill="#365969"/>
<path d="M108 0H150V6H108V0Z" fill="#365969"/>
<path d="M114 0H156V6H114V0Z" fill="#365969"/>
<path d="M120 0H162V6H120V0Z" fill="#365969"/>
<path d="M126 0H168V6H126V0Z" fill="#365969"/>
<path d="M132 0H174V6H132V0Z" fill="#365969"/>
<path d="M138 0H180V6H138V0Z" fill="#365969"/>
<path d="M144 0H186V6H144V0Z" fill="#365969"/>
<path d="M150 0H192V6H150V0Z" fill="#365969"/>
<path d="M156 0H198V6H156V0Z" fill="#365969"/>
<path d="M162 0H204V6H162V0Z" fill="#365969"/>
<path d="M168 0H210V6H168V0Z" fill="#365969"/>
<path d="M174 0H216V6H174V0Z" fill="#365969"/>
<path d="M180 0H222V6H180V0Z" fill="#365969"/>
<path d="M186 0H228V6H186V0Z" fill="#365969"/>
<path d="M192 0H234V6H192V0Z" fill="#365969"/>
<path d="M198 0H240V6H198V0Z" fill="#365969"/>
<path d="M204 0H246V6H204V0Z" fill="#365969"/>
<path d="M210 0H252V6H210V0Z" fill="#365969"/>
<path d="M216 0H258V6H216V0Z" fill="#365969"/>
<path d="M222 0H264V6H222V0Z" fill="#365969"/>
<path d="M228 0H270V6H228V0Z" fill="#365969"/>
<path d="M234 0H276V6H234V0Z" fill="#365969"/>
<path d="M240 0H282V6H240V0Z" fill="#365969"/>
<path d="M246 0H288V6H246V0Z" fill="#365969"/>
<path d="M252 0H294V6H252V0Z" fill="#365969"/>
<path d="M258 0H300V6H258V0Z" fill="#365969"/>
<path d="M264 0H306V6H264V0Z" fill="#365969"/>
<path d="M270 0H312V6H270V0Z" fill="#365969"/>
<path d="M276 0H318V6H276V0Z" fill="#365969"/>
<path d="M282 0H324V6H282V0Z" fill="#365969"/>
</g>
<g clip-path="url(#clip2_193_257685)">
<path d="M-24 158H18V152H-24V158Z" fill="#365969"/>
<path d="M-18 158H24V152H-18V158Z" fill="#365969"/>
<path d="M-12 158H30V152H-12V158Z" fill="#365969"/>
<path d="M-6 158H36V152H-6V158Z" fill="#365969"/>
<path d="M0 158H42V152H0V158Z" fill="#365969"/>
<path d="M6 158H48V152H6V158Z" fill="#365969"/>
<path d="M12 158H54V152H12V158Z" fill="#365969"/>
<path d="M18 158H60V152H18V158Z" fill="#365969"/>
<path d="M24 158H66V152H24V158Z" fill="#365969"/>
<path d="M30 158H72V152H30V158Z" fill="#365969"/>
<path d="M36 158H78V152H36V158Z" fill="#365969"/>
<path d="M42 158H84V152H42V158Z" fill="#365969"/>
<path d="M48 158H90V152H48V158Z" fill="#365969"/>
<path d="M54 158H96V152H54V158Z" fill="#365969"/>
<path d="M60 158H102V152H60V158Z" fill="#365969"/>
<path d="M66 158H108V152H66V158Z" fill="#365969"/>
<path d="M72 158H114V152H72V158Z" fill="#365969"/>
<path d="M78 158H120V152H78V158Z" fill="#365969"/>
<path d="M84 158H126V152H84V158Z" fill="#365969"/>
<path d="M90 158H132V152H90V158Z" fill="#365969"/>
<path d="M96 158H138V152H96V158Z" fill="#365969"/>
<path d="M102 158H144V152H102V158Z" fill="#365969"/>
<path d="M108 158H150V152H108V158Z" fill="#365969"/>
<path d="M114 158H156V152H114V158Z" fill="#365969"/>
<path d="M120 158H162V152H120V158Z" fill="#365969"/>
<path d="M126 158H168V152H126V158Z" fill="#365969"/>
<path d="M132 158H174V152H132V158Z" fill="#365969"/>
<path d="M138 158H180V152H138V158Z" fill="#365969"/>
<path d="M144 158H186V152H144V158Z" fill="#365969"/>
<path d="M150 158H192V152H150V158Z" fill="#365969"/>
<path d="M156 158H198V152H156V158Z" fill="#365969"/>
<path d="M162 158H204V152H162V158Z" fill="#365969"/>
<path d="M168 158H210V152H168V158Z" fill="#365969"/>
<path d="M174 158H216V152H174V158Z" fill="#365969"/>
<path d="M180 158H222V152H180V158Z" fill="#365969"/>
<path d="M186 158H228V152H186V158Z" fill="#365969"/>
<path d="M192 158H234V152H192V158Z" fill="#365969"/>
<path d="M198 158H240V152H198V158Z" fill="#365969"/>
<path d="M204 158H246V152H204V158Z" fill="#365969"/>
<path d="M210 158H252V152H210V158Z" fill="#365969"/>
<path d="M216 158H258V152H216V158Z" fill="#365969"/>
<path d="M222 158H264V152H222V158Z" fill="#365969"/>
<path d="M228 158H270V152H228V158Z" fill="#365969"/>
<path d="M234 158H276V152H234V158Z" fill="#365969"/>
<path d="M240 158H282V152H240V158Z" fill="#365969"/>
<path d="M246 158H288V152H246V158Z" fill="#365969"/>
<path d="M252 158H294V152H252V158Z" fill="#365969"/>
<path d="M258 158H300V152H258V158Z" fill="#365969"/>
<path d="M264 158H306V152H264V158Z" fill="#365969"/>
<path d="M270 158H312V152H270V158Z" fill="#365969"/>
<path d="M276 158H318V152H276V158Z" fill="#365969"/>
<path d="M282 158H324V152H282V158Z" fill="#365969"/>
</g>
<g clip-path="url(#clip3_193_257685)">
<path d="M-30 58H12V52H-30V58Z" fill="#F3F3F3"/>
<path d="M-24 58H18V52H-24V58Z" fill="#F3F3F3"/>
<path d="M-18 58H24V52H-18V58Z" fill="#F3F3F3"/>
<path d="M-12 58H30V52H-12V58Z" fill="#F3F3F3"/>
<path d="M6 58H48V52H6V58Z" fill="#F3F3F3"/>
<path d="M12 58H54V52H12V58Z" fill="#F3F3F3"/>
<path d="M18 58H60V52H18V58Z" fill="#F3F3F3"/>
<path d="M24 58H66V52H24V58Z" fill="#F3F3F3"/>
<path d="M30 58H72V52H30V58Z" fill="#F3F3F3"/>
<path d="M36 58H78V52H36V58Z" fill="#F3F3F3"/>
<path d="M42 58H84V52H42V58Z" fill="#F3F3F3"/>
<path d="M48 58H90V52H48V58Z" fill="#F3F3F3"/>
<path d="M54 58H96V52H54V58Z" fill="#F3F3F3"/>
<path d="M60 58H102V52H60V58Z" fill="#F3F3F3"/>
<path d="M66 58H108V52H66V58Z" fill="#F3F3F3"/>
<path d="M72 58H114V52H72V58Z" fill="#F3F3F3"/>
<path d="M78 58H120V52H78V58Z" fill="#F3F3F3"/>
<path d="M84 58H126V52H84V58Z" fill="#F3F3F3"/>
<path d="M90 58H132V52H90V58Z" fill="#F3F3F3"/>
<path d="M96 58H138V52H96V58Z" fill="#F3F3F3"/>
<path d="M102 58H144V52H102V58Z" fill="#F3F3F3"/>
<path d="M108 58H150V52H108V58Z" fill="#F3F3F3"/>
<path d="M114 58H156V52H114V58Z" fill="#F3F3F3"/>
<path d="M120 58H162V52H120V58Z" fill="#F3F3F3"/>
<path d="M126 58H168V52H126V58Z" fill="#F3F3F3"/>
<path d="M132 58H174V52H132V58Z" fill="#F3F3F3"/>
<path d="M138 58H180V52H138V58Z" fill="#F3F3F3"/>
<path d="M144 58H186V52H144V58Z" fill="#F3F3F3"/>
<path d="M150 58H192V52H150V58Z" fill="#F3F3F3"/>
<path d="M156 58H198V52H156V58Z" fill="#F3F3F3"/>
<path d="M162 58H204V52H162V58Z" fill="#F3F3F3"/>
<path d="M168 58H210V52H168V58Z" fill="#F3F3F3"/>
<path d="M174 58H216V52H174V58Z" fill="#F3F3F3"/>
<path d="M180 58H222V52H180V58Z" fill="#F3F3F3"/>
<path d="M186 58H228V52H186V58Z" fill="#F3F3F3"/>
<path d="M192 58H234V52H192V58Z" fill="#F3F3F3"/>
<path d="M198 58H240V52H198V58Z" fill="#F3F3F3"/>
<path d="M204 58H246V52H204V58Z" fill="#F3F3F3"/>
<path d="M210 58H252V52H210V58Z" fill="#F3F3F3"/>
<path d="M216 58H258V52H216V58Z" fill="#F3F3F3"/>
<path d="M222 58H264V52H222V58Z" fill="#F3F3F3"/>
<path d="M228 58H270V52H228V58Z" fill="#F3F3F3"/>
<path d="M234 58H276V52H234V58Z" fill="#F3F3F3"/>
<path d="M240 58H282V52H240V58Z" fill="#F3F3F3"/>
<path d="M246 58H288V52H246V58Z" fill="#F3F3F3"/>
<path d="M252 58H294V52H252V58Z" fill="#F3F3F3"/>
<path d="M258 58H300V52H258V58Z" fill="#F3F3F3"/>
<path d="M264 58H306V52H264V58Z" fill="#F3F3F3"/>
<path d="M270 58H312V52H270V58Z" fill="#F3F3F3"/>
<path d="M276 58H318V52H276V58Z" fill="#F3F3F3"/>
<path d="M282 58H324V52H282V58Z" fill="#F3F3F3"/>
</g>
<path d="M272 26H266V32H272V26Z" fill="#365969"/>
<path d="M266 32H260V38H266V32Z" fill="#365969"/>
<path d="M278 32H272V38H278V32Z" fill="#365969"/>
<path d="M266 20H260V26H266V20Z" fill="#365969"/>
<path d="M278 20H272V26H278V20Z" fill="#365969"/>
<path d="M6 18H0V12H6V18Z" fill="#365969"/>
<path d="M6 24H0V18H6V24Z" fill="#365969"/>
<path d="M6 30H0V24H6V30Z" fill="#365969"/>
<path d="M6 36H0V30H6V36Z" fill="#365969"/>
<path d="M6 42H0V36H6V42Z" fill="#365969"/>
<path d="M6 48H0V42H6V48Z" fill="#365969"/>
<path d="M6 54H0V48H6V54Z" fill="#365969"/>
<path d="M6 60H0V54H6V60Z" fill="#365969"/>
<path d="M6 66H0V60H6V66Z" fill="#365969"/>
<path d="M6 72H0V66H6V72Z" fill="#365969"/>
<path d="M6 78H0V72H6V78Z" fill="#365969"/>
<path d="M6 84H0V78H6V84Z" fill="#365969"/>
<path d="M6 90H0V84H6V90Z" fill="#365969"/>
<path d="M6 96H0V90H6V96Z" fill="#365969"/>
<path d="M6 102H0V96H6V102Z" fill="#365969"/>
<path d="M6 108H0V102H6V108Z" fill="#365969"/>
<path d="M6 114H0V108H6V114Z" fill="#365969"/>
<path d="M6 120H0V114H6V120Z" fill="#365969"/>
<path d="M6 126H0V120H6V126Z" fill="#365969"/>
<path d="M6 132H0V126H6V132Z" fill="#365969"/>
<path d="M6 138H0V132H6V138Z" fill="#365969"/>
<path d="M6 144H0V138H6V144Z" fill="#365969"/>
<path d="M6 146H0V140H6V146Z" fill="#365969"/>
<path d="M300 18H294V12H300V18Z" fill="#365969"/>
<path d="M300 24H294V18H300V24Z" fill="#365969"/>
<path d="M300 30H294V24H300V30Z" fill="#365969"/>
<path d="M300 36H294V30H300V36Z" fill="#365969"/>
<path d="M300 42H294V36H300V42Z" fill="#365969"/>
<path d="M300 48H294V42H300V48Z" fill="#365969"/>
<path d="M300 54H294V48H300V54Z" fill="#365969"/>
<path d="M300 60H294V54H300V60Z" fill="#365969"/>
<path d="M300 66H294V60H300V66Z" fill="#365969"/>
<path d="M300 72H294V66H300V72Z" fill="#365969"/>
<path d="M300 78H294V72H300V78Z" fill="#365969"/>
<path d="M300 84H294V78H300V84Z" fill="#365969"/>
<path d="M300 90H294V84H300V90Z" fill="#365969"/>
<path d="M300 96H294V90H300V96Z" fill="#365969"/>
<path d="M300 102H294V96H300V102Z" fill="#365969"/>
<path d="M300 108H294V102H300V108Z" fill="#365969"/>
<path d="M300 114H294V108H300V114Z" fill="#365969"/>
<path d="M300 120H294V114H300V120Z" fill="#365969"/>
<path d="M300 126H294V120H300V126Z" fill="#365969"/>
<path d="M300 132H294V126H300V132Z" fill="#365969"/>
<path d="M300 138H294V132H300V138Z" fill="#365969"/>
<path d="M300 144H294V138H300V144Z" fill="#365969"/>
<path d="M300 146H294V140H300V146Z" fill="#365969"/>
<path d="M46 22.0714H47.3929V23.4643H46V22.0714ZM47.3929 22.0714H48.7857V23.4643H47.3929V22.0714ZM47.3929 23.4643H48.7857V24.8571H47.3929V23.4643ZM47.3929 24.8571H48.7857V26.25H47.3929V24.8571ZM47.3929 26.25H48.7857V27.6429H47.3929V26.25ZM46 26.25H47.3929V27.6429H46V26.25ZM46 24.8571H47.3929V26.25H46V24.8571ZM46 23.4643H47.3929V24.8571H46V23.4643ZM46 27.6429H47.3929V29.0357H46V27.6429ZM46 29.0357H47.3929V30.4286H46V29.0357ZM46 30.4286H47.3929V31.8214H46V30.4286ZM47.3929 29.0357H48.7857V30.4286H47.3929V29.0357ZM47.3929 27.6429H48.7857V29.0357H47.3929V27.6429ZM47.3929 30.4286H48.7857V31.8214H47.3929V30.4286ZM47.3929 31.8214H48.7857V33.2143H47.3929V31.8214ZM46 33.2143H47.3929V34.6071H46V33.2143ZM46 31.8214H47.3929V33.2143H46V31.8214ZM46 34.6071H47.3929V36H46V34.6071ZM47.3929 34.6071H48.7857V36H47.3929V34.6071ZM47.3929 33.2143H48.7857V34.6071H47.3929V33.2143ZM48.7857 34.6071H50.1786V36H48.7857V34.6071ZM50.1786 34.6071H51.5714V36H50.1786V34.6071ZM51.5714 34.6071H52.9643V36H51.5714V34.6071ZM51.5714 33.2143H52.9643V34.6071H51.5714V33.2143ZM50.1786 33.2143H51.5714V34.6071H50.1786V33.2143ZM48.7857 33.2143H50.1786V34.6071H48.7857V33.2143ZM48.7857 22.0714H50.1786V23.4643H48.7857V22.0714ZM50.1786 22.0714H51.5714V23.4643H50.1786V22.0714ZM51.5714 22.0714H52.9643V23.4643H51.5714V22.0714ZM52.9643 22.0714H54.3571V23.4643H52.9643V22.0714ZM51.5714 23.4643H52.9643V24.8571H51.5714V23.4643ZM50.1786 23.4643H51.5714V24.8571H50.1786V23.4643ZM48.7857 23.4643H50.1786V24.8571H48.7857V23.4643ZM48.7857 29.0357H50.1786V30.4286H48.7857V29.0357ZM50.1786 27.6429H51.5714V29.0357H50.1786V27.6429ZM48.7857 27.6429H50.1786V29.0357H48.7857V27.6429ZM50.1786 29.0357H51.5714V30.4286H50.1786V29.0357ZM52.9643 23.4643H54.3571V24.8571H52.9643V23.4643ZM52.9643 33.2143H54.3571V34.6071H52.9643V33.2143ZM52.9643 34.6071H54.3571V36H52.9643V34.6071ZM51.5714 27.6429H52.9643V29.0357H51.5714V27.6429ZM51.5714 29.0357H52.9643V30.4286H51.5714V29.0357ZM56.01 26.25H57.4029V27.6429H56.01V26.25ZM56.01 24.8571H57.4029V26.25H56.01V24.8571ZM57.4029 24.8571H58.7957V26.25H57.4029V24.8571ZM57.4029 26.25H58.7957V27.6429H57.4029V26.25ZM57.4029 27.6429H58.7957V29.0357H57.4029V27.6429ZM57.4029 29.0357H58.7957V30.4286H57.4029V29.0357ZM57.4029 30.4286H58.7957V31.8214H57.4029V30.4286ZM56.01 30.4286H57.4029V31.8214H56.01V30.4286ZM56.01 29.0357H57.4029V30.4286H56.01V29.0357ZM56.01 27.6429H57.4029V29.0357H56.01V27.6429ZM56.01 31.8214H57.4029V33.2143H56.01V31.8214ZM57.4029 31.8214H58.7957V33.2143H57.4029V31.8214ZM57.4029 33.2143H58.7957V34.6071H57.4029V33.2143ZM57.4029 34.6071H58.7957V36H57.4029V34.6071ZM56.01 34.6071H57.4029V36H56.01V34.6071ZM56.01 33.2143H57.4029V34.6071H56.01V33.2143ZM58.7957 26.25H60.1886V27.6429H58.7957V26.25ZM60.1886 26.25H61.5814V27.6429H60.1886V26.25ZM61.5814 26.25H62.9743V27.6429H61.5814V26.25ZM61.5814 24.8571H62.9743V26.25H61.5814V24.8571ZM60.1886 24.8571H61.5814V26.25H60.1886V24.8571ZM58.7957 27.6429H60.1886V29.0357H58.7957V27.6429ZM62.9743 26.25H64.3671V27.6429H62.9743V26.25ZM61.5814 27.6429H62.9743V29.0357H61.5814V27.6429ZM66.02 26.25H67.4129V27.6429H66.02V26.25ZM66.02 24.8571H67.4129V26.25H66.02V24.8571ZM67.4129 24.8571H68.8057V26.25H67.4129V24.8571ZM67.4129 26.25H68.8057V27.6429H67.4129V26.25ZM67.4129 27.6429H68.8057V29.0357H67.4129V27.6429ZM67.4129 29.0357H68.8057V30.4286H67.4129V29.0357ZM67.4129 30.4286H68.8057V31.8214H67.4129V30.4286ZM66.02 30.4286H67.4129V31.8214H66.02V30.4286ZM66.02 29.0357H67.4129V30.4286H66.02V29.0357ZM66.02 27.6429H67.4129V29.0357H66.02V27.6429ZM66.02 31.8214H67.4129V33.2143H66.02V31.8214ZM67.4129 31.8214H68.8057V33.2143H67.4129V31.8214ZM67.4129 33.2143H68.8057V34.6071H67.4129V33.2143ZM67.4129 34.6071H68.8057V36H67.4129V34.6071ZM66.02 34.6071H67.4129V36H66.02V34.6071ZM66.02 33.2143H67.4129V34.6071H66.02V33.2143ZM68.8057 26.25H70.1986V27.6429H68.8057V26.25ZM70.1986 26.25H71.5914V27.6429H70.1986V26.25ZM71.5914 26.25H72.9843V27.6429H71.5914V26.25ZM71.5914 24.8571H72.9843V26.25H71.5914V24.8571ZM70.1986 24.8571H71.5914V26.25H70.1986V24.8571ZM68.8057 27.6429H70.1986V29.0357H68.8057V27.6429ZM72.9843 26.25H74.3771V27.6429H72.9843V26.25ZM71.5914 27.6429H72.9843V29.0357H71.5914V27.6429ZM78.8157 24.8571H80.2086V26.25H78.8157V24.8571ZM77.4229 24.8571H78.8157V26.25H77.4229V24.8571ZM77.4229 26.25H78.8157V27.6429H77.4229V26.25ZM78.8157 26.25H80.2086V27.6429H78.8157V26.25ZM80.2086 24.8571H81.6014V26.25H80.2086V24.8571ZM81.6014 24.8571H82.9943V26.25H81.6014V24.8571ZM82.9943 24.8571H84.3871V26.25H82.9943V24.8571ZM82.9943 26.25H84.3871V27.6429H82.9943V26.25ZM81.6014 26.25H82.9943V27.6429H81.6014V26.25ZM82.9943 29.0357H84.3871V30.4286H82.9943V29.0357ZM84.3871 26.25H85.78V27.6429H84.3871V26.25ZM84.3871 27.6429H85.78V29.0357H84.3871V27.6429ZM84.3871 29.0357H85.78V30.4286H84.3871V29.0357ZM84.3871 30.4286H85.78V31.8214H84.3871V30.4286ZM84.3871 31.8214H85.78V33.2143H84.3871V31.8214ZM84.3871 33.2143H85.78V34.6071H84.3871V33.2143ZM82.9943 33.2143H84.3871V34.6071H82.9943V33.2143ZM82.9943 31.8214H84.3871V33.2143H82.9943V31.8214ZM82.9943 30.4286H84.3871V31.8214H82.9943V30.4286ZM82.9943 27.6429H84.3871V29.0357H82.9943V27.6429ZM81.6014 33.2143H82.9943V34.6071H81.6014V33.2143ZM82.9943 34.6071H84.3871V36H82.9943V34.6071ZM81.6014 34.6071H82.9943V36H81.6014V34.6071ZM80.2086 34.6071H81.6014V36H80.2086V34.6071ZM78.8157 34.6071H80.2086V36H78.8157V34.6071ZM77.4229 34.6071H78.8157V36H77.4229V34.6071ZM77.4229 33.2143H78.8157V34.6071H77.4229V33.2143ZM78.8157 33.2143H80.2086V34.6071H78.8157V33.2143ZM77.4229 31.8214H78.8157V33.2143H77.4229V31.8214ZM76.03 33.2143H77.4229V34.6071H76.03V33.2143ZM76.03 31.8214H77.4229V33.2143H76.03V31.8214ZM76.03 30.4286H77.4229V31.8214H76.03V30.4286ZM76.03 29.0357H77.4229V30.4286H76.03V29.0357ZM76.03 27.6429H77.4229V29.0357H76.03V27.6429ZM76.03 26.25H77.4229V27.6429H76.03V26.25ZM77.4229 27.6429H78.8157V29.0357H77.4229V27.6429ZM77.4229 29.0357H78.8157V30.4286H77.4229V29.0357ZM77.4229 30.4286H78.8157V31.8214H77.4229V30.4286ZM80.2086 33.2143H81.6014V34.6071H80.2086V33.2143ZM80.2086 26.25H81.6014V27.6429H80.2086V26.25ZM87.4365 26.25H88.8293V27.6429H87.4365V26.25ZM87.4365 24.8571H88.8293V26.25H87.4365V24.8571ZM88.8293 24.8571H90.2222V26.25H88.8293V24.8571ZM88.8293 26.25H90.2222V27.6429H88.8293V26.25ZM88.8293 27.6429H90.2222V29.0357H88.8293V27.6429ZM88.8293 29.0357H90.2222V30.4286H88.8293V29.0357ZM88.8293 30.4286H90.2222V31.8214H88.8293V30.4286ZM87.4365 30.4286H88.8293V31.8214H87.4365V30.4286ZM87.4365 29.0357H88.8293V30.4286H87.4365V29.0357ZM87.4365 27.6429H88.8293V29.0357H87.4365V27.6429ZM87.4365 31.8214H88.8293V33.2143H87.4365V31.8214ZM88.8293 31.8214H90.2222V33.2143H88.8293V31.8214ZM88.8293 33.2143H90.2222V34.6071H88.8293V33.2143ZM88.8293 34.6071H90.2222V36H88.8293V34.6071ZM87.4365 34.6071H88.8293V36H87.4365V34.6071ZM87.4365 33.2143H88.8293V34.6071H87.4365V33.2143ZM90.2222 26.25H91.6151V27.6429H90.2222V26.25ZM91.6151 26.25H93.0079V27.6429H91.6151V26.25ZM93.0079 26.25H94.4008V27.6429H93.0079V26.25ZM93.0079 24.8571H94.4008V26.25H93.0079V24.8571ZM91.6151 24.8571H93.0079V26.25H91.6151V24.8571ZM90.2222 27.6429H91.6151V29.0357H90.2222V27.6429ZM94.4008 26.25H95.7936V27.6429H94.4008V26.25ZM93.0079 27.6429H94.4008V29.0357H93.0079V27.6429Z" fill="#DD140E"/>
<circle cx="32" cy="29" r="7" fill="#DD140E"/>
<path d="M32.6998 32.5H31.2998V28.3H32.6998V32.5Z" fill="white"/>
<path d="M32.6998 26.9H31.2998V25.5H32.6998V26.9Z" fill="white"/>
<path d="M45.6378 96.216C44.5098 96.216 43.5858 96.012 42.8658 95.604C42.1458 95.184 41.5518 94.65 41.0838 94.002L42.1818 93.102C42.6738 93.714 43.1898 94.17 43.7298 94.47C44.2818 94.77 44.9358 94.92 45.6918 94.92C46.6038 94.92 47.2998 94.71 47.7798 94.29C48.2598 93.87 48.4998 93.282 48.4998 92.526C48.4998 91.914 48.3258 91.44 47.9778 91.104C47.6298 90.756 47.0238 90.51 46.1598 90.366L44.7558 90.132C44.1438 90.024 43.6278 89.862 43.2078 89.646C42.7998 89.43 42.4698 89.172 42.2178 88.872C41.9658 88.56 41.7858 88.224 41.6778 87.864C41.5698 87.492 41.5158 87.108 41.5158 86.712C41.5158 85.56 41.8938 84.69 42.6498 84.102C43.4058 83.514 44.4258 83.22 45.7098 83.22C46.7178 83.22 47.5638 83.388 48.2478 83.724C48.9438 84.06 49.5018 84.534 49.9218 85.146L48.8598 86.064C48.5118 85.608 48.0918 85.236 47.5998 84.948C47.1078 84.66 46.4718 84.516 45.6918 84.516C44.8398 84.516 44.1858 84.696 43.7298 85.056C43.2738 85.416 43.0458 85.956 43.0458 86.676C43.0458 87.24 43.2138 87.702 43.5498 88.062C43.8978 88.41 44.5158 88.662 45.4038 88.818L46.7538 89.052C47.3658 89.16 47.8818 89.322 48.3018 89.538C48.7218 89.754 49.0578 90.012 49.3098 90.312C49.5738 90.612 49.7598 90.948 49.8678 91.32C49.9758 91.692 50.0298 92.082 50.0298 92.49C50.0298 93.654 49.6458 94.566 48.8778 95.226C48.1218 95.886 47.0418 96.216 45.6378 96.216ZM56.1068 96.216C55.4588 96.216 54.8708 96.102 54.3428 95.874C53.8268 95.646 53.3828 95.322 53.0108 94.902C52.6508 94.47 52.3748 93.96 52.1828 93.372C51.9908 92.772 51.8948 92.1 51.8948 91.356C51.8948 90.624 51.9908 89.958 52.1828 89.358C52.3748 88.758 52.6508 88.248 53.0108 87.828C53.3828 87.396 53.8268 87.066 54.3428 86.838C54.8708 86.61 55.4588 86.496 56.1068 86.496C56.7548 86.496 57.3368 86.61 57.8528 86.838C58.3808 87.066 58.8248 87.396 59.1848 87.828C59.5568 88.248 59.8388 88.758 60.0308 89.358C60.2228 89.958 60.3188 90.624 60.3188 91.356C60.3188 92.1 60.2228 92.772 60.0308 93.372C59.8388 93.96 59.5568 94.47 59.1848 94.902C58.8248 95.322 58.3808 95.646 57.8528 95.874C57.3368 96.102 56.7548 96.216 56.1068 96.216ZM56.1068 94.974C56.9108 94.974 57.5588 94.734 58.0508 94.254C58.5428 93.774 58.7888 93.03 58.7888 92.022V90.69C58.7888 89.682 58.5428 88.938 58.0508 88.458C57.5588 87.978 56.9108 87.738 56.1068 87.738C55.3028 87.738 54.6548 87.978 54.1628 88.458C53.6708 88.938 53.4248 89.682 53.4248 90.69V92.022C53.4248 93.03 53.6708 93.774 54.1628 94.254C54.6548 94.734 55.3028 94.974 56.1068 94.974ZM62.1118 96V86.712H63.4438V87.792H63.5158C63.6598 87.432 63.8638 87.126 64.1278 86.874C64.3918 86.622 64.7818 86.496 65.2978 86.496C65.8378 86.496 66.2398 86.634 66.5038 86.91C66.7678 87.174 66.9298 87.522 66.9898 87.954H67.0438C67.2118 87.534 67.4518 87.186 67.7638 86.91C68.0758 86.634 68.5078 86.496 69.0598 86.496C69.8158 86.496 70.3198 86.76 70.5718 87.288C70.8358 87.816 70.9678 88.572 70.9678 89.556V96H69.6358V89.79C69.6358 88.998 69.5518 88.452 69.3838 88.152C69.2278 87.84 68.9338 87.684 68.5018 87.684C68.1178 87.684 67.8058 87.81 67.5658 88.062C67.3258 88.302 67.2058 88.674 67.2058 89.178V96H65.8738V89.79C65.8738 88.998 65.7898 88.452 65.6218 88.152C65.4658 87.84 65.1778 87.684 64.7578 87.684C64.3738 87.684 64.0558 87.81 63.8038 88.062C63.5638 88.302 63.4438 88.674 63.4438 89.178V96H62.1118ZM77.1347 96.216C76.4627 96.216 75.8567 96.102 75.3167 95.874C74.7887 95.646 74.3327 95.322 73.9487 94.902C73.5767 94.47 73.2887 93.96 73.0847 93.372C72.8807 92.772 72.7787 92.106 72.7787 91.374C72.7787 90.63 72.8807 89.958 73.0847 89.358C73.3007 88.758 73.5947 88.248 73.9667 87.828C74.3387 87.396 74.7827 87.066 75.2987 86.838C75.8267 86.61 76.4087 86.496 77.0447 86.496C77.6687 86.496 78.2327 86.61 78.7367 86.838C79.2527 87.066 79.6907 87.384 80.0507 87.792C80.4107 88.188 80.6867 88.662 80.8787 89.214C81.0707 89.766 81.1667 90.372 81.1667 91.032V91.716H74.2907V92.148C74.2907 92.556 74.3567 92.934 74.4887 93.282C74.6207 93.63 74.8067 93.93 75.0467 94.182C75.2987 94.434 75.5987 94.632 75.9467 94.776C76.3067 94.908 76.7027 94.974 77.1347 94.974C77.7587 94.974 78.2987 94.83 78.7547 94.542C79.2107 94.254 79.5587 93.858 79.7987 93.354L80.8607 94.074C80.5847 94.698 80.1227 95.214 79.4747 95.622C78.8387 96.018 78.0587 96.216 77.1347 96.216ZM77.0447 87.684C76.6487 87.684 76.2827 87.756 75.9467 87.9C75.6107 88.044 75.3167 88.242 75.0647 88.494C74.8247 88.746 74.6327 89.046 74.4887 89.394C74.3567 89.73 74.2907 90.102 74.2907 90.51V90.636H79.6187V90.438C79.6187 90.03 79.5527 89.658 79.4207 89.322C79.3007 88.986 79.1267 88.698 78.8987 88.458C78.6827 88.206 78.4127 88.014 78.0887 87.882C77.7767 87.75 77.4287 87.684 77.0447 87.684ZM87.8557 96C87.1477 96 86.6257 95.802 86.2897 95.406C85.9657 95.01 85.8037 94.5 85.8037 93.876V87.936H82.7077V86.712H85.0117C85.3237 86.712 85.5397 86.652 85.6597 86.532C85.7917 86.4 85.8577 86.178 85.8577 85.866V83.436H87.2437V86.712H91.4737V87.936H87.2437V94.776H91.4737V96H87.8557ZM94.2027 82.68H95.6427V88.224H95.7147C95.8107 87.996 95.9307 87.78 96.0747 87.576C96.2187 87.36 96.3927 87.174 96.5967 87.018C96.8127 86.862 97.0647 86.736 97.3527 86.64C97.6407 86.544 97.9767 86.496 98.3607 86.496C99.3327 86.496 100.113 86.808 100.701 87.432C101.289 88.044 101.583 88.914 101.583 90.042V96H100.143V90.294C100.143 89.442 99.9567 88.812 99.5847 88.404C99.2127 87.984 98.6667 87.774 97.9467 87.774C97.6587 87.774 97.3767 87.81 97.1007 87.882C96.8247 87.954 96.5787 88.062 96.3627 88.206C96.1467 88.35 95.9727 88.536 95.8407 88.764C95.7087 88.992 95.6427 89.256 95.6427 89.556V96H94.2027V82.68ZM108.848 84.66C108.428 84.66 108.134 84.576 107.966 84.408C107.798 84.228 107.714 84.006 107.714 83.742V83.454C107.714 83.19 107.798 82.974 107.966 82.806C108.134 82.626 108.428 82.536 108.848 82.536C109.268 82.536 109.562 82.626 109.73 82.806C109.898 82.974 109.982 83.19 109.982 83.454V83.742C109.982 84.006 109.898 84.228 109.73 84.408C109.562 84.576 109.268 84.66 108.848 84.66ZM104.78 94.776H108.128V87.936H104.78V86.712H109.568V94.776H112.7V96H104.78V94.776ZM115.069 96V86.712H116.509V88.224H116.581C116.677 87.996 116.797 87.78 116.941 87.576C117.085 87.36 117.259 87.174 117.463 87.018C117.679 86.862 117.931 86.736 118.219 86.64C118.507 86.544 118.843 86.496 119.227 86.496C120.199 86.496 120.979 86.808 121.567 87.432C122.155 88.044 122.449 88.914 122.449 90.042V96H121.009V90.294C121.009 89.442 120.823 88.812 120.451 88.404C120.079 87.984 119.533 87.774 118.813 87.774C118.525 87.774 118.243 87.81 117.967 87.882C117.691 87.954 117.445 88.062 117.229 88.206C117.013 88.35 116.839 88.536 116.707 88.764C116.575 88.992 116.509 89.256 116.509 89.556V96H115.069ZM133.836 97.062C133.836 97.998 133.446 98.688 132.666 99.132C131.886 99.588 130.716 99.816 129.156 99.816C127.656 99.816 126.576 99.618 125.916 99.222C125.268 98.826 124.944 98.256 124.944 97.512C124.944 97.008 125.076 96.618 125.34 96.342C125.604 96.066 125.976 95.862 126.456 95.73V95.514C126.192 95.382 125.988 95.214 125.844 95.01C125.7 94.806 125.628 94.548 125.628 94.236C125.628 93.756 125.784 93.396 126.096 93.156C126.42 92.916 126.822 92.736 127.302 92.616V92.544C126.726 92.292 126.276 91.92 125.952 91.428C125.64 90.936 125.484 90.36 125.484 89.7C125.484 89.232 125.568 88.8 125.736 88.404C125.904 88.008 126.144 87.672 126.456 87.396C126.78 87.108 127.164 86.886 127.608 86.73C128.052 86.574 128.544 86.496 129.084 86.496C129.78 86.496 130.392 86.622 130.92 86.874V86.712C130.92 86.352 131.004 86.052 131.172 85.812C131.34 85.572 131.628 85.452 132.036 85.452H133.746V86.712H131.658V87.342C131.994 87.63 132.252 87.972 132.432 88.368C132.612 88.764 132.702 89.208 132.702 89.7C132.702 90.168 132.612 90.6 132.432 90.996C132.264 91.392 132.024 91.734 131.712 92.022C131.4 92.298 131.016 92.514 130.56 92.67C130.116 92.826 129.624 92.904 129.084 92.904C128.928 92.904 128.778 92.898 128.634 92.886C128.49 92.874 128.346 92.856 128.202 92.832C128.058 92.856 127.908 92.898 127.752 92.958C127.596 93.006 127.452 93.078 127.32 93.174C127.188 93.258 127.08 93.36 126.996 93.48C126.912 93.6 126.87 93.738 126.87 93.894C126.87 94.17 127.008 94.356 127.284 94.452C127.56 94.536 127.92 94.578 128.364 94.578H130.416C131.616 94.578 132.486 94.806 133.026 95.262C133.566 95.706 133.836 96.306 133.836 97.062ZM132.486 97.134C132.486 96.762 132.336 96.462 132.036 96.234C131.736 96.018 131.214 95.91 130.47 95.91H127.248C126.624 96.162 126.312 96.582 126.312 97.17C126.312 97.578 126.474 97.926 126.798 98.214C127.122 98.514 127.662 98.664 128.418 98.664H129.822C130.662 98.664 131.316 98.532 131.784 98.268C132.252 98.016 132.486 97.638 132.486 97.134ZM129.084 91.788C129.804 91.788 130.332 91.62 130.668 91.284C131.016 90.948 131.19 90.504 131.19 89.952V89.43C131.19 88.878 131.016 88.44 130.668 88.116C130.332 87.78 129.804 87.612 129.084 87.612C128.364 87.612 127.836 87.78 127.5 88.116C127.164 88.44 126.996 88.878 126.996 89.43V89.952C126.996 90.504 127.164 90.948 127.5 91.284C127.836 91.62 128.364 91.788 129.084 91.788ZM145.144 86.712H146.422L147.484 94.74H147.646L149.23 86.712H150.814L152.398 94.74H152.56L153.622 86.712H154.864L153.442 96H151.57L150.094 88.224H149.95L148.438 96H146.566L145.144 86.712ZM160.598 96.216C159.926 96.216 159.32 96.102 158.78 95.874C158.252 95.646 157.796 95.322 157.412 94.902C157.04 94.47 156.752 93.96 156.548 93.372C156.344 92.772 156.242 92.106 156.242 91.374C156.242 90.63 156.344 89.958 156.548 89.358C156.764 88.758 157.058 88.248 157.43 87.828C157.802 87.396 158.246 87.066 158.762 86.838C159.29 86.61 159.872 86.496 160.508 86.496C161.132 86.496 161.696 86.61 162.2 86.838C162.716 87.066 163.154 87.384 163.514 87.792C163.874 88.188 164.15 88.662 164.342 89.214C164.534 89.766 164.63 90.372 164.63 91.032V91.716H157.754V92.148C157.754 92.556 157.82 92.934 157.952 93.282C158.084 93.63 158.27 93.93 158.51 94.182C158.762 94.434 159.062 94.632 159.41 94.776C159.77 94.908 160.166 94.974 160.598 94.974C161.222 94.974 161.762 94.83 162.218 94.542C162.674 94.254 163.022 93.858 163.262 93.354L164.324 94.074C164.048 94.698 163.586 95.214 162.938 95.622C162.302 96.018 161.522 96.216 160.598 96.216ZM160.508 87.684C160.112 87.684 159.746 87.756 159.41 87.9C159.074 88.044 158.78 88.242 158.528 88.494C158.288 88.746 158.096 89.046 157.952 89.394C157.82 89.73 157.754 90.102 157.754 90.51V90.636H163.082V90.438C163.082 90.03 163.016 89.658 162.884 89.322C162.764 88.986 162.59 88.698 162.362 88.458C162.146 88.206 161.876 88.014 161.552 87.882C161.24 87.75 160.892 87.684 160.508 87.684ZM167.233 96V86.712H168.673V88.224H168.745C168.841 87.996 168.961 87.78 169.105 87.576C169.249 87.36 169.423 87.174 169.627 87.018C169.843 86.862 170.095 86.736 170.383 86.64C170.671 86.544 171.007 86.496 171.391 86.496C172.363 86.496 173.143 86.808 173.731 87.432C174.319 88.044 174.613 88.914 174.613 90.042V96H173.173V90.294C173.173 89.442 172.987 88.812 172.615 88.404C172.243 87.984 171.697 87.774 170.977 87.774C170.689 87.774 170.407 87.81 170.131 87.882C169.855 87.954 169.609 88.062 169.393 88.206C169.177 88.35 169.003 88.536 168.871 88.764C168.739 88.992 168.673 89.256 168.673 89.556V96H167.233ZM181.752 96C181.044 96 180.522 95.802 180.186 95.406C179.862 95.01 179.7 94.5 179.7 93.876V87.936H176.604V86.712H178.908C179.22 86.712 179.436 86.652 179.556 86.532C179.688 86.4 179.754 86.178 179.754 85.866V83.436H181.14V86.712H185.37V87.936H181.14V94.776H185.37V96H181.752ZM197.308 86.712H198.586L199.648 94.74H199.81L201.394 86.712H202.978L204.562 94.74H204.724L205.786 86.712H207.028L205.606 96H203.734L202.258 88.224H202.114L200.602 96H198.73L197.308 86.712ZM208.587 94.776H211.305V87.936H208.587V86.712H212.745V89.052H212.835C213.027 88.32 213.387 87.75 213.915 87.342C214.455 86.922 215.139 86.712 215.967 86.712H217.263V88.152H215.517C214.689 88.152 214.017 88.392 213.501 88.872C212.997 89.352 212.745 89.982 212.745 90.762V94.776H216.345V96H208.587V94.776ZM223.034 96.216C222.386 96.216 221.798 96.102 221.27 95.874C220.754 95.646 220.31 95.322 219.938 94.902C219.578 94.47 219.302 93.96 219.11 93.372C218.918 92.772 218.822 92.1 218.822 91.356C218.822 90.624 218.918 89.958 219.11 89.358C219.302 88.758 219.578 88.248 219.938 87.828C220.31 87.396 220.754 87.066 221.27 86.838C221.798 86.61 222.386 86.496 223.034 86.496C223.682 86.496 224.264 86.61 224.78 86.838C225.308 87.066 225.752 87.396 226.112 87.828C226.484 88.248 226.766 88.758 226.958 89.358C227.15 89.958 227.246 90.624 227.246 91.356C227.246 92.1 227.15 92.772 226.958 93.372C226.766 93.96 226.484 94.47 226.112 94.902C225.752 95.322 225.308 95.646 224.78 95.874C224.264 96.102 223.682 96.216 223.034 96.216ZM223.034 94.974C223.838 94.974 224.486 94.734 224.978 94.254C225.47 93.774 225.716 93.03 225.716 92.022V90.69C225.716 89.682 225.47 88.938 224.978 88.458C224.486 87.978 223.838 87.738 223.034 87.738C222.23 87.738 221.582 87.978 221.09 88.458C220.598 88.938 220.352 89.682 220.352 90.69V92.022C220.352 93.03 220.598 93.774 221.09 94.254C221.582 94.734 222.23 94.974 223.034 94.974ZM229.831 96V86.712H231.271V88.224H231.343C231.439 87.996 231.559 87.78 231.703 87.576C231.847 87.36 232.021 87.174 232.225 87.018C232.441 86.862 232.693 86.736 232.981 86.64C233.269 86.544 233.605 86.496 233.989 86.496C234.961 86.496 235.741 86.808 236.329 87.432C236.917 88.044 237.211 88.914 237.211 90.042V96H235.771V90.294C235.771 89.442 235.585 88.812 235.213 88.404C234.841 87.984 234.295 87.774 233.575 87.774C233.287 87.774 233.005 87.81 232.729 87.882C232.453 87.954 232.207 88.062 231.991 88.206C231.775 88.35 231.601 88.536 231.469 88.764C231.337 88.992 231.271 89.256 231.271 89.556V96H229.831ZM248.598 97.062C248.598 97.998 248.208 98.688 247.428 99.132C246.648 99.588 245.478 99.816 243.918 99.816C242.418 99.816 241.338 99.618 240.678 99.222C240.03 98.826 239.706 98.256 239.706 97.512C239.706 97.008 239.838 96.618 240.102 96.342C240.366 96.066 240.738 95.862 241.218 95.73V95.514C240.954 95.382 240.75 95.214 240.606 95.01C240.462 94.806 240.39 94.548 240.39 94.236C240.39 93.756 240.546 93.396 240.858 93.156C241.182 92.916 241.584 92.736 242.064 92.616V92.544C241.488 92.292 241.038 91.92 240.714 91.428C240.402 90.936 240.246 90.36 240.246 89.7C240.246 89.232 240.33 88.8 240.498 88.404C240.666 88.008 240.906 87.672 241.218 87.396C241.542 87.108 241.926 86.886 242.37 86.73C242.814 86.574 243.306 86.496 243.846 86.496C244.542 86.496 245.154 86.622 245.682 86.874V86.712C245.682 86.352 245.766 86.052 245.934 85.812C246.102 85.572 246.39 85.452 246.798 85.452H248.508V86.712H246.42V87.342C246.756 87.63 247.014 87.972 247.194 88.368C247.374 88.764 247.464 89.208 247.464 89.7C247.464 90.168 247.374 90.6 247.194 90.996C247.026 91.392 246.786 91.734 246.474 92.022C246.162 92.298 245.778 92.514 245.322 92.67C244.878 92.826 244.386 92.904 243.846 92.904C243.69 92.904 243.54 92.898 243.396 92.886C243.252 92.874 243.108 92.856 242.964 92.832C242.82 92.856 242.67 92.898 242.514 92.958C242.358 93.006 242.214 93.078 242.082 93.174C241.95 93.258 241.842 93.36 241.758 93.48C241.674 93.6 241.632 93.738 241.632 93.894C241.632 94.17 241.77 94.356 242.046 94.452C242.322 94.536 242.682 94.578 243.126 94.578H245.178C246.378 94.578 247.248 94.806 247.788 95.262C248.328 95.706 248.598 96.306 248.598 97.062ZM247.248 97.134C247.248 96.762 247.098 96.462 246.798 96.234C246.498 96.018 245.976 95.91 245.232 95.91H242.01C241.386 96.162 241.074 96.582 241.074 97.17C241.074 97.578 241.236 97.926 241.56 98.214C241.884 98.514 242.424 98.664 243.18 98.664H244.584C245.424 98.664 246.078 98.532 246.546 98.268C247.014 98.016 247.248 97.638 247.248 97.134ZM243.846 91.788C244.566 91.788 245.094 91.62 245.43 91.284C245.778 90.948 245.952 90.504 245.952 89.952V89.43C245.952 88.878 245.778 88.44 245.43 88.116C245.094 87.78 244.566 87.612 243.846 87.612C243.126 87.612 242.598 87.78 242.262 88.116C241.926 88.44 241.758 88.878 241.758 89.43V89.952C241.758 90.504 241.926 90.948 242.262 91.284C242.598 91.62 243.126 91.788 243.846 91.788ZM254.333 96.162C253.841 96.162 253.493 96.06 253.289 95.856C253.097 95.652 253.001 95.394 253.001 95.082V94.758C253.001 94.446 253.097 94.188 253.289 93.984C253.493 93.78 253.841 93.678 254.333 93.678C254.825 93.678 255.167 93.78 255.359 93.984C255.563 94.188 255.665 94.446 255.665 94.758V95.082C255.665 95.394 255.563 95.652 255.359 95.856C255.167 96.06 254.825 96.162 254.333 96.162ZM62.7598 122V109.436H67.3318C68.4958 109.436 69.3838 109.754 69.9958 110.39C70.6078 111.026 70.9138 111.914 70.9138 113.054C70.9138 114.194 70.6078 115.082 69.9958 115.718C69.3838 116.354 68.4958 116.672 67.3318 116.672H64.2718V122H62.7598ZM64.2718 115.358H67.2958C67.9318 115.358 68.4238 115.202 68.7718 114.89C69.1318 114.566 69.3118 114.11 69.3118 113.522V112.586C69.3118 111.998 69.1318 111.548 68.7718 111.236C68.4238 110.912 67.9318 110.75 67.2958 110.75H64.2718V115.358ZM73.0127 120.776H76.2527V109.904H73.0127V108.68H77.6927V120.776H80.9327V122H73.0127V120.776ZM87.5677 122.216C86.8957 122.216 86.2897 122.102 85.7497 121.874C85.2217 121.646 84.7657 121.322 84.3817 120.902C84.0097 120.47 83.7217 119.96 83.5177 119.372C83.3137 118.772 83.2117 118.106 83.2117 117.374C83.2117 116.63 83.3137 115.958 83.5177 115.358C83.7337 114.758 84.0277 114.248 84.3997 113.828C84.7717 113.396 85.2157 113.066 85.7317 112.838C86.2597 112.61 86.8417 112.496 87.4777 112.496C88.1017 112.496 88.6657 112.61 89.1697 112.838C89.6857 113.066 90.1237 113.384 90.4837 113.792C90.8437 114.188 91.1197 114.662 91.3117 115.214C91.5037 115.766 91.5997 116.372 91.5997 117.032V117.716H84.7237V118.148C84.7237 118.556 84.7897 118.934 84.9217 119.282C85.0537 119.63 85.2397 119.93 85.4797 120.182C85.7317 120.434 86.0317 120.632 86.3797 120.776C86.7397 120.908 87.1357 120.974 87.5677 120.974C88.1917 120.974 88.7317 120.83 89.1877 120.542C89.6437 120.254 89.9917 119.858 90.2317 119.354L91.2937 120.074C91.0177 120.698 90.5557 121.214 89.9077 121.622C89.2717 122.018 88.4917 122.216 87.5677 122.216ZM87.4777 113.684C87.0817 113.684 86.7157 113.756 86.3797 113.9C86.0437 114.044 85.7497 114.242 85.4977 114.494C85.2577 114.746 85.0657 115.046 84.9217 115.394C84.7897 115.73 84.7237 116.102 84.7237 116.51V116.636H90.0517V116.438C90.0517 116.03 89.9857 115.658 89.8537 115.322C89.7337 114.986 89.5597 114.698 89.3317 114.458C89.1157 114.206 88.8457 114.014 88.5217 113.882C88.2097 113.75 87.8617 113.684 87.4777 113.684ZM101.349 122C100.785 122 100.383 121.856 100.143 121.568C99.9027 121.28 99.7527 120.92 99.6927 120.488H99.6027C99.3987 121.028 99.0687 121.454 98.6127 121.766C98.1687 122.066 97.5687 122.216 96.8127 122.216C95.8407 122.216 95.0667 121.964 94.4907 121.46C93.9147 120.956 93.6267 120.266 93.6267 119.39C93.6267 118.526 93.9387 117.86 94.5627 117.392C95.1987 116.924 96.2187 116.69 97.6227 116.69H99.6027V115.772C99.6027 115.088 99.4107 114.578 99.0267 114.242C98.6427 113.894 98.0967 113.72 97.3887 113.72C96.7647 113.72 96.2547 113.846 95.8587 114.098C95.4627 114.338 95.1447 114.668 94.9047 115.088L93.9327 114.368C94.0527 114.128 94.2147 113.894 94.4187 113.666C94.6227 113.438 94.8747 113.24 95.1747 113.072C95.4747 112.892 95.8167 112.754 96.2007 112.658C96.5847 112.55 97.0107 112.496 97.4787 112.496C98.5707 112.496 99.4347 112.772 100.071 113.324C100.719 113.876 101.043 114.644 101.043 115.628V120.74H102.339V122H101.349ZM97.0647 121.01C97.4367 121.01 97.7727 120.968 98.0727 120.884C98.3847 120.788 98.6547 120.668 98.8827 120.524C99.1107 120.368 99.2847 120.188 99.4047 119.984C99.5367 119.768 99.6027 119.54 99.6027 119.3V117.77H97.6227C96.7587 117.77 96.1287 117.89 95.7327 118.13C95.3367 118.37 95.1387 118.718 95.1387 119.174V119.552C95.1387 120.032 95.3067 120.398 95.6427 120.65C95.9907 120.89 96.4647 121.01 97.0647 121.01ZM108.38 122.216C107.408 122.216 106.568 122.054 105.86 121.73C105.164 121.394 104.57 120.95 104.078 120.398L105.05 119.552C105.494 120.02 105.98 120.38 106.508 120.632C107.036 120.884 107.672 121.01 108.416 121.01C109.136 121.01 109.724 120.884 110.18 120.632C110.648 120.368 110.882 119.96 110.882 119.408C110.882 119.168 110.834 118.97 110.738 118.814C110.654 118.646 110.534 118.514 110.378 118.418C110.222 118.322 110.048 118.25 109.856 118.202C109.664 118.142 109.46 118.094 109.244 118.058L107.786 117.842C107.462 117.794 107.108 117.728 106.724 117.644C106.352 117.56 106.01 117.428 105.698 117.248C105.386 117.056 105.122 116.804 104.906 116.492C104.702 116.18 104.6 115.772 104.6 115.268C104.6 114.8 104.69 114.398 104.87 114.062C105.062 113.714 105.326 113.426 105.662 113.198C105.998 112.958 106.394 112.784 106.85 112.676C107.306 112.556 107.804 112.496 108.344 112.496C109.184 112.496 109.91 112.628 110.522 112.892C111.146 113.156 111.68 113.522 112.124 113.99L111.188 114.872C111.08 114.74 110.942 114.608 110.774 114.476C110.618 114.332 110.42 114.206 110.18 114.098C109.952 113.978 109.682 113.882 109.37 113.81C109.058 113.738 108.698 113.702 108.29 113.702C107.558 113.702 106.994 113.828 106.598 114.08C106.214 114.332 106.022 114.698 106.022 115.178C106.022 115.418 106.064 115.622 106.148 115.79C106.244 115.946 106.37 116.072 106.526 116.168C106.682 116.264 106.856 116.342 107.048 116.402C107.252 116.45 107.456 116.492 107.66 116.528L109.118 116.744C109.454 116.792 109.808 116.858 110.18 116.942C110.552 117.026 110.894 117.164 111.206 117.356C111.518 117.536 111.776 117.782 111.98 118.094C112.196 118.406 112.304 118.814 112.304 119.318C112.304 120.242 111.944 120.956 111.224 121.46C110.516 121.964 109.568 122.216 108.38 122.216ZM118.867 122.216C118.195 122.216 117.589 122.102 117.049 121.874C116.521 121.646 116.065 121.322 115.681 120.902C115.309 120.47 115.021 119.96 114.817 119.372C114.613 118.772 114.511 118.106 114.511 117.374C114.511 116.63 114.613 115.958 114.817 115.358C115.033 114.758 115.327 114.248 115.699 113.828C116.071 113.396 116.515 113.066 117.031 112.838C117.559 112.61 118.141 112.496 118.777 112.496C119.401 112.496 119.965 112.61 120.469 112.838C120.985 113.066 121.423 113.384 121.783 113.792C122.143 114.188 122.419 114.662 122.611 115.214C122.803 115.766 122.899 116.372 122.899 117.032V117.716H116.023V118.148C116.023 118.556 116.089 118.934 116.221 119.282C116.353 119.63 116.539 119.93 116.779 120.182C117.031 120.434 117.331 120.632 117.679 120.776C118.039 120.908 118.435 120.974 118.867 120.974C119.491 120.974 120.031 120.83 120.487 120.542C120.943 120.254 121.291 119.858 121.531 119.354L122.593 120.074C122.317 120.698 121.855 121.214 121.207 121.622C120.571 122.018 119.791 122.216 118.867 122.216ZM118.777 113.684C118.381 113.684 118.015 113.756 117.679 113.9C117.343 114.044 117.049 114.242 116.797 114.494C116.557 114.746 116.365 115.046 116.221 115.394C116.089 115.73 116.023 116.102 116.023 116.51V116.636H121.351V116.438C121.351 116.03 121.285 115.658 121.153 115.322C121.033 114.986 120.859 114.698 120.631 114.458C120.415 114.206 120.145 114.014 119.821 113.882C119.509 113.75 119.161 113.684 118.777 113.684ZM140.021 122C139.313 122 138.791 121.802 138.455 121.406C138.131 121.01 137.969 120.5 137.969 119.876V113.936H134.873V112.712H137.177C137.489 112.712 137.705 112.652 137.825 112.532C137.957 112.4 138.023 112.178 138.023 111.866V109.436H139.409V112.712H143.639V113.936H139.409V120.776H143.639V122H140.021ZM145.99 120.776H148.708V113.936H145.99V112.712H150.148V115.052H150.238C150.43 114.32 150.79 113.75 151.318 113.342C151.858 112.922 152.542 112.712 153.37 112.712H154.666V114.152H152.92C152.092 114.152 151.42 114.392 150.904 114.872C150.4 115.352 150.148 115.982 150.148 116.762V120.776H153.748V122H145.99V120.776ZM163.442 112.712H164.882L160.274 124.034C160.166 124.298 160.046 124.526 159.914 124.718C159.782 124.922 159.626 125.084 159.446 125.204C159.266 125.336 159.05 125.432 158.798 125.492C158.546 125.564 158.246 125.6 157.898 125.6H156.53V124.376H158.69L159.734 121.82L155.99 112.712H157.466L159.032 116.6L160.418 120.128H160.49L161.876 116.6L163.442 112.712ZM184.812 122C184.248 122 183.846 121.856 183.606 121.568C183.366 121.28 183.216 120.92 183.156 120.488H183.066C182.862 121.028 182.532 121.454 182.076 121.766C181.632 122.066 181.032 122.216 180.276 122.216C179.304 122.216 178.53 121.964 177.954 121.46C177.378 120.956 177.09 120.266 177.09 119.39C177.09 118.526 177.402 117.86 178.026 117.392C178.662 116.924 179.682 116.69 181.086 116.69H183.066V115.772C183.066 115.088 182.874 114.578 182.49 114.242C182.106 113.894 181.56 113.72 180.852 113.72C180.228 113.72 179.718 113.846 179.322 114.098C178.926 114.338 178.608 114.668 178.368 115.088L177.396 114.368C177.516 114.128 177.678 113.894 177.882 113.666C178.086 113.438 178.338 113.24 178.638 113.072C178.938 112.892 179.28 112.754 179.664 112.658C180.048 112.55 180.474 112.496 180.942 112.496C182.034 112.496 182.898 112.772 183.534 113.324C184.182 113.876 184.506 114.644 184.506 115.628V120.74H185.802V122H184.812ZM180.528 121.01C180.9 121.01 181.236 120.968 181.536 120.884C181.848 120.788 182.118 120.668 182.346 120.524C182.574 120.368 182.748 120.188 182.868 119.984C183 119.768 183.066 119.54 183.066 119.3V117.77H181.086C180.222 117.77 179.592 117.89 179.196 118.13C178.8 118.37 178.602 118.718 178.602 119.174V119.552C178.602 120.032 178.77 120.398 179.106 120.65C179.454 120.89 179.928 121.01 180.528 121.01ZM196.433 123.062C196.433 123.998 196.043 124.688 195.263 125.132C194.483 125.588 193.313 125.816 191.753 125.816C190.253 125.816 189.173 125.618 188.513 125.222C187.865 124.826 187.541 124.256 187.541 123.512C187.541 123.008 187.673 122.618 187.937 122.342C188.201 122.066 188.573 121.862 189.053 121.73V121.514C188.789 121.382 188.585 121.214 188.441 121.01C188.297 120.806 188.225 120.548 188.225 120.236C188.225 119.756 188.381 119.396 188.693 119.156C189.017 118.916 189.419 118.736 189.899 118.616V118.544C189.323 118.292 188.873 117.92 188.549 117.428C188.237 116.936 188.081 116.36 188.081 115.7C188.081 115.232 188.165 114.8 188.333 114.404C188.501 114.008 188.741 113.672 189.053 113.396C189.377 113.108 189.761 112.886 190.205 112.73C190.649 112.574 191.141 112.496 191.681 112.496C192.377 112.496 192.989 112.622 193.517 112.874V112.712C193.517 112.352 193.601 112.052 193.769 111.812C193.937 111.572 194.225 111.452 194.633 111.452H196.343V112.712H194.255V113.342C194.591 113.63 194.849 113.972 195.029 114.368C195.209 114.764 195.299 115.208 195.299 115.7C195.299 116.168 195.209 116.6 195.029 116.996C194.861 117.392 194.621 117.734 194.309 118.022C193.997 118.298 193.613 118.514 193.157 118.67C192.713 118.826 192.221 118.904 191.681 118.904C191.525 118.904 191.375 118.898 191.231 118.886C191.087 118.874 190.943 118.856 190.799 118.832C190.655 118.856 190.505 118.898 190.349 118.958C190.193 119.006 190.049 119.078 189.917 119.174C189.785 119.258 189.677 119.36 189.593 119.48C189.509 119.6 189.467 119.738 189.467 119.894C189.467 120.17 189.605 120.356 189.881 120.452C190.157 120.536 190.517 120.578 190.961 120.578H193.013C194.213 120.578 195.083 120.806 195.623 121.262C196.163 121.706 196.433 122.306 196.433 123.062ZM195.083 123.134C195.083 122.762 194.933 122.462 194.633 122.234C194.333 122.018 193.811 121.91 193.067 121.91H189.845C189.221 122.162 188.909 122.582 188.909 123.17C188.909 123.578 189.071 123.926 189.395 124.214C189.719 124.514 190.259 124.664 191.015 124.664H192.419C193.259 124.664 193.913 124.532 194.381 124.268C194.849 124.016 195.083 123.638 195.083 123.134ZM191.681 117.788C192.401 117.788 192.929 117.62 193.265 117.284C193.613 116.948 193.787 116.504 193.787 115.952V115.43C193.787 114.878 193.613 114.44 193.265 114.116C192.929 113.78 192.401 113.612 191.681 113.612C190.961 113.612 190.433 113.78 190.097 114.116C189.761 114.44 189.593 114.878 189.593 115.43V115.952C189.593 116.504 189.761 116.948 190.097 117.284C190.433 117.62 190.961 117.788 191.681 117.788ZM205.678 122C205.114 122 204.712 121.856 204.472 121.568C204.232 121.28 204.082 120.92 204.022 120.488H203.932C203.728 121.028 203.398 121.454 202.942 121.766C202.498 122.066 201.898 122.216 201.142 122.216C200.17 122.216 199.396 121.964 198.82 121.46C198.244 120.956 197.956 120.266 197.956 119.39C197.956 118.526 198.268 117.86 198.892 117.392C199.528 116.924 200.548 116.69 201.952 116.69H203.932V115.772C203.932 115.088 203.74 114.578 203.356 114.242C202.972 113.894 202.426 113.72 201.718 113.72C201.094 113.72 200.584 113.846 200.188 114.098C199.792 114.338 199.474 114.668 199.234 115.088L198.262 114.368C198.382 114.128 198.544 113.894 198.748 113.666C198.952 113.438 199.204 113.24 199.504 113.072C199.804 112.892 200.146 112.754 200.53 112.658C200.914 112.55 201.34 112.496 201.808 112.496C202.9 112.496 203.764 112.772 204.4 113.324C205.048 113.876 205.372 114.644 205.372 115.628V120.74H206.668V122H205.678ZM201.394 121.01C201.766 121.01 202.102 120.968 202.402 120.884C202.714 120.788 202.984 120.668 203.212 120.524C203.44 120.368 203.614 120.188 203.734 119.984C203.866 119.768 203.932 119.54 203.932 119.3V117.77H201.952C201.088 117.77 200.458 117.89 200.062 118.13C199.666 118.37 199.468 118.718 199.468 119.174V119.552C199.468 120.032 199.636 120.398 199.972 120.65C200.32 120.89 200.794 121.01 201.394 121.01ZM213.177 110.66C212.757 110.66 212.463 110.576 212.295 110.408C212.127 110.228 212.043 110.006 212.043 109.742V109.454C212.043 109.19 212.127 108.974 212.295 108.806C212.463 108.626 212.757 108.536 213.177 108.536C213.597 108.536 213.891 108.626 214.059 108.806C214.227 108.974 214.311 109.19 214.311 109.454V109.742C214.311 110.006 214.227 110.228 214.059 110.408C213.891 110.576 213.597 110.66 213.177 110.66ZM209.109 120.776H212.457V113.936H209.109V112.712H213.897V120.776H217.029V122H209.109V120.776ZM219.398 122V112.712H220.838V114.224H220.91C221.006 113.996 221.126 113.78 221.27 113.576C221.414 113.36 221.588 113.174 221.792 113.018C222.008 112.862 222.26 112.736 222.548 112.64C222.836 112.544 223.172 112.496 223.556 112.496C224.528 112.496 225.308 112.808 225.896 113.432C226.484 114.044 226.778 114.914 226.778 116.042V122H225.338V116.294C225.338 115.442 225.152 114.812 224.78 114.404C224.408 113.984 223.862 113.774 223.142 113.774C222.854 113.774 222.572 113.81 222.296 113.882C222.02 113.954 221.774 114.062 221.558 114.206C221.342 114.35 221.168 114.536 221.036 114.764C220.904 114.992 220.838 115.256 220.838 115.556V122H219.398ZM233.467 122.162C232.975 122.162 232.627 122.06 232.423 121.856C232.231 121.652 232.135 121.394 232.135 121.082V120.758C232.135 120.446 232.231 120.188 232.423 119.984C232.627 119.78 232.975 119.678 233.467 119.678C233.959 119.678 234.301 119.78 234.493 119.984C234.697 120.188 234.799 120.446 234.799 120.758V121.082C234.799 121.394 234.697 121.652 234.493 121.856C234.301 122.06 233.959 122.162 233.467 122.162Z" fill="#111111"/>
</g>
<defs>
<clipPath id="clip0_193_257685">
<rect width="300" height="158" fill="white"/>
</clipPath>
<clipPath id="clip1_193_257685">
<rect width="276" height="6" fill="white" transform="translate(12)"/>
</clipPath>
<clipPath id="clip2_193_257685">
<rect width="276" height="6" fill="white" transform="matrix(1 0 0 -1 12 158)"/>
</clipPath>
<clipPath id="clip3_193_257685">
<rect width="288" height="6" fill="white" transform="matrix(1 0 0 -1 6 58)"/>
</clipPath>
</defs>
</svg>
