<svg width="102" height="40" viewBox="0 0 102 40" fill="none" xmlns="http://www.w3.org/2000/svg">
<path d="M98 4H4V36H98V4Z" fill="#B4B4B4"/>
<path d="M42 0H4V4H42V0Z" fill="#365969"/>
<path d="M46 0H8V4H46V0Z" fill="#365969"/>
<path d="M50 0H12V4H50V0Z" fill="#365969"/>
<path d="M54 0H16V4H54V0Z" fill="#365969"/>
<path d="M58 0H20V4H58V0Z" fill="#365969"/>
<path d="M62 0H24V4H62V0Z" fill="#365969"/>
<path d="M66 0H28V4H66V0Z" fill="#365969"/>
<path d="M70 0H32V4H70V0Z" fill="#365969"/>
<path d="M74 0H36V4H74V0Z" fill="#365969"/>
<path d="M78 0H40V4H78V0Z" fill="#365969"/>
<path d="M82 0H44V4H82V0Z" fill="#365969"/>
<path d="M86 0H48V4H86V0Z" fill="#365969"/>
<path d="M90 0H52V4H90V0Z" fill="#365969"/>
<path d="M94 0H56V4H94V0Z" fill="#365969"/>
<path d="M98 0H60V4H98V0Z" fill="#365969"/>
<path d="M42 36H4V40H42V36Z" fill="#365969"/>
<path d="M46 36H8V40H46V36Z" fill="#365969"/>
<path d="M50 36H12V40H50V36Z" fill="#365969"/>
<path d="M54 36H16V40H54V36Z" fill="#365969"/>
<path d="M58 36H20V40H58V36Z" fill="#365969"/>
<path d="M62 36H24V40H62V36Z" fill="#365969"/>
<path d="M66 36H28V40H66V36Z" fill="#365969"/>
<path d="M70 36H32V40H70V36Z" fill="#365969"/>
<path d="M74 36H36V40H74V36Z" fill="#365969"/>
<path d="M78 36H40V40H78V36Z" fill="#365969"/>
<path d="M82 36H44V40H82V36Z" fill="#365969"/>
<path d="M86 36H48V40H86V36Z" fill="#365969"/>
<path d="M90 36H52V40H90V36Z" fill="#365969"/>
<path d="M94 36H56V40H94V36Z" fill="#365969"/>
<path d="M98 36H60V40H98V36Z" fill="#365969"/>
<path d="M4 4H0V20H4V4Z" fill="#365969"/>
<path d="M4 8H0V24H4V8Z" fill="#365969"/>
<path d="M4 12H0V28H4V12Z" fill="#365969"/>
<path d="M4 16H0V32H4V16Z" fill="#365969"/>
<path d="M4 20H0V36H4V20Z" fill="#365969"/>
<path d="M102 4H98V20H102V4Z" fill="#365969"/>
<path d="M102 8H98V24H102V8Z" fill="#365969"/>
<path d="M102 12H98V28H102V12Z" fill="#365969"/>
<path d="M102 16H98V32H102V16Z" fill="#365969"/>
<path d="M102 20H98V36H102V20Z" fill="#365969"/>
<path d="M25.4216 26V24.236H28.2476V15.2H25.4216V13.436H33.4136V15.2H30.5876V24.236H33.4136V26H25.4216ZM36.1605 26V16.712H38.4645V18.35H38.5545C38.7585 17.846 39.0705 17.414 39.4905 17.054C39.9225 16.682 40.5165 16.496 41.2725 16.496C42.1845 16.496 42.9225 16.802 43.4865 17.414C44.0625 18.014 44.3505 18.878 44.3505 20.006V26H42.0465V20.33C42.0465 18.986 41.4645 18.314 40.3005 18.314C40.0605 18.314 39.8325 18.344 39.6165 18.404C39.4005 18.464 39.2025 18.56 39.0225 18.692C38.8545 18.812 38.7165 18.962 38.6085 19.142C38.5125 19.322 38.4645 19.538 38.4645 19.79V26H36.1605ZM46.8455 16.712H49.1495V18.35H49.2755C49.5275 17.786 49.8695 17.336 50.3015 17C50.7455 16.664 51.3275 16.496 52.0475 16.496C52.5755 16.496 53.0555 16.598 53.4875 16.802C53.9315 16.994 54.3095 17.294 54.6215 17.702C54.9335 18.098 55.1735 18.602 55.3415 19.214C55.5095 19.826 55.5935 20.54 55.5935 21.356C55.5935 22.172 55.5095 22.886 55.3415 23.498C55.1735 24.11 54.9335 24.62 54.6215 25.028C54.3095 25.424 53.9315 25.724 53.4875 25.928C53.0555 26.12 52.5755 26.216 52.0475 26.216C51.3275 26.216 50.7455 26.048 50.3015 25.712C49.8695 25.376 49.5275 24.926 49.2755 24.362H49.1495V29.6H46.8455V16.712ZM51.0755 24.38C51.7475 24.38 52.2635 24.176 52.6235 23.768C52.9955 23.36 53.1815 22.802 53.1815 22.094V20.618C53.1815 19.91 52.9955 19.352 52.6235 18.944C52.2635 18.536 51.7475 18.332 51.0755 18.332C50.5475 18.332 50.0915 18.464 49.7075 18.728C49.3355 18.98 49.1495 19.37 49.1495 19.898V22.814C49.1495 23.342 49.3355 23.738 49.7075 24.002C50.0915 24.254 50.5475 24.38 51.0755 24.38ZM63.5425 24.362H63.4525C63.2485 24.866 62.9305 25.304 62.4985 25.676C62.0785 26.036 61.4905 26.216 60.7345 26.216C59.8225 26.216 59.0785 25.916 58.5025 25.316C57.9385 24.704 57.6565 23.834 57.6565 22.706V16.712H59.9605V22.382C59.9605 23.726 60.5425 24.398 61.7065 24.398C61.9345 24.398 62.1565 24.368 62.3725 24.308C62.6005 24.248 62.7985 24.158 62.9665 24.038C63.1465 23.906 63.2845 23.75 63.3805 23.57C63.4885 23.39 63.5425 23.174 63.5425 22.922V16.712H65.8465V26H63.5425V24.362ZM73.2195 26C72.3315 26 71.6775 25.766 71.2575 25.298C70.8375 24.83 70.6275 24.224 70.6275 23.48V18.53H67.9275V16.712H69.7635C70.1355 16.712 70.3995 16.64 70.5555 16.496C70.7115 16.34 70.7895 16.07 70.7895 15.686V13.436H72.9315V16.712H76.7115V18.53H72.9315V24.182H76.7115V26H73.2195Z" fill="white"/>
</svg>
