<svg width="48" height="48" viewBox="0 0 48 48" fill="none" xmlns="http://www.w3.org/2000/svg">
<circle cx="24" cy="24" r="24" fill="#6C989F"/>
<mask id="mask0_1075_100240" style="mask-type:alpha" maskUnits="userSpaceOnUse" x="0" y="0" width="48" height="48">
<circle cx="24" cy="24" r="24" fill="#6C989F"/>
</mask>
<g mask="url(#mask0_1075_100240)">
<path d="M9 13V57H29.9998L38.9998 48V13H9Z" fill="white"/>
<path d="M12 22V32.5H35.9998V22H12Z" fill="#F43DE3"/>
<path d="M17.1448 28.6748C17.1448 29.3588 16.9873 29.8463 16.6678 30.1388C16.3513 30.4283 15.8653 30.5753 15.2113 30.5753C14.8678 30.5753 14.5873 30.5288 14.3683 30.4343C14.1493 30.3413 13.9738 30.2108 13.8448 30.0383C13.7158 29.8658 13.6273 29.6678 13.5808 29.4398C13.5313 29.2133 13.5073 28.9718 13.5073 28.7213V28.4408H14.6953V28.6403C14.6953 28.9823 14.7313 29.2343 14.8078 29.4008C14.8828 29.5643 15.0358 29.6483 15.2713 29.6483C15.5068 29.6483 15.6613 29.5643 15.7363 29.4008C15.8113 29.2358 15.8488 28.9823 15.8488 28.6403V24.0488H17.1448V28.6748Z" fill="white"/>
<path d="M19.5743 28.6571C19.5743 28.8071 19.5878 28.9436 19.6103 29.0651C19.6343 29.1881 19.6793 29.2916 19.7453 29.3756C19.8113 29.4611 19.9013 29.5271 20.0123 29.5751C20.1218 29.6216 20.2613 29.6471 20.4293 29.6471C20.6273 29.6471 20.8058 29.5826 20.9633 29.4536C21.1223 29.3246 21.2033 29.1236 21.2033 28.8551C21.2033 28.7111 21.1823 28.5866 21.1448 28.4816C21.1058 28.3766 21.0413 28.2821 20.9513 28.1996C20.8598 28.1141 20.7413 28.0391 20.5943 27.9701C20.4473 27.9011 20.2658 27.8306 20.0513 27.7586C19.7633 27.6626 19.5143 27.5561 19.3043 27.4421C19.0943 27.3296 18.9189 27.1961 18.7779 27.0416C18.6369 26.8886 18.5319 26.7116 18.4674 26.5106C18.3999 26.3081 18.3684 26.0771 18.3684 25.8116C18.3684 25.1756 18.5454 24.7031 18.8994 24.3911C19.2533 24.0791 19.7408 23.9231 20.3588 23.9231C20.6453 23.9231 20.9123 23.9546 21.1553 24.0176C21.3983 24.0806 21.6083 24.1811 21.7853 24.3236C21.9608 24.4646 22.1003 24.6446 22.1978 24.8621C22.2968 25.0811 22.3478 25.3436 22.3478 25.6496V25.8296H21.1043C21.1043 25.5236 21.0503 25.2881 20.9438 25.1216C20.8358 24.9581 20.6543 24.8741 20.4023 24.8741C20.2583 24.8741 20.1383 24.8966 20.0438 24.9371C19.9493 24.9791 19.8713 25.0346 19.8143 25.1036C19.7573 25.1726 19.7168 25.2551 19.6958 25.3451C19.6748 25.4351 19.6643 25.5281 19.6643 25.6241C19.6643 25.8236 19.7063 25.9886 19.7903 26.1236C19.8743 26.2601 20.0543 26.3846 20.3303 26.4971L21.3293 26.9291C21.5753 27.0371 21.7748 27.1496 21.9308 27.2681C22.0868 27.3866 22.2113 27.5111 22.3043 27.6461C22.3973 27.7811 22.4648 27.9281 22.4993 28.0916C22.5353 28.2521 22.5533 28.4336 22.5533 28.6301C22.5533 29.3081 22.3568 29.8016 21.9623 30.1106C21.5693 30.4196 21.0218 30.5756 20.3213 30.5756C19.5893 30.5756 19.0643 30.4166 18.7494 30.0986C18.4344 29.7806 18.2769 29.3246 18.2769 28.7306V28.4696H19.5743V28.6571Z" fill="white"/>
<path d="M23.6744 25.9166C23.7179 25.5071 23.8184 25.1531 23.9699 24.8591C24.1244 24.5666 24.3449 24.3356 24.6314 24.1706C24.9179 24.0071 25.3064 23.9231 25.7909 23.9231C26.2769 23.9231 26.6639 24.0071 26.9519 24.1706C27.2399 24.3356 27.4604 24.5666 27.6119 24.8591C27.7664 25.1531 27.8639 25.5071 27.9104 25.9166C27.9539 26.3276 27.9779 26.7761 27.9779 27.2621C27.9779 27.7526 27.9539 28.2041 27.9104 28.6106C27.8639 29.0186 27.7649 29.3696 27.6119 29.6636C27.4589 29.9576 27.2399 30.1826 26.9519 30.3386C26.6639 30.4946 26.2769 30.5726 25.7909 30.5726C25.3064 30.5726 24.9179 30.4931 24.6314 30.3386C24.3449 30.1826 24.1229 29.9576 23.9699 29.6636C23.8169 29.3696 23.7179 29.0186 23.6744 28.6106C23.6294 28.2041 23.6069 27.7526 23.6069 27.2621C23.6069 26.7776 23.6294 26.3291 23.6744 25.9166ZM24.9344 28.3646C24.9554 28.6676 24.9974 28.9136 25.0604 29.1026C25.1234 29.2916 25.2134 29.4296 25.3304 29.5166C25.4474 29.6036 25.6034 29.6471 25.7939 29.6471C25.9874 29.6471 26.1404 29.6036 26.2589 29.5166C26.3759 29.4281 26.4659 29.2916 26.5304 29.1026C26.5919 28.9136 26.6339 28.6676 26.6564 28.3646C26.6774 28.0616 26.6879 27.6956 26.6879 27.2636C26.6879 26.8316 26.6774 26.4656 26.6564 26.1656C26.6339 25.8656 26.5919 25.6196 26.5304 25.4276C26.4659 25.2356 26.3759 25.0961 26.2589 25.0106C26.1419 24.9221 25.9874 24.8786 25.7939 24.8786C25.6034 24.8786 25.4489 24.9221 25.3304 25.0106C25.2134 25.0976 25.1234 25.2356 25.0604 25.4276C24.9974 25.6196 24.9554 25.8656 24.9344 26.1656C24.9134 26.4656 24.9029 26.8316 24.9029 27.2636C24.9029 27.6956 24.9134 28.0616 24.9344 28.3646Z" fill="white"/>
<path d="M32.3461 28.4513H32.3641V24.0488H33.5521V30.4748H32.0776L30.4922 25.9748H30.4742V30.4748H29.2847V24.0488H30.7787L32.3461 28.4513Z" fill="white"/>
</g>
</svg>
