<svg width="24" height="24" viewBox="0 0 24 24" fill="none" xmlns="http://www.w3.org/2000/svg">
<g clip-path="url(#clip0_1295_41015)">
<circle cx="12" cy="11.9995" r="9.75004" stroke="#DEDEDE" stroke-width="2.5"/>
<path d="M18.8964 5.10317C19.3834 4.61615 20.1795 4.61225 20.6083 5.15123C21.6716 6.48781 22.4128 8.05852 22.7658 9.74125C23.2044 11.8323 23.0246 14.0059 22.2483 15.9964C21.4719 17.9869 20.1327 19.7083 18.3942 20.9503C16.9952 21.9497 15.3863 22.6039 13.6988 22.8676C13.0183 22.974 12.4351 22.4322 12.4064 21.744C12.3777 21.0559 12.9156 20.484 13.5922 20.3551C14.7953 20.1258 15.9398 19.6384 16.9444 18.9208C18.2887 17.9604 19.3243 16.6294 19.9246 15.0902C20.5249 13.5509 20.6639 11.8702 20.3247 10.2533C20.0713 9.04504 19.559 7.91147 18.8288 6.92819C18.4181 6.37525 18.4094 5.59018 18.8964 5.10317Z" fill="#00CCEC"/>
</g>
<defs>
<clipPath id="clip0_1295_41015">
<rect width="24" height="24" fill="white"/>
</clipPath>
</defs>
</svg>
