<svg width="760" height="160" viewBox="0 0 760 160" fill="none" xmlns="http://www.w3.org/2000/svg">
<g clip-path="url(#clip0_944_267846)">
<path d="M6 23.3329V19.1665L15.8304 15H747.91L754 19.1665V149.477L742.78 154L17.22 154.508L6 150.032V23.3329Z" fill="white"/>
<path d="M754 52V12L745.731 6L14.2687 6L6 11.9764V15.8013V52H754Z" fill="#00CCEC"/>
<path d="M754 6H748V12H754V6Z" fill="#365969"/>
<path d="M754 154H748V148H754V154Z" fill="#365969"/>
<path d="M12 6H6V12H12V6Z" fill="#365969"/>
<path d="M12 154H6V148H12V154Z" fill="#365969"/>
<path d="M430 0H12V6H430V0Z" fill="#365969"/>
<path d="M436 0H18V6H436V0Z" fill="#365969"/>
<path d="M442 0H24V6H442V0Z" fill="#365969"/>
<path d="M448 0H30V6H448V0Z" fill="#365969"/>
<path d="M454 0H36V6H454V0Z" fill="#365969"/>
<path d="M460 0H42V6H460V0Z" fill="#365969"/>
<path d="M466 0H48V6H466V0Z" fill="#365969"/>
<path d="M472 0H54V6H472V0Z" fill="#365969"/>
<path d="M478 0H60V6H478V0Z" fill="#365969"/>
<path d="M484 0H66V6H484V0Z" fill="#365969"/>
<path d="M490 0H72V6H490V0Z" fill="#365969"/>
<path d="M496 0H78V6H496V0Z" fill="#365969"/>
<path d="M502 0H84V6H502V0Z" fill="#365969"/>
<path d="M508 0H90V6H508V0Z" fill="#365969"/>
<path d="M514 0H96V6H514V0Z" fill="#365969"/>
<path d="M520 0H102V6H520V0Z" fill="#365969"/>
<path d="M526 0H108V6H526V0Z" fill="#365969"/>
<path d="M532 0H114V6H532V0Z" fill="#365969"/>
<path d="M538 0H120V6H538V0Z" fill="#365969"/>
<path d="M544 0H126V6H544V0Z" fill="#365969"/>
<path d="M550 0H132V6H550V0Z" fill="#365969"/>
<path d="M556 0H138V6H556V0Z" fill="#365969"/>
<path d="M562 0H144V6H562V0Z" fill="#365969"/>
<path d="M568 0H150V6H568V0Z" fill="#365969"/>
<path d="M574 0H156V6H574V0Z" fill="#365969"/>
<path d="M580 0H162V6H580V0Z" fill="#365969"/>
<path d="M586 0H168V6H586V0Z" fill="#365969"/>
<path d="M592 0H174V6H592V0Z" fill="#365969"/>
<path d="M598 0H180V6H598V0Z" fill="#365969"/>
<path d="M604 0H186V6H604V0Z" fill="#365969"/>
<path d="M610 0H192V6H610V0Z" fill="#365969"/>
<path d="M616 0H198V6H616V0Z" fill="#365969"/>
<path d="M622 0H204V6H622V0Z" fill="#365969"/>
<path d="M628 0H210V6H628V0Z" fill="#365969"/>
<path d="M634 0H216V6H634V0Z" fill="#365969"/>
<path d="M640 0H222V6H640V0Z" fill="#365969"/>
<path d="M646 0H228V6H646V0Z" fill="#365969"/>
<path d="M652 0H234V6H652V0Z" fill="#365969"/>
<path d="M658 0H240V6H658V0Z" fill="#365969"/>
<path d="M664 0H246V6H664V0Z" fill="#365969"/>
<path d="M670 0H252V6H670V0Z" fill="#365969"/>
<path d="M676 0H258V6H676V0Z" fill="#365969"/>
<path d="M682 0H264V6H682V0Z" fill="#365969"/>
<path d="M688 0H270V6H688V0Z" fill="#365969"/>
<path d="M694 0H276V6H694V0Z" fill="#365969"/>
<path d="M700 0H282V6H700V0Z" fill="#365969"/>
<path d="M706 0H288V6H706V0Z" fill="#365969"/>
<path d="M712 0H294V6H712V0Z" fill="#365969"/>
<path d="M718 0H300V6H718V0Z" fill="#365969"/>
<path d="M724 0H306V6H724V0Z" fill="#365969"/>
<path d="M730 0H312V6H730V0Z" fill="#365969"/>
<path d="M736 0H318V6H736V0Z" fill="#365969"/>
<path d="M742 0H324V6H742V0Z" fill="#365969"/>
<path d="M748 0H330V6H748V0Z" fill="#365969"/>
<path d="M430 160H12V154H430V160Z" fill="#365969"/>
<path d="M436 160H18V154H436V160Z" fill="#365969"/>
<path d="M442 160H24V154H442V160Z" fill="#365969"/>
<path d="M448 160H30V154H448V160Z" fill="#365969"/>
<path d="M454 160H36V154H454V160Z" fill="#365969"/>
<path d="M460 160H42V154H460V160Z" fill="#365969"/>
<path d="M466 160H48V154H466V160Z" fill="#365969"/>
<path d="M472 160H54V154H472V160Z" fill="#365969"/>
<path d="M478 160H60V154H478V160Z" fill="#365969"/>
<path d="M484 160H66V154H484V160Z" fill="#365969"/>
<path d="M490 160H72V154H490V160Z" fill="#365969"/>
<path d="M496 160H78V154H496V160Z" fill="#365969"/>
<path d="M502 160H84V154H502V160Z" fill="#365969"/>
<path d="M508 160H90V154H508V160Z" fill="#365969"/>
<path d="M514 160H96V154H514V160Z" fill="#365969"/>
<path d="M520 160H102V154H520V160Z" fill="#365969"/>
<path d="M526 160H108V154H526V160Z" fill="#365969"/>
<path d="M532 160H114V154H532V160Z" fill="#365969"/>
<path d="M538 160H120V154H538V160Z" fill="#365969"/>
<path d="M544 160H126V154H544V160Z" fill="#365969"/>
<path d="M550 160H132V154H550V160Z" fill="#365969"/>
<path d="M556 160H138V154H556V160Z" fill="#365969"/>
<path d="M562 160H144V154H562V160Z" fill="#365969"/>
<path d="M568 160H150V154H568V160Z" fill="#365969"/>
<path d="M574 160H156V154H574V160Z" fill="#365969"/>
<path d="M580 160H162V154H580V160Z" fill="#365969"/>
<path d="M586 160H168V154H586V160Z" fill="#365969"/>
<path d="M592 160H174V154H592V160Z" fill="#365969"/>
<path d="M598 160H180V154H598V160Z" fill="#365969"/>
<path d="M604 160H186V154H604V160Z" fill="#365969"/>
<path d="M610 160H192V154H610V160Z" fill="#365969"/>
<path d="M616 160H198V154H616V160Z" fill="#365969"/>
<path d="M622 160H204V154H622V160Z" fill="#365969"/>
<path d="M628 160H210V154H628V160Z" fill="#365969"/>
<path d="M634 160H216V154H634V160Z" fill="#365969"/>
<path d="M640 160H222V154H640V160Z" fill="#365969"/>
<path d="M646 160H228V154H646V160Z" fill="#365969"/>
<path d="M652 160H234V154H652V160Z" fill="#365969"/>
<path d="M658 160H240V154H658V160Z" fill="#365969"/>
<path d="M664 160H246V154H664V160Z" fill="#365969"/>
<path d="M670 160H252V154H670V160Z" fill="#365969"/>
<path d="M676 160H258V154H676V160Z" fill="#365969"/>
<path d="M682 160H264V154H682V160Z" fill="#365969"/>
<path d="M688 160H270V154H688V160Z" fill="#365969"/>
<path d="M694 160H276V154H694V160Z" fill="#365969"/>
<path d="M700 160H282V154H700V160Z" fill="#365969"/>
<path d="M706 160H288V154H706V160Z" fill="#365969"/>
<path d="M712 160H294V154H712V160Z" fill="#365969"/>
<path d="M718 160H300V154H718V160Z" fill="#365969"/>
<path d="M724 160H306V154H724V160Z" fill="#365969"/>
<path d="M730 160H312V154H730V160Z" fill="#365969"/>
<path d="M736 160H318V154H736V160Z" fill="#365969"/>
<path d="M742 160H324V154H742V160Z" fill="#365969"/>
<path d="M748 160H330V154H748V160Z" fill="#365969"/>
<path d="M424 58H6V52H424V58Z" fill="#C2F7FF"/>
<path d="M430 58H12V52H430V58Z" fill="#C2F7FF"/>
<path d="M436 58H18V52H436V58Z" fill="#C2F7FF"/>
<path d="M442 58H24V52H442V58Z" fill="#C2F7FF"/>
<path d="M448 58H30V52H448V58Z" fill="#C2F7FF"/>
<path d="M454 58H36V52H454V58Z" fill="#C2F7FF"/>
<path d="M460 58H42V52H460V58Z" fill="#C2F7FF"/>
<path d="M466 58H48V52H466V58Z" fill="#C2F7FF"/>
<path d="M472 58H54V52H472V58Z" fill="#C2F7FF"/>
<path d="M478 58H60V52H478V58Z" fill="#C2F7FF"/>
<path d="M484 58H66V52H484V58Z" fill="#C2F7FF"/>
<path d="M490 58H72V52H490V58Z" fill="#C2F7FF"/>
<path d="M496 58H78V52H496V58Z" fill="#C2F7FF"/>
<path d="M502 58H84V52H502V58Z" fill="#C2F7FF"/>
<path d="M508 58H90V52H508V58Z" fill="#C2F7FF"/>
<path d="M514 58H96V52H514V58Z" fill="#C2F7FF"/>
<path d="M520 58H102V52H520V58Z" fill="#C2F7FF"/>
<path d="M526 58H108V52H526V58Z" fill="#C2F7FF"/>
<path d="M532 58H114V52H532V58Z" fill="#C2F7FF"/>
<path d="M538 58H120V52H538V58Z" fill="#C2F7FF"/>
<path d="M544 58H126V52H544V58Z" fill="#C2F7FF"/>
<path d="M550 58H132V52H550V58Z" fill="#C2F7FF"/>
<path d="M556 58H138V52H556V58Z" fill="#C2F7FF"/>
<path d="M562 58H144V52H562V58Z" fill="#C2F7FF"/>
<path d="M568 58H150V52H568V58Z" fill="#C2F7FF"/>
<path d="M574 58H156V52H574V58Z" fill="#C2F7FF"/>
<path d="M580 58H162V52H580V58Z" fill="#C2F7FF"/>
<path d="M586 58H168V52H586V58Z" fill="#C2F7FF"/>
<path d="M592 58H174V52H592V58Z" fill="#C2F7FF"/>
<path d="M598 58H180V52H598V58Z" fill="#C2F7FF"/>
<path d="M604 58H186V52H604V58Z" fill="#C2F7FF"/>
<path d="M610 58H192V52H610V58Z" fill="#C2F7FF"/>
<path d="M616 58H198V52H616V58Z" fill="#C2F7FF"/>
<path d="M622 58H204V52H622V58Z" fill="#C2F7FF"/>
<path d="M628 58H210V52H628V58Z" fill="#C2F7FF"/>
<path d="M634 58H216V52H634V58Z" fill="#C2F7FF"/>
<path d="M640 58H222V52H640V58Z" fill="#C2F7FF"/>
<path d="M646 58H228V52H646V58Z" fill="#C2F7FF"/>
<path d="M652 58H234V52H652V58Z" fill="#C2F7FF"/>
<path d="M658 58H240V52H658V58Z" fill="#C2F7FF"/>
<path d="M664 58H246V52H664V58Z" fill="#C2F7FF"/>
<path d="M670 58H252V52H670V58Z" fill="#C2F7FF"/>
<path d="M676 58H258V52H676V58Z" fill="#C2F7FF"/>
<path d="M682 58H264V52H682V58Z" fill="#C2F7FF"/>
<path d="M688 58H270V52H688V58Z" fill="#C2F7FF"/>
<path d="M694 58H276V52H694V58Z" fill="#C2F7FF"/>
<path d="M700 58H282V52H700V58Z" fill="#C2F7FF"/>
<path d="M706 58H288V52H706V58Z" fill="#C2F7FF"/>
<path d="M712 58H294V52H712V58Z" fill="#C2F7FF"/>
<path d="M718 58H300V52H718V58Z" fill="#C2F7FF"/>
<path d="M724 58H306V52H724V58Z" fill="#C2F7FF"/>
<path d="M730 58H312V52H730V58Z" fill="#C2F7FF"/>
<path d="M736 58H318V52H736V58Z" fill="#C2F7FF"/>
<path d="M742 58H324V52H742V58Z" fill="#C2F7FF"/>
<path d="M748 58H330V52H748V58Z" fill="#C2F7FF"/>
<path d="M754 58H336V52H754V58Z" fill="#C2F7FF"/>
<path d="M732 26H726V32H732V26Z" fill="#365969"/>
<path d="M726 32H720V38H726V32Z" fill="#365969"/>
<path d="M738 32H732V38H738V32Z" fill="#365969"/>
<path d="M726 20H720V26H726V20Z" fill="#365969"/>
<path d="M738 20H732V26H738V20Z" fill="#365969"/>
<path d="M760 18H754V12H760V18Z" fill="#365969"/>
<path d="M760 24H754V18H760V24Z" fill="#365969"/>
<path d="M760 30H754V24H760V30Z" fill="#365969"/>
<path d="M760 36H754V30H760V36Z" fill="#365969"/>
<path d="M760 42H754V36H760V42Z" fill="#365969"/>
<path d="M760 48H754V42H760V48Z" fill="#365969"/>
<path d="M760 54H754V48H760V54Z" fill="#365969"/>
<path d="M760 60H754V54H760V60Z" fill="#365969"/>
<path d="M760 66H754V60H760V66Z" fill="#365969"/>
<path d="M760 72H754V66H760V72Z" fill="#365969"/>
<path d="M760 78H754V72H760V78Z" fill="#365969"/>
<path d="M760 84H754V78H760V84Z" fill="#365969"/>
<path d="M760 90H754V84H760V90Z" fill="#365969"/>
<path d="M760 96H754V90H760V96Z" fill="#365969"/>
<path d="M760 102H754V96H760V102Z" fill="#365969"/>
<path d="M760 108H754V102H760V108Z" fill="#365969"/>
<path d="M760 114H754V108H760V114Z" fill="#365969"/>
<path d="M760 120H754V114H760V120Z" fill="#365969"/>
<path d="M760 126H754V120H760V126Z" fill="#365969"/>
<path d="M760 132H754V126H760V132Z" fill="#365969"/>
<path d="M760 138H754V132H760V138Z" fill="#365969"/>
<path d="M760 144H754V138H760V144Z" fill="#365969"/>
<path d="M760 148H754V142H760V148Z" fill="#365969"/>
<rect x="0.5" y="12.5" width="5" height="135" stroke="black"/>
<path d="M6 18H0V12H6V18Z" fill="#365969"/>
<path d="M6 24H0V18H6V24Z" fill="#365969"/>
<path d="M6 30H0V24H6V30Z" fill="#365969"/>
<path d="M6 36H0V30H6V36Z" fill="#365969"/>
<path d="M6 42H0V36H6V42Z" fill="#365969"/>
<path d="M6 48H0V42H6V48Z" fill="#365969"/>
<path d="M6 54H0V48H6V54Z" fill="#365969"/>
<path d="M6 60H0V54H6V60Z" fill="#365969"/>
<path d="M6 66H0V60H6V66Z" fill="#365969"/>
<path d="M6 72H0V66H6V72Z" fill="#365969"/>
<path d="M6 78H0V72H6V78Z" fill="#365969"/>
<path d="M6 84H0V78H6V84Z" fill="#365969"/>
<path d="M6 90H0V84H6V90Z" fill="#365969"/>
<path d="M6 96H0V90H6V96Z" fill="#365969"/>
<path d="M6 102H0V96H6V102Z" fill="#365969"/>
<path d="M6 108H0V102H6V108Z" fill="#365969"/>
<path d="M6 114H0V108H6V114Z" fill="#365969"/>
<path d="M6 120H0V114H6V120Z" fill="#365969"/>
<path d="M6 126H0V120H6V126Z" fill="#365969"/>
<path d="M6 132H0V126H6V132Z" fill="#365969"/>
<path d="M6 138H0V132H6V138Z" fill="#365969"/>
<path d="M6 144H0V138H6V144Z" fill="#365969"/>
<path d="M6 148H0V142H6V148Z" fill="#365969"/>
<path d="M22 22.0714H23.3929V23.4643H22V22.0714ZM23.3929 22.0714H24.7857V23.4643H23.3929V22.0714ZM23.3929 23.4643H24.7857V24.8571H23.3929V23.4643ZM23.3929 24.8571H24.7857V26.25H23.3929V24.8571ZM23.3929 26.25H24.7857V27.6429H23.3929V26.25ZM22 26.25H23.3929V27.6429H22V26.25ZM22 24.8571H23.3929V26.25H22V24.8571ZM22 23.4643H23.3929V24.8571H22V23.4643ZM22 27.6429H23.3929V29.0357H22V27.6429ZM22 29.0357H23.3929V30.4286H22V29.0357ZM22 30.4286H23.3929V31.8214H22V30.4286ZM23.3929 29.0357H24.7857V30.4286H23.3929V29.0357ZM23.3929 27.6429H24.7857V29.0357H23.3929V27.6429ZM23.3929 30.4286H24.7857V31.8214H23.3929V30.4286ZM23.3929 31.8214H24.7857V33.2143H23.3929V31.8214ZM22 33.2143H23.3929V34.6071H22V33.2143ZM22 31.8214H23.3929V33.2143H22V31.8214ZM22 34.6071H23.3929V36H22V34.6071ZM23.3929 34.6071H24.7857V36H23.3929V34.6071ZM23.3929 33.2143H24.7857V34.6071H23.3929V33.2143ZM24.7857 34.6071H26.1786V36H24.7857V34.6071ZM26.1786 34.6071H27.5714V36H26.1786V34.6071ZM27.5714 34.6071H28.9643V36H27.5714V34.6071ZM27.5714 33.2143H28.9643V34.6071H27.5714V33.2143ZM26.1786 33.2143H27.5714V34.6071H26.1786V33.2143ZM24.7857 33.2143H26.1786V34.6071H24.7857V33.2143ZM24.7857 22.0714H26.1786V23.4643H24.7857V22.0714ZM26.1786 22.0714H27.5714V23.4643H26.1786V22.0714ZM27.5714 22.0714H28.9643V23.4643H27.5714V22.0714ZM28.9643 22.0714H30.3571V23.4643H28.9643V22.0714ZM27.5714 23.4643H28.9643V24.8571H27.5714V23.4643ZM26.1786 23.4643H27.5714V24.8571H26.1786V23.4643ZM24.7857 23.4643H26.1786V24.8571H24.7857V23.4643ZM24.7857 29.0357H26.1786V30.4286H24.7857V29.0357ZM26.1786 27.6429H27.5714V29.0357H26.1786V27.6429ZM24.7857 27.6429H26.1786V29.0357H24.7857V27.6429ZM26.1786 29.0357H27.5714V30.4286H26.1786V29.0357ZM28.9643 23.4643H30.3571V24.8571H28.9643V23.4643ZM28.9643 33.2143H30.3571V34.6071H28.9643V33.2143ZM28.9643 34.6071H30.3571V36H28.9643V34.6071ZM27.5714 27.6429H28.9643V29.0357H27.5714V27.6429ZM27.5714 29.0357H28.9643V30.4286H27.5714V29.0357ZM37.5814 33.2143H38.9743V34.6071H37.5814V33.2143ZM37.5814 34.6071H38.9743V36H37.5814V34.6071ZM36.1886 34.6071H37.5814V36H36.1886V34.6071ZM36.1886 33.2143H37.5814V34.6071H36.1886V33.2143ZM34.7957 34.6071H36.1886V36H34.7957V34.6071ZM34.7957 33.2143H36.1886V34.6071H34.7957V33.2143ZM33.4029 33.2143H34.7957V34.6071H33.4029V33.2143ZM33.4029 31.8214H34.7957V33.2143H33.4029V31.8214ZM33.4029 30.4286H34.7957V31.8214H33.4029V30.4286ZM33.4029 29.0357H34.7957V30.4286H33.4029V29.0357ZM33.4029 27.6429H34.7957V29.0357H33.4029V27.6429ZM33.4029 26.25H34.7957V27.6429H33.4029V26.25ZM34.7957 30.4286H36.1886V31.8214H34.7957V30.4286ZM34.7957 31.8214H36.1886V33.2143H34.7957V31.8214ZM34.7957 29.0357H36.1886V30.4286H34.7957V29.0357ZM34.7957 27.6429H36.1886V29.0357H34.7957V27.6429ZM34.7957 22.0714H36.1886V23.4643H34.7957V22.0714ZM34.7957 23.4643H36.1886V24.8571H34.7957V23.4643ZM34.7957 24.8571H36.1886V26.25H34.7957V24.8571ZM34.7957 26.25H36.1886V27.6429H34.7957V26.25ZM33.4029 24.8571H34.7957V26.25H33.4029V24.8571ZM32.01 26.25H33.4029V27.6429H32.01V26.25ZM36.1886 26.25H37.5814V27.6429H36.1886V26.25ZM37.5814 26.25H38.9743V27.6429H37.5814V26.25ZM33.4029 23.4643H34.7957V24.8571H33.4029V23.4643ZM32.01 27.6429H33.4029V29.0357H32.01V27.6429ZM36.1886 27.6429H37.5814V29.0357H36.1886V27.6429ZM37.5814 27.6429H38.9743V29.0357H37.5814V27.6429ZM40.6235 26.25H42.0164V27.6429H40.6235V26.25ZM40.6235 24.8571H42.0164V26.25H40.6235V24.8571ZM42.0164 24.8571H43.4092V26.25H42.0164V24.8571ZM42.0164 26.25H43.4092V27.6429H42.0164V26.25ZM42.0164 27.6429H43.4092V29.0357H42.0164V27.6429ZM42.0164 29.0357H43.4092V30.4286H42.0164V29.0357ZM42.0164 30.4286H43.4092V31.8214H42.0164V30.4286ZM40.6235 30.4286H42.0164V31.8214H40.6235V30.4286ZM40.6235 29.0357H42.0164V30.4286H40.6235V29.0357ZM40.6235 27.6429H42.0164V29.0357H40.6235V27.6429ZM40.6235 31.8214H42.0164V33.2143H40.6235V31.8214ZM42.0164 31.8214H43.4092V33.2143H42.0164V31.8214ZM42.0164 33.2143H43.4092V34.6071H42.0164V33.2143ZM42.0164 34.6071H43.4092V36H42.0164V34.6071ZM40.6235 34.6071H42.0164V36H40.6235V34.6071ZM40.6235 33.2143H42.0164V34.6071H40.6235V33.2143ZM47.5878 34.6071H48.9807V36H47.5878V34.6071ZM48.9807 34.6071H50.3735V36H48.9807V34.6071ZM48.9807 33.2143H50.3735V34.6071H48.9807V33.2143ZM48.9807 31.8214H50.3735V33.2143H48.9807V31.8214ZM48.9807 30.4286H50.3735V31.8214H48.9807V30.4286ZM48.9807 29.0357H50.3735V30.4286H48.9807V29.0357ZM48.9807 27.6429H50.3735V29.0357H48.9807V27.6429ZM48.9807 26.25H50.3735V27.6429H48.9807V26.25ZM47.5878 29.0357H48.9807V30.4286H47.5878V29.0357ZM47.5878 30.4286H48.9807V31.8214H47.5878V30.4286ZM47.5878 31.8214H48.9807V33.2143H47.5878V31.8214ZM47.5878 33.2143H48.9807V34.6071H47.5878V33.2143ZM47.5878 27.6429H48.9807V29.0357H47.5878V27.6429ZM43.4092 26.25H44.8021V27.6429H43.4092V26.25ZM44.8021 26.25H46.1949V27.6429H44.8021V26.25ZM46.1949 26.25H47.5878V27.6429H46.1949V26.25ZM46.1949 24.8571H47.5878V26.25H46.1949V24.8571ZM47.5878 24.8571H48.9807V26.25H47.5878V24.8571ZM47.5878 26.25H48.9807V27.6429H47.5878V26.25ZM44.8021 24.8571H46.1949V26.25H44.8021V24.8571ZM40.6235 22.0714H42.0164V23.4643H40.6235V22.0714ZM42.0164 22.0714H43.4092V23.4643H42.0164V22.0714ZM42.0164 23.4643H43.4092V24.8571H42.0164V23.4643ZM40.6235 23.4643H42.0164V24.8571H40.6235V23.4643ZM54.8157 24.8571H56.2086V26.25H54.8157V24.8571ZM53.4229 24.8571H54.8157V26.25H53.4229V24.8571ZM53.4229 26.25H54.8157V27.6429H53.4229V26.25ZM54.8157 26.25H56.2086V27.6429H54.8157V26.25ZM56.2086 24.8571H57.6014V26.25H56.2086V24.8571ZM57.6014 24.8571H58.9943V26.25H57.6014V24.8571ZM58.9943 24.8571H60.3871V26.25H58.9943V24.8571ZM58.9943 26.25H60.3871V27.6429H58.9943V26.25ZM57.6014 26.25H58.9943V27.6429H57.6014V26.25ZM60.3871 26.25H61.78V27.6429H60.3871V26.25ZM60.3871 27.6429H61.78V29.0357H60.3871V27.6429ZM60.3871 33.2143H61.78V34.6071H60.3871V33.2143ZM58.9943 33.2143H60.3871V34.6071H58.9943V33.2143ZM58.9943 27.6429H60.3871V29.0357H58.9943V27.6429ZM57.6014 33.2143H58.9943V34.6071H57.6014V33.2143ZM58.9943 34.6071H60.3871V36H58.9943V34.6071ZM57.6014 34.6071H58.9943V36H57.6014V34.6071ZM56.2086 34.6071H57.6014V36H56.2086V34.6071ZM54.8157 34.6071H56.2086V36H54.8157V34.6071ZM53.4229 34.6071H54.8157V36H53.4229V34.6071ZM53.4229 33.2143H54.8157V34.6071H53.4229V33.2143ZM54.8157 33.2143H56.2086V34.6071H54.8157V33.2143ZM53.4229 31.8214H54.8157V33.2143H53.4229V31.8214ZM52.03 33.2143H53.4229V34.6071H52.03V33.2143ZM52.03 31.8214H53.4229V33.2143H52.03V31.8214ZM52.03 30.4286H53.4229V31.8214H52.03V30.4286ZM52.03 29.0357H53.4229V30.4286H52.03V29.0357ZM52.03 27.6429H53.4229V29.0357H52.03V27.6429ZM52.03 26.25H53.4229V27.6429H52.03V26.25ZM53.4229 27.6429H54.8157V29.0357H53.4229V27.6429ZM53.4229 29.0357H54.8157V30.4286H53.4229V29.0357ZM53.4229 30.4286H54.8157V31.8214H53.4229V30.4286ZM56.2086 33.2143H57.6014V34.6071H56.2086V33.2143ZM56.2086 26.25H57.6014V27.6429H56.2086V26.25ZM58.9943 29.0357H60.3871V30.4286H58.9943V29.0357ZM60.3871 29.0357H61.78V30.4286H60.3871V29.0357ZM54.8157 30.4286H56.2086V31.8214H54.8157V30.4286ZM56.2086 30.4286H57.6014V31.8214H56.2086V30.4286ZM57.6014 30.4286H58.9943V31.8214H57.6014V30.4286ZM58.9943 30.4286H60.3871V31.8214H58.9943V30.4286ZM60.3871 30.4286H61.78V31.8214H60.3871V30.4286ZM57.6014 29.0357H58.9943V30.4286H57.6014V29.0357ZM56.2086 29.0357H57.6014V30.4286H56.2086V29.0357ZM54.8157 29.0357H56.2086V30.4286H54.8157V29.0357ZM63.4365 26.25H64.8293V27.6429H63.4365V26.25ZM63.4365 24.8571H64.8293V26.25H63.4365V24.8571ZM64.8293 24.8571H66.2222V26.25H64.8293V24.8571ZM64.8293 26.25H66.2222V27.6429H64.8293V26.25ZM64.8293 27.6429H66.2222V29.0357H64.8293V27.6429ZM64.8293 29.0357H66.2222V30.4286H64.8293V29.0357ZM64.8293 30.4286H66.2222V31.8214H64.8293V30.4286ZM63.4365 30.4286H64.8293V31.8214H63.4365V30.4286ZM63.4365 29.0357H64.8293V30.4286H63.4365V29.0357ZM63.4365 27.6429H64.8293V29.0357H63.4365V27.6429ZM63.4365 31.8214H64.8293V33.2143H63.4365V31.8214ZM64.8293 31.8214H66.2222V33.2143H64.8293V31.8214ZM64.8293 33.2143H66.2222V34.6071H64.8293V33.2143ZM64.8293 34.6071H66.2222V36H64.8293V34.6071ZM63.4365 34.6071H64.8293V36H63.4365V34.6071ZM63.4365 33.2143H64.8293V34.6071H63.4365V33.2143ZM66.2222 26.25H67.6151V27.6429H66.2222V26.25ZM67.6151 26.25H69.0079V27.6429H67.6151V26.25ZM69.0079 26.25H70.4008V27.6429H69.0079V26.25ZM69.0079 24.8571H70.4008V26.25H69.0079V24.8571ZM67.6151 24.8571H69.0079V26.25H67.6151V24.8571ZM66.2222 27.6429H67.6151V29.0357H66.2222V27.6429ZM70.4008 26.25H71.7936V27.6429H70.4008V26.25ZM69.0079 27.6429H70.4008V29.0357H69.0079V27.6429ZM76.2322 24.8571H77.6251V26.25H76.2322V24.8571ZM74.8393 24.8571H76.2322V26.25H74.8393V24.8571ZM74.8393 26.25H76.2322V27.6429H74.8393V26.25ZM76.2322 26.25H77.6251V27.6429H76.2322V26.25ZM77.6251 24.8571H79.0179V26.25H77.6251V24.8571ZM79.0179 24.8571H80.4108V26.25H79.0179V24.8571ZM80.4108 24.8571H81.8036V26.25H80.4108V24.8571ZM80.4108 26.25H81.8036V27.6429H80.4108V26.25ZM79.0179 26.25H80.4108V27.6429H79.0179V26.25ZM81.8036 26.25H83.1965V27.6429H81.8036V26.25ZM81.8036 27.6429H83.1965V29.0357H81.8036V27.6429ZM81.8036 33.2143H83.1965V34.6071H81.8036V33.2143ZM80.4108 33.2143H81.8036V34.6071H80.4108V33.2143ZM80.4108 27.6429H81.8036V29.0357H80.4108V27.6429ZM79.0179 33.2143H80.4108V34.6071H79.0179V33.2143ZM80.4108 34.6071H81.8036V36H80.4108V34.6071ZM79.0179 34.6071H80.4108V36H79.0179V34.6071ZM77.6251 34.6071H79.0179V36H77.6251V34.6071ZM76.2322 34.6071H77.6251V36H76.2322V34.6071ZM74.8393 34.6071H76.2322V36H74.8393V34.6071ZM74.8393 33.2143H76.2322V34.6071H74.8393V33.2143ZM76.2322 33.2143H77.6251V34.6071H76.2322V33.2143ZM74.8393 31.8214H76.2322V33.2143H74.8393V31.8214ZM73.4465 33.2143H74.8393V34.6071H73.4465V33.2143ZM73.4465 31.8214H74.8393V33.2143H73.4465V31.8214ZM73.4465 30.4286H74.8393V31.8214H73.4465V30.4286ZM73.4465 29.0357H74.8393V30.4286H73.4465V29.0357ZM73.4465 27.6429H74.8393V29.0357H73.4465V27.6429ZM73.4465 26.25H74.8393V27.6429H73.4465V26.25ZM74.8393 27.6429H76.2322V29.0357H74.8393V27.6429ZM74.8393 29.0357H76.2322V30.4286H74.8393V29.0357ZM74.8393 30.4286H76.2322V31.8214H74.8393V30.4286ZM77.6251 33.2143H79.0179V34.6071H77.6251V33.2143ZM77.6251 26.25H79.0179V27.6429H77.6251V26.25ZM80.4108 29.0357H81.8036V30.4286H80.4108V29.0357ZM81.8036 29.0357H83.1965V30.4286H81.8036V29.0357ZM76.2322 30.4286H77.6251V31.8214H76.2322V30.4286ZM77.6251 30.4286H79.0179V31.8214H77.6251V30.4286ZM79.0179 30.4286H80.4108V31.8214H79.0179V30.4286ZM80.4108 30.4286H81.8036V31.8214H80.4108V30.4286ZM81.8036 30.4286H83.1965V31.8214H81.8036V30.4286ZM79.0179 29.0357H80.4108V30.4286H79.0179V29.0357ZM77.6251 29.0357H79.0179V30.4286H77.6251V29.0357ZM76.2322 29.0357H77.6251V30.4286H76.2322V29.0357ZM94.603 34.6071H93.2101V33.2143H94.603V34.6071ZM94.603 36H93.2101V34.6071H94.603V36ZM93.2101 36H91.8173V34.6071H93.2101V36ZM93.2101 34.6071H91.8173V33.2143H93.2101V34.6071ZM93.2101 33.2143H91.8173V31.8214H93.2101V33.2143ZM93.2101 31.8214H91.8173V30.4286H93.2101V31.8214ZM93.2101 30.4286H91.8173V29.0357H93.2101V30.4286ZM94.603 30.4286H93.2101V29.0357H94.603V30.4286ZM94.603 31.8214H93.2101V30.4286H94.603V31.8214ZM94.603 33.2143H93.2101V31.8214H94.603V33.2143ZM94.603 29.0357H93.2101V27.6429H94.603V29.0357ZM93.2101 29.0357H91.8173V27.6429H93.2101V29.0357ZM93.2101 27.6429H91.8173V26.25H93.2101V27.6429ZM93.2101 26.25H91.8173V24.8571H93.2101V26.25ZM94.603 26.25H93.2101V24.8571H94.603V26.25ZM94.603 27.6429H93.2101V26.25H94.603V27.6429ZM87.6387 26.25H86.2458V24.8571H87.6387V26.25ZM86.2458 26.25H84.853V24.8571H86.2458V26.25ZM86.2458 27.6429H84.853V26.25H86.2458V27.6429ZM86.2458 29.0357H84.853V27.6429H86.2458V29.0357ZM86.2458 30.4286H84.853V29.0357H86.2458V30.4286ZM86.2458 31.8214H84.853V30.4286H86.2458V31.8214ZM86.2458 33.2143H84.853V31.8214H86.2458V33.2143ZM86.2458 34.6071H84.853V33.2143H86.2458V34.6071ZM87.6387 31.8214H86.2458V30.4286H87.6387V31.8214ZM87.6387 30.4286H86.2458V29.0357H87.6387V30.4286ZM87.6387 29.0357H86.2458V27.6429H87.6387V29.0357ZM87.6387 27.6429H86.2458V26.25H87.6387V27.6429ZM87.6387 33.2143H86.2458V31.8214H87.6387V33.2143ZM91.8173 34.6071H90.4244V33.2143H91.8173V34.6071ZM90.4244 34.6071H89.0315V33.2143H90.4244V34.6071ZM89.0315 34.6071H87.6387V33.2143H89.0315V34.6071ZM89.0315 36H87.6387V34.6071H89.0315V36ZM87.6387 36H86.2458V34.6071H87.6387V36ZM87.6387 34.6071H86.2458V33.2143H87.6387V34.6071ZM90.4244 36H89.0315V34.6071H90.4244V36ZM96.2595 26.25H97.6523V27.6429H96.2595V26.25ZM96.2595 24.8571H97.6523V26.25H96.2595V24.8571ZM97.6523 24.8571H99.0452V26.25H97.6523V24.8571ZM97.6523 26.25H99.0452V27.6429H97.6523V26.25ZM97.6523 27.6429H99.0452V29.0357H97.6523V27.6429ZM97.6523 29.0357H99.0452V30.4286H97.6523V29.0357ZM97.6523 30.4286H99.0452V31.8214H97.6523V30.4286ZM96.2595 30.4286H97.6523V31.8214H96.2595V30.4286ZM96.2595 29.0357H97.6523V30.4286H96.2595V29.0357ZM96.2595 27.6429H97.6523V29.0357H96.2595V27.6429ZM96.2595 31.8214H97.6523V33.2143H96.2595V31.8214ZM97.6523 31.8214H99.0452V33.2143H97.6523V31.8214ZM97.6523 33.2143H99.0452V34.6071H97.6523V33.2143ZM97.6523 34.6071H99.0452V36H97.6523V34.6071ZM96.2595 34.6071H97.6523V36H96.2595V34.6071ZM96.2595 33.2143H97.6523V34.6071H96.2595V33.2143ZM101.831 34.6071H103.224V36H101.831V34.6071ZM103.224 34.6071H104.617V36H103.224V34.6071ZM103.224 33.2143H104.617V34.6071H103.224V33.2143ZM103.224 31.8214H104.617V33.2143H103.224V31.8214ZM103.224 30.4286H104.617V31.8214H103.224V30.4286ZM103.224 29.0357H104.617V30.4286H103.224V29.0357ZM103.224 27.6429H104.617V29.0357H103.224V27.6429ZM103.224 26.25H104.617V27.6429H103.224V26.25ZM101.831 29.0357H103.224V30.4286H101.831V29.0357ZM101.831 30.4286H103.224V31.8214H101.831V30.4286ZM101.831 31.8214H103.224V33.2143H101.831V31.8214ZM101.831 33.2143H103.224V34.6071H101.831V33.2143ZM101.831 27.6429H103.224V29.0357H101.831V27.6429ZM99.0452 26.25H100.438V27.6429H99.0452V26.25ZM100.438 26.25H101.831V27.6429H100.438V26.25ZM101.831 24.8571H103.224V26.25H101.831V24.8571ZM101.831 26.25H103.224V27.6429H101.831V26.25ZM100.438 24.8571H101.831V26.25H100.438V24.8571ZM107.402 34.6071H108.795V36H107.402V34.6071ZM108.795 34.6071H110.188V36H108.795V34.6071ZM108.795 33.2143H110.188V34.6071H108.795V33.2143ZM108.795 31.8214H110.188V33.2143H108.795V31.8214ZM108.795 30.4286H110.188V31.8214H108.795V30.4286ZM108.795 29.0357H110.188V30.4286H108.795V29.0357ZM108.795 27.6429H110.188V29.0357H108.795V27.6429ZM108.795 26.25H110.188V27.6429H108.795V26.25ZM107.402 29.0357H108.795V30.4286H107.402V29.0357ZM107.402 30.4286H108.795V31.8214H107.402V30.4286ZM107.402 31.8214H108.795V33.2143H107.402V31.8214ZM107.402 33.2143H108.795V34.6071H107.402V33.2143ZM107.402 27.6429H108.795V29.0357H107.402V27.6429ZM104.617 26.25H106.009V27.6429H104.617V26.25ZM106.009 26.25H107.402V27.6429H106.009V26.25ZM107.402 24.8571H108.795V26.25H107.402V24.8571ZM107.402 26.25H108.795V27.6429H107.402V26.25ZM106.009 24.8571H107.402V26.25H106.009V24.8571ZM123.222 33.2143H124.615V34.6071H123.222V33.2143ZM123.222 34.6071H124.615V36H123.222V34.6071ZM121.829 34.6071H123.222V36H121.829V34.6071ZM121.829 33.2143H123.222V34.6071H121.829V33.2143ZM120.436 34.6071H121.829V36H120.436V34.6071ZM120.436 33.2143H121.829V34.6071H120.436V33.2143ZM119.043 33.2143H120.436V34.6071H119.043V33.2143ZM119.043 31.8214H120.436V33.2143H119.043V31.8214ZM119.043 30.4286H120.436V31.8214H119.043V30.4286ZM119.043 29.0357H120.436V30.4286H119.043V29.0357ZM119.043 27.6429H120.436V29.0357H119.043V27.6429ZM119.043 26.25H120.436V27.6429H119.043V26.25ZM120.436 30.4286H121.829V31.8214H120.436V30.4286ZM120.436 31.8214H121.829V33.2143H120.436V31.8214ZM120.436 29.0357H121.829V30.4286H120.436V29.0357ZM120.436 27.6429H121.829V29.0357H120.436V27.6429ZM120.436 22.0714H121.829V23.4643H120.436V22.0714ZM120.436 23.4643H121.829V24.8571H120.436V23.4643ZM120.436 24.8571H121.829V26.25H120.436V24.8571ZM120.436 26.25H121.829V27.6429H120.436V26.25ZM119.043 24.8571H120.436V26.25H119.043V24.8571ZM117.651 26.25H119.043V27.6429H117.651V26.25ZM121.829 26.25H123.222V27.6429H121.829V26.25ZM123.222 26.25H124.615V27.6429H123.222V26.25ZM119.043 23.4643H120.436V24.8571H119.043V23.4643ZM117.651 27.6429H119.043V29.0357H117.651V27.6429ZM121.829 27.6429H123.222V29.0357H121.829V27.6429ZM123.222 27.6429H124.615V29.0357H123.222V27.6429ZM126.264 26.25H127.657V27.6429H126.264V26.25ZM126.264 24.8571H127.657V26.25H126.264V24.8571ZM127.657 24.8571H129.05V26.25H127.657V24.8571ZM127.657 26.25H129.05V27.6429H127.657V26.25ZM127.657 27.6429H129.05V29.0357H127.657V27.6429ZM127.657 29.0357H129.05V30.4286H127.657V29.0357ZM127.657 30.4286H129.05V31.8214H127.657V30.4286ZM126.264 30.4286H127.657V31.8214H126.264V30.4286ZM126.264 29.0357H127.657V30.4286H126.264V29.0357ZM126.264 27.6429H127.657V29.0357H126.264V27.6429ZM126.264 31.8214H127.657V33.2143H126.264V31.8214ZM127.657 31.8214H129.05V33.2143H127.657V31.8214ZM127.657 33.2143H129.05V34.6071H127.657V33.2143ZM127.657 34.6071H129.05V36H127.657V34.6071ZM126.264 34.6071H127.657V36H126.264V34.6071ZM126.264 33.2143H127.657V34.6071H126.264V33.2143ZM129.05 26.25H130.443V27.6429H129.05V26.25ZM130.443 26.25H131.835V27.6429H130.443V26.25ZM131.835 26.25H133.228V27.6429H131.835V26.25ZM131.835 24.8571H133.228V26.25H131.835V24.8571ZM130.443 24.8571H131.835V26.25H130.443V24.8571ZM129.05 27.6429H130.443V29.0357H129.05V27.6429ZM133.228 26.25H134.621V27.6429H133.228V26.25ZM131.835 27.6429H133.228V29.0357H131.835V27.6429ZM144.631 36H143.238V34.6071H144.631V36ZM144.631 34.6071H143.238V33.2143H144.631V34.6071ZM143.238 34.6071H141.845V33.2143H143.238V34.6071ZM141.845 36H140.453V34.6071H141.845V36ZM140.453 36H139.06V34.6071H140.453V36ZM139.06 36H137.667V34.6071H139.06V36ZM139.06 34.6071H137.667V33.2143H139.06V34.6071ZM140.453 34.6071H139.06V33.2143H140.453V34.6071ZM137.667 34.6071H136.274V33.2143H137.667V34.6071ZM137.667 33.2143H136.274V31.8214H137.667V33.2143ZM137.667 27.6429H136.274V26.25H137.667V27.6429ZM139.06 27.6429H137.667V26.25H139.06V27.6429ZM139.06 33.2143H137.667V31.8214H139.06V33.2143ZM140.453 27.6429H139.06V26.25H140.453V27.6429ZM139.06 26.25H137.667V24.8571H139.06V26.25ZM140.453 26.25H139.06V24.8571H140.453V26.25ZM141.845 26.25H140.453V24.8571H141.845V26.25ZM143.238 26.25H141.845V24.8571H143.238V26.25ZM144.631 26.25H143.238V24.8571H144.631V26.25ZM144.631 27.6429H143.238V26.25H144.631V27.6429ZM143.238 27.6429H141.845V26.25H143.238V27.6429ZM144.631 29.0357H143.238V27.6429H144.631V29.0357ZM146.024 27.6429H144.631V26.25H146.024V27.6429ZM146.024 29.0357H144.631V27.6429H146.024V29.0357ZM146.024 30.4286H144.631V29.0357H146.024V30.4286ZM146.024 31.8214H144.631V30.4286H146.024V31.8214ZM146.024 33.2143H144.631V31.8214H146.024V33.2143ZM146.024 34.6071H144.631V33.2143H146.024V34.6071ZM144.631 33.2143H143.238V31.8214H144.631V33.2143ZM144.631 31.8214H143.238V30.4286H144.631V31.8214ZM144.631 30.4286H143.238V29.0357H144.631V30.4286ZM141.845 27.6429H140.453V26.25H141.845V27.6429ZM141.845 34.6071H140.453V33.2143H141.845V34.6071ZM144.631 34.6071H146.024V36H144.631V34.6071ZM141.845 29.0357H143.238V30.4286H141.845V29.0357ZM140.453 29.0357H141.845V30.4286H140.453V29.0357ZM139.06 29.0357H140.453V30.4286H139.06V29.0357ZM137.667 29.0357H139.06V30.4286H137.667V29.0357ZM136.274 30.4286H137.667V31.8214H136.274V30.4286ZM137.667 30.4286H139.06V31.8214H137.667V30.4286ZM141.845 30.4286H143.238V31.8214H141.845V30.4286ZM140.453 30.4286H141.845V31.8214H140.453V30.4286ZM139.06 30.4286H140.453V31.8214H139.06V30.4286ZM147.681 26.25H149.073V27.6429H147.681V26.25ZM147.681 24.8571H149.073V26.25H147.681V24.8571ZM149.073 24.8571H150.466V26.25H149.073V24.8571ZM149.073 26.25H150.466V27.6429H149.073V26.25ZM149.073 27.6429H150.466V29.0357H149.073V27.6429ZM149.073 29.0357H150.466V30.4286H149.073V29.0357ZM149.073 30.4286H150.466V31.8214H149.073V30.4286ZM147.681 30.4286H149.073V31.8214H147.681V30.4286ZM147.681 29.0357H149.073V30.4286H147.681V29.0357ZM147.681 27.6429H149.073V29.0357H147.681V27.6429ZM147.681 31.8214H149.073V33.2143H147.681V31.8214ZM149.073 31.8214H150.466V33.2143H149.073V31.8214ZM149.073 33.2143H150.466V34.6071H149.073V33.2143ZM149.073 34.6071H150.466V36H149.073V34.6071ZM147.681 34.6071H149.073V36H147.681V34.6071ZM147.681 33.2143H149.073V34.6071H147.681V33.2143ZM154.645 34.6071H156.038V36H154.645V34.6071ZM156.038 34.6071H157.431V36H156.038V34.6071ZM156.038 33.2143H157.431V34.6071H156.038V33.2143ZM156.038 31.8214H157.431V33.2143H156.038V31.8214ZM156.038 30.4286H157.431V31.8214H156.038V30.4286ZM156.038 29.0357H157.431V30.4286H156.038V29.0357ZM156.038 27.6429H157.431V29.0357H156.038V27.6429ZM156.038 26.25H157.431V27.6429H156.038V26.25ZM154.645 29.0357H156.038V30.4286H154.645V29.0357ZM154.645 30.4286H156.038V31.8214H154.645V30.4286ZM154.645 31.8214H156.038V33.2143H154.645V31.8214ZM154.645 33.2143H156.038V34.6071H154.645V33.2143ZM154.645 27.6429H156.038V29.0357H154.645V27.6429ZM150.466 26.25H151.859V27.6429H150.466V26.25ZM151.859 26.25H153.252V27.6429H151.859V26.25ZM153.252 26.25H154.645V27.6429H153.252V26.25ZM153.252 24.8571H154.645V26.25H153.252V24.8571ZM154.645 24.8571H156.038V26.25H154.645V24.8571ZM154.645 26.25H156.038V27.6429H154.645V26.25ZM151.859 24.8571H153.252V26.25H151.859V24.8571ZM159.087 26.25H160.48V27.6429H159.087V26.25ZM160.48 27.6429H161.873V29.0357H160.48V27.6429ZM159.087 27.6429H160.48V29.0357H159.087V27.6429ZM159.087 29.0357H160.48V30.4286H159.087V29.0357ZM160.48 29.0357H161.873V30.4286H160.48V29.0357ZM160.48 30.4286H161.873V31.8214H160.48V30.4286ZM161.873 30.4286H163.266V31.8214H161.873V30.4286ZM163.266 30.4286H164.658V31.8214H163.266V30.4286ZM164.658 29.0357H166.051V30.4286H164.658V29.0357ZM163.266 29.0357H164.658V30.4286H163.266V29.0357ZM161.873 29.0357H163.266V30.4286H161.873V29.0357ZM164.658 30.4286H166.051V31.8214H164.658V30.4286ZM166.051 30.4286H167.444V31.8214H166.051V30.4286ZM166.051 31.8214H167.444V33.2143H166.051V31.8214ZM164.658 31.8214H166.051V33.2143H164.658V31.8214ZM164.658 33.2143H166.051V34.6071H164.658V33.2143ZM166.051 33.2143H167.444V34.6071H166.051V33.2143ZM164.658 34.6071H166.051V36H164.658V34.6071ZM163.266 33.2143H164.658V34.6071H163.266V33.2143ZM161.873 33.2143H163.266V34.6071H161.873V33.2143ZM160.48 33.2143H161.873V34.6071H160.48V33.2143ZM159.087 33.2143H160.48V34.6071H159.087V33.2143ZM160.48 34.6071H161.873V36H160.48V34.6071ZM161.873 34.6071H163.266V36H161.873V34.6071ZM163.266 34.6071H164.658V36H163.266V34.6071ZM166.051 26.25H167.444V27.6429H166.051V26.25ZM164.658 26.25H166.051V27.6429H164.658V26.25ZM164.658 24.8571H166.051V26.25H164.658V24.8571ZM163.266 24.8571H164.658V26.25H163.266V24.8571ZM161.873 24.8571H163.266V26.25H161.873V24.8571ZM160.48 24.8571H161.873V26.25H160.48V24.8571ZM160.48 26.25H161.873V27.6429H160.48V26.25ZM161.873 26.25H163.266V27.6429H161.873V26.25ZM163.266 26.25H164.658V27.6429H163.266V26.25ZM177.454 36H176.061V34.6071H177.454V36ZM177.454 34.6071H176.061V33.2143H177.454V34.6071ZM176.061 34.6071H174.668V33.2143H176.061V34.6071ZM174.668 36H173.276V34.6071H174.668V36ZM173.276 36H171.883V34.6071H173.276V36ZM171.883 36H170.49V34.6071H171.883V36ZM171.883 34.6071H170.49V33.2143H171.883V34.6071ZM173.276 34.6071H171.883V33.2143H173.276V34.6071ZM170.49 34.6071H169.097V33.2143H170.49V34.6071ZM170.49 33.2143H169.097V31.8214H170.49V33.2143ZM170.49 27.6429H169.097V26.25H170.49V27.6429ZM171.883 27.6429H170.49V26.25H171.883V27.6429ZM171.883 33.2143H170.49V31.8214H171.883V33.2143ZM173.276 27.6429H171.883V26.25H173.276V27.6429ZM171.883 26.25H170.49V24.8571H171.883V26.25ZM173.276 26.25H171.883V24.8571H173.276V26.25ZM174.668 26.25H173.276V24.8571H174.668V26.25ZM176.061 26.25H174.668V24.8571H176.061V26.25ZM177.454 26.25H176.061V24.8571H177.454V26.25ZM177.454 27.6429H176.061V26.25H177.454V27.6429ZM176.061 27.6429H174.668V26.25H176.061V27.6429ZM177.454 29.0357H176.061V27.6429H177.454V29.0357ZM178.847 27.6429H177.454V26.25H178.847V27.6429ZM178.847 29.0357H177.454V27.6429H178.847V29.0357ZM178.847 30.4286H177.454V29.0357H178.847V30.4286ZM178.847 31.8214H177.454V30.4286H178.847V31.8214ZM178.847 33.2143H177.454V31.8214H178.847V33.2143ZM178.847 34.6071H177.454V33.2143H178.847V34.6071ZM177.454 33.2143H176.061V31.8214H177.454V33.2143ZM177.454 31.8214H176.061V30.4286H177.454V31.8214ZM177.454 30.4286H176.061V29.0357H177.454V30.4286ZM174.668 27.6429H173.276V26.25H174.668V27.6429ZM174.668 34.6071H173.276V33.2143H174.668V34.6071ZM177.454 34.6071H178.847V36H177.454V34.6071ZM174.668 29.0357H176.061V30.4286H174.668V29.0357ZM173.276 29.0357H174.668V30.4286H173.276V29.0357ZM171.883 29.0357H173.276V30.4286H171.883V29.0357ZM170.49 29.0357H171.883V30.4286H170.49V29.0357ZM169.097 30.4286H170.49V31.8214H169.097V30.4286ZM170.49 30.4286H171.883V31.8214H170.49V30.4286ZM174.668 30.4286H176.061V31.8214H174.668V30.4286ZM173.276 30.4286H174.668V31.8214H173.276V30.4286ZM171.883 30.4286H173.276V31.8214H171.883V30.4286ZM183.289 24.8571H184.682V26.25H183.289V24.8571ZM181.896 24.8571H183.289V26.25H181.896V24.8571ZM181.896 26.25H183.289V27.6429H181.896V26.25ZM183.289 26.25H184.682V27.6429H183.289V26.25ZM184.682 24.8571H186.075V26.25H184.682V24.8571ZM186.075 24.8571H187.468V26.25H186.075V24.8571ZM187.468 24.8571H188.861V26.25H187.468V24.8571ZM187.468 26.25H188.861V27.6429H187.468V26.25ZM186.075 26.25H187.468V27.6429H186.075V26.25ZM188.861 26.25H190.254V27.6429H188.861V26.25ZM188.861 27.6429H190.254V29.0357H188.861V27.6429ZM188.861 31.8214H190.254V33.2143H188.861V31.8214ZM188.861 33.2143H190.254V34.6071H188.861V33.2143ZM187.468 33.2143H188.861V34.6071H187.468V33.2143ZM187.468 31.8214H188.861V33.2143H187.468V31.8214ZM187.468 27.6429H188.861V29.0357H187.468V27.6429ZM186.075 33.2143H187.468V34.6071H186.075V33.2143ZM187.468 34.6071H188.861V36H187.468V34.6071ZM186.075 34.6071H187.468V36H186.075V34.6071ZM184.682 34.6071H186.075V36H184.682V34.6071ZM183.289 34.6071H184.682V36H183.289V34.6071ZM181.896 34.6071H183.289V36H181.896V34.6071ZM181.896 33.2143H183.289V34.6071H181.896V33.2143ZM183.289 33.2143H184.682V34.6071H183.289V33.2143ZM181.896 31.8214H183.289V33.2143H181.896V31.8214ZM180.504 33.2143H181.896V34.6071H180.504V33.2143ZM180.504 31.8214H181.896V33.2143H180.504V31.8214ZM180.504 30.4286H181.896V31.8214H180.504V30.4286ZM180.504 29.0357H181.896V30.4286H180.504V29.0357ZM180.504 27.6429H181.896V29.0357H180.504V27.6429ZM180.504 26.25H181.896V27.6429H180.504V26.25ZM181.896 27.6429H183.289V29.0357H181.896V27.6429ZM181.896 29.0357H183.289V30.4286H181.896V29.0357ZM181.896 30.4286H183.289V31.8214H181.896V30.4286ZM184.682 33.2143H186.075V34.6071H184.682V33.2143ZM184.682 26.25H186.075V27.6429H184.682V26.25ZM197.481 33.2143H198.874V34.6071H197.481V33.2143ZM197.481 34.6071H198.874V36H197.481V34.6071ZM196.089 34.6071H197.481V36H196.089V34.6071ZM196.089 33.2143H197.481V34.6071H196.089V33.2143ZM194.696 34.6071H196.089V36H194.696V34.6071ZM194.696 33.2143H196.089V34.6071H194.696V33.2143ZM193.303 33.2143H194.696V34.6071H193.303V33.2143ZM193.303 31.8214H194.696V33.2143H193.303V31.8214ZM193.303 30.4286H194.696V31.8214H193.303V30.4286ZM193.303 29.0357H194.696V30.4286H193.303V29.0357ZM193.303 27.6429H194.696V29.0357H193.303V27.6429ZM193.303 26.25H194.696V27.6429H193.303V26.25ZM194.696 30.4286H196.089V31.8214H194.696V30.4286ZM194.696 31.8214H196.089V33.2143H194.696V31.8214ZM194.696 29.0357H196.089V30.4286H194.696V29.0357ZM194.696 27.6429H196.089V29.0357H194.696V27.6429ZM194.696 22.0714H196.089V23.4643H194.696V22.0714ZM194.696 23.4643H196.089V24.8571H194.696V23.4643ZM194.696 24.8571H196.089V26.25H194.696V24.8571ZM194.696 26.25H196.089V27.6429H194.696V26.25ZM193.303 24.8571H194.696V26.25H193.303V24.8571ZM191.91 26.25H193.303V27.6429H191.91V26.25ZM196.089 26.25H197.481V27.6429H196.089V26.25ZM197.481 26.25H198.874V27.6429H197.481V26.25ZM193.303 23.4643H194.696V24.8571H193.303V23.4643ZM191.91 27.6429H193.303V29.0357H191.91V27.6429ZM196.089 27.6429H197.481V29.0357H196.089V27.6429ZM197.481 27.6429H198.874V29.0357H197.481V27.6429ZM200.524 22.0714H203.309V24.8571H200.524V22.0714ZM200.524 26.25H203.309V36H200.524V26.25ZM207.759 24.8571H209.152V26.25H207.759V24.8571ZM206.366 24.8571H207.759V26.25H206.366V24.8571ZM206.366 26.25H207.759V27.6429H206.366V26.25ZM207.759 26.25H209.152V27.6429H207.759V26.25ZM209.152 24.8571H210.544V26.25H209.152V24.8571ZM210.544 24.8571H211.937V26.25H210.544V24.8571ZM211.937 24.8571H213.33V26.25H211.937V24.8571ZM211.937 26.25H213.33V27.6429H211.937V26.25ZM210.544 26.25H211.937V27.6429H210.544V26.25ZM211.937 29.0357H213.33V30.4286H211.937V29.0357ZM213.33 26.25H214.723V27.6429H213.33V26.25ZM213.33 27.6429H214.723V29.0357H213.33V27.6429ZM213.33 29.0357H214.723V30.4286H213.33V29.0357ZM213.33 30.4286H214.723V31.8214H213.33V30.4286ZM213.33 31.8214H214.723V33.2143H213.33V31.8214ZM213.33 33.2143H214.723V34.6071H213.33V33.2143ZM211.937 33.2143H213.33V34.6071H211.937V33.2143ZM211.937 31.8214H213.33V33.2143H211.937V31.8214ZM211.937 30.4286H213.33V31.8214H211.937V30.4286ZM211.937 27.6429H213.33V29.0357H211.937V27.6429ZM210.544 33.2143H211.937V34.6071H210.544V33.2143ZM211.937 34.6071H213.33V36H211.937V34.6071ZM210.544 34.6071H211.937V36H210.544V34.6071ZM209.152 34.6071H210.544V36H209.152V34.6071ZM207.759 34.6071H209.152V36H207.759V34.6071ZM206.366 34.6071H207.759V36H206.366V34.6071ZM206.366 33.2143H207.759V34.6071H206.366V33.2143ZM207.759 33.2143H209.152V34.6071H207.759V33.2143ZM206.366 31.8214H207.759V33.2143H206.366V31.8214ZM204.973 33.2143H206.366V34.6071H204.973V33.2143ZM204.973 31.8214H206.366V33.2143H204.973V31.8214ZM204.973 30.4286H206.366V31.8214H204.973V30.4286ZM204.973 29.0357H206.366V30.4286H204.973V29.0357ZM204.973 27.6429H206.366V29.0357H204.973V27.6429ZM204.973 26.25H206.366V27.6429H204.973V26.25ZM206.366 27.6429H207.759V29.0357H206.366V27.6429ZM206.366 29.0357H207.759V30.4286H206.366V29.0357ZM206.366 30.4286H207.759V31.8214H206.366V30.4286ZM209.152 33.2143H210.544V34.6071H209.152V33.2143ZM209.152 26.25H210.544V27.6429H209.152V26.25ZM216.379 26.25H217.772V27.6429H216.379V26.25ZM216.379 24.8571H217.772V26.25H216.379V24.8571ZM217.772 24.8571H219.165V26.25H217.772V24.8571ZM217.772 26.25H219.165V27.6429H217.772V26.25ZM217.772 27.6429H219.165V29.0357H217.772V27.6429ZM217.772 29.0357H219.165V30.4286H217.772V29.0357ZM217.772 30.4286H219.165V31.8214H217.772V30.4286ZM216.379 30.4286H217.772V31.8214H216.379V30.4286ZM216.379 29.0357H217.772V30.4286H216.379V29.0357ZM216.379 27.6429H217.772V29.0357H216.379V27.6429ZM216.379 31.8214H217.772V33.2143H216.379V31.8214ZM217.772 31.8214H219.165V33.2143H217.772V31.8214ZM217.772 33.2143H219.165V34.6071H217.772V33.2143ZM217.772 34.6071H219.165V36H217.772V34.6071ZM216.379 34.6071H217.772V36H216.379V34.6071ZM216.379 33.2143H217.772V34.6071H216.379V33.2143ZM223.344 34.6071H224.737V36H223.344V34.6071ZM224.737 34.6071H226.129V36H224.737V34.6071ZM224.737 33.2143H226.129V34.6071H224.737V33.2143ZM224.737 31.8214H226.129V33.2143H224.737V31.8214ZM224.737 30.4286H226.129V31.8214H224.737V30.4286ZM224.737 29.0357H226.129V30.4286H224.737V29.0357ZM224.737 27.6429H226.129V29.0357H224.737V27.6429ZM224.737 26.25H226.129V27.6429H224.737V26.25ZM223.344 29.0357H224.737V30.4286H223.344V29.0357ZM223.344 30.4286H224.737V31.8214H223.344V30.4286ZM223.344 31.8214H224.737V33.2143H223.344V31.8214ZM223.344 33.2143H224.737V34.6071H223.344V33.2143ZM223.344 27.6429H224.737V29.0357H223.344V27.6429ZM219.165 26.25H220.558V27.6429H219.165V26.25ZM220.558 26.25H221.951V27.6429H220.558V26.25ZM221.951 26.25H223.344V27.6429H221.951V26.25ZM221.951 24.8571H223.344V26.25H221.951V24.8571ZM223.344 24.8571H224.737V26.25H223.344V24.8571ZM223.344 26.25H224.737V27.6429H223.344V26.25ZM220.558 24.8571H221.951V26.25H220.558V24.8571Z" fill="#1E1E1E"/>
<path d="M612 86H34V118H612V86Z" fill="white"/>
<path d="M556 82H34V86H556V82Z" fill="#516066"/>
<path d="M560 82H38V86H560V82Z" fill="#516066"/>
<path d="M564 82H42V86H564V82Z" fill="#516066"/>
<path d="M568 82H46V86H568V82Z" fill="#516066"/>
<path d="M572 82H50V86H572V82Z" fill="#516066"/>
<path d="M576 82H54V86H576V82Z" fill="#516066"/>
<path d="M580 82H58V86H580V82Z" fill="#516066"/>
<path d="M584 82H62V86H584V82Z" fill="#516066"/>
<path d="M588 82H66V86H588V82Z" fill="#516066"/>
<path d="M592 82H70V86H592V82Z" fill="#516066"/>
<path d="M596 82H74V86H596V82Z" fill="#516066"/>
<path d="M600 82H78V86H600V82Z" fill="#516066"/>
<path d="M604 82H82V86H604V82Z" fill="#516066"/>
<path d="M608 82H86V86H608V82Z" fill="#516066"/>
<path d="M612 82H90V86H612V82Z" fill="#516066"/>
<path d="M556 118H34V122H556V118Z" fill="#516066"/>
<path d="M560 118H38V122H560V118Z" fill="#516066"/>
<path d="M564 118H42V122H564V118Z" fill="#516066"/>
<path d="M568 118H46V122H568V118Z" fill="#516066"/>
<path d="M572 118H50V122H572V118Z" fill="#516066"/>
<path d="M576 118H54V122H576V118Z" fill="#516066"/>
<path d="M580 118H58V122H580V118Z" fill="#516066"/>
<path d="M584 118H62V122H584V118Z" fill="#516066"/>
<path d="M588 118H66V122H588V118Z" fill="#516066"/>
<path d="M592 118H70V122H592V118Z" fill="#516066"/>
<path d="M596 118H74V122H596V118Z" fill="#516066"/>
<path d="M600 118H78V122H600V118Z" fill="#516066"/>
<path d="M604 118H82V122H604V118Z" fill="#516066"/>
<path d="M608 118H86V122H608V118Z" fill="#516066"/>
<path d="M612 118H90V122H612V118Z" fill="#516066"/>
<path d="M34 86H30V102H34V86Z" fill="#516066"/>
<path d="M34 90H30V106H34V90Z" fill="#516066"/>
<path d="M34 94H30V110H34V94Z" fill="#516066"/>
<path d="M34 98H30V114H34V98Z" fill="#516066"/>
<path d="M34 102H30V118H34V102Z" fill="#516066"/>
<path d="M616 86H612V102H616V86Z" fill="#516066"/>
<path d="M616 90H612V106H616V90Z" fill="#516066"/>
<path d="M616 94H612V110H616V94Z" fill="#516066"/>
<path d="M616 98H612V114H616V98Z" fill="#516066"/>
<path d="M616 102H612V118H616V102Z" fill="#516066"/>
<path d="M726 86H632V118H726V86Z" fill="#B4B4B4"/>
<path d="M670 82H632V86H670V82Z" fill="#516066"/>
<path d="M674 82H636V86H674V82Z" fill="#516066"/>
<path d="M678 82H640V86H678V82Z" fill="#516066"/>
<path d="M682 82H644V86H682V82Z" fill="#516066"/>
<path d="M686 82H648V86H686V82Z" fill="#516066"/>
<path d="M690 82H652V86H690V82Z" fill="#516066"/>
<path d="M694 82H656V86H694V82Z" fill="#516066"/>
<path d="M698 82H660V86H698V82Z" fill="#516066"/>
<path d="M702 82H664V86H702V82Z" fill="#516066"/>
<path d="M706 82H668V86H706V82Z" fill="#516066"/>
<path d="M710 82H672V86H710V82Z" fill="#516066"/>
<path d="M714 82H676V86H714V82Z" fill="#516066"/>
<path d="M718 82H680V86H718V82Z" fill="#516066"/>
<path d="M722 82H684V86H722V82Z" fill="#516066"/>
<path d="M726 82H688V86H726V82Z" fill="#516066"/>
<path d="M670 118H632V122H670V118Z" fill="#516066"/>
<path d="M674 118H636V122H674V118Z" fill="#516066"/>
<path d="M678 118H640V122H678V118Z" fill="#516066"/>
<path d="M682 118H644V122H682V118Z" fill="#516066"/>
<path d="M686 118H648V122H686V118Z" fill="#516066"/>
<path d="M690 118H652V122H690V118Z" fill="#516066"/>
<path d="M694 118H656V122H694V118Z" fill="#516066"/>
<path d="M698 118H660V122H698V118Z" fill="#516066"/>
<path d="M702 118H664V122H702V118Z" fill="#516066"/>
<path d="M706 118H668V122H706V118Z" fill="#516066"/>
<path d="M710 118H672V122H710V118Z" fill="#516066"/>
<path d="M714 118H676V122H714V118Z" fill="#516066"/>
<path d="M718 118H680V122H718V118Z" fill="#516066"/>
<path d="M722 118H684V122H722V118Z" fill="#516066"/>
<path d="M726 118H688V122H726V118Z" fill="#516066"/>
<path d="M632 86H628V102H632V86Z" fill="#516066"/>
<path d="M632 90H628V106H632V90Z" fill="#516066"/>
<path d="M632 94H628V110H632V94Z" fill="#516066"/>
<path d="M632 98H628V114H632V98Z" fill="#516066"/>
<path d="M632 102H628V118H632V102Z" fill="#516066"/>
<path d="M730 86H726V102H730V86Z" fill="#516066"/>
<path d="M730 90H726V106H730V90Z" fill="#516066"/>
<path d="M730 94H726V110H730V94Z" fill="#516066"/>
<path d="M730 98H726V114H730V98Z" fill="#516066"/>
<path d="M730 102H726V118H730V102Z" fill="#516066"/>
<path d="M653.422 108V106.236H656.248V97.2H653.422V95.436H661.414V97.2H658.588V106.236H661.414V108H653.422ZM664.161 108V98.712H666.465V100.35H666.555C666.759 99.846 667.071 99.414 667.491 99.054C667.923 98.682 668.517 98.496 669.273 98.496C670.185 98.496 670.923 98.802 671.487 99.414C672.063 100.014 672.351 100.878 672.351 102.006V108H670.047V102.33C670.047 100.986 669.465 100.314 668.301 100.314C668.061 100.314 667.833 100.344 667.617 100.404C667.401 100.464 667.203 100.56 667.023 100.692C666.855 100.812 666.717 100.962 666.609 101.142C666.513 101.322 666.465 101.538 666.465 101.79V108H664.161ZM674.846 98.712H677.15V100.35H677.276C677.528 99.786 677.87 99.336 678.302 99C678.746 98.664 679.328 98.496 680.048 98.496C680.576 98.496 681.056 98.598 681.488 98.802C681.932 98.994 682.31 99.294 682.622 99.702C682.934 100.098 683.174 100.602 683.342 101.214C683.51 101.826 683.594 102.54 683.594 103.356C683.594 104.172 683.51 104.886 683.342 105.498C683.174 106.11 682.934 106.62 682.622 107.028C682.31 107.424 681.932 107.724 681.488 107.928C681.056 108.12 680.576 108.216 680.048 108.216C679.328 108.216 678.746 108.048 678.302 107.712C677.87 107.376 677.528 106.926 677.276 106.362H677.15V111.6H674.846V98.712ZM679.076 106.38C679.748 106.38 680.264 106.176 680.624 105.768C680.996 105.36 681.182 104.802 681.182 104.094V102.618C681.182 101.91 680.996 101.352 680.624 100.944C680.264 100.536 679.748 100.332 679.076 100.332C678.548 100.332 678.092 100.464 677.708 100.728C677.336 100.98 677.15 101.37 677.15 101.898V104.814C677.15 105.342 677.336 105.738 677.708 106.002C678.092 106.254 678.548 106.38 679.076 106.38ZM691.542 106.362H691.452C691.248 106.866 690.93 107.304 690.498 107.676C690.078 108.036 689.49 108.216 688.734 108.216C687.822 108.216 687.078 107.916 686.502 107.316C685.938 106.704 685.656 105.834 685.656 104.706V98.712H687.96V104.382C687.96 105.726 688.542 106.398 689.706 106.398C689.934 106.398 690.156 106.368 690.372 106.308C690.6 106.248 690.798 106.158 690.966 106.038C691.146 105.906 691.284 105.75 691.38 105.57C691.488 105.39 691.542 105.174 691.542 104.922V98.712H693.846V108H691.542V106.362ZM701.219 108C700.331 108 699.677 107.766 699.257 107.298C698.837 106.83 698.627 106.224 698.627 105.48V100.53H695.927V98.712H697.763C698.135 98.712 698.399 98.64 698.555 98.496C698.711 98.34 698.789 98.07 698.789 97.686V95.436H700.931V98.712H704.711V100.53H700.931V106.182H704.711V108H701.219Z" fill="white"/>
</g>
<defs>
<clipPath id="clip0_944_267846">
<rect width="760" height="160" fill="white"/>
</clipPath>
</defs>
</svg>
