<svg width="402" height="125" viewBox="0 0 402 125" fill="none" xmlns="http://www.w3.org/2000/svg">
<g clip-path="url(#clip0_2096_151692)">
<rect width="1" height="125" fill="#DFDFDF"/>
<rect width="400" height="125" transform="translate(1)" fill="#BDBDBD"/>
<rect x="1" width="400" height="1" fill="#DFDFDF"/>
<rect width="400" height="22" transform="translate(1 1)" fill="#0F2058"/>
<path d="M10.44 16V7.624H11.448V15.124H15.42V16H10.44ZM19.7953 16.144C19.3633 16.144 18.9713 16.068 18.6193 15.916C18.2753 15.764 17.9793 15.548 17.7313 15.268C17.4913 14.98 17.3073 14.64 17.1793 14.248C17.0513 13.848 16.9873 13.4 16.9873 12.904C16.9873 12.416 17.0513 11.972 17.1793 11.572C17.3073 11.172 17.4913 10.832 17.7313 10.552C17.9793 10.264 18.2753 10.044 18.6193 9.892C18.9713 9.74 19.3633 9.664 19.7953 9.664C20.2273 9.664 20.6153 9.74 20.9593 9.892C21.3113 10.044 21.6073 10.264 21.8473 10.552C22.0953 10.832 22.2833 11.172 22.4113 11.572C22.5393 11.972 22.6033 12.416 22.6033 12.904C22.6033 13.4 22.5393 13.848 22.4113 14.248C22.2833 14.64 22.0953 14.98 21.8473 15.268C21.6073 15.548 21.3113 15.764 20.9593 15.916C20.6153 16.068 20.2273 16.144 19.7953 16.144ZM19.7953 15.316C20.3313 15.316 20.7633 15.156 21.0913 14.836C21.4193 14.516 21.5833 14.02 21.5833 13.348V12.46C21.5833 11.788 21.4193 11.292 21.0913 10.972C20.7633 10.652 20.3313 10.492 19.7953 10.492C19.2593 10.492 18.8273 10.652 18.4993 10.972C18.1713 11.292 18.0073 11.788 18.0073 12.46V13.348C18.0073 14.02 18.1713 14.516 18.4993 14.836C18.8273 15.156 19.2593 15.316 19.7953 15.316ZM29.3306 16C28.9546 16 28.6866 15.904 28.5266 15.712C28.3666 15.52 28.2666 15.28 28.2266 14.992H28.1666C28.0306 15.352 27.8106 15.636 27.5066 15.844C27.2106 16.044 26.8106 16.144 26.3066 16.144C25.6586 16.144 25.1426 15.976 24.7586 15.64C24.3746 15.304 24.1826 14.844 24.1826 14.26C24.1826 13.684 24.3906 13.24 24.8066 12.928C25.2306 12.616 25.9106 12.46 26.8466 12.46H28.1666V11.848C28.1666 11.392 28.0386 11.052 27.7826 10.828C27.5266 10.596 27.1626 10.48 26.6906 10.48C26.2746 10.48 25.9346 10.564 25.6706 10.732C25.4066 10.892 25.1946 11.112 25.0346 11.392L24.3866 10.912C24.4666 10.752 24.5746 10.596 24.7106 10.444C24.8466 10.292 25.0146 10.16 25.2146 10.048C25.4146 9.928 25.6426 9.836 25.8986 9.772C26.1546 9.7 26.4386 9.664 26.7506 9.664C27.4786 9.664 28.0546 9.848 28.4786 10.216C28.9106 10.584 29.1266 11.096 29.1266 11.752V15.16H29.9906V16H29.3306ZM26.4746 15.34C26.7226 15.34 26.9466 15.312 27.1466 15.256C27.3546 15.192 27.5346 15.112 27.6866 15.016C27.8386 14.912 27.9546 14.792 28.0346 14.656C28.1226 14.512 28.1666 14.36 28.1666 14.2V13.18H26.8466C26.2706 13.18 25.8506 13.26 25.5866 13.42C25.3226 13.58 25.1906 13.812 25.1906 14.116V14.368C25.1906 14.688 25.3026 14.932 25.5266 15.1C25.7586 15.26 26.0746 15.34 26.4746 15.34ZM35.6859 14.992H35.6379C35.2379 15.76 34.6019 16.144 33.7299 16.144C32.9699 16.144 32.3739 15.86 31.9419 15.292C31.5179 14.724 31.3059 13.928 31.3059 12.904C31.3059 11.88 31.5179 11.084 31.9419 10.516C32.3739 9.948 32.9699 9.664 33.7299 9.664C34.6019 9.664 35.2379 10.048 35.6379 10.816H35.6859V7.12H36.6459V16H35.6859V14.992ZM34.1019 15.292C34.3179 15.292 34.5219 15.264 34.7139 15.208C34.9059 15.152 35.0739 15.072 35.2179 14.968C35.3619 14.856 35.4739 14.724 35.5539 14.572C35.6419 14.412 35.6859 14.228 35.6859 14.02V11.788C35.6859 11.58 35.6419 11.4 35.5539 11.248C35.4739 11.088 35.3619 10.956 35.2179 10.852C35.0739 10.74 34.9059 10.656 34.7139 10.6C34.5219 10.544 34.3179 10.516 34.1019 10.516C33.5419 10.516 33.1059 10.688 32.7939 11.032C32.4899 11.368 32.3379 11.816 32.3379 12.376V13.432C32.3379 13.992 32.4899 14.444 32.7939 14.788C33.1059 15.124 33.5419 15.292 34.1019 15.292ZM41.7653 8.44C41.4853 8.44 41.2893 8.384 41.1773 8.272C41.0653 8.152 41.0093 8.004 41.0093 7.828V7.636C41.0093 7.46 41.0653 7.316 41.1773 7.204C41.2893 7.084 41.4853 7.024 41.7653 7.024C42.0453 7.024 42.2413 7.084 42.3533 7.204C42.4653 7.316 42.5213 7.46 42.5213 7.636V7.828C42.5213 8.004 42.4653 8.152 42.3533 8.272C42.2413 8.384 42.0453 8.44 41.7653 8.44ZM39.0533 15.184H41.2853V10.624H39.0533V9.808H42.2453V15.184H44.3333V16H39.0533V15.184ZM46.1526 16V9.808H47.1126V10.816H47.1606C47.2246 10.664 47.3046 10.52 47.4006 10.384C47.4966 10.24 47.6126 10.116 47.7486 10.012C47.8926 9.908 48.0606 9.824 48.2526 9.76C48.4446 9.696 48.6686 9.664 48.9246 9.664C49.5726 9.664 50.0926 9.872 50.4846 10.288C50.8766 10.696 51.0726 11.276 51.0726 12.028V16H50.1126V12.196C50.1126 11.628 49.9886 11.208 49.7406 10.936C49.4926 10.656 49.1286 10.516 48.6486 10.516C48.4566 10.516 48.2686 10.54 48.0846 10.588C47.9006 10.636 47.7366 10.708 47.5926 10.804C47.4486 10.9 47.3326 11.024 47.2446 11.176C47.1566 11.328 47.1126 11.504 47.1126 11.704V16H46.1526ZM58.9039 16.708C58.9039 17.332 58.6439 17.792 58.1239 18.088C57.6039 18.392 56.8239 18.544 55.7839 18.544C54.7839 18.544 54.0639 18.412 53.6239 18.148C53.1919 17.884 52.9759 17.504 52.9759 17.008C52.9759 16.672 53.0639 16.412 53.2399 16.228C53.4159 16.044 53.6639 15.908 53.9839 15.82V15.676C53.8079 15.588 53.6719 15.476 53.5759 15.34C53.4799 15.204 53.4319 15.032 53.4319 14.824C53.4319 14.504 53.5359 14.264 53.7439 14.104C53.9599 13.944 54.2279 13.824 54.5479 13.744V13.696C54.1639 13.528 53.8639 13.28 53.6479 12.952C53.4399 12.624 53.3359 12.24 53.3359 11.8C53.3359 11.488 53.3919 11.2 53.5039 10.936C53.6159 10.672 53.7759 10.448 53.9839 10.264C54.1999 10.072 54.4559 9.924 54.7519 9.82C55.0479 9.716 55.3759 9.664 55.7359 9.664C56.1999 9.664 56.6079 9.748 56.9599 9.916V9.808C56.9599 9.568 57.0159 9.368 57.1279 9.208C57.2399 9.048 57.4319 8.968 57.7039 8.968H58.8439V9.808H57.4519V10.228C57.6759 10.42 57.8479 10.648 57.9679 10.912C58.0879 11.176 58.1479 11.472 58.1479 11.8C58.1479 12.112 58.0879 12.4 57.9679 12.664C57.8559 12.928 57.6959 13.156 57.4879 13.348C57.2799 13.532 57.0239 13.676 56.7199 13.78C56.4239 13.884 56.0959 13.936 55.7359 13.936C55.6319 13.936 55.5319 13.932 55.4359 13.924C55.3399 13.916 55.2439 13.904 55.1479 13.888C55.0519 13.904 54.9519 13.932 54.8479 13.972C54.7439 14.004 54.6479 14.052 54.5599 14.116C54.4719 14.172 54.3999 14.24 54.3439 14.32C54.2879 14.4 54.2599 14.492 54.2599 14.596C54.2599 14.78 54.3519 14.904 54.5359 14.968C54.7199 15.024 54.9599 15.052 55.2559 15.052H56.6239C57.4239 15.052 58.0039 15.204 58.3639 15.508C58.7239 15.804 58.9039 16.204 58.9039 16.708ZM58.0039 16.756C58.0039 16.508 57.9039 16.308 57.7039 16.156C57.5039 16.012 57.1559 15.94 56.6599 15.94H54.5119C54.0959 16.108 53.8879 16.388 53.8879 16.78C53.8879 17.052 53.9959 17.284 54.2119 17.476C54.4279 17.676 54.7879 17.776 55.2919 17.776H56.2279C56.7879 17.776 57.2239 17.688 57.5359 17.512C57.8479 17.344 58.0039 17.092 58.0039 16.756ZM55.7359 13.192C56.2159 13.192 56.5679 13.08 56.7919 12.856C57.0239 12.632 57.1399 12.336 57.1399 11.968V11.62C57.1399 11.252 57.0239 10.96 56.7919 10.744C56.5679 10.52 56.2159 10.408 55.7359 10.408C55.2559 10.408 54.9039 10.52 54.6799 10.744C54.4559 10.96 54.3439 11.252 54.3439 11.62V11.968C54.3439 12.336 54.4559 12.632 54.6799 12.856C54.9039 13.08 55.2559 13.192 55.7359 13.192Z" fill="white"/>
<rect width="382" height="33" transform="translate(9 39)" fill="#F2F2F2"/>
<rect x="9" y="39" width="382" height="1" fill="#5F5F5F"/>
<rect x="9" y="40" width="1" height="31" fill="#5F5F5F"/>
<rect x="18" y="43.5" width="12" height="24" fill="#2A72E5"/>
<rect x="34" y="43.5" width="12" height="24" fill="#2A72E5"/>
<rect x="50" y="43.5" width="12" height="24" fill="#2A72E5"/>
<rect x="66" y="43.5" width="12" height="24" fill="#2A72E5"/>
<rect x="82" y="43.5" width="12" height="24" fill="#2A72E5"/>
<rect x="98" y="43.5" width="12" height="24" fill="#2A72E5"/>
<rect x="114" y="43.5" width="12" height="24" fill="#2A72E5"/>
<rect x="130" y="43.5" width="12" height="24" fill="#2A72E5"/>
<rect x="146" y="43.5" width="12" height="24" fill="#2A72E5"/>
<rect x="162" y="43.5" width="12" height="24" fill="#2A72E5"/>
<rect x="178" y="43.5" width="12" height="24" fill="#2A72E5"/>
<rect x="194" y="43.5" width="12" height="24" fill="#2A72E5"/>
<rect x="210" y="43.5" width="12" height="24" fill="#2A72E5"/>
<rect x="226" y="43.5" width="12" height="24" fill="#2A72E5"/>
<rect x="242" y="43.5" width="12" height="24" fill="#2A72E5"/>
<rect x="258" y="43.5" width="12" height="24" fill="#2A72E5"/>
<rect x="274" y="43.5" width="12" height="24" fill="#2A72E5"/>
<rect x="290" y="43.5" width="12" height="24" fill="#2A72E5"/>
<rect x="306" y="43.5" width="12" height="24" fill="#2A72E5"/>
<rect x="322" y="43.5" width="12" height="24" fill="#A5A5A5"/>
<rect x="338" y="43.5" width="12" height="24" fill="#A5A5A5"/>
<rect x="354" y="43.5" width="12" height="24" fill="#A5A5A5"/>
<rect x="370" y="43.5" width="12" height="24" fill="#A5A5A5"/>
<rect x="390" y="40" width="1" height="31" fill="#DFDFDF"/>
<rect x="9" y="71" width="382" height="1" fill="#DFDFDF"/>
<path d="M10.26 102V92.228H13.816C14.7213 92.228 15.412 92.4753 15.888 92.97C16.364 93.4647 16.602 94.1553 16.602 95.042C16.602 95.9287 16.364 96.6193 15.888 97.114C15.412 97.6087 14.7213 97.856 13.816 97.856H11.436V102H10.26ZM11.436 96.834H13.788C14.2827 96.834 14.6653 96.7127 14.936 96.47C15.216 96.218 15.356 95.8633 15.356 95.406V94.678C15.356 94.2207 15.216 93.8707 14.936 93.628C14.6653 93.376 14.2827 93.25 13.788 93.25H11.436V96.834ZM18.5145 101.048H21.0345V92.592H18.5145V91.64H22.1545V101.048H24.6745V102H18.5145V101.048ZM30.1151 102.168C29.5924 102.168 29.1211 102.079 28.7011 101.902C28.2904 101.725 27.9357 101.473 27.6371 101.146C27.3477 100.81 27.1237 100.413 26.9651 99.956C26.8064 99.4893 26.7271 98.9713 26.7271 98.402C26.7271 97.8233 26.8064 97.3007 26.9651 96.834C27.1331 96.3673 27.3617 95.9707 27.6511 95.644C27.9404 95.308 28.2857 95.0513 28.6871 94.874C29.0977 94.6967 29.5504 94.608 30.0451 94.608C30.5304 94.608 30.9691 94.6967 31.3611 94.874C31.7624 95.0513 32.1031 95.2987 32.3831 95.616C32.6631 95.924 32.8777 96.2927 33.0271 96.722C33.1764 97.1513 33.2511 97.6227 33.2511 98.136V98.668H27.9031V99.004C27.9031 99.3213 27.9544 99.6153 28.0571 99.886C28.1597 100.157 28.3044 100.39 28.4911 100.586C28.6871 100.782 28.9204 100.936 29.1911 101.048C29.4711 101.151 29.7791 101.202 30.1151 101.202C30.6004 101.202 31.0204 101.09 31.3751 100.866C31.7297 100.642 32.0004 100.334 32.1871 99.942L33.0131 100.502C32.7984 100.987 32.4391 101.389 31.9351 101.706C31.4404 102.014 30.8337 102.168 30.1151 102.168ZM30.0451 95.532C29.7371 95.532 29.4524 95.588 29.1911 95.7C28.9297 95.812 28.7011 95.966 28.5051 96.162C28.3184 96.358 28.1691 96.5913 28.0571 96.862C27.9544 97.1233 27.9031 97.4127 27.9031 97.73V97.828H32.0471V97.674C32.0471 97.3567 31.9957 97.0673 31.8931 96.806C31.7997 96.5447 31.6644 96.3207 31.4871 96.134C31.3191 95.938 31.1091 95.7887 30.8571 95.686C30.6144 95.5833 30.3437 95.532 30.0451 95.532ZM41.1136 102C40.6749 102 40.3623 101.888 40.1756 101.664C39.9889 101.44 39.8723 101.16 39.8256 100.824H39.7556C39.5969 101.244 39.3403 101.575 38.9856 101.818C38.6403 102.051 38.1736 102.168 37.5856 102.168C36.8296 102.168 36.2276 101.972 35.7796 101.58C35.3316 101.188 35.1076 100.651 35.1076 99.97C35.1076 99.298 35.3503 98.78 35.8356 98.416C36.3303 98.052 37.1236 97.87 38.2156 97.87H39.7556V97.156C39.7556 96.624 39.6063 96.2273 39.3076 95.966C39.0089 95.6953 38.5843 95.56 38.0336 95.56C37.5483 95.56 37.1516 95.658 36.8436 95.854C36.5356 96.0407 36.2883 96.2973 36.1016 96.624L35.3456 96.064C35.4389 95.8773 35.5649 95.6953 35.7236 95.518C35.8823 95.3407 36.0783 95.1867 36.3116 95.056C36.5449 94.916 36.8109 94.8087 37.1096 94.734C37.4083 94.65 37.7396 94.608 38.1036 94.608C38.9529 94.608 39.6249 94.8227 40.1196 95.252C40.6236 95.6813 40.8756 96.2787 40.8756 97.044V101.02H41.8836V102H41.1136ZM37.7816 101.23C38.0709 101.23 38.3323 101.197 38.5656 101.132C38.8083 101.057 39.0183 100.964 39.1956 100.852C39.3729 100.731 39.5083 100.591 39.6016 100.432C39.7043 100.264 39.7556 100.087 39.7556 99.9V98.71H38.2156C37.5436 98.71 37.0536 98.8033 36.7456 98.99C36.4376 99.1767 36.2836 99.4473 36.2836 99.802V100.096C36.2836 100.469 36.4143 100.754 36.6756 100.95C36.9463 101.137 37.3149 101.23 37.7816 101.23ZM46.8621 102.168C46.1061 102.168 45.4528 102.042 44.9021 101.79C44.3608 101.529 43.8988 101.183 43.5161 100.754L44.2721 100.096C44.6175 100.46 44.9955 100.74 45.4061 100.936C45.8168 101.132 46.3115 101.23 46.8901 101.23C47.4501 101.23 47.9075 101.132 48.2621 100.936C48.6261 100.731 48.8081 100.413 48.8081 99.984C48.8081 99.7973 48.7708 99.6433 48.6961 99.522C48.6308 99.3913 48.5375 99.2887 48.4161 99.214C48.2948 99.1393 48.1595 99.0833 48.0101 99.046C47.8608 98.9993 47.7021 98.962 47.5341 98.934L46.4001 98.766C46.1481 98.7287 45.8728 98.6773 45.5741 98.612C45.2848 98.5467 45.0188 98.444 44.7761 98.304C44.5335 98.1547 44.3281 97.9587 44.1601 97.716C44.0015 97.4733 43.9221 97.156 43.9221 96.764C43.9221 96.4 43.9921 96.0873 44.1321 95.826C44.2815 95.5553 44.4868 95.3313 44.7481 95.154C45.0095 94.9673 45.3175 94.832 45.6721 94.748C46.0268 94.6547 46.4141 94.608 46.8341 94.608C47.4875 94.608 48.0521 94.7107 48.5281 94.916C49.0135 95.1213 49.4288 95.406 49.7741 95.77L49.0461 96.456C48.9621 96.3533 48.8548 96.2507 48.7241 96.148C48.6028 96.036 48.4488 95.938 48.2621 95.854C48.0848 95.7607 47.8748 95.686 47.6321 95.63C47.3895 95.574 47.1095 95.546 46.7921 95.546C46.2228 95.546 45.7841 95.644 45.4761 95.84C45.1775 96.036 45.0281 96.3207 45.0281 96.694C45.0281 96.8807 45.0608 97.0393 45.1261 97.17C45.2008 97.2913 45.2988 97.3893 45.4201 97.464C45.5415 97.5387 45.6768 97.5993 45.8261 97.646C45.9848 97.6833 46.1435 97.716 46.3021 97.744L47.4361 97.912C47.6975 97.9493 47.9728 98.0007 48.2621 98.066C48.5515 98.1313 48.8175 98.2387 49.0601 98.388C49.3028 98.528 49.5035 98.7193 49.6621 98.962C49.8301 99.2047 49.9141 99.522 49.9141 99.914C49.9141 100.633 49.6341 101.188 49.0741 101.58C48.5235 101.972 47.7861 102.168 46.8621 102.168ZM55.2987 102.168C54.776 102.168 54.3047 102.079 53.8847 101.902C53.474 101.725 53.1193 101.473 52.8207 101.146C52.5313 100.81 52.3073 100.413 52.1487 99.956C51.99 99.4893 51.9107 98.9713 51.9107 98.402C51.9107 97.8233 51.99 97.3007 52.1487 96.834C52.3167 96.3673 52.5453 95.9707 52.8347 95.644C53.124 95.308 53.4693 95.0513 53.8707 94.874C54.2813 94.6967 54.734 94.608 55.2287 94.608C55.714 94.608 56.1527 94.6967 56.5447 94.874C56.946 95.0513 57.2867 95.2987 57.5667 95.616C57.8467 95.924 58.0613 96.2927 58.2107 96.722C58.36 97.1513 58.4347 97.6227 58.4347 98.136V98.668H53.0867V99.004C53.0867 99.3213 53.138 99.6153 53.2407 99.886C53.3433 100.157 53.488 100.39 53.6747 100.586C53.8707 100.782 54.104 100.936 54.3747 101.048C54.6547 101.151 54.9627 101.202 55.2987 101.202C55.784 101.202 56.204 101.09 56.5587 100.866C56.9133 100.642 57.184 100.334 57.3707 99.942L58.1967 100.502C57.982 100.987 57.6227 101.389 57.1187 101.706C56.624 102.014 56.0173 102.168 55.2987 102.168ZM55.2287 95.532C54.9207 95.532 54.636 95.588 54.3747 95.7C54.1133 95.812 53.8847 95.966 53.6887 96.162C53.502 96.358 53.3527 96.5913 53.2407 96.862C53.138 97.1233 53.0867 97.4127 53.0867 97.73V97.828H57.2307V97.674C57.2307 97.3567 57.1793 97.0673 57.0767 96.806C56.9833 96.5447 56.848 96.3207 56.6707 96.134C56.5027 95.938 56.2927 95.7887 56.0407 95.686C55.798 95.5833 55.5273 95.532 55.2287 95.532ZM62.9652 100.096H64.7712L63.1612 103.974H62.2232L62.9652 100.096ZM76.5763 94.776H77.5703L78.3963 101.02H78.5223L79.7542 94.776H80.9863L82.2183 101.02H82.3443L83.1703 94.776H84.1363L83.0303 102H81.5743L80.4263 95.952H80.3143L79.1383 102H77.6823L76.5763 94.776ZM91.4808 102C91.0421 102 90.7294 101.888 90.5428 101.664C90.3561 101.44 90.2394 101.16 90.1928 100.824H90.1228C89.9641 101.244 89.7074 101.575 89.3528 101.818C89.0074 102.051 88.5408 102.168 87.9528 102.168C87.1968 102.168 86.5948 101.972 86.1468 101.58C85.6988 101.188 85.4748 100.651 85.4748 99.97C85.4748 99.298 85.7174 98.78 86.2028 98.416C86.6974 98.052 87.4908 97.87 88.5828 97.87H90.1228V97.156C90.1228 96.624 89.9734 96.2273 89.6748 95.966C89.3761 95.6953 88.9514 95.56 88.4008 95.56C87.9154 95.56 87.5188 95.658 87.2108 95.854C86.9028 96.0407 86.6554 96.2973 86.4688 96.624L85.7128 96.064C85.8061 95.8773 85.9321 95.6953 86.0908 95.518C86.2494 95.3407 86.4454 95.1867 86.6788 95.056C86.9121 94.916 87.1781 94.8087 87.4768 94.734C87.7754 94.65 88.1068 94.608 88.4708 94.608C89.3201 94.608 89.9921 94.8227 90.4868 95.252C90.9908 95.6813 91.2428 96.2787 91.2428 97.044V101.02H92.2508V102H91.4808ZM88.1488 101.23C88.4381 101.23 88.6994 101.197 88.9328 101.132C89.1754 101.057 89.3854 100.964 89.5628 100.852C89.7401 100.731 89.8754 100.591 89.9688 100.432C90.0714 100.264 90.1228 100.087 90.1228 99.9V98.71H88.5828C87.9108 98.71 87.4208 98.8033 87.1128 98.99C86.8048 99.1767 86.6508 99.4473 86.6508 99.802V100.096C86.6508 100.469 86.7814 100.754 87.0428 100.95C87.3134 101.137 87.6821 101.23 88.1488 101.23ZM97.5933 93.18C97.2666 93.18 97.038 93.1147 96.9073 92.984C96.7766 92.844 96.7113 92.6713 96.7113 92.466V92.242C96.7113 92.0367 96.7766 91.8687 96.9073 91.738C97.038 91.598 97.2666 91.528 97.5933 91.528C97.92 91.528 98.1486 91.598 98.2793 91.738C98.41 91.8687 98.4753 92.0367 98.4753 92.242V92.466C98.4753 92.6713 98.41 92.844 98.2793 92.984C98.1486 93.1147 97.92 93.18 97.5933 93.18ZM94.4293 101.048H97.0333V95.728H94.4293V94.776H98.1533V101.048H100.589V102H94.4293V101.048ZM105.89 102C105.339 102 104.933 101.846 104.672 101.538C104.42 101.23 104.294 100.833 104.294 100.348V95.728H101.886V94.776H103.678C103.921 94.776 104.089 94.7293 104.182 94.636C104.285 94.5333 104.336 94.3607 104.336 94.118V92.228H105.414V94.776H108.704V95.728H105.414V101.048H108.704V102H105.89Z" fill="#222222"/>
<rect x="1" y="124" width="400" height="1" fill="#5F5F5F"/>
<rect x="401" width="1" height="125" fill="#5F5F5F"/>
</g>
<defs>
<clipPath id="clip0_2096_151692">
<rect width="402" height="125" fill="white"/>
</clipPath>
</defs>
</svg>
