<svg width="113" height="73" viewBox="0 0 113 73" fill="none" xmlns="http://www.w3.org/2000/svg">
<path fill-rule="evenodd" clip-rule="evenodd" d="M21.2739 13.9786H73.7768V17.0849H76.8651V60.8853H73.7768V63.9915H21.2739V60.8853H18.1857V17.0852H21.2739V13.9786Z" fill="#FFD683"/>
<mask id="mask0_774_28751" style="mask-type:alpha" maskUnits="userSpaceOnUse" x="18" y="13" width="59" height="51">
<path fill-rule="evenodd" clip-rule="evenodd" d="M21.2739 13.9786H73.7768V17.0849H76.8651V60.8853H73.7768V63.9915H21.2739V60.8853H18.1857V17.0852H21.2739V13.9786Z" fill="#A55C5C"/>
</mask>
<g mask="url(#mask0_774_28751)">
<path d="M73.7773 13.9786H77.6377V10.0957H73.7773V13.9786ZM21.274 13.9786V10.0957H17.4136V13.9786H21.274ZM73.7773 17.0852H69.9169V20.9681H73.7773V17.0852ZM76.8655 17.0852H80.7259V13.2019H76.8655V17.0852ZM76.8655 60.8853V64.7682H80.7259V60.8853H76.8655ZM73.7773 60.8853V57.0024H69.9169V60.8853H73.7773ZM73.7773 63.9915V67.8744H77.6377V63.9915H73.7773ZM21.274 63.9915H17.4136V67.8744H21.274V63.9915ZM21.274 60.8853H25.1344V57.0024H21.274V60.8853ZM18.1857 60.8853H14.3253V64.7682H18.1857V60.8853ZM18.1857 17.0852V13.2019H14.3253V17.0848H18.1857V17.0852ZM21.274 17.0852V20.9681H25.1344V17.0852H21.274ZM73.7773 10.0957H21.274V17.8618H73.7769L73.7773 10.0957ZM77.6377 17.0852V13.9786L69.9165 13.979V17.0852H77.6377ZM76.8655 13.2019H73.7773V20.9681H76.8655V13.2019ZM80.7259 60.8853V17.0852H73.0048V60.8853H80.7259ZM73.7773 64.7682H76.8655V57.002H73.7773V64.7682ZM69.9165 60.8853V63.9915H77.6377V60.8853H69.9165ZM73.7773 60.1086H21.274V67.8748H73.7769L73.7773 60.1086ZM25.1348 63.9915L25.1344 60.8853H17.4136V63.9915H25.1348ZM18.1857 64.7682H21.274V57.002H18.1857V64.7682ZM14.3253 17.0852V60.8853H22.0461V17.0852H14.3253ZM21.274 13.2019H18.1857V20.9681H21.274V13.2019ZM17.4136 13.9786V17.0848H25.1348V13.9786H17.4136Z" fill="#88CBDB"/>
</g>
<path d="M24.3622 10.8723H21.2739V13.9785H24.3622V10.8723Z" fill="black"/>
<path d="M27.4508 10.8723H24.3625V13.9785H27.4508V10.8723Z" fill="black"/>
<path d="M30.5391 10.8723H27.4508V13.9785H30.5391V10.8723Z" fill="black"/>
<path d="M33.6277 10.8723H30.5394V13.9785H33.6277V10.8723Z" fill="black"/>
<path d="M36.7159 10.8723H33.6277V13.9785H36.7159V10.8723Z" fill="black"/>
<path d="M39.8042 10.8723H36.7159V13.9785H39.8042V10.8723Z" fill="black"/>
<path d="M42.8928 10.8723H39.8046V13.9785H42.8928V10.8723Z" fill="black"/>
<path d="M45.9811 10.8723H42.8928V13.9785H45.9811V10.8723Z" fill="black"/>
<path d="M49.0697 10.8723H45.9814V13.9785H49.0697V10.8723Z" fill="black"/>
<path d="M52.158 10.8723H49.0697V13.9785H52.158V10.8723Z" fill="black"/>
<path d="M55.2466 10.8723H52.1583V13.9785H55.2466V10.8723Z" fill="black"/>
<path d="M58.3348 10.8723H55.2466V13.9785H58.3348V10.8723Z" fill="black"/>
<path d="M61.4235 10.8723H58.3352V13.9785H61.4235V10.8723Z" fill="black"/>
<path d="M64.5117 10.8723H61.4235V13.9785H64.5117V10.8723Z" fill="black"/>
<path d="M67.6 10.8723H64.5117V13.9785H67.6V10.8723Z" fill="black"/>
<path d="M70.6886 10.8723H67.6003V13.9785H70.6886V10.8723Z" fill="black"/>
<path d="M73.7769 10.8723H70.6886V13.9785H73.7769V10.8723Z" fill="black"/>
<path d="M18.1853 17.0852H15.097V20.1914H18.1853V17.0852Z" fill="black"/>
<path d="M18.1853 20.1914H15.097V23.2976H18.1853V20.1914Z" fill="black"/>
<path d="M18.1853 23.2981H15.097V26.4043H18.1853V23.2981Z" fill="black"/>
<path d="M18.1853 26.4043H15.097V29.5105H18.1853V26.4043Z" fill="black"/>
<path d="M18.1853 29.5105H15.097V32.6167H18.1853V29.5105Z" fill="black"/>
<path d="M18.1853 32.6171H15.097V35.7233H18.1853V32.6171Z" fill="black"/>
<path d="M18.1853 35.7234H15.097V38.8296H18.1853V35.7234Z" fill="black"/>
<path d="M18.1853 38.83H15.097V41.9362H18.1853V38.83Z" fill="black"/>
<path d="M18.1853 41.9362H15.097V45.0424H18.1853V41.9362Z" fill="black"/>
<path d="M18.1853 45.0428H15.097V48.1491H18.1853V45.0428Z" fill="black"/>
<path d="M18.1853 48.149H15.097V51.2553H18.1853V48.149Z" fill="black"/>
<path d="M18.1853 51.2552H15.097V54.3615H18.1853V51.2552Z" fill="black"/>
<path d="M18.1853 54.3618H15.097V57.468H18.1853V54.3618Z" fill="black"/>
<path d="M18.1853 57.4681H15.097V60.5744H18.1853V57.4681Z" fill="black"/>
<path d="M18.1853 60.5747H15.097V63.6809H18.1853V60.5747Z" fill="black"/>
<path d="M21.2735 63.6805H15.0969V69.8931H21.2735V63.6805Z" fill="#ECECEC"/>
<path d="M79.9537 17.0852H76.8655V20.1914H79.9537V17.0852Z" fill="black"/>
<path d="M79.9537 20.1914H76.8655V23.2976H79.9537V20.1914Z" fill="black"/>
<path d="M79.9537 23.2981H76.8655V26.4043H79.9537V23.2981Z" fill="black"/>
<path d="M79.9537 26.4043H76.8655V29.5105H79.9537V26.4043Z" fill="black"/>
<path d="M79.9537 29.5105H76.8655V32.6167H79.9537V29.5105Z" fill="black"/>
<path d="M79.9537 32.6171H76.8655V35.7233H79.9537V32.6171Z" fill="black"/>
<path d="M79.9537 35.7234H76.8655V38.8296H79.9537V35.7234Z" fill="black"/>
<path d="M79.9537 38.83H76.8655V41.9362H79.9537V38.83Z" fill="black"/>
<path d="M79.9537 41.9362H76.8655V45.0424H79.9537V41.9362Z" fill="black"/>
<path d="M79.9537 45.0428H76.8655V48.1491H79.9537V45.0428Z" fill="black"/>
<path d="M79.9537 48.149H76.8655V51.2553H79.9537V48.149Z" fill="black"/>
<path d="M79.9537 51.2552H76.8655V54.3615H79.9537V51.2552Z" fill="black"/>
<path d="M79.9537 54.3618H76.8655V57.468H79.9537V54.3618Z" fill="black"/>
<path d="M79.9537 57.4681H76.8655V60.5744H79.9537V57.4681Z" fill="black"/>
<path d="M21.2739 13.9786H18.1857V17.0849H21.2739V13.9786Z" fill="black"/>
<path d="M21.2739 60.5747H18.1857V63.6809H21.2739V60.5747Z" fill="black"/>
<path d="M24.3622 66.7875H21.2739V69.8937H24.3622V66.7875Z" fill="black"/>
<path d="M18.1853 69.8938H15.097V73H18.1853V69.8938Z" fill="black"/>
<path d="M21.2739 69.8938H18.1857V73H21.2739V69.8938Z" fill="black"/>
<path d="M36.8705 69.8938H33.7822V73H36.8705V69.8938Z" fill="black"/>
<path d="M30.6936 66.7875H27.6053V69.8937H30.6936V66.7875Z" fill="black"/>
<path d="M43.0474 66.7875H39.9591V69.8937H43.0474V66.7875Z" fill="black"/>
<path d="M33.7819 69.8938H30.6936V73H33.7819V69.8938Z" fill="black"/>
<path d="M33.7819 66.7875H30.6936V69.8937H33.7819V66.7875Z" fill="#ECECEC"/>
<path d="M36.8705 69.8938H33.7822V73H36.8705V69.8938Z" fill="black"/>
<path d="M36.8705 66.7875H33.7822V69.8937H36.8705V66.7875Z" fill="#ECECEC"/>
<path d="M39.9587 69.8938H36.8705V73H39.9587V69.8938Z" fill="black"/>
<path d="M39.9587 66.7875H36.8705V69.8937H39.9587V66.7875Z" fill="#ECECEC"/>
<path d="M52.6213 66.7875H49.5331V69.8937H52.6213V66.7875Z" fill="black"/>
<path d="M64.9751 66.7875H61.8868V69.8937H64.9751V66.7875Z" fill="black"/>
<path d="M55.7096 69.8938H52.6213V73H55.7096V69.8938Z" fill="black"/>
<path d="M55.7096 66.7875H52.6213V69.8937H55.7096V66.7875Z" fill="#ECECEC"/>
<path d="M58.7982 69.8938H55.71V73H58.7982V69.8938Z" fill="black"/>
<path d="M58.7982 66.7875H55.71V69.8937H58.7982V66.7875Z" fill="#ECECEC"/>
<path d="M61.8865 69.8938H58.7982V73H61.8865V69.8938Z" fill="black"/>
<path d="M61.8865 66.7875H58.7982V69.8937H61.8865V66.7875Z" fill="#ECECEC"/>
<path d="M71.3062 66.7875H68.2179V69.8937H71.3062V66.7875Z" fill="black"/>
<path d="M83.6599 66.7875H80.5717V69.8937H83.6599V66.7875Z" fill="black"/>
<path d="M74.3948 69.8938H71.3065V73H74.3948V69.8938Z" fill="black"/>
<path d="M74.3948 66.7875H71.3065V69.8937H74.3948V66.7875Z" fill="#ECECEC"/>
<path d="M77.483 69.8938H74.3948V73H77.483V69.8938Z" fill="black"/>
<path d="M77.483 66.7875H74.3948V69.8937H77.483V66.7875Z" fill="#ECECEC"/>
<path d="M80.5713 69.8938H77.483V73H80.5713V69.8938Z" fill="black"/>
<path d="M80.5713 66.7875H77.483V69.8937H80.5713V66.7875Z" fill="#ECECEC"/>
<path d="M15.097 63.6813H12.0088V66.7875H15.097V63.6813Z" fill="black"/>
<path d="M12.0088 37.92H8.92053V41.0263H12.0088V37.92Z" fill="black"/>
<path d="M12.0088 46.8901H8.92053V49.9964H12.0088V46.8901Z" fill="black"/>
<path d="M15.097 66.7875H12.0088V69.8937H15.097V66.7875Z" fill="black"/>
<path d="M15.097 69.8938H12.0088V73H15.097V69.8938Z" fill="black"/>
<path d="M76.8655 13.9786H73.7772V17.0849H76.8655V13.9786Z" fill="black"/>
<path d="M95.9321 7.36023H98.3705V9.81279H95.9321V7.36023Z" fill="black"/>
<path d="M98.3701 7.36023H100.808V9.81279H98.3701V7.36023Z" fill="black"/>
<path d="M100.808 7.36023H103.246V9.81279H100.808V7.36023Z" fill="black"/>
<path d="M103.248 7.36023H105.686V9.81279H103.248V7.36023Z" fill="black"/>
<path d="M91.0562 9.8147H93.4945V12.2673H91.0562V9.8147Z" fill="black"/>
<path d="M93.4941 9.8147H95.9321V12.2673H93.4941V9.8147Z" fill="black"/>
<path d="M105.686 9.8147H108.124V12.2673H105.686V9.8147Z" fill="black"/>
<path d="M88.6182 12.2683H91.0565V14.7209H88.6182V12.2683Z" fill="black"/>
<path d="M105.686 12.2679H108.124V14.7205H105.686V12.2679Z" fill="black"/>
<path d="M86.1787 14.715H88.6167V17.1675H86.1787V14.715Z" fill="black"/>
<path d="M103.248 14.715H105.686V17.1675H103.248V14.715Z" fill="black"/>
<path d="M83.7404 17.1687H86.1787V19.6213H83.7404V17.1687Z" fill="black"/>
<path d="M98.3701 17.1687H100.808V19.6213H98.3701V17.1687Z" fill="black"/>
<path d="M100.808 17.1687H103.246V19.6213H100.808V17.1687Z" fill="black"/>
<path d="M83.7404 19.623H86.1787V22.0752H83.7404V19.623Z" fill="black"/>
<path d="M95.9321 19.623H98.3705V22.0752H95.9321V19.623Z" fill="black"/>
<path d="M81.3027 22.0768H83.7411V24.529H81.3027V22.0768Z" fill="black"/>
<path d="M93.4941 22.0768H95.9321V24.529H93.4941V22.0768Z" fill="black"/>
<path d="M81.3027 24.5264H83.7411V26.9789H81.3027V24.5264Z" fill="black"/>
<path d="M91.0562 24.5264H93.4945V26.9789H91.0562V24.5264Z" fill="black"/>
<path d="M78.8647 26.9778H81.3031V29.4303H78.8647V26.9778Z" fill="black"/>
<path d="M88.6182 26.9778H91.0565V29.4303H88.6182V26.9778Z" fill="black"/>
<path d="M78.8647 29.4315H81.3031V31.8841H78.8647V29.4315Z" fill="black"/>
<path d="M86.1787 29.4315H88.6167V31.8841H86.1787V29.4315Z" fill="black"/>
<path d="M78.8647 31.8855H81.3031V34.3381H78.8647V31.8855Z" fill="black"/>
<path d="M83.7404 31.8855H86.1787V34.3381H83.7404V31.8855Z" fill="black"/>
<path d="M81.3027 34.3374H83.7411V36.79H81.3027V34.3374Z" fill="black"/>
<path d="M37.4161 29.4297H39.8545V31.8819H37.4161V29.4297Z" fill="black"/>
<path d="M39.8538 29.4297H42.2921V31.8819H39.8538V29.4297Z" fill="black"/>
<path d="M44.7297 29.4297H47.1681V31.8819H44.7297V29.4297Z" fill="black"/>
<path d="M47.1677 29.4297H49.6057V31.8819H47.1677V29.4297Z" fill="black"/>
<path d="M49.6061 29.4297H52.0444V31.8819H49.6061V29.4297Z" fill="black"/>
<path d="M52.0455 29.4297H54.4835V31.8819H52.0455V29.4297Z" fill="black"/>
<path d="M42.2921 29.4293H44.7305V31.8815H42.2921V29.4293Z" fill="black"/>
<path d="M32.5383 31.8837H34.9767V34.3362H32.5383V31.8837Z" fill="black"/>
<path d="M34.9763 31.8837H37.4147V34.3362H34.9763V31.8837Z" fill="black"/>
<path d="M54.4832 31.8833H56.9215V34.3359H54.4832V31.8833Z" fill="black"/>
<path d="M30.1002 34.3378H32.5386V36.7903H30.1002V34.3378Z" fill="black"/>
<path d="M56.9213 34.3378H59.3593V36.7903H56.9213V34.3378Z" fill="black"/>
<path d="M27.6622 36.7839H30.1006V39.2365H27.6622V36.7839Z" fill="black"/>
<path d="M27.6622 39.238H30.1006V41.6902H27.6622V39.238Z" fill="black"/>
<path d="M95.9318 9.80957H98.3701V12.2621H95.9318V9.80957Z" fill="#F4D7D7"/>
<path d="M98.3701 9.80957H100.808V12.2621H98.3701V9.80957Z" fill="#F4D7D7"/>
<path d="M100.808 9.80957H103.247V12.2621H100.808V9.80957Z" fill="#F4D7D7"/>
<path d="M103.247 9.80957H105.685V12.2621H103.247V9.80957Z" fill="#F4D7D7"/>
<path d="M91.0554 12.2635H93.4938V14.7161H91.0554V12.2635Z" fill="#F4D7D7"/>
<path d="M95.9318 12.2635H98.3701V14.7161H95.9318V12.2635Z" fill="#F4D7D7"/>
<path d="M98.3701 12.2635H100.808V14.7161H98.3701V12.2635Z" fill="#F4D7D7"/>
<path d="M100.808 12.2635H103.247V14.7161H100.808V12.2635Z" fill="#F4D7D7"/>
<path d="M103.247 12.2635H105.685V14.7161H103.247V12.2635Z" fill="#F4D7D7"/>
<path d="M93.4934 12.2632H95.9318V14.7157H93.4934V12.2632Z" fill="#F4D7D7"/>
<path d="M88.6171 14.7175H91.0551V17.1697H88.6171V14.7175Z" fill="#F4D7D7"/>
<path d="M91.0554 14.7175H93.4938V17.1697H91.0554V14.7175Z" fill="#F4D7D7"/>
<path d="M95.9318 14.7175H98.3701V17.1697H95.9318V14.7175Z" fill="#F4D7D7"/>
<path d="M98.3701 14.7175H100.808V17.1697H98.3701V14.7175Z" fill="#F4D7D7"/>
<path d="M100.808 14.7175H103.247V17.1697H100.808V14.7175Z" fill="#F4D7D7"/>
<path d="M93.4934 14.7172H95.9318V17.1694H93.4934V14.7172Z" fill="#F4D7D7"/>
<path d="M86.1791 17.1638H88.6174V19.616H86.1791V17.1638Z" fill="#F4D7D7"/>
<path d="M88.6171 17.1638H91.0551V19.616H88.6171V17.1638Z" fill="#F4D7D7"/>
<path d="M91.0554 17.1638H93.4938V19.616H91.0554V17.1638Z" fill="#F4D7D7"/>
<path d="M95.9318 17.1638H98.3701V19.616H95.9318V17.1638Z" fill="#F4D7D7"/>
<path d="M93.4934 17.1635H95.9318V19.6156H93.4934V17.1635Z" fill="#F4D7D7"/>
<path d="M86.1791 19.6183H88.6174V22.0705H86.1791V19.6183Z" fill="#F4D7D7"/>
<path d="M88.6171 19.6183H91.0551V22.0705H88.6171V19.6183Z" fill="#F4D7D7"/>
<path d="M91.0554 19.6183H93.4938V22.0705H91.0554V19.6183Z" fill="#F4D7D7"/>
<path d="M93.4934 19.6179H95.9318V22.0701H93.4934V19.6179Z" fill="#F4D7D7"/>
<path d="M83.7404 22.0715H86.1784V24.5241H83.7404V22.0715Z" fill="#F4D7D7"/>
<path d="M86.1791 22.0715H88.6174V24.5241H86.1791V22.0715Z" fill="#F4D7D7"/>
<path d="M88.6171 22.0715H91.0551V24.5241H88.6171V22.0715Z" fill="#F4D7D7"/>
<path d="M91.0554 22.0715H93.4938V24.5241H91.0554V22.0715Z" fill="#F4D7D7"/>
<path d="M83.7404 24.526H86.1784V26.9786H83.7404V24.526Z" fill="#F4D7D7"/>
<path d="M86.1791 24.526H88.6174V26.9786H86.1791V24.526Z" fill="#F4D7D7"/>
<path d="M88.6171 24.526H91.0551V26.9786H88.6171V24.526Z" fill="#F4D7D7"/>
<path d="M81.3024 26.9763H83.7407V29.4285H81.3024V26.9763Z" fill="#F4D7D7"/>
<path d="M83.7404 26.9763H86.1784V29.4285H83.7404V26.9763Z" fill="#F4D7D7"/>
<path d="M86.1791 26.9763H88.6174V29.4285H86.1791V26.9763Z" fill="#F4D7D7"/>
<path d="M81.3024 29.4274H83.7407V31.8796H81.3024V29.4274Z" fill="#F4D7D7"/>
<path d="M83.7404 29.4274H86.1784V31.8796H83.7404V29.4274Z" fill="#F4D7D7"/>
<path d="M81.3024 31.8807H83.7407V34.3329H81.3024V31.8807Z" fill="#F4D7D7"/>
<path d="M37.4136 31.8807H39.8519V34.3329H37.4136V31.8807Z" fill="#F4D7D7"/>
<path d="M39.853 31.8807H42.2914V34.3329H39.853V31.8807Z" fill="#F4D7D7"/>
<path d="M44.7294 31.8807H47.1674V34.3329H44.7294V31.8807Z" fill="#F4D7D7"/>
<path d="M47.1674 31.8807H49.6054V34.3329H47.1674V31.8807Z" fill="#F4D7D7"/>
<path d="M49.605 31.8807H52.0434V34.3329H49.605V31.8807Z" fill="#F4D7D7"/>
<path d="M52.0437 31.8807H54.4817V34.3329H52.0437V31.8807Z" fill="#F4D7D7"/>
<path d="M42.291 31.8804H44.7294V34.3326H42.291V31.8804Z" fill="#F4D7D7"/>
<path d="M32.5376 34.3347H34.976V36.7869H32.5376V34.3347Z" fill="#F4D7D7"/>
<path d="M34.9756 34.3347H37.414V36.7869H34.9756V34.3347Z" fill="#F4D7D7"/>
<path d="M37.4136 34.3347H39.8519V36.7869H37.4136V34.3347Z" fill="#F4D7D7"/>
<path d="M52.0437 34.3347H54.4817V36.7869H52.0437V34.3347Z" fill="#F4D7D7"/>
<path d="M54.4821 34.3344H56.9204V36.7865H54.4821V34.3344Z" fill="#F4D7D7"/>
<path d="M30.0995 36.7874H32.5379V39.2395H30.0995V36.7874Z" fill="#F4D7D7"/>
<path d="M32.5376 36.7874H34.976V39.2395H32.5376V36.7874Z" fill="#F4D7D7"/>
<path d="M54.4821 36.787H56.9204V39.2392H54.4821V36.787Z" fill="#F4D7D7"/>
<path d="M30.0995 39.2369H32.5379V41.6895H30.0995V39.2369Z" fill="#F4D7D7"/>
<path d="M83.7415 46.595H86.1798V49.0475H83.7415V46.595Z" fill="white"/>
<path d="M64.236 46.595H66.6743V49.0475H64.236V46.595Z" fill="white"/>
<path d="M81.3024 46.595H83.7407V49.0475H81.3024V46.595Z" fill="black"/>
<path d="M61.7972 46.595H64.2356V49.0475H61.7972V46.595Z" fill="black"/>
<path d="M81.3024 49.0491H83.7407V51.5013H81.3024V49.0491Z" fill="black"/>
<path d="M83.7404 49.0491H86.1787V51.5013H83.7404V49.0491Z" fill="black"/>
<path d="M61.7972 49.0491H64.2356V51.5013H61.7972V49.0491Z" fill="black"/>
<path d="M64.2349 49.0491H66.6732V51.5013H64.2349V49.0491Z" fill="black"/>
<path d="M66.6736 53.9526H69.112V56.4052H66.6736V53.9526Z" fill="black"/>
<path d="M71.5496 53.9526H73.9876V56.4052H71.5496V53.9526Z" fill="black"/>
<path d="M76.427 53.9526H78.865V56.4052H76.427V53.9526Z" fill="black"/>
<path d="M69.1116 56.4064H71.5496V58.8589H69.1116V56.4064Z" fill="black"/>
<path d="M73.9879 56.4064H76.4263V58.8589H73.9879V56.4064Z" fill="black"/>
<path d="M98.3705 2.45398H100.808V4.90654H98.3705V2.45398Z" fill="#ECECEC"/>
<path d="M100.808 2.45398H103.247V4.90654H100.808V2.45398Z" fill="#ECECEC"/>
<path d="M103.247 2.45398H105.685V4.90654H103.247V2.45398Z" fill="#ECECEC"/>
<path d="M105.685 2.45361H108.124V4.90618H105.685V2.45361Z" fill="#ECECEC"/>
<path d="M95.9321 4.90845H98.3701V7.36101H95.9321V4.90845Z" fill="#ECECEC"/>
<path d="M98.3705 4.90845H100.808V7.36101H98.3705V4.90845Z" fill="#ECECEC"/>
<path d="M100.808 4.90845H103.247V7.36101H100.808V4.90845Z" fill="#ECECEC"/>
<path d="M103.247 4.90845H105.685V7.36101H103.247V4.90845Z" fill="#ECECEC"/>
<path d="M93.4938 4.90808H95.9321V7.36064H93.4938V4.90808Z" fill="#ECECEC"/>
<path d="M105.685 4.90808H108.124V7.36064H105.685V4.90808Z" fill="#ECECEC"/>
<path d="M108.123 4.90845H110.562V7.36101H108.123V4.90845Z" fill="#ECECEC"/>
<path d="M88.6174 7.36206H91.0554V9.81462H88.6174V7.36206Z" fill="#ECECEC"/>
<path d="M91.0554 7.36206H93.4934V9.81462H91.0554V7.36206Z" fill="#ECECEC"/>
<path d="M93.4938 7.36169H95.9321V9.81426H93.4938V7.36169Z" fill="#ECECEC"/>
<path d="M105.685 7.36169H108.124V9.81426H105.685V7.36169Z" fill="#ECECEC"/>
<path d="M108.123 7.36206H110.562V9.81462H108.123V7.36206Z" fill="#ECECEC"/>
<path d="M86.1791 9.80872H88.6174V12.2613H86.1791V9.80872Z" fill="#ECECEC"/>
<path d="M88.6174 9.80872H91.0554V12.2613H88.6174V9.80872Z" fill="#ECECEC"/>
<path d="M108.123 9.80872H110.562V12.2613H108.123V9.80872Z" fill="#ECECEC"/>
<path d="M83.7411 12.2625H86.1795V14.715H83.7411V12.2625Z" fill="#ECECEC"/>
<path d="M86.1791 12.2625H88.6174V14.715H86.1791V12.2625Z" fill="#ECECEC"/>
<path d="M108.123 12.2625H110.562V14.715H108.123V12.2625Z" fill="#ECECEC"/>
<path d="M81.3031 14.7168H83.7415V17.169H81.3031V14.7168Z" fill="#ECECEC"/>
<path d="M83.7411 14.7168H86.1795V17.169H83.7411V14.7168Z" fill="#ECECEC"/>
<path d="M105.685 14.7168H108.124V17.169H105.685V14.7168Z" fill="#ECECEC"/>
<path d="M108.123 14.7168H110.562V17.169H108.123V14.7168Z" fill="#ECECEC"/>
<path d="M81.3031 17.1705H83.7415V19.6227H81.3031V17.1705Z" fill="#ECECEC"/>
<path d="M103.247 17.1705H105.685V19.6227H103.247V17.1705Z" fill="#ECECEC"/>
<path d="M105.685 17.1705H108.124V19.6227H105.685V17.1705Z" fill="#ECECEC"/>
<path d="M78.8647 19.6205H81.3031V22.073H78.8647V19.6205Z" fill="#ECECEC"/>
<path d="M81.3031 19.6205H83.7415V22.073H81.3031V19.6205Z" fill="#ECECEC"/>
<path d="M98.3705 19.6205H100.808V22.073H98.3705V19.6205Z" fill="#ECECEC"/>
<path d="M100.808 19.6205H103.247V22.073H100.808V19.6205Z" fill="#ECECEC"/>
<path d="M103.247 19.6205H105.685V22.073H103.247V19.6205Z" fill="#ECECEC"/>
<path d="M37.4147 19.6205H39.853V22.073H37.4147V19.6205Z" fill="#ECECEC"/>
<path d="M39.8527 19.6205H42.291V22.073H39.8527V19.6205Z" fill="#ECECEC"/>
<path d="M44.729 19.6205H47.1674V22.073H44.729V19.6205Z" fill="#ECECEC"/>
<path d="M47.1685 19.6205H49.6068V22.073H47.1685V19.6205Z" fill="#ECECEC"/>
<path d="M49.6064 19.6205H52.0444V22.073H49.6064V19.6205Z" fill="#ECECEC"/>
<path d="M42.2906 19.6201H44.729V22.0727H42.2906V19.6201Z" fill="#ECECEC"/>
<path d="M78.8647 22.0712H81.3031V24.5234H78.8647V22.0712Z" fill="#ECECEC"/>
<path d="M95.9321 22.0712H98.3701V24.5234H95.9321V22.0712Z" fill="#ECECEC"/>
<path d="M98.3705 22.0712H100.808V24.5234H98.3705V22.0712Z" fill="#ECECEC"/>
<path d="M32.5391 22.0712H34.9774V24.5234H32.5391V22.0712Z" fill="#ECECEC"/>
<path d="M34.9771 22.0712H37.4154V24.5234H34.9771V22.0712Z" fill="#ECECEC"/>
<path d="M37.4147 22.0712H39.853V24.5234H37.4147V22.0712Z" fill="#ECECEC"/>
<path d="M39.8527 22.0712H42.291V24.5234H39.8527V22.0712Z" fill="#ECECEC"/>
<path d="M44.729 22.0712H47.1674V24.5234H44.729V22.0712Z" fill="#ECECEC"/>
<path d="M47.1685 22.0712H49.6068V24.5234H47.1685V22.0712Z" fill="#ECECEC"/>
<path d="M49.6064 22.0712H52.0444V24.5234H49.6064V22.0712Z" fill="#ECECEC"/>
<path d="M52.0444 22.0712H54.4828V24.5234H52.0444V22.0712Z" fill="#ECECEC"/>
<path d="M42.2906 22.0712H44.729V24.5234H42.2906V22.0712Z" fill="#ECECEC"/>
<path d="M54.4821 22.0712H56.9204V24.5234H54.4821V22.0712Z" fill="#ECECEC"/>
<path d="M76.4259 24.5253H78.8643V26.9778H76.4259V24.5253Z" fill="#ECECEC"/>
<path d="M78.8647 24.5253H81.3031V26.9778H78.8647V24.5253Z" fill="#ECECEC"/>
<path d="M95.9321 24.5253H98.3701V26.9778H95.9321V24.5253Z" fill="#ECECEC"/>
<path d="M93.4938 24.5249H95.9321V26.9775H93.4938V24.5249Z" fill="#ECECEC"/>
<path d="M30.0991 24.5253H32.5375V26.9778H30.0991V24.5253Z" fill="#ECECEC"/>
<path d="M32.5391 24.5253H34.9774V26.9778H32.5391V24.5253Z" fill="#ECECEC"/>
<path d="M34.9771 24.5253H37.4154V26.9778H34.9771V24.5253Z" fill="#ECECEC"/>
<path d="M37.4147 24.5253H39.853V26.9778H37.4147V24.5253Z" fill="#ECECEC"/>
<path d="M39.8527 24.5253H42.291V26.9778H39.8527V24.5253Z" fill="#ECECEC"/>
<path d="M44.729 24.5253H47.1674V26.9778H44.729V24.5253Z" fill="#ECECEC"/>
<path d="M47.1685 24.5253H49.6068V26.9778H47.1685V24.5253Z" fill="#ECECEC"/>
<path d="M49.6064 24.5253H52.0444V26.9778H49.6064V24.5253Z" fill="#ECECEC"/>
<path d="M52.0444 24.5253H54.4828V26.9778H52.0444V24.5253Z" fill="#ECECEC"/>
<path d="M42.2906 24.5249H44.729V26.9775H42.2906V24.5249Z" fill="#ECECEC"/>
<path d="M54.4821 24.5249H56.9204V26.9775H54.4821V24.5249Z" fill="#ECECEC"/>
<path d="M56.9202 24.5253H59.3585V26.9778H56.9202V24.5253Z" fill="#ECECEC"/>
<path d="M76.4259 26.9792H78.8643V29.4318H76.4259V26.9792Z" fill="#ECECEC"/>
<path d="M91.0554 26.9792H93.4934V29.4318H91.0554V26.9792Z" fill="#ECECEC"/>
<path d="M93.4938 26.9789H95.9321V29.4314H93.4938V26.9789Z" fill="#ECECEC"/>
<path d="M27.6611 26.9792H30.0995V29.4318H27.6611V26.9792Z" fill="#ECECEC"/>
<path d="M30.0991 26.9792H32.5375V29.4318H30.0991V26.9792Z" fill="#ECECEC"/>
<path d="M32.5391 26.9792H34.9774V29.4318H32.5391V26.9792Z" fill="#ECECEC"/>
<path d="M34.9771 26.9792H37.4154V29.4318H34.9771V26.9792Z" fill="#ECECEC"/>
<path d="M37.4147 26.9792H39.853V29.4318H37.4147V26.9792Z" fill="#ECECEC"/>
<path d="M39.8527 26.9792H42.291V29.4318H39.8527V26.9792Z" fill="#ECECEC"/>
<path d="M44.7286 26.9792H47.167V29.4318H44.7286V26.9792Z" fill="#ECECEC"/>
<path d="M47.1685 26.9792H49.6068V29.4318H47.1685V26.9792Z" fill="#ECECEC"/>
<path d="M49.6064 26.9792H52.0444V29.4318H49.6064V26.9792Z" fill="#ECECEC"/>
<path d="M52.0444 26.9792H54.4828V29.4318H52.0444V26.9792Z" fill="#ECECEC"/>
<path d="M42.2906 26.9789H44.729V29.4314H42.2906V26.9789Z" fill="#ECECEC"/>
<path d="M54.4821 26.9789H56.9204V29.4314H54.4821V26.9789Z" fill="#ECECEC"/>
<path d="M56.9202 26.9792H59.3585V29.4318H56.9202V26.9792Z" fill="#ECECEC"/>
<path d="M59.3585 26.9792H61.7969V29.4318H59.3585V26.9792Z" fill="#ECECEC"/>
<path d="M76.4259 29.4315H78.8643V31.8841H76.4259V29.4315Z" fill="#ECECEC"/>
<path d="M88.6174 29.4315H91.0554V31.8841H88.6174V29.4315Z" fill="#ECECEC"/>
<path d="M91.0554 29.4315H93.4934V31.8841H91.0554V29.4315Z" fill="#ECECEC"/>
<path d="M25.2231 29.4315H27.6615V31.8841H25.2231V29.4315Z" fill="#ECECEC"/>
<path d="M27.6611 29.4315H30.0995V31.8841H27.6611V29.4315Z" fill="#ECECEC"/>
<path d="M30.0991 29.4315H32.5375V31.8841H30.0991V29.4315Z" fill="#ECECEC"/>
<path d="M32.5391 29.4315H34.9774V31.8841H32.5391V29.4315Z" fill="#ECECEC"/>
<path d="M34.9771 29.4315H37.4154V31.8841H34.9771V29.4315Z" fill="#ECECEC"/>
<path d="M54.4821 29.4312H56.9204V31.8837H54.4821V29.4312Z" fill="#ECECEC"/>
<path d="M56.9202 29.4315H59.3585V31.8841H56.9202V29.4315Z" fill="#ECECEC"/>
<path d="M59.3585 29.4315H61.7969V31.8841H59.3585V29.4315Z" fill="#ECECEC"/>
<path d="M61.7972 29.4315H64.2356V31.8841H61.7972V29.4315Z" fill="#ECECEC"/>
<path d="M73.9879 31.8822H76.4263V34.3344H73.9879V31.8822Z" fill="#ECECEC"/>
<path d="M76.4259 31.8822H78.8643V34.3344H76.4259V31.8822Z" fill="#ECECEC"/>
<path d="M86.1791 31.8822H88.6174V34.3344H86.1791V31.8822Z" fill="#ECECEC"/>
<path d="M88.6174 31.8822H91.0554V34.3344H88.6174V31.8822Z" fill="#ECECEC"/>
<path d="M25.2231 31.8822H27.6615V34.3344H25.2231V31.8822Z" fill="#ECECEC"/>
<path d="M27.6611 31.8822H30.0995V34.3344H27.6611V31.8822Z" fill="#ECECEC"/>
<path d="M30.0991 31.8822H32.5375V34.3344H30.0991V31.8822Z" fill="#ECECEC"/>
<path d="M56.9202 31.8822H59.3585V34.3344H56.9202V31.8822Z" fill="#ECECEC"/>
<path d="M59.3585 31.8822H61.7969V34.3344H59.3585V31.8822Z" fill="#ECECEC"/>
<path d="M61.7972 31.8822H64.2356V34.3344H61.7972V31.8822Z" fill="#ECECEC"/>
<path d="M64.2356 31.8822H66.674V34.3344H64.2356V31.8822Z" fill="#ECECEC"/>
<path d="M66.6736 34.3347H69.1116V36.7869H66.6736V34.3347Z" fill="#ECECEC"/>
<path d="M69.1116 34.3347H71.5496V36.7869H69.1116V34.3347Z" fill="#ECECEC"/>
<path d="M71.5496 34.3347H73.9879V36.7869H71.5496V34.3347Z" fill="#ECECEC"/>
<path d="M73.9879 34.3347H76.4263V36.7869H73.9879V34.3347Z" fill="#ECECEC"/>
<path d="M76.4259 34.3347H78.8643V36.7869H76.4259V34.3347Z" fill="#ECECEC"/>
<path d="M78.8647 34.3347H81.3031V36.7869H78.8647V34.3347Z" fill="#ECECEC"/>
<path d="M83.7411 34.3347H86.1795V36.7869H83.7411V34.3347Z" fill="#ECECEC"/>
<path d="M86.1791 34.3347H88.6174V36.7869H86.1791V34.3347Z" fill="#ECECEC"/>
<path d="M22.7855 34.3347H25.2239V36.7869H22.7855V34.3347Z" fill="#ECECEC"/>
<path d="M25.2231 34.3347H27.6615V36.7869H25.2231V34.3347Z" fill="#ECECEC"/>
<path d="M27.6611 34.3347H30.0995V36.7869H27.6611V34.3347Z" fill="#ECECEC"/>
<path d="M59.3585 34.3347H61.7969V36.7869H59.3585V34.3347Z" fill="#ECECEC"/>
<path d="M61.7972 34.3347H64.2356V36.7869H61.7972V34.3347Z" fill="#ECECEC"/>
<path d="M64.2356 34.3347H66.674V36.7869H64.2356V34.3347Z" fill="#ECECEC"/>
<path d="M66.6736 36.7877H69.1116V39.2399H66.6736V36.7877Z" fill="#ECECEC"/>
<path d="M69.1116 36.7877H71.5496V39.2399H69.1116V36.7877Z" fill="#ECECEC"/>
<path d="M71.5496 36.7877H73.9879V39.2399H71.5496V36.7877Z" fill="#ECECEC"/>
<path d="M73.9879 36.7877H76.4263V39.2399H73.9879V36.7877Z" fill="#ECECEC"/>
<path d="M76.4259 36.7877H78.8643V39.2399H76.4259V36.7877Z" fill="#ECECEC"/>
<path d="M78.8647 36.7877H81.3031V39.2399H78.8647V36.7877Z" fill="#ECECEC"/>
<path d="M81.3031 36.7877H83.7415V39.2399H81.3031V36.7877Z" fill="#ECECEC"/>
<path d="M83.7411 36.7877H86.1795V39.2399H83.7411V36.7877Z" fill="#ECECEC"/>
<path d="M22.7855 36.7877H25.2239V39.2399H22.7855V36.7877Z" fill="#ECECEC"/>
<path d="M25.2235 36.7877H27.6619V39.2399H25.2235V36.7877Z" fill="#ECECEC"/>
<path d="M56.9202 36.7877H59.3585V39.2399H56.9202V36.7877Z" fill="#ECECEC"/>
<path d="M59.3585 36.7877H61.7969V39.2399H59.3585V36.7877Z" fill="#ECECEC"/>
<path d="M61.7972 36.7877H64.2356V39.2399H61.7972V36.7877Z" fill="#ECECEC"/>
<path d="M64.2356 36.7877H66.674V39.2399H64.2356V36.7877Z" fill="#ECECEC"/>
<path d="M66.6736 39.2399H69.1116V41.6921H66.6736V39.2399Z" fill="#ECECEC"/>
<path d="M69.1116 39.2399H71.5496V41.6921H69.1116V39.2399Z" fill="#ECECEC"/>
<path d="M71.5496 39.2399H73.9879V41.6921H71.5496V39.2399Z" fill="#ECECEC"/>
<path d="M73.9879 39.2399H76.4263V41.6921H73.9879V39.2399Z" fill="#ECECEC"/>
<path d="M76.4259 39.2399H78.8643V41.6921H76.4259V39.2399Z" fill="#ECECEC"/>
<path d="M78.8647 39.2399H81.3031V41.6921H78.8647V39.2399Z" fill="#ECECEC"/>
<path d="M81.3031 39.2399H83.7415V41.6921H81.3031V39.2399Z" fill="#ECECEC"/>
<path d="M83.7411 39.2399H86.1795V41.6921H83.7411V39.2399Z" fill="#ECECEC"/>
<path d="M86.1791 39.2399H88.6174V41.6921H86.1791V39.2399Z" fill="#ECECEC"/>
<path d="M22.7855 39.2399H25.2239V41.6921H22.7855V39.2399Z" fill="#ECECEC"/>
<path d="M25.2231 39.2399H27.6615V41.6921H25.2231V39.2399Z" fill="#ECECEC"/>
<path d="M56.9202 39.2399H59.3585V41.6921H56.9202V39.2399Z" fill="#ECECEC"/>
<path d="M59.3585 39.2399H61.7969V41.6921H59.3585V39.2399Z" fill="#ECECEC"/>
<path d="M61.7972 39.2399H64.2356V41.6921H61.7972V39.2399Z" fill="#ECECEC"/>
<path d="M64.2356 39.2399H66.674V41.6921H64.2356V39.2399Z" fill="#ECECEC"/>
<path d="M66.6736 41.692H69.1116V44.1442H66.6736V41.692Z" fill="#ECECEC"/>
<path d="M69.1116 41.692H71.5496V44.1442H69.1116V41.692Z" fill="#ECECEC"/>
<path d="M71.5496 41.692H73.9879V44.1442H71.5496V41.692Z" fill="#ECECEC"/>
<path d="M73.9879 41.692H76.4263V44.1442H73.9879V41.692Z" fill="#ECECEC"/>
<path d="M76.4259 41.692H78.8643V44.1442H76.4259V41.692Z" fill="#ECECEC"/>
<path d="M78.8647 41.692H81.3031V44.1442H78.8647V41.692Z" fill="#ECECEC"/>
<path d="M81.3031 41.692H83.7415V44.1442H81.3031V41.692Z" fill="#ECECEC"/>
<path d="M83.7411 41.692H86.1795V44.1442H83.7411V41.692Z" fill="#ECECEC"/>
<path d="M86.1791 41.692H88.6174V44.1442H86.1791V41.692Z" fill="#ECECEC"/>
<path d="M88.6174 41.692H91.0554V44.1442H88.6174V41.692Z" fill="#ECECEC"/>
<path d="M22.7855 41.692H25.2239V44.1442H22.7855V41.692Z" fill="#ECECEC"/>
<path d="M25.2235 41.692H27.6619V44.1442H25.2235V41.692Z" fill="#ECECEC"/>
<path d="M27.6611 41.692H30.0995V44.1442H27.6611V41.692Z" fill="#ECECEC"/>
<path d="M54.4821 41.692H56.9204V44.1442H54.4821V41.692Z" fill="#ECECEC"/>
<path d="M56.9202 41.692H59.3585V44.1442H56.9202V41.692Z" fill="#ECECEC"/>
<path d="M59.3585 41.692H61.7969V44.1442H59.3585V41.692Z" fill="#ECECEC"/>
<path d="M61.7972 41.692H64.2356V44.1442H61.7972V41.692Z" fill="#ECECEC"/>
<path d="M64.2356 41.692H66.674V44.1442H64.2356V41.692Z" fill="#ECECEC"/>
<path d="M66.6736 44.1447H69.1116V46.5968H66.6736V44.1447Z" fill="#ECECEC"/>
<path d="M69.1116 44.1447H71.5496V46.5968H69.1116V44.1447Z" fill="#ECECEC"/>
<path d="M71.5496 44.1447H73.9879V46.5968H71.5496V44.1447Z" fill="#ECECEC"/>
<path d="M73.9879 44.1447H76.4263V46.5968H73.9879V44.1447Z" fill="#ECECEC"/>
<path d="M76.4259 44.1447H78.8643V46.5968H76.4259V44.1447Z" fill="#ECECEC"/>
<path d="M78.8647 44.1447H81.3031V46.5968H78.8647V44.1447Z" fill="#ECECEC"/>
<path d="M81.3031 44.1447H83.7415V46.5968H81.3031V44.1447Z" fill="#ECECEC"/>
<path d="M83.7411 44.1447H86.1795V46.5968H83.7411V44.1447Z" fill="#ECECEC"/>
<path d="M86.1791 44.1447H88.6174V46.5968H86.1791V44.1447Z" fill="#ECECEC"/>
<path d="M88.6174 44.1447H91.0554V46.5968H88.6174V44.1447Z" fill="#ECECEC"/>
<path d="M54.4821 44.1443H56.9204V46.5965H54.4821V44.1443Z" fill="#ECECEC"/>
<path d="M56.9202 44.1447H59.3585V46.5968H56.9202V44.1447Z" fill="#ECECEC"/>
<path d="M59.3585 44.1447H61.7969V46.5968H59.3585V44.1447Z" fill="#ECECEC"/>
<path d="M61.7972 44.1447H64.2356V46.5968H61.7972V44.1447Z" fill="#ECECEC"/>
<path d="M64.2356 44.1447H66.674V46.5968H64.2356V44.1447Z" fill="#ECECEC"/>
<path d="M66.6736 46.5964H69.1116V49.0486H66.6736V46.5964Z" fill="#ECECEC"/>
<path d="M69.1116 46.5964H71.5496V49.0486H69.1116V46.5964Z" fill="#ECECEC"/>
<path d="M71.5496 46.5964H73.9879V49.0486H71.5496V46.5964Z" fill="#ECECEC"/>
<path d="M73.9879 46.5964H76.4263V49.0486H73.9879V46.5964Z" fill="#ECECEC"/>
<path d="M76.4259 46.5964H78.8643V49.0486H76.4259V46.5964Z" fill="#ECECEC"/>
<path d="M78.8647 46.5964H81.3031V49.0486H78.8647V46.5964Z" fill="#ECECEC"/>
<path d="M86.1791 46.5964H88.6174V49.0486H86.1791V46.5964Z" fill="#ECECEC"/>
<path d="M88.6174 46.5964H91.0554V49.0486H88.6174V46.5964Z" fill="#ECECEC"/>
<path d="M91.0554 46.5964H93.4934V49.0486H91.0554V46.5964Z" fill="#ECECEC"/>
<path d="M52.0444 46.5964H54.4828V49.0486H52.0444V46.5964Z" fill="#ECECEC"/>
<path d="M54.4824 46.5964H56.9208V49.0486H54.4824V46.5964Z" fill="#ECECEC"/>
<path d="M56.9202 46.5964H59.3585V49.0486H56.9202V46.5964Z" fill="#ECECEC"/>
<path d="M59.3585 46.5964H61.7969V49.0486H59.3585V46.5964Z" fill="#ECECEC"/>
<path d="M66.6736 49.0505H69.1116V51.5027H66.6736V49.0505Z" fill="#ECECEC"/>
<path d="M69.1116 49.0505H71.5496V51.5027H69.1116V49.0505Z" fill="#ECECEC"/>
<path d="M71.5496 49.0505H73.9879V51.5027H71.5496V49.0505Z" fill="#ECECEC"/>
<path d="M73.9879 49.0505H76.4263V51.5027H73.9879V49.0505Z" fill="#ECECEC"/>
<path d="M76.4259 49.0505H78.8643V51.5027H76.4259V49.0505Z" fill="#ECECEC"/>
<path d="M78.8647 49.0505H81.3031V51.5027H78.8647V49.0505Z" fill="#ECECEC"/>
<path d="M86.1791 49.0505H88.6174V51.5027H86.1791V49.0505Z" fill="#ECECEC"/>
<path d="M88.6174 49.0505H91.0554V51.5027H88.6174V49.0505Z" fill="#ECECEC"/>
<path d="M91.0554 49.0505H93.4934V51.5027H91.0554V49.0505Z" fill="#ECECEC"/>
<path d="M52.0444 49.0505H54.4828V51.5027H52.0444V49.0505Z" fill="#ECECEC"/>
<path d="M54.4821 49.0502H56.9204V51.5024H54.4821V49.0502Z" fill="#ECECEC"/>
<path d="M56.9202 49.0505H59.3585V51.5027H56.9202V49.0505Z" fill="#ECECEC"/>
<path d="M59.3585 49.0505H61.7969V51.5027H59.3585V49.0505Z" fill="#ECECEC"/>
<path d="M66.6736 51.502H69.1116V53.9541H66.6736V51.502Z" fill="#ECECEC"/>
<path d="M69.1116 51.5021H71.5496V53.9543H69.1116V51.5021Z" fill="#ECECEC"/>
<path d="M70.6885 51.5021H73.1265V53.9543H70.6885V51.5021Z" fill="#ECECEC"/>
<path d="M72.6963 51.2552H76.5567V53.9519H72.6963V51.2552Z" fill="#ECECEC"/>
<path d="M76.4259 51.502H78.8643V53.9541H76.4259V51.502Z" fill="#ECECEC"/>
<path d="M78.8647 51.502H81.3031V53.9541H78.8647V51.502Z" fill="#ECECEC"/>
<path d="M81.3031 51.502H83.7415V53.9541H81.3031V51.502Z" fill="#ECECEC"/>
<path d="M83.7411 51.502H86.1795V53.9541H83.7411V51.502Z" fill="#ECECEC"/>
<path d="M86.1791 51.502H88.6174V53.9541H86.1791V51.502Z" fill="#F0B3B2"/>
<path d="M88.6174 51.502H91.0554V53.9541H88.6174V51.502Z" fill="#F0B3B2"/>
<path d="M91.0554 51.502H93.4934V53.9541H91.0554V51.502Z" fill="#ECECEC"/>
<path d="M52.0444 51.502H54.4828V53.9541H52.0444V51.502Z" fill="#ECECEC"/>
<path d="M54.4821 51.502H56.9204V53.9541H54.4821V51.502Z" fill="#F0B3B2"/>
<path d="M56.9202 51.502H59.3585V53.9541H56.9202V51.502Z" fill="#F0B3B2"/>
<path d="M59.3585 51.502H61.7969V53.9541H59.3585V51.502Z" fill="#ECECEC"/>
<path d="M61.7972 51.502H64.2356V53.9541H61.7972V51.502Z" fill="#ECECEC"/>
<path d="M64.2356 51.502H66.674V53.9541H64.2356V51.502Z" fill="#ECECEC"/>
<path d="M69.1116 53.9541H71.5496V56.4063H69.1116V53.9541Z" fill="#ECECEC"/>
<path d="M73.9879 53.9541H76.4263V56.4063H73.9879V53.9541Z" fill="#ECECEC"/>
<path d="M78.8647 53.9541H81.3031V56.4063H78.8647V53.9541Z" fill="#ECECEC"/>
<path d="M81.3031 53.9541H83.7415V56.4063H81.3031V53.9541Z" fill="#ECECEC"/>
<path d="M83.7411 53.9541H86.1795V56.4063H83.7411V53.9541Z" fill="#ECECEC"/>
<path d="M86.1791 53.9541H88.6174V56.4063H86.1791V53.9541Z" fill="#F0B3B2"/>
<path d="M88.6174 53.9541H91.0554V56.4063H88.6174V53.9541Z" fill="#F0B3B2"/>
<path d="M91.0554 53.9541H93.4934V56.4063H91.0554V53.9541Z" fill="#ECECEC"/>
<path d="M52.0444 53.9541H54.4828V56.4063H52.0444V53.9541Z" fill="#ECECEC"/>
<path d="M54.4821 53.9537H56.9204V56.4059H54.4821V53.9537Z" fill="#F0B3B2"/>
<path d="M56.9202 53.9541H59.3585V56.4063H56.9202V53.9541Z" fill="#F0B3B2"/>
<path d="M59.3585 53.9541H61.7969V56.4063H59.3585V53.9541Z" fill="#ECECEC"/>
<path d="M61.7972 53.9541H64.2356V56.4063H61.7972V53.9541Z" fill="#ECECEC"/>
<path d="M64.2356 53.9541H66.674V56.4063H64.2356V53.9541Z" fill="#ECECEC"/>
<path d="M66.6736 56.4067H69.1116V58.8593H66.6736V56.4067Z" fill="#ECECEC"/>
<path d="M71.5496 56.4067H73.9879V58.8593H71.5496V56.4067Z" fill="#ECECEC"/>
<path d="M76.4259 56.4067H78.8643V58.8593H76.4259V56.4067Z" fill="#ECECEC"/>
<path d="M78.8647 56.4067H81.3031V58.8593H78.8647V56.4067Z" fill="#ECECEC"/>
<path d="M81.3031 56.4067H83.7415V58.8593H81.3031V56.4067Z" fill="#ECECEC"/>
<path d="M83.7411 56.4067H86.1795V58.8593H83.7411V56.4067Z" fill="#ECECEC"/>
<path d="M86.1791 56.4067H88.6174V58.8593H86.1791V56.4067Z" fill="#ECECEC"/>
<path d="M88.6174 56.4067H91.0554V58.8593H88.6174V56.4067Z" fill="#ECECEC"/>
<path d="M52.0444 56.4067H54.4828V58.8593H52.0444V56.4067Z" fill="#ECECEC"/>
<path d="M54.4821 56.4064H56.9204V58.8589H54.4821V56.4064Z" fill="#ECECEC"/>
<path d="M56.9202 56.4067H59.3585V58.8593H56.9202V56.4067Z" fill="#ECECEC"/>
<path d="M59.3585 56.4067H61.7969V58.8593H59.3585V56.4067Z" fill="#ECECEC"/>
<path d="M61.7972 56.4067H64.2356V58.8593H61.7972V56.4067Z" fill="#ECECEC"/>
<path d="M64.2356 56.4067H66.674V58.8593H64.2356V56.4067Z" fill="#ECECEC"/>
<path d="M66.6736 58.8589H69.1116V61.3115H66.6736V58.8589Z" fill="#ECECEC"/>
<path d="M69.1116 58.8589H71.5496V61.3115H69.1116V58.8589Z" fill="#ECECEC"/>
<path d="M71.5496 58.8589H73.9879V61.3115H71.5496V58.8589Z" fill="#ECECEC"/>
<path d="M73.9879 58.8589H76.4263V61.3115H73.9879V58.8589Z" fill="#ECECEC"/>
<path d="M76.4259 58.8589H78.8643V61.3115H76.4259V58.8589Z" fill="#ECECEC"/>
<path d="M78.8647 58.8589H81.3031V61.3115H78.8647V58.8589Z" fill="#ECECEC"/>
<path d="M81.3031 58.8589H83.7415V61.3115H81.3031V58.8589Z" fill="#ECECEC"/>
<path d="M83.7411 58.8589H86.1795V61.3115H83.7411V58.8589Z" fill="#ECECEC"/>
<path d="M86.1791 58.8589H88.6174V61.3115H86.1791V58.8589Z" fill="#ECECEC"/>
<path d="M54.4821 58.8589H56.9204V61.3115H54.4821V58.8589Z" fill="#ECECEC"/>
<path d="M56.9202 58.8589H59.3585V61.3115H56.9202V58.8589Z" fill="#ECECEC"/>
<path d="M59.3585 58.8589H61.7969V61.3115H59.3585V58.8589Z" fill="#ECECEC"/>
<path d="M61.7972 58.8589H64.2356V61.3115H61.7972V58.8589Z" fill="#ECECEC"/>
<path d="M64.2356 58.8589H66.674V61.3115H64.2356V58.8589Z" fill="#ECECEC"/>
<path d="M66.6736 61.3115H69.1116V63.7641H66.6736V61.3115Z" fill="#ECECEC"/>
<path d="M69.1116 61.3115H71.5496V63.7641H69.1116V61.3115Z" fill="#ECECEC"/>
<path d="M71.5496 61.3115H73.9879V63.7641H71.5496V61.3115Z" fill="#ECECEC"/>
<path d="M73.9879 61.3115H76.4263V63.7641H73.9879V61.3115Z" fill="#ECECEC"/>
<path d="M76.4259 61.3115H78.8643V63.7641H76.4259V61.3115Z" fill="#ECECEC"/>
<path d="M78.8647 61.3115H81.3031V63.7641H78.8647V61.3115Z" fill="#ECECEC"/>
<path d="M81.3031 61.3115H83.7415V63.7641H81.3031V61.3115Z" fill="#ECECEC"/>
<path d="M59.3585 61.3115H61.7969V63.7641H59.3585V61.3115Z" fill="#ECECEC"/>
<path d="M61.7972 61.3115H64.2356V63.7641H61.7972V61.3115Z" fill="#ECECEC"/>
<path d="M64.2356 61.3115H66.674V63.7641H64.2356V61.3115Z" fill="#ECECEC"/>
<path d="M98.3708 0.000366211H100.809V2.45293H98.3708V0.000366211Z" fill="black"/>
<path d="M100.809 0.000366211H103.247V2.45293H100.809V0.000366211Z" fill="black"/>
<path d="M103.247 0.000366211H105.685V2.45293H103.247V0.000366211Z" fill="black"/>
<path d="M105.685 0H108.124V2.45256H105.685V0Z" fill="black"/>
<path d="M95.9325 2.45398H98.3705V4.90654H95.9325V2.45398Z" fill="black"/>
<path d="M93.4941 2.45361H95.9321V4.90618H93.4941V2.45361Z" fill="black"/>
<path d="M108.123 2.45398H110.562V4.90654H108.123V2.45398Z" fill="black"/>
<path d="M88.6174 4.90845H91.0554V7.36101H88.6174V4.90845Z" fill="black"/>
<path d="M91.0558 4.90845H93.4938V7.36101H91.0558V4.90845Z" fill="black"/>
<path d="M110.562 4.90845H113V7.36101H110.562V4.90845Z" fill="black"/>
<path d="M86.1794 7.35474H88.6178V9.8073H86.1794V7.35474Z" fill="black"/>
<path d="M110.562 7.35474H113V9.8073H110.562V7.35474Z" fill="black"/>
<path d="M83.7411 9.80872H86.1795V12.2613H83.7411V9.80872Z" fill="black"/>
<path d="M110.562 9.80872H113V12.2613H110.562V9.80872Z" fill="black"/>
<path d="M81.3035 12.2625H83.7415V14.715H81.3035V12.2625Z" fill="black"/>
<path d="M110.562 12.2625H113V14.715H110.562V12.2625Z" fill="black"/>
<path d="M78.8647 14.7168H81.3031V17.169H78.8647V14.7168Z" fill="black"/>
<path d="M110.562 14.7168H113V17.169H110.562V14.7168Z" fill="black"/>
<path d="M78.8647 17.1665H81.3031V19.6191H78.8647V17.1665Z" fill="black"/>
<path d="M108.123 17.1665H110.562V19.6191H108.123V17.1665Z" fill="black"/>
<path d="M76.4266 19.6183H78.865V22.0705H76.4266V19.6183Z" fill="black"/>
<path d="M105.685 19.6176H108.124V22.0697H105.685V19.6176Z" fill="black"/>
<path d="M76.4266 22.0708H78.865V24.523H76.4266V22.0708Z" fill="black"/>
<path d="M100.809 22.0708H103.247V24.523H100.809V22.0708Z" fill="black"/>
<path d="M103.247 22.0708H105.685V24.523H103.247V22.0708Z" fill="black"/>
<path d="M73.9879 24.5253H76.4263V26.9778H73.9879V24.5253Z" fill="black"/>
<path d="M98.3708 24.5253H100.809V26.9778H98.3708V24.5253Z" fill="black"/>
<path d="M73.9879 26.9771H76.4263V29.4292H73.9879V26.9771Z" fill="black"/>
<path d="M95.9325 26.9771H98.3705V29.4292H95.9325V26.9771Z" fill="black"/>
<path d="M73.9879 29.4281H76.4263V31.8803H73.9879V29.4281Z" fill="black"/>
<path d="M93.4941 29.4274H95.9321V31.8796H93.4941V29.4274Z" fill="black"/>
<path d="M91.0558 31.8807H93.4938V34.3329H91.0558V31.8807Z" fill="black"/>
<path d="M88.6174 34.3336H91.0554V36.7858H88.6174V34.3336Z" fill="black"/>
<path d="M37.415 17.1665H39.8534V19.6191H37.415V17.1665Z" fill="black"/>
<path d="M39.8527 17.1665H42.291V19.6191H39.8527V17.1665Z" fill="black"/>
<path d="M44.7305 17.1665H47.1688V19.6191H44.7305V17.1665Z" fill="black"/>
<path d="M47.1685 17.1665H49.6068V19.6191H47.1685V17.1665Z" fill="black"/>
<path d="M49.6064 17.1665H52.0444V19.6191H49.6064V17.1665Z" fill="black"/>
<path d="M42.291 17.1665H44.7294V19.6191H42.291V17.1665Z" fill="black"/>
<path d="M32.5391 19.6205H34.9774V22.073H32.5391V19.6205Z" fill="black"/>
<path d="M34.9771 19.6205H37.4154V22.073H34.9771V19.6205Z" fill="black"/>
<path d="M52.0444 19.6205H54.4824V22.073H52.0444V19.6205Z" fill="black"/>
<path d="M54.4821 19.6205H56.9204V22.073H54.4821V19.6205Z" fill="black"/>
<path d="M30.101 22.0746H32.539V24.5268H30.101V22.0746Z" fill="black"/>
<path d="M56.9205 22.0746H59.3589V24.5268H56.9205V22.0746Z" fill="black"/>
<path d="M27.6611 24.5212H30.0995V26.9734H27.6611V24.5212Z" fill="black"/>
<path d="M59.3593 24.5212H61.7976V26.9734H59.3593V24.5212Z" fill="black"/>
<path d="M25.2235 26.9749H27.6619V29.427H25.2235V26.9749Z" fill="black"/>
<path d="M61.7976 26.9749H64.236V29.427H61.7976V26.9749Z" fill="black"/>
<path d="M22.7855 29.4293H25.2239V31.8815H22.7855V29.4293Z" fill="black"/>
<path d="M64.2356 29.4293H66.674V31.8815H64.2356V29.4293Z" fill="black"/>
<path d="M66.6736 31.8829H69.112V34.3355H66.6736V31.8829Z" fill="black"/>
<path d="M69.1116 31.8829H71.5499V34.3355H69.1116V31.8829Z" fill="black"/>
<path d="M71.5499 31.8829H73.9883V34.3355H71.5499V31.8829Z" fill="black"/>
<path d="M22.7855 31.8829H25.2239V34.3355H22.7855V31.8829Z" fill="black"/>
<path d="M20.3475 34.3333H22.7859V36.7854H20.3475V34.3333Z" fill="black"/>
<path d="M39.8527 34.3333H42.291V36.7854H39.8527V34.3333Z" fill="black"/>
<path d="M44.7305 34.3333H47.1688V36.7854H44.7305V34.3333Z" fill="black"/>
<path d="M47.1685 34.3333H49.6068V36.7854H47.1685V34.3333Z" fill="black"/>
<path d="M49.6064 34.3333H52.0444V36.7854H49.6064V34.3333Z" fill="black"/>
<path d="M42.291 34.3329H44.7294V36.7851H42.291V34.3329Z" fill="black"/>
<path d="M20.3475 36.7848H22.7859V39.237H20.3475V36.7848Z" fill="black"/>
<path d="M34.9771 36.7848H37.4154V39.237H34.9771V36.7848Z" fill="black"/>
<path d="M37.415 36.7848H39.8534V39.237H37.415V36.7848Z" fill="black"/>
<path d="M52.0444 36.7848H54.4824V39.237H52.0444V36.7848Z" fill="black"/>
<path d="M20.3475 39.2377H22.7859V41.6899H20.3475V39.2377Z" fill="black"/>
<path d="M32.5391 39.2377H34.9774V41.6899H32.5391V39.2377Z" fill="black"/>
<path d="M20.3475 41.6913H22.7859V44.1435H20.3475V41.6913Z" fill="black"/>
<path d="M30.101 41.6913H32.539V44.1435H30.101V41.6913Z" fill="black"/>
<path d="M22.7855 44.1439H25.2239V46.5961H22.7855V44.1439Z" fill="black"/>
<path d="M25.2235 44.1439H27.6619V46.5961H25.2235V44.1439Z" fill="black"/>
<path d="M27.6611 44.1439H30.0995V46.5961H27.6611V44.1439Z" fill="black"/>
<path fill-rule="evenodd" clip-rule="evenodd" d="M86.179 36.7859H88.6174V39.2381H86.179V36.7859ZM88.6174 39.2399H91.0554V41.6921H88.6174V39.2399ZM56.9204 39.2399H54.4821V41.6921H56.9204V39.2399ZM91.0561 41.6936H93.4945V44.1403V44.1458V46.5928H91.0561V44.1458V44.1403V41.6936ZM54.4824 41.6936H52.0444V44.1403V44.1458V46.5928H54.4824V44.1458V44.1403V41.6936ZM93.4945 46.5939H95.9329V49.0465H93.4945V46.5939ZM52.0448 46.5943H49.6064V49.0469H52.0448V46.5943ZM93.4945 49.0483H95.9329V51.5009H93.4945V49.0483ZM52.0448 49.0487H49.6064V51.5009H52.0448V49.0487ZM93.4945 51.502H95.9329V53.9509V53.9546V56.4034H93.4949V58.8556H91.0565V56.4034H93.4945V53.9546V53.9509V51.502ZM52.0448 51.5024H49.6064V53.952V53.9549V56.4034V56.4045V58.8556H52.0448V56.4045V56.4034V53.9549V53.952V51.5024ZM88.6174 58.8567H91.0554V61.3093H88.6174V58.8567ZM54.4824 58.8567H52.0444V61.3093H54.4824V58.8567ZM83.7407 61.3104H86.179H88.6174V63.763H86.179H84.432V66.7872H81.3438V63.681H83.741V61.3104H83.7407ZM54.4821 61.31H56.9204V61.3108H59.3584V63.7633H56.9201V63.7626H54.4821V61.31ZM66.6739 63.7633H69.1112H71.5495H73.9875V66.2159H71.5495H69.1115H66.6739H66.6735H64.2359H64.2355H61.7979H61.7975H59.3595V63.7633H61.7975H61.7979H64.2355H64.2359H66.6735H66.6739ZM76.4267 63.7633H73.9883V66.2159H76.4267V63.7633ZM76.4274 63.7633H78.8654V63.8365H81.3034V66.2886H78.865V66.2155H76.427L76.4274 63.7633Z" fill="black"/>
<path d="M24.3622 63.6809H21.2739V66.7871H24.3622V63.6809Z" fill="black"/>
<path d="M27.4508 63.6809H24.3625V66.7871H27.4508V63.6809Z" fill="black"/>
<path d="M30.5391 63.6809H27.4508V66.7871H30.5391V63.6809Z" fill="black"/>
<path d="M33.6277 63.6809H30.5394V66.7871H33.6277V63.6809Z" fill="black"/>
<path d="M36.7159 63.6809H33.6277V66.7871H36.7159V63.6809Z" fill="black"/>
<path d="M39.8042 63.6809H36.7159V66.7871H39.8042V63.6809Z" fill="black"/>
<path d="M42.8928 63.6809H39.8046V66.7871H42.8928V63.6809Z" fill="black"/>
<path d="M45.9811 63.6809H42.8928V66.7871H45.9811V63.6809Z" fill="black"/>
<path d="M49.0697 63.6809H45.9814V66.7871H49.0697V63.6809Z" fill="black"/>
<path d="M52.158 63.6809H49.0697V66.7871H52.158V63.6809Z" fill="black"/>
<path d="M55.2466 63.6809H52.1583V66.7871H55.2466V63.6809Z" fill="black"/>
<path d="M58.3348 63.6809H55.2466V66.7871H58.3348V63.6809Z" fill="black"/>
<path d="M61.4235 63.6809H58.3352V66.7871H61.4235V63.6809Z" fill="black"/>
<path d="M64.5117 63.6809H61.4235V66.7871H64.5117V63.6809Z" fill="black"/>
<path d="M67.6 63.6809H64.5117V66.7871H67.6V63.6809Z" fill="black"/>
<path d="M70.6886 63.6809H67.6003V66.7871H70.6886V63.6809Z" fill="black"/>
<path d="M73.7769 63.6809H70.6886V66.7871H73.7769V63.6809Z" fill="black"/>
<path d="M76.8655 63.6809H73.7772V66.7871H76.8655V63.6809Z" fill="black"/>
<path d="M79.9537 63.6809H76.8655V66.7871H79.9537V63.6809Z" fill="black"/>
<path d="M83.0424 63.6809H79.9541V66.7871H83.0424V63.6809Z" fill="black"/>
<path d="M29.7668 53.5852H26.6786V56.6914H29.7668V53.5852Z" fill="#FA1CD1"/>
<path d="M46.599 53.2747H43.5107V56.3809H46.599V53.2747Z" fill="#FA1CD1"/>
<path d="M46.599 44.7318H43.5107V47.838H46.599V44.7318Z" fill="#FA1CD1"/>
<path d="M36.8705 49.0808H33.7822V52.187H36.8705V49.0808Z" fill="#FA1CD1"/>
<path d="M39.0323 42.5574H35.9441V45.6636H39.0323V42.5574Z" fill="#FA1CD1"/>
<path d="M69.7618 22.6765H66.6736V25.7827H69.7618V22.6765Z" fill="#FA1CD1"/>
<path d="M9.26489 37.9203H6.17664V41.0265H9.26489V37.9203Z" fill="black"/>
<path d="M6.17651 37.9203H3.08826V41.0265H6.17651V37.9203Z" fill="black"/>
<path d="M9.26489 46.8904H6.17664V49.9966H9.26489V46.8904Z" fill="black"/>
<path d="M6.17651 46.8904H3.08826V49.9966H6.17651V46.8904Z" fill="black"/>
<path d="M12.0068 41.0261H3.08826V46.8903H12.0068V41.0261Z" fill="#ECECEC"/>
<path d="M15.097 41.0045H12.0088V44.1107H15.097V41.0045Z" fill="black"/>
<path d="M15.097 43.7628H12.0088V46.869H15.097V43.7628Z" fill="black"/>
<path d="M3.08826 41.0261H0V44.1324H3.08826V41.0261Z" fill="black"/>
<path d="M3.08826 43.7844H0V46.8907H3.08826V43.7844Z" fill="black"/>
</svg>
