<svg width="218" height="227" viewBox="0 0 218 227" fill="none" xmlns="http://www.w3.org/2000/svg">
<g filter="url(#filter0_d_2101_105360)">
<path d="M131.452 63.6489L127.303 58.7045L122.358 62.8534L118.209 57.9089L108.32 66.2067L104.171 61.2623L89.3381 73.709L85.1892 68.7645L75.3003 77.0623L58.7047 57.2845L53.7602 61.4334L49.6113 56.4889L39.7224 64.7867L43.8713 69.7312L38.9268 73.8801L76.2669 118.38L71.3224 122.529L67.1735 117.585L52.3401 130.031L64.7868 144.865L69.7312 140.716L73.8801 145.66L78.8246 141.511L87.1224 151.4L92.0669 147.251L100.365 157.14L105.309 152.991L113.607 162.88L118.551 158.731L130.998 173.565L180.443 132.076L167.996 117.242L172.941 113.094L160.494 98.2601L165.438 94.1112L136.396 59.5L131.452 63.6489Z" fill="white"/>
<path d="M43.6571 69.7316L38.9271 73.6958L88.9284 133.214L93.6583 129.25L43.6571 69.7316Z" fill="#021F43"/>
<path d="M49.4677 56.4891L39.7224 64.6353L44.0149 69.7314L53.7602 61.5852L49.4677 56.4891Z" fill="#021F43"/>
<path d="M58.4965 57.285L53.7605 61.2529L91.3091 105.934L96.045 101.966L58.4965 57.285Z" fill="#021F43"/>
<path d="M85.0459 68.765L75.3006 76.9111L79.5931 82.0073L89.3384 73.8611L85.0459 68.765Z" fill="#021F43"/>
<path d="M98.261 74.5047L93.4869 78.498L106.104 93.487L110.878 89.4937L98.261 74.5047Z" fill="#021F43"/>
<path d="M104.011 61.2619L89.3377 73.5347L93.6465 78.6531L108.32 66.3804L104.011 61.2619Z" fill="#021F43"/>
<path d="M117.244 67.0028L112.469 70.9961L125.078 85.9752L129.852 81.9819L117.244 67.0028Z" fill="#021F43"/>
<path d="M118.066 57.909L108.32 66.0552L112.613 71.1513L122.358 63.0052L118.066 57.909Z" fill="#021F43"/>
<path d="M127.193 58.7048L122.358 62.7441L126.617 67.7981L131.452 63.7587L127.193 58.7048Z" fill="#021F43"/>
<path d="M136.194 59.5006L131.452 63.4727L160.696 98.2607L165.439 94.2887L136.194 59.5006Z" fill="#021F43"/>
<path d="M160.324 98.2606L155.55 102.254L168.167 117.243L172.941 113.25L160.324 98.2606Z" fill="#021F43"/>
<path d="M167.826 117.243L163.052 121.236L175.669 136.225L180.443 132.232L167.826 117.243Z" fill="#021F43"/>
<path d="M171.161 131.28L126.849 168.404L131.186 173.565L175.498 136.441L171.161 131.28Z" fill="#021F43"/>
<path d="M76.1566 118.38L71.3221 122.419L75.581 127.473L80.4155 123.434L76.1566 118.38Z" fill="#021F43"/>
<path d="M67.014 117.585L52.3405 129.858L56.6494 134.976L71.3229 122.704L67.014 117.585Z" fill="#021F43"/>
<path d="M61.2834 130.827L56.4887 134.835L64.9363 144.865L69.731 140.857L61.2834 130.827Z" fill="#021F43"/>
<path d="M74.566 136.568L69.7315 140.607L73.9904 145.661L78.8249 141.622L74.566 136.568Z" fill="#021F43"/>
<path d="M83.6188 137.362L78.8242 141.37L87.2718 151.4L92.0664 147.392L83.6188 137.362Z" fill="#021F43"/>
<path d="M96.8616 143.103L92.067 147.111L100.515 157.141L105.309 153.132L96.8616 143.103Z" fill="#021F43"/>
<path d="M110.103 148.842L105.309 152.851L113.756 162.88L118.551 158.872L110.103 148.842Z" fill="#021F43"/>
<path d="M123.346 154.583L118.552 158.591L126.999 168.621L131.794 164.613L123.346 154.583Z" fill="#021F43"/>
</g>
<defs>
<filter id="filter0_d_2101_105360" x="-36.4769" y="-20.9604" width="282.49" height="285.798" filterUnits="userSpaceOnUse" color-interpolation-filters="sRGB">
<feFlood flood-opacity="0" result="BackgroundImageFix"/>
<feColorMatrix in="SourceAlpha" type="matrix" values="0 0 0 0 0 0 0 0 0 0 0 0 0 0 0 0 0 0 127 0" result="hardAlpha"/>
<feOffset dy="16"/>
<feGaussianBlur stdDeviation="18.5"/>
<feComposite in2="hardAlpha" operator="out"/>
<feColorMatrix type="matrix" values="0 0 0 0 0.137255 0 0 0 0 0.427451 0 0 0 0 0.717647 0 0 0 0.55 0"/>
<feBlend mode="normal" in2="BackgroundImageFix" result="effect1_dropShadow_2101_105360"/>
<feBlend mode="normal" in="SourceGraphic" in2="effect1_dropShadow_2101_105360" result="shape"/>
</filter>
</defs>
</svg>
