<svg width="1365" height="617" viewBox="0 0 1365 617" fill="none" xmlns="http://www.w3.org/2000/svg">
<path d="M1338.67 383.667H1337.33V386.333H1338.67V383.667Z" fill="white"/>
<path d="M1342.67 383.667H1341.33V386.333H1342.67V383.667Z" fill="white"/>
<path d="M1341.33 382.333H1338.67V383.667H1341.33V382.333Z" fill="white"/>
<path d="M1341.33 386.333H1338.67V387.667H1341.33V386.333Z" fill="white"/>
<path d="M1336 374.333H1334.67V377H1336V374.333Z" fill="white"/>
<path d="M1338.67 377H1336V378.333H1338.67V377Z" fill="white"/>
<path d="M1340 374.333H1338.67V377H1340V374.333Z" fill="white"/>
<path d="M1338.67 373H1336V374.333H1338.67V373Z" fill="white"/>
<path d="M1338.67 391.667H1336V393H1338.67V391.667Z" fill="white"/>
<path d="M1340 393H1338.67V395.667H1340V393Z" fill="white"/>
<path d="M1336 393H1334.67V395.667H1336V393Z" fill="white"/>
<path d="M1338.67 395.667H1336V397H1338.67V395.667Z" fill="white"/>
<path d="M1329.33 394.333H1326.67V395.667H1329.33V394.333Z" fill="white"/>
<path d="M1329.33 398.333H1326.67V399.667H1329.33V398.333Z" fill="white"/>
<path d="M1330.67 395.667H1329.33V398.333H1330.67V395.667Z" fill="white"/>
<path d="M1326.67 395.667H1325.33V398.333H1326.67V395.667Z" fill="white"/>
<path d="M1330.67 371.667H1329.33V374.333H1330.67V371.667Z" fill="white"/>
<path d="M1326.67 371.667H1325.33V374.333H1326.67V371.667Z" fill="white"/>
<path d="M1329.33 370.333H1326.67V371.667H1329.33V370.333Z" fill="white"/>
<path d="M1329.33 374.333H1326.67V375.667H1329.33V374.333Z" fill="white"/>
<path d="M1333.33 382.333V379.667H1330.67V378.333H1325.33V379.667H1322.67V382.333H1321.33V387.667H1322.67V390.333H1325.33V391.667H1330.67V390.333H1333.33V387.667H1334.67V382.333H1333.33ZM1330.67 387.667V389H1325.33V387.667H1324V382.333H1325.33V381H1330.67V382.333H1332V387.667H1330.67Z" fill="white"/>
<path d="M1317.33 393H1316V395.667H1317.33V393Z" fill="white"/>
<path d="M1320 395.667H1317.33V397H1320V395.667Z" fill="white"/>
<path d="M1320 391.667H1317.33V393H1320V391.667Z" fill="white"/>
<path d="M1321.33 393H1320V395.667H1321.33V393Z" fill="white"/>
<path d="M1321.33 374.333H1320V377H1321.33V374.333Z" fill="white"/>
<path d="M1320 373H1317.33V374.333H1320V373Z" fill="white"/>
<path d="M1320 377H1317.33V378.333H1320V377Z" fill="white"/>
<path d="M1317.33 374.333H1316V377H1317.33V374.333Z" fill="white"/>
<path d="M1317.33 386.333H1314.67V387.667H1317.33V386.333Z" fill="white"/>
<path d="M1317.33 382.333H1314.67V383.667H1317.33V382.333Z" fill="white"/>
<path d="M1314.67 383.667H1313.33V386.333H1314.67V383.667Z" fill="white"/>
<path d="M1318.67 383.667H1317.33V386.333H1318.67V383.667Z" fill="white"/>
<path d="M62 591H61V593H62V591Z" fill="white"/>
<path d="M65 591H64V593H65V591Z" fill="white"/>
<path d="M64 590H62V591H64V590Z" fill="white"/>
<path d="M64 593H62V594H64V593Z" fill="white"/>
<path d="M60 584H59V586H60V584Z" fill="white"/>
<path d="M62 586H60V587H62V586Z" fill="white"/>
<path d="M63 584H62V586H63V584Z" fill="white"/>
<path d="M62 583H60V584H62V583Z" fill="white"/>
<path d="M62 597H60V598H62V597Z" fill="white"/>
<path d="M63 598H62V600H63V598Z" fill="white"/>
<path d="M60 598H59V600H60V598Z" fill="white"/>
<path d="M62 600H60V601H62V600Z" fill="white"/>
<path d="M55 599H53V600H55V599Z" fill="white"/>
<path d="M55 602H53V603H55V602Z" fill="white"/>
<path d="M56 600H55V602H56V600Z" fill="white"/>
<path d="M53 600H52V602H53V600Z" fill="white"/>
<path d="M56 582H55V584H56V582Z" fill="white"/>
<path d="M53 582H52V584H53V582Z" fill="white"/>
<path d="M55 581H53V582H55V581Z" fill="white"/>
<path d="M55 584H53V585H55V584Z" fill="white"/>
<path d="M58 590V588H56V587H52V588H50V590H49V594H50V596H52V597H56V596H58V594H59V590H58ZM56 594V595H52V594H51V590H52V589H56V590H57V594H56Z" fill="white"/>
<path d="M46 598H45V600H46V598Z" fill="white"/>
<path d="M48 600H46V601H48V600Z" fill="white"/>
<path d="M48 597H46V598H48V597Z" fill="white"/>
<path d="M49 598H48V600H49V598Z" fill="white"/>
<path d="M49 584H48V586H49V584Z" fill="white"/>
<path d="M48 583H46V584H48V583Z" fill="white"/>
<path d="M48 586H46V587H48V586Z" fill="white"/>
<path d="M46 584H45V586H46V584Z" fill="white"/>
<path d="M46 593H44V594H46V593Z" fill="white"/>
<path d="M46 590H44V591H46V590Z" fill="white"/>
<path d="M44 591H43V593H44V591Z" fill="white"/>
<path d="M47 591H46V593H47V591Z" fill="white"/>
<g clip-path="url(#clip0_53_2331)">
<path d="M1064.31 497.799L1063.61 498.506L1062.9 497.799L1061.49 499.213L1062.19 499.92L1061.49 500.627L1062.19 501.335L1061.49 502.042L1062.9 503.456L1063.61 502.749L1064.31 503.456L1065.02 502.749L1065.73 503.456L1067.14 502.042L1066.44 501.335L1067.14 500.627L1066.44 499.92L1067.14 499.213L1065.73 497.799L1065.02 498.506L1064.31 497.799ZM1065.73 500.627L1064.31 502.042L1062.9 500.627L1064.31 499.213L1065.73 500.627Z" fill="white"/>
<path d="M1069.97 492.142L1069.26 492.849L1068.56 492.142L1067.14 493.556L1067.85 494.263L1067.14 494.971L1067.85 495.678L1067.14 496.385L1068.56 497.799L1069.26 497.092L1069.97 497.799L1070.68 497.092L1071.38 497.799L1072.8 496.385L1072.09 495.678L1072.8 494.971L1072.09 494.263L1072.8 493.556L1071.38 492.142L1070.68 492.849L1069.97 492.142ZM1071.38 494.971L1069.97 496.385L1068.56 494.971L1069.97 493.556L1071.38 494.971Z" fill="white"/>
<path d="M1076.33 487.192L1075.63 486.485L1074.92 487.192L1074.21 486.485L1072.8 487.9L1073.51 488.607L1072.8 489.314L1073.51 490.021L1072.8 490.728L1074.21 492.142L1074.92 491.435L1075.63 492.142L1076.33 491.435L1077.04 492.142L1078.46 490.728L1077.75 490.021L1078.46 489.314L1077.75 488.607L1078.46 487.9L1077.04 486.485L1076.33 487.192ZM1075.63 490.728L1074.21 489.314L1075.63 487.9L1077.04 489.314L1075.63 490.728Z" fill="white"/>
</g>
<g clip-path="url(#clip1_53_2331)">
<path d="M273.314 575.799L272.607 576.506L271.899 575.799L270.485 577.213L271.192 577.92L270.485 578.627L271.192 579.335L270.485 580.042L271.899 581.456L272.607 580.749L273.314 581.456L274.021 580.749L274.728 581.456L276.142 580.042L275.435 579.335L276.142 578.627L275.435 577.92L276.142 577.213L274.728 575.799L274.021 576.506L273.314 575.799ZM274.728 578.627L273.314 580.042L271.899 578.627L273.314 577.213L274.728 578.627Z" fill="white"/>
<path d="M278.971 570.142L278.264 570.849L277.556 570.142L276.142 571.556L276.849 572.263L276.142 572.971L276.849 573.678L276.142 574.385L277.556 575.799L278.264 575.092L278.971 575.799L279.678 575.092L280.385 575.799L281.799 574.385L281.092 573.678L281.799 572.971L281.092 572.263L281.799 571.556L280.385 570.142L279.678 570.849L278.971 570.142ZM280.385 572.971L278.971 574.385L277.556 572.971L278.971 571.556L280.385 572.971Z" fill="white"/>
<path d="M285.335 565.192L284.627 564.485L283.92 565.192L283.213 564.485L281.799 565.9L282.506 566.607L281.799 567.314L282.506 568.021L281.799 568.728L283.213 570.142L283.92 569.435L284.627 570.142L285.335 569.435L286.042 570.142L287.456 568.728L286.749 568.021L287.456 567.314L286.749 566.607L287.456 565.9L286.042 564.485L285.335 565.192ZM284.627 568.728L283.213 567.314L284.627 565.9L286.042 567.314L284.627 568.728Z" fill="white"/>
</g>
<g clip-path="url(#clip2_53_2331)">
<path d="M1342.31 114.799L1341.61 115.506L1340.9 114.799L1339.49 116.213L1340.19 116.92L1339.49 117.627L1340.19 118.334L1339.49 119.042L1340.9 120.456L1341.61 119.749L1342.31 120.456L1343.02 119.749L1343.73 120.456L1345.14 119.042L1344.44 118.334L1345.14 117.627L1344.44 116.92L1345.14 116.213L1343.73 114.799L1343.02 115.506L1342.31 114.799ZM1343.73 117.627L1342.31 119.042L1340.9 117.627L1342.31 116.213L1343.73 117.627Z" fill="white"/>
<path d="M1347.97 109.142L1347.26 109.849L1346.56 109.142L1345.14 110.556L1345.85 111.263L1345.14 111.971L1345.85 112.678L1345.14 113.385L1346.56 114.799L1347.26 114.092L1347.97 114.799L1348.68 114.092L1349.38 114.799L1350.8 113.385L1350.09 112.678L1350.8 111.971L1350.09 111.263L1350.8 110.556L1349.38 109.142L1348.68 109.849L1347.97 109.142ZM1349.38 111.971L1347.97 113.385L1346.56 111.971L1347.97 110.556L1349.38 111.971Z" fill="white"/>
<path d="M1354.33 104.192L1353.63 103.485L1352.92 104.192L1352.21 103.485L1350.8 104.899L1351.51 105.607L1350.8 106.314L1351.51 107.021L1350.8 107.728L1352.21 109.142L1352.92 108.435L1353.63 109.142L1354.33 108.435L1355.04 109.142L1356.46 107.728L1355.75 107.021L1356.46 106.314L1355.75 105.607L1356.46 104.899L1355.04 103.485L1354.33 104.192ZM1353.63 107.728L1352.21 106.314L1353.63 104.899L1355.04 106.314L1353.63 107.728Z" fill="white"/>
</g>
<g clip-path="url(#clip3_53_2331)">
<path d="M65.3137 163.799L64.6066 164.506L63.8995 163.799L62.4853 165.213L63.1924 165.92L62.4853 166.627L63.1924 167.334L62.4853 168.042L63.8995 169.456L64.6066 168.749L65.3137 169.456L66.0208 168.749L66.7279 169.456L68.1421 168.042L67.435 167.334L68.1421 166.627L67.435 165.92L68.1421 165.213L66.7279 163.799L66.0208 164.506L65.3137 163.799ZM66.7279 166.627L65.3137 168.042L63.8995 166.627L65.3137 165.213L66.7279 166.627Z" fill="white"/>
<path d="M70.9707 158.142L70.2636 158.849L69.5565 158.142L68.1422 159.556L68.8493 160.263L68.1422 160.971L68.8493 161.678L68.1422 162.385L69.5565 163.799L70.2636 163.092L70.9707 163.799L71.6778 163.092L72.3849 163.799L73.7991 162.385L73.092 161.678L73.7991 160.971L73.092 160.263L73.7991 159.556L72.3849 158.142L71.6778 158.849L70.9707 158.142ZM72.3849 160.971L70.9707 162.385L69.5565 160.971L70.9707 159.556L72.3849 160.971Z" fill="white"/>
<path d="M77.3345 153.192L76.6274 152.485L75.9203 153.192L75.2132 152.485L73.799 153.899L74.5061 154.607L73.799 155.314L74.5061 156.021L73.799 156.728L75.2132 158.142L75.9203 157.435L76.6274 158.142L77.3345 157.435L78.0416 158.142L79.4558 156.728L78.7487 156.021L79.4558 155.314L78.7487 154.607L79.4558 153.899L78.0416 152.485L77.3345 153.192ZM76.6274 156.728L75.2132 155.314L76.6274 153.899L78.0416 155.314L76.6274 156.728Z" fill="white"/>
</g>
<path d="M170 440H168V441H170V440Z" fill="white"/>
<path d="M171 438H170V440H171V438Z" fill="white"/>
<path d="M170 437H168V438H170V437Z" fill="white"/>
<path d="M168 438H167V440H168V438Z" fill="white"/>
<path d="M167 446H165V447H167V446Z" fill="white"/>
<path d="M168 444H167V446H168V444Z" fill="white"/>
<path d="M167 443H165V444H167V443Z" fill="white"/>
<path d="M165 444H164V446H165V444Z" fill="white"/>
<path d="M159 447H158V449H159V447Z" fill="white"/>
<path d="M161 449H159V450H161V449Z" fill="white"/>
<path d="M162 447H161V449H162V447Z" fill="white"/>
<path d="M161 446H159V447H161V446Z" fill="white"/>
<path d="M155 446H153V447H155V446Z" fill="white"/>
<path d="M162 429H161V431H162V429Z" fill="white"/>
<path d="M161 431H159V432H161V431Z" fill="white"/>
<path d="M161 428H159V429H161V428Z" fill="white"/>
<path d="M159 429H158V431H159V429Z" fill="white"/>
<path d="M156 444H155V446H156V444Z" fill="white"/>
<path d="M155 443H153V444H155V443Z" fill="white"/>
<path d="M153 444H152V446H153V444Z" fill="white"/>
<path d="M153 438H152V440H153V438Z" fill="white"/>
<path d="M156 432H155V434H156V432Z" fill="white"/>
<path d="M155 434H153V435H155V434Z" fill="white"/>
<path d="M155 431H153V432H155V431Z" fill="white"/>
<path d="M153 432H152V434H153V432Z" fill="white"/>
<path d="M168 432H167V434H168V432Z" fill="white"/>
<path d="M167 434H165V435H167V434Z" fill="white"/>
<path d="M167 431H165V432H167V431Z" fill="white"/>
<path d="M165 432H164V434H165V432Z" fill="white"/>
<path d="M152 437H150V438H152V437Z" fill="white"/>
<path d="M152 440H150V441H152V440Z" fill="white"/>
<path d="M150 438H149V440H150V438Z" fill="white"/>
<path d="M1229 197H1230V199H1229V200H1227V199H1226V197H1227V196H1229V197Z" fill="white"/>
<path d="M1241 197H1242V199H1241V200H1239V199H1238V197H1239V196H1241V197Z" fill="white"/>
<path d="M1235 194H1236V196H1235V197H1233V196H1232V194H1233V193H1235V194Z" fill="white"/>
<path d="M1226 206H1224V205H1223V203H1224V202H1226V203H1227V205H1226V206Z" fill="white"/>
<path d="M1229 209H1230V211H1229V212H1227V211H1226V209H1227V208H1229V209Z" fill="white"/>
<path d="M1245 203V205H1244V206H1242V205H1241V203H1242V202H1244V203H1245Z" fill="white"/>
<path d="M1241 209H1242V211H1241V212H1239V211H1238V209H1239V208H1241V209Z" fill="white"/>
<path d="M1235 212H1236V214H1235V215H1233V214H1232V212H1233V211H1235V212Z" fill="white"/>
<path d="M1149 605H1150V607H1149V608H1147V607H1146V605H1147V604H1149V605Z" fill="white"/>
<path d="M1161 605H1162V607H1161V608H1159V607H1158V605H1159V604H1161V605Z" fill="white"/>
<path d="M1155 602H1156V604H1155V605H1153V604H1152V602H1153V601H1155V602Z" fill="white"/>
<path d="M1146 614H1144V613H1143V611H1144V610H1146V611H1147V613H1146V614Z" fill="white"/>
<path d="M1149 617H1150V619H1149V620H1147V619H1146V617H1147V616H1149V617Z" fill="white"/>
<path d="M1165 611V613H1164V614H1162V613H1161V611H1162V610H1164V611H1165Z" fill="white"/>
<path d="M1161 617H1162V619H1161V620H1159V619H1158V617H1159V616H1161V617Z" fill="white"/>
<path d="M181.828 250.657L184.657 247.828L187.485 250.657L184.657 253.485L181.828 250.657Z" fill="white"/>
<path d="M187.485 250.657L190.314 247.828L193.142 250.657L190.314 253.485L187.485 250.657Z" fill="white"/>
<path d="M187.485 256.314L190.314 253.485L193.142 256.314L190.314 259.142L187.485 256.314Z" fill="white"/>
<path d="M181.828 256.314L184.657 253.485L187.485 256.314L184.657 259.142L181.828 256.314Z" fill="white"/>
<path d="M624.828 566.172L627.657 563.343L630.485 566.172L627.657 569L624.828 566.172Z" fill="white"/>
<path d="M630.485 566.172L633.314 563.343L636.142 566.172L633.314 569L630.485 566.172Z" fill="white"/>
<path d="M630.485 571.828L633.314 569L636.142 571.828L633.314 574.657L630.485 571.828Z" fill="white"/>
<path d="M624.828 571.828L627.657 569L630.485 571.828L627.657 574.657L624.828 571.828Z" fill="white"/>
<path d="M878 417H882V421H878V417Z" fill="white"/>
<path d="M882 421H886V425H882V421Z" fill="white"/>
<path d="M878 425H882V429H878V425Z" fill="white"/>
<path d="M874 421H878V425H874V421Z" fill="white"/>
<path d="M1244 578H1248V582H1244V578Z" fill="white"/>
<path d="M1248 582H1252V586H1248V582Z" fill="white"/>
<path d="M1244 586H1248V590H1244V586Z" fill="white"/>
<path d="M1240 582H1244V586H1240V582Z" fill="white"/>
<path d="M1232 20H1236V24H1232V20Z" fill="white"/>
<path d="M1236 24H1240V28H1236V24Z" fill="white"/>
<path d="M1232 28H1236V32H1232V28Z" fill="white"/>
<path d="M1228 24H1232V28H1228V24Z" fill="white"/>
<path d="M9.69746 11.3137L11.3137 9.69746L12.93 11.3137L11.3137 12.9299L9.69746 11.3137Z" fill="white"/>
<path d="M4.84873 6.46497L6.46498 4.84873L9.69746 8.08122L8.08122 9.69746L4.84873 6.46497Z" fill="white"/>
<path d="M12.93 14.5462L14.5462 12.9299L17.7787 16.1624L16.1624 17.7787L12.93 14.5462Z" fill="white"/>
<path d="M6.46498 17.7787L4.84873 16.1624L8.08122 12.9299L9.69746 14.5462L6.46498 17.7787Z" fill="white"/>
<path d="M14.5462 9.69746L12.93 8.08122L16.1624 4.84873L17.7787 6.46497L14.5462 9.69746Z" fill="white"/>
<path d="M16.8571 391.857H19.1429V394.143H16.8571V391.857Z" fill="white"/>
<path d="M16.8571 385H19.1429V389.571H16.8571V385Z" fill="white"/>
<path d="M16.8571 396.429H19.1429V401H16.8571V396.429Z" fill="white"/>
<path d="M10 394.143V391.857H14.5714V394.143H10Z" fill="white"/>
<path d="M21.4286 394.143V391.857H26V394.143H21.4286Z" fill="white"/>
<path d="M1119.6 329.192L1121.81 328.6L1122.4 330.808L1120.19 331.4L1119.6 329.192Z" fill="white"/>
<path d="M1117.83 322.568L1120.03 321.977L1121.22 326.392L1119.01 326.984L1117.83 322.568Z" fill="white"/>
<path d="M1120.78 333.608L1122.99 333.016L1124.17 337.432L1121.97 338.023L1120.78 333.608Z" fill="white"/>
<path d="M1113.57 333.174L1112.98 330.967L1117.39 329.783L1117.98 331.991L1113.57 333.174Z" fill="white"/>
<path d="M1124.61 330.217L1124.02 328.009L1128.43 326.826L1129.02 329.033L1124.61 330.217Z" fill="white"/>
<path d="M525.857 449.857H528.143V452.143H525.857V449.857Z" fill="white"/>
<path d="M525.857 443H528.143V447.571H525.857V443Z" fill="white"/>
<path d="M525.857 454.429H528.143V459H525.857V454.429Z" fill="white"/>
<path d="M519 452.143V449.857H523.571V452.143H519Z" fill="white"/>
<path d="M530.429 452.143V449.857H535V452.143H530.429Z" fill="white"/>
<defs>
<clipPath id="clip0_53_2331">
<rect width="24" height="24" fill="white" transform="translate(1053 494.971) rotate(-45)"/>
</clipPath>
<clipPath id="clip1_53_2331">
<rect width="24" height="24" fill="white" transform="translate(262 572.971) rotate(-45)"/>
</clipPath>
<clipPath id="clip2_53_2331">
<rect width="24" height="24" fill="white" transform="translate(1331 111.971) rotate(-45)"/>
</clipPath>
<clipPath id="clip3_53_2331">
<rect width="24" height="24" fill="white" transform="translate(54 160.971) rotate(-45)"/>
</clipPath>
</defs>
</svg>
